G04 EAGLE Gerber RS-274X export*
G75*
%MOMM*%
%FSLAX34Y34*%
%LPD*%
%INTop Copper*%
%IPPOS*%
%AMOC8*
5,1,8,0,0,1.08239X$1,22.5*%
G01*
%ADD10R,0.800000X0.800000*%
%ADD11R,1.100000X1.000000*%
%ADD12C,1.000000*%
%ADD13P,1.649562X8X202.500000*%
%ADD14C,1.524000*%
%ADD15R,0.800000X0.400000*%
%ADD16R,0.400000X0.800000*%
%ADD17R,1.450000X1.450000*%
%ADD18R,0.700000X0.700000*%
%ADD19C,0.499997*%
%ADD20R,0.500000X0.800000*%
%ADD21R,1.000000X1.100000*%
%ADD22C,0.604800*%
%ADD23C,0.508000*%
%ADD24C,0.406400*%
%ADD25C,0.304800*%
%ADD26C,0.254000*%
%ADD27C,0.812800*%
%ADD28C,0.609600*%
%ADD29C,0.203200*%

G36*
X-75632Y41977D02*
X-75632Y41977D01*
X-75613Y41975D01*
X-75511Y41997D01*
X-75409Y42014D01*
X-75392Y42023D01*
X-75372Y42028D01*
X-75283Y42081D01*
X-75192Y42129D01*
X-75178Y42143D01*
X-75161Y42154D01*
X-75094Y42232D01*
X-75022Y42307D01*
X-75014Y42325D01*
X-75001Y42341D01*
X-74962Y42437D01*
X-74919Y42530D01*
X-74917Y42550D01*
X-74909Y42569D01*
X-74891Y42735D01*
X-74891Y43313D01*
X-70338Y43313D01*
X-70319Y43316D01*
X-70299Y43314D01*
X-70197Y43336D01*
X-70095Y43353D01*
X-70078Y43362D01*
X-70058Y43366D01*
X-69969Y43420D01*
X-69878Y43468D01*
X-69864Y43482D01*
X-69847Y43493D01*
X-69844Y43496D01*
X-69790Y43445D01*
X-69772Y43437D01*
X-69757Y43424D01*
X-69660Y43385D01*
X-69567Y43341D01*
X-69547Y43339D01*
X-69529Y43332D01*
X-69362Y43313D01*
X-64809Y43313D01*
X-64809Y42735D01*
X-64806Y42716D01*
X-64808Y42696D01*
X-64786Y42595D01*
X-64770Y42493D01*
X-64760Y42475D01*
X-64756Y42456D01*
X-64703Y42366D01*
X-64654Y42275D01*
X-64640Y42262D01*
X-64630Y42245D01*
X-64551Y42177D01*
X-64476Y42106D01*
X-64458Y42098D01*
X-64443Y42085D01*
X-64347Y42046D01*
X-64253Y42002D01*
X-64233Y42000D01*
X-64215Y41993D01*
X-64048Y41974D01*
X-59777Y41974D01*
X-59757Y41977D01*
X-59738Y41975D01*
X-59636Y41997D01*
X-59534Y42014D01*
X-59517Y42023D01*
X-59497Y42028D01*
X-59408Y42081D01*
X-59317Y42129D01*
X-59303Y42143D01*
X-59286Y42154D01*
X-59219Y42232D01*
X-59147Y42307D01*
X-59139Y42325D01*
X-59126Y42341D01*
X-59087Y42437D01*
X-59044Y42530D01*
X-59042Y42550D01*
X-59034Y42569D01*
X-59016Y42735D01*
X-59016Y43313D01*
X-54463Y43313D01*
X-54444Y43316D01*
X-54424Y43314D01*
X-54322Y43336D01*
X-54220Y43353D01*
X-54203Y43362D01*
X-54183Y43366D01*
X-54094Y43420D01*
X-54003Y43468D01*
X-53989Y43482D01*
X-53972Y43493D01*
X-53969Y43496D01*
X-53915Y43445D01*
X-53897Y43437D01*
X-53882Y43424D01*
X-53785Y43385D01*
X-53692Y43341D01*
X-53672Y43339D01*
X-53654Y43332D01*
X-53487Y43313D01*
X-48934Y43313D01*
X-48934Y42735D01*
X-48931Y42716D01*
X-48933Y42696D01*
X-48911Y42595D01*
X-48895Y42493D01*
X-48885Y42475D01*
X-48881Y42456D01*
X-48828Y42366D01*
X-48779Y42275D01*
X-48765Y42262D01*
X-48755Y42245D01*
X-48676Y42177D01*
X-48601Y42106D01*
X-48583Y42098D01*
X-48568Y42085D01*
X-48472Y42046D01*
X-48378Y42002D01*
X-48358Y42000D01*
X-48340Y41993D01*
X-48173Y41974D01*
X-43902Y41974D01*
X-43882Y41977D01*
X-43863Y41975D01*
X-43761Y41997D01*
X-43659Y42014D01*
X-43642Y42023D01*
X-43622Y42028D01*
X-43533Y42081D01*
X-43442Y42129D01*
X-43428Y42143D01*
X-43411Y42154D01*
X-43344Y42232D01*
X-43272Y42307D01*
X-43264Y42325D01*
X-43251Y42341D01*
X-43212Y42437D01*
X-43169Y42530D01*
X-43167Y42550D01*
X-43159Y42569D01*
X-43141Y42735D01*
X-43141Y43313D01*
X-38588Y43313D01*
X-38569Y43316D01*
X-38549Y43314D01*
X-38447Y43336D01*
X-38345Y43353D01*
X-38328Y43362D01*
X-38308Y43366D01*
X-38219Y43420D01*
X-38128Y43468D01*
X-38114Y43482D01*
X-38097Y43493D01*
X-38094Y43496D01*
X-38040Y43445D01*
X-38022Y43437D01*
X-38007Y43424D01*
X-37910Y43385D01*
X-37817Y43341D01*
X-37797Y43339D01*
X-37779Y43332D01*
X-37612Y43313D01*
X-33059Y43313D01*
X-33059Y42735D01*
X-33056Y42716D01*
X-33058Y42696D01*
X-33036Y42595D01*
X-33020Y42493D01*
X-33010Y42475D01*
X-33006Y42456D01*
X-32953Y42366D01*
X-32904Y42275D01*
X-32890Y42262D01*
X-32880Y42245D01*
X-32801Y42177D01*
X-32726Y42106D01*
X-32708Y42098D01*
X-32693Y42085D01*
X-32597Y42046D01*
X-32503Y42002D01*
X-32483Y42000D01*
X-32465Y41993D01*
X-32298Y41974D01*
X-26439Y41974D01*
X-26420Y41977D01*
X-26400Y41975D01*
X-26299Y41997D01*
X-26197Y42014D01*
X-26179Y42023D01*
X-26160Y42028D01*
X-26071Y42081D01*
X-25979Y42129D01*
X-25966Y42143D01*
X-25949Y42154D01*
X-25881Y42232D01*
X-25810Y42307D01*
X-25802Y42325D01*
X-25789Y42341D01*
X-25750Y42437D01*
X-25706Y42530D01*
X-25704Y42550D01*
X-25697Y42569D01*
X-25678Y42735D01*
X-25678Y43313D01*
X-21126Y43313D01*
X-21106Y43316D01*
X-21086Y43314D01*
X-20985Y43336D01*
X-20883Y43353D01*
X-20865Y43362D01*
X-20846Y43366D01*
X-20757Y43420D01*
X-20666Y43468D01*
X-20652Y43482D01*
X-20635Y43493D01*
X-20632Y43496D01*
X-20577Y43445D01*
X-20559Y43437D01*
X-20544Y43424D01*
X-20448Y43385D01*
X-20354Y43341D01*
X-20335Y43339D01*
X-20316Y43332D01*
X-20149Y43313D01*
X-15597Y43313D01*
X-15597Y42735D01*
X-15594Y42716D01*
X-15596Y42696D01*
X-15574Y42595D01*
X-15557Y42493D01*
X-15548Y42475D01*
X-15543Y42456D01*
X-15490Y42366D01*
X-15442Y42275D01*
X-15428Y42262D01*
X-15417Y42245D01*
X-15339Y42177D01*
X-15264Y42106D01*
X-15246Y42098D01*
X-15230Y42085D01*
X-15134Y42046D01*
X-15041Y42002D01*
X-15021Y42000D01*
X-15002Y41993D01*
X-14836Y41974D01*
X-4635Y41974D01*
X-4616Y41977D01*
X-4596Y41975D01*
X-4495Y41997D01*
X-4393Y42014D01*
X-4375Y42023D01*
X-4356Y42028D01*
X-4267Y42081D01*
X-4175Y42129D01*
X-4162Y42143D01*
X-4145Y42154D01*
X-4077Y42232D01*
X-4006Y42307D01*
X-3998Y42325D01*
X-3985Y42341D01*
X-3946Y42437D01*
X-3902Y42530D01*
X-3900Y42550D01*
X-3893Y42569D01*
X-3874Y42735D01*
X-3874Y49709D01*
X-3883Y49763D01*
X-3882Y49817D01*
X-3903Y49884D01*
X-3914Y49952D01*
X-3939Y50000D01*
X-3956Y50052D01*
X-3959Y50056D01*
X-3878Y50875D01*
X-3880Y50902D01*
X-3874Y50950D01*
X-3874Y51870D01*
X-3876Y51883D01*
X-3875Y51891D01*
X-3885Y51936D01*
X-3891Y51971D01*
X-3902Y52074D01*
X-3905Y52082D01*
X-3710Y52725D01*
X-3707Y52749D01*
X-3681Y52871D01*
X-3614Y53556D01*
X-3581Y53592D01*
X-3578Y53598D01*
X-3574Y53602D01*
X-3529Y53710D01*
X-3482Y53817D01*
X-3482Y53824D01*
X-3479Y53829D01*
X-3471Y53946D01*
X-3461Y54053D01*
X-3142Y54651D01*
X-3134Y54673D01*
X-3084Y54789D01*
X-2885Y55447D01*
X-2845Y55476D01*
X-2842Y55481D01*
X-2837Y55485D01*
X-2771Y55582D01*
X-2705Y55677D01*
X-2703Y55683D01*
X-2699Y55689D01*
X-2668Y55801D01*
X-2638Y55904D01*
X-2208Y56428D01*
X-2196Y56449D01*
X-2125Y56552D01*
X-1801Y57159D01*
X-1756Y57180D01*
X-1752Y57184D01*
X-1746Y57187D01*
X-1663Y57270D01*
X-1579Y57350D01*
X-1576Y57356D01*
X-1572Y57360D01*
X-1519Y57465D01*
X-1470Y57560D01*
X-945Y57990D01*
X-930Y58008D01*
X-840Y58095D01*
X-404Y58627D01*
X-356Y58639D01*
X-351Y58642D01*
X-345Y58644D01*
X-247Y58708D01*
X-149Y58771D01*
X-145Y58776D01*
X-140Y58780D01*
X-68Y58872D01*
X-1Y58955D01*
X598Y59275D01*
X617Y59290D01*
X722Y59358D01*
X1253Y59794D01*
X1302Y59796D01*
X1308Y59799D01*
X1314Y59799D01*
X1423Y59844D01*
X1531Y59886D01*
X1536Y59890D01*
X1542Y59892D01*
X1630Y59969D01*
X1712Y60038D01*
X2361Y60234D01*
X2383Y60245D01*
X2499Y60292D01*
X3106Y60616D01*
X3154Y60608D01*
X3160Y60609D01*
X3167Y60609D01*
X3282Y60631D01*
X3396Y60652D01*
X3402Y60654D01*
X3408Y60656D01*
X3510Y60714D01*
X3603Y60765D01*
X4278Y60831D01*
X4302Y60837D01*
X4425Y60860D01*
X5076Y61058D01*
X5113Y61043D01*
X5139Y61040D01*
X5154Y61035D01*
X5186Y61035D01*
X5280Y61024D01*
X6200Y61024D01*
X6226Y61028D01*
X6275Y61028D01*
X7107Y61110D01*
X7110Y61109D01*
X7170Y61074D01*
X7223Y61063D01*
X7274Y61043D01*
X7383Y61031D01*
X7411Y61025D01*
X7423Y61026D01*
X7441Y61024D01*
X7594Y61024D01*
X7665Y61036D01*
X7737Y61038D01*
X7786Y61056D01*
X7837Y61064D01*
X7900Y61098D01*
X7968Y61122D01*
X8008Y61155D01*
X8054Y61179D01*
X8104Y61231D01*
X8160Y61276D01*
X8188Y61320D01*
X8224Y61357D01*
X8254Y61422D01*
X8293Y61483D01*
X8305Y61533D01*
X8327Y61580D01*
X8335Y61652D01*
X8353Y61721D01*
X8349Y61773D01*
X8354Y61825D01*
X8339Y61895D01*
X8334Y61966D01*
X8313Y62014D01*
X8302Y62065D01*
X8265Y62127D01*
X8237Y62193D01*
X8192Y62249D01*
X8176Y62276D01*
X8158Y62292D01*
X8132Y62324D01*
X7263Y63193D01*
X7263Y74457D01*
X8156Y75350D01*
X11304Y75350D01*
X11324Y75353D01*
X11343Y75351D01*
X11445Y75373D01*
X11547Y75389D01*
X11564Y75399D01*
X11584Y75403D01*
X11673Y75456D01*
X11764Y75505D01*
X11778Y75519D01*
X11795Y75529D01*
X11862Y75608D01*
X11934Y75683D01*
X11942Y75701D01*
X11955Y75716D01*
X11994Y75812D01*
X12037Y75906D01*
X12039Y75926D01*
X12047Y75944D01*
X12065Y76111D01*
X12065Y156882D01*
X29236Y174053D01*
X29289Y174127D01*
X29349Y174197D01*
X29361Y174227D01*
X29380Y174253D01*
X29407Y174340D01*
X29441Y174425D01*
X29445Y174466D01*
X29452Y174488D01*
X29451Y174520D01*
X29459Y174591D01*
X29459Y187957D01*
X29445Y188047D01*
X29437Y188138D01*
X29425Y188167D01*
X29420Y188199D01*
X29377Y188280D01*
X29341Y188364D01*
X29315Y188396D01*
X29304Y188417D01*
X29281Y188439D01*
X29236Y188495D01*
X28538Y189193D01*
X28522Y189205D01*
X28510Y189220D01*
X28422Y189276D01*
X28339Y189336D01*
X28320Y189342D01*
X28303Y189353D01*
X28202Y189378D01*
X28103Y189409D01*
X28084Y189408D01*
X28064Y189413D01*
X27961Y189405D01*
X27858Y189402D01*
X27839Y189396D01*
X27819Y189394D01*
X27724Y189354D01*
X27627Y189318D01*
X27611Y189305D01*
X27593Y189298D01*
X27462Y189193D01*
X26946Y188677D01*
X26934Y188661D01*
X26919Y188648D01*
X26863Y188561D01*
X26802Y188477D01*
X26796Y188458D01*
X26786Y188442D01*
X26760Y188341D01*
X26730Y188242D01*
X26730Y188222D01*
X26726Y188203D01*
X26734Y188100D01*
X26736Y187996D01*
X26743Y187978D01*
X26745Y187958D01*
X26785Y187863D01*
X26821Y187765D01*
X26833Y187750D01*
X26841Y187731D01*
X26923Y187629D01*
X26926Y187625D01*
X26929Y187622D01*
X26946Y187601D01*
X27931Y186616D01*
X27931Y182847D01*
X25266Y180183D01*
X22742Y180183D01*
X22652Y180168D01*
X22561Y180161D01*
X22531Y180148D01*
X22499Y180143D01*
X22418Y180100D01*
X22334Y180065D01*
X22302Y180039D01*
X22282Y180028D01*
X22259Y180005D01*
X22203Y179960D01*
X2891Y160647D01*
X2838Y160573D01*
X2778Y160504D01*
X2766Y160473D01*
X2747Y160447D01*
X2720Y160360D01*
X2686Y160275D01*
X2682Y160235D01*
X2675Y160212D01*
X2676Y160180D01*
X2668Y160109D01*
X2668Y107419D01*
X-17727Y87024D01*
X-17769Y86966D01*
X-17818Y86914D01*
X-17840Y86867D01*
X-17870Y86824D01*
X-17891Y86756D01*
X-17922Y86691D01*
X-17927Y86639D01*
X-17943Y86589D01*
X-17941Y86518D01*
X-17949Y86446D01*
X-17938Y86396D01*
X-17936Y86344D01*
X-17912Y86276D01*
X-17896Y86206D01*
X-17870Y86161D01*
X-17852Y86113D01*
X-17807Y86056D01*
X-17770Y85995D01*
X-17731Y85961D01*
X-17698Y85920D01*
X-17638Y85882D01*
X-17583Y85835D01*
X-17535Y85816D01*
X-17491Y85787D01*
X-17422Y85770D01*
X-17355Y85743D01*
X-17284Y85735D01*
X-17253Y85727D01*
X-17229Y85729D01*
X-17188Y85725D01*
X-16470Y85725D01*
X-14113Y83367D01*
X-14113Y69033D01*
X-16390Y66756D01*
X-16443Y66682D01*
X-16502Y66612D01*
X-16515Y66582D01*
X-16533Y66556D01*
X-16560Y66469D01*
X-16594Y66384D01*
X-16599Y66343D01*
X-16606Y66321D01*
X-16605Y66289D01*
X-16613Y66218D01*
X-16613Y61931D01*
X-17506Y61038D01*
X-23769Y61038D01*
X-24662Y61931D01*
X-24662Y66218D01*
X-24677Y66308D01*
X-24684Y66399D01*
X-24697Y66428D01*
X-24702Y66460D01*
X-24745Y66541D01*
X-24780Y66625D01*
X-24806Y66657D01*
X-24817Y66678D01*
X-24840Y66700D01*
X-24885Y66756D01*
X-27162Y69033D01*
X-27162Y81707D01*
X-27174Y81778D01*
X-27176Y81849D01*
X-27194Y81898D01*
X-27202Y81950D01*
X-27235Y82013D01*
X-27260Y82080D01*
X-27293Y82121D01*
X-27317Y82167D01*
X-27369Y82216D01*
X-27414Y82272D01*
X-27458Y82301D01*
X-27495Y82336D01*
X-27560Y82367D01*
X-27621Y82405D01*
X-27671Y82418D01*
X-27718Y82440D01*
X-27790Y82448D01*
X-27859Y82465D01*
X-27911Y82461D01*
X-27963Y82467D01*
X-28033Y82452D01*
X-28104Y82446D01*
X-28152Y82426D01*
X-28203Y82415D01*
X-28265Y82378D01*
X-28331Y82350D01*
X-28387Y82305D01*
X-28414Y82289D01*
X-28430Y82271D01*
X-28462Y82245D01*
X-31352Y79355D01*
X-31406Y79281D01*
X-31465Y79211D01*
X-31477Y79181D01*
X-31496Y79155D01*
X-31523Y79068D01*
X-31557Y78983D01*
X-31561Y78942D01*
X-31568Y78920D01*
X-31567Y78888D01*
X-31575Y78816D01*
X-31575Y69033D01*
X-33852Y66756D01*
X-33905Y66682D01*
X-33965Y66613D01*
X-33977Y66582D01*
X-33996Y66556D01*
X-34023Y66469D01*
X-34057Y66384D01*
X-34061Y66343D01*
X-34068Y66321D01*
X-34067Y66289D01*
X-34075Y66218D01*
X-34075Y61931D01*
X-34968Y61038D01*
X-41232Y61038D01*
X-42125Y61931D01*
X-42125Y66218D01*
X-42139Y66308D01*
X-42147Y66399D01*
X-42159Y66428D01*
X-42164Y66460D01*
X-42207Y66541D01*
X-42243Y66625D01*
X-42269Y66657D01*
X-42280Y66678D01*
X-42303Y66700D01*
X-42348Y66756D01*
X-44625Y69033D01*
X-44625Y81707D01*
X-44636Y81778D01*
X-44638Y81849D01*
X-44656Y81898D01*
X-44664Y81950D01*
X-44698Y82013D01*
X-44723Y82080D01*
X-44755Y82121D01*
X-44780Y82167D01*
X-44831Y82216D01*
X-44876Y82272D01*
X-44920Y82301D01*
X-44958Y82336D01*
X-45023Y82367D01*
X-45083Y82405D01*
X-45134Y82418D01*
X-45181Y82440D01*
X-45252Y82448D01*
X-45322Y82465D01*
X-45374Y82461D01*
X-45425Y82467D01*
X-45496Y82452D01*
X-45567Y82446D01*
X-45615Y82426D01*
X-45666Y82415D01*
X-45727Y82378D01*
X-45793Y82350D01*
X-45849Y82305D01*
X-45877Y82289D01*
X-45892Y82271D01*
X-45924Y82245D01*
X-47227Y80942D01*
X-47280Y80868D01*
X-47340Y80799D01*
X-47352Y80768D01*
X-47371Y80742D01*
X-47398Y80655D01*
X-47432Y80570D01*
X-47436Y80530D01*
X-47443Y80507D01*
X-47442Y80475D01*
X-47450Y80404D01*
X-47450Y69033D01*
X-49727Y66756D01*
X-49780Y66682D01*
X-49840Y66612D01*
X-49852Y66582D01*
X-49871Y66556D01*
X-49898Y66469D01*
X-49932Y66384D01*
X-49936Y66343D01*
X-49943Y66321D01*
X-49942Y66289D01*
X-49950Y66218D01*
X-49950Y61931D01*
X-50843Y61038D01*
X-57107Y61038D01*
X-58000Y61931D01*
X-58000Y66218D01*
X-58014Y66308D01*
X-58022Y66399D01*
X-58034Y66428D01*
X-58039Y66460D01*
X-58082Y66541D01*
X-58118Y66625D01*
X-58144Y66657D01*
X-58155Y66678D01*
X-58178Y66700D01*
X-58223Y66756D01*
X-60500Y69033D01*
X-60500Y79581D01*
X-60511Y79651D01*
X-60513Y79723D01*
X-60531Y79772D01*
X-60539Y79823D01*
X-60573Y79887D01*
X-60598Y79954D01*
X-60630Y79995D01*
X-60655Y80041D01*
X-60706Y80090D01*
X-60751Y80146D01*
X-60795Y80174D01*
X-60833Y80210D01*
X-60898Y80240D01*
X-60958Y80279D01*
X-61009Y80292D01*
X-61056Y80314D01*
X-61127Y80322D01*
X-61197Y80339D01*
X-61249Y80335D01*
X-61300Y80341D01*
X-61371Y80326D01*
X-61442Y80320D01*
X-61490Y80300D01*
X-61541Y80289D01*
X-61602Y80252D01*
X-61668Y80224D01*
X-61724Y80179D01*
X-61752Y80162D01*
X-61767Y80145D01*
X-61799Y80119D01*
X-63102Y78816D01*
X-63156Y78742D01*
X-63215Y78672D01*
X-63227Y78642D01*
X-63246Y78616D01*
X-63273Y78529D01*
X-63307Y78444D01*
X-63311Y78403D01*
X-63318Y78381D01*
X-63317Y78349D01*
X-63325Y78277D01*
X-63325Y69033D01*
X-65602Y66756D01*
X-65655Y66682D01*
X-65715Y66612D01*
X-65727Y66582D01*
X-65746Y66556D01*
X-65773Y66469D01*
X-65807Y66384D01*
X-65811Y66343D01*
X-65818Y66321D01*
X-65817Y66289D01*
X-65825Y66218D01*
X-65825Y61931D01*
X-66718Y61038D01*
X-72982Y61038D01*
X-73875Y61931D01*
X-73875Y66218D01*
X-73889Y66308D01*
X-73897Y66399D01*
X-73909Y66428D01*
X-73914Y66460D01*
X-73957Y66541D01*
X-73993Y66625D01*
X-74019Y66657D01*
X-74030Y66678D01*
X-74053Y66700D01*
X-74098Y66756D01*
X-76375Y69033D01*
X-76375Y83367D01*
X-74017Y85725D01*
X-65683Y85725D01*
X-65070Y85111D01*
X-65053Y85100D01*
X-65041Y85084D01*
X-64954Y85028D01*
X-64870Y84968D01*
X-64851Y84962D01*
X-64834Y84951D01*
X-64734Y84926D01*
X-64635Y84895D01*
X-64615Y84896D01*
X-64595Y84891D01*
X-64493Y84899D01*
X-64389Y84902D01*
X-64370Y84909D01*
X-64350Y84910D01*
X-64255Y84951D01*
X-64158Y84986D01*
X-64142Y84999D01*
X-64124Y85007D01*
X-63993Y85111D01*
X-53791Y95313D01*
X-34655Y95313D01*
X-34565Y95328D01*
X-34474Y95335D01*
X-34444Y95348D01*
X-34412Y95353D01*
X-34331Y95396D01*
X-34248Y95431D01*
X-34215Y95457D01*
X-34195Y95468D01*
X-34173Y95491D01*
X-34117Y95536D01*
X-13876Y115777D01*
X-13823Y115851D01*
X-13764Y115920D01*
X-13751Y115950D01*
X-13733Y115976D01*
X-13706Y116063D01*
X-13672Y116148D01*
X-13667Y116189D01*
X-13660Y116211D01*
X-13661Y116244D01*
X-13653Y116315D01*
X-13653Y172502D01*
X-11942Y174213D01*
X-2764Y183391D01*
X-2711Y183465D01*
X-2651Y183535D01*
X-2639Y183565D01*
X-2620Y183591D01*
X-2593Y183678D01*
X-2559Y183763D01*
X-2555Y183804D01*
X-2548Y183826D01*
X-2549Y183858D01*
X-2541Y183930D01*
X-2541Y187957D01*
X-2555Y188047D01*
X-2563Y188138D01*
X-2575Y188167D01*
X-2580Y188199D01*
X-2623Y188280D01*
X-2659Y188364D01*
X-2685Y188396D01*
X-2696Y188417D01*
X-2719Y188439D01*
X-2764Y188495D01*
X-3462Y189193D01*
X-3478Y189205D01*
X-3490Y189220D01*
X-3578Y189276D01*
X-3661Y189336D01*
X-3680Y189342D01*
X-3697Y189353D01*
X-3798Y189378D01*
X-3897Y189409D01*
X-3916Y189408D01*
X-3936Y189413D01*
X-4039Y189405D01*
X-4142Y189402D01*
X-4161Y189396D01*
X-4181Y189394D01*
X-4276Y189354D01*
X-4373Y189318D01*
X-4389Y189306D01*
X-4407Y189298D01*
X-4538Y189193D01*
X-5368Y188363D01*
X-10632Y188363D01*
X-11462Y189193D01*
X-11478Y189205D01*
X-11490Y189220D01*
X-11578Y189276D01*
X-11661Y189336D01*
X-11680Y189342D01*
X-11697Y189353D01*
X-11798Y189378D01*
X-11897Y189409D01*
X-11916Y189408D01*
X-11936Y189413D01*
X-12039Y189405D01*
X-12142Y189402D01*
X-12161Y189396D01*
X-12181Y189394D01*
X-12276Y189354D01*
X-12373Y189318D01*
X-12389Y189305D01*
X-12407Y189298D01*
X-12538Y189193D01*
X-12973Y188758D01*
X-12985Y188742D01*
X-13001Y188729D01*
X-13057Y188642D01*
X-13117Y188558D01*
X-13123Y188539D01*
X-13134Y188522D01*
X-13159Y188422D01*
X-13189Y188323D01*
X-13189Y188303D01*
X-13194Y188284D01*
X-13186Y188181D01*
X-13183Y188077D01*
X-13176Y188058D01*
X-13175Y188039D01*
X-13134Y187943D01*
X-13098Y187846D01*
X-13086Y187831D01*
X-13078Y187812D01*
X-12973Y187681D01*
X-12914Y187622D01*
X-12914Y183853D01*
X-15578Y181189D01*
X-19347Y181189D01*
X-22011Y183853D01*
X-22011Y187602D01*
X-22014Y187621D01*
X-22012Y187641D01*
X-22034Y187742D01*
X-22051Y187844D01*
X-22060Y187862D01*
X-22065Y187881D01*
X-22118Y187970D01*
X-22166Y188062D01*
X-22180Y188075D01*
X-22191Y188092D01*
X-22269Y188160D01*
X-22344Y188231D01*
X-22362Y188239D01*
X-22378Y188252D01*
X-22474Y188291D01*
X-22567Y188335D01*
X-22587Y188337D01*
X-22606Y188344D01*
X-22772Y188363D01*
X-26632Y188363D01*
X-26764Y188495D01*
X-26859Y188563D01*
X-26956Y188635D01*
X-26960Y188636D01*
X-26963Y188638D01*
X-27077Y188673D01*
X-27190Y188710D01*
X-27195Y188710D01*
X-27198Y188711D01*
X-27317Y188708D01*
X-27436Y188706D01*
X-27440Y188705D01*
X-27444Y188704D01*
X-27555Y188664D01*
X-27668Y188624D01*
X-27671Y188621D01*
X-27675Y188620D01*
X-27768Y188546D01*
X-27862Y188472D01*
X-27865Y188468D01*
X-27867Y188466D01*
X-27875Y188455D01*
X-27961Y188337D01*
X-27967Y188327D01*
X-28440Y187854D01*
X-29019Y187520D01*
X-29666Y187347D01*
X-31001Y187347D01*
X-31001Y193649D01*
X-31004Y193669D01*
X-31002Y193689D01*
X-31024Y193790D01*
X-31040Y193892D01*
X-31041Y193894D01*
X-31029Y193921D01*
X-31027Y193940D01*
X-31019Y193959D01*
X-31001Y194126D01*
X-31001Y200428D01*
X-29666Y200428D01*
X-29019Y200255D01*
X-28440Y199921D01*
X-27967Y199448D01*
X-27961Y199438D01*
X-27886Y199346D01*
X-27812Y199253D01*
X-27808Y199251D01*
X-27805Y199247D01*
X-27706Y199185D01*
X-27605Y199120D01*
X-27601Y199119D01*
X-27597Y199117D01*
X-27482Y199089D01*
X-27366Y199060D01*
X-27362Y199060D01*
X-27358Y199059D01*
X-27239Y199070D01*
X-27121Y199079D01*
X-27117Y199081D01*
X-27113Y199081D01*
X-27005Y199128D01*
X-26895Y199175D01*
X-26891Y199178D01*
X-26888Y199180D01*
X-26878Y199189D01*
X-26764Y199280D01*
X-26632Y199412D01*
X-21368Y199412D01*
X-20538Y198582D01*
X-20522Y198570D01*
X-20510Y198555D01*
X-20422Y198499D01*
X-20339Y198439D01*
X-20320Y198433D01*
X-20303Y198422D01*
X-20202Y198397D01*
X-20103Y198366D01*
X-20084Y198367D01*
X-20064Y198362D01*
X-19961Y198370D01*
X-19858Y198373D01*
X-19839Y198379D01*
X-19819Y198381D01*
X-19724Y198421D01*
X-19627Y198457D01*
X-19611Y198470D01*
X-19593Y198477D01*
X-19462Y198582D01*
X-18632Y199412D01*
X-13368Y199412D01*
X-12538Y198582D01*
X-12522Y198570D01*
X-12510Y198555D01*
X-12422Y198499D01*
X-12339Y198439D01*
X-12320Y198433D01*
X-12303Y198422D01*
X-12202Y198397D01*
X-12103Y198366D01*
X-12084Y198367D01*
X-12064Y198362D01*
X-11961Y198370D01*
X-11858Y198373D01*
X-11839Y198379D01*
X-11819Y198381D01*
X-11724Y198421D01*
X-11627Y198457D01*
X-11611Y198470D01*
X-11593Y198477D01*
X-11462Y198582D01*
X-10632Y199412D01*
X-5368Y199412D01*
X-4538Y198582D01*
X-4522Y198570D01*
X-4510Y198555D01*
X-4422Y198499D01*
X-4339Y198439D01*
X-4320Y198433D01*
X-4303Y198422D01*
X-4202Y198397D01*
X-4103Y198366D01*
X-4084Y198367D01*
X-4064Y198362D01*
X-3961Y198370D01*
X-3858Y198373D01*
X-3839Y198379D01*
X-3819Y198381D01*
X-3724Y198421D01*
X-3627Y198457D01*
X-3611Y198470D01*
X-3593Y198477D01*
X-3462Y198582D01*
X-2632Y199412D01*
X2632Y199412D01*
X3462Y198582D01*
X3478Y198570D01*
X3490Y198555D01*
X3578Y198499D01*
X3661Y198439D01*
X3680Y198433D01*
X3697Y198422D01*
X3798Y198397D01*
X3897Y198366D01*
X3916Y198367D01*
X3936Y198362D01*
X4039Y198370D01*
X4142Y198373D01*
X4161Y198379D01*
X4181Y198381D01*
X4276Y198421D01*
X4373Y198457D01*
X4389Y198470D01*
X4407Y198477D01*
X4538Y198582D01*
X5368Y199412D01*
X10632Y199412D01*
X11462Y198582D01*
X11478Y198570D01*
X11490Y198555D01*
X11578Y198499D01*
X11661Y198439D01*
X11680Y198433D01*
X11697Y198422D01*
X11798Y198397D01*
X11897Y198366D01*
X11916Y198367D01*
X11936Y198362D01*
X12039Y198370D01*
X12142Y198373D01*
X12161Y198379D01*
X12181Y198381D01*
X12276Y198421D01*
X12373Y198457D01*
X12389Y198470D01*
X12407Y198477D01*
X12538Y198582D01*
X13368Y199412D01*
X18632Y199412D01*
X19462Y198582D01*
X19478Y198570D01*
X19490Y198555D01*
X19578Y198499D01*
X19661Y198439D01*
X19680Y198433D01*
X19697Y198422D01*
X19798Y198397D01*
X19897Y198366D01*
X19916Y198367D01*
X19936Y198362D01*
X20039Y198370D01*
X20142Y198373D01*
X20161Y198379D01*
X20181Y198381D01*
X20276Y198421D01*
X20373Y198457D01*
X20389Y198470D01*
X20407Y198477D01*
X20538Y198582D01*
X21368Y199412D01*
X26632Y199412D01*
X27462Y198582D01*
X27478Y198570D01*
X27490Y198555D01*
X27578Y198499D01*
X27661Y198439D01*
X27680Y198433D01*
X27697Y198422D01*
X27798Y198397D01*
X27897Y198366D01*
X27916Y198367D01*
X27936Y198362D01*
X28039Y198370D01*
X28142Y198373D01*
X28161Y198379D01*
X28181Y198381D01*
X28276Y198421D01*
X28373Y198457D01*
X28389Y198470D01*
X28407Y198477D01*
X28538Y198582D01*
X29368Y199412D01*
X34632Y199412D01*
X35462Y198582D01*
X35478Y198570D01*
X35490Y198555D01*
X35578Y198499D01*
X35661Y198439D01*
X35680Y198433D01*
X35697Y198422D01*
X35798Y198397D01*
X35897Y198366D01*
X35916Y198367D01*
X35936Y198362D01*
X36039Y198370D01*
X36142Y198373D01*
X36161Y198379D01*
X36181Y198381D01*
X36276Y198421D01*
X36373Y198457D01*
X36389Y198470D01*
X36407Y198477D01*
X36538Y198582D01*
X37368Y199412D01*
X42632Y199412D01*
X43462Y198582D01*
X43478Y198570D01*
X43490Y198555D01*
X43578Y198499D01*
X43661Y198439D01*
X43680Y198433D01*
X43697Y198422D01*
X43798Y198397D01*
X43897Y198366D01*
X43916Y198367D01*
X43936Y198362D01*
X44039Y198370D01*
X44142Y198373D01*
X44161Y198379D01*
X44181Y198381D01*
X44276Y198421D01*
X44373Y198457D01*
X44389Y198470D01*
X44407Y198477D01*
X44538Y198582D01*
X45368Y199412D01*
X50632Y199412D01*
X51525Y198519D01*
X51525Y189256D01*
X50498Y188229D01*
X50486Y188213D01*
X50471Y188201D01*
X50415Y188113D01*
X50355Y188030D01*
X50349Y188011D01*
X50338Y187994D01*
X50313Y187893D01*
X50282Y187795D01*
X50283Y187775D01*
X50278Y187755D01*
X50286Y187652D01*
X50289Y187549D01*
X50295Y187530D01*
X50297Y187510D01*
X50337Y187415D01*
X50373Y187318D01*
X50386Y187302D01*
X50393Y187284D01*
X50498Y187153D01*
X52686Y184965D01*
X52686Y181196D01*
X52270Y180780D01*
X52258Y180764D01*
X52243Y180752D01*
X52187Y180664D01*
X52127Y180580D01*
X52121Y180561D01*
X52110Y180545D01*
X52085Y180444D01*
X52054Y180345D01*
X52055Y180325D01*
X52050Y180306D01*
X52058Y180203D01*
X52061Y180100D01*
X52067Y180081D01*
X52069Y180061D01*
X52109Y179966D01*
X52145Y179869D01*
X52157Y179853D01*
X52165Y179835D01*
X52270Y179704D01*
X56097Y175877D01*
X56097Y164430D01*
X56112Y164340D01*
X56119Y164249D01*
X56131Y164219D01*
X56137Y164187D01*
X56179Y164106D01*
X56215Y164023D01*
X56241Y163990D01*
X56252Y163970D01*
X56275Y163948D01*
X56320Y163892D01*
X57889Y162323D01*
X57963Y162270D01*
X58032Y162210D01*
X58062Y162198D01*
X58089Y162179D01*
X58176Y162152D01*
X58260Y162118D01*
X58301Y162114D01*
X58324Y162107D01*
X58356Y162108D01*
X58427Y162100D01*
X67492Y162100D01*
X67597Y161995D01*
X67655Y161953D01*
X67707Y161903D01*
X67755Y161881D01*
X67797Y161851D01*
X67866Y161830D01*
X67931Y161800D01*
X67982Y161794D01*
X68032Y161779D01*
X68104Y161781D01*
X68175Y161773D01*
X68226Y161784D01*
X68278Y161785D01*
X68345Y161810D01*
X68415Y161825D01*
X68460Y161852D01*
X68509Y161869D01*
X68565Y161914D01*
X68626Y161951D01*
X68660Y161991D01*
X68701Y162023D01*
X68740Y162083D01*
X68786Y162138D01*
X68806Y162186D01*
X68834Y162230D01*
X68851Y162299D01*
X68878Y162366D01*
X68886Y162437D01*
X68894Y162469D01*
X68892Y162492D01*
X68897Y162533D01*
X68897Y205146D01*
X68882Y205236D01*
X68875Y205327D01*
X68862Y205357D01*
X68857Y205389D01*
X68814Y205470D01*
X68779Y205554D01*
X68753Y205586D01*
X68742Y205606D01*
X68719Y205629D01*
X68674Y205685D01*
X66235Y208124D01*
X66161Y208177D01*
X66091Y208236D01*
X66061Y208248D01*
X66035Y208267D01*
X65948Y208294D01*
X65863Y208328D01*
X65822Y208333D01*
X65800Y208340D01*
X65768Y208339D01*
X65696Y208347D01*
X64931Y208347D01*
X64841Y208332D01*
X64750Y208325D01*
X64720Y208312D01*
X64688Y208307D01*
X64607Y208264D01*
X64524Y208229D01*
X64491Y208203D01*
X64471Y208192D01*
X64449Y208169D01*
X64393Y208124D01*
X63695Y207426D01*
X63683Y207410D01*
X63667Y207397D01*
X63611Y207310D01*
X63551Y207226D01*
X63545Y207207D01*
X63534Y207190D01*
X63509Y207090D01*
X63479Y206991D01*
X63479Y206971D01*
X63474Y206952D01*
X63482Y206849D01*
X63485Y206745D01*
X63492Y206726D01*
X63493Y206706D01*
X63534Y206612D01*
X63569Y206514D01*
X63582Y206498D01*
X63590Y206480D01*
X63695Y206349D01*
X64525Y205519D01*
X64525Y200256D01*
X64393Y200124D01*
X64324Y200028D01*
X64253Y199931D01*
X64251Y199927D01*
X64249Y199924D01*
X64214Y199810D01*
X64178Y199697D01*
X64178Y199693D01*
X64177Y199689D01*
X64180Y199571D01*
X64182Y199451D01*
X64183Y199447D01*
X64183Y199443D01*
X64224Y199332D01*
X64263Y199219D01*
X64266Y199216D01*
X64267Y199212D01*
X64342Y199119D01*
X64415Y199026D01*
X64419Y199023D01*
X64421Y199020D01*
X64433Y199013D01*
X64550Y198926D01*
X64560Y198921D01*
X65033Y198448D01*
X65368Y197868D01*
X65541Y197222D01*
X65541Y194911D01*
X60262Y194911D01*
X60242Y194907D01*
X60223Y194910D01*
X60121Y194888D01*
X60019Y194871D01*
X60002Y194862D01*
X59982Y194857D01*
X59893Y194804D01*
X59802Y194756D01*
X59788Y194741D01*
X59771Y194731D01*
X59704Y194652D01*
X59633Y194577D01*
X59624Y194559D01*
X59611Y194544D01*
X59572Y194448D01*
X59529Y194354D01*
X59527Y194335D01*
X59519Y194316D01*
X59501Y194149D01*
X59501Y193387D01*
X59499Y193387D01*
X59499Y194149D01*
X59496Y194169D01*
X59498Y194189D01*
X59476Y194290D01*
X59459Y194392D01*
X59450Y194410D01*
X59446Y194429D01*
X59393Y194518D01*
X59344Y194610D01*
X59330Y194623D01*
X59320Y194640D01*
X59241Y194708D01*
X59166Y194779D01*
X59148Y194787D01*
X59133Y194800D01*
X59037Y194839D01*
X58943Y194883D01*
X58923Y194885D01*
X58905Y194892D01*
X58738Y194911D01*
X53459Y194911D01*
X53459Y197222D01*
X53632Y197868D01*
X53967Y198447D01*
X54087Y198568D01*
X54099Y198584D01*
X54114Y198596D01*
X54170Y198683D01*
X54231Y198767D01*
X54236Y198786D01*
X54247Y198803D01*
X54272Y198903D01*
X54303Y199002D01*
X54302Y199022D01*
X54307Y199042D01*
X54299Y199145D01*
X54297Y199248D01*
X54290Y199267D01*
X54288Y199287D01*
X54248Y199382D01*
X54212Y199479D01*
X54200Y199495D01*
X54192Y199513D01*
X54087Y199644D01*
X53475Y200256D01*
X53475Y205519D01*
X54305Y206349D01*
X54317Y206365D01*
X54333Y206378D01*
X54389Y206465D01*
X54449Y206549D01*
X54455Y206568D01*
X54466Y206585D01*
X54491Y206685D01*
X54521Y206784D01*
X54521Y206804D01*
X54526Y206823D01*
X54518Y206926D01*
X54515Y207030D01*
X54508Y207049D01*
X54507Y207068D01*
X54466Y207163D01*
X54431Y207261D01*
X54418Y207277D01*
X54410Y207295D01*
X54305Y207426D01*
X53475Y208256D01*
X53475Y213519D01*
X54305Y214349D01*
X54317Y214365D01*
X54333Y214378D01*
X54389Y214465D01*
X54449Y214549D01*
X54455Y214568D01*
X54466Y214585D01*
X54491Y214685D01*
X54521Y214784D01*
X54521Y214804D01*
X54526Y214823D01*
X54518Y214926D01*
X54515Y215030D01*
X54508Y215049D01*
X54507Y215068D01*
X54466Y215163D01*
X54431Y215261D01*
X54418Y215277D01*
X54410Y215295D01*
X54305Y215426D01*
X53475Y216256D01*
X53475Y221519D01*
X54305Y222349D01*
X54317Y222365D01*
X54333Y222378D01*
X54389Y222465D01*
X54449Y222549D01*
X54455Y222568D01*
X54466Y222585D01*
X54491Y222685D01*
X54521Y222784D01*
X54521Y222804D01*
X54526Y222823D01*
X54518Y222926D01*
X54515Y223030D01*
X54508Y223049D01*
X54507Y223068D01*
X54466Y223163D01*
X54431Y223261D01*
X54418Y223277D01*
X54410Y223295D01*
X54305Y223426D01*
X53475Y224256D01*
X53475Y229519D01*
X54305Y230349D01*
X54317Y230365D01*
X54333Y230378D01*
X54389Y230465D01*
X54449Y230549D01*
X54455Y230568D01*
X54466Y230585D01*
X54491Y230685D01*
X54521Y230784D01*
X54521Y230804D01*
X54526Y230823D01*
X54518Y230926D01*
X54515Y231030D01*
X54508Y231049D01*
X54507Y231068D01*
X54466Y231163D01*
X54431Y231261D01*
X54418Y231277D01*
X54410Y231295D01*
X54305Y231426D01*
X53475Y232256D01*
X53475Y237519D01*
X54305Y238349D01*
X54317Y238365D01*
X54333Y238378D01*
X54389Y238465D01*
X54449Y238549D01*
X54455Y238568D01*
X54466Y238585D01*
X54491Y238685D01*
X54521Y238784D01*
X54521Y238804D01*
X54526Y238823D01*
X54518Y238926D01*
X54515Y239030D01*
X54508Y239049D01*
X54507Y239068D01*
X54466Y239163D01*
X54431Y239261D01*
X54418Y239277D01*
X54410Y239295D01*
X54305Y239426D01*
X53475Y240256D01*
X53475Y245519D01*
X54305Y246349D01*
X54317Y246365D01*
X54333Y246378D01*
X54389Y246465D01*
X54449Y246549D01*
X54455Y246568D01*
X54466Y246585D01*
X54491Y246685D01*
X54521Y246784D01*
X54521Y246804D01*
X54526Y246823D01*
X54518Y246926D01*
X54515Y247030D01*
X54508Y247049D01*
X54507Y247068D01*
X54466Y247163D01*
X54431Y247261D01*
X54418Y247277D01*
X54410Y247295D01*
X54305Y247426D01*
X53475Y248256D01*
X53475Y253519D01*
X54305Y254349D01*
X54317Y254365D01*
X54333Y254378D01*
X54389Y254465D01*
X54449Y254549D01*
X54455Y254568D01*
X54466Y254585D01*
X54491Y254685D01*
X54521Y254784D01*
X54521Y254804D01*
X54526Y254823D01*
X54518Y254926D01*
X54515Y255030D01*
X54508Y255049D01*
X54507Y255068D01*
X54466Y255163D01*
X54431Y255261D01*
X54418Y255277D01*
X54410Y255295D01*
X54305Y255426D01*
X53475Y256256D01*
X53475Y261519D01*
X54305Y262349D01*
X54317Y262365D01*
X54333Y262378D01*
X54389Y262465D01*
X54449Y262549D01*
X54455Y262568D01*
X54466Y262585D01*
X54491Y262685D01*
X54521Y262784D01*
X54521Y262804D01*
X54526Y262823D01*
X54518Y262926D01*
X54515Y263030D01*
X54508Y263049D01*
X54507Y263068D01*
X54466Y263163D01*
X54431Y263261D01*
X54418Y263277D01*
X54410Y263295D01*
X54305Y263426D01*
X53475Y264256D01*
X53475Y269519D01*
X54305Y270349D01*
X54317Y270365D01*
X54333Y270378D01*
X54389Y270465D01*
X54449Y270549D01*
X54455Y270568D01*
X54466Y270585D01*
X54491Y270685D01*
X54521Y270784D01*
X54521Y270804D01*
X54526Y270823D01*
X54518Y270926D01*
X54515Y271030D01*
X54508Y271049D01*
X54507Y271068D01*
X54466Y271163D01*
X54431Y271261D01*
X54418Y271277D01*
X54410Y271295D01*
X54305Y271426D01*
X53475Y272256D01*
X53475Y277519D01*
X54305Y278349D01*
X54317Y278365D01*
X54333Y278378D01*
X54389Y278465D01*
X54449Y278549D01*
X54455Y278568D01*
X54466Y278585D01*
X54491Y278685D01*
X54521Y278784D01*
X54521Y278804D01*
X54526Y278823D01*
X54518Y278926D01*
X54515Y279030D01*
X54508Y279049D01*
X54507Y279068D01*
X54466Y279163D01*
X54431Y279261D01*
X54418Y279277D01*
X54410Y279295D01*
X54305Y279426D01*
X53475Y280256D01*
X53475Y285519D01*
X54087Y286131D01*
X54099Y286147D01*
X54114Y286159D01*
X54170Y286247D01*
X54231Y286331D01*
X54236Y286350D01*
X54247Y286366D01*
X54273Y286467D01*
X54303Y286566D01*
X54302Y286586D01*
X54307Y286605D01*
X54299Y286708D01*
X54297Y286811D01*
X54290Y286830D01*
X54288Y286850D01*
X54248Y286945D01*
X54212Y287043D01*
X54200Y287058D01*
X54192Y287076D01*
X54087Y287207D01*
X53967Y287328D01*
X53870Y287495D01*
X53825Y287550D01*
X53823Y287553D01*
X53814Y287569D01*
X53813Y287569D01*
X53788Y287611D01*
X53748Y287645D01*
X53715Y287685D01*
X53654Y287723D01*
X53599Y287769D01*
X53550Y287788D01*
X53506Y287816D01*
X53437Y287832D01*
X53370Y287858D01*
X53318Y287861D01*
X53267Y287873D01*
X53196Y287867D01*
X53124Y287870D01*
X53074Y287856D01*
X53022Y287851D01*
X52956Y287823D01*
X52888Y287803D01*
X52845Y287774D01*
X52797Y287753D01*
X52744Y287704D01*
X52685Y287664D01*
X52653Y287622D01*
X52615Y287587D01*
X52580Y287524D01*
X52537Y287467D01*
X52511Y287401D01*
X52495Y287372D01*
X52491Y287349D01*
X52476Y287311D01*
X52368Y286907D01*
X52033Y286327D01*
X51560Y285854D01*
X50981Y285520D01*
X50334Y285347D01*
X48999Y285347D01*
X48999Y290888D01*
X53122Y290888D01*
X53135Y290883D01*
X53302Y290864D01*
X58738Y290864D01*
X58758Y290868D01*
X58777Y290865D01*
X58879Y290887D01*
X58981Y290904D01*
X58998Y290913D01*
X59018Y290918D01*
X59107Y290971D01*
X59198Y291019D01*
X59212Y291034D01*
X59229Y291044D01*
X59296Y291122D01*
X59367Y291197D01*
X59376Y291216D01*
X59389Y291231D01*
X59428Y291327D01*
X59471Y291421D01*
X59473Y291440D01*
X59481Y291459D01*
X59499Y291626D01*
X59499Y293149D01*
X59496Y293169D01*
X59498Y293189D01*
X59476Y293290D01*
X59459Y293392D01*
X59450Y293410D01*
X59446Y293429D01*
X59393Y293518D01*
X59344Y293610D01*
X59330Y293623D01*
X59320Y293640D01*
X59241Y293708D01*
X59166Y293779D01*
X59148Y293787D01*
X59133Y293800D01*
X59037Y293839D01*
X58943Y293883D01*
X58923Y293885D01*
X58905Y293892D01*
X58738Y293911D01*
X53302Y293911D01*
X53282Y293907D01*
X53263Y293910D01*
X53161Y293888D01*
X53059Y293871D01*
X53042Y293862D01*
X53022Y293857D01*
X52933Y293804D01*
X52842Y293756D01*
X52828Y293741D01*
X52811Y293731D01*
X52744Y293652D01*
X52672Y293577D01*
X52664Y293559D01*
X52651Y293544D01*
X52612Y293448D01*
X52569Y293354D01*
X52567Y293335D01*
X52559Y293316D01*
X52541Y293149D01*
X52541Y292887D01*
X48238Y292887D01*
X48219Y292884D01*
X48199Y292886D01*
X48097Y292864D01*
X47995Y292847D01*
X47994Y292846D01*
X47967Y292859D01*
X47947Y292861D01*
X47929Y292868D01*
X47762Y292887D01*
X40238Y292887D01*
X40219Y292884D01*
X40199Y292886D01*
X40097Y292864D01*
X39995Y292847D01*
X39994Y292846D01*
X39967Y292859D01*
X39947Y292861D01*
X39929Y292868D01*
X39762Y292887D01*
X32238Y292887D01*
X32219Y292884D01*
X32199Y292886D01*
X32097Y292864D01*
X31995Y292847D01*
X31994Y292846D01*
X31967Y292859D01*
X31947Y292861D01*
X31929Y292868D01*
X31762Y292887D01*
X24238Y292887D01*
X24219Y292884D01*
X24199Y292886D01*
X24097Y292864D01*
X23995Y292847D01*
X23994Y292846D01*
X23967Y292859D01*
X23947Y292861D01*
X23929Y292868D01*
X23762Y292887D01*
X16238Y292887D01*
X16219Y292884D01*
X16199Y292886D01*
X16097Y292864D01*
X15995Y292847D01*
X15994Y292846D01*
X15967Y292859D01*
X15947Y292861D01*
X15929Y292868D01*
X15762Y292887D01*
X8238Y292887D01*
X8219Y292884D01*
X8199Y292886D01*
X8097Y292864D01*
X7995Y292847D01*
X7994Y292846D01*
X7967Y292859D01*
X7947Y292861D01*
X7929Y292868D01*
X7762Y292887D01*
X238Y292887D01*
X219Y292884D01*
X199Y292886D01*
X97Y292864D01*
X-5Y292847D01*
X-6Y292846D01*
X-33Y292859D01*
X-53Y292861D01*
X-71Y292868D01*
X-238Y292887D01*
X-7762Y292887D01*
X-7781Y292884D01*
X-7801Y292886D01*
X-7903Y292864D01*
X-8005Y292847D01*
X-8006Y292846D01*
X-8033Y292859D01*
X-8053Y292861D01*
X-8071Y292868D01*
X-8238Y292887D01*
X-15762Y292887D01*
X-15781Y292884D01*
X-15801Y292886D01*
X-15903Y292864D01*
X-16005Y292847D01*
X-16006Y292846D01*
X-16033Y292859D01*
X-16053Y292861D01*
X-16071Y292868D01*
X-16238Y292887D01*
X-23762Y292887D01*
X-23781Y292884D01*
X-23801Y292886D01*
X-23903Y292864D01*
X-24005Y292847D01*
X-24006Y292846D01*
X-24033Y292859D01*
X-24053Y292861D01*
X-24071Y292868D01*
X-24238Y292887D01*
X-31762Y292887D01*
X-31781Y292884D01*
X-31801Y292886D01*
X-31903Y292864D01*
X-32005Y292847D01*
X-32006Y292846D01*
X-32033Y292859D01*
X-32053Y292861D01*
X-32071Y292868D01*
X-32238Y292887D01*
X-39762Y292887D01*
X-39781Y292884D01*
X-39801Y292886D01*
X-39903Y292864D01*
X-40005Y292847D01*
X-40006Y292846D01*
X-40033Y292859D01*
X-40053Y292861D01*
X-40071Y292868D01*
X-40238Y292887D01*
X-47762Y292887D01*
X-47781Y292884D01*
X-47801Y292886D01*
X-47903Y292864D01*
X-48005Y292847D01*
X-48006Y292846D01*
X-48033Y292859D01*
X-48053Y292861D01*
X-48071Y292868D01*
X-48238Y292887D01*
X-52541Y292887D01*
X-52541Y293149D01*
X-52544Y293169D01*
X-52542Y293189D01*
X-52564Y293290D01*
X-52580Y293392D01*
X-52590Y293410D01*
X-52594Y293429D01*
X-52647Y293518D01*
X-52696Y293610D01*
X-52710Y293623D01*
X-52720Y293640D01*
X-52799Y293708D01*
X-52874Y293779D01*
X-52892Y293787D01*
X-52907Y293800D01*
X-53003Y293839D01*
X-53097Y293883D01*
X-53117Y293885D01*
X-53135Y293892D01*
X-53302Y293911D01*
X-58738Y293911D01*
X-58758Y293907D01*
X-58777Y293910D01*
X-58879Y293888D01*
X-58981Y293871D01*
X-58998Y293862D01*
X-59018Y293857D01*
X-59107Y293804D01*
X-59198Y293756D01*
X-59212Y293741D01*
X-59229Y293731D01*
X-59296Y293652D01*
X-59367Y293577D01*
X-59376Y293559D01*
X-59389Y293544D01*
X-59428Y293448D01*
X-59471Y293354D01*
X-59473Y293335D01*
X-59481Y293316D01*
X-59499Y293149D01*
X-59499Y292387D01*
X-59501Y292387D01*
X-59501Y293149D01*
X-59504Y293169D01*
X-59502Y293189D01*
X-59524Y293290D01*
X-59541Y293392D01*
X-59550Y293410D01*
X-59554Y293429D01*
X-59607Y293518D01*
X-59656Y293610D01*
X-59670Y293623D01*
X-59680Y293640D01*
X-59759Y293708D01*
X-59834Y293779D01*
X-59852Y293787D01*
X-59867Y293800D01*
X-59963Y293839D01*
X-60057Y293883D01*
X-60077Y293885D01*
X-60095Y293892D01*
X-60262Y293911D01*
X-65541Y293911D01*
X-65541Y296222D01*
X-65368Y296868D01*
X-65033Y297448D01*
X-64560Y297921D01*
X-63981Y298255D01*
X-63678Y298336D01*
X-63656Y298346D01*
X-63632Y298350D01*
X-63544Y298397D01*
X-63454Y298437D01*
X-63436Y298454D01*
X-63415Y298465D01*
X-63346Y298537D01*
X-63273Y298605D01*
X-63262Y298626D01*
X-63245Y298643D01*
X-63203Y298734D01*
X-63156Y298821D01*
X-63152Y298845D01*
X-63142Y298867D01*
X-63131Y298965D01*
X-63114Y299063D01*
X-63117Y299087D01*
X-63115Y299111D01*
X-63136Y299208D01*
X-63151Y299306D01*
X-63162Y299328D01*
X-63167Y299351D01*
X-63218Y299437D01*
X-63263Y299525D01*
X-63281Y299542D01*
X-63293Y299562D01*
X-63369Y299627D01*
X-63440Y299696D01*
X-63462Y299707D01*
X-63480Y299722D01*
X-63572Y299760D01*
X-63662Y299802D01*
X-63686Y299805D01*
X-63708Y299814D01*
X-63875Y299833D01*
X-85825Y299833D01*
X-85891Y299822D01*
X-85959Y299821D01*
X-86012Y299802D01*
X-86067Y299793D01*
X-86127Y299761D01*
X-86191Y299739D01*
X-86235Y299704D01*
X-86285Y299678D01*
X-86331Y299629D01*
X-86385Y299587D01*
X-86432Y299523D01*
X-86454Y299500D01*
X-86463Y299481D01*
X-86484Y299452D01*
X-98013Y279483D01*
X-98038Y279417D01*
X-98071Y279356D01*
X-98081Y279303D01*
X-98100Y279253D01*
X-98102Y279183D01*
X-98115Y279114D01*
X-98107Y279061D01*
X-98109Y279007D01*
X-98089Y278940D01*
X-98079Y278870D01*
X-98054Y278823D01*
X-98039Y278771D01*
X-97999Y278714D01*
X-97967Y278651D01*
X-97928Y278614D01*
X-97898Y278570D01*
X-97841Y278528D01*
X-97791Y278479D01*
X-97743Y278456D01*
X-97699Y278424D01*
X-97632Y278403D01*
X-97569Y278372D01*
X-97496Y278359D01*
X-97465Y278349D01*
X-97443Y278350D01*
X-97404Y278343D01*
X-86140Y277592D01*
X-86095Y277596D01*
X-86050Y277591D01*
X-85973Y277608D01*
X-85895Y277615D01*
X-85854Y277634D01*
X-85810Y277644D01*
X-85742Y277684D01*
X-85671Y277716D01*
X-85637Y277747D01*
X-85599Y277770D01*
X-85548Y277829D01*
X-85490Y277883D01*
X-85468Y277922D01*
X-85439Y277957D01*
X-85409Y278029D01*
X-85372Y278098D01*
X-85364Y278143D01*
X-85347Y278185D01*
X-85331Y278324D01*
X-85328Y278340D01*
X-85329Y278345D01*
X-85328Y278352D01*
X-85328Y281614D01*
X-78550Y281614D01*
X-78530Y281618D01*
X-78510Y281615D01*
X-78409Y281637D01*
X-78307Y281654D01*
X-78289Y281663D01*
X-78270Y281668D01*
X-78181Y281721D01*
X-78089Y281769D01*
X-78076Y281784D01*
X-78059Y281794D01*
X-77991Y281872D01*
X-77920Y281947D01*
X-77912Y281966D01*
X-77899Y281981D01*
X-77860Y282077D01*
X-77816Y282171D01*
X-77814Y282190D01*
X-77807Y282209D01*
X-77788Y282376D01*
X-77788Y283138D01*
X-77787Y283138D01*
X-77787Y282376D01*
X-77783Y282356D01*
X-77786Y282336D01*
X-77764Y282235D01*
X-77747Y282133D01*
X-77738Y282115D01*
X-77733Y282096D01*
X-77680Y282007D01*
X-77632Y281915D01*
X-77617Y281902D01*
X-77607Y281885D01*
X-77528Y281817D01*
X-77453Y281746D01*
X-77435Y281738D01*
X-77420Y281725D01*
X-77324Y281686D01*
X-77230Y281642D01*
X-77211Y281640D01*
X-77192Y281633D01*
X-77025Y281614D01*
X-70247Y281614D01*
X-70247Y277245D01*
X-70228Y277129D01*
X-70211Y277013D01*
X-70208Y277007D01*
X-70207Y277002D01*
X-70152Y276898D01*
X-70099Y276793D01*
X-70095Y276789D01*
X-70092Y276784D01*
X-70007Y276704D01*
X-69923Y276621D01*
X-69918Y276619D01*
X-69914Y276615D01*
X-69807Y276565D01*
X-69701Y276515D01*
X-69695Y276513D01*
X-69691Y276511D01*
X-69673Y276510D01*
X-69536Y276485D01*
X-66353Y276273D01*
X-66308Y276277D01*
X-66263Y276272D01*
X-66186Y276289D01*
X-66108Y276296D01*
X-66066Y276315D01*
X-66022Y276324D01*
X-65955Y276365D01*
X-65883Y276397D01*
X-65850Y276427D01*
X-65811Y276451D01*
X-65760Y276510D01*
X-65702Y276563D01*
X-65681Y276603D01*
X-65651Y276638D01*
X-65622Y276710D01*
X-65584Y276779D01*
X-65576Y276824D01*
X-65559Y276866D01*
X-65544Y277004D01*
X-65541Y277021D01*
X-65541Y277026D01*
X-65541Y277032D01*
X-65541Y277222D01*
X-65368Y277868D01*
X-64999Y278507D01*
X-64975Y278570D01*
X-64942Y278629D01*
X-64932Y278684D01*
X-64912Y278737D01*
X-64909Y278805D01*
X-64897Y278871D01*
X-64905Y278927D01*
X-64903Y278983D01*
X-64922Y279048D01*
X-64931Y279115D01*
X-64963Y279187D01*
X-64973Y279219D01*
X-64985Y279236D01*
X-64999Y279268D01*
X-65368Y279907D01*
X-65541Y280553D01*
X-65541Y281888D01*
X-59999Y281888D01*
X-59999Y276561D01*
X-59980Y276445D01*
X-59963Y276329D01*
X-59960Y276324D01*
X-59960Y276319D01*
X-59905Y276215D01*
X-59851Y276110D01*
X-59847Y276106D01*
X-59844Y276101D01*
X-59760Y276021D01*
X-59675Y275938D01*
X-59670Y275936D01*
X-59666Y275932D01*
X-59560Y275883D01*
X-59454Y275831D01*
X-59447Y275830D01*
X-59443Y275828D01*
X-59426Y275826D01*
X-59289Y275802D01*
X-58813Y275770D01*
X-58767Y275774D01*
X-58722Y275769D01*
X-58646Y275786D01*
X-58568Y275794D01*
X-58526Y275812D01*
X-58482Y275822D01*
X-58415Y275862D01*
X-58343Y275894D01*
X-58310Y275925D01*
X-58271Y275948D01*
X-58220Y276008D01*
X-58162Y276061D01*
X-58141Y276100D01*
X-58111Y276135D01*
X-58082Y276208D01*
X-58044Y276276D01*
X-58036Y276321D01*
X-58019Y276363D01*
X-58004Y276502D01*
X-58001Y276518D01*
X-58001Y276523D01*
X-58001Y276530D01*
X-58001Y281888D01*
X-52459Y281888D01*
X-52459Y280553D01*
X-52632Y279907D01*
X-53001Y279268D01*
X-53025Y279205D01*
X-53058Y279146D01*
X-53068Y279091D01*
X-53088Y279038D01*
X-53091Y278970D01*
X-53103Y278904D01*
X-53095Y278849D01*
X-53097Y278792D01*
X-53078Y278727D01*
X-53069Y278661D01*
X-53037Y278588D01*
X-53027Y278556D01*
X-53015Y278539D01*
X-53001Y278507D01*
X-52632Y277868D01*
X-52459Y277222D01*
X-52459Y276098D01*
X-52456Y276078D01*
X-52458Y276059D01*
X-52436Y275957D01*
X-52420Y275855D01*
X-52410Y275838D01*
X-52406Y275818D01*
X-52353Y275729D01*
X-52304Y275638D01*
X-52290Y275624D01*
X-52280Y275607D01*
X-52201Y275540D01*
X-52126Y275468D01*
X-52108Y275460D01*
X-52093Y275447D01*
X-51997Y275408D01*
X-51903Y275365D01*
X-51883Y275363D01*
X-51865Y275355D01*
X-51698Y275337D01*
X-51385Y275337D01*
X-51381Y275333D01*
X-51334Y275319D01*
X-50733Y274632D01*
X-50719Y274620D01*
X-50699Y274595D01*
X-50062Y273958D01*
X-50061Y273952D01*
X-50038Y273910D01*
X-50099Y272999D01*
X-50097Y272980D01*
X-50101Y272948D01*
X-50101Y259403D01*
X-51440Y258063D01*
X-52714Y258063D01*
X-52734Y258060D01*
X-52753Y258062D01*
X-52855Y258040D01*
X-52957Y258024D01*
X-52974Y258014D01*
X-52994Y258010D01*
X-53083Y257957D01*
X-53174Y257908D01*
X-53188Y257894D01*
X-53205Y257884D01*
X-53272Y257805D01*
X-53344Y257730D01*
X-53352Y257712D01*
X-53365Y257697D01*
X-53404Y257601D01*
X-53447Y257507D01*
X-53449Y257487D01*
X-53457Y257469D01*
X-53475Y257302D01*
X-53475Y256256D01*
X-54305Y255426D01*
X-54317Y255410D01*
X-54333Y255397D01*
X-54389Y255310D01*
X-54449Y255226D01*
X-54455Y255207D01*
X-54466Y255190D01*
X-54491Y255090D01*
X-54521Y254991D01*
X-54521Y254971D01*
X-54526Y254952D01*
X-54518Y254849D01*
X-54515Y254745D01*
X-54508Y254726D01*
X-54507Y254707D01*
X-54466Y254612D01*
X-54431Y254514D01*
X-54418Y254498D01*
X-54410Y254480D01*
X-54305Y254349D01*
X-53475Y253519D01*
X-53475Y248256D01*
X-54305Y247426D01*
X-54317Y247410D01*
X-54333Y247397D01*
X-54389Y247310D01*
X-54449Y247226D01*
X-54455Y247207D01*
X-54466Y247190D01*
X-54491Y247090D01*
X-54521Y246991D01*
X-54521Y246971D01*
X-54526Y246952D01*
X-54518Y246849D01*
X-54515Y246745D01*
X-54508Y246726D01*
X-54507Y246707D01*
X-54466Y246612D01*
X-54431Y246514D01*
X-54418Y246498D01*
X-54410Y246480D01*
X-54305Y246349D01*
X-53475Y245519D01*
X-53475Y240256D01*
X-54305Y239426D01*
X-54317Y239410D01*
X-54333Y239397D01*
X-54389Y239310D01*
X-54449Y239226D01*
X-54455Y239207D01*
X-54466Y239190D01*
X-54491Y239090D01*
X-54521Y238991D01*
X-54521Y238971D01*
X-54526Y238952D01*
X-54518Y238849D01*
X-54515Y238745D01*
X-54508Y238726D01*
X-54507Y238707D01*
X-54466Y238612D01*
X-54431Y238514D01*
X-54418Y238498D01*
X-54410Y238480D01*
X-54305Y238349D01*
X-53475Y237519D01*
X-53475Y232256D01*
X-54305Y231426D01*
X-54317Y231410D01*
X-54333Y231397D01*
X-54389Y231310D01*
X-54449Y231226D01*
X-54455Y231207D01*
X-54466Y231190D01*
X-54491Y231090D01*
X-54521Y230991D01*
X-54521Y230971D01*
X-54526Y230952D01*
X-54518Y230849D01*
X-54515Y230745D01*
X-54508Y230726D01*
X-54507Y230707D01*
X-54466Y230612D01*
X-54431Y230514D01*
X-54418Y230498D01*
X-54410Y230480D01*
X-54305Y230349D01*
X-53475Y229519D01*
X-53475Y224256D01*
X-54305Y223426D01*
X-54317Y223410D01*
X-54333Y223397D01*
X-54389Y223310D01*
X-54449Y223226D01*
X-54455Y223207D01*
X-54466Y223190D01*
X-54491Y223090D01*
X-54521Y222991D01*
X-54521Y222971D01*
X-54526Y222952D01*
X-54518Y222849D01*
X-54515Y222745D01*
X-54508Y222726D01*
X-54507Y222707D01*
X-54466Y222612D01*
X-54431Y222514D01*
X-54418Y222498D01*
X-54410Y222480D01*
X-54305Y222349D01*
X-53475Y221519D01*
X-53475Y216256D01*
X-54305Y215426D01*
X-54317Y215410D01*
X-54333Y215397D01*
X-54389Y215310D01*
X-54449Y215226D01*
X-54455Y215207D01*
X-54466Y215190D01*
X-54491Y215090D01*
X-54521Y214991D01*
X-54521Y214971D01*
X-54526Y214952D01*
X-54518Y214849D01*
X-54515Y214745D01*
X-54508Y214726D01*
X-54507Y214707D01*
X-54466Y214612D01*
X-54431Y214514D01*
X-54418Y214498D01*
X-54410Y214480D01*
X-54305Y214349D01*
X-53475Y213519D01*
X-53475Y208256D01*
X-53607Y208124D01*
X-53676Y208028D01*
X-53747Y207931D01*
X-53749Y207927D01*
X-53751Y207924D01*
X-53785Y207812D01*
X-53822Y207697D01*
X-53822Y207693D01*
X-53823Y207689D01*
X-53820Y207569D01*
X-53818Y207451D01*
X-53817Y207447D01*
X-53817Y207443D01*
X-53776Y207331D01*
X-53736Y207219D01*
X-53734Y207216D01*
X-53733Y207212D01*
X-53658Y207119D01*
X-53585Y207025D01*
X-53581Y207023D01*
X-53579Y207020D01*
X-53567Y207013D01*
X-53450Y206926D01*
X-53440Y206920D01*
X-52967Y206448D01*
X-52632Y205868D01*
X-52459Y205222D01*
X-52459Y203887D01*
X-58762Y203887D01*
X-58781Y203884D01*
X-58801Y203886D01*
X-58903Y203864D01*
X-59005Y203847D01*
X-59006Y203846D01*
X-59033Y203859D01*
X-59053Y203861D01*
X-59071Y203868D01*
X-59238Y203887D01*
X-65541Y203887D01*
X-65541Y205222D01*
X-65368Y205868D01*
X-65033Y206448D01*
X-64560Y206921D01*
X-64550Y206926D01*
X-64459Y207001D01*
X-64365Y207076D01*
X-64363Y207079D01*
X-64360Y207082D01*
X-64297Y207182D01*
X-64232Y207283D01*
X-64231Y207287D01*
X-64229Y207290D01*
X-64202Y207405D01*
X-64172Y207521D01*
X-64173Y207525D01*
X-64172Y207530D01*
X-64182Y207648D01*
X-64191Y207767D01*
X-64193Y207770D01*
X-64193Y207775D01*
X-64241Y207883D01*
X-64288Y207993D01*
X-64291Y207997D01*
X-64292Y208000D01*
X-64301Y208010D01*
X-64393Y208124D01*
X-64525Y208256D01*
X-64525Y208327D01*
X-64536Y208398D01*
X-64538Y208470D01*
X-64556Y208518D01*
X-64564Y208570D01*
X-64598Y208633D01*
X-64623Y208701D01*
X-64655Y208741D01*
X-64680Y208787D01*
X-64732Y208837D01*
X-64776Y208893D01*
X-64820Y208921D01*
X-64858Y208957D01*
X-64923Y208987D01*
X-64983Y209026D01*
X-65034Y209038D01*
X-65081Y209060D01*
X-65152Y209068D01*
X-65222Y209086D01*
X-65274Y209082D01*
X-65325Y209087D01*
X-65396Y209072D01*
X-65467Y209066D01*
X-65515Y209046D01*
X-65566Y209035D01*
X-65627Y208998D01*
X-65693Y208970D01*
X-65749Y208925D01*
X-65777Y208909D01*
X-65792Y208891D01*
X-65824Y208865D01*
X-68115Y206575D01*
X-68157Y206566D01*
X-68259Y206549D01*
X-68277Y206540D01*
X-68296Y206535D01*
X-68385Y206482D01*
X-68477Y206434D01*
X-68490Y206420D01*
X-68507Y206409D01*
X-68575Y206331D01*
X-68646Y206256D01*
X-68654Y206238D01*
X-68667Y206222D01*
X-68706Y206126D01*
X-68750Y206033D01*
X-68752Y206013D01*
X-68759Y205994D01*
X-68778Y205828D01*
X-68778Y138089D01*
X-68763Y137999D01*
X-68756Y137908D01*
X-68743Y137879D01*
X-68738Y137847D01*
X-68695Y137766D01*
X-68660Y137682D01*
X-68634Y137650D01*
X-68623Y137629D01*
X-68600Y137607D01*
X-68555Y137551D01*
X-57991Y126987D01*
X-57917Y126934D01*
X-57848Y126875D01*
X-57818Y126863D01*
X-57791Y126844D01*
X-57704Y126817D01*
X-57620Y126783D01*
X-57579Y126778D01*
X-57556Y126772D01*
X-57524Y126772D01*
X-57453Y126764D01*
X-55288Y126764D01*
X-52623Y124100D01*
X-52623Y120332D01*
X-55288Y117667D01*
X-59056Y117667D01*
X-61721Y120332D01*
X-61721Y122497D01*
X-61735Y122587D01*
X-61742Y122678D01*
X-61755Y122708D01*
X-61760Y122740D01*
X-61803Y122820D01*
X-61839Y122904D01*
X-61864Y122936D01*
X-61875Y122957D01*
X-61899Y122979D01*
X-61943Y123035D01*
X-74367Y135459D01*
X-74367Y198350D01*
X-74379Y198420D01*
X-74381Y198492D01*
X-74399Y198541D01*
X-74407Y198592D01*
X-74441Y198656D01*
X-74465Y198723D01*
X-74498Y198764D01*
X-74522Y198810D01*
X-74574Y198859D01*
X-74619Y198915D01*
X-74663Y198943D01*
X-74700Y198979D01*
X-74765Y199009D01*
X-74826Y199048D01*
X-74876Y199061D01*
X-74923Y199083D01*
X-74995Y199091D01*
X-75064Y199108D01*
X-75116Y199104D01*
X-75168Y199110D01*
X-75238Y199095D01*
X-75309Y199089D01*
X-75357Y199069D01*
X-75408Y199058D01*
X-75470Y199021D01*
X-75536Y198993D01*
X-75592Y198948D01*
X-75619Y198931D01*
X-75635Y198914D01*
X-75667Y198888D01*
X-77491Y197064D01*
X-81259Y197064D01*
X-83924Y199728D01*
X-83924Y203497D01*
X-81259Y206161D01*
X-79756Y206161D01*
X-79736Y206164D01*
X-79717Y206162D01*
X-79615Y206184D01*
X-79513Y206201D01*
X-79496Y206210D01*
X-79476Y206215D01*
X-79387Y206268D01*
X-79296Y206316D01*
X-79282Y206330D01*
X-79265Y206341D01*
X-79198Y206419D01*
X-79126Y206494D01*
X-79118Y206512D01*
X-79105Y206528D01*
X-79066Y206624D01*
X-79023Y206717D01*
X-79021Y206737D01*
X-79013Y206756D01*
X-78995Y206922D01*
X-78995Y211209D01*
X-79006Y211279D01*
X-79008Y211351D01*
X-79026Y211400D01*
X-79034Y211451D01*
X-79068Y211515D01*
X-79093Y211582D01*
X-79125Y211623D01*
X-79150Y211669D01*
X-79202Y211718D01*
X-79246Y211774D01*
X-79290Y211802D01*
X-79328Y211838D01*
X-79393Y211868D01*
X-79453Y211907D01*
X-79504Y211920D01*
X-79551Y211942D01*
X-79622Y211950D01*
X-79692Y211967D01*
X-79744Y211963D01*
X-79795Y211969D01*
X-79866Y211954D01*
X-79937Y211948D01*
X-79985Y211928D01*
X-80036Y211917D01*
X-80097Y211880D01*
X-80163Y211852D01*
X-80219Y211807D01*
X-80247Y211790D01*
X-80262Y211773D01*
X-80294Y211747D01*
X-112870Y179171D01*
X-112923Y179097D01*
X-112982Y179028D01*
X-112995Y178998D01*
X-113013Y178972D01*
X-113040Y178885D01*
X-113074Y178800D01*
X-113079Y178759D01*
X-113086Y178736D01*
X-113085Y178704D01*
X-113093Y178633D01*
X-113093Y175981D01*
X-114485Y172620D01*
X-117057Y170047D01*
X-117703Y169780D01*
X-117802Y169719D01*
X-117810Y169714D01*
X-117854Y169691D01*
X-117860Y169684D01*
X-117902Y169659D01*
X-117907Y169654D01*
X-117912Y169651D01*
X-117986Y169560D01*
X-118062Y169472D01*
X-118065Y169466D01*
X-118069Y169461D01*
X-118110Y169353D01*
X-118154Y169244D01*
X-118155Y169236D01*
X-118157Y169231D01*
X-118158Y169213D01*
X-118173Y169077D01*
X-118173Y161123D01*
X-118154Y161008D01*
X-118137Y160892D01*
X-118134Y160887D01*
X-118133Y160880D01*
X-118079Y160778D01*
X-118025Y160673D01*
X-118021Y160669D01*
X-118018Y160663D01*
X-117934Y160583D01*
X-117850Y160501D01*
X-117843Y160497D01*
X-117840Y160494D01*
X-117823Y160486D01*
X-117703Y160420D01*
X-117057Y160153D01*
X-114485Y157580D01*
X-113093Y154219D01*
X-113093Y150581D01*
X-114485Y147220D01*
X-117057Y144647D01*
X-120419Y143255D01*
X-124056Y143255D01*
X-126094Y144099D01*
X-126189Y144122D01*
X-126282Y144150D01*
X-126308Y144150D01*
X-126334Y144156D01*
X-126430Y144146D01*
X-126528Y144144D01*
X-126553Y144135D01*
X-126579Y144132D01*
X-126667Y144093D01*
X-126759Y144059D01*
X-126779Y144043D01*
X-126803Y144032D01*
X-126875Y143967D01*
X-126951Y143906D01*
X-126965Y143884D01*
X-126984Y143866D01*
X-127031Y143781D01*
X-127084Y143699D01*
X-127090Y143673D01*
X-127103Y143651D01*
X-127120Y143555D01*
X-127144Y143460D01*
X-127142Y143434D01*
X-127147Y143408D01*
X-127133Y143312D01*
X-127125Y143215D01*
X-127115Y143191D01*
X-127111Y143165D01*
X-127067Y143078D01*
X-127029Y142989D01*
X-127008Y142963D01*
X-126999Y142946D01*
X-126976Y142923D01*
X-126924Y142858D01*
X-120171Y136105D01*
X-120118Y136067D01*
X-120071Y136021D01*
X-119998Y135981D01*
X-119971Y135961D01*
X-119953Y135956D01*
X-119924Y135940D01*
X-117057Y134753D01*
X-114485Y132180D01*
X-113298Y129313D01*
X-113263Y129258D01*
X-113237Y129197D01*
X-113186Y129133D01*
X-113168Y129104D01*
X-113153Y129092D01*
X-113133Y129066D01*
X-102265Y118199D01*
X-102211Y118161D01*
X-102164Y118114D01*
X-102112Y118089D01*
X-102066Y118056D01*
X-102021Y118042D01*
X-101418Y117354D01*
X-101403Y117342D01*
X-101384Y117318D01*
X-100745Y116679D01*
X-100745Y116676D01*
X-100714Y116617D01*
X-100692Y116554D01*
X-100645Y116487D01*
X-100630Y116458D01*
X-100615Y116444D01*
X-100596Y116416D01*
X-98329Y113832D01*
X-98296Y113805D01*
X-98271Y113772D01*
X-98202Y113727D01*
X-98139Y113675D01*
X-98100Y113660D01*
X-98065Y113638D01*
X-97999Y113617D01*
X-97575Y112983D01*
X-97554Y112959D01*
X-97515Y112904D01*
X-97015Y112333D01*
X-97000Y112266D01*
X-96993Y112184D01*
X-96975Y112146D01*
X-96967Y112105D01*
X-96895Y111966D01*
X-96892Y111960D01*
X-96891Y111958D01*
X-96890Y111956D01*
X-94917Y109004D01*
X-94888Y108973D01*
X-94867Y108937D01*
X-94805Y108884D01*
X-94749Y108824D01*
X-94712Y108804D01*
X-94681Y108777D01*
X-94618Y108748D01*
X-94281Y108064D01*
X-94263Y108038D01*
X-94231Y107978D01*
X-93810Y107347D01*
X-93804Y107278D01*
X-93807Y107196D01*
X-93795Y107156D01*
X-93792Y107114D01*
X-93739Y106968D01*
X-93737Y106960D01*
X-93736Y106959D01*
X-93735Y106957D01*
X-92165Y103772D01*
X-92140Y103738D01*
X-92124Y103700D01*
X-92069Y103639D01*
X-92022Y103572D01*
X-91988Y103548D01*
X-91960Y103516D01*
X-91902Y103479D01*
X-91657Y102757D01*
X-91642Y102729D01*
X-91619Y102665D01*
X-91283Y101985D01*
X-91287Y101916D01*
X-91300Y101835D01*
X-91294Y101794D01*
X-91296Y101752D01*
X-91262Y101600D01*
X-91261Y101592D01*
X-91260Y101591D01*
X-91260Y101588D01*
X-90119Y98226D01*
X-90099Y98189D01*
X-90088Y98149D01*
X-90041Y98081D01*
X-90003Y98009D01*
X-89973Y97980D01*
X-89949Y97946D01*
X-89896Y97901D01*
X-89748Y97153D01*
X-89737Y97124D01*
X-89722Y97057D01*
X-89478Y96339D01*
X-89491Y96271D01*
X-89515Y96192D01*
X-89513Y96151D01*
X-89521Y96110D01*
X-89508Y95955D01*
X-89508Y95947D01*
X-89507Y95945D01*
X-89507Y95943D01*
X-88814Y92460D01*
X-88799Y92421D01*
X-88793Y92380D01*
X-88756Y92306D01*
X-88728Y92230D01*
X-88701Y92197D01*
X-88683Y92160D01*
X-88625Y92097D01*
X-88620Y92034D01*
X-88597Y91981D01*
X-88584Y91925D01*
X-88549Y91869D01*
X-88523Y91807D01*
X-88473Y91744D01*
X-88455Y91716D01*
X-88446Y91708D01*
X-88445Y91707D01*
X-88438Y91701D01*
X-88418Y91676D01*
X-87526Y90784D01*
X-87526Y87016D01*
X-87978Y86564D01*
X-88031Y86490D01*
X-88090Y86421D01*
X-88102Y86391D01*
X-88121Y86365D01*
X-88148Y86278D01*
X-88182Y86193D01*
X-88187Y86152D01*
X-88194Y86130D01*
X-88193Y86097D01*
X-88201Y86026D01*
X-88201Y85491D01*
X-88198Y85472D01*
X-88199Y85441D01*
X-88140Y84541D01*
X-88142Y84538D01*
X-88157Y84473D01*
X-88182Y84411D01*
X-88191Y84330D01*
X-88199Y84298D01*
X-88197Y84278D01*
X-88201Y84244D01*
X-88201Y42735D01*
X-88198Y42716D01*
X-88200Y42696D01*
X-88178Y42595D01*
X-88161Y42493D01*
X-88152Y42475D01*
X-88147Y42456D01*
X-88094Y42366D01*
X-88046Y42275D01*
X-88032Y42262D01*
X-88021Y42245D01*
X-87943Y42177D01*
X-87868Y42106D01*
X-87850Y42098D01*
X-87834Y42085D01*
X-87738Y42046D01*
X-87645Y42002D01*
X-87625Y42000D01*
X-87606Y41993D01*
X-87440Y41974D01*
X-75652Y41974D01*
X-75632Y41977D01*
G37*
G36*
X-67672Y94D02*
X-67672Y94D01*
X-67644Y91D01*
X-67576Y114D01*
X-67505Y128D01*
X-67482Y144D01*
X-67455Y153D01*
X-67400Y200D01*
X-67341Y240D01*
X-67326Y264D01*
X-67305Y283D01*
X-67273Y347D01*
X-67234Y408D01*
X-67229Y436D01*
X-67217Y461D01*
X-67208Y563D01*
X-67201Y604D01*
X-67203Y614D01*
X-67202Y627D01*
X-67259Y1342D01*
X-29780Y1342D01*
X-29668Y1361D01*
X-29554Y1377D01*
X-29546Y1381D01*
X-29537Y1382D01*
X-29437Y1435D01*
X-29334Y1487D01*
X-29328Y1493D01*
X-29320Y1497D01*
X-29241Y1580D01*
X-29161Y1661D01*
X-29157Y1669D01*
X-29151Y1675D01*
X-29102Y1779D01*
X-29052Y1882D01*
X-29050Y1892D01*
X-29047Y1898D01*
X-29045Y1921D01*
X-29021Y2047D01*
X-28886Y3849D01*
X-28889Y3883D01*
X-28884Y3918D01*
X-28900Y4005D01*
X-28907Y4094D01*
X-28921Y4126D01*
X-28928Y4160D01*
X-28962Y4231D01*
X-28819Y4859D01*
X-28817Y4892D01*
X-28802Y4971D01*
X-28754Y5610D01*
X-28713Y5669D01*
X-28656Y5737D01*
X-28643Y5769D01*
X-28624Y5798D01*
X-28568Y5956D01*
X-28078Y8103D01*
X-28076Y8137D01*
X-28066Y8171D01*
X-28069Y8259D01*
X-28063Y8348D01*
X-28072Y8382D01*
X-28073Y8416D01*
X-28097Y8492D01*
X-27862Y9091D01*
X-27855Y9123D01*
X-27828Y9200D01*
X-27686Y9824D01*
X-27636Y9876D01*
X-27570Y9935D01*
X-27552Y9965D01*
X-27528Y9991D01*
X-27450Y10139D01*
X-26646Y12189D01*
X-26639Y12223D01*
X-26624Y12254D01*
X-26613Y12342D01*
X-26594Y12429D01*
X-26598Y12463D01*
X-26594Y12498D01*
X-26606Y12577D01*
X-26284Y13134D01*
X-26272Y13165D01*
X-26235Y13237D01*
X-26001Y13833D01*
X-25944Y13877D01*
X-25870Y13925D01*
X-25848Y13952D01*
X-25821Y13973D01*
X-25721Y14109D01*
X-24620Y16016D01*
X-24608Y16048D01*
X-24589Y16077D01*
X-24565Y16162D01*
X-24533Y16246D01*
X-24532Y16280D01*
X-24523Y16314D01*
X-24523Y16393D01*
X-24122Y16896D01*
X-24106Y16925D01*
X-24058Y16990D01*
X-23737Y17545D01*
X-23675Y17580D01*
X-23594Y17617D01*
X-23568Y17640D01*
X-23538Y17657D01*
X-23420Y17776D01*
X-22047Y19498D01*
X-22030Y19528D01*
X-22007Y19554D01*
X-21970Y19635D01*
X-21927Y19712D01*
X-21920Y19746D01*
X-21906Y19778D01*
X-21894Y19857D01*
X-21423Y20294D01*
X-21402Y20320D01*
X-21345Y20378D01*
X-20946Y20879D01*
X-20879Y20904D01*
X-20793Y20928D01*
X-20765Y20948D01*
X-20732Y20960D01*
X-20598Y21060D01*
X-18983Y22558D01*
X-18962Y22585D01*
X-18935Y22607D01*
X-18887Y22682D01*
X-18833Y22752D01*
X-18821Y22785D01*
X-18802Y22814D01*
X-18779Y22890D01*
X-18247Y23252D01*
X-18223Y23275D01*
X-18158Y23323D01*
X-17689Y23759D01*
X-17619Y23774D01*
X-17531Y23785D01*
X-17499Y23800D01*
X-17466Y23808D01*
X-17317Y23886D01*
X-15498Y25127D01*
X-15473Y25151D01*
X-15443Y25168D01*
X-15384Y25235D01*
X-15320Y25296D01*
X-15304Y25327D01*
X-15281Y25353D01*
X-15247Y25425D01*
X-14667Y25704D01*
X-14640Y25723D01*
X-14568Y25761D01*
X-14039Y26121D01*
X-13967Y26126D01*
X-13878Y26124D01*
X-13845Y26134D01*
X-13811Y26136D01*
X-13653Y26192D01*
X-11669Y27148D01*
X-11640Y27167D01*
X-11608Y27180D01*
X-11540Y27238D01*
X-11467Y27289D01*
X-11447Y27317D01*
X-11420Y27339D01*
X-11376Y27405D01*
X-10761Y27594D01*
X-10731Y27609D01*
X-10655Y27636D01*
X-10078Y27914D01*
X-10006Y27908D01*
X-9919Y27892D01*
X-9884Y27898D01*
X-9850Y27895D01*
X-9685Y27926D01*
X-7581Y28575D01*
X-7550Y28591D01*
X-7516Y28598D01*
X-7440Y28645D01*
X-7361Y28685D01*
X-7336Y28709D01*
X-7307Y28727D01*
X-7253Y28786D01*
X-6616Y28882D01*
X-6585Y28892D01*
X-6505Y28907D01*
X-5893Y29096D01*
X-5824Y29079D01*
X-5739Y29051D01*
X-5705Y29051D01*
X-5671Y29043D01*
X-5503Y29049D01*
X-3326Y29377D01*
X-3293Y29388D01*
X-3258Y29391D01*
X-3177Y29426D01*
X-3092Y29453D01*
X-3064Y29474D01*
X-3032Y29487D01*
X-2970Y29537D01*
X-2327Y29537D01*
X-2294Y29542D01*
X-2213Y29545D01*
X-1580Y29641D01*
X-1513Y29614D01*
X-1434Y29573D01*
X-1400Y29568D01*
X-1368Y29555D01*
X-1201Y29537D01*
X1001Y29537D01*
X1035Y29542D01*
X1070Y29540D01*
X1156Y29562D01*
X1244Y29576D01*
X1274Y29593D01*
X1308Y29601D01*
X1377Y29641D01*
X2013Y29545D01*
X2046Y29546D01*
X2127Y29537D01*
X2767Y29537D01*
X2829Y29500D01*
X2901Y29448D01*
X2934Y29438D01*
X2964Y29421D01*
X3126Y29377D01*
X5303Y29049D01*
X5338Y29050D01*
X5372Y29042D01*
X5460Y29051D01*
X5549Y29052D01*
X5582Y29064D01*
X5616Y29067D01*
X5690Y29097D01*
X6305Y28907D01*
X6338Y28902D01*
X6416Y28882D01*
X7049Y28786D01*
X7105Y28741D01*
X7169Y28679D01*
X7200Y28664D01*
X7227Y28642D01*
X7381Y28575D01*
X7772Y28454D01*
X7853Y28443D01*
X7932Y28423D01*
X7974Y28427D01*
X8016Y28421D01*
X8096Y28436D01*
X8178Y28442D01*
X8216Y28459D01*
X8258Y28467D01*
X8329Y28507D01*
X8404Y28539D01*
X8447Y28573D01*
X8472Y28587D01*
X8491Y28609D01*
X8535Y28644D01*
X10334Y30442D01*
X10387Y30516D01*
X10446Y30586D01*
X10459Y30616D01*
X10477Y30642D01*
X10504Y30729D01*
X10538Y30814D01*
X10543Y30855D01*
X10550Y30877D01*
X10549Y30909D01*
X10557Y30981D01*
X10557Y33146D01*
X13221Y35811D01*
X16990Y35811D01*
X19654Y33146D01*
X19654Y29378D01*
X16990Y26713D01*
X15658Y26713D01*
X15634Y26709D01*
X15610Y26712D01*
X15513Y26689D01*
X15415Y26673D01*
X15394Y26662D01*
X15370Y26656D01*
X15285Y26604D01*
X15198Y26558D01*
X15181Y26541D01*
X15160Y26528D01*
X15097Y26451D01*
X15029Y26380D01*
X15018Y26358D01*
X15003Y26339D01*
X14967Y26247D01*
X14925Y26157D01*
X14922Y26132D01*
X14913Y26110D01*
X14909Y26011D01*
X14898Y25912D01*
X14903Y25888D01*
X14902Y25864D01*
X14940Y25700D01*
X15008Y25504D01*
X15025Y25474D01*
X15034Y25440D01*
X15083Y25366D01*
X15126Y25288D01*
X15151Y25265D01*
X15171Y25236D01*
X15298Y25127D01*
X17117Y23886D01*
X17149Y23872D01*
X17176Y23850D01*
X17260Y23820D01*
X17340Y23782D01*
X17375Y23779D01*
X17407Y23767D01*
X17487Y23761D01*
X17958Y23323D01*
X17986Y23305D01*
X18047Y23252D01*
X18576Y22892D01*
X18607Y22827D01*
X18637Y22743D01*
X18659Y22716D01*
X18674Y22685D01*
X18783Y22558D01*
X20398Y21060D01*
X20426Y21041D01*
X20450Y21015D01*
X20528Y20973D01*
X20603Y20924D01*
X20636Y20915D01*
X20666Y20899D01*
X20744Y20881D01*
X21145Y20378D01*
X21170Y20356D01*
X21223Y20294D01*
X21692Y19859D01*
X21713Y19790D01*
X21730Y19703D01*
X21748Y19673D01*
X21758Y19640D01*
X21847Y19498D01*
X23220Y17776D01*
X23245Y17753D01*
X23265Y17724D01*
X23337Y17671D01*
X23402Y17611D01*
X23434Y17597D01*
X23462Y17577D01*
X23536Y17548D01*
X23857Y16990D01*
X23878Y16965D01*
X23922Y16896D01*
X24321Y16396D01*
X24331Y16325D01*
X24335Y16236D01*
X24348Y16204D01*
X24353Y16169D01*
X24420Y16016D01*
X25521Y14109D01*
X25543Y14082D01*
X25558Y14051D01*
X25621Y13987D01*
X25677Y13918D01*
X25706Y13900D01*
X25731Y13875D01*
X25800Y13836D01*
X26035Y13237D01*
X26051Y13208D01*
X26084Y13134D01*
X26404Y12579D01*
X26404Y12508D01*
X26395Y12419D01*
X26402Y12385D01*
X26402Y12351D01*
X26446Y12189D01*
X27250Y10139D01*
X27268Y10109D01*
X27278Y10076D01*
X27330Y10004D01*
X27376Y9928D01*
X27402Y9905D01*
X27423Y9877D01*
X27485Y9827D01*
X27628Y9200D01*
X27640Y9169D01*
X27662Y9091D01*
X27895Y8495D01*
X27884Y8424D01*
X27862Y8338D01*
X27865Y8304D01*
X27859Y8269D01*
X27878Y8103D01*
X28368Y5956D01*
X28381Y5924D01*
X28387Y5890D01*
X28428Y5810D01*
X28461Y5728D01*
X28484Y5702D01*
X28500Y5671D01*
X28554Y5613D01*
X28602Y4971D01*
X28610Y4939D01*
X28619Y4859D01*
X28761Y4234D01*
X28740Y4166D01*
X28705Y4084D01*
X28703Y4050D01*
X28692Y4016D01*
X28686Y3849D01*
X28821Y2047D01*
X28848Y1936D01*
X28872Y1824D01*
X28877Y1816D01*
X28879Y1808D01*
X28940Y1711D01*
X28998Y1613D01*
X29005Y1607D01*
X29010Y1599D01*
X29098Y1527D01*
X29185Y1453D01*
X29194Y1449D01*
X29200Y1444D01*
X29307Y1404D01*
X29413Y1361D01*
X29424Y1360D01*
X29431Y1357D01*
X29454Y1356D01*
X29580Y1342D01*
X67059Y1342D01*
X67002Y627D01*
X67006Y599D01*
X67001Y571D01*
X67018Y501D01*
X67026Y430D01*
X67041Y405D01*
X67047Y378D01*
X67090Y320D01*
X67126Y257D01*
X67148Y240D01*
X67165Y217D01*
X67227Y181D01*
X67284Y137D01*
X67312Y130D01*
X67336Y116D01*
X67436Y99D01*
X67477Y89D01*
X67487Y90D01*
X67500Y88D01*
X86500Y88D01*
X86576Y104D01*
X86654Y112D01*
X86673Y123D01*
X86695Y128D01*
X86759Y172D01*
X86827Y210D01*
X86843Y229D01*
X86859Y240D01*
X86883Y278D01*
X86933Y338D01*
X96433Y16838D01*
X96442Y16866D01*
X96458Y16889D01*
X96473Y16959D01*
X96496Y17027D01*
X96493Y17056D01*
X96499Y17084D01*
X96486Y17154D01*
X96480Y17225D01*
X96467Y17251D01*
X96461Y17279D01*
X96421Y17338D01*
X96388Y17402D01*
X96366Y17420D01*
X96350Y17444D01*
X96267Y17501D01*
X96235Y17528D01*
X96224Y17531D01*
X96214Y17539D01*
X95586Y17835D01*
X114299Y50248D01*
X114340Y50355D01*
X114383Y50461D01*
X114383Y50470D01*
X114386Y50478D01*
X114390Y50592D01*
X114397Y50707D01*
X114395Y50715D01*
X114395Y50724D01*
X114363Y50834D01*
X114333Y50944D01*
X114328Y50951D01*
X114325Y50960D01*
X114260Y51054D01*
X114196Y51149D01*
X114188Y51155D01*
X114184Y51161D01*
X114166Y51175D01*
X114069Y51258D01*
X112581Y52272D01*
X112549Y52286D01*
X112522Y52308D01*
X112439Y52338D01*
X112358Y52375D01*
X112323Y52379D01*
X112291Y52391D01*
X112212Y52397D01*
X111740Y52834D01*
X111712Y52852D01*
X111651Y52905D01*
X111121Y53266D01*
X111091Y53331D01*
X111060Y53414D01*
X111039Y53441D01*
X111024Y53473D01*
X110914Y53600D01*
X110282Y54186D01*
X110277Y54189D01*
X110273Y54194D01*
X110175Y54257D01*
X110077Y54322D01*
X110071Y54324D01*
X110066Y54327D01*
X109952Y54355D01*
X109839Y54386D01*
X109833Y54385D01*
X109828Y54387D01*
X109710Y54377D01*
X109594Y54370D01*
X109588Y54368D01*
X109582Y54367D01*
X109474Y54321D01*
X109366Y54277D01*
X109362Y54273D01*
X109356Y54271D01*
X109263Y54196D01*
X109254Y54191D01*
X109249Y54185D01*
X109225Y54166D01*
X109206Y54147D01*
X109192Y54126D01*
X109180Y54116D01*
X109159Y54081D01*
X109154Y54073D01*
X109094Y54004D01*
X109082Y53974D01*
X109063Y53947D01*
X109036Y53860D01*
X109002Y53776D01*
X108998Y53734D01*
X108991Y53712D01*
X108992Y53680D01*
X108984Y53609D01*
X108984Y51444D01*
X106319Y48779D01*
X102551Y48779D01*
X99886Y51444D01*
X99886Y55212D01*
X102551Y57877D01*
X104716Y57877D01*
X104806Y57891D01*
X104897Y57899D01*
X104927Y57911D01*
X104959Y57917D01*
X105039Y57959D01*
X105123Y57995D01*
X105156Y58021D01*
X105176Y58032D01*
X105198Y58055D01*
X105254Y58100D01*
X105577Y58422D01*
X105635Y58503D01*
X105699Y58581D01*
X105707Y58603D01*
X105720Y58622D01*
X105750Y58718D01*
X105785Y58812D01*
X105786Y58835D01*
X105793Y58857D01*
X105790Y58957D01*
X105793Y59058D01*
X105787Y59080D01*
X105786Y59103D01*
X105752Y59197D01*
X105723Y59293D01*
X105708Y59317D01*
X105702Y59334D01*
X105681Y59359D01*
X105633Y59435D01*
X105362Y59775D01*
X105361Y59792D01*
X105355Y59905D01*
X105352Y59914D01*
X105351Y59924D01*
X105293Y60082D01*
X105219Y60232D01*
X105208Y60247D01*
X105196Y60276D01*
X105155Y60345D01*
X105113Y60397D01*
X105079Y60454D01*
X105021Y60510D01*
X105000Y60536D01*
X104983Y60546D01*
X104958Y60570D01*
X104709Y60760D01*
X104666Y61078D01*
X104647Y61140D01*
X104638Y61204D01*
X104604Y61282D01*
X104594Y61314D01*
X104583Y61329D01*
X104571Y61358D01*
X104170Y62052D01*
X104148Y62079D01*
X104132Y62110D01*
X104070Y62173D01*
X104014Y62242D01*
X103984Y62260D01*
X103960Y62285D01*
X103891Y62325D01*
X103656Y62924D01*
X103639Y62952D01*
X103607Y63026D01*
X103286Y63581D01*
X103287Y63652D01*
X103296Y63741D01*
X103288Y63775D01*
X103288Y63809D01*
X103244Y63971D01*
X102438Y66023D01*
X102421Y66053D01*
X102410Y66086D01*
X102358Y66158D01*
X102313Y66234D01*
X102286Y66257D01*
X102266Y66285D01*
X102204Y66334D01*
X102060Y66962D01*
X102048Y66992D01*
X102027Y67070D01*
X101793Y67666D01*
X101804Y67737D01*
X101826Y67823D01*
X101823Y67858D01*
X101829Y67892D01*
X101810Y68059D01*
X101319Y70208D01*
X101305Y70240D01*
X101300Y70274D01*
X101259Y70353D01*
X101226Y70435D01*
X101203Y70462D01*
X101187Y70493D01*
X101133Y70551D01*
X101085Y71192D01*
X101077Y71224D01*
X101068Y71305D01*
X100925Y71929D01*
X100947Y71997D01*
X100981Y72080D01*
X100984Y72114D01*
X100994Y72147D01*
X101000Y72315D01*
X100835Y74513D01*
X100827Y74546D01*
X100827Y74581D01*
X100798Y74665D01*
X100777Y74752D01*
X100758Y74781D01*
X100747Y74814D01*
X100702Y74879D01*
X100750Y75521D01*
X100747Y75554D01*
X100750Y75635D01*
X100702Y76274D01*
X100704Y76277D01*
X100705Y76278D01*
X100714Y76297D01*
X100734Y76338D01*
X100780Y76414D01*
X100788Y76448D01*
X100803Y76479D01*
X100807Y76497D01*
X100809Y76501D01*
X100810Y76516D01*
X100834Y76644D01*
X100998Y78842D01*
X100995Y78876D01*
X101000Y78911D01*
X100984Y78998D01*
X100977Y79087D01*
X100963Y79118D01*
X100957Y79153D01*
X100922Y79224D01*
X101065Y79852D01*
X101067Y79885D01*
X101082Y79964D01*
X101130Y80603D01*
X101170Y80662D01*
X101228Y80730D01*
X101240Y80762D01*
X101260Y80791D01*
X101315Y80949D01*
X101805Y83098D01*
X101807Y83133D01*
X101817Y83166D01*
X101815Y83255D01*
X101820Y83344D01*
X101811Y83377D01*
X101810Y83412D01*
X101786Y83487D01*
X102021Y84087D01*
X102027Y84111D01*
X102028Y84113D01*
X102028Y84119D01*
X102055Y84196D01*
X102197Y84820D01*
X102246Y84872D01*
X102313Y84931D01*
X102330Y84961D01*
X102354Y84986D01*
X102432Y85135D01*
X103237Y87187D01*
X103244Y87221D01*
X103259Y87252D01*
X103270Y87340D01*
X103289Y87427D01*
X103285Y87462D01*
X103289Y87496D01*
X103277Y87575D01*
X103598Y88132D01*
X103610Y88163D01*
X103648Y88235D01*
X103882Y88831D01*
X103938Y88875D01*
X104013Y88923D01*
X104034Y88950D01*
X104062Y88972D01*
X104161Y89107D01*
X105262Y91016D01*
X105275Y91049D01*
X105294Y91077D01*
X105318Y91163D01*
X105349Y91246D01*
X105351Y91281D01*
X105360Y91314D01*
X105360Y91394D01*
X105761Y91897D01*
X105777Y91926D01*
X105825Y91991D01*
X106145Y92546D01*
X106207Y92581D01*
X106288Y92618D01*
X106314Y92641D01*
X106344Y92658D01*
X106462Y92777D01*
X107836Y94501D01*
X107851Y94528D01*
X107870Y94548D01*
X107872Y94552D01*
X107876Y94557D01*
X107913Y94638D01*
X107956Y94716D01*
X107962Y94745D01*
X107974Y94771D01*
X107974Y94776D01*
X107977Y94781D01*
X107988Y94860D01*
X108460Y95298D01*
X108480Y95324D01*
X108537Y95381D01*
X108937Y95882D01*
X109004Y95908D01*
X109089Y95932D01*
X109118Y95951D01*
X109150Y95964D01*
X109285Y96064D01*
X110900Y97563D01*
X110922Y97591D01*
X110949Y97612D01*
X110996Y97687D01*
X111051Y97758D01*
X111063Y97790D01*
X111081Y97820D01*
X111104Y97895D01*
X111636Y98258D01*
X111660Y98281D01*
X111725Y98329D01*
X112194Y98765D01*
X112264Y98780D01*
X112353Y98791D01*
X112384Y98806D01*
X112418Y98814D01*
X112566Y98892D01*
X114387Y100135D01*
X114412Y100159D01*
X114442Y100176D01*
X114500Y100243D01*
X114565Y100304D01*
X114581Y100335D01*
X114604Y100361D01*
X114638Y100433D01*
X115218Y100712D01*
X115245Y100731D01*
X115316Y100769D01*
X115845Y101130D01*
X115917Y101135D01*
X116006Y101133D01*
X116039Y101143D01*
X116074Y101145D01*
X116232Y101201D01*
X118217Y102158D01*
X118246Y102178D01*
X118278Y102190D01*
X118346Y102248D01*
X118419Y102299D01*
X118439Y102327D01*
X118466Y102349D01*
X118510Y102415D01*
X119125Y102605D01*
X119155Y102620D01*
X119179Y102628D01*
X119180Y102628D01*
X119181Y102629D01*
X119231Y102646D01*
X119808Y102925D01*
X119880Y102919D01*
X119967Y102903D01*
X120001Y102908D01*
X120036Y102905D01*
X120201Y102937D01*
X122307Y103587D01*
X122338Y103603D01*
X122372Y103611D01*
X122447Y103657D01*
X122527Y103697D01*
X122552Y103721D01*
X122581Y103740D01*
X122635Y103798D01*
X123271Y103894D01*
X123303Y103904D01*
X123382Y103919D01*
X123994Y104108D01*
X124064Y104092D01*
X124148Y104064D01*
X124183Y104064D01*
X124217Y104056D01*
X124384Y104062D01*
X126564Y104391D01*
X126597Y104402D01*
X126631Y104405D01*
X126713Y104440D01*
X126798Y104467D01*
X126826Y104488D01*
X126858Y104501D01*
X126919Y104551D01*
X127563Y104551D01*
X127596Y104556D01*
X127677Y104560D01*
X128310Y104655D01*
X128376Y104628D01*
X128455Y104588D01*
X128490Y104583D01*
X128522Y104570D01*
X128689Y104551D01*
X130893Y104552D01*
X130927Y104558D01*
X130962Y104555D01*
X131048Y104577D01*
X131135Y104592D01*
X131166Y104608D01*
X131200Y104617D01*
X131268Y104657D01*
X131905Y104561D01*
X131938Y104561D01*
X132018Y104552D01*
X132659Y104553D01*
X132721Y104516D01*
X132793Y104464D01*
X132826Y104454D01*
X132856Y104437D01*
X133018Y104393D01*
X135198Y104066D01*
X135232Y104066D01*
X135266Y104059D01*
X135355Y104068D01*
X135443Y104069D01*
X135476Y104080D01*
X135511Y104084D01*
X135585Y104113D01*
X136200Y103924D01*
X136232Y103919D01*
X136310Y103898D01*
X136944Y103803D01*
X137000Y103758D01*
X137063Y103696D01*
X137094Y103681D01*
X137121Y103659D01*
X137275Y103592D01*
X139382Y102943D01*
X139416Y102938D01*
X139448Y102926D01*
X139537Y102922D01*
X139625Y102910D01*
X139659Y102916D01*
X139694Y102915D01*
X139771Y102932D01*
X140351Y102653D01*
X140383Y102644D01*
X140457Y102612D01*
X141069Y102423D01*
X141118Y102370D01*
X141171Y102299D01*
X141200Y102280D01*
X141223Y102254D01*
X141366Y102165D01*
X143004Y101377D01*
X143113Y101345D01*
X143223Y101310D01*
X143232Y101310D01*
X143240Y101307D01*
X143354Y101312D01*
X143469Y101313D01*
X143477Y101316D01*
X143486Y101317D01*
X143593Y101357D01*
X143701Y101395D01*
X143708Y101401D01*
X143716Y101404D01*
X143805Y101477D01*
X143894Y101547D01*
X143901Y101555D01*
X143906Y101560D01*
X143919Y101580D01*
X143994Y101682D01*
X162708Y134097D01*
X163316Y133677D01*
X163343Y133665D01*
X163365Y133647D01*
X163434Y133627D01*
X163499Y133599D01*
X163528Y133598D01*
X163556Y133590D01*
X163627Y133598D01*
X163698Y133598D01*
X163725Y133609D01*
X163754Y133612D01*
X163816Y133648D01*
X163881Y133675D01*
X163902Y133696D01*
X163927Y133710D01*
X163990Y133787D01*
X164020Y133818D01*
X164024Y133828D01*
X164033Y133838D01*
X173533Y150338D01*
X173543Y150370D01*
X173552Y150383D01*
X173556Y150408D01*
X173557Y150411D01*
X173588Y150482D01*
X173588Y150505D01*
X173596Y150527D01*
X173590Y150604D01*
X173591Y150681D01*
X173581Y150705D01*
X173580Y150725D01*
X173559Y150765D01*
X173533Y150837D01*
X164033Y167337D01*
X164014Y167358D01*
X164001Y167385D01*
X163948Y167432D01*
X163901Y167486D01*
X163875Y167498D01*
X163854Y167518D01*
X163786Y167541D01*
X163722Y167572D01*
X163693Y167573D01*
X163666Y167582D01*
X163594Y167578D01*
X163523Y167581D01*
X163496Y167571D01*
X163467Y167569D01*
X163377Y167526D01*
X163337Y167512D01*
X163329Y167504D01*
X163316Y167498D01*
X162708Y167078D01*
X162085Y168157D01*
X162010Y168249D01*
X161936Y168341D01*
X161932Y168344D01*
X161930Y168347D01*
X161828Y168411D01*
X161729Y168474D01*
X161725Y168475D01*
X161721Y168478D01*
X161605Y168506D01*
X161490Y168535D01*
X161486Y168534D01*
X161482Y168535D01*
X161363Y168525D01*
X161245Y168515D01*
X161241Y168514D01*
X161237Y168513D01*
X161127Y168465D01*
X161019Y168419D01*
X161015Y168416D01*
X161012Y168415D01*
X161001Y168405D01*
X160888Y168314D01*
X112174Y119601D01*
X112121Y119527D01*
X112062Y119457D01*
X112050Y119427D01*
X112031Y119401D01*
X112004Y119314D01*
X111970Y119229D01*
X111965Y119188D01*
X111958Y119166D01*
X111959Y119134D01*
X111951Y119063D01*
X111951Y116250D01*
X103531Y109408D01*
X103519Y109395D01*
X103495Y109377D01*
X99283Y105486D01*
X99264Y105462D01*
X99216Y105416D01*
X95531Y101024D01*
X95515Y100997D01*
X95474Y100946D01*
X92374Y96123D01*
X92362Y96094D01*
X92327Y96038D01*
X89863Y90861D01*
X89854Y90831D01*
X89827Y90772D01*
X89613Y90119D01*
X89607Y90083D01*
X89593Y90049D01*
X89575Y89882D01*
X89575Y87468D01*
X88463Y86357D01*
X88418Y86294D01*
X88394Y86269D01*
X88389Y86258D01*
X88348Y86209D01*
X88332Y86175D01*
X88320Y86157D01*
X88310Y86126D01*
X88278Y86056D01*
X88038Y85324D01*
X88034Y85301D01*
X88027Y85285D01*
X88025Y85266D01*
X88014Y85231D01*
X86929Y79601D01*
X86928Y79569D01*
X86916Y79505D01*
X86553Y73783D01*
X86555Y73764D01*
X86551Y73734D01*
X86551Y40449D01*
X79398Y40449D01*
X79379Y40446D01*
X79359Y40448D01*
X79258Y40426D01*
X79156Y40409D01*
X79138Y40400D01*
X79119Y40395D01*
X79030Y40342D01*
X78938Y40294D01*
X78925Y40280D01*
X78908Y40269D01*
X78840Y40191D01*
X78769Y40116D01*
X78761Y40098D01*
X78748Y40082D01*
X78709Y39986D01*
X78665Y39893D01*
X78663Y39873D01*
X78656Y39854D01*
X78637Y39688D01*
X78637Y36756D01*
X77744Y35863D01*
X71481Y35863D01*
X70588Y36756D01*
X70588Y37070D01*
X70585Y37089D01*
X70587Y37109D01*
X70565Y37210D01*
X70548Y37312D01*
X70539Y37330D01*
X70534Y37349D01*
X70481Y37438D01*
X70433Y37530D01*
X70419Y37543D01*
X70408Y37560D01*
X70330Y37628D01*
X70255Y37699D01*
X70237Y37707D01*
X70221Y37720D01*
X70125Y37759D01*
X70032Y37803D01*
X70012Y37805D01*
X69993Y37812D01*
X69827Y37831D01*
X68162Y37831D01*
X68072Y37816D01*
X67981Y37809D01*
X67951Y37796D01*
X67920Y37791D01*
X67839Y37748D01*
X67755Y37713D01*
X67723Y37687D01*
X67702Y37676D01*
X67680Y37653D01*
X67624Y37608D01*
X66666Y36650D01*
X64612Y35799D01*
X58738Y35799D01*
X58718Y35796D01*
X58698Y35798D01*
X58597Y35776D01*
X58495Y35759D01*
X58477Y35750D01*
X58458Y35745D01*
X58369Y35692D01*
X58277Y35644D01*
X58264Y35630D01*
X58247Y35619D01*
X58179Y35541D01*
X58108Y35466D01*
X58100Y35448D01*
X58087Y35432D01*
X58048Y35336D01*
X58004Y35243D01*
X58002Y35223D01*
X57995Y35204D01*
X57976Y35038D01*
X57976Y28147D01*
X57991Y28057D01*
X57998Y27966D01*
X58011Y27936D01*
X58016Y27904D01*
X58059Y27824D01*
X58094Y27740D01*
X58120Y27708D01*
X58131Y27687D01*
X58154Y27665D01*
X58199Y27609D01*
X58524Y27284D01*
X58524Y23516D01*
X58199Y23191D01*
X58157Y23132D01*
X58112Y23085D01*
X58105Y23069D01*
X58087Y23048D01*
X58075Y23018D01*
X58056Y22992D01*
X58030Y22909D01*
X58009Y22862D01*
X58007Y22851D01*
X57995Y22820D01*
X57990Y22779D01*
X57983Y22757D01*
X57984Y22724D01*
X57976Y22653D01*
X57976Y21399D01*
X56722Y21399D01*
X56632Y21384D01*
X56541Y21377D01*
X56511Y21364D01*
X56479Y21359D01*
X56399Y21316D01*
X56315Y21281D01*
X56282Y21255D01*
X56262Y21244D01*
X56240Y21221D01*
X56184Y21176D01*
X55859Y20851D01*
X52091Y20851D01*
X51766Y21176D01*
X51692Y21229D01*
X51623Y21288D01*
X51593Y21300D01*
X51567Y21319D01*
X51480Y21346D01*
X51395Y21380D01*
X51354Y21385D01*
X51332Y21392D01*
X51299Y21391D01*
X51228Y21399D01*
X43624Y21399D01*
X43624Y23017D01*
X43605Y23131D01*
X43588Y23248D01*
X43585Y23254D01*
X43584Y23260D01*
X43530Y23362D01*
X43476Y23467D01*
X43472Y23472D01*
X43469Y23477D01*
X43384Y23557D01*
X43301Y23639D01*
X43294Y23643D01*
X43291Y23646D01*
X43274Y23654D01*
X43154Y23720D01*
X42872Y23837D01*
X41300Y25409D01*
X40449Y27463D01*
X40449Y39688D01*
X40446Y39707D01*
X40448Y39727D01*
X40426Y39828D01*
X40409Y39930D01*
X40400Y39948D01*
X40395Y39967D01*
X40342Y40056D01*
X40294Y40148D01*
X40280Y40161D01*
X40269Y40178D01*
X40191Y40246D01*
X40116Y40317D01*
X40098Y40325D01*
X40082Y40338D01*
X39986Y40377D01*
X39893Y40421D01*
X39873Y40423D01*
X39854Y40430D01*
X39688Y40449D01*
X37274Y40449D01*
X37274Y58738D01*
X37271Y58757D01*
X37273Y58777D01*
X37251Y58878D01*
X37234Y58980D01*
X37225Y58998D01*
X37220Y59017D01*
X37167Y59106D01*
X37119Y59198D01*
X37105Y59211D01*
X37094Y59228D01*
X37016Y59296D01*
X36941Y59367D01*
X36923Y59375D01*
X36907Y59388D01*
X36811Y59427D01*
X36718Y59471D01*
X36698Y59473D01*
X36679Y59480D01*
X36513Y59499D01*
X6350Y59499D01*
X6324Y59495D01*
X6275Y59495D01*
X4727Y59343D01*
X4704Y59336D01*
X4581Y59313D01*
X3091Y58862D01*
X3070Y58851D01*
X2954Y58805D01*
X1581Y58071D01*
X1562Y58057D01*
X1457Y57988D01*
X254Y57001D01*
X239Y56983D01*
X149Y56896D01*
X-525Y56074D01*
X-552Y56028D01*
X-587Y55986D01*
X-613Y55922D01*
X-648Y55862D01*
X-659Y55809D01*
X-679Y55758D01*
X-691Y55649D01*
X-697Y55621D01*
X-696Y55609D01*
X-698Y55592D01*
X-698Y42879D01*
X-2126Y41451D01*
X-2170Y41390D01*
X-2202Y41355D01*
X-2208Y41343D01*
X-2238Y41307D01*
X-2250Y41277D01*
X-2269Y41251D01*
X-2296Y41164D01*
X-2330Y41079D01*
X-2335Y41038D01*
X-2342Y41016D01*
X-2341Y40984D01*
X-2349Y40913D01*
X-2349Y40449D01*
X-15852Y40449D01*
X-15871Y40446D01*
X-15891Y40448D01*
X-15992Y40426D01*
X-16094Y40409D01*
X-16112Y40400D01*
X-16131Y40395D01*
X-16220Y40342D01*
X-16312Y40294D01*
X-16325Y40280D01*
X-16342Y40269D01*
X-16410Y40191D01*
X-16481Y40116D01*
X-16489Y40098D01*
X-16502Y40082D01*
X-16530Y40014D01*
X-17506Y39038D01*
X-23769Y39038D01*
X-24741Y40009D01*
X-24769Y40056D01*
X-24817Y40148D01*
X-24831Y40161D01*
X-24842Y40178D01*
X-24920Y40246D01*
X-24995Y40317D01*
X-25013Y40325D01*
X-25029Y40338D01*
X-25125Y40377D01*
X-25218Y40421D01*
X-25238Y40423D01*
X-25257Y40430D01*
X-25423Y40449D01*
X-33314Y40449D01*
X-33334Y40446D01*
X-33353Y40448D01*
X-33455Y40426D01*
X-33557Y40409D01*
X-33574Y40400D01*
X-33594Y40395D01*
X-33683Y40342D01*
X-33774Y40294D01*
X-33788Y40280D01*
X-33805Y40269D01*
X-33872Y40191D01*
X-33944Y40116D01*
X-33952Y40098D01*
X-33965Y40082D01*
X-33993Y40014D01*
X-34968Y39038D01*
X-41232Y39038D01*
X-41872Y39678D01*
X-41946Y39731D01*
X-42016Y39791D01*
X-42046Y39803D01*
X-42072Y39822D01*
X-42159Y39849D01*
X-42244Y39883D01*
X-42285Y39887D01*
X-42307Y39894D01*
X-42339Y39893D01*
X-42410Y39901D01*
X-44747Y39901D01*
X-45071Y40226D01*
X-45145Y40279D01*
X-45215Y40338D01*
X-45245Y40350D01*
X-45271Y40369D01*
X-45358Y40396D01*
X-45443Y40430D01*
X-45484Y40435D01*
X-45506Y40442D01*
X-45538Y40441D01*
X-45609Y40449D01*
X-49189Y40449D01*
X-49209Y40446D01*
X-49228Y40448D01*
X-49330Y40426D01*
X-49432Y40409D01*
X-49449Y40400D01*
X-49469Y40395D01*
X-49558Y40342D01*
X-49649Y40294D01*
X-49663Y40280D01*
X-49680Y40269D01*
X-49747Y40191D01*
X-49819Y40116D01*
X-49827Y40098D01*
X-49840Y40082D01*
X-49868Y40014D01*
X-50843Y39038D01*
X-57107Y39038D01*
X-58078Y40009D01*
X-58106Y40056D01*
X-58155Y40148D01*
X-58169Y40161D01*
X-58179Y40178D01*
X-58258Y40246D01*
X-58333Y40317D01*
X-58351Y40325D01*
X-58366Y40338D01*
X-58462Y40377D01*
X-58556Y40421D01*
X-58576Y40423D01*
X-58594Y40430D01*
X-58761Y40449D01*
X-65064Y40449D01*
X-65084Y40446D01*
X-65103Y40448D01*
X-65205Y40426D01*
X-65307Y40409D01*
X-65324Y40400D01*
X-65344Y40395D01*
X-65433Y40342D01*
X-65524Y40294D01*
X-65538Y40280D01*
X-65555Y40269D01*
X-65622Y40191D01*
X-65694Y40116D01*
X-65702Y40098D01*
X-65715Y40082D01*
X-65743Y40014D01*
X-66718Y39038D01*
X-72982Y39038D01*
X-73953Y40009D01*
X-73981Y40056D01*
X-74030Y40148D01*
X-74044Y40161D01*
X-74054Y40178D01*
X-74133Y40246D01*
X-74208Y40317D01*
X-74226Y40325D01*
X-74241Y40338D01*
X-74337Y40377D01*
X-74431Y40421D01*
X-74451Y40423D01*
X-74469Y40430D01*
X-74636Y40449D01*
X-89726Y40449D01*
X-89726Y85391D01*
X-89729Y85410D01*
X-89728Y85441D01*
X-90095Y91049D01*
X-90103Y91080D01*
X-90108Y91148D01*
X-91205Y96660D01*
X-91216Y96689D01*
X-91231Y96756D01*
X-93037Y102078D01*
X-93045Y102092D01*
X-93048Y102107D01*
X-93059Y102126D01*
X-93075Y102170D01*
X-95561Y107210D01*
X-95579Y107236D01*
X-95611Y107296D01*
X-98733Y111969D01*
X-98754Y111992D01*
X-98793Y112048D01*
X-102499Y116273D01*
X-102513Y116285D01*
X-102533Y116310D01*
X-111793Y125570D01*
X-111836Y125600D01*
X-111862Y125628D01*
X-111880Y125638D01*
X-111903Y125661D01*
X-111951Y125683D01*
X-111993Y125713D01*
X-112045Y125729D01*
X-112077Y125747D01*
X-112096Y125750D01*
X-112127Y125765D01*
X-112178Y125770D01*
X-112228Y125786D01*
X-112283Y125784D01*
X-112319Y125791D01*
X-112338Y125788D01*
X-112371Y125792D01*
X-112422Y125781D01*
X-112474Y125779D01*
X-112526Y125760D01*
X-112562Y125755D01*
X-112579Y125746D01*
X-112611Y125739D01*
X-112656Y125713D01*
X-112705Y125695D01*
X-112747Y125661D01*
X-112782Y125643D01*
X-112795Y125629D01*
X-112822Y125613D01*
X-112856Y125574D01*
X-112897Y125541D01*
X-112925Y125497D01*
X-112954Y125468D01*
X-112967Y125445D01*
X-112982Y125426D01*
X-112998Y125388D01*
X-113013Y125361D01*
X-113030Y125334D01*
X-113032Y125326D01*
X-113035Y125321D01*
X-114485Y121820D01*
X-117057Y119247D01*
X-120419Y117855D01*
X-124056Y117855D01*
X-127418Y119247D01*
X-129990Y121820D01*
X-131382Y125181D01*
X-131382Y128819D01*
X-129990Y132180D01*
X-127418Y134753D01*
X-123917Y136203D01*
X-123880Y136225D01*
X-123833Y136243D01*
X-123792Y136275D01*
X-123746Y136300D01*
X-123725Y136321D01*
X-123708Y136332D01*
X-123682Y136363D01*
X-123641Y136396D01*
X-123612Y136440D01*
X-123576Y136478D01*
X-123563Y136507D01*
X-123551Y136522D01*
X-123537Y136557D01*
X-123508Y136603D01*
X-123495Y136654D01*
X-123473Y136701D01*
X-123469Y136734D01*
X-123463Y136751D01*
X-123461Y136788D01*
X-123447Y136842D01*
X-123452Y136894D01*
X-123446Y136945D01*
X-123453Y136978D01*
X-123452Y136997D01*
X-123462Y137032D01*
X-123467Y137087D01*
X-123487Y137135D01*
X-123498Y137186D01*
X-123515Y137215D01*
X-123521Y137233D01*
X-123542Y137264D01*
X-123563Y137313D01*
X-123608Y137369D01*
X-123624Y137397D01*
X-123642Y137412D01*
X-123668Y137444D01*
X-140211Y153988D01*
X-126525Y167673D01*
X-126472Y167747D01*
X-126413Y167817D01*
X-126400Y167847D01*
X-126382Y167873D01*
X-126355Y167960D01*
X-126321Y168045D01*
X-126316Y168086D01*
X-126309Y168108D01*
X-126310Y168140D01*
X-126302Y168212D01*
X-126302Y169077D01*
X-126321Y169192D01*
X-126338Y169308D01*
X-126341Y169313D01*
X-126342Y169320D01*
X-126396Y169422D01*
X-126450Y169527D01*
X-126454Y169531D01*
X-126457Y169537D01*
X-126541Y169617D01*
X-126625Y169699D01*
X-126632Y169703D01*
X-126635Y169706D01*
X-126652Y169714D01*
X-126772Y169780D01*
X-127418Y170047D01*
X-129990Y172620D01*
X-131382Y175981D01*
X-131382Y179619D01*
X-129990Y182980D01*
X-127418Y185553D01*
X-124056Y186945D01*
X-120419Y186945D01*
X-117057Y185553D01*
X-114485Y182980D01*
X-113964Y181723D01*
X-113940Y181684D01*
X-113924Y181641D01*
X-113876Y181580D01*
X-113835Y181514D01*
X-113799Y181484D01*
X-113771Y181449D01*
X-113705Y181407D01*
X-113645Y181357D01*
X-113602Y181340D01*
X-113564Y181316D01*
X-113488Y181297D01*
X-113415Y181269D01*
X-113370Y181267D01*
X-113325Y181256D01*
X-113248Y181262D01*
X-113170Y181258D01*
X-113126Y181271D01*
X-113080Y181275D01*
X-113008Y181305D01*
X-112934Y181327D01*
X-112896Y181353D01*
X-112854Y181371D01*
X-112747Y181456D01*
X-112731Y181467D01*
X-112728Y181471D01*
X-112723Y181476D01*
X-82012Y212187D01*
X-81959Y212261D01*
X-81899Y212330D01*
X-81887Y212360D01*
X-81868Y212386D01*
X-81841Y212473D01*
X-81807Y212558D01*
X-81803Y212599D01*
X-81796Y212622D01*
X-81797Y212654D01*
X-81789Y212725D01*
X-81789Y243039D01*
X-81792Y243059D01*
X-81790Y243078D01*
X-81812Y243180D01*
X-81829Y243282D01*
X-81838Y243299D01*
X-81842Y243319D01*
X-81895Y243408D01*
X-81944Y243499D01*
X-81958Y243513D01*
X-81968Y243530D01*
X-82047Y243597D01*
X-82122Y243669D01*
X-82140Y243677D01*
X-82155Y243690D01*
X-82251Y243729D01*
X-82345Y243772D01*
X-82365Y243774D01*
X-82383Y243782D01*
X-82550Y243800D01*
X-82857Y243800D01*
X-83750Y244693D01*
X-83750Y256957D01*
X-82857Y257850D01*
X-82550Y257850D01*
X-82530Y257853D01*
X-82511Y257851D01*
X-82409Y257873D01*
X-82307Y257889D01*
X-82290Y257899D01*
X-82270Y257903D01*
X-82181Y257956D01*
X-82090Y258005D01*
X-82076Y258019D01*
X-82059Y258029D01*
X-81992Y258108D01*
X-81921Y258183D01*
X-81912Y258201D01*
X-81899Y258216D01*
X-81860Y258312D01*
X-81817Y258406D01*
X-81815Y258426D01*
X-81807Y258444D01*
X-81789Y258611D01*
X-81789Y259589D01*
X-65286Y259589D01*
X-65266Y259592D01*
X-65247Y259590D01*
X-65145Y259612D01*
X-65043Y259629D01*
X-65026Y259638D01*
X-65006Y259642D01*
X-64917Y259695D01*
X-64826Y259744D01*
X-64812Y259758D01*
X-64795Y259768D01*
X-64728Y259847D01*
X-64656Y259922D01*
X-64648Y259940D01*
X-64635Y259955D01*
X-64596Y260051D01*
X-64553Y260145D01*
X-64551Y260165D01*
X-64543Y260183D01*
X-64525Y260350D01*
X-64525Y261519D01*
X-63632Y262412D01*
X-54368Y262412D01*
X-53475Y261519D01*
X-53475Y260350D01*
X-53472Y260330D01*
X-53474Y260311D01*
X-53452Y260209D01*
X-53436Y260107D01*
X-53426Y260090D01*
X-53422Y260070D01*
X-53369Y259981D01*
X-53320Y259890D01*
X-53306Y259876D01*
X-53296Y259859D01*
X-53217Y259792D01*
X-53142Y259721D01*
X-53124Y259712D01*
X-53109Y259699D01*
X-53013Y259660D01*
X-52919Y259617D01*
X-52899Y259615D01*
X-52881Y259607D01*
X-52714Y259589D01*
X-52388Y259589D01*
X-52368Y259592D01*
X-52348Y259590D01*
X-52247Y259612D01*
X-52145Y259629D01*
X-52127Y259638D01*
X-52108Y259642D01*
X-52019Y259695D01*
X-51927Y259744D01*
X-51914Y259758D01*
X-51897Y259768D01*
X-51829Y259847D01*
X-51758Y259922D01*
X-51750Y259940D01*
X-51737Y259955D01*
X-51698Y260051D01*
X-51654Y260145D01*
X-51652Y260165D01*
X-51645Y260183D01*
X-51626Y260350D01*
X-51626Y273050D01*
X-51645Y273166D01*
X-51663Y273282D01*
X-51665Y273287D01*
X-51666Y273293D01*
X-51721Y273396D01*
X-51774Y273501D01*
X-51778Y273505D01*
X-51781Y273510D01*
X-51866Y273591D01*
X-51950Y273673D01*
X-51955Y273676D01*
X-51959Y273680D01*
X-52066Y273729D01*
X-52172Y273780D01*
X-52178Y273781D01*
X-52183Y273783D01*
X-52200Y273785D01*
X-52337Y273810D01*
X-52663Y273831D01*
X-52709Y273827D01*
X-52753Y273832D01*
X-52830Y273815D01*
X-52908Y273808D01*
X-52950Y273789D01*
X-52994Y273780D01*
X-53061Y273739D01*
X-53133Y273707D01*
X-53166Y273677D01*
X-53205Y273654D01*
X-53256Y273594D01*
X-53314Y273541D01*
X-53335Y273501D01*
X-53365Y273467D01*
X-53394Y273394D01*
X-53432Y273325D01*
X-53440Y273281D01*
X-53457Y273238D01*
X-53472Y273100D01*
X-53475Y273083D01*
X-53475Y273079D01*
X-53475Y273072D01*
X-53475Y272256D01*
X-54368Y271363D01*
X-57179Y271363D01*
X-57270Y271348D01*
X-57361Y271341D01*
X-57385Y271331D01*
X-60620Y271331D01*
X-60654Y271344D01*
X-60695Y271349D01*
X-60717Y271356D01*
X-60749Y271355D01*
X-60821Y271363D01*
X-63632Y271363D01*
X-64525Y272256D01*
X-64525Y273910D01*
X-64544Y274026D01*
X-64561Y274142D01*
X-64564Y274147D01*
X-64564Y274153D01*
X-64619Y274256D01*
X-64673Y274361D01*
X-64677Y274365D01*
X-64680Y274370D01*
X-64764Y274451D01*
X-64849Y274533D01*
X-64854Y274535D01*
X-64858Y274539D01*
X-64965Y274589D01*
X-65070Y274640D01*
X-65077Y274641D01*
X-65081Y274643D01*
X-65098Y274645D01*
X-65235Y274669D01*
X-67937Y274850D01*
X-67956Y274848D01*
X-67988Y274851D01*
X-70162Y274851D01*
X-70201Y274890D01*
X-70253Y274915D01*
X-70300Y274949D01*
X-70363Y274968D01*
X-70423Y274997D01*
X-70504Y275011D01*
X-70535Y275021D01*
X-70555Y275020D01*
X-70588Y275026D01*
X-99001Y276921D01*
X-99093Y276912D01*
X-99186Y276910D01*
X-99215Y276900D01*
X-99246Y276897D01*
X-99331Y276859D01*
X-99418Y276828D01*
X-99442Y276809D01*
X-99471Y276797D01*
X-99539Y276734D01*
X-99612Y276677D01*
X-99635Y276645D01*
X-99651Y276630D01*
X-99667Y276601D01*
X-99711Y276542D01*
X-114499Y250927D01*
X-114540Y250820D01*
X-114583Y250714D01*
X-114583Y250705D01*
X-114586Y250697D01*
X-114590Y250583D01*
X-114597Y250468D01*
X-114595Y250460D01*
X-114595Y250451D01*
X-114563Y250341D01*
X-114533Y250231D01*
X-114528Y250224D01*
X-114525Y250215D01*
X-114460Y250121D01*
X-114396Y250026D01*
X-114388Y250020D01*
X-114384Y250014D01*
X-114366Y250000D01*
X-114269Y249917D01*
X-112781Y248904D01*
X-112749Y248889D01*
X-112722Y248867D01*
X-112638Y248837D01*
X-112558Y248800D01*
X-112523Y248796D01*
X-112491Y248784D01*
X-112412Y248778D01*
X-111940Y248341D01*
X-111912Y248323D01*
X-111851Y248270D01*
X-111321Y247909D01*
X-111291Y247844D01*
X-111260Y247761D01*
X-111239Y247734D01*
X-111224Y247702D01*
X-111114Y247575D01*
X-109498Y246077D01*
X-109469Y246058D01*
X-109445Y246032D01*
X-109367Y245990D01*
X-109293Y245941D01*
X-109260Y245932D01*
X-109229Y245915D01*
X-109152Y245898D01*
X-108750Y245395D01*
X-108726Y245373D01*
X-108673Y245311D01*
X-108203Y244876D01*
X-108183Y244807D01*
X-108165Y244720D01*
X-108148Y244690D01*
X-108138Y244657D01*
X-108048Y244515D01*
X-106673Y242792D01*
X-106648Y242769D01*
X-106628Y242740D01*
X-106557Y242687D01*
X-106491Y242627D01*
X-106459Y242613D01*
X-106431Y242593D01*
X-106357Y242564D01*
X-106035Y242007D01*
X-106014Y241981D01*
X-105971Y241912D01*
X-105572Y241412D01*
X-105562Y241341D01*
X-105557Y241252D01*
X-105545Y241220D01*
X-105540Y241186D01*
X-105472Y241032D01*
X-104370Y239123D01*
X-104348Y239096D01*
X-104332Y239065D01*
X-104270Y239002D01*
X-104214Y238933D01*
X-104184Y238915D01*
X-104160Y238890D01*
X-104091Y238850D01*
X-103856Y238251D01*
X-103839Y238223D01*
X-103807Y238149D01*
X-103486Y237594D01*
X-103487Y237523D01*
X-103496Y237434D01*
X-103488Y237400D01*
X-103488Y237366D01*
X-103444Y237204D01*
X-102638Y235152D01*
X-102621Y235122D01*
X-102610Y235089D01*
X-102558Y235017D01*
X-102513Y234941D01*
X-102486Y234918D01*
X-102466Y234890D01*
X-102404Y234841D01*
X-102260Y234213D01*
X-102248Y234183D01*
X-102227Y234105D01*
X-101993Y233509D01*
X-102004Y233438D01*
X-102026Y233352D01*
X-102023Y233317D01*
X-102029Y233283D01*
X-102010Y233116D01*
X-101519Y230967D01*
X-101505Y230935D01*
X-101500Y230901D01*
X-101459Y230822D01*
X-101426Y230740D01*
X-101403Y230713D01*
X-101387Y230682D01*
X-101333Y230624D01*
X-101285Y229983D01*
X-101277Y229951D01*
X-101268Y229870D01*
X-101125Y229246D01*
X-101147Y229178D01*
X-101181Y229095D01*
X-101184Y229061D01*
X-101194Y229028D01*
X-101200Y228860D01*
X-101035Y226662D01*
X-101027Y226629D01*
X-101027Y226594D01*
X-100998Y226510D01*
X-100977Y226423D01*
X-100958Y226394D01*
X-100947Y226361D01*
X-100902Y226296D01*
X-100950Y225654D01*
X-100947Y225621D01*
X-100950Y225540D01*
X-100902Y224901D01*
X-100934Y224837D01*
X-100980Y224761D01*
X-100988Y224727D01*
X-101003Y224696D01*
X-101034Y224531D01*
X-101071Y224036D01*
X-101062Y223937D01*
X-101060Y223837D01*
X-101052Y223814D01*
X-101049Y223791D01*
X-101010Y223700D01*
X-100975Y223606D01*
X-100960Y223587D01*
X-100951Y223566D01*
X-100884Y223492D01*
X-100822Y223414D01*
X-100802Y223401D01*
X-100786Y223383D01*
X-100699Y223335D01*
X-100615Y223281D01*
X-100592Y223275D01*
X-100571Y223263D01*
X-100473Y223245D01*
X-100376Y223221D01*
X-100353Y223223D01*
X-100329Y223218D01*
X-100230Y223232D01*
X-100131Y223240D01*
X-100109Y223249D01*
X-100086Y223252D01*
X-99997Y223297D01*
X-99905Y223336D01*
X-99882Y223355D01*
X-99866Y223363D01*
X-99843Y223386D01*
X-99774Y223441D01*
X-99428Y223787D01*
X-95659Y223787D01*
X-92995Y221122D01*
X-92995Y217354D01*
X-95659Y214689D01*
X-99428Y214689D01*
X-100959Y216220D01*
X-101033Y216274D01*
X-101102Y216333D01*
X-101132Y216345D01*
X-101159Y216364D01*
X-101245Y216391D01*
X-101330Y216425D01*
X-101371Y216429D01*
X-101394Y216436D01*
X-101426Y216435D01*
X-101497Y216443D01*
X-101955Y216443D01*
X-101956Y216443D01*
X-101957Y216443D01*
X-102078Y216423D01*
X-102198Y216404D01*
X-102199Y216403D01*
X-102200Y216403D01*
X-102308Y216345D01*
X-102415Y216289D01*
X-102416Y216288D01*
X-102417Y216287D01*
X-102503Y216196D01*
X-102585Y216110D01*
X-102585Y216109D01*
X-102586Y216109D01*
X-102664Y215960D01*
X-103437Y213988D01*
X-103444Y213954D01*
X-103459Y213923D01*
X-103470Y213835D01*
X-103489Y213748D01*
X-103485Y213713D01*
X-103489Y213679D01*
X-103477Y213600D01*
X-103798Y213043D01*
X-103810Y213012D01*
X-103848Y212940D01*
X-104082Y212344D01*
X-104138Y212300D01*
X-104213Y212252D01*
X-104234Y212225D01*
X-104262Y212203D01*
X-104361Y212068D01*
X-105462Y210159D01*
X-105475Y210126D01*
X-105494Y210098D01*
X-105514Y210026D01*
X-105524Y210005D01*
X-105525Y209993D01*
X-105549Y209929D01*
X-105551Y209894D01*
X-105560Y209861D01*
X-105560Y209781D01*
X-105961Y209278D01*
X-105977Y209249D01*
X-106025Y209184D01*
X-106345Y208629D01*
X-106407Y208594D01*
X-106488Y208557D01*
X-106514Y208534D01*
X-106544Y208517D01*
X-106662Y208398D01*
X-108036Y206674D01*
X-108053Y206644D01*
X-108076Y206618D01*
X-108113Y206537D01*
X-108156Y206459D01*
X-108163Y206425D01*
X-108177Y206394D01*
X-108188Y206315D01*
X-108660Y205877D01*
X-108680Y205851D01*
X-108737Y205794D01*
X-109137Y205293D01*
X-109204Y205267D01*
X-109289Y205243D01*
X-109318Y205224D01*
X-109350Y205211D01*
X-109485Y205111D01*
X-111100Y203612D01*
X-111122Y203584D01*
X-111149Y203563D01*
X-111196Y203488D01*
X-111251Y203417D01*
X-111263Y203385D01*
X-111281Y203355D01*
X-111304Y203280D01*
X-111836Y202917D01*
X-111860Y202894D01*
X-111925Y202846D01*
X-112394Y202410D01*
X-112464Y202395D01*
X-112553Y202384D01*
X-112584Y202369D01*
X-112618Y202361D01*
X-112766Y202283D01*
X-114587Y201040D01*
X-114612Y201016D01*
X-114642Y200999D01*
X-114700Y200932D01*
X-114765Y200871D01*
X-114781Y200840D01*
X-114804Y200814D01*
X-114838Y200742D01*
X-115418Y200463D01*
X-115445Y200444D01*
X-115516Y200406D01*
X-116045Y200045D01*
X-116117Y200040D01*
X-116206Y200042D01*
X-116239Y200032D01*
X-116274Y200030D01*
X-116432Y199974D01*
X-118417Y199017D01*
X-118446Y198997D01*
X-118478Y198985D01*
X-118546Y198927D01*
X-118619Y198876D01*
X-118639Y198848D01*
X-118666Y198826D01*
X-118710Y198760D01*
X-119325Y198570D01*
X-119355Y198555D01*
X-119431Y198529D01*
X-120008Y198250D01*
X-120080Y198256D01*
X-120167Y198272D01*
X-120201Y198267D01*
X-120236Y198270D01*
X-120401Y198238D01*
X-122507Y197588D01*
X-122519Y197581D01*
X-122526Y197580D01*
X-122544Y197571D01*
X-122572Y197564D01*
X-122648Y197518D01*
X-122727Y197478D01*
X-122736Y197469D01*
X-122743Y197465D01*
X-122759Y197449D01*
X-122781Y197435D01*
X-122835Y197377D01*
X-123471Y197281D01*
X-123503Y197271D01*
X-123582Y197256D01*
X-124194Y197067D01*
X-124264Y197083D01*
X-124348Y197111D01*
X-124383Y197111D01*
X-124417Y197119D01*
X-124584Y197113D01*
X-126764Y196784D01*
X-126797Y196773D01*
X-126831Y196770D01*
X-126913Y196735D01*
X-126998Y196708D01*
X-127026Y196687D01*
X-127058Y196674D01*
X-127119Y196624D01*
X-127763Y196624D01*
X-127796Y196619D01*
X-127877Y196616D01*
X-128510Y196520D01*
X-128576Y196547D01*
X-128655Y196587D01*
X-128690Y196592D01*
X-128722Y196605D01*
X-128889Y196624D01*
X-131093Y196623D01*
X-131127Y196617D01*
X-131162Y196620D01*
X-131248Y196598D01*
X-131335Y196583D01*
X-131366Y196567D01*
X-131400Y196558D01*
X-131468Y196518D01*
X-132105Y196614D01*
X-132138Y196614D01*
X-132218Y196623D01*
X-132859Y196622D01*
X-132921Y196659D01*
X-132993Y196711D01*
X-133026Y196721D01*
X-133056Y196738D01*
X-133218Y196782D01*
X-135398Y197109D01*
X-135432Y197109D01*
X-135466Y197117D01*
X-135554Y197107D01*
X-135643Y197106D01*
X-135676Y197095D01*
X-135711Y197091D01*
X-135785Y197062D01*
X-136400Y197251D01*
X-136432Y197256D01*
X-136511Y197277D01*
X-137144Y197372D01*
X-137200Y197417D01*
X-137263Y197479D01*
X-137294Y197494D01*
X-137321Y197516D01*
X-137475Y197583D01*
X-139582Y198232D01*
X-139616Y198237D01*
X-139648Y198249D01*
X-139737Y198253D01*
X-139825Y198265D01*
X-139859Y198259D01*
X-139894Y198261D01*
X-139971Y198243D01*
X-140551Y198522D01*
X-140583Y198531D01*
X-140657Y198563D01*
X-141269Y198752D01*
X-141318Y198805D01*
X-141371Y198876D01*
X-141400Y198895D01*
X-141423Y198921D01*
X-141566Y199010D01*
X-143204Y199798D01*
X-143313Y199830D01*
X-143423Y199865D01*
X-143432Y199865D01*
X-143440Y199868D01*
X-143554Y199863D01*
X-143669Y199862D01*
X-143677Y199859D01*
X-143686Y199858D01*
X-143793Y199818D01*
X-143901Y199780D01*
X-143908Y199774D01*
X-143916Y199771D01*
X-144005Y199698D01*
X-144094Y199628D01*
X-144101Y199619D01*
X-144106Y199615D01*
X-144118Y199595D01*
X-144194Y199493D01*
X-162079Y168514D01*
X-162908Y167078D01*
X-163516Y167498D01*
X-163543Y167510D01*
X-163565Y167528D01*
X-163634Y167549D01*
X-163699Y167576D01*
X-163728Y167577D01*
X-163756Y167585D01*
X-163827Y167577D01*
X-163898Y167577D01*
X-163925Y167566D01*
X-163954Y167563D01*
X-164016Y167528D01*
X-164081Y167500D01*
X-164102Y167479D01*
X-164127Y167465D01*
X-164190Y167388D01*
X-164220Y167357D01*
X-164224Y167347D01*
X-164233Y167337D01*
X-173733Y150837D01*
X-173757Y150764D01*
X-173788Y150693D01*
X-173788Y150670D01*
X-173796Y150648D01*
X-173790Y150571D01*
X-173791Y150494D01*
X-173781Y150470D01*
X-173780Y150450D01*
X-173759Y150410D01*
X-173740Y150358D01*
X-173739Y150353D01*
X-173737Y150351D01*
X-173733Y150338D01*
X-164233Y133838D01*
X-164214Y133817D01*
X-164201Y133790D01*
X-164148Y133743D01*
X-164101Y133689D01*
X-164075Y133677D01*
X-164054Y133657D01*
X-163986Y133634D01*
X-163922Y133603D01*
X-163893Y133602D01*
X-163866Y133593D01*
X-163794Y133597D01*
X-163723Y133594D01*
X-163696Y133604D01*
X-163667Y133606D01*
X-163577Y133649D01*
X-163537Y133663D01*
X-163529Y133671D01*
X-163516Y133677D01*
X-162908Y134097D01*
X-144194Y101682D01*
X-144121Y101593D01*
X-144051Y101503D01*
X-144044Y101499D01*
X-144038Y101492D01*
X-143941Y101431D01*
X-143846Y101368D01*
X-143837Y101366D01*
X-143830Y101361D01*
X-143718Y101334D01*
X-143608Y101305D01*
X-143599Y101306D01*
X-143590Y101303D01*
X-143477Y101314D01*
X-143363Y101321D01*
X-143353Y101325D01*
X-143345Y101325D01*
X-143324Y101335D01*
X-143204Y101377D01*
X-141566Y102165D01*
X-141537Y102185D01*
X-141505Y102198D01*
X-141437Y102255D01*
X-141364Y102306D01*
X-141344Y102334D01*
X-141317Y102357D01*
X-141272Y102422D01*
X-140657Y102612D01*
X-140628Y102626D01*
X-140617Y102628D01*
X-140605Y102634D01*
X-140551Y102653D01*
X-139974Y102931D01*
X-139903Y102925D01*
X-139815Y102909D01*
X-139781Y102915D01*
X-139747Y102912D01*
X-139582Y102943D01*
X-137475Y103592D01*
X-137444Y103608D01*
X-137410Y103615D01*
X-137335Y103662D01*
X-137255Y103702D01*
X-137230Y103726D01*
X-137201Y103744D01*
X-137147Y103803D01*
X-136511Y103898D01*
X-136479Y103908D01*
X-136400Y103924D01*
X-135788Y104112D01*
X-135718Y104096D01*
X-135634Y104067D01*
X-135599Y104067D01*
X-135565Y104059D01*
X-135398Y104066D01*
X-133218Y104393D01*
X-133185Y104404D01*
X-133150Y104407D01*
X-133068Y104442D01*
X-132984Y104469D01*
X-132956Y104489D01*
X-132924Y104503D01*
X-132862Y104553D01*
X-132218Y104552D01*
X-132186Y104558D01*
X-132105Y104561D01*
X-131472Y104656D01*
X-131405Y104629D01*
X-131326Y104589D01*
X-131292Y104584D01*
X-131259Y104571D01*
X-131093Y104552D01*
X-128889Y104551D01*
X-128854Y104557D01*
X-128820Y104554D01*
X-128734Y104577D01*
X-128646Y104591D01*
X-128615Y104607D01*
X-128582Y104616D01*
X-128513Y104656D01*
X-127877Y104559D01*
X-127844Y104560D01*
X-127763Y104551D01*
X-127123Y104551D01*
X-127061Y104514D01*
X-126989Y104462D01*
X-126956Y104452D01*
X-126926Y104435D01*
X-126764Y104391D01*
X-124584Y104062D01*
X-124549Y104063D01*
X-124516Y104055D01*
X-124427Y104064D01*
X-124338Y104065D01*
X-124306Y104077D01*
X-124271Y104080D01*
X-124197Y104109D01*
X-123582Y103919D01*
X-123550Y103915D01*
X-123471Y103894D01*
X-122838Y103798D01*
X-122783Y103753D01*
X-122719Y103691D01*
X-122688Y103676D01*
X-122661Y103654D01*
X-122507Y103587D01*
X-120401Y102937D01*
X-120366Y102932D01*
X-120334Y102920D01*
X-120245Y102915D01*
X-120157Y102903D01*
X-120123Y102910D01*
X-120088Y102908D01*
X-120011Y102926D01*
X-119431Y102646D01*
X-119400Y102637D01*
X-119325Y102605D01*
X-118713Y102416D01*
X-118665Y102363D01*
X-118611Y102292D01*
X-118583Y102272D01*
X-118559Y102247D01*
X-118417Y102158D01*
X-116432Y101201D01*
X-116399Y101191D01*
X-116368Y101174D01*
X-116281Y101156D01*
X-116196Y101131D01*
X-116161Y101133D01*
X-116127Y101126D01*
X-116048Y101132D01*
X-115516Y100769D01*
X-115486Y100755D01*
X-115418Y100712D01*
X-114841Y100434D01*
X-114801Y100374D01*
X-114759Y100296D01*
X-114733Y100273D01*
X-114714Y100244D01*
X-114587Y100135D01*
X-112766Y98892D01*
X-112734Y98878D01*
X-112707Y98856D01*
X-112624Y98826D01*
X-112543Y98789D01*
X-112508Y98785D01*
X-112476Y98773D01*
X-112397Y98767D01*
X-111925Y98329D01*
X-111898Y98311D01*
X-111836Y98258D01*
X-111307Y97897D01*
X-111277Y97832D01*
X-111246Y97749D01*
X-111225Y97722D01*
X-111210Y97690D01*
X-111100Y97563D01*
X-109485Y96064D01*
X-109456Y96044D01*
X-109432Y96019D01*
X-109354Y95977D01*
X-109280Y95928D01*
X-109247Y95919D01*
X-109216Y95902D01*
X-109139Y95885D01*
X-108737Y95381D01*
X-108713Y95359D01*
X-108660Y95298D01*
X-108191Y94862D01*
X-108170Y94793D01*
X-108153Y94706D01*
X-108150Y94701D01*
X-108149Y94696D01*
X-108134Y94672D01*
X-108125Y94643D01*
X-108036Y94501D01*
X-106662Y92777D01*
X-106637Y92754D01*
X-106617Y92725D01*
X-106546Y92672D01*
X-106480Y92612D01*
X-106448Y92598D01*
X-106420Y92577D01*
X-106346Y92549D01*
X-106025Y91991D01*
X-106004Y91966D01*
X-105961Y91897D01*
X-105562Y91396D01*
X-105552Y91325D01*
X-105547Y91236D01*
X-105535Y91204D01*
X-105530Y91170D01*
X-105462Y91016D01*
X-104361Y89107D01*
X-104339Y89080D01*
X-104324Y89049D01*
X-104261Y88985D01*
X-104205Y88917D01*
X-104176Y88898D01*
X-104152Y88873D01*
X-104083Y88834D01*
X-103848Y88235D01*
X-103831Y88206D01*
X-103798Y88132D01*
X-103478Y87577D01*
X-103479Y87506D01*
X-103488Y87417D01*
X-103480Y87383D01*
X-103481Y87349D01*
X-103437Y87187D01*
X-102632Y85135D01*
X-102615Y85105D01*
X-102604Y85072D01*
X-102552Y85000D01*
X-102507Y84923D01*
X-102480Y84900D01*
X-102460Y84872D01*
X-102398Y84823D01*
X-102255Y84196D01*
X-102243Y84165D01*
X-102221Y84087D01*
X-101988Y83491D01*
X-101999Y83420D01*
X-102021Y83334D01*
X-102018Y83299D01*
X-102024Y83265D01*
X-102005Y83098D01*
X-101515Y80949D01*
X-101502Y80917D01*
X-101497Y80883D01*
X-101456Y80804D01*
X-101422Y80721D01*
X-101400Y80695D01*
X-101384Y80664D01*
X-101330Y80606D01*
X-101282Y79964D01*
X-101274Y79932D01*
X-101265Y79852D01*
X-101123Y79227D01*
X-101144Y79159D01*
X-101179Y79077D01*
X-101182Y79042D01*
X-101192Y79009D01*
X-101198Y78842D01*
X-101034Y76644D01*
X-101026Y76610D01*
X-101026Y76575D01*
X-100998Y76493D01*
X-100983Y76426D01*
X-100980Y76421D01*
X-100976Y76405D01*
X-100958Y76375D01*
X-100947Y76342D01*
X-100902Y76277D01*
X-100950Y75635D01*
X-100947Y75602D01*
X-100950Y75521D01*
X-100903Y74883D01*
X-100934Y74818D01*
X-100981Y74742D01*
X-100989Y74709D01*
X-101004Y74678D01*
X-101035Y74513D01*
X-101200Y72315D01*
X-101197Y72280D01*
X-101202Y72246D01*
X-101187Y72158D01*
X-101179Y72070D01*
X-101165Y72038D01*
X-101159Y72004D01*
X-101124Y71932D01*
X-101268Y71305D01*
X-101270Y71272D01*
X-101285Y71192D01*
X-101333Y70554D01*
X-101374Y70495D01*
X-101431Y70427D01*
X-101444Y70395D01*
X-101463Y70366D01*
X-101519Y70208D01*
X-102010Y68059D01*
X-102012Y68024D01*
X-102022Y67991D01*
X-102019Y67902D01*
X-102025Y67813D01*
X-102016Y67780D01*
X-102015Y67745D01*
X-101992Y67669D01*
X-102227Y67070D01*
X-102234Y67038D01*
X-102234Y67037D01*
X-102245Y67015D01*
X-102246Y67004D01*
X-102260Y66962D01*
X-102403Y66337D01*
X-102452Y66285D01*
X-102519Y66226D01*
X-102536Y66196D01*
X-102560Y66171D01*
X-102638Y66023D01*
X-103444Y63971D01*
X-103452Y63937D01*
X-103467Y63906D01*
X-103477Y63818D01*
X-103496Y63731D01*
X-103492Y63696D01*
X-103496Y63662D01*
X-103485Y63583D01*
X-103807Y63026D01*
X-103818Y62995D01*
X-103856Y62924D01*
X-104090Y62328D01*
X-104147Y62283D01*
X-104221Y62235D01*
X-104243Y62208D01*
X-104270Y62187D01*
X-104370Y62052D01*
X-105472Y60143D01*
X-105485Y60111D01*
X-105504Y60082D01*
X-105528Y59996D01*
X-105559Y59913D01*
X-105561Y59878D01*
X-105570Y59845D01*
X-105570Y59766D01*
X-105971Y59263D01*
X-105987Y59234D01*
X-106035Y59168D01*
X-106150Y58970D01*
X-106191Y58862D01*
X-106234Y58756D01*
X-106235Y58746D01*
X-106237Y58740D01*
X-106238Y58717D01*
X-106252Y58589D01*
X-106252Y55027D01*
X-106238Y54937D01*
X-106230Y54846D01*
X-106218Y54816D01*
X-106213Y54784D01*
X-106170Y54704D01*
X-106134Y54620D01*
X-106108Y54588D01*
X-106098Y54567D01*
X-106074Y54545D01*
X-106029Y54489D01*
X-104498Y52958D01*
X-104498Y49189D01*
X-107163Y46525D01*
X-111031Y46525D01*
X-111125Y46509D01*
X-111220Y46501D01*
X-111246Y46490D01*
X-111274Y46485D01*
X-111358Y46440D01*
X-111445Y46402D01*
X-111466Y46383D01*
X-111491Y46370D01*
X-111557Y46301D01*
X-111627Y46237D01*
X-111641Y46212D01*
X-111661Y46192D01*
X-111701Y46105D01*
X-111747Y46022D01*
X-111752Y45994D01*
X-111764Y45969D01*
X-111775Y45874D01*
X-111792Y45780D01*
X-111788Y45752D01*
X-111791Y45724D01*
X-111771Y45631D01*
X-111758Y45537D01*
X-111744Y45504D01*
X-111739Y45484D01*
X-111722Y45455D01*
X-111690Y45383D01*
X-95786Y17835D01*
X-96414Y17539D01*
X-96436Y17522D01*
X-96463Y17512D01*
X-96515Y17463D01*
X-96573Y17420D01*
X-96587Y17395D01*
X-96608Y17375D01*
X-96637Y17310D01*
X-96673Y17248D01*
X-96676Y17220D01*
X-96688Y17193D01*
X-96689Y17121D01*
X-96698Y17051D01*
X-96690Y17023D01*
X-96691Y16994D01*
X-96655Y16900D01*
X-96644Y16859D01*
X-96637Y16851D01*
X-96633Y16838D01*
X-87133Y338D01*
X-87081Y280D01*
X-87035Y217D01*
X-87016Y206D01*
X-87001Y189D01*
X-86931Y156D01*
X-86864Y116D01*
X-86840Y112D01*
X-86822Y103D01*
X-86777Y101D01*
X-86700Y88D01*
X-67700Y88D01*
X-67672Y94D01*
G37*
G36*
X55709Y22927D02*
X55709Y22927D01*
X55729Y22925D01*
X55830Y22947D01*
X55932Y22964D01*
X55950Y22973D01*
X55969Y22978D01*
X56058Y23031D01*
X56150Y23079D01*
X56163Y23093D01*
X56180Y23104D01*
X56248Y23182D01*
X56319Y23257D01*
X56327Y23275D01*
X56340Y23291D01*
X56379Y23387D01*
X56423Y23480D01*
X56425Y23500D01*
X56432Y23519D01*
X56451Y23685D01*
X56451Y34184D01*
X56432Y34300D01*
X56414Y34419D01*
X56412Y34423D01*
X56411Y34427D01*
X56356Y34531D01*
X56301Y34638D01*
X56298Y34640D01*
X56296Y34644D01*
X56210Y34726D01*
X56124Y34809D01*
X56121Y34811D01*
X56118Y34813D01*
X56009Y34864D01*
X55902Y34915D01*
X55898Y34915D01*
X55895Y34917D01*
X55776Y34930D01*
X55658Y34945D01*
X55653Y34944D01*
X55650Y34944D01*
X55637Y34941D01*
X55492Y34919D01*
X55222Y34847D01*
X53637Y34847D01*
X53637Y40138D01*
X55690Y40138D01*
X55709Y40141D01*
X55729Y40139D01*
X55830Y40161D01*
X55932Y40178D01*
X55950Y40187D01*
X55969Y40191D01*
X56058Y40245D01*
X56150Y40293D01*
X56163Y40307D01*
X56180Y40318D01*
X56248Y40396D01*
X56319Y40471D01*
X56327Y40489D01*
X56340Y40505D01*
X56354Y40538D01*
X57153Y41337D01*
X57195Y41395D01*
X57245Y41447D01*
X57266Y41495D01*
X57297Y41537D01*
X57318Y41605D01*
X57348Y41671D01*
X57354Y41722D01*
X57369Y41772D01*
X57367Y41844D01*
X57375Y41915D01*
X57364Y41966D01*
X57363Y42018D01*
X57338Y42085D01*
X57323Y42155D01*
X57296Y42200D01*
X57278Y42249D01*
X57234Y42305D01*
X57197Y42366D01*
X57157Y42400D01*
X57125Y42441D01*
X57064Y42480D01*
X57010Y42526D01*
X56962Y42546D01*
X56918Y42574D01*
X56848Y42591D01*
X56782Y42618D01*
X56710Y42626D01*
X56679Y42634D01*
X56656Y42632D01*
X56615Y42637D01*
X53637Y42637D01*
X53637Y47928D01*
X55222Y47928D01*
X55868Y47755D01*
X56448Y47421D01*
X56921Y46948D01*
X57255Y46368D01*
X57428Y45722D01*
X57428Y42735D01*
X57431Y42716D01*
X57429Y42696D01*
X57451Y42595D01*
X57468Y42493D01*
X57477Y42475D01*
X57482Y42456D01*
X57535Y42366D01*
X57583Y42275D01*
X57597Y42262D01*
X57608Y42245D01*
X57686Y42177D01*
X57761Y42106D01*
X57779Y42098D01*
X57795Y42085D01*
X57891Y42046D01*
X57984Y42002D01*
X58004Y42000D01*
X58023Y41993D01*
X58189Y41974D01*
X68811Y41974D01*
X68830Y41977D01*
X68850Y41975D01*
X68951Y41997D01*
X69053Y42014D01*
X69071Y42023D01*
X69090Y42028D01*
X69179Y42081D01*
X69271Y42129D01*
X69284Y42143D01*
X69301Y42154D01*
X69369Y42232D01*
X69440Y42307D01*
X69448Y42325D01*
X69461Y42341D01*
X69500Y42437D01*
X69544Y42530D01*
X69546Y42550D01*
X69553Y42569D01*
X69572Y42735D01*
X69572Y45722D01*
X69745Y46368D01*
X70079Y46948D01*
X70552Y47421D01*
X71132Y47755D01*
X71778Y47928D01*
X73363Y47928D01*
X73363Y42735D01*
X73366Y42716D01*
X73364Y42696D01*
X73386Y42595D01*
X73403Y42493D01*
X73412Y42475D01*
X73416Y42456D01*
X73470Y42366D01*
X73518Y42275D01*
X73532Y42262D01*
X73543Y42245D01*
X73621Y42177D01*
X73696Y42106D01*
X73714Y42098D01*
X73730Y42085D01*
X73826Y42046D01*
X73919Y42002D01*
X73939Y42000D01*
X73958Y41993D01*
X74124Y41974D01*
X75101Y41974D01*
X75120Y41977D01*
X75140Y41975D01*
X75241Y41997D01*
X75343Y42014D01*
X75361Y42023D01*
X75380Y42028D01*
X75469Y42081D01*
X75561Y42129D01*
X75574Y42143D01*
X75591Y42154D01*
X75659Y42232D01*
X75730Y42307D01*
X75738Y42325D01*
X75751Y42341D01*
X75790Y42437D01*
X75834Y42530D01*
X75836Y42550D01*
X75843Y42569D01*
X75862Y42735D01*
X75862Y47928D01*
X77447Y47928D01*
X78093Y47755D01*
X78673Y47421D01*
X79146Y46948D01*
X79480Y46368D01*
X79653Y45722D01*
X79653Y42735D01*
X79656Y42716D01*
X79654Y42696D01*
X79676Y42595D01*
X79693Y42493D01*
X79702Y42475D01*
X79707Y42456D01*
X79760Y42366D01*
X79808Y42275D01*
X79822Y42262D01*
X79833Y42245D01*
X79911Y42177D01*
X79986Y42106D01*
X80004Y42098D01*
X80020Y42085D01*
X80116Y42046D01*
X80209Y42002D01*
X80229Y42000D01*
X80248Y41993D01*
X80414Y41974D01*
X84265Y41974D01*
X84284Y41977D01*
X84304Y41975D01*
X84405Y41997D01*
X84507Y42014D01*
X84525Y42023D01*
X84544Y42028D01*
X84633Y42081D01*
X84725Y42129D01*
X84738Y42143D01*
X84755Y42154D01*
X84823Y42232D01*
X84894Y42307D01*
X84902Y42325D01*
X84915Y42341D01*
X84954Y42437D01*
X84998Y42530D01*
X85000Y42550D01*
X85007Y42569D01*
X85026Y42735D01*
X85026Y72584D01*
X85015Y72650D01*
X85014Y72717D01*
X84995Y72771D01*
X84986Y72826D01*
X84966Y72865D01*
X85024Y73783D01*
X85022Y73801D01*
X85026Y73831D01*
X85026Y74739D01*
X85045Y74802D01*
X85074Y74862D01*
X85088Y74941D01*
X85098Y74972D01*
X85097Y74993D01*
X85103Y75028D01*
X85328Y78562D01*
X85324Y78605D01*
X85329Y78648D01*
X85312Y78727D01*
X85304Y78807D01*
X85286Y78847D01*
X85277Y78889D01*
X85248Y78943D01*
X85394Y79699D01*
X85395Y79730D01*
X85406Y79795D01*
X85415Y79938D01*
X85406Y80033D01*
X85403Y80128D01*
X85394Y80155D01*
X85391Y80182D01*
X85352Y80270D01*
X85319Y80359D01*
X85302Y80381D01*
X85290Y80407D01*
X85225Y80477D01*
X85165Y80551D01*
X85142Y80567D01*
X85123Y80587D01*
X85039Y80633D01*
X84958Y80684D01*
X84931Y80691D01*
X84907Y80705D01*
X84813Y80721D01*
X84720Y80744D01*
X84692Y80742D01*
X84665Y80747D01*
X84570Y80733D01*
X84475Y80725D01*
X84449Y80714D01*
X84421Y80710D01*
X84336Y80666D01*
X84248Y80629D01*
X84221Y80607D01*
X84203Y80598D01*
X84180Y80574D01*
X84117Y80524D01*
X83379Y79786D01*
X82948Y79355D01*
X82895Y79281D01*
X82835Y79211D01*
X82823Y79181D01*
X82804Y79155D01*
X82777Y79068D01*
X82743Y78983D01*
X82739Y78942D01*
X82732Y78920D01*
X82733Y78888D01*
X82725Y78816D01*
X82725Y69033D01*
X80367Y66675D01*
X79398Y66675D01*
X79379Y66672D01*
X79359Y66674D01*
X79258Y66652D01*
X79156Y66636D01*
X79138Y66626D01*
X79119Y66622D01*
X79030Y66569D01*
X78938Y66520D01*
X78925Y66506D01*
X78908Y66496D01*
X78840Y66417D01*
X78769Y66342D01*
X78761Y66324D01*
X78748Y66309D01*
X78709Y66213D01*
X78665Y66119D01*
X78663Y66099D01*
X78656Y66081D01*
X78637Y65914D01*
X78637Y58756D01*
X77744Y57863D01*
X71481Y57863D01*
X70588Y58756D01*
X70588Y67805D01*
X70573Y67895D01*
X70566Y67986D01*
X70553Y68016D01*
X70548Y68048D01*
X70505Y68129D01*
X70470Y68212D01*
X70444Y68245D01*
X70433Y68265D01*
X70410Y68287D01*
X70365Y68343D01*
X69675Y69033D01*
X69675Y83367D01*
X72033Y85725D01*
X75431Y85725D01*
X75502Y85736D01*
X75574Y85738D01*
X75623Y85756D01*
X75674Y85764D01*
X75737Y85798D01*
X75805Y85823D01*
X75845Y85855D01*
X75891Y85880D01*
X75941Y85931D01*
X75997Y85976D01*
X76025Y86020D01*
X76061Y86058D01*
X76091Y86123D01*
X76130Y86183D01*
X76142Y86234D01*
X76164Y86281D01*
X76172Y86352D01*
X76190Y86422D01*
X76186Y86474D01*
X76191Y86525D01*
X76176Y86596D01*
X76171Y86667D01*
X76150Y86715D01*
X76139Y86766D01*
X76102Y86827D01*
X76074Y86893D01*
X76029Y86949D01*
X76013Y86977D01*
X75995Y86992D01*
X75969Y87024D01*
X75525Y87468D01*
X75525Y98732D01*
X76418Y99625D01*
X88682Y99625D01*
X89575Y98732D01*
X89575Y97181D01*
X89580Y97152D01*
X89577Y97122D01*
X89599Y97031D01*
X89614Y96938D01*
X89628Y96912D01*
X89636Y96883D01*
X89686Y96804D01*
X89730Y96721D01*
X89751Y96700D01*
X89767Y96675D01*
X89840Y96616D01*
X89908Y96552D01*
X89935Y96539D01*
X89958Y96520D01*
X90046Y96487D01*
X90131Y96448D01*
X90161Y96445D01*
X90189Y96434D01*
X90282Y96431D01*
X90375Y96421D01*
X90405Y96427D01*
X90435Y96426D01*
X90524Y96453D01*
X90616Y96473D01*
X90641Y96489D01*
X90670Y96497D01*
X90747Y96551D01*
X90752Y96554D01*
X90763Y96560D01*
X90769Y96565D01*
X90827Y96599D01*
X90846Y96622D01*
X90871Y96639D01*
X90931Y96714D01*
X90944Y96726D01*
X90955Y96744D01*
X90976Y96770D01*
X90986Y96784D01*
X90987Y96786D01*
X90988Y96790D01*
X90998Y96813D01*
X91033Y96869D01*
X91363Y97562D01*
X91413Y97597D01*
X91483Y97636D01*
X91513Y97668D01*
X91548Y97693D01*
X91641Y97808D01*
X91650Y97817D01*
X91651Y97820D01*
X91654Y97823D01*
X93627Y100895D01*
X93644Y100934D01*
X93670Y100970D01*
X93693Y101047D01*
X93725Y101120D01*
X93729Y101164D01*
X93741Y101205D01*
X93743Y101266D01*
X94238Y101856D01*
X94254Y101883D01*
X94295Y101934D01*
X94710Y102580D01*
X94764Y102608D01*
X94839Y102638D01*
X94872Y102666D01*
X94910Y102686D01*
X95018Y102789D01*
X95027Y102797D01*
X95028Y102799D01*
X95032Y102802D01*
X97378Y105599D01*
X97400Y105636D01*
X97430Y105668D01*
X97463Y105741D01*
X97504Y105811D01*
X97513Y105853D01*
X97531Y105892D01*
X97540Y105953D01*
X98105Y106475D01*
X98125Y106500D01*
X98172Y106545D01*
X98666Y107133D01*
X98723Y107155D01*
X98801Y107175D01*
X98837Y107199D01*
X98878Y107214D01*
X98997Y107302D01*
X99007Y107309D01*
X99009Y107311D01*
X99013Y107313D01*
X101614Y109717D01*
X101656Y109770D01*
X101704Y109816D01*
X101731Y109866D01*
X101766Y109910D01*
X101780Y109951D01*
X102494Y110531D01*
X102506Y110545D01*
X102530Y110563D01*
X103197Y111179D01*
X103257Y111207D01*
X103321Y111227D01*
X103388Y111270D01*
X103418Y111285D01*
X103433Y111299D01*
X103462Y111318D01*
X110145Y116747D01*
X110149Y116753D01*
X110155Y116756D01*
X110231Y116845D01*
X110308Y116931D01*
X110311Y116938D01*
X110315Y116943D01*
X110359Y117052D01*
X110404Y117158D01*
X110405Y117165D01*
X110407Y117172D01*
X110426Y117338D01*
X110426Y120010D01*
X160387Y169971D01*
X160412Y170006D01*
X160445Y170036D01*
X160484Y170106D01*
X160530Y170170D01*
X160543Y170212D01*
X160564Y170250D01*
X160579Y170329D01*
X160602Y170405D01*
X160601Y170449D01*
X160609Y170492D01*
X160598Y170571D01*
X160596Y170651D01*
X160581Y170692D01*
X160575Y170736D01*
X160516Y170869D01*
X160512Y170882D01*
X160510Y170885D01*
X160508Y170889D01*
X143994Y199493D01*
X143921Y199582D01*
X143851Y199672D01*
X143844Y199676D01*
X143838Y199683D01*
X143741Y199744D01*
X143646Y199807D01*
X143637Y199809D01*
X143630Y199814D01*
X143518Y199841D01*
X143408Y199870D01*
X143399Y199869D01*
X143390Y199872D01*
X143277Y199861D01*
X143163Y199854D01*
X143153Y199850D01*
X143145Y199850D01*
X143124Y199840D01*
X143004Y199798D01*
X141366Y199010D01*
X141337Y198990D01*
X141305Y198977D01*
X141237Y198920D01*
X141164Y198869D01*
X141144Y198841D01*
X141117Y198818D01*
X141072Y198753D01*
X140457Y198563D01*
X140428Y198549D01*
X140351Y198522D01*
X139774Y198244D01*
X139703Y198250D01*
X139615Y198266D01*
X139581Y198260D01*
X139547Y198263D01*
X139382Y198232D01*
X137275Y197583D01*
X137244Y197567D01*
X137210Y197560D01*
X137135Y197513D01*
X137055Y197473D01*
X137030Y197449D01*
X137001Y197431D01*
X136947Y197372D01*
X136311Y197277D01*
X136279Y197267D01*
X136200Y197251D01*
X135588Y197063D01*
X135518Y197079D01*
X135434Y197108D01*
X135399Y197108D01*
X135365Y197116D01*
X135198Y197109D01*
X133018Y196782D01*
X132985Y196771D01*
X132950Y196768D01*
X132868Y196733D01*
X132784Y196706D01*
X132756Y196686D01*
X132724Y196672D01*
X132662Y196622D01*
X132018Y196623D01*
X131986Y196617D01*
X131905Y196614D01*
X131272Y196519D01*
X131205Y196546D01*
X131126Y196586D01*
X131092Y196591D01*
X131059Y196604D01*
X130893Y196623D01*
X128689Y196624D01*
X128654Y196618D01*
X128620Y196621D01*
X128534Y196598D01*
X128446Y196584D01*
X128415Y196568D01*
X128382Y196559D01*
X128313Y196519D01*
X127677Y196616D01*
X127644Y196615D01*
X127563Y196624D01*
X126923Y196624D01*
X126861Y196661D01*
X126789Y196713D01*
X126756Y196723D01*
X126726Y196740D01*
X126564Y196784D01*
X124384Y197113D01*
X124349Y197112D01*
X124316Y197120D01*
X124227Y197111D01*
X124138Y197110D01*
X124106Y197098D01*
X124071Y197095D01*
X123997Y197066D01*
X123382Y197256D01*
X123350Y197260D01*
X123271Y197281D01*
X122638Y197377D01*
X122582Y197422D01*
X122519Y197484D01*
X122488Y197499D01*
X122461Y197521D01*
X122307Y197588D01*
X121824Y197737D01*
X121763Y197745D01*
X121703Y197763D01*
X121642Y197762D01*
X121581Y197770D01*
X121520Y197759D01*
X121457Y197757D01*
X121400Y197736D01*
X121339Y197724D01*
X121285Y197694D01*
X121226Y197673D01*
X121178Y197634D01*
X121125Y197604D01*
X121083Y197558D01*
X121034Y197519D01*
X121001Y197467D01*
X120960Y197421D01*
X120935Y197364D01*
X120901Y197312D01*
X120886Y197252D01*
X120862Y197196D01*
X120856Y197134D01*
X120841Y197073D01*
X120846Y197012D01*
X120841Y196951D01*
X120856Y196890D01*
X120860Y196828D01*
X120885Y196772D01*
X120899Y196712D01*
X120932Y196659D01*
X120957Y196602D01*
X121011Y196534D01*
X121011Y192753D01*
X118346Y190089D01*
X114578Y190089D01*
X111913Y192753D01*
X111913Y196522D01*
X113444Y198053D01*
X113497Y198127D01*
X113557Y198196D01*
X113569Y198226D01*
X113588Y198253D01*
X113615Y198340D01*
X113649Y198424D01*
X113653Y198465D01*
X113660Y198488D01*
X113659Y198520D01*
X113667Y198591D01*
X113667Y201129D01*
X113661Y201167D01*
X113663Y201207D01*
X113641Y201288D01*
X113628Y201372D01*
X113609Y201406D01*
X113599Y201444D01*
X113552Y201514D01*
X113512Y201589D01*
X113484Y201616D01*
X113462Y201648D01*
X113335Y201758D01*
X113334Y201758D01*
X112566Y202282D01*
X112534Y202297D01*
X112507Y202319D01*
X112423Y202349D01*
X112343Y202386D01*
X112308Y202390D01*
X112276Y202402D01*
X112197Y202408D01*
X111725Y202846D01*
X111698Y202864D01*
X111636Y202917D01*
X111107Y203278D01*
X111077Y203343D01*
X111046Y203426D01*
X111025Y203453D01*
X111010Y203485D01*
X110900Y203612D01*
X109285Y205111D01*
X109256Y205131D01*
X109232Y205156D01*
X109154Y205198D01*
X109080Y205247D01*
X109047Y205256D01*
X109016Y205273D01*
X108939Y205290D01*
X108537Y205794D01*
X108513Y205816D01*
X108460Y205877D01*
X107991Y206313D01*
X107970Y206382D01*
X107953Y206469D01*
X107935Y206499D01*
X107925Y206532D01*
X107836Y206674D01*
X106462Y208398D01*
X106437Y208421D01*
X106417Y208450D01*
X106346Y208503D01*
X106280Y208563D01*
X106248Y208577D01*
X106220Y208598D01*
X106146Y208626D01*
X105825Y209184D01*
X105804Y209209D01*
X105761Y209278D01*
X105362Y209779D01*
X105352Y209850D01*
X105347Y209939D01*
X105335Y209971D01*
X105330Y210005D01*
X105262Y210159D01*
X104161Y212068D01*
X104139Y212095D01*
X104124Y212126D01*
X104061Y212190D01*
X104005Y212258D01*
X103976Y212277D01*
X103952Y212302D01*
X103883Y212341D01*
X103648Y212940D01*
X103631Y212969D01*
X103598Y213043D01*
X103278Y213598D01*
X103279Y213669D01*
X103288Y213758D01*
X103280Y213792D01*
X103281Y213826D01*
X103237Y213988D01*
X102432Y216040D01*
X102415Y216070D01*
X102404Y216103D01*
X102352Y216175D01*
X102307Y216252D01*
X102280Y216275D01*
X102260Y216303D01*
X102198Y216352D01*
X102055Y216979D01*
X102043Y217010D01*
X102021Y217088D01*
X101788Y217684D01*
X101799Y217755D01*
X101821Y217841D01*
X101818Y217876D01*
X101824Y217910D01*
X101805Y218077D01*
X101315Y220226D01*
X101302Y220258D01*
X101297Y220292D01*
X101256Y220371D01*
X101222Y220454D01*
X101200Y220480D01*
X101184Y220511D01*
X101130Y220569D01*
X101082Y221211D01*
X101074Y221243D01*
X101065Y221323D01*
X100923Y221948D01*
X100944Y222016D01*
X100979Y222098D01*
X100982Y222133D01*
X100992Y222166D01*
X100998Y222333D01*
X100834Y224531D01*
X100826Y224565D01*
X100826Y224600D01*
X100797Y224684D01*
X100776Y224770D01*
X100758Y224800D01*
X100747Y224833D01*
X100702Y224898D01*
X100750Y225540D01*
X100747Y225573D01*
X100750Y225654D01*
X100703Y226292D01*
X100734Y226357D01*
X100781Y226433D01*
X100789Y226466D01*
X100804Y226497D01*
X100835Y226662D01*
X101000Y228860D01*
X100997Y228895D01*
X101002Y228929D01*
X100987Y229017D01*
X100979Y229105D01*
X100965Y229137D01*
X100959Y229171D01*
X100924Y229243D01*
X101068Y229870D01*
X101070Y229903D01*
X101085Y229983D01*
X101133Y230621D01*
X101174Y230680D01*
X101231Y230748D01*
X101244Y230780D01*
X101263Y230809D01*
X101319Y230967D01*
X101810Y233116D01*
X101812Y233151D01*
X101822Y233184D01*
X101819Y233273D01*
X101825Y233362D01*
X101816Y233395D01*
X101815Y233430D01*
X101792Y233506D01*
X102027Y234105D01*
X102034Y234137D01*
X102060Y234213D01*
X102203Y234838D01*
X102252Y234890D01*
X102319Y234949D01*
X102336Y234979D01*
X102360Y235004D01*
X102438Y235152D01*
X103244Y237204D01*
X103252Y237238D01*
X103267Y237269D01*
X103277Y237357D01*
X103296Y237444D01*
X103292Y237479D01*
X103296Y237513D01*
X103285Y237592D01*
X103607Y238149D01*
X103618Y238180D01*
X103656Y238251D01*
X103890Y238847D01*
X103947Y238892D01*
X104021Y238940D01*
X104043Y238967D01*
X104070Y238988D01*
X104170Y239123D01*
X105272Y241032D01*
X105285Y241064D01*
X105304Y241093D01*
X105322Y241158D01*
X105341Y241198D01*
X105343Y241219D01*
X105359Y241262D01*
X105361Y241297D01*
X105370Y241330D01*
X105370Y241409D01*
X105771Y241912D01*
X105787Y241941D01*
X105835Y242007D01*
X106156Y242561D01*
X106218Y242596D01*
X106299Y242633D01*
X106325Y242656D01*
X106355Y242673D01*
X106473Y242792D01*
X107848Y244515D01*
X107865Y244545D01*
X107889Y244571D01*
X107925Y244652D01*
X107968Y244730D01*
X107975Y244764D01*
X107989Y244795D01*
X108001Y244874D01*
X108473Y245311D01*
X108493Y245337D01*
X108550Y245395D01*
X108950Y245895D01*
X109016Y245921D01*
X109102Y245945D01*
X109131Y245965D01*
X109163Y245977D01*
X109298Y246077D01*
X110914Y247575D01*
X110935Y247603D01*
X110963Y247624D01*
X111011Y247699D01*
X111065Y247770D01*
X111077Y247802D01*
X111095Y247831D01*
X111119Y247907D01*
X111651Y248270D01*
X111675Y248293D01*
X111740Y248341D01*
X112209Y248776D01*
X112279Y248791D01*
X112368Y248802D01*
X112399Y248818D01*
X112433Y248825D01*
X112581Y248904D01*
X114069Y249917D01*
X114078Y249927D01*
X114088Y249932D01*
X114127Y249973D01*
X114151Y249996D01*
X114236Y250073D01*
X114241Y250081D01*
X114247Y250087D01*
X114300Y250187D01*
X114356Y250288D01*
X114358Y250297D01*
X114362Y250304D01*
X114380Y250417D01*
X114401Y250530D01*
X114400Y250538D01*
X114401Y250547D01*
X114383Y250660D01*
X114367Y250773D01*
X114362Y250783D01*
X114361Y250790D01*
X114351Y250810D01*
X114299Y250927D01*
X86284Y299452D01*
X86241Y299505D01*
X86207Y299562D01*
X86164Y299599D01*
X86128Y299642D01*
X86071Y299678D01*
X86020Y299722D01*
X85967Y299743D01*
X85920Y299773D01*
X85854Y299789D01*
X85791Y299814D01*
X85713Y299823D01*
X85681Y299831D01*
X85660Y299829D01*
X85625Y299833D01*
X63875Y299833D01*
X63851Y299829D01*
X63827Y299831D01*
X63730Y299809D01*
X63632Y299793D01*
X63611Y299782D01*
X63587Y299776D01*
X63502Y299724D01*
X63415Y299678D01*
X63398Y299661D01*
X63378Y299648D01*
X63314Y299571D01*
X63245Y299500D01*
X63235Y299478D01*
X63220Y299459D01*
X63184Y299367D01*
X63142Y299277D01*
X63139Y299253D01*
X63130Y299230D01*
X63126Y299131D01*
X63115Y299032D01*
X63120Y299009D01*
X63119Y298984D01*
X63146Y298889D01*
X63167Y298792D01*
X63179Y298771D01*
X63186Y298748D01*
X63242Y298666D01*
X63293Y298581D01*
X63311Y298565D01*
X63325Y298545D01*
X63404Y298485D01*
X63480Y298421D01*
X63502Y298412D01*
X63522Y298397D01*
X63678Y298336D01*
X63981Y298255D01*
X64560Y297921D01*
X65033Y297448D01*
X65368Y296868D01*
X65541Y296222D01*
X65541Y293911D01*
X60262Y293911D01*
X60242Y293907D01*
X60223Y293910D01*
X60121Y293888D01*
X60019Y293871D01*
X60002Y293862D01*
X59982Y293857D01*
X59893Y293804D01*
X59802Y293756D01*
X59788Y293741D01*
X59771Y293731D01*
X59704Y293652D01*
X59633Y293577D01*
X59624Y293559D01*
X59611Y293544D01*
X59572Y293448D01*
X59529Y293354D01*
X59527Y293335D01*
X59519Y293316D01*
X59501Y293149D01*
X59501Y291626D01*
X59503Y291614D01*
X59502Y291606D01*
X59503Y291599D01*
X59502Y291586D01*
X59524Y291485D01*
X59541Y291383D01*
X59550Y291365D01*
X59554Y291346D01*
X59607Y291257D01*
X59656Y291165D01*
X59670Y291152D01*
X59680Y291135D01*
X59759Y291067D01*
X59834Y290996D01*
X59852Y290988D01*
X59867Y290975D01*
X59963Y290936D01*
X60057Y290892D01*
X60077Y290890D01*
X60095Y290883D01*
X60262Y290864D01*
X65541Y290864D01*
X65541Y288553D01*
X65368Y287907D01*
X65033Y287327D01*
X64560Y286854D01*
X64550Y286849D01*
X64459Y286774D01*
X64365Y286699D01*
X64363Y286696D01*
X64360Y286693D01*
X64297Y286593D01*
X64232Y286492D01*
X64231Y286488D01*
X64229Y286485D01*
X64201Y286369D01*
X64172Y286254D01*
X64173Y286250D01*
X64172Y286245D01*
X64182Y286127D01*
X64191Y286008D01*
X64193Y286005D01*
X64193Y286000D01*
X64241Y285892D01*
X64288Y285782D01*
X64291Y285778D01*
X64292Y285775D01*
X64301Y285765D01*
X64393Y285651D01*
X64525Y285519D01*
X64525Y280256D01*
X63695Y279426D01*
X63683Y279410D01*
X63667Y279397D01*
X63611Y279310D01*
X63551Y279226D01*
X63545Y279207D01*
X63534Y279190D01*
X63509Y279090D01*
X63479Y278991D01*
X63479Y278971D01*
X63474Y278952D01*
X63482Y278849D01*
X63485Y278745D01*
X63492Y278726D01*
X63493Y278706D01*
X63534Y278612D01*
X63569Y278514D01*
X63582Y278498D01*
X63590Y278480D01*
X63695Y278349D01*
X64525Y277519D01*
X64525Y272256D01*
X63695Y271426D01*
X63683Y271410D01*
X63667Y271397D01*
X63611Y271310D01*
X63551Y271226D01*
X63545Y271207D01*
X63534Y271190D01*
X63509Y271090D01*
X63479Y270991D01*
X63479Y270971D01*
X63474Y270952D01*
X63482Y270849D01*
X63485Y270745D01*
X63492Y270726D01*
X63493Y270706D01*
X63534Y270612D01*
X63569Y270514D01*
X63582Y270498D01*
X63590Y270480D01*
X63695Y270349D01*
X64525Y269519D01*
X64525Y264256D01*
X63695Y263426D01*
X63683Y263410D01*
X63667Y263397D01*
X63611Y263310D01*
X63551Y263226D01*
X63545Y263207D01*
X63534Y263190D01*
X63509Y263090D01*
X63479Y262991D01*
X63479Y262971D01*
X63474Y262952D01*
X63482Y262849D01*
X63485Y262745D01*
X63492Y262726D01*
X63493Y262706D01*
X63534Y262612D01*
X63569Y262514D01*
X63582Y262498D01*
X63590Y262480D01*
X63695Y262349D01*
X64525Y261519D01*
X64525Y256256D01*
X63695Y255426D01*
X63683Y255410D01*
X63667Y255397D01*
X63611Y255310D01*
X63551Y255226D01*
X63545Y255207D01*
X63534Y255190D01*
X63509Y255090D01*
X63479Y254991D01*
X63479Y254971D01*
X63474Y254952D01*
X63482Y254849D01*
X63485Y254745D01*
X63492Y254726D01*
X63493Y254706D01*
X63534Y254612D01*
X63569Y254514D01*
X63582Y254498D01*
X63590Y254480D01*
X63695Y254349D01*
X64002Y254042D01*
X64060Y254000D01*
X64112Y253951D01*
X64159Y253929D01*
X64201Y253899D01*
X64270Y253877D01*
X64335Y253847D01*
X64387Y253841D01*
X64437Y253826D01*
X64508Y253828D01*
X64579Y253820D01*
X64630Y253831D01*
X64682Y253833D01*
X64750Y253857D01*
X64820Y253872D01*
X64864Y253899D01*
X64913Y253917D01*
X64969Y253962D01*
X65031Y253999D01*
X65065Y254038D01*
X65105Y254071D01*
X65144Y254131D01*
X65191Y254185D01*
X65210Y254234D01*
X65238Y254278D01*
X65256Y254347D01*
X65283Y254414D01*
X65291Y254485D01*
X65299Y254516D01*
X65297Y254539D01*
X65301Y254580D01*
X65301Y254622D01*
X67966Y257286D01*
X71734Y257286D01*
X74399Y254622D01*
X74399Y250853D01*
X71734Y248189D01*
X71232Y248189D01*
X71161Y248177D01*
X71089Y248175D01*
X71041Y248157D01*
X70989Y248149D01*
X70926Y248115D01*
X70858Y248091D01*
X70818Y248058D01*
X70772Y248034D01*
X70722Y247982D01*
X70666Y247937D01*
X70638Y247893D01*
X70602Y247856D01*
X70572Y247791D01*
X70533Y247730D01*
X70521Y247680D01*
X70499Y247633D01*
X70491Y247561D01*
X70473Y247492D01*
X70477Y247440D01*
X70472Y247388D01*
X70487Y247318D01*
X70493Y247247D01*
X70513Y247199D01*
X70524Y247148D01*
X70561Y247086D01*
X70589Y247020D01*
X70634Y246964D01*
X70650Y246937D01*
X70668Y246921D01*
X70694Y246889D01*
X72811Y244772D01*
X72811Y241003D01*
X70147Y238339D01*
X66378Y238339D01*
X65031Y239686D01*
X65015Y239698D01*
X65003Y239713D01*
X64923Y239764D01*
X64916Y239770D01*
X64911Y239772D01*
X64832Y239829D01*
X64812Y239835D01*
X64796Y239846D01*
X64695Y239871D01*
X64596Y239902D01*
X64576Y239901D01*
X64557Y239906D01*
X64454Y239898D01*
X64351Y239895D01*
X64332Y239889D01*
X64312Y239887D01*
X64217Y239847D01*
X64120Y239811D01*
X64104Y239799D01*
X64086Y239791D01*
X63955Y239686D01*
X63695Y239426D01*
X63683Y239410D01*
X63667Y239397D01*
X63611Y239310D01*
X63551Y239226D01*
X63545Y239207D01*
X63534Y239190D01*
X63509Y239090D01*
X63479Y238991D01*
X63479Y238971D01*
X63474Y238952D01*
X63482Y238849D01*
X63485Y238745D01*
X63492Y238726D01*
X63493Y238706D01*
X63534Y238612D01*
X63570Y238514D01*
X63582Y238498D01*
X63590Y238480D01*
X63695Y238349D01*
X64525Y237519D01*
X64525Y232256D01*
X63695Y231426D01*
X63683Y231410D01*
X63667Y231397D01*
X63611Y231310D01*
X63551Y231226D01*
X63545Y231207D01*
X63534Y231190D01*
X63509Y231090D01*
X63479Y230991D01*
X63479Y230971D01*
X63474Y230952D01*
X63482Y230849D01*
X63485Y230745D01*
X63492Y230726D01*
X63493Y230706D01*
X63534Y230612D01*
X63569Y230514D01*
X63582Y230498D01*
X63590Y230480D01*
X63695Y230349D01*
X64525Y229519D01*
X64525Y224256D01*
X63695Y223426D01*
X63683Y223410D01*
X63667Y223397D01*
X63611Y223310D01*
X63551Y223226D01*
X63545Y223207D01*
X63534Y223190D01*
X63509Y223090D01*
X63479Y222991D01*
X63479Y222971D01*
X63474Y222952D01*
X63482Y222849D01*
X63485Y222745D01*
X63492Y222726D01*
X63493Y222706D01*
X63534Y222612D01*
X63569Y222514D01*
X63582Y222498D01*
X63590Y222480D01*
X63695Y222349D01*
X64393Y221651D01*
X64467Y221598D01*
X64536Y221539D01*
X64566Y221527D01*
X64592Y221508D01*
X64679Y221481D01*
X64764Y221447D01*
X64805Y221442D01*
X64827Y221435D01*
X64860Y221436D01*
X64931Y221428D01*
X68116Y221428D01*
X77534Y212010D01*
X77534Y131111D01*
X77537Y131091D01*
X77535Y131072D01*
X77557Y130970D01*
X77574Y130868D01*
X77583Y130851D01*
X77588Y130831D01*
X77641Y130742D01*
X77689Y130651D01*
X77703Y130637D01*
X77714Y130620D01*
X77792Y130553D01*
X77867Y130481D01*
X77885Y130473D01*
X77901Y130460D01*
X77997Y130421D01*
X78090Y130378D01*
X78110Y130376D01*
X78129Y130368D01*
X78295Y130350D01*
X86532Y130350D01*
X87425Y129457D01*
X87425Y118193D01*
X87156Y117924D01*
X87114Y117866D01*
X87064Y117814D01*
X87042Y117767D01*
X87012Y117725D01*
X86991Y117656D01*
X86961Y117591D01*
X86955Y117539D01*
X86940Y117489D01*
X86942Y117418D01*
X86934Y117347D01*
X86945Y117296D01*
X86946Y117244D01*
X86971Y117176D01*
X86986Y117106D01*
X87013Y117061D01*
X87030Y117013D01*
X87075Y116957D01*
X87112Y116895D01*
X87152Y116861D01*
X87184Y116821D01*
X87244Y116782D01*
X87299Y116735D01*
X87347Y116716D01*
X87391Y116688D01*
X87460Y116670D01*
X87527Y116643D01*
X87598Y116635D01*
X87630Y116627D01*
X87653Y116629D01*
X87694Y116625D01*
X88918Y116625D01*
X89012Y116640D01*
X89107Y116649D01*
X89133Y116660D01*
X89161Y116664D01*
X89245Y116709D01*
X89332Y116747D01*
X89353Y116766D01*
X89378Y116780D01*
X89444Y116849D01*
X89514Y116913D01*
X89528Y116937D01*
X89548Y116958D01*
X89588Y117044D01*
X89634Y117128D01*
X89639Y117155D01*
X89651Y117181D01*
X89662Y117276D01*
X89679Y117370D01*
X89675Y117397D01*
X89678Y117425D01*
X89658Y117519D01*
X89645Y117613D01*
X89630Y117645D01*
X89626Y117666D01*
X89609Y117694D01*
X89577Y117767D01*
X89532Y117844D01*
X89359Y118491D01*
X89359Y122302D01*
X95877Y122302D01*
X95877Y116284D01*
X91566Y116284D01*
X90919Y116457D01*
X90717Y116574D01*
X90627Y116608D01*
X90541Y116648D01*
X90513Y116651D01*
X90487Y116661D01*
X90391Y116665D01*
X90297Y116675D01*
X90269Y116669D01*
X90241Y116670D01*
X90149Y116643D01*
X90056Y116623D01*
X90032Y116609D01*
X90005Y116601D01*
X89927Y116546D01*
X89845Y116497D01*
X89827Y116476D01*
X89804Y116459D01*
X89747Y116383D01*
X89685Y116310D01*
X89675Y116284D01*
X89658Y116261D01*
X89629Y116171D01*
X89593Y116082D01*
X89589Y116047D01*
X89583Y116027D01*
X89583Y115994D01*
X89575Y115915D01*
X89575Y104468D01*
X88682Y103575D01*
X76418Y103575D01*
X75525Y104468D01*
X75525Y115732D01*
X75794Y116001D01*
X75836Y116059D01*
X75886Y116111D01*
X75908Y116158D01*
X75938Y116200D01*
X75959Y116269D01*
X75989Y116334D01*
X75995Y116386D01*
X76010Y116436D01*
X76008Y116507D01*
X76016Y116578D01*
X76005Y116629D01*
X76004Y116681D01*
X75979Y116749D01*
X75964Y116819D01*
X75937Y116864D01*
X75920Y116912D01*
X75875Y116968D01*
X75838Y117030D01*
X75798Y117064D01*
X75766Y117104D01*
X75706Y117143D01*
X75651Y117190D01*
X75603Y117209D01*
X75559Y117237D01*
X75490Y117255D01*
X75423Y117282D01*
X75352Y117290D01*
X75320Y117298D01*
X75297Y117296D01*
X75256Y117300D01*
X74268Y117300D01*
X73242Y118327D01*
X73164Y118383D01*
X73091Y118444D01*
X73065Y118454D01*
X73042Y118471D01*
X72951Y118499D01*
X72862Y118533D01*
X72834Y118535D01*
X72807Y118543D01*
X72711Y118541D01*
X72616Y118545D01*
X72589Y118537D01*
X72561Y118537D01*
X72471Y118504D01*
X72380Y118478D01*
X72356Y118462D01*
X72330Y118452D01*
X72255Y118392D01*
X72177Y118339D01*
X72160Y118316D01*
X72138Y118298D01*
X72086Y118218D01*
X72029Y118142D01*
X72016Y118109D01*
X72005Y118092D01*
X71997Y118060D01*
X71968Y117986D01*
X71930Y117844D01*
X71596Y117265D01*
X71123Y116792D01*
X70543Y116457D01*
X69897Y116284D01*
X65586Y116284D01*
X65586Y123063D01*
X65582Y123083D01*
X65585Y123102D01*
X65563Y123204D01*
X65546Y123306D01*
X65537Y123323D01*
X65532Y123343D01*
X65479Y123432D01*
X65431Y123523D01*
X65416Y123537D01*
X65406Y123554D01*
X65327Y123621D01*
X65252Y123692D01*
X65234Y123701D01*
X65219Y123714D01*
X65123Y123753D01*
X65029Y123796D01*
X65010Y123798D01*
X64991Y123806D01*
X64824Y123824D01*
X64062Y123824D01*
X64062Y123826D01*
X64824Y123826D01*
X64844Y123829D01*
X64864Y123827D01*
X64965Y123849D01*
X65067Y123866D01*
X65085Y123875D01*
X65104Y123879D01*
X65193Y123932D01*
X65285Y123981D01*
X65298Y123995D01*
X65315Y124005D01*
X65383Y124084D01*
X65454Y124159D01*
X65462Y124177D01*
X65475Y124192D01*
X65514Y124288D01*
X65558Y124382D01*
X65560Y124402D01*
X65567Y124420D01*
X65586Y124587D01*
X65586Y131366D01*
X69897Y131366D01*
X70543Y131193D01*
X71123Y130858D01*
X71153Y130827D01*
X71211Y130786D01*
X71263Y130736D01*
X71311Y130714D01*
X71353Y130684D01*
X71421Y130663D01*
X71487Y130633D01*
X71538Y130627D01*
X71588Y130612D01*
X71660Y130613D01*
X71731Y130605D01*
X71782Y130616D01*
X71834Y130618D01*
X71901Y130642D01*
X71971Y130658D01*
X72016Y130684D01*
X72065Y130702D01*
X72121Y130747D01*
X72182Y130784D01*
X72216Y130823D01*
X72257Y130856D01*
X72296Y130916D01*
X72342Y130971D01*
X72362Y131019D01*
X72390Y131063D01*
X72407Y131132D01*
X72434Y131199D01*
X72442Y131270D01*
X72450Y131301D01*
X72448Y131325D01*
X72453Y131366D01*
X72453Y140109D01*
X72441Y140180D01*
X72439Y140252D01*
X72421Y140301D01*
X72413Y140352D01*
X72380Y140415D01*
X72355Y140483D01*
X72322Y140524D01*
X72298Y140569D01*
X72246Y140619D01*
X72201Y140675D01*
X72157Y140703D01*
X72120Y140739D01*
X72055Y140769D01*
X71994Y140808D01*
X71944Y140821D01*
X71897Y140842D01*
X71825Y140850D01*
X71756Y140868D01*
X71704Y140864D01*
X71652Y140870D01*
X71582Y140854D01*
X71511Y140849D01*
X71463Y140828D01*
X71412Y140817D01*
X71350Y140780D01*
X71284Y140752D01*
X71228Y140708D01*
X71201Y140691D01*
X71185Y140673D01*
X71153Y140648D01*
X62762Y132257D01*
X62709Y132183D01*
X62650Y132113D01*
X62638Y132083D01*
X62619Y132057D01*
X62592Y131970D01*
X62558Y131885D01*
X62553Y131844D01*
X62546Y131822D01*
X62547Y131790D01*
X62539Y131718D01*
X62539Y125348D01*
X56022Y125348D01*
X56022Y127353D01*
X56010Y127424D01*
X56008Y127496D01*
X55990Y127545D01*
X55982Y127596D01*
X55949Y127659D01*
X55924Y127727D01*
X55891Y127768D01*
X55867Y127813D01*
X55815Y127863D01*
X55770Y127919D01*
X55726Y127947D01*
X55689Y127983D01*
X55624Y128013D01*
X55563Y128052D01*
X55513Y128065D01*
X55466Y128086D01*
X55394Y128094D01*
X55325Y128112D01*
X55273Y128108D01*
X55221Y128114D01*
X55151Y128098D01*
X55080Y128093D01*
X55032Y128072D01*
X54981Y128061D01*
X54919Y128024D01*
X54853Y127996D01*
X54797Y127952D01*
X54770Y127935D01*
X54754Y127917D01*
X54722Y127892D01*
X54310Y127480D01*
X54257Y127406D01*
X54198Y127336D01*
X54185Y127306D01*
X54167Y127280D01*
X54140Y127193D01*
X54106Y127108D01*
X54101Y127067D01*
X54094Y127045D01*
X54095Y127013D01*
X54087Y126941D01*
X54087Y120709D01*
X54102Y120619D01*
X54109Y120528D01*
X54122Y120498D01*
X54127Y120466D01*
X54170Y120385D01*
X54205Y120301D01*
X54231Y120269D01*
X54242Y120249D01*
X54265Y120226D01*
X54310Y120170D01*
X54722Y119758D01*
X54780Y119717D01*
X54832Y119667D01*
X54880Y119645D01*
X54922Y119615D01*
X54990Y119594D01*
X55056Y119564D01*
X55107Y119558D01*
X55157Y119542D01*
X55229Y119544D01*
X55300Y119536D01*
X55351Y119548D01*
X55403Y119549D01*
X55470Y119573D01*
X55540Y119589D01*
X55585Y119615D01*
X55634Y119633D01*
X55690Y119678D01*
X55751Y119715D01*
X55785Y119754D01*
X55826Y119787D01*
X55865Y119847D01*
X55911Y119902D01*
X55931Y119950D01*
X55959Y119994D01*
X55976Y120063D01*
X56003Y120130D01*
X56011Y120201D01*
X56019Y120232D01*
X56017Y120256D01*
X56022Y120297D01*
X56022Y122302D01*
X62539Y122302D01*
X62539Y117386D01*
X62543Y117366D01*
X62540Y117347D01*
X62562Y117245D01*
X62579Y117143D01*
X62588Y117126D01*
X62593Y117106D01*
X62646Y117017D01*
X62694Y116926D01*
X62709Y116912D01*
X62719Y116895D01*
X62797Y116828D01*
X62872Y116756D01*
X62891Y116748D01*
X62906Y116735D01*
X63002Y116696D01*
X63096Y116653D01*
X63115Y116651D01*
X63134Y116643D01*
X63279Y116627D01*
X64200Y115706D01*
X64193Y115690D01*
X64175Y115523D01*
X64175Y104468D01*
X63282Y103575D01*
X51018Y103575D01*
X50125Y104468D01*
X50125Y115732D01*
X50306Y115912D01*
X50317Y115928D01*
X50333Y115941D01*
X50389Y116028D01*
X50449Y116112D01*
X50455Y116131D01*
X50466Y116148D01*
X50491Y116248D01*
X50522Y116347D01*
X50521Y116367D01*
X50526Y116386D01*
X50518Y116489D01*
X50515Y116593D01*
X50508Y116612D01*
X50507Y116631D01*
X50466Y116726D01*
X50431Y116824D01*
X50418Y116839D01*
X50411Y116858D01*
X50306Y116989D01*
X50217Y117077D01*
X50143Y117130D01*
X50074Y117190D01*
X50044Y117202D01*
X50017Y117221D01*
X49930Y117248D01*
X49846Y117282D01*
X49805Y117286D01*
X49782Y117293D01*
X49750Y117292D01*
X49679Y117300D01*
X40931Y117300D01*
X40038Y118193D01*
X40038Y129457D01*
X40931Y130350D01*
X49679Y130350D01*
X49769Y130364D01*
X49860Y130372D01*
X49890Y130384D01*
X49922Y130389D01*
X50002Y130432D01*
X50086Y130468D01*
X50118Y130494D01*
X50139Y130505D01*
X50161Y130528D01*
X50217Y130573D01*
X53948Y134303D01*
X57307Y134303D01*
X57397Y134318D01*
X57488Y134325D01*
X57518Y134338D01*
X57550Y134343D01*
X57631Y134386D01*
X57715Y134421D01*
X57747Y134447D01*
X57767Y134458D01*
X57790Y134481D01*
X57846Y134526D01*
X68674Y145354D01*
X68727Y145428D01*
X68786Y145498D01*
X68798Y145528D01*
X68817Y145554D01*
X68844Y145641D01*
X68878Y145726D01*
X68883Y145767D01*
X68890Y145789D01*
X68889Y145821D01*
X68897Y145893D01*
X68897Y148617D01*
X68885Y148688D01*
X68883Y148760D01*
X68865Y148809D01*
X68857Y148860D01*
X68824Y148923D01*
X68799Y148991D01*
X68766Y149031D01*
X68742Y149077D01*
X68690Y149127D01*
X68645Y149183D01*
X68601Y149211D01*
X68564Y149247D01*
X68499Y149277D01*
X68438Y149316D01*
X68388Y149328D01*
X68341Y149350D01*
X68269Y149358D01*
X68200Y149376D01*
X68148Y149372D01*
X68096Y149377D01*
X68026Y149362D01*
X67954Y149357D01*
X67907Y149336D01*
X67856Y149325D01*
X67794Y149288D01*
X67728Y149260D01*
X67672Y149215D01*
X67645Y149199D01*
X67629Y149181D01*
X67597Y149155D01*
X67492Y149050D01*
X53158Y149050D01*
X50800Y151408D01*
X50800Y159746D01*
X50812Y159755D01*
X50868Y159842D01*
X50929Y159927D01*
X50934Y159946D01*
X50945Y159962D01*
X50970Y160062D01*
X51001Y160162D01*
X51000Y160182D01*
X51005Y160201D01*
X50997Y160304D01*
X50995Y160407D01*
X50988Y160426D01*
X50986Y160446D01*
X50946Y160541D01*
X50910Y160638D01*
X50898Y160654D01*
X50890Y160672D01*
X50785Y160803D01*
X50000Y161589D01*
X50000Y162913D01*
X49988Y162983D01*
X49986Y163055D01*
X49968Y163104D01*
X49960Y163155D01*
X49926Y163219D01*
X49902Y163286D01*
X49869Y163327D01*
X49845Y163373D01*
X49793Y163422D01*
X49748Y163478D01*
X49704Y163506D01*
X49666Y163542D01*
X49601Y163572D01*
X49541Y163611D01*
X49490Y163624D01*
X49443Y163646D01*
X49372Y163654D01*
X49302Y163671D01*
X49251Y163667D01*
X49199Y163673D01*
X49129Y163658D01*
X49057Y163652D01*
X49009Y163632D01*
X48958Y163621D01*
X48897Y163584D01*
X48831Y163556D01*
X48775Y163511D01*
X48747Y163494D01*
X48732Y163477D01*
X48700Y163451D01*
X46052Y160803D01*
X46041Y160787D01*
X46025Y160775D01*
X45969Y160688D01*
X45909Y160604D01*
X45903Y160585D01*
X45892Y160568D01*
X45867Y160468D01*
X45837Y160369D01*
X45837Y160349D01*
X45832Y160329D01*
X45840Y160226D01*
X45843Y160123D01*
X45850Y160104D01*
X45851Y160084D01*
X45892Y159989D01*
X45927Y159892D01*
X45940Y159876D01*
X45948Y159858D01*
X46037Y159746D01*
X46037Y151408D01*
X43680Y149050D01*
X29345Y149050D01*
X28543Y149853D01*
X28485Y149895D01*
X28433Y149944D01*
X28385Y149966D01*
X28343Y149996D01*
X28275Y150018D01*
X28209Y150048D01*
X28158Y150054D01*
X28108Y150069D01*
X28036Y150067D01*
X27965Y150075D01*
X27914Y150064D01*
X27862Y150062D01*
X27795Y150038D01*
X27725Y150023D01*
X27680Y149996D01*
X27631Y149978D01*
X27575Y149933D01*
X27514Y149896D01*
X27480Y149857D01*
X27439Y149824D01*
X27400Y149764D01*
X27354Y149710D01*
X27334Y149661D01*
X27306Y149617D01*
X27289Y149548D01*
X27262Y149481D01*
X27254Y149410D01*
X27246Y149379D01*
X27248Y149356D01*
X27243Y149315D01*
X27243Y130653D01*
X27258Y130563D01*
X27265Y130472D01*
X27278Y130442D01*
X27283Y130410D01*
X27326Y130329D01*
X27361Y130245D01*
X27387Y130213D01*
X27398Y130193D01*
X27421Y130170D01*
X27466Y130114D01*
X28998Y128583D01*
X29015Y128571D01*
X29027Y128555D01*
X29114Y128499D01*
X29198Y128439D01*
X29217Y128433D01*
X29234Y128422D01*
X29334Y128397D01*
X29433Y128367D01*
X29453Y128367D01*
X29473Y128362D01*
X29576Y128370D01*
X29679Y128373D01*
X29681Y128374D01*
X33634Y128374D01*
X36299Y125709D01*
X36299Y121941D01*
X33634Y119276D01*
X29866Y119276D01*
X27201Y121941D01*
X27201Y122878D01*
X27187Y122968D01*
X27179Y123059D01*
X27167Y123089D01*
X27162Y123121D01*
X27119Y123201D01*
X27083Y123285D01*
X27057Y123317D01*
X27046Y123338D01*
X27023Y123360D01*
X26978Y123416D01*
X22162Y128233D01*
X22162Y157955D01*
X22150Y158025D01*
X22148Y158097D01*
X22130Y158146D01*
X22122Y158197D01*
X22088Y158261D01*
X22064Y158328D01*
X22031Y158369D01*
X22007Y158415D01*
X21955Y158464D01*
X21910Y158520D01*
X21866Y158548D01*
X21829Y158584D01*
X21764Y158614D01*
X21703Y158653D01*
X21653Y158666D01*
X21606Y158688D01*
X21534Y158696D01*
X21465Y158713D01*
X21413Y158709D01*
X21361Y158715D01*
X21291Y158700D01*
X21220Y158694D01*
X21172Y158674D01*
X21121Y158663D01*
X21059Y158626D01*
X20993Y158598D01*
X20937Y158553D01*
X20910Y158536D01*
X20894Y158519D01*
X20862Y158493D01*
X17370Y155000D01*
X17317Y154926D01*
X17257Y154857D01*
X17245Y154827D01*
X17226Y154801D01*
X17199Y154713D01*
X17165Y154629D01*
X17161Y154588D01*
X17154Y154565D01*
X17155Y154533D01*
X17147Y154462D01*
X17147Y76111D01*
X17150Y76091D01*
X17148Y76072D01*
X17170Y75970D01*
X17186Y75868D01*
X17196Y75851D01*
X17200Y75831D01*
X17253Y75742D01*
X17302Y75651D01*
X17316Y75637D01*
X17326Y75620D01*
X17405Y75553D01*
X17480Y75481D01*
X17498Y75473D01*
X17513Y75460D01*
X17609Y75421D01*
X17703Y75378D01*
X17723Y75376D01*
X17741Y75368D01*
X17908Y75350D01*
X20419Y75350D01*
X21312Y74457D01*
X21312Y63193D01*
X20443Y62324D01*
X20401Y62266D01*
X20351Y62214D01*
X20329Y62166D01*
X20299Y62124D01*
X20278Y62056D01*
X20248Y61990D01*
X20242Y61939D01*
X20227Y61889D01*
X20229Y61817D01*
X20221Y61746D01*
X20232Y61695D01*
X20233Y61643D01*
X20258Y61576D01*
X20273Y61506D01*
X20300Y61461D01*
X20317Y61412D01*
X20362Y61356D01*
X20399Y61295D01*
X20439Y61261D01*
X20471Y61220D01*
X20531Y61181D01*
X20586Y61135D01*
X20634Y61115D01*
X20678Y61087D01*
X20748Y61070D01*
X20814Y61043D01*
X20885Y61035D01*
X20917Y61027D01*
X20940Y61029D01*
X20981Y61024D01*
X23469Y61024D01*
X23540Y61036D01*
X23612Y61038D01*
X23661Y61056D01*
X23712Y61064D01*
X23775Y61098D01*
X23843Y61122D01*
X23883Y61155D01*
X23929Y61179D01*
X23979Y61231D01*
X24035Y61276D01*
X24063Y61320D01*
X24099Y61357D01*
X24129Y61422D01*
X24168Y61483D01*
X24180Y61533D01*
X24202Y61580D01*
X24210Y61652D01*
X24228Y61721D01*
X24224Y61773D01*
X24229Y61825D01*
X24214Y61895D01*
X24209Y61966D01*
X24188Y62014D01*
X24177Y62065D01*
X24140Y62127D01*
X24112Y62193D01*
X24067Y62249D01*
X24051Y62276D01*
X24033Y62292D01*
X24007Y62324D01*
X23138Y63193D01*
X23138Y74457D01*
X24031Y75350D01*
X31342Y75350D01*
X31432Y75364D01*
X31523Y75372D01*
X31553Y75384D01*
X31585Y75389D01*
X31665Y75432D01*
X31749Y75468D01*
X31781Y75494D01*
X31802Y75505D01*
X31824Y75528D01*
X31880Y75573D01*
X37599Y81292D01*
X37652Y81366D01*
X37712Y81435D01*
X37724Y81465D01*
X37743Y81491D01*
X37769Y81578D01*
X37804Y81663D01*
X37808Y81704D01*
X37815Y81726D01*
X37814Y81759D01*
X37822Y81830D01*
X37822Y88780D01*
X37807Y88870D01*
X37800Y88961D01*
X37788Y88990D01*
X37782Y89022D01*
X37740Y89103D01*
X37704Y89187D01*
X37678Y89219D01*
X37667Y89240D01*
X37644Y89262D01*
X37599Y89318D01*
X36830Y90087D01*
X36830Y93855D01*
X39495Y96520D01*
X43263Y96520D01*
X45928Y93855D01*
X45928Y90087D01*
X45159Y89318D01*
X45105Y89244D01*
X45046Y89175D01*
X45034Y89144D01*
X45015Y89118D01*
X44988Y89031D01*
X44954Y88946D01*
X44950Y88905D01*
X44943Y88883D01*
X44944Y88851D01*
X44936Y88780D01*
X44936Y84278D01*
X44947Y84207D01*
X44949Y84135D01*
X44967Y84086D01*
X44975Y84035D01*
X45009Y83972D01*
X45034Y83904D01*
X45066Y83864D01*
X45090Y83818D01*
X45142Y83768D01*
X45187Y83712D01*
X45231Y83684D01*
X45269Y83648D01*
X45334Y83618D01*
X45394Y83579D01*
X45445Y83567D01*
X45492Y83545D01*
X45563Y83537D01*
X45633Y83519D01*
X45685Y83523D01*
X45736Y83517D01*
X45806Y83533D01*
X45878Y83538D01*
X45926Y83559D01*
X45977Y83570D01*
X46038Y83607D01*
X46104Y83635D01*
X46160Y83679D01*
X46188Y83696D01*
X46203Y83714D01*
X46235Y83739D01*
X48220Y85725D01*
X49086Y85725D01*
X49105Y85728D01*
X49125Y85726D01*
X49226Y85748D01*
X49328Y85764D01*
X49346Y85774D01*
X49365Y85778D01*
X49454Y85831D01*
X49546Y85880D01*
X49559Y85894D01*
X49576Y85904D01*
X49644Y85983D01*
X49715Y86058D01*
X49723Y86076D01*
X49736Y86091D01*
X49775Y86187D01*
X49819Y86281D01*
X49821Y86301D01*
X49828Y86319D01*
X49847Y86486D01*
X49847Y89390D01*
X49902Y89445D01*
X49955Y89519D01*
X50015Y89589D01*
X50027Y89619D01*
X50046Y89645D01*
X50073Y89732D01*
X50107Y89817D01*
X50111Y89858D01*
X50118Y89880D01*
X50117Y89912D01*
X50125Y89984D01*
X50125Y98732D01*
X51018Y99625D01*
X63282Y99625D01*
X64175Y98732D01*
X64175Y87468D01*
X63282Y86575D01*
X57542Y86575D01*
X57471Y86564D01*
X57399Y86562D01*
X57350Y86544D01*
X57299Y86536D01*
X57236Y86502D01*
X57168Y86477D01*
X57128Y86445D01*
X57082Y86420D01*
X57032Y86368D01*
X56976Y86324D01*
X56948Y86280D01*
X56912Y86242D01*
X56882Y86177D01*
X56843Y86117D01*
X56831Y86066D01*
X56809Y86019D01*
X56801Y85948D01*
X56783Y85878D01*
X56787Y85826D01*
X56782Y85775D01*
X56797Y85704D01*
X56802Y85633D01*
X56823Y85585D01*
X56834Y85534D01*
X56871Y85473D01*
X56899Y85407D01*
X56944Y85351D01*
X56960Y85323D01*
X56978Y85308D01*
X57004Y85276D01*
X58912Y83367D01*
X58912Y69033D01*
X56635Y66756D01*
X56582Y66682D01*
X56523Y66612D01*
X56510Y66582D01*
X56492Y66556D01*
X56465Y66469D01*
X56431Y66384D01*
X56426Y66343D01*
X56419Y66321D01*
X56420Y66289D01*
X56412Y66218D01*
X56412Y58756D01*
X55519Y57863D01*
X49256Y57863D01*
X48363Y58756D01*
X48363Y66218D01*
X48348Y66308D01*
X48341Y66399D01*
X48328Y66428D01*
X48323Y66460D01*
X48280Y66541D01*
X48245Y66625D01*
X48219Y66657D01*
X48208Y66678D01*
X48185Y66700D01*
X48140Y66756D01*
X45863Y69033D01*
X45863Y77658D01*
X45851Y77728D01*
X45849Y77800D01*
X45831Y77849D01*
X45823Y77900D01*
X45790Y77964D01*
X45765Y78031D01*
X45732Y78072D01*
X45708Y78118D01*
X45656Y78167D01*
X45611Y78223D01*
X45567Y78251D01*
X45530Y78287D01*
X45465Y78317D01*
X45404Y78356D01*
X45354Y78369D01*
X45307Y78391D01*
X45235Y78399D01*
X45166Y78416D01*
X45114Y78412D01*
X45062Y78418D01*
X44992Y78402D01*
X44921Y78397D01*
X44873Y78377D01*
X44822Y78365D01*
X44760Y78329D01*
X44694Y78301D01*
X44638Y78256D01*
X44611Y78239D01*
X44595Y78222D01*
X44563Y78196D01*
X37410Y71043D01*
X37357Y70969D01*
X37298Y70899D01*
X37285Y70869D01*
X37267Y70843D01*
X37240Y70756D01*
X37206Y70671D01*
X37201Y70630D01*
X37194Y70608D01*
X37195Y70576D01*
X37187Y70504D01*
X37187Y63193D01*
X36318Y62324D01*
X36276Y62266D01*
X36226Y62214D01*
X36204Y62166D01*
X36174Y62124D01*
X36153Y62056D01*
X36123Y61990D01*
X36117Y61939D01*
X36102Y61889D01*
X36104Y61817D01*
X36096Y61746D01*
X36107Y61695D01*
X36108Y61643D01*
X36133Y61576D01*
X36148Y61506D01*
X36175Y61461D01*
X36192Y61412D01*
X36237Y61356D01*
X36274Y61295D01*
X36314Y61261D01*
X36346Y61220D01*
X36406Y61181D01*
X36461Y61135D01*
X36509Y61115D01*
X36553Y61087D01*
X36623Y61070D01*
X36689Y61043D01*
X36760Y61035D01*
X36792Y61027D01*
X36815Y61029D01*
X36856Y61024D01*
X37460Y61024D01*
X38799Y59685D01*
X38799Y42735D01*
X38802Y42716D01*
X38800Y42696D01*
X38822Y42595D01*
X38839Y42493D01*
X38848Y42475D01*
X38853Y42456D01*
X38906Y42366D01*
X38954Y42275D01*
X38968Y42262D01*
X38979Y42245D01*
X39057Y42177D01*
X39132Y42106D01*
X39150Y42098D01*
X39166Y42085D01*
X39262Y42046D01*
X39355Y42002D01*
X39375Y42000D01*
X39394Y41993D01*
X39560Y41974D01*
X43810Y41974D01*
X45149Y40635D01*
X45149Y23685D01*
X45152Y23666D01*
X45150Y23646D01*
X45172Y23545D01*
X45189Y23443D01*
X45198Y23425D01*
X45203Y23406D01*
X45256Y23317D01*
X45304Y23225D01*
X45318Y23212D01*
X45329Y23195D01*
X45407Y23127D01*
X45482Y23056D01*
X45500Y23048D01*
X45516Y23035D01*
X45612Y22996D01*
X45705Y22952D01*
X45725Y22950D01*
X45744Y22943D01*
X45910Y22924D01*
X55690Y22924D01*
X55709Y22927D01*
G37*
G36*
X131841Y198155D02*
X131841Y198155D01*
X131884Y198154D01*
X135877Y198754D01*
X135907Y198765D01*
X135950Y198771D01*
X139809Y199960D01*
X139837Y199975D01*
X139878Y199987D01*
X143516Y201738D01*
X143538Y201754D01*
X143564Y201764D01*
X143617Y201814D01*
X143675Y201858D01*
X143688Y201881D01*
X143708Y201900D01*
X143738Y201967D01*
X143774Y202030D01*
X143777Y202057D01*
X143788Y202082D01*
X143789Y202155D01*
X143798Y202228D01*
X143790Y202254D01*
X143790Y202281D01*
X143754Y202380D01*
X143742Y202419D01*
X143736Y202426D01*
X143732Y202437D01*
X116732Y249237D01*
X116714Y249257D01*
X116703Y249282D01*
X116649Y249331D01*
X116601Y249386D01*
X116576Y249398D01*
X116556Y249416D01*
X116487Y249440D01*
X116421Y249472D01*
X116394Y249473D01*
X116369Y249482D01*
X116296Y249477D01*
X116223Y249481D01*
X116197Y249471D01*
X116170Y249470D01*
X116074Y249426D01*
X116036Y249411D01*
X116029Y249405D01*
X116019Y249400D01*
X112682Y247127D01*
X112660Y247104D01*
X112624Y247080D01*
X109663Y244335D01*
X109644Y244309D01*
X109612Y244280D01*
X107094Y241124D01*
X107079Y241096D01*
X107052Y241063D01*
X105032Y237566D01*
X105022Y237536D01*
X104999Y237499D01*
X103523Y233741D01*
X103518Y233710D01*
X103501Y233670D01*
X102601Y229734D01*
X102601Y229702D01*
X102590Y229660D01*
X102287Y225634D01*
X102290Y225610D01*
X102287Y225590D01*
X102289Y225581D01*
X102287Y225559D01*
X102588Y221533D01*
X102596Y221502D01*
X102599Y221459D01*
X103496Y217522D01*
X103509Y217493D01*
X103518Y217451D01*
X104992Y213692D01*
X105009Y213665D01*
X105024Y213624D01*
X107042Y210127D01*
X107063Y210103D01*
X107084Y210065D01*
X109600Y206908D01*
X109625Y206887D01*
X109651Y206853D01*
X112610Y204106D01*
X112637Y204089D01*
X112668Y204059D01*
X116004Y201784D01*
X116033Y201771D01*
X116068Y201746D01*
X119706Y199993D01*
X119736Y199986D01*
X119775Y199966D01*
X123633Y198775D01*
X123665Y198772D01*
X123706Y198758D01*
X127698Y198155D01*
X127730Y198157D01*
X127772Y198149D01*
X131810Y198148D01*
X131841Y198155D01*
G37*
G36*
X-127972Y198149D02*
X-127972Y198149D01*
X-127941Y198156D01*
X-127898Y198155D01*
X-123906Y198758D01*
X-123876Y198769D01*
X-123833Y198775D01*
X-119975Y199966D01*
X-119947Y199981D01*
X-119906Y199993D01*
X-116268Y201746D01*
X-116243Y201766D01*
X-116204Y201784D01*
X-112868Y204059D01*
X-112846Y204082D01*
X-112810Y204106D01*
X-109851Y206853D01*
X-109832Y206879D01*
X-109800Y206908D01*
X-107284Y210065D01*
X-107269Y210094D01*
X-107242Y210127D01*
X-105224Y213624D01*
X-105214Y213655D01*
X-105192Y213692D01*
X-103718Y217451D01*
X-103712Y217482D01*
X-103696Y217522D01*
X-102799Y221459D01*
X-102798Y221491D01*
X-102788Y221533D01*
X-102487Y225559D01*
X-102491Y225591D01*
X-102490Y225607D01*
X-102487Y225623D01*
X-102488Y225627D01*
X-102487Y225634D01*
X-102790Y229660D01*
X-102799Y229691D01*
X-102801Y229734D01*
X-103701Y233670D01*
X-103714Y233699D01*
X-103723Y233741D01*
X-105199Y237499D01*
X-105217Y237526D01*
X-105232Y237566D01*
X-107252Y241063D01*
X-107273Y241086D01*
X-107294Y241124D01*
X-109812Y244280D01*
X-109837Y244301D01*
X-109863Y244335D01*
X-112824Y247080D01*
X-112851Y247097D01*
X-112882Y247127D01*
X-116219Y249400D01*
X-116244Y249411D01*
X-116265Y249428D01*
X-116335Y249449D01*
X-116402Y249477D01*
X-116430Y249477D01*
X-116456Y249485D01*
X-116528Y249477D01*
X-116601Y249476D01*
X-116626Y249466D01*
X-116653Y249463D01*
X-116717Y249427D01*
X-116784Y249398D01*
X-116803Y249379D01*
X-116826Y249365D01*
X-116894Y249284D01*
X-116922Y249255D01*
X-116925Y249246D01*
X-116932Y249237D01*
X-143932Y202437D01*
X-143941Y202411D01*
X-143957Y202389D01*
X-143972Y202318D01*
X-143996Y202248D01*
X-143993Y202221D01*
X-143999Y202195D01*
X-143986Y202123D01*
X-143980Y202050D01*
X-143967Y202026D01*
X-143962Y201999D01*
X-143922Y201939D01*
X-143888Y201874D01*
X-143867Y201856D01*
X-143852Y201834D01*
X-143766Y201773D01*
X-143735Y201747D01*
X-143726Y201744D01*
X-143716Y201738D01*
X-140078Y199987D01*
X-140047Y199979D01*
X-140009Y199960D01*
X-136150Y198771D01*
X-136118Y198768D01*
X-136077Y198754D01*
X-132084Y198154D01*
X-132053Y198155D01*
X-132010Y198148D01*
X-127972Y198149D01*
G37*
G36*
X116328Y51698D02*
X116328Y51698D01*
X116401Y51699D01*
X116426Y51709D01*
X116453Y51712D01*
X116517Y51748D01*
X116584Y51777D01*
X116603Y51796D01*
X116626Y51810D01*
X116694Y51891D01*
X116722Y51920D01*
X116725Y51929D01*
X116732Y51938D01*
X143732Y98738D01*
X143741Y98764D01*
X143757Y98786D01*
X143772Y98857D01*
X143796Y98927D01*
X143793Y98954D01*
X143799Y98980D01*
X143786Y99052D01*
X143780Y99125D01*
X143767Y99149D01*
X143762Y99176D01*
X143722Y99237D01*
X143688Y99301D01*
X143667Y99319D01*
X143652Y99341D01*
X143566Y99402D01*
X143535Y99428D01*
X143526Y99431D01*
X143516Y99437D01*
X139878Y101188D01*
X139847Y101196D01*
X139809Y101215D01*
X135950Y102404D01*
X135918Y102407D01*
X135877Y102421D01*
X131884Y103021D01*
X131853Y103020D01*
X131810Y103027D01*
X127772Y103026D01*
X127741Y103019D01*
X127698Y103020D01*
X123706Y102417D01*
X123676Y102406D01*
X123633Y102400D01*
X119775Y101209D01*
X119747Y101194D01*
X119706Y101182D01*
X116068Y99429D01*
X116043Y99409D01*
X116004Y99391D01*
X112668Y97116D01*
X112646Y97093D01*
X112610Y97069D01*
X109651Y94322D01*
X109632Y94296D01*
X109600Y94267D01*
X107084Y91110D01*
X107069Y91081D01*
X107042Y91048D01*
X105024Y87551D01*
X105014Y87520D01*
X104992Y87483D01*
X103518Y83724D01*
X103512Y83693D01*
X103496Y83653D01*
X102599Y79716D01*
X102598Y79684D01*
X102588Y79642D01*
X102287Y75616D01*
X102291Y75584D01*
X102287Y75541D01*
X102590Y71515D01*
X102599Y71484D01*
X102601Y71441D01*
X103501Y67505D01*
X103514Y67476D01*
X103523Y67434D01*
X104999Y63676D01*
X105017Y63649D01*
X105032Y63609D01*
X107052Y60113D01*
X107073Y60089D01*
X107094Y60051D01*
X109612Y56895D01*
X109637Y56875D01*
X109663Y56840D01*
X112624Y54095D01*
X112651Y54078D01*
X112682Y54048D01*
X116019Y51775D01*
X116044Y51764D01*
X116065Y51747D01*
X116135Y51726D01*
X116202Y51698D01*
X116230Y51698D01*
X116256Y51690D01*
X116328Y51698D01*
G37*
G36*
X-116496Y51698D02*
X-116496Y51698D01*
X-116423Y51694D01*
X-116397Y51704D01*
X-116370Y51705D01*
X-116274Y51749D01*
X-116236Y51764D01*
X-116229Y51770D01*
X-116219Y51775D01*
X-112882Y54048D01*
X-112860Y54071D01*
X-112824Y54095D01*
X-109863Y56840D01*
X-109844Y56866D01*
X-109812Y56895D01*
X-107294Y60051D01*
X-107279Y60079D01*
X-107252Y60113D01*
X-105232Y63609D01*
X-105222Y63639D01*
X-105199Y63676D01*
X-103723Y67434D01*
X-103718Y67465D01*
X-103701Y67505D01*
X-102801Y71441D01*
X-102801Y71473D01*
X-102790Y71515D01*
X-102487Y75541D01*
X-102491Y75573D01*
X-102487Y75616D01*
X-102788Y79642D01*
X-102796Y79673D01*
X-102799Y79716D01*
X-103696Y83653D01*
X-103709Y83682D01*
X-103718Y83724D01*
X-105192Y87483D01*
X-105209Y87510D01*
X-105224Y87551D01*
X-107242Y91048D01*
X-107263Y91072D01*
X-107284Y91110D01*
X-109800Y94267D01*
X-109825Y94288D01*
X-109851Y94322D01*
X-112810Y97069D01*
X-112837Y97086D01*
X-112868Y97116D01*
X-116204Y99391D01*
X-116233Y99404D01*
X-116268Y99429D01*
X-119906Y101182D01*
X-119936Y101189D01*
X-119975Y101209D01*
X-123833Y102400D01*
X-123865Y102403D01*
X-123906Y102417D01*
X-127898Y103020D01*
X-127930Y103018D01*
X-127972Y103026D01*
X-132010Y103027D01*
X-132041Y103021D01*
X-132084Y103021D01*
X-136077Y102421D01*
X-136107Y102410D01*
X-136150Y102404D01*
X-140009Y101215D01*
X-140037Y101200D01*
X-140078Y101188D01*
X-143716Y99437D01*
X-143738Y99421D01*
X-143764Y99411D01*
X-143817Y99361D01*
X-143875Y99317D01*
X-143888Y99294D01*
X-143908Y99275D01*
X-143938Y99208D01*
X-143974Y99145D01*
X-143977Y99118D01*
X-143988Y99093D01*
X-143989Y99020D01*
X-143998Y98947D01*
X-143990Y98921D01*
X-143990Y98894D01*
X-143954Y98795D01*
X-143942Y98756D01*
X-143936Y98749D01*
X-143932Y98738D01*
X-116932Y51938D01*
X-116914Y51918D01*
X-116903Y51893D01*
X-116849Y51844D01*
X-116801Y51789D01*
X-116776Y51777D01*
X-116756Y51759D01*
X-116687Y51735D01*
X-116621Y51703D01*
X-116594Y51702D01*
X-116569Y51693D01*
X-116496Y51698D01*
G37*
G36*
X26927Y94D02*
X26927Y94D01*
X26954Y91D01*
X27023Y113D01*
X27095Y128D01*
X27117Y143D01*
X27143Y152D01*
X27199Y199D01*
X27259Y240D01*
X27273Y263D01*
X27294Y281D01*
X27327Y346D01*
X27366Y408D01*
X27370Y435D01*
X27382Y459D01*
X27392Y564D01*
X27399Y604D01*
X27397Y613D01*
X27398Y625D01*
X27096Y4649D01*
X27088Y4680D01*
X27085Y4723D01*
X26187Y8657D01*
X26174Y8686D01*
X26165Y8728D01*
X24691Y12485D01*
X24674Y12512D01*
X24659Y12552D01*
X22641Y16047D01*
X22620Y16071D01*
X22599Y16108D01*
X20083Y19263D01*
X20058Y19284D01*
X20032Y19318D01*
X17074Y22063D01*
X17047Y22079D01*
X17015Y22109D01*
X13681Y24383D01*
X13652Y24395D01*
X13617Y24420D01*
X9981Y26171D01*
X9950Y26179D01*
X9911Y26198D01*
X6055Y27388D01*
X6024Y27391D01*
X5982Y27404D01*
X1992Y28006D01*
X1960Y28004D01*
X1918Y28011D01*
X-2118Y28011D01*
X-2149Y28005D01*
X-2192Y28006D01*
X-6182Y27404D01*
X-6212Y27393D01*
X-6255Y27388D01*
X-10111Y26198D01*
X-10139Y26183D01*
X-10181Y26171D01*
X-13817Y24420D01*
X-13842Y24401D01*
X-13881Y24383D01*
X-17215Y22109D01*
X-17238Y22087D01*
X-17274Y22063D01*
X-20232Y19318D01*
X-20251Y19292D01*
X-20283Y19263D01*
X-22799Y16108D01*
X-22813Y16080D01*
X-22841Y16047D01*
X-24859Y12552D01*
X-24869Y12522D01*
X-24891Y12485D01*
X-26365Y8728D01*
X-26371Y8697D01*
X-26387Y8657D01*
X-27285Y4723D01*
X-27286Y4691D01*
X-27296Y4649D01*
X-27598Y625D01*
X-27594Y598D01*
X-27599Y571D01*
X-27582Y500D01*
X-27573Y428D01*
X-27559Y404D01*
X-27553Y378D01*
X-27510Y319D01*
X-27473Y256D01*
X-27451Y239D01*
X-27435Y217D01*
X-27372Y180D01*
X-27314Y136D01*
X-27287Y130D01*
X-27264Y116D01*
X-27160Y98D01*
X-27121Y89D01*
X-27111Y90D01*
X-27100Y88D01*
X26900Y88D01*
X26927Y94D01*
G37*
%LPC*%
G36*
X-35573Y112846D02*
X-35573Y112846D01*
X-38238Y115511D01*
X-38238Y118035D01*
X-38252Y118125D01*
X-38260Y118216D01*
X-38272Y118246D01*
X-38277Y118278D01*
X-38320Y118359D01*
X-38356Y118443D01*
X-38382Y118475D01*
X-38392Y118495D01*
X-38416Y118518D01*
X-38461Y118574D01*
X-42580Y122693D01*
X-42580Y187996D01*
X-42594Y188086D01*
X-42602Y188177D01*
X-42614Y188206D01*
X-42619Y188238D01*
X-42662Y188319D01*
X-42698Y188403D01*
X-42724Y188435D01*
X-42734Y188456D01*
X-42758Y188478D01*
X-42803Y188534D01*
X-43462Y189193D01*
X-43478Y189205D01*
X-43490Y189220D01*
X-43578Y189276D01*
X-43661Y189336D01*
X-43680Y189342D01*
X-43697Y189353D01*
X-43798Y189378D01*
X-43897Y189409D01*
X-43916Y189408D01*
X-43936Y189413D01*
X-44039Y189405D01*
X-44142Y189402D01*
X-44161Y189396D01*
X-44181Y189394D01*
X-44276Y189354D01*
X-44373Y189318D01*
X-44389Y189306D01*
X-44407Y189298D01*
X-44538Y189193D01*
X-45368Y188363D01*
X-50632Y188363D01*
X-51525Y189256D01*
X-51525Y198519D01*
X-50632Y199412D01*
X-45368Y199412D01*
X-44538Y198582D01*
X-44522Y198570D01*
X-44510Y198555D01*
X-44422Y198499D01*
X-44339Y198439D01*
X-44320Y198433D01*
X-44303Y198422D01*
X-44202Y198397D01*
X-44103Y198366D01*
X-44084Y198367D01*
X-44064Y198362D01*
X-43961Y198370D01*
X-43858Y198373D01*
X-43839Y198379D01*
X-43819Y198381D01*
X-43724Y198421D01*
X-43627Y198457D01*
X-43611Y198470D01*
X-43593Y198477D01*
X-43462Y198582D01*
X-42632Y199412D01*
X-37368Y199412D01*
X-37236Y199280D01*
X-37141Y199212D01*
X-37044Y199140D01*
X-37040Y199139D01*
X-37037Y199137D01*
X-36923Y199102D01*
X-36810Y199065D01*
X-36805Y199065D01*
X-36802Y199064D01*
X-36683Y199067D01*
X-36564Y199069D01*
X-36560Y199070D01*
X-36556Y199071D01*
X-36445Y199111D01*
X-36332Y199151D01*
X-36329Y199154D01*
X-36325Y199155D01*
X-36232Y199229D01*
X-36138Y199303D01*
X-36135Y199307D01*
X-36133Y199309D01*
X-36125Y199320D01*
X-36039Y199438D01*
X-36033Y199448D01*
X-35560Y199921D01*
X-34981Y200255D01*
X-34334Y200428D01*
X-32999Y200428D01*
X-32999Y194126D01*
X-32996Y194106D01*
X-32998Y194086D01*
X-32976Y193985D01*
X-32960Y193883D01*
X-32959Y193881D01*
X-32971Y193854D01*
X-32973Y193835D01*
X-32981Y193816D01*
X-32999Y193649D01*
X-32999Y187347D01*
X-34334Y187347D01*
X-34981Y187520D01*
X-35560Y187854D01*
X-36033Y188327D01*
X-36039Y188337D01*
X-36113Y188427D01*
X-36189Y188522D01*
X-36192Y188524D01*
X-36195Y188528D01*
X-36294Y188590D01*
X-36396Y188655D01*
X-36400Y188656D01*
X-36403Y188658D01*
X-36518Y188686D01*
X-36634Y188715D01*
X-36638Y188715D01*
X-36642Y188716D01*
X-36760Y188705D01*
X-36879Y188696D01*
X-36883Y188694D01*
X-36887Y188694D01*
X-36996Y188646D01*
X-37106Y188600D01*
X-37109Y188597D01*
X-37112Y188595D01*
X-37122Y188586D01*
X-37237Y188495D01*
X-37275Y188456D01*
X-37294Y188431D01*
X-37294Y188430D01*
X-37295Y188428D01*
X-37329Y188382D01*
X-37388Y188313D01*
X-37400Y188282D01*
X-37419Y188256D01*
X-37446Y188169D01*
X-37480Y188084D01*
X-37484Y188043D01*
X-37491Y188021D01*
X-37490Y187989D01*
X-37498Y187918D01*
X-37498Y125113D01*
X-37483Y125023D01*
X-37476Y124932D01*
X-37464Y124902D01*
X-37458Y124870D01*
X-37416Y124789D01*
X-37380Y124705D01*
X-37354Y124673D01*
X-37343Y124653D01*
X-37320Y124630D01*
X-37275Y124574D01*
X-34867Y122167D01*
X-34794Y122114D01*
X-34724Y122054D01*
X-34694Y122042D01*
X-34668Y122023D01*
X-34581Y121996D01*
X-34496Y121962D01*
X-34455Y121958D01*
X-34433Y121951D01*
X-34400Y121952D01*
X-34329Y121944D01*
X-31805Y121944D01*
X-29140Y119279D01*
X-29140Y115511D01*
X-31805Y112846D01*
X-35573Y112846D01*
G37*
%LPD*%
%LPC*%
G36*
X1523Y244411D02*
X1523Y244411D01*
X1523Y261114D01*
X18227Y261114D01*
X18227Y244411D01*
X1523Y244411D01*
G37*
%LPD*%
%LPC*%
G36*
X-18227Y244411D02*
X-18227Y244411D01*
X-18227Y261114D01*
X-1523Y261114D01*
X-1523Y244411D01*
X-18227Y244411D01*
G37*
%LPD*%
%LPC*%
G36*
X-18227Y224661D02*
X-18227Y224661D01*
X-18227Y241364D01*
X-1523Y241364D01*
X-1523Y224661D01*
X-18227Y224661D01*
G37*
%LPD*%
%LPC*%
G36*
X1523Y224661D02*
X1523Y224661D01*
X1523Y241364D01*
X18227Y241364D01*
X18227Y224661D01*
X1523Y224661D01*
G37*
%LPD*%
%LPC*%
G36*
X99400Y168655D02*
X99400Y168655D01*
X94043Y174012D01*
X94043Y181588D01*
X99400Y186945D01*
X106975Y186945D01*
X112332Y181588D01*
X112332Y174012D01*
X106975Y168655D01*
X99400Y168655D01*
G37*
%LPD*%
%LPC*%
G36*
X-59757Y8763D02*
X-59757Y8763D01*
X-60650Y9656D01*
X-60650Y15545D01*
X-60664Y15635D01*
X-60672Y15726D01*
X-60684Y15755D01*
X-60689Y15787D01*
X-60732Y15868D01*
X-60768Y15952D01*
X-60794Y15984D01*
X-60805Y16005D01*
X-60828Y16027D01*
X-60873Y16083D01*
X-65954Y21164D01*
X-65954Y24281D01*
X-65969Y24371D01*
X-65976Y24462D01*
X-65989Y24492D01*
X-65994Y24524D01*
X-66036Y24604D01*
X-66072Y24688D01*
X-66098Y24720D01*
X-66109Y24741D01*
X-66132Y24763D01*
X-66177Y24819D01*
X-67708Y26350D01*
X-67708Y30118D01*
X-65043Y32783D01*
X-61275Y32783D01*
X-58611Y30118D01*
X-58611Y26350D01*
X-60142Y24819D01*
X-60195Y24745D01*
X-60254Y24676D01*
X-60266Y24646D01*
X-60285Y24619D01*
X-60312Y24532D01*
X-60346Y24448D01*
X-60351Y24407D01*
X-60357Y24384D01*
X-60357Y24352D01*
X-60365Y24281D01*
X-60365Y23795D01*
X-60350Y23705D01*
X-60343Y23614D01*
X-60330Y23584D01*
X-60325Y23552D01*
X-60282Y23471D01*
X-60246Y23387D01*
X-60221Y23355D01*
X-60210Y23335D01*
X-60186Y23312D01*
X-60142Y23256D01*
X-56920Y20035D01*
X-56846Y19982D01*
X-56777Y19923D01*
X-56747Y19910D01*
X-56721Y19892D01*
X-56634Y19865D01*
X-56549Y19831D01*
X-56508Y19826D01*
X-56486Y19819D01*
X-56453Y19820D01*
X-56382Y19812D01*
X-50493Y19812D01*
X-50298Y19617D01*
X-50240Y19575D01*
X-50188Y19526D01*
X-50141Y19504D01*
X-50099Y19474D01*
X-50030Y19452D01*
X-49965Y19422D01*
X-49913Y19416D01*
X-49863Y19401D01*
X-49792Y19403D01*
X-49721Y19395D01*
X-49670Y19406D01*
X-49618Y19408D01*
X-49550Y19432D01*
X-49517Y19439D01*
X-49537Y19407D01*
X-49555Y19338D01*
X-49582Y19271D01*
X-49590Y19200D01*
X-49598Y19169D01*
X-49596Y19146D01*
X-49600Y19105D01*
X-49600Y9656D01*
X-50493Y8763D01*
X-59757Y8763D01*
G37*
%LPD*%
%LPC*%
G36*
X-44757Y8763D02*
X-44757Y8763D01*
X-45650Y9656D01*
X-45650Y16915D01*
X-45653Y16935D01*
X-45651Y16954D01*
X-45673Y17056D01*
X-45689Y17158D01*
X-45699Y17175D01*
X-45703Y17195D01*
X-45756Y17284D01*
X-45805Y17375D01*
X-45819Y17389D01*
X-45829Y17406D01*
X-45908Y17473D01*
X-45983Y17545D01*
X-46001Y17553D01*
X-46016Y17566D01*
X-46112Y17605D01*
X-46206Y17648D01*
X-46226Y17650D01*
X-46244Y17658D01*
X-46325Y17667D01*
X-48301Y19643D01*
X-48359Y19685D01*
X-48411Y19734D01*
X-48458Y19756D01*
X-48500Y19786D01*
X-48569Y19807D01*
X-48634Y19838D01*
X-48686Y19843D01*
X-48736Y19859D01*
X-48807Y19857D01*
X-48878Y19865D01*
X-48929Y19854D01*
X-48981Y19852D01*
X-49049Y19828D01*
X-49082Y19821D01*
X-49062Y19853D01*
X-49044Y19922D01*
X-49017Y19989D01*
X-49009Y20060D01*
X-49001Y20091D01*
X-49003Y20114D01*
X-48999Y20155D01*
X-48999Y24109D01*
X-46334Y26774D01*
X-42566Y26774D01*
X-39901Y24109D01*
X-39901Y21944D01*
X-39887Y21854D01*
X-39879Y21763D01*
X-39867Y21733D01*
X-39862Y21701D01*
X-39819Y21621D01*
X-39783Y21537D01*
X-39757Y21505D01*
X-39746Y21484D01*
X-39723Y21462D01*
X-39678Y21406D01*
X-38308Y20035D01*
X-38234Y19982D01*
X-38164Y19923D01*
X-38134Y19910D01*
X-38108Y19892D01*
X-38021Y19865D01*
X-37936Y19831D01*
X-37895Y19826D01*
X-37873Y19819D01*
X-37841Y19820D01*
X-37770Y19812D01*
X-35493Y19812D01*
X-34600Y18919D01*
X-34600Y9656D01*
X-35493Y8763D01*
X-44757Y8763D01*
G37*
%LPD*%
%LPC*%
G36*
X21273Y244411D02*
X21273Y244411D01*
X21273Y261114D01*
X29541Y261114D01*
X29541Y255053D01*
X29368Y254407D01*
X29033Y253828D01*
X28506Y253301D01*
X28495Y253285D01*
X28479Y253272D01*
X28423Y253185D01*
X28363Y253101D01*
X28357Y253082D01*
X28346Y253065D01*
X28321Y252965D01*
X28291Y252866D01*
X28291Y252846D01*
X28286Y252827D01*
X28294Y252724D01*
X28297Y252620D01*
X28304Y252601D01*
X28305Y252582D01*
X28346Y252487D01*
X28381Y252389D01*
X28394Y252373D01*
X28402Y252355D01*
X28506Y252224D01*
X29033Y251698D01*
X29368Y251118D01*
X29541Y250472D01*
X29541Y244411D01*
X21273Y244411D01*
G37*
%LPD*%
%LPC*%
G36*
X1523Y264161D02*
X1523Y264161D01*
X1523Y272428D01*
X7584Y272428D01*
X8231Y272255D01*
X8810Y271921D01*
X9337Y271394D01*
X9353Y271382D01*
X9365Y271367D01*
X9452Y271311D01*
X9536Y271250D01*
X9555Y271245D01*
X9572Y271234D01*
X9673Y271208D01*
X9772Y271178D01*
X9791Y271179D01*
X9811Y271174D01*
X9914Y271182D01*
X10017Y271184D01*
X10036Y271191D01*
X10056Y271193D01*
X10151Y271233D01*
X10248Y271269D01*
X10264Y271281D01*
X10282Y271289D01*
X10413Y271394D01*
X10940Y271921D01*
X11519Y272255D01*
X12166Y272428D01*
X18227Y272428D01*
X18227Y264161D01*
X1523Y264161D01*
G37*
%LPD*%
%LPC*%
G36*
X-29541Y244411D02*
X-29541Y244411D01*
X-29541Y250472D01*
X-29368Y251118D01*
X-29033Y251698D01*
X-28506Y252224D01*
X-28495Y252240D01*
X-28479Y252253D01*
X-28423Y252340D01*
X-28363Y252424D01*
X-28357Y252443D01*
X-28346Y252460D01*
X-28321Y252560D01*
X-28291Y252659D01*
X-28291Y252679D01*
X-28286Y252698D01*
X-28294Y252801D01*
X-28297Y252905D01*
X-28304Y252924D01*
X-28305Y252944D01*
X-28346Y253038D01*
X-28381Y253136D01*
X-28394Y253152D01*
X-28402Y253170D01*
X-28506Y253301D01*
X-29033Y253828D01*
X-29368Y254407D01*
X-29541Y255053D01*
X-29541Y261114D01*
X-21273Y261114D01*
X-21273Y244411D01*
X-29541Y244411D01*
G37*
%LPD*%
%LPC*%
G36*
X-18227Y264161D02*
X-18227Y264161D01*
X-18227Y272428D01*
X-12166Y272428D01*
X-11519Y272255D01*
X-10940Y271921D01*
X-10413Y271394D01*
X-10397Y271382D01*
X-10385Y271367D01*
X-10297Y271311D01*
X-10214Y271250D01*
X-10195Y271245D01*
X-10178Y271234D01*
X-10077Y271208D01*
X-9978Y271178D01*
X-9959Y271179D01*
X-9939Y271174D01*
X-9836Y271182D01*
X-9733Y271184D01*
X-9714Y271191D01*
X-9694Y271193D01*
X-9599Y271233D01*
X-9502Y271269D01*
X-9486Y271281D01*
X-9468Y271289D01*
X-9337Y271394D01*
X-8810Y271921D01*
X-8231Y272255D01*
X-7584Y272428D01*
X-1523Y272428D01*
X-1523Y264161D01*
X-18227Y264161D01*
G37*
%LPD*%
%LPC*%
G36*
X-29541Y224661D02*
X-29541Y224661D01*
X-29541Y230722D01*
X-29368Y231368D01*
X-29033Y231948D01*
X-28506Y232474D01*
X-28495Y232490D01*
X-28479Y232503D01*
X-28423Y232590D01*
X-28363Y232674D01*
X-28357Y232693D01*
X-28346Y232710D01*
X-28321Y232810D01*
X-28291Y232909D01*
X-28291Y232929D01*
X-28286Y232948D01*
X-28294Y233051D01*
X-28297Y233155D01*
X-28304Y233174D01*
X-28305Y233194D01*
X-28346Y233288D01*
X-28381Y233386D01*
X-28394Y233402D01*
X-28402Y233420D01*
X-28473Y233509D01*
X-28480Y233520D01*
X-28487Y233526D01*
X-28506Y233551D01*
X-29033Y234078D01*
X-29368Y234657D01*
X-29541Y235303D01*
X-29541Y241364D01*
X-21273Y241364D01*
X-21273Y224661D01*
X-29541Y224661D01*
G37*
%LPD*%
%LPC*%
G36*
X21273Y224661D02*
X21273Y224661D01*
X21273Y241364D01*
X29541Y241364D01*
X29541Y235303D01*
X29368Y234657D01*
X29033Y234077D01*
X28506Y233551D01*
X28495Y233535D01*
X28479Y233522D01*
X28449Y233476D01*
X28432Y233457D01*
X28419Y233429D01*
X28363Y233351D01*
X28357Y233332D01*
X28346Y233315D01*
X28321Y233215D01*
X28291Y233116D01*
X28291Y233096D01*
X28286Y233077D01*
X28294Y232974D01*
X28297Y232870D01*
X28304Y232851D01*
X28305Y232831D01*
X28346Y232737D01*
X28381Y232639D01*
X28394Y232623D01*
X28402Y232605D01*
X28506Y232474D01*
X29033Y231947D01*
X29368Y231368D01*
X29541Y230722D01*
X29541Y224661D01*
X21273Y224661D01*
G37*
%LPD*%
%LPC*%
G36*
X1523Y213347D02*
X1523Y213347D01*
X1523Y221614D01*
X18227Y221614D01*
X18227Y213347D01*
X12166Y213347D01*
X11519Y213520D01*
X10940Y213854D01*
X10413Y214381D01*
X10397Y214393D01*
X10385Y214408D01*
X10297Y214464D01*
X10214Y214525D01*
X10195Y214530D01*
X10178Y214541D01*
X10077Y214567D01*
X9978Y214597D01*
X9959Y214596D01*
X9939Y214601D01*
X9836Y214593D01*
X9733Y214591D01*
X9714Y214584D01*
X9694Y214582D01*
X9599Y214542D01*
X9502Y214506D01*
X9486Y214494D01*
X9468Y214486D01*
X9337Y214381D01*
X8810Y213854D01*
X8231Y213520D01*
X7584Y213347D01*
X1523Y213347D01*
G37*
%LPD*%
%LPC*%
G36*
X-18227Y213347D02*
X-18227Y213347D01*
X-18227Y221614D01*
X-1523Y221614D01*
X-1523Y213347D01*
X-7584Y213347D01*
X-8231Y213520D01*
X-8810Y213854D01*
X-9337Y214381D01*
X-9353Y214393D01*
X-9365Y214408D01*
X-9453Y214464D01*
X-9536Y214525D01*
X-9555Y214530D01*
X-9572Y214541D01*
X-9673Y214567D01*
X-9772Y214597D01*
X-9791Y214596D01*
X-9811Y214601D01*
X-9914Y214593D01*
X-10017Y214591D01*
X-10036Y214584D01*
X-10056Y214582D01*
X-10151Y214542D01*
X-10248Y214506D01*
X-10264Y214494D01*
X-10282Y214486D01*
X-10413Y214381D01*
X-10940Y213854D01*
X-11519Y213520D01*
X-12166Y213347D01*
X-18227Y213347D01*
G37*
%LPD*%
%LPC*%
G36*
X21273Y264161D02*
X21273Y264161D01*
X21273Y272428D01*
X27334Y272428D01*
X27981Y272255D01*
X28560Y271921D01*
X29033Y271448D01*
X29368Y270868D01*
X29541Y270222D01*
X29541Y264161D01*
X21273Y264161D01*
G37*
%LPD*%
%LPC*%
G36*
X-29541Y264161D02*
X-29541Y264161D01*
X-29541Y270222D01*
X-29368Y270868D01*
X-29033Y271448D01*
X-28560Y271921D01*
X-27981Y272255D01*
X-27334Y272428D01*
X-21273Y272428D01*
X-21273Y264161D01*
X-29541Y264161D01*
G37*
%LPD*%
%LPC*%
G36*
X21273Y213347D02*
X21273Y213347D01*
X21273Y221614D01*
X29541Y221614D01*
X29541Y215553D01*
X29368Y214907D01*
X29033Y214327D01*
X28560Y213854D01*
X27981Y213520D01*
X27334Y213347D01*
X21273Y213347D01*
G37*
%LPD*%
%LPC*%
G36*
X-27334Y213347D02*
X-27334Y213347D01*
X-27981Y213520D01*
X-28560Y213854D01*
X-29033Y214327D01*
X-29368Y214907D01*
X-29541Y215553D01*
X-29541Y221614D01*
X-21273Y221614D01*
X-21273Y213347D01*
X-27334Y213347D01*
G37*
%LPD*%
%LPC*%
G36*
X-58001Y283887D02*
X-58001Y283887D01*
X-58001Y288009D01*
X-57995Y288023D01*
X-57977Y288189D01*
X-57977Y290864D01*
X-53302Y290864D01*
X-53282Y290868D01*
X-53263Y290865D01*
X-53161Y290887D01*
X-53156Y290888D01*
X-48999Y290888D01*
X-48999Y285347D01*
X-50334Y285347D01*
X-50981Y285520D01*
X-51317Y285714D01*
X-51407Y285748D01*
X-51493Y285788D01*
X-51521Y285791D01*
X-51547Y285801D01*
X-51643Y285805D01*
X-51737Y285815D01*
X-51765Y285809D01*
X-51793Y285810D01*
X-51885Y285783D01*
X-51978Y285763D01*
X-52002Y285749D01*
X-52029Y285741D01*
X-52107Y285686D01*
X-52189Y285637D01*
X-52207Y285615D01*
X-52230Y285599D01*
X-52287Y285522D01*
X-52349Y285450D01*
X-52359Y285424D01*
X-52376Y285401D01*
X-52405Y285310D01*
X-52441Y285222D01*
X-52445Y285186D01*
X-52451Y285167D01*
X-52451Y285134D01*
X-52459Y285055D01*
X-52459Y283887D01*
X-58001Y283887D01*
G37*
%LPD*%
%LPC*%
G36*
X-85328Y284661D02*
X-85328Y284661D01*
X-85328Y288972D01*
X-85155Y289618D01*
X-84821Y290198D01*
X-84348Y290671D01*
X-83768Y291005D01*
X-83122Y291178D01*
X-79311Y291178D01*
X-79311Y284661D01*
X-85328Y284661D01*
G37*
%LPD*%
%LPC*%
G36*
X98923Y125348D02*
X98923Y125348D01*
X98923Y131366D01*
X103234Y131366D01*
X103881Y131193D01*
X104460Y130858D01*
X104933Y130385D01*
X105268Y129806D01*
X105441Y129159D01*
X105441Y125348D01*
X98923Y125348D01*
G37*
%LPD*%
%LPC*%
G36*
X89359Y125348D02*
X89359Y125348D01*
X89359Y129159D01*
X89532Y129806D01*
X89867Y130385D01*
X90340Y130858D01*
X90919Y131193D01*
X91566Y131366D01*
X95877Y131366D01*
X95877Y125348D01*
X89359Y125348D01*
G37*
%LPD*%
%LPC*%
G36*
X-76264Y284661D02*
X-76264Y284661D01*
X-76264Y291178D01*
X-72453Y291178D01*
X-71807Y291005D01*
X-71227Y290671D01*
X-70754Y290198D01*
X-70420Y289618D01*
X-70247Y288972D01*
X-70247Y284661D01*
X-76264Y284661D01*
G37*
%LPD*%
%LPC*%
G36*
X98923Y116284D02*
X98923Y116284D01*
X98923Y122302D01*
X105441Y122302D01*
X105441Y118490D01*
X105268Y117844D01*
X104933Y117265D01*
X104460Y116792D01*
X103881Y116457D01*
X103234Y116284D01*
X98923Y116284D01*
G37*
%LPD*%
%LPC*%
G36*
X-65541Y283887D02*
X-65541Y283887D01*
X-65541Y285222D01*
X-65368Y285868D01*
X-64999Y286507D01*
X-64975Y286570D01*
X-64942Y286629D01*
X-64932Y286684D01*
X-64912Y286737D01*
X-64909Y286805D01*
X-64897Y286871D01*
X-64905Y286926D01*
X-64903Y286983D01*
X-64922Y287048D01*
X-64931Y287114D01*
X-64963Y287187D01*
X-64973Y287219D01*
X-64985Y287236D01*
X-64999Y287268D01*
X-65368Y287907D01*
X-65541Y288553D01*
X-65541Y290864D01*
X-61023Y290864D01*
X-61023Y288189D01*
X-61020Y288170D01*
X-61022Y288150D01*
X-61000Y288049D01*
X-60983Y287947D01*
X-60974Y287929D01*
X-60970Y287910D01*
X-60917Y287821D01*
X-60868Y287729D01*
X-60854Y287716D01*
X-60844Y287699D01*
X-60765Y287631D01*
X-60690Y287560D01*
X-60672Y287552D01*
X-60657Y287539D01*
X-60561Y287500D01*
X-60467Y287456D01*
X-60447Y287454D01*
X-60429Y287447D01*
X-60262Y287428D01*
X-59999Y287428D01*
X-59999Y283887D01*
X-65541Y283887D01*
G37*
%LPD*%
%LPC*%
G36*
X-65541Y194911D02*
X-65541Y194911D01*
X-65541Y197222D01*
X-65368Y197868D01*
X-64999Y198507D01*
X-64975Y198570D01*
X-64942Y198629D01*
X-64932Y198684D01*
X-64912Y198737D01*
X-64909Y198805D01*
X-64897Y198871D01*
X-64905Y198926D01*
X-64903Y198983D01*
X-64922Y199048D01*
X-64931Y199114D01*
X-64963Y199187D01*
X-64973Y199219D01*
X-64985Y199236D01*
X-64999Y199268D01*
X-65368Y199907D01*
X-65541Y200553D01*
X-65541Y201888D01*
X-59999Y201888D01*
X-59999Y198347D01*
X-60262Y198347D01*
X-60282Y198344D01*
X-60301Y198346D01*
X-60403Y198324D01*
X-60505Y198307D01*
X-60522Y198298D01*
X-60542Y198293D01*
X-60631Y198240D01*
X-60722Y198192D01*
X-60736Y198178D01*
X-60753Y198167D01*
X-60820Y198089D01*
X-60891Y198014D01*
X-60900Y197996D01*
X-60913Y197980D01*
X-60952Y197884D01*
X-60995Y197791D01*
X-60997Y197771D01*
X-61005Y197752D01*
X-61023Y197586D01*
X-61023Y194911D01*
X-65541Y194911D01*
G37*
%LPD*%
%LPC*%
G36*
X-57977Y194911D02*
X-57977Y194911D01*
X-57977Y197586D01*
X-57980Y197605D01*
X-57978Y197625D01*
X-58000Y197726D01*
X-58001Y197732D01*
X-58001Y201888D01*
X-52459Y201888D01*
X-52459Y200553D01*
X-52632Y199907D01*
X-52967Y199328D01*
X-53510Y198784D01*
X-53536Y198749D01*
X-53568Y198719D01*
X-53607Y198650D01*
X-53653Y198585D01*
X-53666Y198543D01*
X-53688Y198504D01*
X-53702Y198426D01*
X-53726Y198350D01*
X-53725Y198306D01*
X-53733Y198263D01*
X-53722Y198184D01*
X-53719Y198104D01*
X-53704Y198063D01*
X-53698Y198019D01*
X-53640Y197886D01*
X-53635Y197873D01*
X-53633Y197870D01*
X-53459Y197222D01*
X-53459Y194911D01*
X-57977Y194911D01*
G37*
%LPD*%
%LPC*%
G36*
X16999Y290888D02*
X16999Y290888D01*
X23001Y290888D01*
X23001Y285347D01*
X21666Y285347D01*
X21019Y285520D01*
X20381Y285889D01*
X20317Y285913D01*
X20258Y285945D01*
X20203Y285956D01*
X20151Y285976D01*
X20083Y285978D01*
X20017Y285990D01*
X19961Y285983D01*
X19905Y285985D01*
X19840Y285966D01*
X19773Y285956D01*
X19700Y285924D01*
X19669Y285915D01*
X19652Y285903D01*
X19619Y285889D01*
X18981Y285520D01*
X18334Y285347D01*
X16999Y285347D01*
X16999Y290888D01*
G37*
%LPD*%
%LPC*%
G36*
X999Y290888D02*
X999Y290888D01*
X7001Y290888D01*
X7001Y285347D01*
X5666Y285347D01*
X5019Y285520D01*
X4381Y285889D01*
X4317Y285913D01*
X4258Y285945D01*
X4203Y285956D01*
X4151Y285976D01*
X4083Y285978D01*
X4017Y285990D01*
X3961Y285983D01*
X3905Y285985D01*
X3840Y285966D01*
X3773Y285956D01*
X3700Y285924D01*
X3669Y285915D01*
X3652Y285903D01*
X3619Y285889D01*
X2981Y285520D01*
X2334Y285347D01*
X999Y285347D01*
X999Y290888D01*
G37*
%LPD*%
%LPC*%
G36*
X32999Y290888D02*
X32999Y290888D01*
X39001Y290888D01*
X39001Y285347D01*
X37666Y285347D01*
X37019Y285520D01*
X36381Y285889D01*
X36317Y285913D01*
X36258Y285945D01*
X36203Y285956D01*
X36151Y285976D01*
X36083Y285978D01*
X36017Y285990D01*
X35961Y285983D01*
X35905Y285985D01*
X35840Y285966D01*
X35773Y285956D01*
X35700Y285924D01*
X35669Y285915D01*
X35652Y285903D01*
X35619Y285889D01*
X34981Y285520D01*
X34334Y285347D01*
X32999Y285347D01*
X32999Y290888D01*
G37*
%LPD*%
%LPC*%
G36*
X24999Y290888D02*
X24999Y290888D01*
X31001Y290888D01*
X31001Y285347D01*
X29666Y285347D01*
X29019Y285520D01*
X28381Y285889D01*
X28317Y285913D01*
X28258Y285945D01*
X28203Y285956D01*
X28151Y285976D01*
X28083Y285978D01*
X28017Y285990D01*
X27961Y285983D01*
X27905Y285985D01*
X27840Y285966D01*
X27773Y285956D01*
X27700Y285924D01*
X27669Y285915D01*
X27652Y285903D01*
X27619Y285889D01*
X26981Y285520D01*
X26334Y285347D01*
X24999Y285347D01*
X24999Y290888D01*
G37*
%LPD*%
%LPC*%
G36*
X8999Y290888D02*
X8999Y290888D01*
X15001Y290888D01*
X15001Y285347D01*
X13666Y285347D01*
X13019Y285520D01*
X12381Y285889D01*
X12317Y285913D01*
X12258Y285945D01*
X12203Y285956D01*
X12151Y285976D01*
X12083Y285978D01*
X12017Y285990D01*
X11961Y285983D01*
X11905Y285985D01*
X11840Y285966D01*
X11773Y285956D01*
X11700Y285924D01*
X11669Y285915D01*
X11652Y285903D01*
X11619Y285889D01*
X10981Y285520D01*
X10334Y285347D01*
X8999Y285347D01*
X8999Y290888D01*
G37*
%LPD*%
%LPC*%
G36*
X-39001Y290888D02*
X-39001Y290888D01*
X-32999Y290888D01*
X-32999Y285347D01*
X-34334Y285347D01*
X-34981Y285520D01*
X-35619Y285889D01*
X-35683Y285913D01*
X-35742Y285945D01*
X-35797Y285956D01*
X-35849Y285976D01*
X-35917Y285978D01*
X-35983Y285990D01*
X-36039Y285983D01*
X-36095Y285985D01*
X-36160Y285966D01*
X-36227Y285956D01*
X-36300Y285924D01*
X-36331Y285915D01*
X-36348Y285903D01*
X-36381Y285889D01*
X-37019Y285520D01*
X-37666Y285347D01*
X-39001Y285347D01*
X-39001Y290888D01*
G37*
%LPD*%
%LPC*%
G36*
X-7001Y290888D02*
X-7001Y290888D01*
X-999Y290888D01*
X-999Y285347D01*
X-2334Y285347D01*
X-2981Y285520D01*
X-3619Y285889D01*
X-3683Y285913D01*
X-3742Y285945D01*
X-3797Y285956D01*
X-3849Y285976D01*
X-3917Y285978D01*
X-3983Y285990D01*
X-4039Y285983D01*
X-4095Y285985D01*
X-4160Y285966D01*
X-4227Y285956D01*
X-4300Y285924D01*
X-4331Y285915D01*
X-4348Y285903D01*
X-4381Y285889D01*
X-5019Y285520D01*
X-5666Y285347D01*
X-7001Y285347D01*
X-7001Y290888D01*
G37*
%LPD*%
%LPC*%
G36*
X-47001Y290888D02*
X-47001Y290888D01*
X-40999Y290888D01*
X-40999Y285347D01*
X-42334Y285347D01*
X-42981Y285520D01*
X-43619Y285889D01*
X-43683Y285913D01*
X-43742Y285945D01*
X-43797Y285956D01*
X-43849Y285976D01*
X-43917Y285978D01*
X-43983Y285990D01*
X-44039Y285983D01*
X-44095Y285985D01*
X-44160Y285966D01*
X-44227Y285956D01*
X-44300Y285924D01*
X-44331Y285915D01*
X-44348Y285903D01*
X-44381Y285889D01*
X-45019Y285520D01*
X-45666Y285347D01*
X-47001Y285347D01*
X-47001Y290888D01*
G37*
%LPD*%
%LPC*%
G36*
X-15001Y290888D02*
X-15001Y290888D01*
X-8999Y290888D01*
X-8999Y285347D01*
X-10334Y285347D01*
X-10981Y285520D01*
X-11619Y285889D01*
X-11683Y285913D01*
X-11742Y285945D01*
X-11797Y285956D01*
X-11849Y285976D01*
X-11917Y285978D01*
X-11983Y285990D01*
X-12039Y285983D01*
X-12095Y285985D01*
X-12160Y285966D01*
X-12227Y285956D01*
X-12300Y285924D01*
X-12331Y285915D01*
X-12348Y285903D01*
X-12381Y285889D01*
X-13019Y285520D01*
X-13666Y285347D01*
X-15001Y285347D01*
X-15001Y290888D01*
G37*
%LPD*%
%LPC*%
G36*
X-31001Y290888D02*
X-31001Y290888D01*
X-24999Y290888D01*
X-24999Y285347D01*
X-26334Y285347D01*
X-26981Y285520D01*
X-27619Y285889D01*
X-27683Y285913D01*
X-27742Y285945D01*
X-27797Y285956D01*
X-27849Y285976D01*
X-27917Y285978D01*
X-27983Y285990D01*
X-28039Y285983D01*
X-28095Y285985D01*
X-28160Y285966D01*
X-28227Y285956D01*
X-28300Y285924D01*
X-28331Y285915D01*
X-28348Y285903D01*
X-28381Y285889D01*
X-29019Y285520D01*
X-29666Y285347D01*
X-31001Y285347D01*
X-31001Y290888D01*
G37*
%LPD*%
%LPC*%
G36*
X-23001Y290888D02*
X-23001Y290888D01*
X-16999Y290888D01*
X-16999Y285347D01*
X-18334Y285347D01*
X-18981Y285520D01*
X-19619Y285889D01*
X-19683Y285913D01*
X-19742Y285945D01*
X-19797Y285956D01*
X-19849Y285976D01*
X-19917Y285978D01*
X-19983Y285990D01*
X-20039Y285983D01*
X-20095Y285985D01*
X-20160Y285966D01*
X-20227Y285956D01*
X-20300Y285924D01*
X-20331Y285915D01*
X-20348Y285903D01*
X-20381Y285889D01*
X-21019Y285520D01*
X-21666Y285347D01*
X-23001Y285347D01*
X-23001Y290888D01*
G37*
%LPD*%
%LPC*%
G36*
X40999Y290888D02*
X40999Y290888D01*
X47001Y290888D01*
X47001Y285347D01*
X45666Y285347D01*
X45019Y285520D01*
X44381Y285889D01*
X44317Y285913D01*
X44258Y285945D01*
X44203Y285956D01*
X44151Y285976D01*
X44083Y285978D01*
X44017Y285990D01*
X43961Y285983D01*
X43905Y285985D01*
X43840Y285966D01*
X43773Y285956D01*
X43700Y285924D01*
X43669Y285915D01*
X43652Y285903D01*
X43619Y285889D01*
X42981Y285520D01*
X42334Y285347D01*
X40999Y285347D01*
X40999Y290888D01*
G37*
%LPD*%
%LPC*%
G36*
X-63334Y187347D02*
X-63334Y187347D01*
X-63981Y187520D01*
X-64560Y187854D01*
X-65033Y188327D01*
X-65368Y188907D01*
X-65541Y189553D01*
X-65541Y191864D01*
X-61023Y191864D01*
X-61023Y187347D01*
X-63334Y187347D01*
G37*
%LPD*%
%LPC*%
G36*
X61023Y187347D02*
X61023Y187347D01*
X61023Y191864D01*
X65541Y191864D01*
X65541Y189553D01*
X65368Y188907D01*
X65033Y188327D01*
X64560Y187854D01*
X63981Y187520D01*
X63334Y187347D01*
X61023Y187347D01*
G37*
%LPD*%
%LPC*%
G36*
X55666Y187347D02*
X55666Y187347D01*
X55019Y187520D01*
X54440Y187854D01*
X53967Y188327D01*
X53632Y188907D01*
X53459Y189553D01*
X53459Y191864D01*
X57977Y191864D01*
X57977Y187347D01*
X55666Y187347D01*
G37*
%LPD*%
%LPC*%
G36*
X-57977Y187347D02*
X-57977Y187347D01*
X-57977Y191864D01*
X-53459Y191864D01*
X-53459Y189553D01*
X-53632Y188907D01*
X-53967Y188327D01*
X-54440Y187854D01*
X-55019Y187520D01*
X-55666Y187347D01*
X-57977Y187347D01*
G37*
%LPD*%
%LPC*%
G36*
X-74891Y45812D02*
X-74891Y45812D01*
X-74891Y48897D01*
X-74718Y49543D01*
X-74383Y50123D01*
X-73910Y50596D01*
X-73331Y50930D01*
X-72684Y51103D01*
X-71099Y51103D01*
X-71099Y45812D01*
X-74891Y45812D01*
G37*
%LPD*%
%LPC*%
G36*
X-59016Y45812D02*
X-59016Y45812D01*
X-59016Y48897D01*
X-58843Y49543D01*
X-58508Y50123D01*
X-58035Y50596D01*
X-57456Y50930D01*
X-56809Y51103D01*
X-55224Y51103D01*
X-55224Y45812D01*
X-59016Y45812D01*
G37*
%LPD*%
%LPC*%
G36*
X-43141Y45812D02*
X-43141Y45812D01*
X-43141Y48897D01*
X-42968Y49543D01*
X-42633Y50123D01*
X-42160Y50596D01*
X-41581Y50930D01*
X-40934Y51103D01*
X-39349Y51103D01*
X-39349Y45812D01*
X-43141Y45812D01*
G37*
%LPD*%
%LPC*%
G36*
X-25678Y45812D02*
X-25678Y45812D01*
X-25678Y48897D01*
X-25505Y49543D01*
X-25171Y50123D01*
X-24698Y50596D01*
X-24118Y50930D01*
X-23472Y51103D01*
X-21887Y51103D01*
X-21887Y45812D01*
X-25678Y45812D01*
G37*
%LPD*%
%LPC*%
G36*
X47347Y42637D02*
X47347Y42637D01*
X47347Y45722D01*
X47520Y46368D01*
X47854Y46948D01*
X48327Y47421D01*
X48907Y47755D01*
X49553Y47928D01*
X51138Y47928D01*
X51138Y42637D01*
X47347Y42637D01*
G37*
%LPD*%
%LPC*%
G36*
X-68601Y45812D02*
X-68601Y45812D01*
X-68601Y51103D01*
X-67015Y51103D01*
X-66369Y50930D01*
X-65790Y50596D01*
X-65317Y50123D01*
X-64982Y49543D01*
X-64809Y48897D01*
X-64809Y45812D01*
X-68601Y45812D01*
G37*
%LPD*%
%LPC*%
G36*
X-19388Y45812D02*
X-19388Y45812D01*
X-19388Y51103D01*
X-17803Y51103D01*
X-17157Y50930D01*
X-16577Y50596D01*
X-16104Y50123D01*
X-15770Y49543D01*
X-15597Y48897D01*
X-15597Y45812D01*
X-19388Y45812D01*
G37*
%LPD*%
%LPC*%
G36*
X-36851Y45812D02*
X-36851Y45812D01*
X-36851Y51103D01*
X-35265Y51103D01*
X-34619Y50930D01*
X-34040Y50596D01*
X-33567Y50123D01*
X-33232Y49543D01*
X-33059Y48897D01*
X-33059Y45812D01*
X-36851Y45812D01*
G37*
%LPD*%
%LPC*%
G36*
X-52726Y45812D02*
X-52726Y45812D01*
X-52726Y51103D01*
X-51140Y51103D01*
X-50494Y50930D01*
X-49915Y50596D01*
X-49442Y50123D01*
X-49107Y49543D01*
X-48934Y48897D01*
X-48934Y45812D01*
X-52726Y45812D01*
G37*
%LPD*%
%LPC*%
G36*
X49553Y34847D02*
X49553Y34847D01*
X48907Y35020D01*
X48327Y35354D01*
X47854Y35827D01*
X47520Y36407D01*
X47347Y37053D01*
X47347Y40138D01*
X51138Y40138D01*
X51138Y34847D01*
X49553Y34847D01*
G37*
%LPD*%
%LPC*%
G36*
X-19751Y223137D02*
X-19751Y223137D01*
X-19751Y223138D01*
X-19749Y223138D01*
X-19749Y223137D01*
X-19751Y223137D01*
G37*
%LPD*%
%LPC*%
G36*
X19749Y242887D02*
X19749Y242887D01*
X19749Y242888D01*
X19751Y242888D01*
X19751Y242887D01*
X19749Y242887D01*
G37*
%LPD*%
%LPC*%
G36*
X-59501Y193387D02*
X-59501Y193387D01*
X-59501Y193388D01*
X-59499Y193388D01*
X-59499Y193387D01*
X-59501Y193387D01*
G37*
%LPD*%
%LPC*%
G36*
X-19751Y242887D02*
X-19751Y242887D01*
X-19751Y242888D01*
X-19749Y242888D01*
X-19749Y242887D01*
X-19751Y242887D01*
G37*
%LPD*%
%LPC*%
G36*
X97399Y123824D02*
X97399Y123824D01*
X97399Y123826D01*
X97401Y123826D01*
X97401Y123824D01*
X97399Y123824D01*
G37*
%LPD*%
%LPC*%
G36*
X-19751Y262637D02*
X-19751Y262637D01*
X-19751Y262638D01*
X-19749Y262638D01*
X-19749Y262637D01*
X-19751Y262637D01*
G37*
%LPD*%
%LPC*%
G36*
X19749Y262637D02*
X19749Y262637D01*
X19749Y262638D01*
X19751Y262638D01*
X19751Y262637D01*
X19749Y262637D01*
G37*
%LPD*%
%LPC*%
G36*
X19749Y223137D02*
X19749Y223137D01*
X19749Y223138D01*
X19751Y223138D01*
X19751Y223137D01*
X19749Y223137D01*
G37*
%LPD*%
%LPC*%
G36*
X-1Y242887D02*
X-1Y242887D01*
X-1Y242888D01*
X1Y242888D01*
X1Y242887D01*
X-1Y242887D01*
G37*
%LPD*%
%LPC*%
G36*
X-1Y262637D02*
X-1Y262637D01*
X-1Y262638D01*
X1Y262638D01*
X1Y262637D01*
X-1Y262637D01*
G37*
%LPD*%
%LPC*%
G36*
X-1Y223137D02*
X-1Y223137D01*
X-1Y223138D01*
X1Y223138D01*
X1Y223137D01*
X-1Y223137D01*
G37*
%LPD*%
D10*
X-55125Y14288D03*
X-40125Y14288D03*
D11*
X30163Y51825D03*
X30163Y68825D03*
D12*
X165100Y150588D03*
X82500Y7488D03*
X-82700Y7488D03*
X-165300Y150588D03*
X123800Y222088D03*
X123800Y79088D03*
X-100Y7488D03*
X-124000Y79088D03*
X-124000Y222088D03*
D13*
X103188Y177800D03*
D14*
X-122238Y177800D03*
X-122238Y152400D03*
X-122238Y127000D03*
D15*
X-59000Y282888D03*
X-59000Y274888D03*
X-59000Y266888D03*
X-59000Y258888D03*
X-59000Y250888D03*
X-59000Y242888D03*
X-59000Y234888D03*
X-59000Y226888D03*
X-59000Y218888D03*
X-59000Y210888D03*
X-59000Y202888D03*
D16*
X-48000Y193888D03*
X-40000Y193888D03*
X-32000Y193888D03*
X-24000Y193888D03*
X-16000Y193888D03*
X-8000Y193888D03*
X0Y193888D03*
X8000Y193888D03*
X16000Y193888D03*
X24000Y193888D03*
X32000Y193888D03*
X40000Y193888D03*
X48000Y193888D03*
D15*
X59000Y202888D03*
X59000Y210888D03*
X59000Y218888D03*
X59000Y226888D03*
X59000Y234888D03*
X59000Y242888D03*
X59000Y250888D03*
X59000Y258888D03*
X59000Y266888D03*
X59000Y274888D03*
X59000Y282888D03*
D16*
X48000Y291888D03*
X40000Y291888D03*
X32000Y291888D03*
X24000Y291888D03*
X16000Y291888D03*
X8000Y291888D03*
X0Y291888D03*
X-8000Y291888D03*
X-16000Y291888D03*
X-24000Y291888D03*
X-32000Y291888D03*
X-40000Y291888D03*
X-48000Y291888D03*
D17*
X0Y242888D03*
X19750Y262638D03*
X0Y262638D03*
X-19750Y262638D03*
X-19750Y242888D03*
X-19750Y223138D03*
X0Y223138D03*
X19750Y223138D03*
X19750Y242888D03*
D18*
X-59500Y292388D03*
X-59500Y193388D03*
X59500Y193388D03*
X59500Y292388D03*
D19*
X-67350Y81700D02*
X-67350Y70700D01*
X-72350Y70700D01*
X-72350Y81700D01*
X-67350Y81700D01*
X-67350Y75450D02*
X-72350Y75450D01*
X-72350Y80200D02*
X-67350Y80200D01*
X-56475Y81700D02*
X-56475Y70700D01*
X-56475Y81700D02*
X-51475Y81700D01*
X-51475Y70700D01*
X-56475Y70700D01*
X-56475Y75450D02*
X-51475Y75450D01*
X-51475Y80200D02*
X-56475Y80200D01*
X-35600Y81700D02*
X-35600Y70700D01*
X-40600Y70700D01*
X-40600Y81700D01*
X-35600Y81700D01*
X-35600Y75450D02*
X-40600Y75450D01*
X-40600Y80200D02*
X-35600Y80200D01*
X-18138Y81700D02*
X-18138Y70700D01*
X-23138Y70700D01*
X-23138Y81700D01*
X-18138Y81700D01*
X-18138Y75450D02*
X-23138Y75450D01*
X-23138Y80200D02*
X-18138Y80200D01*
D11*
X14288Y68825D03*
X14288Y51825D03*
D19*
X54825Y158075D02*
X65825Y158075D01*
X65825Y153075D01*
X54825Y153075D01*
X54825Y158075D01*
X54825Y157825D02*
X65825Y157825D01*
X42013Y153075D02*
X31013Y153075D01*
X31013Y158075D01*
X42013Y158075D01*
X42013Y153075D01*
X42013Y157825D02*
X31013Y157825D01*
X54888Y81700D02*
X54888Y70700D01*
X49888Y70700D01*
X49888Y81700D01*
X54888Y81700D01*
X54888Y75450D02*
X49888Y75450D01*
X49888Y80200D02*
X54888Y80200D01*
X78700Y81700D02*
X78700Y70700D01*
X73700Y70700D01*
X73700Y81700D01*
X78700Y81700D01*
X78700Y75450D02*
X73700Y75450D01*
X73700Y80200D02*
X78700Y80200D01*
D20*
X-38100Y44563D03*
X-38100Y66563D03*
X-53975Y44563D03*
X-53975Y66563D03*
X-69850Y44563D03*
X-69850Y66563D03*
X-20638Y44563D03*
X-20638Y66563D03*
D11*
X57150Y110100D03*
X57150Y93100D03*
X82550Y110100D03*
X82550Y93100D03*
X97400Y123825D03*
X80400Y123825D03*
X64063Y123825D03*
X47063Y123825D03*
D20*
X52388Y41388D03*
X52388Y63388D03*
X74613Y41388D03*
X74613Y63388D03*
D21*
X-77788Y283138D03*
X-77788Y266138D03*
D10*
X-76200Y236100D03*
X-76200Y221100D03*
D21*
X-77225Y250825D03*
X-94225Y250825D03*
D22*
X-49213Y282575D03*
X-20638Y282575D03*
X-4763Y282575D03*
X12700Y282575D03*
X26988Y282575D03*
X42863Y280988D03*
X-36513Y282575D03*
X-68263Y279400D03*
X71438Y292100D03*
X34925Y261938D03*
X-33338Y263525D03*
X34925Y242888D03*
X-33338Y242888D03*
X-50800Y203200D03*
X-69850Y293688D03*
X-33338Y222250D03*
X-19050Y209550D03*
X0Y209550D03*
X20638Y209550D03*
X34925Y222250D03*
X85725Y263525D03*
X49213Y204788D03*
X136525Y184150D03*
X142875Y173038D03*
X84138Y173038D03*
X-47625Y179388D03*
X-55563Y165100D03*
X-4763Y65088D03*
X-79375Y138113D03*
X63500Y173038D03*
X0Y77788D03*
D23*
X20450Y261938D02*
X34925Y261938D01*
X20450Y261938D02*
X19750Y262638D01*
X0Y262638D01*
X-19750Y262638D01*
X-32450Y262638D01*
X-33338Y263525D01*
X-33338Y242888D02*
X-19750Y242888D01*
X0Y242888D01*
X19750Y242888D01*
X34925Y242888D01*
X34925Y222250D02*
X20638Y222250D01*
X19750Y223138D01*
X0Y223138D01*
X-19750Y223138D01*
X-32212Y223138D01*
X-33338Y222250D01*
D24*
X-40000Y291888D02*
X-48000Y291888D01*
X-40000Y291888D02*
X-32000Y291888D01*
X-24000Y291888D01*
X-20638Y291888D01*
X-16000Y291888D01*
X-8000Y291888D01*
X-3175Y291888D01*
X0Y291888D01*
X8000Y291888D01*
X11113Y291888D01*
X16000Y291888D01*
X24000Y291888D01*
X28575Y291888D01*
X32000Y291888D01*
X40000Y291888D01*
X44450Y291888D01*
X48000Y291888D01*
X59000Y291888D01*
X59500Y292388D01*
X71150Y292388D01*
X71438Y292100D01*
X-48000Y291888D02*
X-59000Y291888D01*
X-59500Y292388D02*
X-68550Y292388D01*
X-69850Y293688D01*
X-59500Y292388D02*
X-59000Y291888D01*
X-59000Y282888D01*
X-59000Y274888D01*
X-59000Y282888D02*
X-49525Y282888D01*
X-49213Y282575D01*
X-49525Y290363D02*
X-48000Y291888D01*
X-49525Y290363D02*
X-49525Y282888D01*
X-40000Y291888D02*
X-36513Y288400D01*
X-36513Y282575D01*
X-20638Y282575D02*
X-20638Y291888D01*
X-3175Y291888D02*
X-3175Y284163D01*
X-4763Y282575D01*
X11113Y284163D02*
X11113Y291888D01*
X11113Y284163D02*
X12700Y282575D01*
X28575Y284163D02*
X28575Y291888D01*
X28575Y284163D02*
X26988Y282575D01*
X44450Y282575D02*
X44450Y291888D01*
X44450Y282575D02*
X42863Y280988D01*
X-59250Y283138D02*
X-77788Y283138D01*
X-59250Y283138D02*
X-59000Y282888D01*
X-59500Y202388D02*
X-59500Y193388D01*
X-59500Y202388D02*
X-59000Y202888D01*
X-58688Y203200D01*
X-50800Y203200D01*
X59500Y193388D02*
X63500Y189388D01*
X63500Y173038D01*
X-19050Y222438D02*
X-19750Y223138D01*
X-19050Y222438D02*
X-19050Y209550D01*
X0Y209550D02*
X0Y223138D01*
X20638Y222250D02*
X20638Y209550D01*
D25*
X55048Y197840D02*
X59500Y193388D01*
D26*
X55048Y197840D02*
X54794Y198094D01*
X53843Y198094D01*
X49213Y202724D01*
X49213Y204788D01*
D22*
X63500Y79375D03*
X22225Y88900D03*
X-44450Y22225D03*
D26*
X-40125Y17900D01*
X-40125Y14288D01*
D22*
X84138Y182563D03*
X-79375Y187325D03*
X-79375Y176213D03*
X-90488Y155575D03*
X-87313Y109538D03*
X-95250Y115888D03*
X-84138Y49213D03*
X-84138Y77788D03*
D23*
X-69850Y44563D02*
X-53975Y44563D01*
X-38100Y44563D01*
X-20638Y44563D01*
X-4763Y44563D02*
X-4763Y65088D01*
X-4763Y44563D02*
X-20638Y44563D01*
X-69850Y44563D02*
X-84138Y44563D01*
X-84138Y49213D01*
D22*
X22225Y103188D03*
X-42863Y44450D03*
D24*
X52388Y41388D02*
X53975Y41388D01*
D22*
X46038Y28575D03*
X53975Y25400D03*
D24*
X53975Y41388D02*
X74613Y41388D01*
D27*
X46038Y41388D02*
X46038Y28575D01*
X46038Y41388D02*
X53975Y41388D01*
X63500Y41388D01*
X63500Y79375D01*
X64063Y120688D02*
X64063Y123825D01*
X64063Y120688D02*
X68238Y120688D01*
X68238Y90488D02*
X69850Y90488D01*
X68238Y90488D02*
X68238Y120688D01*
D28*
X69850Y90488D02*
X69850Y88772D01*
D23*
X69850Y88264D01*
X67136Y88264D01*
X67136Y79375D01*
X63500Y79375D01*
D22*
X63500Y69850D03*
X-92075Y88900D03*
X-103188Y257175D03*
X-93663Y236538D03*
X-92075Y268288D03*
D26*
X116462Y214750D02*
X123800Y222088D01*
X116462Y214750D02*
X116462Y194638D01*
D22*
X116462Y194638D03*
X104435Y53328D03*
D26*
X107324Y62280D02*
X118601Y67857D01*
X110764Y59656D02*
X104435Y53328D01*
X110764Y59656D02*
X107324Y62280D01*
X118601Y67857D02*
X123800Y76863D01*
X123800Y79088D01*
D22*
X-109047Y51074D03*
D26*
X-109047Y64135D01*
X-124000Y79088D01*
D22*
X-63159Y28234D03*
D26*
X-63159Y22322D01*
X-55125Y14288D01*
D22*
X-17463Y185738D03*
D26*
X-16000Y187200D01*
X-16000Y193888D01*
D23*
X-122238Y177800D02*
X-122238Y152400D01*
D22*
X-57172Y122216D03*
D26*
X-59000Y226888D02*
X-63763Y226888D01*
X-68398Y222253D01*
X-68398Y212725D01*
X-69985Y211138D01*
X-71573Y136616D02*
X-57172Y122216D01*
D22*
X-69985Y211138D03*
D26*
X-71573Y209550D01*
X-71573Y136616D01*
D29*
X-11113Y114947D02*
X-11113Y171449D01*
X-69850Y76200D02*
X-69850Y66563D01*
X-33287Y92773D02*
X-11113Y114947D01*
X-33287Y92773D02*
X-52739Y92773D01*
X-65960Y79551D01*
X-65960Y81678D01*
X-69850Y77788D01*
X-69850Y76200D01*
X-11113Y171449D02*
X0Y182562D01*
X0Y193888D01*
X59000Y210888D02*
X67064Y210888D01*
X71438Y206514D01*
X71438Y144525D02*
X58675Y131763D01*
X55000Y131763D01*
X47063Y123825D01*
X71438Y144525D02*
X71438Y206514D01*
X47063Y123825D02*
X57150Y113738D01*
X57150Y110100D01*
X52388Y88338D02*
X52388Y76200D01*
X52388Y88338D02*
X57150Y93100D01*
D25*
X52388Y76200D02*
X52388Y63388D01*
D29*
X76200Y76200D02*
X82550Y82550D01*
X82550Y93100D01*
D25*
X76200Y76200D02*
X74613Y74613D01*
X74613Y63388D01*
D29*
X67064Y218888D02*
X59000Y218888D01*
X67064Y218888D02*
X74994Y210958D01*
X74994Y128269D01*
X79438Y123825D02*
X80400Y123825D01*
X79438Y123825D02*
X74994Y128269D01*
X80400Y123825D02*
X80400Y112250D01*
X82550Y110100D01*
X32000Y173224D02*
X32000Y193888D01*
X32000Y173224D02*
X14606Y155830D01*
X14606Y69144D01*
X14288Y68825D01*
D22*
X31750Y123825D03*
D29*
X40000Y174938D02*
X40000Y193888D01*
X31750Y123825D02*
X30163Y123825D01*
X24703Y129285D01*
X24703Y159640D02*
X40000Y174938D01*
X24703Y159640D02*
X24703Y129285D01*
D22*
X41379Y91971D03*
D24*
X41379Y80041D02*
X30163Y68825D01*
X41379Y80041D02*
X41379Y91971D01*
D22*
X-33689Y117395D03*
D29*
X-40039Y123745D01*
X-40039Y193849D01*
X-40000Y193888D01*
D26*
X-76200Y204788D02*
X-79375Y201613D01*
X-76200Y204788D02*
X-76200Y221100D01*
D22*
X-79375Y201613D03*
D26*
X-76200Y236100D02*
X-76200Y237164D01*
X-70507Y242857D02*
X-59031Y242857D01*
X-59000Y242888D01*
X-70507Y242857D02*
X-76200Y237164D01*
D22*
X-97544Y219238D03*
D26*
X-102306Y219238D01*
X-103568Y220500D01*
X-122413Y220500D01*
X-124000Y222088D01*
X-59013Y250901D02*
X-59000Y250888D01*
X-59013Y250901D02*
X-77225Y250825D01*
D22*
X15045Y184980D03*
D29*
X16000Y185935D02*
X16000Y193888D01*
X16000Y185935D02*
X15045Y184980D01*
X-3620Y110681D02*
X-38100Y76200D01*
X-3620Y110681D02*
X-3620Y165100D01*
X15045Y183765D01*
X15045Y184980D01*
X-38100Y76200D02*
X-38100Y66563D01*
D22*
X23382Y184732D03*
D29*
X24000Y184732D01*
X24000Y193888D01*
X-20638Y87707D02*
X-20638Y76200D01*
X-20638Y87707D02*
X127Y108471D01*
X127Y161477D02*
X23382Y184732D01*
X127Y161477D02*
X127Y108471D01*
X-20638Y76200D02*
X-20638Y66563D01*
D22*
X7595Y187907D03*
D29*
X-7366Y169863D02*
X-7366Y113284D01*
X-53975Y76200D02*
X-53975Y66563D01*
X-32640Y88010D02*
X-7366Y113284D01*
X-32640Y88010D02*
X-43753Y88010D01*
X-53975Y77788D01*
X-53975Y76200D01*
X-7366Y169863D02*
X7595Y184823D01*
X7595Y187907D01*
X8000Y188312D02*
X8000Y193888D01*
X8000Y188312D02*
X7595Y187907D01*
D22*
X15106Y31262D03*
D26*
X-769Y15387D01*
X-769Y8406D01*
X-100Y7736D02*
X-100Y7488D01*
X-100Y7736D02*
X-769Y8406D01*
D22*
X68263Y242888D03*
D26*
X59000Y242888D01*
D22*
X48138Y183081D03*
D25*
X48138Y179525D01*
X53048Y174614D01*
X53048Y162852D02*
X60325Y155575D01*
X53048Y162852D02*
X53048Y174614D01*
D22*
X69850Y252738D03*
D26*
X68000Y250888D01*
X59000Y250888D01*
D22*
X46976Y172099D03*
D25*
X46976Y166039D01*
X36513Y155575D01*
M02*
