G04 EAGLE Gerber RS-274X export*
G75*
%MOMM*%
%FSLAX34Y34*%
%LPD*%
%INTop Copper*%
%IPPOS*%
%AMOC8*
5,1,8,0,0,1.08239X$1,22.5*%
G01*
%ADD10R,0.800000X0.800000*%
%ADD11R,1.000000X1.100000*%
%ADD12C,1.000000*%
%ADD13P,1.649562X8X202.500000*%
%ADD14C,1.524000*%
%ADD15R,0.800000X0.400000*%
%ADD16R,0.400000X0.800000*%
%ADD17R,1.450000X1.450000*%
%ADD18R,0.700000X0.700000*%
%ADD19C,0.499997*%
%ADD20R,1.100000X1.000000*%
%ADD21R,0.500000X0.800000*%
%ADD22R,0.800000X0.500000*%
%ADD23C,0.756400*%
%ADD24C,0.609600*%
%ADD25C,0.406400*%
%ADD26C,0.254000*%

G36*
X281578Y190594D02*
X281578Y190594D01*
X281606Y190591D01*
X281674Y190614D01*
X281745Y190628D01*
X281768Y190644D01*
X281795Y190653D01*
X281850Y190700D01*
X281909Y190740D01*
X281924Y190764D01*
X281946Y190783D01*
X281977Y190847D01*
X282016Y190908D01*
X282021Y190936D01*
X282033Y190961D01*
X282042Y191063D01*
X282049Y191104D01*
X282047Y191114D01*
X282048Y191127D01*
X281805Y194177D01*
X281796Y194210D01*
X281792Y194257D01*
X281064Y197228D01*
X281049Y197259D01*
X281047Y197267D01*
X281062Y197318D01*
X281062Y197327D01*
X281065Y197335D01*
X281079Y197528D01*
X281095Y197719D01*
X281094Y197728D01*
X281094Y197737D01*
X281070Y197928D01*
X281048Y198119D01*
X281045Y198127D01*
X281044Y198136D01*
X280983Y198318D01*
X280923Y198502D01*
X280918Y198509D01*
X280916Y198518D01*
X280819Y198685D01*
X280725Y198852D01*
X280719Y198859D01*
X280715Y198867D01*
X280500Y199120D01*
X280096Y199524D01*
X279842Y200121D01*
X279829Y200141D01*
X279152Y201774D01*
X279152Y204188D01*
X279732Y205587D01*
X279741Y205617D01*
X279755Y205645D01*
X279799Y205808D01*
X279848Y205972D01*
X279851Y206003D01*
X279859Y206034D01*
X279886Y206364D01*
X279886Y217272D01*
X280699Y219233D01*
X282485Y221019D01*
X283487Y222021D01*
X283492Y222028D01*
X283499Y222033D01*
X283619Y222182D01*
X283742Y222332D01*
X283746Y222340D01*
X283751Y222347D01*
X283840Y222517D01*
X283930Y222688D01*
X283933Y222697D01*
X283937Y222704D01*
X283990Y222889D01*
X284045Y223074D01*
X284046Y223083D01*
X284048Y223091D01*
X284064Y223282D01*
X284081Y223475D01*
X284080Y223484D01*
X284081Y223493D01*
X284059Y223681D01*
X284038Y223875D01*
X284035Y223884D01*
X284034Y223892D01*
X283975Y224075D01*
X283917Y224259D01*
X283912Y224267D01*
X283909Y224275D01*
X283815Y224442D01*
X283722Y224611D01*
X283716Y224618D01*
X283712Y224626D01*
X283586Y224771D01*
X283461Y224918D01*
X283454Y224924D01*
X283448Y224931D01*
X283298Y225047D01*
X283145Y225168D01*
X283137Y225172D01*
X283130Y225177D01*
X282958Y225263D01*
X282786Y225350D01*
X282778Y225353D01*
X282770Y225357D01*
X282584Y225406D01*
X282399Y225458D01*
X282390Y225459D01*
X282381Y225461D01*
X282050Y225488D01*
X276478Y225488D01*
X275138Y226828D01*
X275138Y233591D01*
X275136Y233613D01*
X275138Y233636D01*
X275116Y233813D01*
X275098Y233992D01*
X275092Y234013D01*
X275089Y234035D01*
X275033Y234205D01*
X274980Y234377D01*
X274970Y234396D01*
X274963Y234417D01*
X274874Y234573D01*
X274788Y234731D01*
X274774Y234748D01*
X274763Y234767D01*
X274645Y234903D01*
X274531Y235040D01*
X274513Y235054D01*
X274499Y235071D01*
X274357Y235180D01*
X274217Y235292D01*
X274197Y235303D01*
X274179Y235316D01*
X273884Y235468D01*
X272225Y236155D01*
X270518Y237862D01*
X269594Y240093D01*
X269594Y242507D01*
X270518Y244738D01*
X272225Y246445D01*
X274455Y247369D01*
X276870Y247369D01*
X279100Y246445D01*
X280807Y244738D01*
X281731Y242507D01*
X281731Y241103D01*
X281734Y241076D01*
X281732Y241049D01*
X281754Y240875D01*
X281771Y240702D01*
X281779Y240677D01*
X281782Y240650D01*
X281838Y240484D01*
X281889Y240317D01*
X281902Y240294D01*
X281911Y240268D01*
X281998Y240116D01*
X282081Y239963D01*
X282098Y239943D01*
X282111Y239919D01*
X282326Y239666D01*
X283336Y238657D01*
X283357Y238640D01*
X283374Y238619D01*
X283512Y238512D01*
X283647Y238402D01*
X283671Y238389D01*
X283692Y238373D01*
X283849Y238295D01*
X284003Y238213D01*
X284029Y238205D01*
X284053Y238193D01*
X284222Y238148D01*
X284389Y238098D01*
X284416Y238096D01*
X284441Y238089D01*
X284772Y238062D01*
X286372Y238062D01*
X287489Y236945D01*
X287502Y236934D01*
X287514Y236920D01*
X287658Y236806D01*
X287800Y236690D01*
X287816Y236682D01*
X287830Y236671D01*
X287994Y236587D01*
X288156Y236502D01*
X288173Y236496D01*
X288189Y236488D01*
X288366Y236439D01*
X288542Y236387D01*
X288560Y236385D01*
X288577Y236380D01*
X288760Y236367D01*
X288943Y236350D01*
X288961Y236352D01*
X288978Y236351D01*
X289160Y236374D01*
X289343Y236394D01*
X289360Y236399D01*
X289378Y236401D01*
X289551Y236460D01*
X289727Y236515D01*
X289743Y236524D01*
X289759Y236530D01*
X289918Y236621D01*
X290079Y236710D01*
X290093Y236722D01*
X290108Y236731D01*
X290361Y236945D01*
X291478Y238062D01*
X301372Y238062D01*
X302712Y236722D01*
X302712Y226828D01*
X301312Y225428D01*
X301178Y225384D01*
X301002Y225330D01*
X300986Y225322D01*
X300969Y225316D01*
X300809Y225226D01*
X300648Y225138D01*
X300634Y225127D01*
X300619Y225118D01*
X300479Y224998D01*
X300339Y224881D01*
X300327Y224867D01*
X300314Y224855D01*
X300201Y224710D01*
X300086Y224567D01*
X300078Y224551D01*
X300067Y224537D01*
X299985Y224372D01*
X299901Y224210D01*
X299896Y224193D01*
X299888Y224177D01*
X299840Y223998D01*
X299789Y223823D01*
X299788Y223805D01*
X299783Y223788D01*
X299756Y223457D01*
X299756Y222630D01*
X298832Y220400D01*
X297125Y218693D01*
X294809Y217733D01*
X294764Y217729D01*
X294739Y217721D01*
X294712Y217718D01*
X294547Y217662D01*
X294379Y217611D01*
X294356Y217598D01*
X294330Y217589D01*
X294179Y217502D01*
X294025Y217419D01*
X294005Y217402D01*
X293982Y217389D01*
X293729Y217174D01*
X291151Y214596D01*
X291134Y214575D01*
X291114Y214558D01*
X291007Y214420D01*
X290896Y214285D01*
X290883Y214261D01*
X290867Y214240D01*
X290789Y214083D01*
X290707Y213929D01*
X290700Y213903D01*
X290688Y213879D01*
X290642Y213710D01*
X290592Y213543D01*
X290590Y213516D01*
X290583Y213490D01*
X290556Y213160D01*
X290556Y206364D01*
X290559Y206333D01*
X290557Y206302D01*
X290579Y206133D01*
X290596Y205964D01*
X290605Y205934D01*
X290609Y205903D01*
X290710Y205587D01*
X291290Y204188D01*
X291290Y201774D01*
X290366Y199543D01*
X289942Y199120D01*
X289937Y199113D01*
X289930Y199107D01*
X289810Y198958D01*
X289687Y198808D01*
X289683Y198800D01*
X289677Y198793D01*
X289590Y198624D01*
X289499Y198453D01*
X289496Y198444D01*
X289492Y198436D01*
X289439Y198253D01*
X289384Y198067D01*
X289383Y198058D01*
X289381Y198049D01*
X289365Y197859D01*
X289347Y197666D01*
X289348Y197657D01*
X289348Y197648D01*
X289370Y197457D01*
X289391Y197265D01*
X289394Y197257D01*
X289395Y197248D01*
X289454Y197065D01*
X289512Y196882D01*
X289517Y196874D01*
X289519Y196865D01*
X289615Y196696D01*
X289707Y196529D01*
X289713Y196522D01*
X289717Y196515D01*
X289843Y196369D01*
X289968Y196222D01*
X289975Y196217D01*
X289980Y196210D01*
X290132Y196092D01*
X290284Y195973D01*
X290292Y195969D01*
X290299Y195963D01*
X290472Y195877D01*
X290642Y195790D01*
X290651Y195788D01*
X290659Y195784D01*
X290847Y195733D01*
X291030Y195682D01*
X291039Y195682D01*
X291048Y195679D01*
X291379Y195652D01*
X318054Y195652D01*
X318205Y195667D01*
X318357Y195675D01*
X318405Y195687D01*
X318454Y195692D01*
X318600Y195737D01*
X318748Y195774D01*
X318792Y195796D01*
X318839Y195810D01*
X318973Y195883D01*
X319110Y195949D01*
X319156Y195982D01*
X319193Y196002D01*
X319259Y196057D01*
X319379Y196144D01*
X319432Y196190D01*
X319484Y196244D01*
X319498Y196256D01*
X319544Y196294D01*
X319623Y196391D01*
X319710Y196481D01*
X319751Y196546D01*
X319799Y196605D01*
X319858Y196716D01*
X319924Y196822D01*
X319952Y196893D01*
X319987Y196961D01*
X320037Y197117D01*
X320068Y197198D01*
X320074Y197234D01*
X320087Y197277D01*
X320280Y198120D01*
X320289Y198196D01*
X320308Y198270D01*
X320315Y198395D01*
X320330Y198520D01*
X320325Y198596D01*
X320328Y198673D01*
X320310Y198796D01*
X320302Y198908D01*
X320624Y199728D01*
X320642Y199792D01*
X320713Y200018D01*
X320910Y200883D01*
X320949Y200918D01*
X321024Y201019D01*
X321106Y201114D01*
X321143Y201180D01*
X321189Y201242D01*
X321260Y201388D01*
X321303Y201464D01*
X321314Y201498D01*
X321335Y201540D01*
X321651Y202345D01*
X321671Y202418D01*
X321701Y202489D01*
X321726Y202611D01*
X321760Y202732D01*
X321766Y202809D01*
X321781Y202883D01*
X321781Y203009D01*
X321789Y203120D01*
X322230Y203883D01*
X322258Y203944D01*
X322362Y204157D01*
X322686Y204983D01*
X322729Y205011D01*
X322818Y205100D01*
X322913Y205181D01*
X322960Y205242D01*
X323014Y205296D01*
X323107Y205430D01*
X323161Y205499D01*
X323177Y205531D01*
X323203Y205569D01*
X323635Y206318D01*
X323667Y206387D01*
X323707Y206453D01*
X323750Y206570D01*
X323801Y206684D01*
X323818Y206759D01*
X323845Y206831D01*
X323863Y206955D01*
X323888Y207063D01*
X324438Y207752D01*
X324474Y207809D01*
X324609Y208003D01*
X325052Y208772D01*
X325100Y208794D01*
X325201Y208868D01*
X325307Y208934D01*
X325362Y208987D01*
X325424Y209032D01*
X325536Y209151D01*
X325599Y209211D01*
X325620Y209241D01*
X325651Y209274D01*
X326190Y209950D01*
X326232Y210015D01*
X326281Y210073D01*
X326341Y210183D01*
X326409Y210288D01*
X326437Y210360D01*
X326474Y210427D01*
X326511Y210546D01*
X326552Y210650D01*
X327197Y211249D01*
X327242Y211300D01*
X327404Y211472D01*
X327957Y212166D01*
X328007Y212180D01*
X328118Y212239D01*
X328233Y212289D01*
X328296Y212333D01*
X328363Y212368D01*
X328492Y212469D01*
X328563Y212519D01*
X328588Y212545D01*
X328624Y212573D01*
X329258Y213161D01*
X329309Y213219D01*
X329366Y213269D01*
X329442Y213369D01*
X329525Y213463D01*
X329563Y213529D01*
X329609Y213590D01*
X329664Y213703D01*
X329720Y213800D01*
X330448Y214296D01*
X330499Y214339D01*
X330685Y214485D01*
X331336Y215089D01*
X331387Y215096D01*
X331505Y215137D01*
X331627Y215170D01*
X331695Y215203D01*
X331767Y215229D01*
X331909Y215309D01*
X331988Y215348D01*
X332016Y215370D01*
X332056Y215393D01*
X332770Y215880D01*
X332829Y215929D01*
X332893Y215970D01*
X332983Y216058D01*
X333079Y216138D01*
X333127Y216198D01*
X333181Y216251D01*
X333252Y216355D01*
X333322Y216442D01*
X334116Y216824D01*
X334173Y216859D01*
X334378Y216976D01*
X335112Y217476D01*
X335164Y217475D01*
X335287Y217498D01*
X335412Y217512D01*
X335484Y217536D01*
X335560Y217550D01*
X335712Y217608D01*
X335795Y217635D01*
X335826Y217652D01*
X335869Y217669D01*
X336648Y218044D01*
X336713Y218084D01*
X336783Y218115D01*
X336885Y218188D01*
X336992Y218254D01*
X337048Y218306D01*
X337110Y218350D01*
X337196Y218442D01*
X337277Y218518D01*
X338119Y218778D01*
X338181Y218804D01*
X338402Y218889D01*
X339201Y219274D01*
X339253Y219265D01*
X339378Y219270D01*
X339503Y219265D01*
X339579Y219277D01*
X339655Y219280D01*
X339815Y219315D01*
X339901Y219329D01*
X339935Y219341D01*
X339979Y219351D01*
X340806Y219606D01*
X340876Y219636D01*
X340950Y219657D01*
X341061Y219714D01*
X341177Y219762D01*
X341240Y219805D01*
X341308Y219840D01*
X341406Y219918D01*
X341498Y219981D01*
X342369Y220112D01*
X342435Y220129D01*
X342665Y220180D01*
X343514Y220441D01*
X343563Y220425D01*
X343688Y220411D01*
X343811Y220388D01*
X343887Y220389D01*
X343963Y220380D01*
X344126Y220391D01*
X344213Y220392D01*
X344248Y220399D01*
X344294Y220402D01*
X345149Y220531D01*
X345223Y220550D01*
X345299Y220560D01*
X345418Y220600D01*
X345539Y220631D01*
X345608Y220664D01*
X345681Y220688D01*
X345790Y220751D01*
X345890Y220799D01*
X346771Y220799D01*
X346838Y220805D01*
X347074Y220821D01*
X347951Y220954D01*
X347998Y220930D01*
X348119Y220898D01*
X348237Y220856D01*
X348313Y220846D01*
X348387Y220826D01*
X348550Y220812D01*
X348636Y220800D01*
X348672Y220802D01*
X348718Y220799D01*
X349582Y220799D01*
X349658Y220806D01*
X349735Y220804D01*
X349858Y220826D01*
X349983Y220839D01*
X350056Y220861D01*
X350131Y220874D01*
X350248Y220920D01*
X350355Y220953D01*
X351226Y220821D01*
X351293Y220818D01*
X351529Y220799D01*
X352416Y220799D01*
X352459Y220769D01*
X352574Y220718D01*
X352684Y220660D01*
X352758Y220638D01*
X352828Y220607D01*
X352987Y220570D01*
X353070Y220545D01*
X353106Y220542D01*
X353151Y220531D01*
X354006Y220402D01*
X354082Y220399D01*
X354157Y220385D01*
X354283Y220389D01*
X354408Y220382D01*
X354483Y220393D01*
X354560Y220395D01*
X354682Y220423D01*
X354806Y220442D01*
X354878Y220468D01*
X354953Y220485D01*
X355103Y220549D01*
X355185Y220578D01*
X355215Y220597D01*
X355258Y220615D01*
X355334Y220655D01*
X355441Y220727D01*
X355553Y220790D01*
X355609Y220838D01*
X355669Y220878D01*
X355761Y220969D01*
X355858Y221053D01*
X355903Y221111D01*
X355954Y221162D01*
X356026Y221269D01*
X356105Y221371D01*
X356137Y221436D01*
X356178Y221497D01*
X356227Y221616D01*
X356284Y221732D01*
X356303Y221802D01*
X356331Y221870D01*
X356355Y221996D01*
X356389Y222121D01*
X356396Y222205D01*
X356407Y222265D01*
X356407Y222340D01*
X356416Y222451D01*
X356416Y223231D01*
X357340Y225462D01*
X359047Y227169D01*
X361277Y228093D01*
X363692Y228093D01*
X365922Y227169D01*
X367629Y225462D01*
X368553Y223231D01*
X368553Y220817D01*
X367629Y218586D01*
X366986Y217943D01*
X366951Y217900D01*
X366910Y217862D01*
X366824Y217745D01*
X366731Y217632D01*
X366705Y217582D01*
X366672Y217537D01*
X366611Y217405D01*
X366543Y217276D01*
X366527Y217222D01*
X366503Y217172D01*
X366469Y217030D01*
X366428Y216890D01*
X366423Y216834D01*
X366410Y216780D01*
X366405Y216635D01*
X366391Y216489D01*
X366397Y216433D01*
X366395Y216378D01*
X366419Y216234D01*
X366435Y216089D01*
X366452Y216036D01*
X366461Y215980D01*
X366512Y215844D01*
X366556Y215705D01*
X366583Y215656D01*
X366603Y215604D01*
X366681Y215480D01*
X366751Y215353D01*
X366787Y215310D01*
X366817Y215263D01*
X366962Y215105D01*
X367012Y215046D01*
X367026Y215035D01*
X367041Y215018D01*
X367615Y214485D01*
X367668Y214445D01*
X367852Y214296D01*
X368586Y213796D01*
X368604Y213747D01*
X368671Y213641D01*
X368729Y213530D01*
X368777Y213471D01*
X368818Y213406D01*
X368928Y213286D01*
X368983Y213218D01*
X369011Y213195D01*
X369042Y213161D01*
X369676Y212573D01*
X369737Y212527D01*
X369791Y212474D01*
X369897Y212406D01*
X369997Y212330D01*
X370065Y212297D01*
X370130Y212255D01*
X370246Y212209D01*
X370347Y212161D01*
X370896Y211472D01*
X370943Y211424D01*
X371103Y211249D01*
X371753Y210646D01*
X371764Y210595D01*
X371814Y210480D01*
X371855Y210362D01*
X371894Y210296D01*
X371925Y210226D01*
X372016Y210090D01*
X372060Y210015D01*
X372084Y209988D01*
X372110Y209950D01*
X372649Y209274D01*
X372702Y209219D01*
X372748Y209158D01*
X372842Y209076D01*
X372930Y208986D01*
X372993Y208943D01*
X373050Y208892D01*
X373159Y208829D01*
X373251Y208766D01*
X373691Y208003D01*
X373731Y207949D01*
X373862Y207752D01*
X374416Y207059D01*
X374419Y207006D01*
X374451Y206885D01*
X374474Y206762D01*
X374503Y206691D01*
X374523Y206617D01*
X374593Y206470D01*
X374625Y206389D01*
X374645Y206359D01*
X374665Y206318D01*
X375097Y205569D01*
X375142Y205506D01*
X375178Y205439D01*
X375259Y205344D01*
X375332Y205242D01*
X375388Y205190D01*
X375437Y205131D01*
X375535Y205053D01*
X375616Y204977D01*
X375938Y204157D01*
X375969Y204097D01*
X376070Y203883D01*
X376514Y203115D01*
X376509Y203063D01*
X376523Y202938D01*
X376528Y202813D01*
X376545Y202738D01*
X376554Y202662D01*
X376601Y202506D01*
X376621Y202421D01*
X376636Y202389D01*
X376649Y202345D01*
X376965Y201540D01*
X377000Y201472D01*
X377026Y201400D01*
X377092Y201293D01*
X377149Y201181D01*
X377197Y201121D01*
X377236Y201056D01*
X377321Y200965D01*
X377391Y200877D01*
X377587Y200018D01*
X377608Y199954D01*
X377676Y199728D01*
X378001Y198902D01*
X377988Y198851D01*
X377984Y198726D01*
X377969Y198601D01*
X377976Y198525D01*
X377973Y198449D01*
X377996Y198287D01*
X378004Y198200D01*
X378014Y198166D01*
X378020Y198120D01*
X378213Y197277D01*
X378237Y197205D01*
X378252Y197130D01*
X378301Y197014D01*
X378341Y196896D01*
X378379Y196830D01*
X378408Y196759D01*
X378479Y196655D01*
X378541Y196547D01*
X378592Y196489D01*
X378635Y196426D01*
X378749Y196310D01*
X378807Y196244D01*
X378836Y196223D01*
X378868Y196190D01*
X378921Y196144D01*
X379046Y196057D01*
X379166Y195963D01*
X379210Y195941D01*
X379251Y195913D01*
X379390Y195852D01*
X379527Y195784D01*
X379575Y195771D01*
X379620Y195751D01*
X379768Y195719D01*
X379915Y195679D01*
X379971Y195675D01*
X380013Y195666D01*
X380099Y195664D01*
X380246Y195652D01*
X416850Y195652D01*
X416508Y194257D01*
X416506Y194223D01*
X416495Y194177D01*
X416252Y191127D01*
X416256Y191099D01*
X416251Y191071D01*
X416268Y191001D01*
X416276Y190930D01*
X416291Y190905D01*
X416297Y190878D01*
X416340Y190820D01*
X416376Y190757D01*
X416398Y190740D01*
X416415Y190717D01*
X416477Y190681D01*
X416534Y190637D01*
X416562Y190630D01*
X416586Y190616D01*
X416686Y190599D01*
X416727Y190589D01*
X416737Y190590D01*
X416750Y190588D01*
X435750Y190588D01*
X435826Y190604D01*
X435904Y190612D01*
X435923Y190623D01*
X435945Y190628D01*
X436009Y190672D01*
X436077Y190710D01*
X436093Y190729D01*
X436109Y190740D01*
X436133Y190778D01*
X436183Y190838D01*
X445683Y207338D01*
X445692Y207366D01*
X445708Y207389D01*
X445723Y207459D01*
X445746Y207527D01*
X445743Y207556D01*
X445749Y207584D01*
X445736Y207654D01*
X445730Y207725D01*
X445717Y207751D01*
X445711Y207779D01*
X445671Y207838D01*
X445638Y207902D01*
X445616Y207920D01*
X445600Y207944D01*
X445517Y208001D01*
X445485Y208028D01*
X445474Y208031D01*
X445464Y208039D01*
X442698Y209347D01*
X442665Y209355D01*
X442622Y209376D01*
X441264Y209767D01*
X453361Y230722D01*
X453418Y230847D01*
X453482Y230968D01*
X453500Y231030D01*
X453527Y231088D01*
X453558Y231222D01*
X453597Y231354D01*
X453603Y231418D01*
X453617Y231481D01*
X453621Y231618D01*
X453633Y231755D01*
X453626Y231819D01*
X453628Y231883D01*
X453605Y232018D01*
X453590Y232155D01*
X453570Y232217D01*
X453559Y232280D01*
X453510Y232408D01*
X453468Y232539D01*
X453437Y232596D01*
X453414Y232655D01*
X453340Y232771D01*
X453274Y232891D01*
X453232Y232940D01*
X453197Y232995D01*
X453102Y233094D01*
X453013Y233198D01*
X452963Y233238D01*
X452918Y233285D01*
X452805Y233363D01*
X452697Y233448D01*
X452640Y233477D01*
X452587Y233514D01*
X452461Y233568D01*
X452338Y233630D01*
X452276Y233648D01*
X452217Y233673D01*
X452083Y233701D01*
X451950Y233738D01*
X451886Y233743D01*
X451823Y233756D01*
X451686Y233758D01*
X451549Y233768D01*
X451485Y233760D01*
X451420Y233760D01*
X451286Y233734D01*
X451149Y233717D01*
X451088Y233697D01*
X451025Y233685D01*
X450898Y233633D01*
X450768Y233589D01*
X450712Y233557D01*
X450652Y233533D01*
X450538Y233457D01*
X450419Y233388D01*
X450362Y233340D01*
X450317Y233310D01*
X450260Y233254D01*
X450166Y233173D01*
X426264Y209271D01*
X423585Y206593D01*
X405481Y206593D01*
X405450Y206590D01*
X405418Y206592D01*
X405249Y206570D01*
X405080Y206553D01*
X405050Y206544D01*
X405019Y206540D01*
X404703Y206438D01*
X402845Y205668D01*
X400430Y205668D01*
X398200Y206592D01*
X396493Y208299D01*
X395569Y210530D01*
X395569Y212944D01*
X396493Y215175D01*
X398131Y216813D01*
X398137Y216820D01*
X398144Y216826D01*
X398264Y216975D01*
X398386Y217125D01*
X398391Y217133D01*
X398396Y217140D01*
X398485Y217310D01*
X398575Y217480D01*
X398578Y217489D01*
X398582Y217497D01*
X398635Y217681D01*
X398690Y217866D01*
X398691Y217875D01*
X398693Y217884D01*
X398709Y218075D01*
X398726Y218267D01*
X398725Y218276D01*
X398726Y218285D01*
X398704Y218474D01*
X398683Y218668D01*
X398680Y218676D01*
X398679Y218685D01*
X398620Y218867D01*
X398561Y219051D01*
X398557Y219059D01*
X398554Y219068D01*
X398460Y219235D01*
X398366Y219404D01*
X398361Y219411D01*
X398356Y219418D01*
X398231Y219563D01*
X398106Y219711D01*
X398099Y219716D01*
X398093Y219723D01*
X397943Y219840D01*
X397790Y219960D01*
X397782Y219964D01*
X397775Y219970D01*
X397604Y220055D01*
X397431Y220143D01*
X397422Y220145D01*
X397414Y220149D01*
X397228Y220199D01*
X397043Y220251D01*
X397034Y220251D01*
X397026Y220254D01*
X396695Y220281D01*
X390042Y220281D01*
X390016Y220278D01*
X389989Y220280D01*
X389815Y220258D01*
X389641Y220241D01*
X389616Y220233D01*
X389589Y220230D01*
X389424Y220174D01*
X389257Y220123D01*
X389233Y220110D01*
X389208Y220101D01*
X389056Y220014D01*
X388903Y219931D01*
X388882Y219914D01*
X388859Y219901D01*
X388606Y219686D01*
X387613Y218693D01*
X385382Y217769D01*
X382968Y217769D01*
X380737Y218693D01*
X379030Y220400D01*
X378106Y222630D01*
X378106Y225045D01*
X379030Y227275D01*
X380737Y228982D01*
X382968Y229906D01*
X385382Y229906D01*
X387613Y228982D01*
X388606Y227989D01*
X388627Y227972D01*
X388644Y227952D01*
X388782Y227845D01*
X388917Y227734D01*
X388941Y227722D01*
X388962Y227705D01*
X389119Y227627D01*
X389273Y227545D01*
X389299Y227538D01*
X389323Y227526D01*
X389492Y227480D01*
X389659Y227431D01*
X389686Y227428D01*
X389711Y227421D01*
X390042Y227394D01*
X404698Y227394D01*
X410453Y221639D01*
X410474Y221622D01*
X410492Y221602D01*
X410629Y221495D01*
X410765Y221384D01*
X410788Y221372D01*
X410810Y221355D01*
X410967Y221277D01*
X411121Y221195D01*
X411146Y221188D01*
X411170Y221176D01*
X411340Y221130D01*
X411506Y221081D01*
X411533Y221078D01*
X411559Y221071D01*
X411890Y221044D01*
X418635Y221044D01*
X418662Y221047D01*
X418689Y221045D01*
X418863Y221067D01*
X419036Y221084D01*
X419061Y221092D01*
X419088Y221095D01*
X419254Y221151D01*
X419421Y221202D01*
X419444Y221215D01*
X419470Y221224D01*
X419621Y221311D01*
X419775Y221394D01*
X419795Y221411D01*
X419819Y221424D01*
X420072Y221639D01*
X443979Y245546D01*
X443996Y245567D01*
X444016Y245584D01*
X444123Y245722D01*
X444234Y245858D01*
X444246Y245881D01*
X444263Y245902D01*
X444341Y246059D01*
X444422Y246213D01*
X444430Y246239D01*
X444442Y246263D01*
X444455Y246313D01*
X447252Y249110D01*
X450999Y252857D01*
X451002Y252860D01*
X451004Y252862D01*
X451128Y253013D01*
X451255Y253169D01*
X451256Y253172D01*
X451258Y253174D01*
X451351Y253351D01*
X451443Y253524D01*
X451444Y253528D01*
X451446Y253531D01*
X451502Y253721D01*
X451558Y253910D01*
X451558Y253914D01*
X451559Y253917D01*
X451576Y254110D01*
X451594Y254311D01*
X451594Y254315D01*
X451594Y254318D01*
X451573Y254512D01*
X451551Y254711D01*
X451550Y254715D01*
X451549Y254718D01*
X451454Y255036D01*
X451224Y255622D01*
X451189Y255690D01*
X451163Y255762D01*
X451097Y255869D01*
X451040Y255980D01*
X450992Y256040D01*
X450952Y256105D01*
X450867Y256197D01*
X450798Y256284D01*
X450602Y257143D01*
X450580Y257207D01*
X450512Y257433D01*
X450188Y258259D01*
X450200Y258310D01*
X450205Y258435D01*
X450219Y258560D01*
X450212Y258636D01*
X450215Y258713D01*
X450192Y258874D01*
X450184Y258961D01*
X450174Y258995D01*
X450168Y259041D01*
X449975Y259886D01*
X449950Y259959D01*
X449935Y260034D01*
X449886Y260149D01*
X449847Y260268D01*
X449808Y260334D01*
X449778Y260405D01*
X449708Y260508D01*
X449652Y260605D01*
X449586Y261483D01*
X449575Y261550D01*
X449541Y261784D01*
X449343Y262649D01*
X449363Y262697D01*
X449386Y262820D01*
X449419Y262941D01*
X449424Y263017D01*
X449438Y263093D01*
X449439Y263256D01*
X449445Y263343D01*
X449440Y263378D01*
X449440Y263424D01*
X449375Y264289D01*
X449362Y264364D01*
X449358Y264441D01*
X449327Y264562D01*
X449305Y264685D01*
X449277Y264757D01*
X449258Y264831D01*
X449204Y264943D01*
X449164Y265047D01*
X449229Y265926D01*
X449227Y265993D01*
X449229Y266230D01*
X449162Y267115D01*
X449189Y267159D01*
X449231Y267278D01*
X449281Y267392D01*
X449297Y267467D01*
X449322Y267539D01*
X449348Y267700D01*
X449366Y267786D01*
X449367Y267822D01*
X449374Y267867D01*
X449438Y268732D01*
X449437Y268808D01*
X449444Y268884D01*
X449432Y269009D01*
X449428Y269134D01*
X449412Y269209D01*
X449404Y269285D01*
X449367Y269405D01*
X449342Y269513D01*
X449538Y270372D01*
X449543Y270410D01*
X449552Y270443D01*
X449558Y270511D01*
X449583Y270673D01*
X449649Y271558D01*
X449682Y271598D01*
X449741Y271709D01*
X449808Y271815D01*
X449835Y271886D01*
X449871Y271954D01*
X449920Y272110D01*
X449951Y272191D01*
X449957Y272226D01*
X449971Y272270D01*
X450163Y273115D01*
X450173Y273191D01*
X450192Y273266D01*
X450198Y273391D01*
X450213Y273515D01*
X450208Y273591D01*
X450212Y273668D01*
X450193Y273792D01*
X450185Y273903D01*
X450506Y274723D01*
X450525Y274788D01*
X450596Y275013D01*
X450793Y275878D01*
X450832Y275914D01*
X450906Y276014D01*
X450988Y276109D01*
X451026Y276176D01*
X451071Y276237D01*
X451143Y276384D01*
X451186Y276460D01*
X451197Y276494D01*
X451217Y276535D01*
X451533Y277342D01*
X451554Y277416D01*
X451584Y277487D01*
X451609Y277609D01*
X451643Y277730D01*
X451648Y277806D01*
X451663Y277881D01*
X451664Y278007D01*
X451672Y278118D01*
X452112Y278881D01*
X452140Y278942D01*
X452244Y279154D01*
X452568Y279981D01*
X452611Y280009D01*
X452700Y280098D01*
X452795Y280180D01*
X452842Y280240D01*
X452896Y280294D01*
X452989Y280428D01*
X453043Y280497D01*
X453059Y280529D01*
X453085Y280567D01*
X453518Y281318D01*
X453550Y281387D01*
X453590Y281453D01*
X453632Y281571D01*
X453684Y281685D01*
X453701Y281759D01*
X453727Y281831D01*
X453746Y281955D01*
X453771Y282064D01*
X454320Y282753D01*
X454356Y282809D01*
X454491Y283004D01*
X454934Y283772D01*
X454982Y283794D01*
X455083Y283869D01*
X455189Y283935D01*
X455244Y283988D01*
X455306Y284033D01*
X455418Y284152D01*
X455481Y284212D01*
X455502Y284242D01*
X455533Y284275D01*
X456073Y284953D01*
X456115Y285017D01*
X456164Y285076D01*
X456224Y285186D01*
X456292Y285291D01*
X456320Y285362D01*
X456356Y285430D01*
X456393Y285549D01*
X456434Y285653D01*
X457080Y286253D01*
X457125Y286303D01*
X457286Y286475D01*
X457839Y287169D01*
X457889Y287184D01*
X458000Y287242D01*
X458115Y287292D01*
X458178Y287336D01*
X458246Y287372D01*
X458374Y287473D01*
X458445Y287523D01*
X458470Y287548D01*
X458506Y287577D01*
X459142Y288167D01*
X459192Y288224D01*
X459250Y288275D01*
X459325Y288375D01*
X459408Y288469D01*
X459446Y288535D01*
X459493Y288596D01*
X459547Y288709D01*
X459603Y288805D01*
X460331Y289302D01*
X460383Y289345D01*
X460568Y289491D01*
X461218Y290095D01*
X461270Y290102D01*
X461389Y290143D01*
X461509Y290176D01*
X461578Y290210D01*
X461650Y290235D01*
X461792Y290316D01*
X461870Y290354D01*
X461899Y290376D01*
X461939Y290399D01*
X462655Y290887D01*
X462714Y290937D01*
X462778Y290978D01*
X462867Y291066D01*
X462963Y291146D01*
X463011Y291206D01*
X463066Y291259D01*
X463137Y291363D01*
X463206Y291450D01*
X464000Y291832D01*
X464057Y291868D01*
X464263Y291984D01*
X464996Y292484D01*
X465048Y292484D01*
X465171Y292507D01*
X465296Y292521D01*
X465368Y292544D01*
X465444Y292558D01*
X465596Y292617D01*
X465679Y292644D01*
X465710Y292661D01*
X465753Y292678D01*
X466534Y293054D01*
X466599Y293094D01*
X466669Y293125D01*
X466771Y293199D01*
X466878Y293264D01*
X466934Y293316D01*
X466996Y293360D01*
X467081Y293452D01*
X467163Y293528D01*
X468005Y293788D01*
X468067Y293814D01*
X468288Y293899D01*
X469087Y294284D01*
X469138Y294276D01*
X469264Y294280D01*
X469389Y294276D01*
X469464Y294288D01*
X469541Y294291D01*
X469700Y294326D01*
X469786Y294340D01*
X469820Y294352D01*
X469865Y294362D01*
X470693Y294618D01*
X470764Y294648D01*
X470837Y294669D01*
X470949Y294726D01*
X471064Y294774D01*
X471127Y294817D01*
X471196Y294852D01*
X471293Y294930D01*
X471386Y294993D01*
X472257Y295125D01*
X472322Y295141D01*
X472553Y295192D01*
X473401Y295454D01*
X473451Y295438D01*
X473575Y295424D01*
X473698Y295401D01*
X473774Y295402D01*
X473851Y295393D01*
X474013Y295404D01*
X474100Y295405D01*
X474136Y295412D01*
X474182Y295415D01*
X475039Y295545D01*
X475113Y295564D01*
X475189Y295573D01*
X475307Y295613D01*
X475429Y295644D01*
X475498Y295677D01*
X475570Y295702D01*
X475679Y295764D01*
X475779Y295813D01*
X476661Y295813D01*
X476727Y295820D01*
X476963Y295836D01*
X477841Y295968D01*
X477887Y295945D01*
X478008Y295913D01*
X478127Y295871D01*
X478202Y295860D01*
X478276Y295841D01*
X478439Y295827D01*
X478525Y295815D01*
X478561Y295817D01*
X478607Y295814D01*
X479474Y295814D01*
X479550Y295821D01*
X479627Y295820D01*
X479750Y295841D01*
X479874Y295854D01*
X479948Y295876D01*
X480023Y295890D01*
X480140Y295935D01*
X480246Y295968D01*
X481118Y295837D01*
X481185Y295834D01*
X481420Y295814D01*
X482308Y295815D01*
X482350Y295785D01*
X482465Y295735D01*
X482576Y295676D01*
X482649Y295654D01*
X482719Y295624D01*
X482878Y295586D01*
X482962Y295561D01*
X482998Y295558D01*
X483042Y295548D01*
X483900Y295419D01*
X483976Y295415D01*
X484051Y295402D01*
X484177Y295405D01*
X484302Y295398D01*
X484377Y295410D01*
X484454Y295412D01*
X484576Y295440D01*
X484686Y295456D01*
X485528Y295197D01*
X485594Y295183D01*
X485824Y295129D01*
X486702Y294997D01*
X486740Y294961D01*
X486846Y294895D01*
X486946Y294820D01*
X487016Y294787D01*
X487081Y294747D01*
X487232Y294686D01*
X487311Y294649D01*
X487346Y294641D01*
X487389Y294623D01*
X488217Y294368D01*
X488292Y294353D01*
X488364Y294329D01*
X488489Y294313D01*
X488612Y294288D01*
X488688Y294288D01*
X488764Y294279D01*
X488889Y294288D01*
X489014Y294288D01*
X489089Y294303D01*
X489165Y294309D01*
X489324Y294350D01*
X489409Y294367D01*
X489442Y294381D01*
X489486Y294392D01*
X489570Y294421D01*
X489708Y294486D01*
X489849Y294543D01*
X489890Y294571D01*
X489935Y294592D01*
X490057Y294681D01*
X490184Y294766D01*
X490219Y294801D01*
X490259Y294830D01*
X490361Y294942D01*
X490469Y295050D01*
X490501Y295096D01*
X490530Y295128D01*
X490574Y295202D01*
X490658Y295323D01*
X508932Y326976D01*
X509981Y325969D01*
X510009Y325951D01*
X510043Y325918D01*
X512566Y324177D01*
X512593Y324165D01*
X512615Y324147D01*
X512684Y324127D01*
X512749Y324099D01*
X512778Y324098D01*
X512806Y324090D01*
X512877Y324098D01*
X512948Y324098D01*
X512975Y324109D01*
X513004Y324112D01*
X513066Y324148D01*
X513131Y324175D01*
X513152Y324196D01*
X513177Y324210D01*
X513240Y324287D01*
X513270Y324318D01*
X513274Y324328D01*
X513283Y324338D01*
X522783Y340838D01*
X522793Y340870D01*
X522802Y340883D01*
X522806Y340908D01*
X522807Y340911D01*
X522838Y340982D01*
X522838Y341005D01*
X522846Y341027D01*
X522840Y341104D01*
X522841Y341181D01*
X522831Y341205D01*
X522830Y341225D01*
X522809Y341265D01*
X522783Y341337D01*
X513283Y357837D01*
X513264Y357858D01*
X513251Y357885D01*
X513198Y357932D01*
X513151Y357986D01*
X513125Y357998D01*
X513104Y358018D01*
X513036Y358041D01*
X512972Y358072D01*
X512943Y358073D01*
X512916Y358082D01*
X512844Y358078D01*
X512773Y358081D01*
X512746Y358071D01*
X512717Y358069D01*
X512627Y358026D01*
X512587Y358012D01*
X512579Y358004D01*
X512566Y357998D01*
X510043Y356257D01*
X510019Y356232D01*
X509981Y356206D01*
X508932Y355199D01*
X507680Y357368D01*
X507632Y357435D01*
X507592Y357507D01*
X507515Y357598D01*
X507445Y357696D01*
X507385Y357751D01*
X507331Y357814D01*
X507238Y357888D01*
X507150Y357970D01*
X507080Y358013D01*
X507016Y358064D01*
X506909Y358118D01*
X506807Y358181D01*
X506730Y358209D01*
X506657Y358246D01*
X506541Y358278D01*
X506429Y358319D01*
X506348Y358332D01*
X506269Y358354D01*
X506149Y358363D01*
X506031Y358381D01*
X505949Y358377D01*
X505867Y358383D01*
X505748Y358368D01*
X505629Y358363D01*
X505549Y358343D01*
X505468Y358333D01*
X505354Y358295D01*
X505238Y358266D01*
X505164Y358231D01*
X505086Y358205D01*
X504982Y358145D01*
X504874Y358094D01*
X504808Y358045D01*
X504737Y358004D01*
X504621Y357905D01*
X504551Y357853D01*
X504524Y357823D01*
X504484Y357789D01*
X503500Y356805D01*
X501270Y355881D01*
X498855Y355881D01*
X497457Y356461D01*
X497427Y356470D01*
X497399Y356484D01*
X497234Y356528D01*
X497071Y356577D01*
X497040Y356580D01*
X497010Y356588D01*
X496679Y356615D01*
X483016Y356615D01*
X483011Y356616D01*
X482997Y356620D01*
X482809Y356635D01*
X482623Y356653D01*
X482610Y356651D01*
X482596Y356652D01*
X482410Y356631D01*
X482223Y356611D01*
X482210Y356607D01*
X482196Y356606D01*
X482018Y356547D01*
X481838Y356491D01*
X481826Y356485D01*
X481814Y356481D01*
X481650Y356388D01*
X481485Y356298D01*
X481475Y356290D01*
X481463Y356283D01*
X481321Y356160D01*
X481177Y356039D01*
X481168Y356029D01*
X481158Y356020D01*
X481043Y355872D01*
X480926Y355724D01*
X480920Y355712D01*
X480911Y355702D01*
X480828Y355534D01*
X480742Y355366D01*
X480738Y355353D01*
X480732Y355341D01*
X480683Y355159D01*
X480632Y354979D01*
X480631Y354965D01*
X480628Y354952D01*
X480600Y354622D01*
X480600Y353333D01*
X477922Y350655D01*
X475770Y348502D01*
X475753Y348482D01*
X475733Y348464D01*
X475626Y348326D01*
X475515Y348191D01*
X475502Y348167D01*
X475486Y348146D01*
X475408Y347990D01*
X475326Y347835D01*
X475319Y347810D01*
X475307Y347786D01*
X475261Y347617D01*
X475211Y347449D01*
X475209Y347423D01*
X475202Y347397D01*
X475175Y347066D01*
X475175Y345662D01*
X474251Y343431D01*
X472544Y341724D01*
X470313Y340800D01*
X467899Y340800D01*
X467044Y341154D01*
X466880Y341204D01*
X466717Y341258D01*
X466687Y341262D01*
X466659Y341271D01*
X466489Y341287D01*
X466318Y341308D01*
X466288Y341306D01*
X466258Y341309D01*
X466088Y341291D01*
X465916Y341278D01*
X465887Y341270D01*
X465858Y341267D01*
X465693Y341216D01*
X465528Y341170D01*
X465502Y341156D01*
X465473Y341147D01*
X465322Y341065D01*
X465170Y340987D01*
X465146Y340968D01*
X465120Y340954D01*
X464989Y340844D01*
X464854Y340737D01*
X464835Y340714D01*
X464812Y340695D01*
X464705Y340561D01*
X464594Y340430D01*
X464580Y340404D01*
X464561Y340380D01*
X464482Y340227D01*
X464400Y340077D01*
X464391Y340049D01*
X464377Y340022D01*
X464330Y339857D01*
X464279Y339693D01*
X464274Y339660D01*
X464267Y339635D01*
X464261Y339550D01*
X464237Y339364D01*
X463142Y313614D01*
X447826Y298299D01*
X447809Y298278D01*
X447789Y298261D01*
X447682Y298123D01*
X447571Y297987D01*
X447559Y297964D01*
X447542Y297943D01*
X447464Y297785D01*
X447383Y297632D01*
X447375Y297606D01*
X447363Y297582D01*
X447317Y297413D01*
X447268Y297246D01*
X447265Y297219D01*
X447258Y297193D01*
X447231Y296863D01*
X447231Y279426D01*
X432068Y279426D01*
X432050Y279424D01*
X432032Y279426D01*
X431850Y279404D01*
X431667Y279386D01*
X431650Y279381D01*
X431633Y279379D01*
X431458Y279322D01*
X431282Y279268D01*
X431267Y279259D01*
X431250Y279254D01*
X431090Y279164D01*
X430928Y279076D01*
X430915Y279065D01*
X430899Y279056D01*
X430760Y278936D01*
X430619Y278818D01*
X430608Y278805D01*
X430594Y278793D01*
X430482Y278648D01*
X430367Y278505D01*
X430359Y278489D01*
X430348Y278475D01*
X430266Y278310D01*
X430181Y278147D01*
X430176Y278130D01*
X430168Y278114D01*
X430121Y277936D01*
X430070Y277760D01*
X430068Y277743D01*
X430064Y277725D01*
X430050Y277553D01*
X428697Y276201D01*
X418803Y276201D01*
X417854Y277149D01*
X417847Y277155D01*
X417842Y277162D01*
X417691Y277283D01*
X417543Y277404D01*
X417535Y277409D01*
X417528Y277414D01*
X417358Y277503D01*
X417187Y277593D01*
X417178Y277596D01*
X417171Y277600D01*
X416986Y277653D01*
X416801Y277708D01*
X416792Y277709D01*
X416784Y277711D01*
X416593Y277727D01*
X416400Y277744D01*
X416391Y277743D01*
X416382Y277744D01*
X416193Y277722D01*
X416000Y277701D01*
X415991Y277698D01*
X415983Y277697D01*
X415801Y277638D01*
X415616Y277579D01*
X415608Y277575D01*
X415600Y277572D01*
X415433Y277478D01*
X415264Y277384D01*
X415257Y277379D01*
X415249Y277374D01*
X415104Y277249D01*
X414957Y277124D01*
X414951Y277117D01*
X414944Y277111D01*
X414827Y276959D01*
X414707Y276808D01*
X414703Y276800D01*
X414698Y276793D01*
X414613Y276622D01*
X414525Y276449D01*
X414522Y276440D01*
X414518Y276432D01*
X414468Y276246D01*
X414417Y276061D01*
X414416Y276052D01*
X414414Y276044D01*
X414387Y275713D01*
X414387Y251704D01*
X413729Y250116D01*
X407439Y243826D01*
X405852Y243169D01*
X373023Y243169D01*
X371436Y243826D01*
X368603Y246659D01*
X368589Y246670D01*
X368578Y246684D01*
X368433Y246798D01*
X368292Y246914D01*
X368276Y246922D01*
X368262Y246934D01*
X368097Y247017D01*
X367936Y247103D01*
X367919Y247108D01*
X367903Y247116D01*
X367726Y247165D01*
X367550Y247217D01*
X367532Y247219D01*
X367515Y247224D01*
X367332Y247237D01*
X367149Y247254D01*
X367131Y247252D01*
X367113Y247253D01*
X366932Y247230D01*
X366749Y247210D01*
X366732Y247205D01*
X366714Y247203D01*
X366541Y247145D01*
X366365Y247089D01*
X366349Y247080D01*
X366332Y247075D01*
X366173Y246983D01*
X366013Y246894D01*
X365999Y246883D01*
X365983Y246874D01*
X365730Y246659D01*
X365285Y246213D01*
X353390Y246213D01*
X352051Y247553D01*
X352051Y258495D01*
X352049Y258512D01*
X352050Y258530D01*
X352029Y258712D01*
X352011Y258895D01*
X352006Y258912D01*
X352004Y258930D01*
X351947Y259104D01*
X351893Y259280D01*
X351884Y259296D01*
X351879Y259313D01*
X351788Y259473D01*
X351701Y259634D01*
X351690Y259648D01*
X351681Y259663D01*
X351561Y259803D01*
X351443Y259943D01*
X351429Y259955D01*
X351418Y259968D01*
X351273Y260081D01*
X351129Y260196D01*
X351114Y260204D01*
X351100Y260215D01*
X350935Y260297D01*
X350772Y260381D01*
X350755Y260386D01*
X350739Y260394D01*
X350561Y260442D01*
X350385Y260493D01*
X350367Y260494D01*
X350350Y260499D01*
X350020Y260526D01*
X342628Y260526D01*
X341255Y261899D01*
X341234Y261916D01*
X341217Y261936D01*
X341079Y262043D01*
X340943Y262154D01*
X340920Y262166D01*
X340898Y262183D01*
X340742Y262261D01*
X340588Y262343D01*
X340562Y262350D01*
X340538Y262362D01*
X340369Y262408D01*
X340202Y262457D01*
X340175Y262460D01*
X340149Y262467D01*
X339818Y262494D01*
X337705Y262494D01*
X337679Y262491D01*
X337652Y262493D01*
X337478Y262471D01*
X337305Y262454D01*
X337279Y262446D01*
X337253Y262443D01*
X337087Y262387D01*
X336920Y262336D01*
X336896Y262323D01*
X336871Y262314D01*
X336719Y262227D01*
X336566Y262144D01*
X336545Y262127D01*
X336522Y262114D01*
X336269Y261899D01*
X333023Y258653D01*
X333009Y258636D01*
X332992Y258622D01*
X332882Y258480D01*
X332768Y258342D01*
X332758Y258322D01*
X332744Y258305D01*
X332663Y258144D01*
X332580Y257986D01*
X332573Y257965D01*
X332563Y257945D01*
X332516Y257771D01*
X332465Y257600D01*
X332463Y257578D01*
X332457Y257556D01*
X332445Y257378D01*
X332429Y257199D01*
X332431Y257177D01*
X332430Y257155D01*
X332453Y256978D01*
X332472Y256799D01*
X332479Y256778D01*
X332482Y256756D01*
X332583Y256440D01*
X333094Y255207D01*
X333094Y252793D01*
X332170Y250562D01*
X330463Y248855D01*
X328232Y247931D01*
X325818Y247931D01*
X323587Y248855D01*
X321880Y250562D01*
X320956Y252793D01*
X320956Y255207D01*
X321996Y257717D01*
X322000Y257730D01*
X322006Y257742D01*
X322058Y257923D01*
X322112Y258103D01*
X322114Y258116D01*
X322117Y258129D01*
X322133Y258318D01*
X322151Y258503D01*
X322149Y258517D01*
X322150Y258530D01*
X322128Y258716D01*
X322109Y258904D01*
X322105Y258917D01*
X322103Y258930D01*
X322045Y259109D01*
X321989Y259288D01*
X321983Y259300D01*
X321979Y259313D01*
X321886Y259477D01*
X321796Y259641D01*
X321787Y259652D01*
X321781Y259663D01*
X321658Y259806D01*
X321537Y259950D01*
X321526Y259958D01*
X321517Y259968D01*
X321370Y260083D01*
X321222Y260201D01*
X321210Y260207D01*
X321199Y260215D01*
X321031Y260298D01*
X320864Y260384D01*
X320851Y260388D01*
X320839Y260394D01*
X320656Y260443D01*
X320476Y260494D01*
X320463Y260495D01*
X320450Y260499D01*
X320119Y260526D01*
X312465Y260526D01*
X311126Y261865D01*
X311126Y271760D01*
X312465Y273099D01*
X319360Y273099D01*
X320845Y271614D01*
X320866Y271597D01*
X320883Y271576D01*
X321021Y271469D01*
X321157Y271359D01*
X321180Y271346D01*
X321202Y271330D01*
X321358Y271252D01*
X321512Y271170D01*
X321538Y271162D01*
X321562Y271150D01*
X321731Y271105D01*
X321898Y271055D01*
X321925Y271053D01*
X321951Y271046D01*
X322282Y271019D01*
X323831Y271019D01*
X323857Y271021D01*
X323884Y271019D01*
X324058Y271041D01*
X324232Y271059D01*
X324257Y271066D01*
X324284Y271070D01*
X324449Y271125D01*
X324616Y271177D01*
X324640Y271190D01*
X324665Y271198D01*
X324817Y271285D01*
X324970Y271369D01*
X324991Y271386D01*
X325014Y271399D01*
X325267Y271614D01*
X326753Y273099D01*
X333647Y273099D01*
X335020Y271726D01*
X335041Y271709D01*
X335058Y271689D01*
X335196Y271582D01*
X335332Y271471D01*
X335355Y271459D01*
X335377Y271442D01*
X335533Y271364D01*
X335687Y271282D01*
X335713Y271275D01*
X335737Y271263D01*
X335906Y271217D01*
X336073Y271168D01*
X336100Y271165D01*
X336126Y271158D01*
X336457Y271131D01*
X339818Y271131D01*
X339845Y271134D01*
X339872Y271132D01*
X340046Y271154D01*
X340219Y271171D01*
X340245Y271179D01*
X340271Y271182D01*
X340437Y271238D01*
X340604Y271289D01*
X340628Y271302D01*
X340653Y271311D01*
X340805Y271398D01*
X340958Y271481D01*
X340978Y271498D01*
X341002Y271511D01*
X341255Y271726D01*
X342628Y273099D01*
X349522Y273099D01*
X350895Y271726D01*
X350916Y271709D01*
X350933Y271689D01*
X351071Y271582D01*
X351207Y271471D01*
X351230Y271459D01*
X351252Y271442D01*
X351408Y271364D01*
X351562Y271282D01*
X351588Y271275D01*
X351612Y271263D01*
X351781Y271217D01*
X351948Y271168D01*
X351975Y271165D01*
X352001Y271158D01*
X352332Y271131D01*
X355693Y271131D01*
X355720Y271134D01*
X355747Y271132D01*
X355921Y271154D01*
X356094Y271171D01*
X356120Y271179D01*
X356146Y271182D01*
X356312Y271238D01*
X356479Y271289D01*
X356503Y271302D01*
X356528Y271311D01*
X356680Y271398D01*
X356833Y271481D01*
X356853Y271498D01*
X356877Y271511D01*
X357130Y271726D01*
X358503Y273099D01*
X365397Y273099D01*
X366934Y271563D01*
X366958Y271543D01*
X366978Y271520D01*
X367113Y271416D01*
X367245Y271308D01*
X367273Y271293D01*
X367297Y271274D01*
X367593Y271123D01*
X369159Y270474D01*
X379131Y260501D01*
X379152Y260484D01*
X379170Y260464D01*
X379308Y260357D01*
X379443Y260246D01*
X379467Y260234D01*
X379488Y260217D01*
X379645Y260139D01*
X379799Y260057D01*
X379824Y260050D01*
X379848Y260038D01*
X380018Y259992D01*
X380185Y259943D01*
X380211Y259940D01*
X380237Y259933D01*
X380568Y259906D01*
X395400Y259906D01*
X395418Y259908D01*
X395436Y259907D01*
X395618Y259928D01*
X395801Y259946D01*
X395818Y259951D01*
X395835Y259953D01*
X396010Y260010D01*
X396186Y260064D01*
X396201Y260073D01*
X396218Y260078D01*
X396378Y260169D01*
X396540Y260256D01*
X396553Y260267D01*
X396569Y260276D01*
X396708Y260396D01*
X396849Y260514D01*
X396860Y260528D01*
X396874Y260539D01*
X396986Y260684D01*
X397101Y260828D01*
X397109Y260843D01*
X397120Y260857D01*
X397202Y261022D01*
X397287Y261185D01*
X397292Y261202D01*
X397300Y261218D01*
X397347Y261396D01*
X397398Y261572D01*
X397400Y261590D01*
X397404Y261607D01*
X397431Y261937D01*
X397431Y274731D01*
X397429Y274757D01*
X397431Y274784D01*
X397409Y274958D01*
X397391Y275132D01*
X397384Y275157D01*
X397380Y275184D01*
X397325Y275349D01*
X397273Y275516D01*
X397260Y275540D01*
X397252Y275565D01*
X397165Y275717D01*
X397081Y275870D01*
X397064Y275891D01*
X397051Y275914D01*
X396836Y276167D01*
X395448Y277555D01*
X395442Y277613D01*
X395423Y277795D01*
X395418Y277812D01*
X395416Y277830D01*
X395359Y278005D01*
X395305Y278180D01*
X395297Y278196D01*
X395291Y278213D01*
X395201Y278373D01*
X395113Y278534D01*
X395102Y278548D01*
X395093Y278564D01*
X394973Y278703D01*
X394856Y278844D01*
X394842Y278855D01*
X394830Y278868D01*
X394685Y278981D01*
X394542Y279096D01*
X394526Y279104D01*
X394512Y279115D01*
X394347Y279197D01*
X394185Y279281D01*
X394168Y279286D01*
X394152Y279294D01*
X393973Y279342D01*
X393798Y279393D01*
X393780Y279394D01*
X393763Y279399D01*
X393432Y279426D01*
X309725Y279426D01*
X309707Y279424D01*
X309689Y279426D01*
X309507Y279404D01*
X309324Y279386D01*
X309307Y279381D01*
X309290Y279379D01*
X309115Y279322D01*
X308939Y279268D01*
X308924Y279259D01*
X308907Y279254D01*
X308747Y279164D01*
X308585Y279076D01*
X308572Y279065D01*
X308556Y279056D01*
X308417Y278936D01*
X308276Y278818D01*
X308265Y278805D01*
X308251Y278793D01*
X308139Y278648D01*
X308024Y278505D01*
X308016Y278489D01*
X308005Y278475D01*
X307923Y278310D01*
X307838Y278147D01*
X307833Y278130D01*
X307825Y278114D01*
X307778Y277936D01*
X307727Y277760D01*
X307725Y277743D01*
X307721Y277725D01*
X307694Y277395D01*
X307694Y276605D01*
X306770Y274375D01*
X305063Y272668D01*
X302832Y271744D01*
X300418Y271744D01*
X298187Y272668D01*
X296480Y274375D01*
X295819Y275971D01*
X295808Y275991D01*
X295801Y276012D01*
X295713Y276169D01*
X295629Y276326D01*
X295615Y276343D01*
X295604Y276363D01*
X295486Y276499D01*
X295372Y276637D01*
X295355Y276651D01*
X295340Y276668D01*
X295199Y276777D01*
X295060Y276890D01*
X295040Y276901D01*
X295022Y276914D01*
X294862Y276994D01*
X294703Y277077D01*
X294682Y277084D01*
X294662Y277094D01*
X294488Y277140D01*
X294317Y277190D01*
X294295Y277192D01*
X294273Y277198D01*
X293942Y277225D01*
X279392Y277225D01*
X279383Y277224D01*
X279374Y277225D01*
X279181Y277204D01*
X278992Y277185D01*
X278983Y277183D01*
X278974Y277182D01*
X278790Y277123D01*
X278607Y277067D01*
X278599Y277063D01*
X278590Y277060D01*
X278422Y276967D01*
X278253Y276875D01*
X278246Y276870D01*
X278238Y276865D01*
X278091Y276741D01*
X277943Y276618D01*
X277938Y276611D01*
X277931Y276605D01*
X277811Y276453D01*
X277691Y276304D01*
X277687Y276296D01*
X277681Y276289D01*
X277594Y276116D01*
X277505Y275947D01*
X277503Y275938D01*
X277499Y275930D01*
X277447Y275744D01*
X277394Y275560D01*
X277393Y275551D01*
X277391Y275542D01*
X277377Y275349D01*
X277361Y275158D01*
X277362Y275150D01*
X277362Y275141D01*
X277386Y274948D01*
X277408Y274759D01*
X277411Y274750D01*
X277412Y274741D01*
X277473Y274559D01*
X277533Y274376D01*
X277537Y274368D01*
X277540Y274360D01*
X277638Y274191D01*
X277731Y274025D01*
X277737Y274018D01*
X277741Y274011D01*
X277956Y273758D01*
X290680Y261033D01*
X290695Y261022D01*
X290706Y261008D01*
X290850Y260894D01*
X290992Y260778D01*
X291008Y260770D01*
X291022Y260758D01*
X291187Y260675D01*
X291348Y260589D01*
X291365Y260584D01*
X291381Y260576D01*
X291558Y260527D01*
X291734Y260475D01*
X291752Y260473D01*
X291769Y260468D01*
X291951Y260455D01*
X292135Y260438D01*
X292153Y260440D01*
X292171Y260439D01*
X292352Y260462D01*
X292535Y260482D01*
X292552Y260487D01*
X292570Y260489D01*
X292743Y260547D01*
X292919Y260603D01*
X292935Y260612D01*
X292952Y260618D01*
X293110Y260709D01*
X293218Y260769D01*
X295569Y261742D01*
X297983Y261742D01*
X300214Y260819D01*
X301921Y259111D01*
X302845Y256881D01*
X302845Y254467D01*
X301921Y252236D01*
X300214Y250529D01*
X297983Y249605D01*
X295569Y249605D01*
X293339Y250529D01*
X292345Y251522D01*
X292325Y251539D01*
X292307Y251559D01*
X292169Y251666D01*
X292034Y251777D01*
X292010Y251790D01*
X291989Y251806D01*
X291832Y251884D01*
X291678Y251966D01*
X291653Y251973D01*
X291629Y251985D01*
X291459Y252031D01*
X291292Y252081D01*
X291266Y252083D01*
X291240Y252090D01*
X290909Y252117D01*
X289537Y252117D01*
X262823Y278831D01*
X262802Y278848D01*
X262784Y278868D01*
X262646Y278975D01*
X262511Y279086D01*
X262487Y279099D01*
X262466Y279115D01*
X262309Y279193D01*
X262155Y279275D01*
X262130Y279282D01*
X262106Y279294D01*
X261936Y279340D01*
X261769Y279390D01*
X261743Y279392D01*
X261717Y279399D01*
X261386Y279426D01*
X260022Y279426D01*
X233807Y305641D01*
X233807Y307004D01*
X233805Y307031D01*
X233807Y307058D01*
X233785Y307232D01*
X233768Y307405D01*
X233760Y307431D01*
X233756Y307458D01*
X233701Y307623D01*
X233650Y307790D01*
X233637Y307814D01*
X233628Y307839D01*
X233541Y307990D01*
X233458Y308144D01*
X233441Y308165D01*
X233427Y308188D01*
X233212Y308441D01*
X231643Y310010D01*
X231629Y310022D01*
X231618Y310035D01*
X231474Y310149D01*
X231332Y310265D01*
X231316Y310274D01*
X231302Y310285D01*
X231138Y310368D01*
X230976Y310454D01*
X230959Y310459D01*
X230943Y310467D01*
X230766Y310517D01*
X230590Y310569D01*
X230572Y310570D01*
X230555Y310575D01*
X230372Y310589D01*
X230189Y310605D01*
X230171Y310603D01*
X230154Y310605D01*
X229971Y310582D01*
X229789Y310562D01*
X229772Y310556D01*
X229754Y310554D01*
X229580Y310496D01*
X229405Y310440D01*
X229389Y310432D01*
X229372Y310426D01*
X229214Y310334D01*
X229053Y310245D01*
X229039Y310234D01*
X229024Y310225D01*
X228771Y310010D01*
X227862Y309101D01*
X224221Y307593D01*
X220279Y307593D01*
X216638Y309101D01*
X213851Y311888D01*
X212343Y315529D01*
X212343Y319471D01*
X213851Y323112D01*
X216638Y325899D01*
X220279Y327407D01*
X224221Y327407D01*
X227061Y326230D01*
X227074Y326226D01*
X227085Y326220D01*
X227265Y326169D01*
X227446Y326114D01*
X227459Y326113D01*
X227472Y326109D01*
X227660Y326094D01*
X227847Y326076D01*
X227860Y326077D01*
X227874Y326076D01*
X228061Y326098D01*
X228247Y326117D01*
X228260Y326121D01*
X228273Y326123D01*
X228453Y326181D01*
X228632Y326237D01*
X228643Y326244D01*
X228656Y326248D01*
X228821Y326341D01*
X228985Y326430D01*
X228995Y326439D01*
X229007Y326446D01*
X229149Y326569D01*
X229293Y326690D01*
X229301Y326700D01*
X229312Y326709D01*
X229427Y326857D01*
X229544Y327004D01*
X229550Y327016D01*
X229558Y327027D01*
X229642Y327196D01*
X229728Y327363D01*
X229732Y327375D01*
X229738Y327387D01*
X229787Y327570D01*
X229838Y327750D01*
X229839Y327763D01*
X229842Y327776D01*
X229869Y328107D01*
X229869Y332293D01*
X229868Y332306D01*
X229869Y332320D01*
X229848Y332506D01*
X229829Y332694D01*
X229825Y332706D01*
X229824Y332720D01*
X229766Y332899D01*
X229711Y333079D01*
X229705Y333090D01*
X229701Y333103D01*
X229609Y333268D01*
X229519Y333433D01*
X229511Y333443D01*
X229504Y333455D01*
X229382Y333597D01*
X229262Y333742D01*
X229251Y333750D01*
X229243Y333760D01*
X229095Y333876D01*
X228948Y333994D01*
X228936Y334000D01*
X228926Y334009D01*
X228757Y334093D01*
X228591Y334180D01*
X228578Y334183D01*
X228566Y334189D01*
X228384Y334239D01*
X228204Y334291D01*
X228190Y334292D01*
X228177Y334296D01*
X227989Y334309D01*
X227802Y334324D01*
X227789Y334322D01*
X227776Y334323D01*
X227588Y334299D01*
X227403Y334277D01*
X227390Y334273D01*
X227377Y334271D01*
X227061Y334170D01*
X224221Y332993D01*
X220279Y332993D01*
X216638Y334501D01*
X213851Y337288D01*
X212343Y340929D01*
X212343Y344871D01*
X213851Y348512D01*
X216320Y350981D01*
X216337Y351001D01*
X216358Y351019D01*
X216465Y351157D01*
X216575Y351292D01*
X216588Y351316D01*
X216604Y351337D01*
X216682Y351494D01*
X216764Y351648D01*
X216772Y351673D01*
X216784Y351697D01*
X216829Y351867D01*
X216879Y352034D01*
X216881Y352060D01*
X216888Y352086D01*
X216915Y352417D01*
X216915Y358783D01*
X216913Y358810D01*
X216915Y358836D01*
X216893Y359010D01*
X216875Y359184D01*
X216868Y359209D01*
X216864Y359236D01*
X216809Y359402D01*
X216757Y359569D01*
X216744Y359592D01*
X216736Y359618D01*
X216649Y359769D01*
X216565Y359923D01*
X216548Y359943D01*
X216535Y359966D01*
X216320Y360219D01*
X213851Y362688D01*
X212343Y366329D01*
X212343Y370271D01*
X213851Y373912D01*
X216638Y376699D01*
X220439Y378273D01*
X220459Y378283D01*
X220480Y378290D01*
X220637Y378379D01*
X220794Y378463D01*
X220811Y378477D01*
X220831Y378488D01*
X220967Y378606D01*
X221105Y378720D01*
X221119Y378737D01*
X221136Y378751D01*
X221245Y378893D01*
X221358Y379032D01*
X221369Y379052D01*
X221382Y379070D01*
X221462Y379230D01*
X221545Y379389D01*
X221552Y379410D01*
X221562Y379430D01*
X221608Y379604D01*
X221658Y379775D01*
X221660Y379797D01*
X221666Y379819D01*
X221693Y380150D01*
X221693Y384330D01*
X221691Y384348D01*
X221693Y384366D01*
X221672Y384549D01*
X221653Y384731D01*
X221648Y384748D01*
X221646Y384766D01*
X221589Y384940D01*
X221535Y385116D01*
X221527Y385132D01*
X221521Y385149D01*
X221431Y385309D01*
X221343Y385470D01*
X221332Y385484D01*
X221323Y385500D01*
X221203Y385639D01*
X221086Y385779D01*
X221072Y385790D01*
X221060Y385804D01*
X220914Y385917D01*
X220772Y386031D01*
X220756Y386040D01*
X220741Y386051D01*
X220577Y386132D01*
X220415Y386217D01*
X220397Y386222D01*
X220381Y386230D01*
X220204Y386277D01*
X220028Y386328D01*
X220010Y386330D01*
X219992Y386334D01*
X219661Y386361D01*
X218826Y386361D01*
X218750Y386354D01*
X218674Y386355D01*
X218550Y386334D01*
X218425Y386321D01*
X218352Y386299D01*
X218277Y386285D01*
X218160Y386240D01*
X218054Y386207D01*
X217182Y386338D01*
X217115Y386341D01*
X216880Y386361D01*
X215992Y386360D01*
X215950Y386390D01*
X215835Y386440D01*
X215724Y386499D01*
X215651Y386521D01*
X215581Y386551D01*
X215422Y386589D01*
X215338Y386614D01*
X215302Y386617D01*
X215258Y386627D01*
X214400Y386756D01*
X214324Y386760D01*
X214249Y386773D01*
X214123Y386770D01*
X213998Y386777D01*
X213923Y386765D01*
X213846Y386763D01*
X213724Y386735D01*
X213614Y386719D01*
X212772Y386978D01*
X212706Y386992D01*
X212476Y387046D01*
X211598Y387178D01*
X211560Y387214D01*
X211454Y387281D01*
X211354Y387355D01*
X211284Y387388D01*
X211219Y387428D01*
X211068Y387489D01*
X210989Y387526D01*
X210954Y387534D01*
X210911Y387552D01*
X210083Y387807D01*
X210008Y387822D01*
X209936Y387846D01*
X209811Y387862D01*
X209688Y387887D01*
X209612Y387887D01*
X209536Y387896D01*
X209411Y387887D01*
X209286Y387887D01*
X209211Y387872D01*
X209135Y387866D01*
X208976Y387825D01*
X208891Y387808D01*
X208858Y387794D01*
X208814Y387783D01*
X208730Y387753D01*
X208592Y387689D01*
X208451Y387632D01*
X208410Y387604D01*
X208365Y387583D01*
X208243Y387493D01*
X208116Y387409D01*
X208081Y387374D01*
X208041Y387345D01*
X207939Y387232D01*
X207831Y387125D01*
X207799Y387079D01*
X207770Y387047D01*
X207726Y386973D01*
X207642Y386852D01*
X189368Y355199D01*
X188319Y356206D01*
X188291Y356224D01*
X188257Y356257D01*
X185734Y357998D01*
X185707Y358010D01*
X185685Y358028D01*
X185616Y358049D01*
X185551Y358076D01*
X185522Y358077D01*
X185494Y358085D01*
X185423Y358077D01*
X185352Y358077D01*
X185325Y358066D01*
X185296Y358063D01*
X185234Y358028D01*
X185169Y358000D01*
X185148Y357979D01*
X185123Y357965D01*
X185060Y357888D01*
X185030Y357857D01*
X185026Y357847D01*
X185017Y357837D01*
X175517Y341337D01*
X175493Y341264D01*
X175462Y341193D01*
X175462Y341170D01*
X175454Y341148D01*
X175461Y341071D01*
X175460Y340994D01*
X175469Y340970D01*
X175470Y340950D01*
X175491Y340910D01*
X175510Y340858D01*
X175511Y340853D01*
X175513Y340851D01*
X175517Y340838D01*
X185017Y324338D01*
X185036Y324317D01*
X185049Y324290D01*
X185102Y324243D01*
X185149Y324189D01*
X185175Y324177D01*
X185197Y324157D01*
X185264Y324134D01*
X185328Y324103D01*
X185357Y324102D01*
X185384Y324093D01*
X185456Y324097D01*
X185527Y324094D01*
X185554Y324104D01*
X185583Y324106D01*
X185673Y324149D01*
X185713Y324163D01*
X185721Y324171D01*
X185734Y324177D01*
X188257Y325918D01*
X188281Y325943D01*
X188319Y325969D01*
X189368Y326976D01*
X207642Y295323D01*
X207731Y295200D01*
X207813Y295072D01*
X207848Y295036D01*
X207877Y294996D01*
X207988Y294892D01*
X208094Y294784D01*
X208135Y294756D01*
X208172Y294722D01*
X208301Y294642D01*
X208427Y294556D01*
X208478Y294534D01*
X208515Y294511D01*
X208595Y294481D01*
X208730Y294422D01*
X208814Y294392D01*
X208885Y294375D01*
X208893Y294372D01*
X208894Y294372D01*
X208959Y294347D01*
X209083Y294327D01*
X209205Y294298D01*
X209281Y294295D01*
X209356Y294282D01*
X209482Y294287D01*
X209607Y294282D01*
X209683Y294294D01*
X209759Y294297D01*
X209918Y294332D01*
X210005Y294346D01*
X210038Y294358D01*
X210083Y294368D01*
X210911Y294623D01*
X210982Y294653D01*
X211056Y294674D01*
X211167Y294731D01*
X211282Y294780D01*
X211346Y294823D01*
X211414Y294857D01*
X211512Y294935D01*
X211604Y294998D01*
X212476Y295129D01*
X212540Y295146D01*
X212772Y295197D01*
X213620Y295458D01*
X213669Y295442D01*
X213794Y295428D01*
X213917Y295404D01*
X213993Y295405D01*
X214069Y295396D01*
X214232Y295407D01*
X214319Y295408D01*
X214355Y295416D01*
X214400Y295419D01*
X215258Y295548D01*
X215332Y295566D01*
X215408Y295576D01*
X215527Y295616D01*
X215648Y295647D01*
X215717Y295680D01*
X215789Y295704D01*
X215898Y295767D01*
X215998Y295815D01*
X216880Y295814D01*
X216947Y295821D01*
X217182Y295837D01*
X218060Y295969D01*
X218107Y295946D01*
X218227Y295913D01*
X218346Y295872D01*
X218422Y295861D01*
X218495Y295841D01*
X218658Y295828D01*
X218744Y295815D01*
X218780Y295818D01*
X218826Y295814D01*
X219693Y295814D01*
X219769Y295821D01*
X219846Y295819D01*
X219969Y295841D01*
X220094Y295853D01*
X220167Y295876D01*
X220242Y295889D01*
X220359Y295935D01*
X220465Y295967D01*
X221337Y295836D01*
X221404Y295832D01*
X221639Y295813D01*
X222527Y295813D01*
X222570Y295783D01*
X222684Y295732D01*
X222795Y295674D01*
X222868Y295652D01*
X222938Y295621D01*
X223097Y295584D01*
X223181Y295559D01*
X223217Y295556D01*
X223261Y295545D01*
X224118Y295416D01*
X224195Y295412D01*
X224270Y295398D01*
X224396Y295401D01*
X224521Y295395D01*
X224596Y295406D01*
X224673Y295408D01*
X224795Y295436D01*
X224905Y295452D01*
X225747Y295192D01*
X225813Y295179D01*
X226043Y295125D01*
X226920Y294992D01*
X226958Y294956D01*
X227064Y294890D01*
X227165Y294815D01*
X227234Y294782D01*
X227299Y294742D01*
X227450Y294681D01*
X227529Y294644D01*
X227564Y294635D01*
X227607Y294618D01*
X228435Y294362D01*
X228510Y294347D01*
X228583Y294323D01*
X228707Y294307D01*
X228830Y294282D01*
X228906Y294282D01*
X228982Y294273D01*
X229107Y294282D01*
X229219Y294282D01*
X230012Y293899D01*
X230076Y293876D01*
X230295Y293788D01*
X231143Y293526D01*
X231175Y293485D01*
X231270Y293403D01*
X231358Y293314D01*
X231422Y293272D01*
X231480Y293222D01*
X231620Y293139D01*
X231693Y293091D01*
X231726Y293077D01*
X231766Y293054D01*
X232547Y292678D01*
X232618Y292651D01*
X232687Y292616D01*
X232807Y292582D01*
X232925Y292540D01*
X233001Y292528D01*
X233074Y292507D01*
X233199Y292498D01*
X233309Y292481D01*
X234037Y291984D01*
X234097Y291952D01*
X234300Y291832D01*
X235099Y291447D01*
X235125Y291402D01*
X235207Y291306D01*
X235281Y291206D01*
X235337Y291154D01*
X235387Y291096D01*
X235514Y290993D01*
X235579Y290935D01*
X235609Y290916D01*
X235645Y290887D01*
X236361Y290399D01*
X236429Y290362D01*
X236491Y290318D01*
X236604Y290266D01*
X236715Y290206D01*
X236788Y290183D01*
X236857Y290152D01*
X236980Y290124D01*
X237086Y290091D01*
X237732Y289491D01*
X237786Y289450D01*
X237969Y289302D01*
X238702Y288802D01*
X238721Y288753D01*
X238787Y288647D01*
X238845Y288536D01*
X238894Y288477D01*
X238934Y288412D01*
X239045Y288291D01*
X239100Y288224D01*
X239127Y288201D01*
X239158Y288167D01*
X239794Y287577D01*
X239855Y287531D01*
X239909Y287477D01*
X240014Y287409D01*
X240114Y287334D01*
X240183Y287300D01*
X240247Y287259D01*
X240364Y287213D01*
X240464Y287164D01*
X241014Y286475D01*
X241060Y286427D01*
X241220Y286253D01*
X241870Y285649D01*
X241881Y285598D01*
X241931Y285483D01*
X241972Y285365D01*
X242011Y285299D01*
X242042Y285228D01*
X242133Y285093D01*
X242177Y285018D01*
X242201Y284991D01*
X242227Y284953D01*
X242767Y284275D01*
X242820Y284220D01*
X242867Y284159D01*
X242960Y284076D01*
X243048Y283987D01*
X243111Y283943D01*
X243168Y283893D01*
X243277Y283830D01*
X243369Y283767D01*
X243809Y283004D01*
X243848Y282950D01*
X243980Y282753D01*
X244533Y282059D01*
X244536Y282007D01*
X244569Y281886D01*
X244592Y281763D01*
X244620Y281692D01*
X244640Y281618D01*
X244710Y281470D01*
X244742Y281389D01*
X244762Y281359D01*
X244782Y281318D01*
X245215Y280567D01*
X245260Y280505D01*
X245296Y280438D01*
X245377Y280342D01*
X245450Y280240D01*
X245506Y280188D01*
X245555Y280129D01*
X245653Y280051D01*
X245734Y279975D01*
X246056Y279154D01*
X246087Y279095D01*
X246188Y278881D01*
X246631Y278112D01*
X246627Y278060D01*
X246640Y277936D01*
X246645Y277811D01*
X246663Y277736D01*
X246671Y277660D01*
X246718Y277504D01*
X246738Y277419D01*
X246753Y277386D01*
X246767Y277342D01*
X247083Y276535D01*
X247118Y276467D01*
X247144Y276395D01*
X247209Y276289D01*
X247266Y276177D01*
X247314Y276117D01*
X247354Y276052D01*
X247439Y275960D01*
X247508Y275872D01*
X247704Y275013D01*
X247726Y274949D01*
X247794Y274723D01*
X248118Y273897D01*
X248105Y273846D01*
X248100Y273721D01*
X248086Y273597D01*
X248093Y273520D01*
X248090Y273444D01*
X248113Y273282D01*
X248120Y273195D01*
X248130Y273161D01*
X248137Y273115D01*
X248329Y272270D01*
X248354Y272198D01*
X248369Y272123D01*
X248418Y272007D01*
X248457Y271889D01*
X248495Y271822D01*
X248525Y271752D01*
X248596Y271648D01*
X248651Y271551D01*
X248717Y270673D01*
X248728Y270606D01*
X248762Y270372D01*
X248959Y269507D01*
X248939Y269459D01*
X248916Y269336D01*
X248883Y269215D01*
X248878Y269139D01*
X248864Y269064D01*
X248863Y268900D01*
X248857Y268813D01*
X248862Y268778D01*
X248862Y268732D01*
X248926Y267867D01*
X248939Y267792D01*
X248943Y267715D01*
X248974Y267594D01*
X248996Y267471D01*
X249024Y267399D01*
X249042Y267325D01*
X249096Y267212D01*
X249137Y267108D01*
X249071Y266230D01*
X249073Y266162D01*
X249071Y265926D01*
X249137Y265041D01*
X249110Y264996D01*
X249069Y264878D01*
X249018Y264763D01*
X249002Y264689D01*
X248977Y264617D01*
X248951Y264455D01*
X248933Y264370D01*
X248932Y264334D01*
X248925Y264289D01*
X248860Y263424D01*
X248862Y263348D01*
X248854Y263272D01*
X248866Y263147D01*
X248870Y263022D01*
X248886Y262947D01*
X248894Y262871D01*
X248931Y262751D01*
X248955Y262643D01*
X248759Y261784D01*
X248751Y261717D01*
X248714Y261483D01*
X248647Y260598D01*
X248614Y260558D01*
X248555Y260448D01*
X248489Y260342D01*
X248461Y260270D01*
X248425Y260202D01*
X248376Y260047D01*
X248345Y259965D01*
X248339Y259930D01*
X248325Y259886D01*
X248132Y259041D01*
X248128Y259009D01*
X248122Y258987D01*
X248119Y258950D01*
X248104Y258891D01*
X248097Y258766D01*
X248082Y258642D01*
X248087Y258565D01*
X248084Y258489D01*
X248102Y258365D01*
X248110Y258254D01*
X247788Y257433D01*
X247770Y257369D01*
X247698Y257143D01*
X247501Y256278D01*
X247462Y256243D01*
X247387Y256143D01*
X247306Y256048D01*
X247268Y255981D01*
X247222Y255920D01*
X247151Y255773D01*
X247108Y255697D01*
X247097Y255663D01*
X247076Y255622D01*
X246764Y254828D01*
X246763Y254824D01*
X246762Y254821D01*
X246706Y254622D01*
X246655Y254440D01*
X246655Y254437D01*
X246654Y254433D01*
X246639Y254234D01*
X246624Y254039D01*
X246625Y254035D01*
X246624Y254032D01*
X246649Y253838D01*
X246673Y253639D01*
X246674Y253636D01*
X246675Y253632D01*
X246737Y253448D01*
X246800Y253257D01*
X246802Y253254D01*
X246803Y253251D01*
X246806Y253246D01*
X246806Y247078D01*
X246809Y247051D01*
X246807Y247025D01*
X246829Y246851D01*
X246846Y246677D01*
X246854Y246652D01*
X246857Y246625D01*
X246913Y246459D01*
X246964Y246292D01*
X246977Y246269D01*
X246985Y246243D01*
X247073Y246092D01*
X247156Y245938D01*
X247173Y245918D01*
X247186Y245895D01*
X247401Y245642D01*
X248394Y244648D01*
X249318Y242418D01*
X249318Y240004D01*
X248394Y237773D01*
X246687Y236066D01*
X244926Y235337D01*
X244793Y235265D01*
X244657Y235201D01*
X244616Y235170D01*
X244571Y235146D01*
X244455Y235051D01*
X244334Y234960D01*
X244300Y234922D01*
X244261Y234890D01*
X244166Y234773D01*
X244065Y234661D01*
X244039Y234617D01*
X244007Y234577D01*
X243937Y234444D01*
X243860Y234314D01*
X243844Y234266D01*
X243820Y234221D01*
X243778Y234076D01*
X243728Y233934D01*
X243721Y233883D01*
X243707Y233834D01*
X243694Y233684D01*
X243673Y233535D01*
X243677Y233484D01*
X243672Y233433D01*
X243689Y233284D01*
X243698Y233133D01*
X243712Y233084D01*
X243717Y233033D01*
X243763Y232890D01*
X243802Y232744D01*
X243827Y232692D01*
X243841Y232650D01*
X243882Y232575D01*
X243944Y232444D01*
X257036Y209767D01*
X255678Y209376D01*
X255648Y209360D01*
X255603Y209347D01*
X252837Y208039D01*
X252814Y208022D01*
X252787Y208012D01*
X252735Y207963D01*
X252677Y207920D01*
X252663Y207895D01*
X252642Y207875D01*
X252613Y207810D01*
X252577Y207748D01*
X252574Y207720D01*
X252562Y207693D01*
X252561Y207621D01*
X252552Y207551D01*
X252560Y207523D01*
X252560Y207494D01*
X252595Y207400D01*
X252606Y207359D01*
X252613Y207351D01*
X252617Y207338D01*
X262117Y190838D01*
X262169Y190780D01*
X262215Y190717D01*
X262234Y190706D01*
X262249Y190689D01*
X262319Y190656D01*
X262386Y190616D01*
X262411Y190612D01*
X262428Y190603D01*
X262473Y190601D01*
X262550Y190588D01*
X281550Y190588D01*
X281578Y190594D01*
G37*
G36*
X297395Y284339D02*
X297395Y284339D01*
X297400Y284339D01*
X297594Y284359D01*
X297791Y284379D01*
X297796Y284380D01*
X297800Y284380D01*
X297987Y284439D01*
X298176Y284497D01*
X298180Y284499D01*
X298185Y284500D01*
X298358Y284595D01*
X298530Y284689D01*
X298534Y284691D01*
X298538Y284694D01*
X298691Y284822D01*
X298840Y284946D01*
X298842Y284950D01*
X298846Y284953D01*
X298969Y285107D01*
X299092Y285260D01*
X299094Y285264D01*
X299097Y285267D01*
X299186Y285442D01*
X299277Y285617D01*
X299279Y285622D01*
X299281Y285626D01*
X299334Y285813D01*
X299389Y286004D01*
X299389Y286009D01*
X299390Y286013D01*
X299405Y286206D01*
X299422Y286406D01*
X299421Y286410D01*
X299422Y286414D01*
X299398Y286608D01*
X299375Y286805D01*
X299373Y286810D01*
X299373Y286814D01*
X299312Y286999D01*
X299250Y287188D01*
X299248Y287192D01*
X299246Y287196D01*
X299148Y287368D01*
X299052Y287539D01*
X299049Y287542D01*
X299047Y287546D01*
X298916Y287697D01*
X298789Y287843D01*
X298785Y287846D01*
X298782Y287850D01*
X298626Y287970D01*
X298471Y288090D01*
X298467Y288092D01*
X298463Y288095D01*
X298168Y288247D01*
X297205Y288646D01*
X291614Y294236D01*
X291362Y294845D01*
X291355Y294857D01*
X291351Y294870D01*
X291260Y295034D01*
X291171Y295200D01*
X291163Y295210D01*
X291156Y295222D01*
X291035Y295365D01*
X290915Y295510D01*
X290905Y295519D01*
X290896Y295529D01*
X290749Y295645D01*
X290602Y295764D01*
X290590Y295770D01*
X290580Y295779D01*
X290413Y295864D01*
X290246Y295951D01*
X290233Y295955D01*
X290221Y295961D01*
X290040Y296012D01*
X289859Y296064D01*
X289846Y296066D01*
X289833Y296069D01*
X289645Y296083D01*
X289458Y296099D01*
X289445Y296097D01*
X289432Y296098D01*
X289244Y296075D01*
X289058Y296054D01*
X289046Y296050D01*
X289032Y296048D01*
X288854Y295988D01*
X288675Y295931D01*
X288663Y295924D01*
X288651Y295920D01*
X288487Y295826D01*
X288323Y295734D01*
X288313Y295726D01*
X288302Y295719D01*
X288049Y295504D01*
X287611Y295067D01*
X285852Y294338D01*
X272948Y294338D01*
X271189Y295067D01*
X269842Y296414D01*
X269113Y298173D01*
X269113Y305077D01*
X269842Y306836D01*
X271189Y308183D01*
X272948Y308912D01*
X274975Y308912D01*
X275002Y308914D01*
X275029Y308912D01*
X275202Y308934D01*
X275376Y308952D01*
X275401Y308959D01*
X275428Y308963D01*
X275594Y309018D01*
X275761Y309070D01*
X275784Y309083D01*
X275810Y309091D01*
X275961Y309178D01*
X276115Y309261D01*
X276135Y309279D01*
X276159Y309292D01*
X276412Y309507D01*
X281554Y314649D01*
X283141Y315306D01*
X313462Y315306D01*
X313489Y315309D01*
X313516Y315307D01*
X313690Y315329D01*
X313863Y315346D01*
X313889Y315354D01*
X313915Y315357D01*
X314081Y315413D01*
X314248Y315464D01*
X314272Y315477D01*
X314297Y315486D01*
X314448Y315573D01*
X314602Y315656D01*
X314622Y315673D01*
X314646Y315686D01*
X314899Y315901D01*
X321277Y322279D01*
X321288Y322293D01*
X321302Y322305D01*
X321416Y322449D01*
X321532Y322591D01*
X321540Y322606D01*
X321551Y322620D01*
X321635Y322785D01*
X321720Y322946D01*
X321726Y322963D01*
X321734Y322979D01*
X321783Y323157D01*
X321835Y323332D01*
X321837Y323350D01*
X321842Y323367D01*
X321855Y323550D01*
X321872Y323733D01*
X321870Y323751D01*
X321871Y323769D01*
X321848Y323951D01*
X321828Y324134D01*
X321823Y324151D01*
X321821Y324168D01*
X321762Y324342D01*
X321707Y324517D01*
X321698Y324533D01*
X321692Y324550D01*
X321601Y324709D01*
X321512Y324870D01*
X321500Y324883D01*
X321491Y324899D01*
X321277Y325152D01*
X319376Y327053D01*
X319376Y336947D01*
X321002Y338574D01*
X321013Y338587D01*
X321027Y338599D01*
X321141Y338743D01*
X321257Y338885D01*
X321266Y338901D01*
X321277Y338915D01*
X321360Y339079D01*
X321446Y339241D01*
X321451Y339258D01*
X321459Y339274D01*
X321508Y339451D01*
X321561Y339627D01*
X321562Y339644D01*
X321567Y339662D01*
X321580Y339845D01*
X321597Y340028D01*
X321595Y340045D01*
X321596Y340063D01*
X321573Y340245D01*
X321554Y340428D01*
X321548Y340445D01*
X321546Y340463D01*
X321488Y340636D01*
X321432Y340812D01*
X321423Y340827D01*
X321418Y340844D01*
X321326Y341004D01*
X321237Y341164D01*
X321226Y341178D01*
X321217Y341193D01*
X321002Y341446D01*
X314687Y347762D01*
X314680Y347767D01*
X314674Y347774D01*
X314525Y347894D01*
X314375Y348017D01*
X314367Y348021D01*
X314360Y348026D01*
X314189Y348115D01*
X314020Y348205D01*
X314011Y348208D01*
X314003Y348212D01*
X313818Y348265D01*
X313634Y348320D01*
X313625Y348321D01*
X313616Y348323D01*
X313425Y348339D01*
X313233Y348356D01*
X313224Y348355D01*
X313215Y348356D01*
X313026Y348334D01*
X312832Y348313D01*
X312824Y348310D01*
X312815Y348309D01*
X312633Y348250D01*
X312449Y348192D01*
X312441Y348187D01*
X312432Y348184D01*
X312264Y348089D01*
X312096Y347997D01*
X312090Y347991D01*
X312082Y347987D01*
X311936Y347861D01*
X311789Y347736D01*
X311784Y347729D01*
X311777Y347723D01*
X311660Y347572D01*
X311540Y347420D01*
X311536Y347412D01*
X311530Y347405D01*
X311445Y347233D01*
X311357Y347061D01*
X311355Y347053D01*
X311351Y347045D01*
X311301Y346858D01*
X311249Y346673D01*
X311249Y346665D01*
X311246Y346656D01*
X311219Y346325D01*
X311219Y338519D01*
X311222Y338492D01*
X311220Y338465D01*
X311242Y338291D01*
X311259Y338118D01*
X311267Y338092D01*
X311270Y338066D01*
X311326Y337900D01*
X311377Y337733D01*
X311390Y337709D01*
X311399Y337684D01*
X311486Y337532D01*
X311569Y337379D01*
X311586Y337359D01*
X311599Y337335D01*
X311814Y337082D01*
X311949Y336947D01*
X311949Y327053D01*
X310610Y325713D01*
X304545Y325713D01*
X304432Y325773D01*
X304415Y325779D01*
X304398Y325787D01*
X304221Y325836D01*
X304046Y325888D01*
X304028Y325890D01*
X304011Y325895D01*
X303828Y325908D01*
X303645Y325925D01*
X303627Y325923D01*
X303609Y325924D01*
X303428Y325901D01*
X303244Y325881D01*
X303227Y325876D01*
X303210Y325874D01*
X303036Y325815D01*
X302861Y325760D01*
X302845Y325751D01*
X302828Y325745D01*
X302772Y325713D01*
X296715Y325713D01*
X295376Y327053D01*
X295376Y336947D01*
X296715Y338287D01*
X302075Y338287D01*
X302092Y338289D01*
X302110Y338287D01*
X302292Y338308D01*
X302475Y338327D01*
X302492Y338332D01*
X302510Y338334D01*
X302684Y338391D01*
X302860Y338445D01*
X302876Y338453D01*
X302893Y338459D01*
X303053Y338549D01*
X303214Y338637D01*
X303228Y338648D01*
X303243Y338657D01*
X303383Y338777D01*
X303523Y338894D01*
X303535Y338908D01*
X303548Y338920D01*
X303661Y339065D01*
X303776Y339208D01*
X303784Y339224D01*
X303795Y339238D01*
X303877Y339403D01*
X303961Y339565D01*
X303966Y339582D01*
X303974Y339598D01*
X304022Y339777D01*
X304073Y339952D01*
X304074Y339970D01*
X304079Y339987D01*
X304106Y340318D01*
X304106Y343003D01*
X304103Y343030D01*
X304105Y343057D01*
X304083Y343231D01*
X304066Y343404D01*
X304058Y343429D01*
X304055Y343456D01*
X303999Y343622D01*
X303948Y343789D01*
X303935Y343812D01*
X303926Y343838D01*
X303839Y343989D01*
X303756Y344143D01*
X303739Y344163D01*
X303726Y344187D01*
X303511Y344440D01*
X301620Y346330D01*
X301603Y346344D01*
X301589Y346361D01*
X301447Y346472D01*
X301309Y346585D01*
X301289Y346596D01*
X301272Y346610D01*
X301111Y346690D01*
X300953Y346774D01*
X300932Y346780D01*
X300912Y346790D01*
X300739Y346838D01*
X300567Y346889D01*
X300545Y346891D01*
X300523Y346897D01*
X300346Y346909D01*
X300166Y346925D01*
X300144Y346923D01*
X300122Y346924D01*
X299945Y346901D01*
X299766Y346882D01*
X299745Y346875D01*
X299740Y346874D01*
X297164Y346874D01*
X297070Y346902D01*
X297048Y346905D01*
X297027Y346911D01*
X296847Y346924D01*
X296670Y346941D01*
X296648Y346938D01*
X296625Y346940D01*
X296447Y346917D01*
X296269Y346899D01*
X296248Y346892D01*
X296226Y346890D01*
X296056Y346833D01*
X295885Y346779D01*
X295865Y346768D01*
X295844Y346761D01*
X295689Y346672D01*
X295532Y346586D01*
X295515Y346572D01*
X295495Y346560D01*
X295242Y346346D01*
X293610Y344713D01*
X283715Y344713D01*
X282376Y346053D01*
X282376Y352117D01*
X282436Y352231D01*
X282441Y352248D01*
X282449Y352264D01*
X282499Y352442D01*
X282551Y352617D01*
X282552Y352635D01*
X282557Y352652D01*
X282571Y352835D01*
X282587Y353018D01*
X282585Y353036D01*
X282586Y353053D01*
X282564Y353235D01*
X282544Y353418D01*
X282538Y353435D01*
X282536Y353453D01*
X282478Y353626D01*
X282422Y353802D01*
X282414Y353818D01*
X282408Y353835D01*
X282376Y353890D01*
X282376Y358084D01*
X282374Y358102D01*
X282375Y358120D01*
X282354Y358302D01*
X282336Y358485D01*
X282331Y358502D01*
X282329Y358520D01*
X282272Y358694D01*
X282218Y358870D01*
X282209Y358886D01*
X282204Y358903D01*
X282113Y359063D01*
X282026Y359224D01*
X282015Y359238D01*
X282006Y359253D01*
X281886Y359392D01*
X281768Y359533D01*
X281754Y359544D01*
X281743Y359558D01*
X281598Y359670D01*
X281454Y359785D01*
X281439Y359794D01*
X281425Y359805D01*
X281260Y359887D01*
X281097Y359971D01*
X281080Y359976D01*
X281064Y359984D01*
X280886Y360032D01*
X280710Y360082D01*
X280692Y360084D01*
X280675Y360088D01*
X280345Y360116D01*
X276577Y360116D01*
X276551Y360113D01*
X276524Y360115D01*
X276350Y360093D01*
X276176Y360076D01*
X276151Y360068D01*
X276124Y360064D01*
X275959Y360009D01*
X275792Y359958D01*
X275768Y359945D01*
X275743Y359936D01*
X275591Y359849D01*
X275438Y359766D01*
X275417Y359749D01*
X275394Y359735D01*
X275141Y359521D01*
X271614Y355994D01*
X271597Y355973D01*
X271576Y355955D01*
X271469Y355817D01*
X271359Y355682D01*
X271346Y355658D01*
X271330Y355637D01*
X271252Y355480D01*
X271170Y355326D01*
X271162Y355301D01*
X271150Y355277D01*
X271105Y355107D01*
X271055Y354940D01*
X271053Y354914D01*
X271046Y354888D01*
X271019Y354557D01*
X271019Y343243D01*
X271021Y343216D01*
X271019Y343189D01*
X271041Y343015D01*
X271059Y342842D01*
X271066Y342816D01*
X271070Y342790D01*
X271125Y342624D01*
X271177Y342457D01*
X271190Y342433D01*
X271198Y342408D01*
X271285Y342257D01*
X271369Y342103D01*
X271386Y342083D01*
X271399Y342059D01*
X271614Y341806D01*
X271845Y341575D01*
X272769Y339345D01*
X272769Y336930D01*
X271845Y334700D01*
X270138Y332993D01*
X267907Y332069D01*
X265493Y332069D01*
X263262Y332993D01*
X261555Y334700D01*
X260631Y336930D01*
X260631Y339345D01*
X261555Y341575D01*
X261786Y341806D01*
X261803Y341827D01*
X261824Y341844D01*
X261931Y341982D01*
X262041Y342118D01*
X262054Y342141D01*
X262070Y342163D01*
X262148Y342319D01*
X262230Y342474D01*
X262238Y342499D01*
X262250Y342523D01*
X262295Y342693D01*
X262345Y342859D01*
X262347Y342886D01*
X262354Y342912D01*
X262381Y343243D01*
X262381Y358047D01*
X263039Y359634D01*
X267151Y363746D01*
X267156Y363753D01*
X267163Y363758D01*
X267283Y363908D01*
X267406Y364057D01*
X267410Y364065D01*
X267415Y364072D01*
X267503Y364242D01*
X267594Y364413D01*
X267597Y364422D01*
X267601Y364429D01*
X267654Y364614D01*
X267709Y364799D01*
X267710Y364808D01*
X267712Y364816D01*
X267728Y365008D01*
X267745Y365200D01*
X267745Y365209D01*
X267745Y365218D01*
X267723Y365404D01*
X267702Y365600D01*
X267699Y365609D01*
X267698Y365617D01*
X267639Y365799D01*
X267581Y365984D01*
X267576Y365992D01*
X267573Y366000D01*
X267478Y366169D01*
X267386Y366336D01*
X267380Y366343D01*
X267376Y366351D01*
X267250Y366497D01*
X267125Y366643D01*
X267118Y366649D01*
X267112Y366656D01*
X266961Y366773D01*
X266809Y366893D01*
X266801Y366897D01*
X266794Y366902D01*
X266622Y366988D01*
X266450Y367075D01*
X266442Y367078D01*
X266434Y367082D01*
X266248Y367132D01*
X266063Y367183D01*
X266054Y367184D01*
X266045Y367186D01*
X265714Y367213D01*
X264295Y367213D01*
X264264Y367210D01*
X264232Y367212D01*
X264063Y367190D01*
X263894Y367173D01*
X263864Y367164D01*
X263833Y367160D01*
X263517Y367059D01*
X262085Y366466D01*
X259671Y366466D01*
X257441Y367389D01*
X255733Y369097D01*
X254809Y371327D01*
X254809Y373741D01*
X255733Y375972D01*
X257441Y377679D01*
X259671Y378603D01*
X261315Y378603D01*
X261342Y378606D01*
X261369Y378604D01*
X261542Y378626D01*
X261716Y378643D01*
X261741Y378651D01*
X261768Y378654D01*
X261934Y378710D01*
X262101Y378761D01*
X262124Y378774D01*
X262150Y378782D01*
X262301Y378870D01*
X262455Y378953D01*
X262475Y378970D01*
X262499Y378983D01*
X262752Y379198D01*
X263117Y379564D01*
X263129Y379578D01*
X263142Y379589D01*
X263256Y379733D01*
X263372Y379875D01*
X263381Y379891D01*
X263392Y379905D01*
X263475Y380069D01*
X263561Y380231D01*
X263566Y380248D01*
X263574Y380264D01*
X263624Y380441D01*
X263676Y380617D01*
X263677Y380635D01*
X263682Y380652D01*
X263695Y380834D01*
X263712Y381018D01*
X263710Y381036D01*
X263712Y381053D01*
X263689Y381235D01*
X263669Y381418D01*
X263663Y381435D01*
X263661Y381453D01*
X263603Y381627D01*
X263547Y381802D01*
X263539Y381818D01*
X263533Y381834D01*
X263441Y381993D01*
X263352Y382154D01*
X263341Y382168D01*
X263332Y382183D01*
X263117Y382436D01*
X262001Y383553D01*
X262001Y393447D01*
X263340Y394787D01*
X273235Y394787D01*
X274574Y393447D01*
X274574Y389162D01*
X274577Y389136D01*
X274575Y389109D01*
X274597Y388935D01*
X274614Y388762D01*
X274622Y388736D01*
X274625Y388709D01*
X274681Y388544D01*
X274732Y388377D01*
X274745Y388353D01*
X274754Y388328D01*
X274841Y388176D01*
X274924Y388023D01*
X274941Y388002D01*
X274954Y387979D01*
X275169Y387726D01*
X276981Y385914D01*
X277002Y385897D01*
X277020Y385876D01*
X277158Y385769D01*
X277293Y385659D01*
X277317Y385646D01*
X277338Y385630D01*
X277495Y385552D01*
X277649Y385470D01*
X277674Y385462D01*
X277698Y385450D01*
X277868Y385405D01*
X278035Y385355D01*
X278061Y385353D01*
X278087Y385346D01*
X278418Y385319D01*
X280345Y385319D01*
X280362Y385321D01*
X280380Y385319D01*
X280562Y385340D01*
X280745Y385359D01*
X280762Y385364D01*
X280780Y385366D01*
X280954Y385423D01*
X281130Y385477D01*
X281146Y385485D01*
X281163Y385491D01*
X281323Y385581D01*
X281484Y385669D01*
X281498Y385680D01*
X281513Y385689D01*
X281653Y385809D01*
X281793Y385926D01*
X281805Y385940D01*
X281818Y385952D01*
X281931Y386097D01*
X282046Y386240D01*
X282054Y386256D01*
X282065Y386270D01*
X282147Y386435D01*
X282231Y386597D01*
X282236Y386614D01*
X282244Y386630D01*
X282292Y386809D01*
X282343Y386984D01*
X282344Y387002D01*
X282349Y387019D01*
X282376Y387350D01*
X282376Y392117D01*
X282436Y392231D01*
X282441Y392248D01*
X282449Y392264D01*
X282499Y392442D01*
X282551Y392617D01*
X282552Y392635D01*
X282557Y392652D01*
X282571Y392835D01*
X282587Y393018D01*
X282585Y393036D01*
X282586Y393053D01*
X282564Y393235D01*
X282544Y393418D01*
X282538Y393435D01*
X282536Y393453D01*
X282478Y393626D01*
X282422Y393802D01*
X282414Y393818D01*
X282408Y393835D01*
X282376Y393890D01*
X282376Y400117D01*
X282436Y400231D01*
X282441Y400248D01*
X282449Y400264D01*
X282499Y400442D01*
X282551Y400617D01*
X282552Y400635D01*
X282557Y400652D01*
X282571Y400835D01*
X282587Y401018D01*
X282585Y401036D01*
X282586Y401053D01*
X282564Y401235D01*
X282544Y401418D01*
X282538Y401435D01*
X282536Y401453D01*
X282478Y401626D01*
X282422Y401802D01*
X282414Y401818D01*
X282408Y401835D01*
X282376Y401890D01*
X282376Y407947D01*
X283715Y409287D01*
X287322Y409287D01*
X287353Y409290D01*
X287384Y409288D01*
X287553Y409310D01*
X287643Y409319D01*
X295201Y409319D01*
X295232Y409322D01*
X295263Y409320D01*
X295432Y409342D01*
X295602Y409359D01*
X295632Y409368D01*
X295663Y409372D01*
X298148Y409372D01*
X300378Y408448D01*
X302086Y406741D01*
X303009Y404510D01*
X303009Y402096D01*
X302086Y399866D01*
X300378Y398158D01*
X299127Y397640D01*
X299115Y397634D01*
X299102Y397630D01*
X298938Y397539D01*
X298772Y397450D01*
X298762Y397441D01*
X298750Y397435D01*
X298607Y397313D01*
X298462Y397193D01*
X298453Y397183D01*
X298443Y397174D01*
X298326Y397026D01*
X298208Y396881D01*
X298202Y396869D01*
X298193Y396858D01*
X298108Y396691D01*
X298021Y396524D01*
X298017Y396511D01*
X298011Y396499D01*
X297961Y396318D01*
X297908Y396138D01*
X297907Y396125D01*
X297903Y396112D01*
X297889Y395923D01*
X297873Y395737D01*
X297875Y395724D01*
X297874Y395710D01*
X297897Y395523D01*
X297918Y395337D01*
X297922Y395324D01*
X297924Y395311D01*
X297984Y395132D01*
X298041Y394953D01*
X298048Y394942D01*
X298052Y394929D01*
X298146Y394767D01*
X298238Y394602D01*
X298247Y394592D01*
X298253Y394580D01*
X298468Y394327D01*
X300420Y392375D01*
X301344Y390145D01*
X301344Y387730D01*
X300420Y385500D01*
X298713Y383793D01*
X296203Y382753D01*
X296184Y382743D01*
X296162Y382736D01*
X296006Y382647D01*
X295848Y382563D01*
X295831Y382549D01*
X295812Y382538D01*
X295676Y382421D01*
X295538Y382307D01*
X295524Y382289D01*
X295507Y382275D01*
X295397Y382133D01*
X295284Y381994D01*
X295274Y381974D01*
X295260Y381957D01*
X295180Y381796D01*
X295097Y381637D01*
X295091Y381616D01*
X295081Y381596D01*
X295034Y381423D01*
X294984Y381251D01*
X294982Y381229D01*
X294976Y381207D01*
X294949Y380877D01*
X294949Y377883D01*
X294889Y377769D01*
X294884Y377752D01*
X294876Y377736D01*
X294827Y377559D01*
X294774Y377383D01*
X294773Y377366D01*
X294768Y377348D01*
X294754Y377165D01*
X294738Y376982D01*
X294740Y376965D01*
X294738Y376947D01*
X294761Y376765D01*
X294781Y376582D01*
X294787Y376565D01*
X294789Y376547D01*
X294847Y376373D01*
X294903Y376198D01*
X294911Y376183D01*
X294917Y376166D01*
X294949Y376110D01*
X294949Y374223D01*
X294950Y374214D01*
X294949Y374205D01*
X294970Y374014D01*
X294989Y373823D01*
X294992Y373814D01*
X294993Y373805D01*
X295050Y373623D01*
X295107Y373438D01*
X295112Y373430D01*
X295114Y373421D01*
X295208Y373252D01*
X295299Y373084D01*
X295305Y373077D01*
X295309Y373069D01*
X295434Y372922D01*
X295557Y372774D01*
X295564Y372769D01*
X295570Y372762D01*
X295720Y372643D01*
X295871Y372522D01*
X295878Y372518D01*
X295885Y372512D01*
X296058Y372425D01*
X296228Y372337D01*
X296236Y372334D01*
X296244Y372330D01*
X296431Y372278D01*
X296615Y372225D01*
X296624Y372224D01*
X296632Y372222D01*
X296825Y372208D01*
X297016Y372192D01*
X297025Y372193D01*
X297034Y372193D01*
X297226Y372217D01*
X297416Y372239D01*
X297424Y372242D01*
X297433Y372243D01*
X297616Y372304D01*
X297799Y372364D01*
X297807Y372368D01*
X297815Y372371D01*
X297982Y372467D01*
X298149Y372562D01*
X298156Y372568D01*
X298164Y372572D01*
X298417Y372787D01*
X302899Y377269D01*
X302916Y377290D01*
X302936Y377307D01*
X303043Y377445D01*
X303154Y377580D01*
X303167Y377604D01*
X303183Y377625D01*
X303260Y377781D01*
X303343Y377936D01*
X303350Y377962D01*
X303362Y377986D01*
X303408Y378155D01*
X303457Y378322D01*
X303460Y378349D01*
X303467Y378375D01*
X303494Y378705D01*
X303494Y379032D01*
X304418Y381263D01*
X306125Y382970D01*
X308355Y383894D01*
X310770Y383894D01*
X313000Y382970D01*
X314707Y381263D01*
X315631Y379032D01*
X315631Y376528D01*
X315633Y376506D01*
X315632Y376483D01*
X315653Y376305D01*
X315671Y376127D01*
X315678Y376106D01*
X315680Y376084D01*
X315737Y375913D01*
X315789Y375742D01*
X315800Y375723D01*
X315807Y375702D01*
X315896Y375546D01*
X315981Y375388D01*
X315995Y375371D01*
X316006Y375352D01*
X316124Y375216D01*
X316239Y375079D01*
X316256Y375065D01*
X316271Y375048D01*
X316413Y374939D01*
X316553Y374827D01*
X316572Y374817D01*
X316590Y374803D01*
X316885Y374651D01*
X317763Y374288D01*
X319470Y372581D01*
X320394Y370350D01*
X320394Y369037D01*
X320397Y369006D01*
X320395Y368975D01*
X320417Y368806D01*
X320434Y368637D01*
X320442Y368610D01*
X320443Y368596D01*
X320445Y368592D01*
X320447Y368576D01*
X320548Y368260D01*
X320663Y367983D01*
X320663Y354842D01*
X320666Y354815D01*
X320664Y354788D01*
X320686Y354614D01*
X320703Y354441D01*
X320711Y354416D01*
X320714Y354389D01*
X320770Y354223D01*
X320821Y354056D01*
X320834Y354033D01*
X320843Y354007D01*
X320930Y353856D01*
X321013Y353702D01*
X321030Y353682D01*
X321043Y353658D01*
X321258Y353405D01*
X329733Y344930D01*
X329740Y344925D01*
X329746Y344918D01*
X329895Y344798D01*
X330045Y344675D01*
X330053Y344671D01*
X330060Y344665D01*
X330230Y344577D01*
X330400Y344487D01*
X330409Y344484D01*
X330417Y344480D01*
X330602Y344427D01*
X330786Y344372D01*
X330795Y344371D01*
X330804Y344369D01*
X330995Y344353D01*
X331187Y344335D01*
X331196Y344336D01*
X331205Y344336D01*
X331394Y344358D01*
X331588Y344379D01*
X331596Y344382D01*
X331605Y344383D01*
X331787Y344442D01*
X331971Y344500D01*
X331979Y344505D01*
X331988Y344507D01*
X332156Y344602D01*
X332324Y344695D01*
X332330Y344701D01*
X332338Y344705D01*
X332484Y344831D01*
X332631Y344956D01*
X332636Y344963D01*
X332643Y344969D01*
X332760Y345120D01*
X332880Y345272D01*
X332884Y345280D01*
X332890Y345287D01*
X332975Y345459D01*
X333063Y345631D01*
X333065Y345639D01*
X333069Y345647D01*
X333118Y345831D01*
X333171Y346018D01*
X333171Y346027D01*
X333174Y346036D01*
X333201Y346367D01*
X333201Y347282D01*
X334125Y349513D01*
X335832Y351220D01*
X338062Y352144D01*
X340477Y352144D01*
X342707Y351220D01*
X343700Y350227D01*
X343721Y350210D01*
X343738Y350189D01*
X343876Y350082D01*
X344012Y349972D01*
X344035Y349959D01*
X344057Y349943D01*
X344213Y349865D01*
X344367Y349783D01*
X344393Y349775D01*
X344417Y349763D01*
X344586Y349718D01*
X344753Y349668D01*
X344780Y349666D01*
X344806Y349659D01*
X345137Y349632D01*
X346090Y349632D01*
X346740Y348982D01*
X346750Y348973D01*
X346759Y348963D01*
X346906Y348846D01*
X347051Y348727D01*
X347063Y348720D01*
X347074Y348712D01*
X347241Y348626D01*
X347407Y348538D01*
X347420Y348534D01*
X347432Y348528D01*
X347613Y348477D01*
X347793Y348423D01*
X347806Y348422D01*
X347819Y348418D01*
X348005Y348404D01*
X348194Y348387D01*
X348207Y348388D01*
X348221Y348387D01*
X348406Y348410D01*
X348594Y348430D01*
X348607Y348434D01*
X348620Y348436D01*
X348799Y348495D01*
X348978Y348552D01*
X348990Y348558D01*
X349003Y348562D01*
X349165Y348655D01*
X349330Y348746D01*
X349341Y348755D01*
X349352Y348762D01*
X349494Y348885D01*
X349637Y349007D01*
X349646Y349018D01*
X349656Y349026D01*
X349770Y349175D01*
X349887Y349323D01*
X349893Y349335D01*
X349901Y349346D01*
X349974Y349487D01*
X351707Y351220D01*
X353937Y352144D01*
X356352Y352144D01*
X358582Y351220D01*
X360289Y349513D01*
X361213Y347282D01*
X361213Y345878D01*
X361216Y345851D01*
X361214Y345824D01*
X361236Y345650D01*
X361253Y345477D01*
X361261Y345452D01*
X361264Y345425D01*
X361320Y345259D01*
X361371Y345092D01*
X361384Y345069D01*
X361393Y345043D01*
X361480Y344892D01*
X361563Y344738D01*
X361580Y344718D01*
X361593Y344694D01*
X361808Y344441D01*
X365842Y340407D01*
X365856Y340396D01*
X365868Y340382D01*
X366012Y340268D01*
X366154Y340152D01*
X366169Y340144D01*
X366183Y340133D01*
X366348Y340049D01*
X366509Y339964D01*
X366526Y339959D01*
X366542Y339950D01*
X366720Y339901D01*
X366895Y339849D01*
X366913Y339847D01*
X366930Y339842D01*
X367113Y339829D01*
X367296Y339812D01*
X367314Y339814D01*
X367332Y339813D01*
X367514Y339836D01*
X367697Y339856D01*
X367714Y339861D01*
X367731Y339863D01*
X367905Y339922D01*
X368080Y339977D01*
X368096Y339986D01*
X368113Y339992D01*
X368272Y340084D01*
X368433Y340172D01*
X368446Y340184D01*
X368462Y340193D01*
X368715Y340407D01*
X376579Y348271D01*
X376596Y348292D01*
X376616Y348310D01*
X376723Y348447D01*
X376834Y348583D01*
X376846Y348606D01*
X376863Y348628D01*
X376941Y348785D01*
X377023Y348939D01*
X377030Y348964D01*
X377042Y348988D01*
X377088Y349158D01*
X377137Y349324D01*
X377140Y349351D01*
X377147Y349377D01*
X377174Y349708D01*
X377174Y359258D01*
X377171Y359284D01*
X377173Y359311D01*
X377151Y359485D01*
X377134Y359659D01*
X377126Y359684D01*
X377123Y359711D01*
X377067Y359876D01*
X377016Y360043D01*
X377003Y360067D01*
X376994Y360092D01*
X376907Y360244D01*
X376824Y360397D01*
X376807Y360418D01*
X376794Y360441D01*
X376579Y360694D01*
X375586Y361687D01*
X374662Y363918D01*
X374662Y366332D01*
X375586Y368563D01*
X377293Y370270D01*
X379112Y371023D01*
X379131Y371034D01*
X379153Y371041D01*
X379309Y371129D01*
X379467Y371213D01*
X379484Y371228D01*
X379503Y371239D01*
X379639Y371356D01*
X379777Y371470D01*
X379791Y371487D01*
X379808Y371502D01*
X379918Y371643D01*
X380031Y371782D01*
X380041Y371802D01*
X380055Y371820D01*
X380135Y371981D01*
X380218Y372139D01*
X380224Y372160D01*
X380234Y372180D01*
X380281Y372354D01*
X380331Y372525D01*
X380333Y372548D01*
X380339Y372569D01*
X380366Y372900D01*
X380366Y397163D01*
X380363Y397189D01*
X380365Y397216D01*
X380343Y397390D01*
X380326Y397564D01*
X380318Y397589D01*
X380315Y397616D01*
X380259Y397781D01*
X380208Y397948D01*
X380195Y397972D01*
X380186Y397997D01*
X380099Y398149D01*
X380016Y398302D01*
X379999Y398323D01*
X379986Y398346D01*
X379771Y398599D01*
X379540Y398830D01*
X378616Y401061D01*
X378616Y403475D01*
X379540Y405706D01*
X381247Y407413D01*
X383477Y408337D01*
X385892Y408337D01*
X388122Y407413D01*
X388488Y407047D01*
X388503Y407035D01*
X388515Y407021D01*
X388658Y406907D01*
X388800Y406791D01*
X388816Y406783D01*
X388831Y406771D01*
X388994Y406688D01*
X389156Y406603D01*
X389173Y406598D01*
X389190Y406589D01*
X389367Y406540D01*
X389542Y406488D01*
X389560Y406486D01*
X389578Y406481D01*
X389760Y406468D01*
X389943Y406452D01*
X389961Y406454D01*
X389980Y406452D01*
X390160Y406475D01*
X390343Y406495D01*
X390361Y406501D01*
X390379Y406503D01*
X390552Y406561D01*
X390727Y406617D01*
X390743Y406626D01*
X390761Y406631D01*
X390831Y406672D01*
X393327Y407706D01*
X395742Y407706D01*
X397594Y406939D01*
X397615Y406932D01*
X397635Y406922D01*
X397808Y406874D01*
X397980Y406822D01*
X398002Y406820D01*
X398023Y406814D01*
X398202Y406801D01*
X398380Y406784D01*
X398402Y406787D01*
X398425Y406785D01*
X398603Y406807D01*
X398781Y406826D01*
X398802Y406833D01*
X398824Y406835D01*
X398994Y406893D01*
X399165Y406946D01*
X399185Y406956D01*
X399206Y406964D01*
X399361Y407053D01*
X399518Y407139D01*
X399535Y407153D01*
X399555Y407165D01*
X399808Y407379D01*
X399992Y407564D01*
X400004Y407577D01*
X400017Y407589D01*
X400131Y407733D01*
X400247Y407875D01*
X400256Y407891D01*
X400267Y407905D01*
X400350Y408069D01*
X400436Y408231D01*
X400441Y408248D01*
X400449Y408264D01*
X400498Y408440D01*
X400551Y408617D01*
X400552Y408635D01*
X400557Y408652D01*
X400571Y408835D01*
X400587Y409018D01*
X400585Y409036D01*
X400587Y409053D01*
X400564Y409235D01*
X400544Y409418D01*
X400538Y409435D01*
X400536Y409453D01*
X400478Y409626D01*
X400422Y409802D01*
X400414Y409818D01*
X400408Y409834D01*
X400376Y409890D01*
X400376Y416117D01*
X400436Y416231D01*
X400441Y416248D01*
X400449Y416264D01*
X400498Y416440D01*
X400551Y416617D01*
X400552Y416634D01*
X400557Y416652D01*
X400571Y416835D01*
X400587Y417018D01*
X400585Y417035D01*
X400587Y417053D01*
X400564Y417235D01*
X400544Y417418D01*
X400538Y417435D01*
X400536Y417453D01*
X400478Y417627D01*
X400422Y417802D01*
X400414Y417817D01*
X400408Y417834D01*
X400376Y417890D01*
X400376Y423947D01*
X401715Y425287D01*
X411610Y425287D01*
X412949Y423947D01*
X412949Y417883D01*
X412889Y417769D01*
X412884Y417752D01*
X412876Y417736D01*
X412826Y417558D01*
X412774Y417383D01*
X412773Y417365D01*
X412768Y417348D01*
X412754Y417165D01*
X412738Y416982D01*
X412740Y416964D01*
X412739Y416947D01*
X412761Y416765D01*
X412781Y416582D01*
X412787Y416565D01*
X412789Y416547D01*
X412847Y416374D01*
X412903Y416198D01*
X412911Y416182D01*
X412917Y416165D01*
X412949Y416110D01*
X412949Y409883D01*
X412889Y409769D01*
X412884Y409752D01*
X412876Y409736D01*
X412826Y409558D01*
X412774Y409383D01*
X412773Y409365D01*
X412768Y409348D01*
X412754Y409165D01*
X412738Y408982D01*
X412740Y408964D01*
X412739Y408947D01*
X412761Y408765D01*
X412781Y408582D01*
X412787Y408565D01*
X412789Y408547D01*
X412847Y408374D01*
X412903Y408198D01*
X412911Y408182D01*
X412917Y408165D01*
X412949Y408110D01*
X412949Y401883D01*
X412889Y401769D01*
X412884Y401752D01*
X412876Y401736D01*
X412826Y401558D01*
X412774Y401383D01*
X412773Y401365D01*
X412768Y401348D01*
X412754Y401165D01*
X412738Y400982D01*
X412740Y400964D01*
X412739Y400947D01*
X412761Y400765D01*
X412781Y400582D01*
X412787Y400565D01*
X412789Y400547D01*
X412847Y400374D01*
X412903Y400198D01*
X412911Y400182D01*
X412917Y400165D01*
X412949Y400110D01*
X412949Y398625D01*
X412951Y398607D01*
X412950Y398589D01*
X412971Y398407D01*
X412989Y398224D01*
X412994Y398207D01*
X412996Y398190D01*
X413053Y398015D01*
X413107Y397839D01*
X413116Y397824D01*
X413121Y397807D01*
X413212Y397647D01*
X413299Y397485D01*
X413310Y397472D01*
X413319Y397456D01*
X413439Y397317D01*
X413557Y397176D01*
X413571Y397165D01*
X413582Y397151D01*
X413727Y397039D01*
X413871Y396924D01*
X413886Y396916D01*
X413900Y396905D01*
X414065Y396823D01*
X414228Y396738D01*
X414245Y396733D01*
X414261Y396725D01*
X414439Y396678D01*
X414615Y396627D01*
X414633Y396625D01*
X414650Y396621D01*
X414980Y396594D01*
X415045Y396594D01*
X415071Y396596D01*
X415098Y396594D01*
X415272Y396616D01*
X415445Y396634D01*
X415471Y396641D01*
X415498Y396645D01*
X415663Y396701D01*
X415830Y396752D01*
X415854Y396765D01*
X415879Y396773D01*
X416031Y396860D01*
X416184Y396944D01*
X416205Y396961D01*
X416228Y396974D01*
X416481Y397189D01*
X421416Y402124D01*
X423003Y402781D01*
X430420Y402781D01*
X430437Y402783D01*
X430455Y402782D01*
X430637Y402803D01*
X430820Y402821D01*
X430837Y402826D01*
X430855Y402828D01*
X431030Y402885D01*
X431205Y402939D01*
X431221Y402948D01*
X431238Y402953D01*
X431398Y403044D01*
X431559Y403131D01*
X431573Y403142D01*
X431588Y403151D01*
X431728Y403271D01*
X431868Y403389D01*
X431880Y403403D01*
X431893Y403414D01*
X432006Y403559D01*
X432121Y403703D01*
X432129Y403718D01*
X432140Y403732D01*
X432222Y403897D01*
X432306Y404060D01*
X432311Y404077D01*
X432319Y404093D01*
X432367Y404271D01*
X432418Y404447D01*
X432419Y404465D01*
X432424Y404482D01*
X432451Y404812D01*
X432451Y404915D01*
X433180Y406674D01*
X434526Y408020D01*
X436285Y408749D01*
X443190Y408749D01*
X444949Y408020D01*
X446295Y406674D01*
X446906Y405201D01*
X446920Y405174D01*
X446930Y405145D01*
X447015Y404997D01*
X447096Y404846D01*
X447115Y404823D01*
X447130Y404796D01*
X447243Y404668D01*
X447352Y404536D01*
X447376Y404517D01*
X447396Y404494D01*
X447532Y404390D01*
X447665Y404282D01*
X447692Y404268D01*
X447716Y404249D01*
X447870Y404175D01*
X448021Y404095D01*
X448051Y404087D01*
X448078Y404073D01*
X448243Y404030D01*
X448408Y403982D01*
X448438Y403979D01*
X448468Y403972D01*
X448639Y403962D01*
X448809Y403947D01*
X448839Y403951D01*
X448870Y403949D01*
X449039Y403973D01*
X449209Y403993D01*
X449238Y404002D01*
X449268Y404006D01*
X449429Y404063D01*
X449592Y404116D01*
X449619Y404131D01*
X449648Y404141D01*
X449794Y404229D01*
X449944Y404312D01*
X449967Y404332D01*
X449993Y404348D01*
X450119Y404462D01*
X450250Y404574D01*
X450268Y404598D01*
X450291Y404618D01*
X450392Y404756D01*
X450498Y404891D01*
X450511Y404918D01*
X450530Y404943D01*
X450602Y405098D01*
X450679Y405251D01*
X450687Y405280D01*
X450699Y405308D01*
X450740Y405474D01*
X450785Y405639D01*
X450787Y405669D01*
X450794Y405699D01*
X450801Y405870D01*
X450812Y406041D01*
X450809Y406071D01*
X450810Y406101D01*
X450763Y406430D01*
X450596Y407162D01*
X450574Y407226D01*
X450506Y407452D01*
X450182Y408278D01*
X450195Y408329D01*
X450200Y408454D01*
X450214Y408578D01*
X450207Y408655D01*
X450210Y408731D01*
X450187Y408893D01*
X450180Y408980D01*
X450170Y409014D01*
X450163Y409060D01*
X449971Y409905D01*
X449946Y409977D01*
X449931Y410052D01*
X449882Y410168D01*
X449843Y410286D01*
X449805Y410353D01*
X449775Y410423D01*
X449704Y410527D01*
X449649Y410624D01*
X449583Y411502D01*
X449572Y411569D01*
X449538Y411803D01*
X449341Y412668D01*
X449361Y412716D01*
X449384Y412839D01*
X449417Y412960D01*
X449422Y413036D01*
X449436Y413111D01*
X449437Y413275D01*
X449443Y413362D01*
X449438Y413397D01*
X449438Y413443D01*
X449374Y414308D01*
X449361Y414383D01*
X449357Y414460D01*
X449326Y414581D01*
X449304Y414704D01*
X449276Y414776D01*
X449258Y414850D01*
X449204Y414963D01*
X449163Y415067D01*
X449229Y415945D01*
X449227Y416013D01*
X449229Y416249D01*
X449163Y417134D01*
X449190Y417179D01*
X449231Y417297D01*
X449282Y417412D01*
X449298Y417486D01*
X449323Y417558D01*
X449349Y417720D01*
X449367Y417805D01*
X449368Y417841D01*
X449375Y417886D01*
X449440Y418751D01*
X449438Y418827D01*
X449446Y418903D01*
X449434Y419028D01*
X449430Y419153D01*
X449414Y419228D01*
X449406Y419304D01*
X449369Y419424D01*
X449345Y419532D01*
X449541Y420391D01*
X449549Y420458D01*
X449586Y420692D01*
X449653Y421577D01*
X449686Y421617D01*
X449745Y421727D01*
X449811Y421833D01*
X449839Y421905D01*
X449875Y421973D01*
X449924Y422128D01*
X449955Y422210D01*
X449961Y422245D01*
X449975Y422289D01*
X450168Y423134D01*
X450177Y423210D01*
X450196Y423284D01*
X450203Y423409D01*
X450218Y423533D01*
X450213Y423610D01*
X450216Y423686D01*
X450198Y423810D01*
X450190Y423921D01*
X450512Y424742D01*
X450530Y424806D01*
X450602Y425032D01*
X450799Y425897D01*
X450838Y425932D01*
X450913Y426032D01*
X450994Y426127D01*
X451032Y426194D01*
X451078Y426255D01*
X451149Y426402D01*
X451192Y426478D01*
X451203Y426512D01*
X451224Y426553D01*
X451541Y427360D01*
X451561Y427434D01*
X451591Y427504D01*
X451616Y427627D01*
X451650Y427747D01*
X451656Y427824D01*
X451671Y427899D01*
X451671Y428024D01*
X451681Y428149D01*
X451671Y428225D01*
X451672Y428301D01*
X451655Y428394D01*
X451660Y428416D01*
X451661Y428461D01*
X451669Y428506D01*
X451669Y428764D01*
X451671Y428819D01*
X451669Y428827D01*
X451669Y428837D01*
X451287Y433552D01*
X451263Y433687D01*
X451247Y433823D01*
X451227Y433884D01*
X451215Y433948D01*
X451164Y434075D01*
X451122Y434206D01*
X451090Y434262D01*
X451066Y434322D01*
X450991Y434437D01*
X450924Y434556D01*
X450882Y434605D01*
X450846Y434659D01*
X450750Y434757D01*
X450661Y434861D01*
X450610Y434901D01*
X450564Y434947D01*
X450451Y435024D01*
X450343Y435108D01*
X450285Y435137D01*
X450231Y435173D01*
X450105Y435226D01*
X449982Y435287D01*
X449920Y435304D01*
X449860Y435329D01*
X449726Y435356D01*
X449593Y435392D01*
X449519Y435398D01*
X449466Y435409D01*
X449386Y435409D01*
X449263Y435419D01*
X439602Y435419D01*
X439575Y435416D01*
X439548Y435418D01*
X439376Y435396D01*
X439201Y435379D01*
X439176Y435371D01*
X439149Y435368D01*
X438984Y435312D01*
X438817Y435261D01*
X438793Y435248D01*
X438767Y435239D01*
X438616Y435152D01*
X438463Y435069D01*
X438442Y435052D01*
X438419Y435038D01*
X438414Y435034D01*
X436672Y434313D01*
X261628Y434313D01*
X259868Y435042D01*
X259823Y435079D01*
X259799Y435091D01*
X259778Y435108D01*
X259622Y435185D01*
X259467Y435267D01*
X259441Y435275D01*
X259417Y435287D01*
X259249Y435332D01*
X259081Y435382D01*
X259055Y435385D01*
X259029Y435392D01*
X258698Y435419D01*
X246074Y435419D01*
X245978Y435409D01*
X245881Y435410D01*
X245778Y435389D01*
X245674Y435379D01*
X245581Y435350D01*
X245486Y435332D01*
X245389Y435292D01*
X245289Y435261D01*
X245204Y435215D01*
X245114Y435177D01*
X245027Y435119D01*
X244935Y435069D01*
X244860Y435007D01*
X244780Y434953D01*
X244706Y434878D01*
X244626Y434811D01*
X244565Y434736D01*
X244496Y434667D01*
X244439Y434579D01*
X244373Y434497D01*
X244328Y434411D01*
X244275Y434330D01*
X244236Y434233D01*
X244188Y434140D01*
X244161Y434047D01*
X244125Y433957D01*
X244105Y433854D01*
X244076Y433753D01*
X244068Y433657D01*
X244051Y433561D01*
X244052Y433456D01*
X244043Y433352D01*
X244055Y433256D01*
X244056Y433159D01*
X244078Y433056D01*
X244090Y432952D01*
X244120Y432860D01*
X244141Y432765D01*
X244183Y432669D01*
X244215Y432569D01*
X244263Y432485D01*
X244302Y432396D01*
X244373Y432290D01*
X244413Y432219D01*
X244447Y432179D01*
X244487Y432121D01*
X244523Y432075D01*
X244526Y432023D01*
X244558Y431902D01*
X244582Y431779D01*
X244610Y431708D01*
X244630Y431634D01*
X244700Y431486D01*
X244733Y431406D01*
X244752Y431376D01*
X244772Y431334D01*
X245206Y430584D01*
X245250Y430521D01*
X245287Y430454D01*
X245368Y430358D01*
X245441Y430257D01*
X245497Y430205D01*
X245546Y430146D01*
X245644Y430068D01*
X245725Y429992D01*
X246048Y429172D01*
X246056Y429155D01*
X246058Y429151D01*
X246066Y429136D01*
X246078Y429112D01*
X246180Y428898D01*
X246623Y428130D01*
X246619Y428078D01*
X246633Y427954D01*
X246637Y427828D01*
X246655Y427754D01*
X246664Y427678D01*
X246711Y427522D01*
X246731Y427437D01*
X246746Y427404D01*
X246759Y427360D01*
X247076Y426553D01*
X247111Y426485D01*
X247137Y426413D01*
X247203Y426306D01*
X247260Y426195D01*
X247308Y426135D01*
X247348Y426070D01*
X247433Y425978D01*
X247502Y425891D01*
X247698Y425032D01*
X247720Y424968D01*
X247788Y424742D01*
X248113Y423916D01*
X248100Y423865D01*
X248095Y423740D01*
X248081Y423615D01*
X248088Y423539D01*
X248085Y423462D01*
X248108Y423301D01*
X248116Y423214D01*
X248126Y423179D01*
X248132Y423134D01*
X248325Y422289D01*
X248350Y422216D01*
X248365Y422142D01*
X248414Y422026D01*
X248454Y421907D01*
X248492Y421841D01*
X248521Y421771D01*
X248592Y421667D01*
X248648Y421570D01*
X248714Y420692D01*
X248725Y420625D01*
X248759Y420391D01*
X248957Y419526D01*
X248937Y419478D01*
X248914Y419355D01*
X248881Y419234D01*
X248876Y419158D01*
X248862Y419082D01*
X248861Y418919D01*
X248855Y418832D01*
X248860Y418797D01*
X248860Y418751D01*
X248925Y417886D01*
X248938Y417811D01*
X248942Y417734D01*
X248973Y417613D01*
X248995Y417490D01*
X249023Y417418D01*
X249042Y417344D01*
X249096Y417231D01*
X249136Y417128D01*
X249071Y416249D01*
X249073Y416182D01*
X249071Y415945D01*
X249138Y415060D01*
X249111Y415015D01*
X249069Y414897D01*
X249019Y414783D01*
X249003Y414708D01*
X248978Y414636D01*
X248952Y414474D01*
X248934Y414389D01*
X248933Y414353D01*
X248926Y414308D01*
X248862Y413443D01*
X248863Y413367D01*
X248856Y413291D01*
X248868Y413166D01*
X248872Y413041D01*
X248888Y412966D01*
X248896Y412890D01*
X248933Y412770D01*
X248958Y412662D01*
X248762Y411803D01*
X248754Y411736D01*
X248717Y411502D01*
X248651Y410617D01*
X248618Y410577D01*
X248559Y410466D01*
X248492Y410360D01*
X248465Y410289D01*
X248429Y410221D01*
X248380Y410065D01*
X248349Y409984D01*
X248343Y409949D01*
X248329Y409905D01*
X248137Y409060D01*
X248127Y408984D01*
X248108Y408909D01*
X248102Y408784D01*
X248087Y408660D01*
X248092Y408584D01*
X248088Y408507D01*
X248107Y408383D01*
X248115Y408272D01*
X247794Y407452D01*
X247775Y407387D01*
X247704Y407162D01*
X247507Y406297D01*
X247468Y406261D01*
X247394Y406161D01*
X247312Y406066D01*
X247274Y405999D01*
X247229Y405938D01*
X247157Y405791D01*
X247114Y405715D01*
X247103Y405681D01*
X247083Y405640D01*
X246767Y404833D01*
X246746Y404759D01*
X246716Y404688D01*
X246691Y404566D01*
X246657Y404445D01*
X246652Y404369D01*
X246637Y404294D01*
X246636Y404168D01*
X246628Y404057D01*
X246188Y403294D01*
X246160Y403233D01*
X246056Y403021D01*
X245732Y402194D01*
X245689Y402166D01*
X245600Y402077D01*
X245505Y401995D01*
X245458Y401935D01*
X245404Y401881D01*
X245311Y401747D01*
X245257Y401678D01*
X245241Y401646D01*
X245215Y401608D01*
X244782Y400857D01*
X244750Y400788D01*
X244711Y400722D01*
X244668Y400604D01*
X244616Y400490D01*
X244599Y400416D01*
X244573Y400344D01*
X244554Y400220D01*
X244529Y400111D01*
X243980Y399422D01*
X243944Y399366D01*
X243809Y399171D01*
X243330Y398341D01*
X243306Y398327D01*
X243271Y398297D01*
X243231Y398272D01*
X243119Y398165D01*
X243002Y398064D01*
X242973Y398027D01*
X242939Y397995D01*
X242850Y397868D01*
X242755Y397746D01*
X242734Y397704D01*
X242707Y397666D01*
X242644Y397524D01*
X242575Y397386D01*
X242563Y397340D01*
X242544Y397297D01*
X242511Y397146D01*
X242471Y396997D01*
X242467Y396944D01*
X242458Y396904D01*
X242456Y396818D01*
X242444Y396666D01*
X242444Y388701D01*
X242447Y388671D01*
X242445Y388639D01*
X242467Y388470D01*
X242484Y388301D01*
X242493Y388271D01*
X242497Y388240D01*
X242598Y387924D01*
X243326Y386168D01*
X243326Y383666D01*
X243307Y383606D01*
X243304Y383574D01*
X243296Y383544D01*
X243269Y383213D01*
X243269Y316111D01*
X243272Y316084D01*
X243270Y316057D01*
X243292Y315883D01*
X243309Y315710D01*
X243317Y315685D01*
X243320Y315658D01*
X243376Y315492D01*
X243427Y315325D01*
X243440Y315302D01*
X243449Y315276D01*
X243536Y315125D01*
X243619Y314971D01*
X243636Y314951D01*
X243649Y314927D01*
X243864Y314674D01*
X273605Y284934D01*
X273626Y284917D01*
X273643Y284896D01*
X273781Y284789D01*
X273916Y284679D01*
X273940Y284666D01*
X273961Y284650D01*
X274118Y284572D01*
X274272Y284490D01*
X274298Y284482D01*
X274322Y284470D01*
X274491Y284425D01*
X274658Y284375D01*
X274685Y284373D01*
X274710Y284366D01*
X275041Y284339D01*
X297391Y284339D01*
X297395Y284339D01*
G37*
G36*
X403187Y283721D02*
X403187Y283721D01*
X403205Y283719D01*
X403387Y283740D01*
X403570Y283759D01*
X403587Y283764D01*
X403605Y283766D01*
X403779Y283823D01*
X403955Y283877D01*
X403971Y283885D01*
X403988Y283891D01*
X404148Y283981D01*
X404309Y284069D01*
X404323Y284080D01*
X404338Y284089D01*
X404478Y284209D01*
X404618Y284326D01*
X404630Y284340D01*
X404643Y284352D01*
X404755Y284497D01*
X404871Y284640D01*
X404879Y284656D01*
X404890Y284670D01*
X404972Y284835D01*
X405056Y284997D01*
X405061Y285014D01*
X405069Y285031D01*
X405117Y285209D01*
X405168Y285384D01*
X405169Y285402D01*
X405174Y285419D01*
X405201Y285750D01*
X405201Y288545D01*
X406125Y290775D01*
X407832Y292482D01*
X410062Y293406D01*
X412477Y293406D01*
X414655Y292504D01*
X414668Y292500D01*
X414679Y292494D01*
X414859Y292442D01*
X415040Y292388D01*
X415053Y292386D01*
X415066Y292383D01*
X415254Y292367D01*
X415441Y292349D01*
X415454Y292351D01*
X415468Y292350D01*
X415654Y292372D01*
X415841Y292391D01*
X415854Y292395D01*
X415867Y292397D01*
X416047Y292455D01*
X416226Y292511D01*
X416237Y292517D01*
X416250Y292521D01*
X416414Y292614D01*
X416579Y292704D01*
X416589Y292713D01*
X416601Y292719D01*
X416743Y292842D01*
X416887Y292963D01*
X416895Y292974D01*
X416906Y292983D01*
X417020Y293130D01*
X417138Y293278D01*
X417144Y293290D01*
X417152Y293301D01*
X417236Y293469D01*
X417322Y293636D01*
X417326Y293649D01*
X417332Y293661D01*
X417381Y293844D01*
X417432Y294024D01*
X417433Y294037D01*
X417436Y294050D01*
X417463Y294381D01*
X417463Y300310D01*
X418836Y301683D01*
X418853Y301703D01*
X418874Y301721D01*
X418981Y301859D01*
X419091Y301994D01*
X419104Y302018D01*
X419120Y302039D01*
X419198Y302196D01*
X419280Y302350D01*
X419288Y302375D01*
X419300Y302400D01*
X419345Y302569D01*
X419395Y302736D01*
X419397Y302762D01*
X419404Y302788D01*
X419431Y303119D01*
X419431Y305007D01*
X419429Y305025D01*
X419431Y305043D01*
X419410Y305225D01*
X419391Y305408D01*
X419386Y305425D01*
X419384Y305442D01*
X419327Y305617D01*
X419273Y305793D01*
X419265Y305808D01*
X419259Y305825D01*
X419169Y305985D01*
X419081Y306147D01*
X419070Y306160D01*
X419061Y306176D01*
X418941Y306315D01*
X418824Y306456D01*
X418810Y306467D01*
X418798Y306481D01*
X418653Y306593D01*
X418510Y306708D01*
X418494Y306716D01*
X418480Y306727D01*
X418315Y306809D01*
X418153Y306894D01*
X418136Y306899D01*
X418120Y306907D01*
X417941Y306955D01*
X417766Y307005D01*
X417748Y307007D01*
X417731Y307011D01*
X417413Y307037D01*
X415651Y307767D01*
X414305Y309114D01*
X413576Y310873D01*
X413576Y317777D01*
X414305Y319536D01*
X415651Y320883D01*
X416250Y321131D01*
X416262Y321138D01*
X416275Y321142D01*
X416439Y321232D01*
X416605Y321321D01*
X416616Y321330D01*
X416627Y321336D01*
X416770Y321458D01*
X416916Y321578D01*
X416924Y321588D01*
X416934Y321597D01*
X417051Y321745D01*
X417169Y321890D01*
X417176Y321902D01*
X417184Y321913D01*
X417269Y322081D01*
X417356Y322247D01*
X417360Y322260D01*
X417366Y322272D01*
X417417Y322452D01*
X417470Y322633D01*
X417471Y322647D01*
X417474Y322660D01*
X417488Y322848D01*
X417504Y323034D01*
X417503Y323048D01*
X417504Y323061D01*
X417480Y323248D01*
X417459Y323435D01*
X417455Y323447D01*
X417453Y323461D01*
X417394Y323638D01*
X417336Y323818D01*
X417329Y323830D01*
X417325Y323842D01*
X417231Y324005D01*
X417139Y324169D01*
X417131Y324180D01*
X417124Y324191D01*
X416909Y324444D01*
X416076Y325278D01*
X416076Y336275D01*
X416075Y336284D01*
X416076Y336293D01*
X416055Y336485D01*
X416036Y336676D01*
X416033Y336685D01*
X416032Y336694D01*
X415975Y336876D01*
X415918Y337061D01*
X415913Y337069D01*
X415911Y337077D01*
X415818Y337246D01*
X415726Y337415D01*
X415720Y337422D01*
X415716Y337430D01*
X415591Y337578D01*
X415468Y337724D01*
X415461Y337730D01*
X415455Y337737D01*
X415304Y337857D01*
X415154Y337977D01*
X415147Y337981D01*
X415140Y337986D01*
X414967Y338074D01*
X414797Y338162D01*
X414789Y338165D01*
X414781Y338169D01*
X414595Y338220D01*
X414410Y338274D01*
X414401Y338274D01*
X414393Y338277D01*
X414200Y338291D01*
X414009Y338306D01*
X414000Y338305D01*
X413991Y338306D01*
X413798Y338282D01*
X413609Y338260D01*
X413601Y338257D01*
X413592Y338256D01*
X413409Y338194D01*
X413226Y338135D01*
X413218Y338130D01*
X413210Y338127D01*
X413045Y338032D01*
X412876Y337937D01*
X412869Y337931D01*
X412861Y337926D01*
X412608Y337712D01*
X411610Y336713D01*
X401980Y336713D01*
X401963Y336711D01*
X401945Y336713D01*
X401763Y336692D01*
X401580Y336673D01*
X401563Y336668D01*
X401545Y336666D01*
X401371Y336609D01*
X401195Y336555D01*
X401179Y336547D01*
X401162Y336541D01*
X401002Y336451D01*
X400841Y336363D01*
X400827Y336352D01*
X400812Y336343D01*
X400672Y336223D01*
X400532Y336106D01*
X400520Y336092D01*
X400507Y336080D01*
X400394Y335935D01*
X400279Y335792D01*
X400271Y335776D01*
X400260Y335762D01*
X400178Y335597D01*
X400094Y335435D01*
X400089Y335418D01*
X400081Y335402D01*
X400033Y335223D01*
X399982Y335048D01*
X399981Y335030D01*
X399976Y335013D01*
X399949Y334682D01*
X399949Y327053D01*
X398610Y325713D01*
X392545Y325713D01*
X392432Y325773D01*
X392415Y325779D01*
X392398Y325787D01*
X392221Y325836D01*
X392046Y325888D01*
X392028Y325890D01*
X392011Y325895D01*
X391828Y325908D01*
X391645Y325925D01*
X391627Y325923D01*
X391609Y325924D01*
X391428Y325901D01*
X391244Y325881D01*
X391227Y325876D01*
X391210Y325874D01*
X391036Y325815D01*
X390861Y325760D01*
X390845Y325751D01*
X390828Y325745D01*
X390772Y325713D01*
X386380Y325713D01*
X386363Y325711D01*
X386345Y325713D01*
X386163Y325692D01*
X385980Y325673D01*
X385963Y325668D01*
X385945Y325666D01*
X385771Y325609D01*
X385595Y325555D01*
X385579Y325547D01*
X385562Y325541D01*
X385402Y325451D01*
X385241Y325363D01*
X385227Y325352D01*
X385212Y325343D01*
X385072Y325223D01*
X384932Y325106D01*
X384920Y325092D01*
X384907Y325080D01*
X384794Y324935D01*
X384679Y324792D01*
X384671Y324776D01*
X384660Y324762D01*
X384578Y324597D01*
X384494Y324435D01*
X384489Y324418D01*
X384481Y324402D01*
X384433Y324223D01*
X384382Y324048D01*
X384381Y324030D01*
X384376Y324013D01*
X384349Y323682D01*
X384349Y297218D01*
X384351Y297200D01*
X384350Y297182D01*
X384371Y297000D01*
X384389Y296817D01*
X384394Y296800D01*
X384396Y296783D01*
X384453Y296608D01*
X384507Y296432D01*
X384516Y296417D01*
X384521Y296400D01*
X384612Y296240D01*
X384699Y296078D01*
X384710Y296065D01*
X384719Y296049D01*
X384840Y295910D01*
X384957Y295769D01*
X384971Y295758D01*
X384982Y295744D01*
X385127Y295632D01*
X385271Y295517D01*
X385286Y295509D01*
X385300Y295498D01*
X385465Y295416D01*
X385628Y295331D01*
X385645Y295326D01*
X385661Y295318D01*
X385753Y295294D01*
X387199Y293847D01*
X387199Y285750D01*
X387201Y285732D01*
X387200Y285714D01*
X387221Y285532D01*
X387239Y285349D01*
X387244Y285332D01*
X387246Y285315D01*
X387303Y285140D01*
X387357Y284964D01*
X387366Y284949D01*
X387371Y284932D01*
X387462Y284772D01*
X387549Y284610D01*
X387560Y284597D01*
X387569Y284581D01*
X387689Y284442D01*
X387807Y284301D01*
X387821Y284290D01*
X387832Y284277D01*
X387977Y284164D01*
X388121Y284049D01*
X388136Y284041D01*
X388150Y284030D01*
X388315Y283948D01*
X388478Y283863D01*
X388495Y283858D01*
X388511Y283850D01*
X388689Y283803D01*
X388865Y283752D01*
X388883Y283750D01*
X388900Y283746D01*
X389230Y283719D01*
X403170Y283719D01*
X403187Y283721D01*
G37*
G36*
X481091Y388655D02*
X481091Y388655D01*
X481134Y388654D01*
X485127Y389254D01*
X485157Y389265D01*
X485200Y389271D01*
X489059Y390460D01*
X489087Y390475D01*
X489128Y390487D01*
X492766Y392238D01*
X492788Y392254D01*
X492814Y392264D01*
X492867Y392314D01*
X492925Y392358D01*
X492938Y392381D01*
X492958Y392400D01*
X492988Y392467D01*
X493024Y392530D01*
X493027Y392557D01*
X493038Y392582D01*
X493039Y392655D01*
X493048Y392728D01*
X493040Y392754D01*
X493040Y392781D01*
X493004Y392880D01*
X492992Y392919D01*
X492986Y392926D01*
X492982Y392937D01*
X465982Y439737D01*
X465964Y439757D01*
X465953Y439782D01*
X465899Y439831D01*
X465851Y439886D01*
X465826Y439898D01*
X465806Y439916D01*
X465737Y439940D01*
X465671Y439972D01*
X465644Y439973D01*
X465619Y439982D01*
X465546Y439977D01*
X465473Y439981D01*
X465447Y439971D01*
X465420Y439970D01*
X465324Y439926D01*
X465286Y439911D01*
X465279Y439905D01*
X465269Y439900D01*
X461932Y437627D01*
X461910Y437604D01*
X461874Y437580D01*
X458913Y434835D01*
X458894Y434809D01*
X458862Y434780D01*
X456344Y431624D01*
X456329Y431596D01*
X456302Y431563D01*
X454282Y428066D01*
X454272Y428036D01*
X454249Y427999D01*
X452773Y424241D01*
X452768Y424210D01*
X452751Y424170D01*
X451851Y420234D01*
X451851Y420202D01*
X451840Y420160D01*
X451537Y416134D01*
X451540Y416110D01*
X451537Y416090D01*
X451539Y416081D01*
X451537Y416059D01*
X451838Y412033D01*
X451846Y412002D01*
X451849Y411959D01*
X452746Y408022D01*
X452759Y407993D01*
X452768Y407951D01*
X454242Y404192D01*
X454259Y404165D01*
X454274Y404124D01*
X456292Y400627D01*
X456313Y400603D01*
X456334Y400565D01*
X458850Y397408D01*
X458875Y397387D01*
X458901Y397353D01*
X461860Y394606D01*
X461887Y394589D01*
X461918Y394559D01*
X465254Y392284D01*
X465283Y392271D01*
X465318Y392246D01*
X468956Y390493D01*
X468986Y390486D01*
X469025Y390466D01*
X472883Y389275D01*
X472915Y389272D01*
X472956Y389258D01*
X476948Y388655D01*
X476980Y388657D01*
X477022Y388649D01*
X481060Y388648D01*
X481091Y388655D01*
G37*
G36*
X221278Y388649D02*
X221278Y388649D01*
X221309Y388656D01*
X221352Y388655D01*
X225344Y389258D01*
X225374Y389269D01*
X225417Y389275D01*
X229275Y390466D01*
X229303Y390481D01*
X229345Y390493D01*
X232982Y392246D01*
X233007Y392266D01*
X233046Y392284D01*
X236382Y394559D01*
X236404Y394582D01*
X236440Y394606D01*
X239399Y397353D01*
X239418Y397379D01*
X239450Y397408D01*
X241966Y400565D01*
X241981Y400594D01*
X242008Y400627D01*
X244026Y404124D01*
X244036Y404155D01*
X244058Y404192D01*
X245532Y407951D01*
X245538Y407982D01*
X245554Y408022D01*
X246451Y411959D01*
X246452Y411991D01*
X246462Y412033D01*
X246763Y416059D01*
X246759Y416091D01*
X246760Y416107D01*
X246763Y416123D01*
X246762Y416127D01*
X246763Y416134D01*
X246460Y420160D01*
X246451Y420191D01*
X246449Y420234D01*
X245549Y424170D01*
X245536Y424199D01*
X245527Y424241D01*
X244051Y427999D01*
X244033Y428026D01*
X244018Y428066D01*
X241998Y431563D01*
X241977Y431586D01*
X241956Y431624D01*
X239438Y434780D01*
X239413Y434801D01*
X239387Y434835D01*
X236426Y437580D01*
X236399Y437597D01*
X236368Y437627D01*
X233031Y439900D01*
X233006Y439911D01*
X232985Y439928D01*
X232915Y439949D01*
X232848Y439977D01*
X232820Y439977D01*
X232794Y439985D01*
X232722Y439977D01*
X232649Y439976D01*
X232624Y439966D01*
X232597Y439963D01*
X232533Y439927D01*
X232466Y439898D01*
X232447Y439879D01*
X232424Y439865D01*
X232357Y439784D01*
X232328Y439755D01*
X232325Y439746D01*
X232318Y439737D01*
X205318Y392937D01*
X205309Y392911D01*
X205293Y392889D01*
X205278Y392818D01*
X205254Y392748D01*
X205257Y392721D01*
X205251Y392695D01*
X205264Y392623D01*
X205270Y392550D01*
X205283Y392526D01*
X205288Y392499D01*
X205328Y392439D01*
X205362Y392374D01*
X205383Y392356D01*
X205398Y392334D01*
X205484Y392273D01*
X205515Y392247D01*
X205524Y392244D01*
X205534Y392238D01*
X209172Y390487D01*
X209203Y390479D01*
X209241Y390460D01*
X213100Y389271D01*
X213132Y389268D01*
X213173Y389254D01*
X217166Y388654D01*
X217197Y388655D01*
X217240Y388648D01*
X221278Y388649D01*
G37*
G36*
X465578Y242198D02*
X465578Y242198D01*
X465651Y242199D01*
X465676Y242209D01*
X465703Y242212D01*
X465767Y242248D01*
X465834Y242277D01*
X465853Y242296D01*
X465876Y242310D01*
X465944Y242391D01*
X465972Y242420D01*
X465975Y242429D01*
X465982Y242438D01*
X492982Y289238D01*
X492991Y289264D01*
X493007Y289286D01*
X493022Y289357D01*
X493046Y289427D01*
X493043Y289454D01*
X493049Y289480D01*
X493036Y289552D01*
X493030Y289625D01*
X493017Y289649D01*
X493012Y289676D01*
X492972Y289737D01*
X492938Y289801D01*
X492917Y289819D01*
X492902Y289841D01*
X492816Y289902D01*
X492785Y289928D01*
X492776Y289931D01*
X492766Y289937D01*
X489128Y291688D01*
X489097Y291696D01*
X489059Y291715D01*
X485200Y292904D01*
X485168Y292907D01*
X485127Y292921D01*
X481134Y293521D01*
X481103Y293520D01*
X481060Y293527D01*
X477022Y293526D01*
X476991Y293519D01*
X476948Y293520D01*
X472956Y292917D01*
X472926Y292906D01*
X472883Y292900D01*
X469025Y291709D01*
X468997Y291694D01*
X468956Y291682D01*
X465318Y289929D01*
X465293Y289909D01*
X465254Y289891D01*
X461918Y287616D01*
X461896Y287593D01*
X461860Y287569D01*
X458901Y284822D01*
X458882Y284796D01*
X458850Y284767D01*
X456334Y281610D01*
X456319Y281581D01*
X456292Y281548D01*
X454274Y278051D01*
X454264Y278020D01*
X454242Y277983D01*
X452768Y274224D01*
X452762Y274193D01*
X452746Y274153D01*
X451849Y270216D01*
X451848Y270184D01*
X451838Y270142D01*
X451537Y266116D01*
X451541Y266084D01*
X451537Y266041D01*
X451840Y262015D01*
X451849Y261984D01*
X451851Y261941D01*
X452751Y258005D01*
X452764Y257976D01*
X452773Y257934D01*
X454249Y254176D01*
X454267Y254149D01*
X454282Y254109D01*
X456302Y250613D01*
X456323Y250589D01*
X456344Y250551D01*
X458862Y247395D01*
X458887Y247375D01*
X458913Y247340D01*
X461874Y244595D01*
X461901Y244578D01*
X461932Y244548D01*
X465269Y242275D01*
X465294Y242264D01*
X465315Y242247D01*
X465385Y242226D01*
X465452Y242198D01*
X465480Y242198D01*
X465506Y242190D01*
X465578Y242198D01*
G37*
G36*
X232754Y242198D02*
X232754Y242198D01*
X232827Y242194D01*
X232853Y242204D01*
X232880Y242205D01*
X232976Y242249D01*
X233014Y242264D01*
X233021Y242270D01*
X233031Y242275D01*
X236368Y244548D01*
X236390Y244571D01*
X236426Y244595D01*
X239387Y247340D01*
X239406Y247366D01*
X239438Y247395D01*
X241956Y250551D01*
X241971Y250579D01*
X241998Y250613D01*
X244018Y254109D01*
X244028Y254139D01*
X244051Y254176D01*
X245527Y257934D01*
X245532Y257965D01*
X245549Y258005D01*
X246449Y261941D01*
X246449Y261973D01*
X246460Y262015D01*
X246763Y266041D01*
X246759Y266073D01*
X246763Y266116D01*
X246462Y270142D01*
X246454Y270173D01*
X246451Y270216D01*
X245554Y274153D01*
X245541Y274182D01*
X245532Y274224D01*
X244058Y277983D01*
X244041Y278010D01*
X244026Y278051D01*
X242008Y281548D01*
X241987Y281572D01*
X241966Y281610D01*
X239450Y284767D01*
X239425Y284788D01*
X239399Y284822D01*
X236440Y287569D01*
X236413Y287586D01*
X236382Y287616D01*
X233046Y289891D01*
X233017Y289904D01*
X232982Y289929D01*
X229345Y291682D01*
X229314Y291689D01*
X229275Y291709D01*
X225417Y292900D01*
X225385Y292903D01*
X225344Y292917D01*
X221352Y293520D01*
X221320Y293518D01*
X221278Y293526D01*
X217240Y293527D01*
X217209Y293521D01*
X217166Y293521D01*
X213173Y292921D01*
X213143Y292910D01*
X213100Y292904D01*
X209241Y291715D01*
X209213Y291700D01*
X209172Y291688D01*
X205534Y289937D01*
X205512Y289921D01*
X205486Y289911D01*
X205433Y289861D01*
X205375Y289817D01*
X205362Y289794D01*
X205342Y289775D01*
X205312Y289708D01*
X205276Y289645D01*
X205273Y289618D01*
X205262Y289593D01*
X205261Y289520D01*
X205252Y289447D01*
X205260Y289421D01*
X205260Y289394D01*
X205296Y289295D01*
X205308Y289256D01*
X205314Y289249D01*
X205318Y289238D01*
X232318Y242438D01*
X232336Y242418D01*
X232347Y242393D01*
X232401Y242344D01*
X232449Y242289D01*
X232474Y242277D01*
X232494Y242259D01*
X232563Y242235D01*
X232629Y242203D01*
X232656Y242202D01*
X232681Y242193D01*
X232754Y242198D01*
G37*
G36*
X376177Y190594D02*
X376177Y190594D01*
X376204Y190591D01*
X376273Y190613D01*
X376345Y190628D01*
X376367Y190643D01*
X376393Y190652D01*
X376449Y190699D01*
X376509Y190740D01*
X376523Y190763D01*
X376544Y190781D01*
X376577Y190846D01*
X376616Y190908D01*
X376620Y190935D01*
X376632Y190959D01*
X376642Y191064D01*
X376649Y191104D01*
X376647Y191113D01*
X376648Y191125D01*
X376346Y195149D01*
X376338Y195180D01*
X376335Y195223D01*
X375437Y199157D01*
X375424Y199186D01*
X375415Y199228D01*
X373941Y202985D01*
X373924Y203012D01*
X373909Y203052D01*
X371891Y206547D01*
X371870Y206571D01*
X371849Y206608D01*
X369333Y209763D01*
X369308Y209784D01*
X369282Y209818D01*
X366324Y212563D01*
X366297Y212579D01*
X366265Y212609D01*
X362931Y214883D01*
X362902Y214895D01*
X362867Y214920D01*
X359231Y216671D01*
X359200Y216679D01*
X359161Y216698D01*
X355305Y217888D01*
X355274Y217891D01*
X355232Y217904D01*
X351242Y218506D01*
X351210Y218504D01*
X351168Y218511D01*
X347132Y218511D01*
X347101Y218505D01*
X347058Y218506D01*
X343068Y217904D01*
X343038Y217893D01*
X342995Y217888D01*
X339139Y216698D01*
X339111Y216683D01*
X339069Y216671D01*
X335433Y214920D01*
X335408Y214901D01*
X335369Y214883D01*
X332035Y212609D01*
X332012Y212587D01*
X331976Y212563D01*
X329018Y209818D01*
X329000Y209792D01*
X328967Y209763D01*
X326451Y206608D01*
X326437Y206580D01*
X326409Y206547D01*
X324391Y203052D01*
X324381Y203022D01*
X324359Y202985D01*
X322885Y199228D01*
X322879Y199197D01*
X322863Y199157D01*
X321965Y195223D01*
X321964Y195191D01*
X321954Y195149D01*
X321652Y191125D01*
X321656Y191098D01*
X321651Y191071D01*
X321668Y191000D01*
X321677Y190928D01*
X321691Y190904D01*
X321697Y190878D01*
X321740Y190819D01*
X321777Y190756D01*
X321799Y190739D01*
X321815Y190717D01*
X321878Y190680D01*
X321936Y190636D01*
X321963Y190630D01*
X321986Y190616D01*
X322090Y190598D01*
X322129Y190589D01*
X322139Y190590D01*
X322150Y190588D01*
X376150Y190588D01*
X376177Y190594D01*
G37*
D10*
X281425Y231775D03*
X296425Y231775D03*
D11*
X342338Y254000D03*
X359338Y254000D03*
D12*
X514350Y341088D03*
X431750Y197988D03*
X266550Y197988D03*
X183950Y341088D03*
X473050Y412588D03*
X473050Y269588D03*
X349150Y197988D03*
X225250Y269588D03*
X225250Y412588D03*
D13*
X461963Y371475D03*
D14*
X222250Y368300D03*
X222250Y342900D03*
X222250Y317500D03*
D15*
X288663Y421000D03*
X288663Y413000D03*
X288663Y405000D03*
X288663Y397000D03*
X288663Y389000D03*
X288663Y381000D03*
X288663Y373000D03*
X288663Y365000D03*
X288663Y357000D03*
X288663Y349000D03*
X288663Y341000D03*
D16*
X299663Y332000D03*
X307663Y332000D03*
X315663Y332000D03*
X323663Y332000D03*
X331663Y332000D03*
X339663Y332000D03*
X347663Y332000D03*
X355663Y332000D03*
X363663Y332000D03*
X371663Y332000D03*
X379663Y332000D03*
X387663Y332000D03*
X395663Y332000D03*
D15*
X406663Y341000D03*
X406663Y349000D03*
X406663Y357000D03*
X406663Y365000D03*
X406663Y373000D03*
X406663Y381000D03*
X406663Y389000D03*
X406663Y397000D03*
X406663Y405000D03*
X406663Y413000D03*
X406663Y421000D03*
D16*
X395663Y430000D03*
X387663Y430000D03*
X379663Y430000D03*
X371663Y430000D03*
X363663Y430000D03*
X355663Y430000D03*
X347663Y430000D03*
X339663Y430000D03*
X331663Y430000D03*
X323663Y430000D03*
X315663Y430000D03*
X307663Y430000D03*
X299663Y430000D03*
D17*
X347663Y381000D03*
X367413Y400750D03*
X347663Y400750D03*
X327913Y400750D03*
X327913Y381000D03*
X327913Y361250D03*
X347663Y361250D03*
X367413Y361250D03*
X367413Y381000D03*
D18*
X288163Y430500D03*
X288163Y331500D03*
X407163Y331500D03*
X407163Y430500D03*
D19*
X284900Y299125D02*
X273900Y299125D01*
X273900Y304125D01*
X284900Y304125D01*
X284900Y299125D01*
X284900Y303875D02*
X273900Y303875D01*
X302475Y304125D02*
X313475Y304125D01*
X313475Y299125D01*
X302475Y299125D01*
X302475Y304125D01*
X302475Y303875D02*
X313475Y303875D01*
X329463Y299125D02*
X340463Y299125D01*
X329463Y299125D02*
X329463Y304125D01*
X340463Y304125D01*
X340463Y299125D01*
X340463Y303875D02*
X329463Y303875D01*
X361213Y299125D02*
X372213Y299125D01*
X361213Y299125D02*
X361213Y304125D01*
X372213Y304125D01*
X372213Y299125D01*
X372213Y303875D02*
X361213Y303875D01*
D20*
X379413Y287900D03*
X379413Y270900D03*
D19*
X442238Y365975D02*
X442238Y376975D01*
X442238Y365975D02*
X437238Y365975D01*
X437238Y376975D01*
X442238Y376975D01*
X442238Y370725D02*
X437238Y370725D01*
X437238Y375475D02*
X442238Y375475D01*
X442238Y392963D02*
X442238Y403963D01*
X442238Y392963D02*
X437238Y392963D01*
X437238Y403963D01*
X442238Y403963D01*
X442238Y397713D02*
X437238Y397713D01*
X437238Y402463D02*
X442238Y402463D01*
X429363Y311825D02*
X418363Y311825D01*
X418363Y316825D01*
X429363Y316825D01*
X429363Y311825D01*
X429363Y316575D02*
X418363Y316575D01*
X442175Y311825D02*
X453175Y311825D01*
X442175Y311825D02*
X442175Y316825D01*
X453175Y316825D01*
X453175Y311825D01*
X453175Y316575D02*
X442175Y316575D01*
D21*
X346075Y266813D03*
X346075Y288813D03*
X361950Y266813D03*
X361950Y288813D03*
X315913Y266813D03*
X315913Y288813D03*
X330200Y266813D03*
X330200Y288813D03*
D20*
X423863Y348225D03*
X423863Y331225D03*
X449263Y349813D03*
X449263Y332813D03*
D22*
X401750Y296863D03*
X423750Y296863D03*
X401750Y280988D03*
X423750Y280988D03*
D10*
X268288Y388500D03*
X268288Y373500D03*
D23*
X293688Y223838D03*
X327025Y254000D03*
D24*
X293688Y223838D02*
X292848Y223838D01*
X285221Y216211D01*
X285221Y202981D01*
D23*
X285221Y202981D03*
X500063Y361950D03*
D24*
X484188Y361950D01*
X482600Y363538D01*
D23*
X482600Y363538D03*
X277813Y328613D03*
D25*
X315913Y266813D02*
X315800Y266700D01*
X330200Y266813D02*
X346075Y266813D01*
X361950Y266813D01*
X346075Y266813D02*
X335075Y266813D01*
X327025Y258763D01*
X327025Y254000D01*
D23*
X358775Y420688D03*
X339725Y420688D03*
X317500Y420688D03*
X295275Y420688D03*
D25*
X401750Y296863D02*
X401750Y280988D01*
X401750Y296863D02*
X401750Y317613D01*
X407163Y323025D01*
X401750Y280988D02*
X401750Y255700D01*
X401638Y255588D01*
D23*
X401638Y255588D03*
D25*
X377938Y255588D01*
X366713Y266813D01*
X361950Y266813D01*
X330088Y266700D02*
X315800Y266700D01*
X330088Y266700D02*
X330200Y266813D01*
D26*
X296425Y231775D02*
X296425Y226575D01*
X293688Y223838D01*
D23*
X296941Y403303D03*
D25*
X296784Y403303D01*
X295088Y405000D02*
X288663Y405000D01*
X295088Y405000D02*
X296784Y403303D01*
D23*
X265113Y249238D03*
X212725Y381000D03*
X469106Y346869D03*
D26*
X477044Y354806D01*
X477044Y358716D02*
X475262Y360498D01*
X477044Y358716D02*
X477044Y354806D01*
X475262Y410376D02*
X473050Y412588D01*
X475262Y410376D02*
X475262Y360498D01*
X420950Y217488D02*
X409575Y217488D01*
X403225Y223838D01*
X384175Y223838D01*
D23*
X384175Y223838D03*
D26*
X452719Y249256D02*
X473050Y269588D01*
X452719Y249256D02*
X452429Y249256D01*
X448130Y244958D01*
X448130Y244668D01*
X420950Y217488D01*
D23*
X455468Y241918D03*
X401638Y211737D03*
D26*
X453881Y241918D02*
X455468Y241918D01*
X453881Y241918D02*
X422112Y210150D01*
X403225Y210150D01*
X401638Y211737D01*
X243249Y251588D02*
X225250Y269588D01*
X243249Y251588D02*
X243249Y241211D01*
D23*
X243249Y241211D03*
X296776Y255674D03*
D26*
X291010Y255674D01*
X234887Y311797D01*
X225250Y381105D02*
X225250Y412588D01*
X225250Y381105D02*
X233426Y372929D01*
X233426Y320083D01*
X234887Y318622D01*
X234887Y311797D01*
D23*
X275663Y241300D03*
D26*
X281425Y235538D01*
X281425Y231775D01*
D23*
X314325Y369143D03*
D25*
X316345Y367124D01*
X316345Y352211D01*
X331663Y336893D02*
X331663Y332000D01*
X331663Y336893D02*
X316345Y352211D01*
D24*
X222250Y342900D02*
X222250Y368300D01*
D23*
X309563Y377825D03*
D25*
X296738Y365000D02*
X288663Y365000D01*
X296738Y365000D02*
X309563Y377825D01*
D23*
X266700Y338138D03*
D25*
X266700Y357188D01*
X281696Y364434D02*
X282262Y365000D01*
X288663Y365000D01*
X281696Y364434D02*
X273947Y364434D01*
X266700Y357188D01*
X365125Y301625D02*
X366713Y301625D01*
X365125Y301625D02*
X361950Y298450D01*
X361950Y288813D01*
X371663Y324111D02*
X371663Y332000D01*
X371663Y324111D02*
X373681Y322093D01*
X373681Y308593D01*
X366713Y301625D01*
D23*
X380731Y365125D03*
D26*
X371663Y338325D02*
X371663Y332000D01*
X380731Y347393D02*
X380731Y365125D01*
X380731Y347393D02*
X371663Y338325D01*
X363663Y333375D02*
X363663Y332000D01*
D25*
X363663Y333375D02*
X363663Y324520D01*
D26*
X363663Y332000D02*
X363663Y337557D01*
X355145Y346075D01*
D23*
X355145Y346075D03*
D25*
X346075Y303213D02*
X346075Y288813D01*
X346075Y303213D02*
X346075Y306932D01*
X363663Y324520D01*
X336550Y303213D02*
X334963Y301625D01*
X336550Y303213D02*
X346075Y303213D01*
X315913Y301625D02*
X307975Y301625D01*
X355663Y325500D02*
X355663Y332000D01*
X344488Y314325D02*
X328613Y314325D01*
X344488Y314325D02*
X355663Y325500D01*
D23*
X339270Y346075D03*
D26*
X353219Y337473D02*
X353219Y334444D01*
X355663Y332000D01*
X344616Y346075D02*
X339270Y346075D01*
X344616Y346075D02*
X353219Y337473D01*
D25*
X323056Y308769D02*
X315913Y301625D01*
X323056Y308769D02*
X328613Y314325D01*
X330133Y288813D02*
X330200Y288813D01*
X330133Y288813D02*
X322645Y296301D01*
X322645Y306949D01*
X323056Y307361D01*
X323056Y308769D01*
X347663Y327025D02*
X347663Y332000D01*
X279400Y306388D02*
X279400Y301625D01*
X341313Y320675D02*
X347663Y327025D01*
X341313Y320675D02*
X325780Y320675D01*
X316093Y310988D01*
X295275Y310988D02*
X284000Y310988D01*
X295275Y310988D02*
X316093Y310988D01*
X284000Y310988D02*
X279400Y306388D01*
X312418Y292307D02*
X315913Y288813D01*
X312418Y292307D02*
X299651Y292307D01*
X295275Y296683D01*
X295275Y310988D01*
X406663Y349000D02*
X407438Y348225D01*
X423863Y348225D01*
X386535Y353686D02*
X386535Y357000D01*
D23*
X384685Y402268D03*
D25*
X398223Y349000D02*
X406663Y349000D01*
X398223Y349000D02*
X397055Y350168D01*
X390345Y350168D01*
X390199Y350022D01*
X386535Y353686D01*
X386535Y357000D02*
X386319Y357216D01*
X386319Y359258D01*
X384685Y372626D02*
X384685Y402268D01*
X388831Y368480D02*
X388831Y361770D01*
X386319Y359258D01*
X388831Y368480D02*
X384685Y372626D01*
X423863Y331225D02*
X423863Y317500D01*
X423863Y314325D01*
X423750Y317388D02*
X423750Y296863D01*
X423750Y317388D02*
X423863Y317500D01*
X447675Y331225D02*
X449263Y332813D01*
X447675Y331225D02*
X447675Y314325D01*
X447675Y304913D02*
X423750Y280988D01*
X447675Y304913D02*
X447675Y314325D01*
X406663Y357000D02*
X407206Y357543D01*
X441032Y357543D01*
X448763Y349813D01*
X449263Y349813D01*
X406663Y357000D02*
X394535Y357000D01*
D23*
X394535Y401638D03*
D25*
X394535Y358494D02*
X394535Y357000D01*
X394535Y358494D02*
X395181Y359140D01*
X395181Y371111D01*
X394535Y371757D01*
X394535Y401638D01*
D23*
X415925Y379413D03*
D26*
X415069Y378556D01*
X409107Y378556D01*
X406663Y381000D01*
D25*
X433388Y371475D02*
X439738Y371475D01*
X433388Y371475D02*
X423863Y381000D01*
X406663Y381000D01*
D23*
X415925Y390525D03*
D26*
X414400Y389000D01*
D25*
X423863Y398463D02*
X439738Y398463D01*
X423863Y398463D02*
X414400Y389000D01*
X406663Y389000D01*
X380031Y324724D02*
X380031Y288518D01*
X379413Y287900D01*
X380031Y324724D02*
X379663Y325092D01*
X379663Y332000D01*
D23*
X393700Y342068D03*
D26*
X392945Y341313D01*
X388938Y341313D01*
X387663Y340038D01*
X387663Y332000D01*
D23*
X411270Y287338D03*
D25*
X410068Y286136D01*
X367370Y254000D02*
X359338Y254000D01*
X367370Y254000D02*
X373882Y247488D01*
X404993Y247488D01*
X410068Y252563D01*
X410068Y286136D01*
D26*
X300038Y352943D02*
X298450Y352943D01*
X300038Y352943D02*
X307663Y345318D01*
X307663Y332000D01*
D23*
X298450Y352943D03*
X237257Y384961D03*
D26*
X239713Y382506D01*
X239713Y313796D02*
X272727Y280782D01*
X239713Y313796D02*
X239713Y382506D01*
X272727Y280782D02*
X280988Y280782D01*
X281439Y280782D01*
X298656Y280782D01*
X301625Y277813D01*
D23*
X301625Y277813D03*
D25*
X267322Y372534D02*
X268288Y373500D01*
X267322Y372534D02*
X260878Y372534D01*
D23*
X260878Y372534D03*
D25*
X275788Y381000D02*
X288663Y381000D01*
X275788Y381000D02*
X268288Y388500D01*
D26*
X349150Y208689D02*
X349150Y197988D01*
X349150Y208689D02*
X362485Y222024D01*
D23*
X362485Y222024D03*
X295275Y388938D03*
D26*
X295213Y389000D01*
X288663Y389000D01*
M02*
