G04 EAGLE Gerber RS-274X export*
G75*
%MOMM*%
%FSLAX34Y34*%
%LPD*%
%INBottom Copper*%
%IPPOS*%
%AMOC8*
5,1,8,0,0,1.08239X$1,22.5*%
G01*
%ADD10R,1.100000X1.000000*%
%ADD11R,1.300000X1.500000*%
%ADD12R,1.000000X1.100000*%
%ADD13R,1.399997X0.400000*%
%ADD14R,1.500000X1.300000*%
%ADD15C,1.000000*%
%ADD16R,0.812800X0.254000*%
%ADD17R,0.254000X0.812800*%
%ADD18R,5.384800X5.384800*%
%ADD19P,1.649562X8X202.500000*%
%ADD20C,1.524000*%
%ADD21R,0.800000X0.500000*%
%ADD22R,2.700000X1.600000*%
%ADD23C,1.270000*%
%ADD24C,0.254000*%
%ADD25C,0.756400*%
%ADD26C,0.406400*%
%ADD27C,0.609600*%
%ADD28C,0.304800*%

G36*
X-67672Y94D02*
X-67672Y94D01*
X-67644Y91D01*
X-67576Y114D01*
X-67505Y128D01*
X-67482Y144D01*
X-67455Y153D01*
X-67400Y200D01*
X-67341Y240D01*
X-67326Y264D01*
X-67305Y283D01*
X-67273Y347D01*
X-67234Y408D01*
X-67229Y436D01*
X-67217Y461D01*
X-67208Y563D01*
X-67201Y604D01*
X-67203Y614D01*
X-67202Y627D01*
X-67445Y3677D01*
X-67454Y3710D01*
X-67458Y3757D01*
X-67800Y5152D01*
X-31196Y5152D01*
X-31045Y5167D01*
X-30893Y5175D01*
X-30845Y5187D01*
X-30796Y5192D01*
X-30650Y5237D01*
X-30502Y5274D01*
X-30458Y5296D01*
X-30411Y5310D01*
X-30277Y5383D01*
X-30140Y5449D01*
X-30094Y5482D01*
X-30057Y5502D01*
X-29991Y5557D01*
X-29871Y5644D01*
X-29818Y5690D01*
X-29766Y5744D01*
X-29753Y5755D01*
X-29706Y5794D01*
X-29626Y5891D01*
X-29540Y5981D01*
X-29499Y6046D01*
X-29451Y6105D01*
X-29392Y6216D01*
X-29326Y6322D01*
X-29298Y6393D01*
X-29263Y6461D01*
X-29213Y6617D01*
X-29182Y6698D01*
X-29176Y6734D01*
X-29163Y6777D01*
X-28970Y7620D01*
X-28961Y7696D01*
X-28942Y7770D01*
X-28936Y7896D01*
X-28920Y8020D01*
X-28925Y8096D01*
X-28922Y8172D01*
X-28940Y8296D01*
X-28948Y8408D01*
X-28626Y9228D01*
X-28608Y9293D01*
X-28537Y9518D01*
X-28340Y10383D01*
X-28301Y10418D01*
X-28226Y10519D01*
X-28144Y10614D01*
X-28107Y10680D01*
X-28061Y10742D01*
X-27990Y10888D01*
X-27947Y10964D01*
X-27936Y10998D01*
X-27915Y11040D01*
X-27599Y11845D01*
X-27579Y11918D01*
X-27549Y11989D01*
X-27524Y12111D01*
X-27490Y12232D01*
X-27484Y12309D01*
X-27469Y12383D01*
X-27469Y12509D01*
X-27461Y12620D01*
X-27020Y13383D01*
X-26992Y13444D01*
X-26888Y13657D01*
X-26564Y14483D01*
X-26521Y14511D01*
X-26432Y14600D01*
X-26337Y14682D01*
X-26290Y14742D01*
X-26236Y14796D01*
X-26143Y14930D01*
X-26089Y14999D01*
X-26073Y15031D01*
X-26047Y15069D01*
X-25615Y15818D01*
X-25583Y15887D01*
X-25543Y15953D01*
X-25500Y16070D01*
X-25449Y16184D01*
X-25432Y16259D01*
X-25405Y16331D01*
X-25387Y16455D01*
X-25362Y16563D01*
X-24812Y17252D01*
X-24776Y17309D01*
X-24641Y17503D01*
X-24198Y18272D01*
X-24150Y18294D01*
X-24049Y18368D01*
X-23943Y18435D01*
X-23888Y18487D01*
X-23826Y18533D01*
X-23714Y18652D01*
X-23651Y18711D01*
X-23630Y18741D01*
X-23599Y18774D01*
X-23060Y19450D01*
X-23018Y19514D01*
X-22969Y19573D01*
X-22909Y19683D01*
X-22841Y19788D01*
X-22813Y19859D01*
X-22776Y19927D01*
X-22739Y20046D01*
X-22698Y20150D01*
X-22053Y20749D01*
X-22008Y20800D01*
X-21846Y20972D01*
X-21293Y21666D01*
X-21243Y21680D01*
X-21132Y21739D01*
X-21017Y21789D01*
X-20954Y21833D01*
X-20887Y21868D01*
X-20758Y21969D01*
X-20687Y22019D01*
X-20662Y22045D01*
X-20626Y22073D01*
X-19992Y22661D01*
X-19941Y22719D01*
X-19884Y22769D01*
X-19808Y22869D01*
X-19725Y22963D01*
X-19687Y23029D01*
X-19641Y23090D01*
X-19586Y23203D01*
X-19530Y23300D01*
X-18802Y23796D01*
X-18751Y23839D01*
X-18565Y23985D01*
X-17914Y24589D01*
X-17863Y24596D01*
X-17745Y24637D01*
X-17623Y24670D01*
X-17555Y24703D01*
X-17483Y24729D01*
X-17341Y24809D01*
X-17262Y24848D01*
X-17234Y24870D01*
X-17194Y24893D01*
X-16480Y25380D01*
X-16421Y25429D01*
X-16357Y25470D01*
X-16267Y25558D01*
X-16171Y25638D01*
X-16123Y25698D01*
X-16069Y25752D01*
X-15998Y25855D01*
X-15928Y25942D01*
X-15135Y26324D01*
X-15078Y26359D01*
X-14872Y26476D01*
X-14138Y26976D01*
X-14086Y26975D01*
X-13963Y26998D01*
X-13838Y27012D01*
X-13765Y27036D01*
X-13690Y27050D01*
X-13538Y27108D01*
X-13455Y27135D01*
X-13424Y27152D01*
X-13381Y27169D01*
X-12602Y27544D01*
X-12536Y27584D01*
X-12467Y27615D01*
X-12365Y27689D01*
X-12258Y27754D01*
X-12202Y27806D01*
X-12140Y27850D01*
X-12054Y27942D01*
X-11973Y28018D01*
X-11131Y28278D01*
X-11069Y28304D01*
X-10848Y28389D01*
X-10049Y28774D01*
X-9997Y28765D01*
X-9872Y28770D01*
X-9747Y28765D01*
X-9671Y28777D01*
X-9595Y28780D01*
X-9435Y28815D01*
X-9349Y28829D01*
X-9315Y28841D01*
X-9271Y28851D01*
X-8444Y29106D01*
X-8374Y29136D01*
X-8300Y29157D01*
X-8189Y29214D01*
X-8073Y29262D01*
X-8010Y29305D01*
X-7942Y29340D01*
X-7844Y29418D01*
X-7752Y29481D01*
X-6881Y29612D01*
X-6815Y29629D01*
X-6585Y29680D01*
X-5737Y29941D01*
X-5687Y29925D01*
X-5562Y29911D01*
X-5439Y29888D01*
X-5363Y29889D01*
X-5287Y29880D01*
X-5124Y29891D01*
X-5037Y29892D01*
X-5002Y29899D01*
X-4956Y29902D01*
X-4101Y30031D01*
X-4027Y30050D01*
X-3951Y30060D01*
X-3832Y30100D01*
X-3711Y30130D01*
X-3642Y30164D01*
X-3569Y30188D01*
X-3460Y30250D01*
X-3360Y30299D01*
X-3138Y30299D01*
X-3112Y30301D01*
X-3085Y30299D01*
X-2911Y30321D01*
X-2737Y30339D01*
X-2712Y30347D01*
X-2685Y30350D01*
X-2520Y30405D01*
X-2353Y30457D01*
X-2329Y30470D01*
X-2304Y30478D01*
X-2152Y30565D01*
X-1999Y30649D01*
X-1978Y30666D01*
X-1955Y30679D01*
X-1702Y30894D01*
X-978Y31617D01*
X5592Y38188D01*
X5598Y38195D01*
X5605Y38200D01*
X5725Y38350D01*
X5847Y38499D01*
X5851Y38507D01*
X5857Y38514D01*
X5945Y38684D01*
X6036Y38855D01*
X6038Y38863D01*
X6043Y38871D01*
X6096Y39057D01*
X6151Y39241D01*
X6152Y39250D01*
X6154Y39258D01*
X6170Y39450D01*
X6187Y39642D01*
X6186Y39651D01*
X6187Y39660D01*
X6165Y39849D01*
X6144Y40042D01*
X6141Y40051D01*
X6140Y40059D01*
X6081Y40241D01*
X6022Y40426D01*
X6018Y40434D01*
X6015Y40442D01*
X5920Y40611D01*
X5827Y40778D01*
X5822Y40785D01*
X5817Y40793D01*
X5691Y40939D01*
X5567Y41085D01*
X5560Y41091D01*
X5554Y41098D01*
X5403Y41215D01*
X5251Y41335D01*
X5243Y41339D01*
X5236Y41344D01*
X5064Y41430D01*
X4892Y41517D01*
X4883Y41520D01*
X4875Y41524D01*
X4689Y41574D01*
X4504Y41625D01*
X4495Y41626D01*
X4487Y41628D01*
X4156Y41655D01*
X-21309Y41655D01*
X-22648Y42995D01*
X-22648Y53017D01*
X-21309Y54357D01*
X24575Y54357D01*
X24592Y54359D01*
X24610Y54357D01*
X24792Y54378D01*
X24975Y54397D01*
X24992Y54402D01*
X25010Y54404D01*
X25184Y54461D01*
X25360Y54515D01*
X25376Y54523D01*
X25393Y54529D01*
X25553Y54619D01*
X25714Y54707D01*
X25728Y54718D01*
X25743Y54727D01*
X25883Y54847D01*
X26023Y54964D01*
X26035Y54978D01*
X26048Y54990D01*
X26161Y55135D01*
X26276Y55278D01*
X26284Y55294D01*
X26295Y55308D01*
X26377Y55473D01*
X26461Y55635D01*
X26466Y55652D01*
X26474Y55668D01*
X26522Y55846D01*
X26573Y56022D01*
X26574Y56040D01*
X26579Y56057D01*
X26606Y56388D01*
X26606Y97270D01*
X27945Y98610D01*
X37968Y98610D01*
X38056Y98521D01*
X38074Y98507D01*
X38088Y98490D01*
X38229Y98379D01*
X38368Y98266D01*
X38388Y98255D01*
X38405Y98242D01*
X38565Y98161D01*
X38724Y98077D01*
X38745Y98071D01*
X38765Y98061D01*
X38937Y98014D01*
X39110Y97962D01*
X39132Y97960D01*
X39153Y97955D01*
X39331Y97942D01*
X39511Y97926D01*
X39533Y97928D01*
X39555Y97927D01*
X39732Y97950D01*
X39911Y97969D01*
X39932Y97976D01*
X39954Y97979D01*
X40143Y98040D01*
X42586Y98040D01*
X42659Y98009D01*
X42681Y98003D01*
X42701Y97993D01*
X42874Y97945D01*
X43045Y97893D01*
X43067Y97891D01*
X43089Y97885D01*
X43268Y97872D01*
X43446Y97855D01*
X43468Y97857D01*
X43490Y97856D01*
X43668Y97878D01*
X43846Y97896D01*
X43867Y97903D01*
X43890Y97906D01*
X44059Y97963D01*
X44230Y98016D01*
X44250Y98027D01*
X44271Y98034D01*
X44426Y98123D01*
X44584Y98210D01*
X44601Y98224D01*
X44620Y98235D01*
X44873Y98450D01*
X52202Y105778D01*
X52216Y105796D01*
X52233Y105810D01*
X52343Y105952D01*
X52457Y106090D01*
X52467Y106109D01*
X52481Y106127D01*
X52562Y106288D01*
X52645Y106445D01*
X52652Y106467D01*
X52662Y106487D01*
X52709Y106660D01*
X52760Y106831D01*
X52762Y106854D01*
X52768Y106875D01*
X52780Y107054D01*
X52796Y107232D01*
X52794Y107255D01*
X52796Y107277D01*
X52772Y107454D01*
X52753Y107633D01*
X52746Y107654D01*
X52743Y107676D01*
X52713Y107770D01*
X52713Y136068D01*
X52996Y136751D01*
X53005Y136781D01*
X53019Y136809D01*
X53063Y136974D01*
X53113Y137136D01*
X53116Y137167D01*
X53124Y137198D01*
X53151Y137528D01*
X53151Y160847D01*
X54490Y162187D01*
X69429Y162187D01*
X69495Y162133D01*
X69503Y162129D01*
X69510Y162123D01*
X69680Y162035D01*
X69850Y161945D01*
X69859Y161942D01*
X69867Y161938D01*
X70052Y161884D01*
X70236Y161830D01*
X70245Y161829D01*
X70254Y161826D01*
X70446Y161811D01*
X70637Y161793D01*
X70646Y161794D01*
X70655Y161794D01*
X70845Y161816D01*
X71037Y161837D01*
X71046Y161839D01*
X71055Y161840D01*
X71237Y161900D01*
X71421Y161958D01*
X71429Y161963D01*
X71438Y161965D01*
X71605Y162060D01*
X71774Y162153D01*
X71781Y162159D01*
X71788Y162163D01*
X71935Y162290D01*
X72081Y162414D01*
X72086Y162420D01*
X72093Y162426D01*
X72211Y162578D01*
X72330Y162729D01*
X72334Y162737D01*
X72340Y162744D01*
X72425Y162917D01*
X72513Y163088D01*
X72515Y163097D01*
X72519Y163105D01*
X72570Y163292D01*
X72621Y163476D01*
X72621Y163485D01*
X72624Y163494D01*
X72651Y163825D01*
X72651Y174722D01*
X73990Y176062D01*
X85885Y176062D01*
X87224Y174722D01*
X87224Y164189D01*
X87227Y164162D01*
X87225Y164135D01*
X87247Y163961D01*
X87264Y163788D01*
X87272Y163762D01*
X87275Y163736D01*
X87331Y163570D01*
X87382Y163403D01*
X87395Y163379D01*
X87404Y163354D01*
X87491Y163202D01*
X87574Y163049D01*
X87591Y163029D01*
X87604Y163005D01*
X87819Y162752D01*
X89724Y160847D01*
X89724Y126264D01*
X89718Y126243D01*
X89706Y126218D01*
X89660Y126049D01*
X89611Y125882D01*
X89608Y125856D01*
X89601Y125830D01*
X89574Y125499D01*
X89574Y121519D01*
X88259Y118345D01*
X87582Y117667D01*
X87565Y117647D01*
X87544Y117629D01*
X87437Y117491D01*
X87327Y117356D01*
X87314Y117332D01*
X87298Y117311D01*
X87220Y117154D01*
X87138Y117000D01*
X87130Y116975D01*
X87118Y116951D01*
X87073Y116781D01*
X87023Y116614D01*
X87021Y116588D01*
X87014Y116562D01*
X86987Y116231D01*
X86987Y107819D01*
X86291Y106141D01*
X86282Y106111D01*
X86268Y106083D01*
X86224Y105918D01*
X86175Y105755D01*
X86172Y105724D01*
X86164Y105694D01*
X86137Y105363D01*
X86137Y103590D01*
X84797Y102251D01*
X83731Y102251D01*
X83700Y102248D01*
X83669Y102250D01*
X83500Y102228D01*
X83331Y102211D01*
X83301Y102202D01*
X83270Y102198D01*
X82954Y102096D01*
X80068Y100901D01*
X76632Y100901D01*
X76550Y100935D01*
X76529Y100941D01*
X76509Y100951D01*
X76336Y100999D01*
X76165Y101051D01*
X76143Y101053D01*
X76121Y101059D01*
X75942Y101072D01*
X75764Y101089D01*
X75742Y101087D01*
X75720Y101089D01*
X75541Y101066D01*
X75364Y101048D01*
X75343Y101041D01*
X75320Y101038D01*
X75150Y100981D01*
X74979Y100928D01*
X74960Y100917D01*
X74939Y100910D01*
X74783Y100820D01*
X74626Y100734D01*
X74609Y100720D01*
X74590Y100709D01*
X74337Y100494D01*
X67943Y94101D01*
X67932Y94087D01*
X67918Y94075D01*
X67804Y93931D01*
X67688Y93789D01*
X67680Y93774D01*
X67669Y93759D01*
X67585Y93595D01*
X67500Y93434D01*
X67494Y93417D01*
X67486Y93401D01*
X67437Y93223D01*
X67385Y93048D01*
X67383Y93030D01*
X67378Y93013D01*
X67365Y92829D01*
X67348Y92647D01*
X67350Y92629D01*
X67349Y92611D01*
X67372Y92429D01*
X67392Y92246D01*
X67397Y92229D01*
X67399Y92212D01*
X67458Y92038D01*
X67513Y91863D01*
X67522Y91847D01*
X67528Y91830D01*
X67619Y91671D01*
X67708Y91510D01*
X67720Y91497D01*
X67729Y91481D01*
X67943Y91228D01*
X69612Y89560D01*
X69612Y83665D01*
X68272Y82326D01*
X59622Y82326D01*
X59596Y82323D01*
X59569Y82325D01*
X59395Y82303D01*
X59221Y82286D01*
X59196Y82278D01*
X59169Y82275D01*
X59004Y82219D01*
X58837Y82168D01*
X58813Y82155D01*
X58788Y82146D01*
X58636Y82059D01*
X58483Y81976D01*
X58462Y81959D01*
X58439Y81945D01*
X58186Y81731D01*
X52504Y76049D01*
X52492Y76035D01*
X52479Y76023D01*
X52365Y75879D01*
X52249Y75737D01*
X52240Y75722D01*
X52229Y75708D01*
X52146Y75543D01*
X52060Y75382D01*
X52055Y75365D01*
X52047Y75349D01*
X51998Y75171D01*
X51945Y74996D01*
X51944Y74978D01*
X51939Y74961D01*
X51926Y74778D01*
X51909Y74595D01*
X51911Y74577D01*
X51910Y74559D01*
X51933Y74377D01*
X51952Y74194D01*
X51958Y74177D01*
X51960Y74160D01*
X52018Y73986D01*
X52074Y73811D01*
X52083Y73795D01*
X52088Y73778D01*
X52180Y73619D01*
X52269Y73458D01*
X52280Y73445D01*
X52289Y73429D01*
X52504Y73176D01*
X58186Y67494D01*
X58207Y67477D01*
X58224Y67457D01*
X58362Y67350D01*
X58497Y67239D01*
X58521Y67227D01*
X58542Y67210D01*
X58699Y67132D01*
X58853Y67051D01*
X58879Y67043D01*
X58903Y67031D01*
X59072Y66985D01*
X59239Y66936D01*
X59266Y66933D01*
X59291Y66926D01*
X59622Y66899D01*
X68272Y66899D01*
X69505Y65666D01*
X69519Y65655D01*
X69530Y65641D01*
X69675Y65528D01*
X69817Y65411D01*
X69832Y65403D01*
X69846Y65392D01*
X70010Y65308D01*
X70172Y65223D01*
X70189Y65218D01*
X70205Y65209D01*
X70382Y65160D01*
X70558Y65108D01*
X70576Y65106D01*
X70593Y65101D01*
X70776Y65088D01*
X70959Y65071D01*
X70977Y65073D01*
X70995Y65072D01*
X71177Y65095D01*
X71359Y65115D01*
X71376Y65120D01*
X71394Y65122D01*
X71568Y65181D01*
X71743Y65236D01*
X71759Y65245D01*
X71776Y65251D01*
X71935Y65342D01*
X72096Y65431D01*
X72109Y65443D01*
X72125Y65452D01*
X72378Y65666D01*
X81446Y74735D01*
X81463Y74756D01*
X81484Y74773D01*
X81591Y74911D01*
X81701Y75046D01*
X81714Y75070D01*
X81730Y75091D01*
X81808Y75248D01*
X81890Y75402D01*
X81898Y75428D01*
X81910Y75452D01*
X81955Y75621D01*
X82005Y75788D01*
X82007Y75815D01*
X82014Y75841D01*
X82041Y76171D01*
X82041Y92784D01*
X103323Y114066D01*
X103340Y114087D01*
X103361Y114104D01*
X103468Y114242D01*
X103578Y114377D01*
X103591Y114401D01*
X103607Y114422D01*
X103685Y114579D01*
X103767Y114733D01*
X103775Y114759D01*
X103787Y114783D01*
X103832Y114952D01*
X103882Y115119D01*
X103884Y115146D01*
X103891Y115171D01*
X103918Y115502D01*
X103918Y165862D01*
X103916Y165880D01*
X103918Y165898D01*
X103897Y166080D01*
X103878Y166263D01*
X103873Y166280D01*
X103871Y166297D01*
X103814Y166472D01*
X103760Y166648D01*
X103752Y166663D01*
X103746Y166680D01*
X103656Y166840D01*
X103568Y167002D01*
X103557Y167015D01*
X103548Y167031D01*
X103428Y167170D01*
X103311Y167311D01*
X103297Y167322D01*
X103285Y167336D01*
X103140Y167448D01*
X102997Y167563D01*
X102981Y167571D01*
X102967Y167582D01*
X102802Y167664D01*
X102640Y167749D01*
X102623Y167754D01*
X102607Y167762D01*
X102428Y167809D01*
X102253Y167860D01*
X102235Y167862D01*
X102218Y167866D01*
X101887Y167893D01*
X99084Y167893D01*
X93281Y173697D01*
X93281Y181903D01*
X96098Y184721D01*
X96109Y184734D01*
X96123Y184746D01*
X96237Y184890D01*
X96353Y185032D01*
X96361Y185048D01*
X96372Y185062D01*
X96456Y185226D01*
X96542Y185388D01*
X96547Y185405D01*
X96555Y185421D01*
X96604Y185598D01*
X96656Y185774D01*
X96658Y185791D01*
X96663Y185809D01*
X96676Y185992D01*
X96693Y186175D01*
X96691Y186192D01*
X96692Y186210D01*
X96669Y186392D01*
X96649Y186575D01*
X96644Y186592D01*
X96642Y186610D01*
X96583Y186783D01*
X96528Y186959D01*
X96519Y186974D01*
X96514Y186991D01*
X96422Y187150D01*
X96333Y187311D01*
X96321Y187325D01*
X96313Y187340D01*
X96098Y187593D01*
X94376Y189315D01*
X94376Y201210D01*
X95715Y202549D01*
X105751Y202549D01*
X105798Y202554D01*
X105845Y202551D01*
X105998Y202574D01*
X106152Y202589D01*
X106197Y202603D01*
X106243Y202610D01*
X106389Y202662D01*
X106537Y202707D01*
X106578Y202730D01*
X106622Y202745D01*
X106755Y202825D01*
X106891Y202899D01*
X106927Y202929D01*
X106967Y202953D01*
X107082Y203058D01*
X107200Y203157D01*
X107230Y203193D01*
X107264Y203225D01*
X107356Y203350D01*
X107453Y203471D01*
X107474Y203512D01*
X107502Y203550D01*
X107567Y203690D01*
X107638Y203828D01*
X107651Y203873D01*
X107671Y203915D01*
X107707Y204066D01*
X107750Y204215D01*
X107753Y204261D01*
X107764Y204307D01*
X107770Y204462D01*
X107782Y204616D01*
X107777Y204662D01*
X107779Y204709D01*
X107754Y204862D01*
X107736Y205016D01*
X107721Y205060D01*
X107713Y205106D01*
X107659Y205251D01*
X107611Y205399D01*
X107588Y205439D01*
X107571Y205483D01*
X107489Y205614D01*
X107413Y205749D01*
X107382Y205785D01*
X107357Y205824D01*
X107188Y206009D01*
X107182Y206017D01*
X107169Y206077D01*
X107119Y206192D01*
X107078Y206311D01*
X107039Y206376D01*
X107008Y206446D01*
X106917Y206582D01*
X106873Y206657D01*
X106849Y206684D01*
X106823Y206722D01*
X106283Y207400D01*
X106230Y207455D01*
X106183Y207516D01*
X106090Y207599D01*
X106002Y207688D01*
X105939Y207732D01*
X105882Y207782D01*
X105773Y207845D01*
X105681Y207908D01*
X105241Y208671D01*
X105202Y208725D01*
X105070Y208922D01*
X104517Y209616D01*
X104514Y209668D01*
X104481Y209789D01*
X104458Y209912D01*
X104430Y209983D01*
X104410Y210057D01*
X104340Y210205D01*
X104308Y210286D01*
X104288Y210316D01*
X104268Y210357D01*
X103835Y211108D01*
X103790Y211170D01*
X103754Y211237D01*
X103673Y211334D01*
X103600Y211435D01*
X103544Y211487D01*
X103495Y211546D01*
X103397Y211624D01*
X103316Y211700D01*
X102994Y212521D01*
X102963Y212580D01*
X102862Y212794D01*
X102419Y213563D01*
X102423Y213615D01*
X102410Y213739D01*
X102405Y213864D01*
X102387Y213939D01*
X102379Y214015D01*
X102332Y214171D01*
X102312Y214256D01*
X102297Y214289D01*
X102283Y214333D01*
X101967Y215140D01*
X101953Y215167D01*
X101946Y215189D01*
X101926Y215223D01*
X101906Y215280D01*
X101841Y215386D01*
X101784Y215498D01*
X101736Y215558D01*
X101696Y215623D01*
X101611Y215715D01*
X101542Y215803D01*
X101346Y216662D01*
X101324Y216726D01*
X101256Y216952D01*
X100932Y217778D01*
X100945Y217829D01*
X100950Y217954D01*
X100964Y218078D01*
X100957Y218155D01*
X100960Y218231D01*
X100937Y218393D01*
X100930Y218480D01*
X100920Y218514D01*
X100913Y218560D01*
X100721Y219405D01*
X100696Y219477D01*
X100681Y219552D01*
X100632Y219668D01*
X100593Y219786D01*
X100555Y219853D01*
X100525Y219923D01*
X100454Y220027D01*
X100399Y220124D01*
X100333Y221002D01*
X100322Y221069D01*
X100288Y221303D01*
X100091Y222168D01*
X100111Y222216D01*
X100134Y222339D01*
X100167Y222460D01*
X100172Y222536D01*
X100186Y222611D01*
X100187Y222775D01*
X100193Y222862D01*
X100188Y222897D01*
X100188Y222943D01*
X100124Y223808D01*
X100111Y223883D01*
X100107Y223960D01*
X100076Y224081D01*
X100054Y224204D01*
X100026Y224276D01*
X100008Y224350D01*
X99954Y224463D01*
X99913Y224567D01*
X99979Y225445D01*
X99977Y225513D01*
X99979Y225749D01*
X99913Y226634D01*
X99940Y226679D01*
X99981Y226797D01*
X100032Y226912D01*
X100048Y226986D01*
X100073Y227058D01*
X100099Y227220D01*
X100117Y227305D01*
X100118Y227341D01*
X100125Y227386D01*
X100190Y228251D01*
X100188Y228327D01*
X100196Y228403D01*
X100184Y228528D01*
X100180Y228653D01*
X100164Y228728D01*
X100156Y228804D01*
X100119Y228924D01*
X100095Y229032D01*
X100291Y229891D01*
X100299Y229958D01*
X100336Y230192D01*
X100403Y231076D01*
X100436Y231117D01*
X100495Y231227D01*
X100561Y231333D01*
X100589Y231405D01*
X100625Y231473D01*
X100674Y231628D01*
X100705Y231710D01*
X100711Y231745D01*
X100725Y231789D01*
X100918Y232634D01*
X100927Y232710D01*
X100946Y232784D01*
X100953Y232909D01*
X100968Y233033D01*
X100963Y233110D01*
X100966Y233186D01*
X100948Y233310D01*
X100940Y233421D01*
X101262Y234242D01*
X101280Y234306D01*
X101352Y234532D01*
X101549Y235397D01*
X101588Y235432D01*
X101663Y235532D01*
X101744Y235627D01*
X101782Y235694D01*
X101828Y235755D01*
X101899Y235902D01*
X101942Y235978D01*
X101953Y236012D01*
X101974Y236053D01*
X102291Y236860D01*
X102311Y236934D01*
X102341Y237004D01*
X102366Y237127D01*
X102400Y237247D01*
X102406Y237324D01*
X102421Y237399D01*
X102421Y237524D01*
X102430Y237635D01*
X102870Y238398D01*
X102898Y238459D01*
X103002Y238672D01*
X103327Y239498D01*
X103370Y239526D01*
X103459Y239615D01*
X103554Y239696D01*
X103601Y239757D01*
X103655Y239811D01*
X103748Y239945D01*
X103802Y240014D01*
X103818Y240046D01*
X103844Y240084D01*
X104278Y240834D01*
X104309Y240904D01*
X104349Y240969D01*
X104392Y241087D01*
X104444Y241201D01*
X104461Y241275D01*
X104487Y241347D01*
X104506Y241471D01*
X104531Y241580D01*
X105081Y242269D01*
X105117Y242325D01*
X105252Y242520D01*
X105696Y243288D01*
X105743Y243310D01*
X105844Y243384D01*
X105950Y243451D01*
X106006Y243503D01*
X106067Y243549D01*
X106179Y243667D01*
X106243Y243727D01*
X106263Y243757D01*
X106295Y243790D01*
X106835Y244468D01*
X106877Y244532D01*
X106926Y244591D01*
X106986Y244700D01*
X107054Y244806D01*
X107082Y244877D01*
X107119Y244944D01*
X107156Y245064D01*
X107197Y245168D01*
X107843Y245767D01*
X107887Y245817D01*
X108050Y245989D01*
X108603Y246683D01*
X108653Y246697D01*
X108764Y246756D01*
X108879Y246806D01*
X108942Y246849D01*
X109009Y246885D01*
X109138Y246986D01*
X109209Y247036D01*
X109234Y247062D01*
X109270Y247090D01*
X109906Y247680D01*
X109957Y247737D01*
X110014Y247788D01*
X110090Y247887D01*
X110173Y247981D01*
X110211Y248048D01*
X110257Y248109D01*
X110312Y248221D01*
X110374Y248330D01*
X110399Y248402D01*
X110432Y248471D01*
X110476Y248628D01*
X110504Y248711D01*
X110508Y248745D01*
X110511Y248753D01*
X110512Y248759D01*
X110521Y248791D01*
X110532Y248849D01*
X110545Y249001D01*
X110566Y249152D01*
X110563Y249201D01*
X110567Y249250D01*
X110550Y249402D01*
X110541Y249554D01*
X110528Y249601D01*
X110522Y249650D01*
X110476Y249796D01*
X110437Y249943D01*
X110413Y249993D01*
X110400Y250034D01*
X110358Y250109D01*
X110295Y250243D01*
X84451Y295007D01*
X84398Y295081D01*
X84353Y295160D01*
X84281Y295244D01*
X84216Y295334D01*
X84149Y295396D01*
X84090Y295465D01*
X84002Y295533D01*
X83921Y295608D01*
X83844Y295656D01*
X83772Y295712D01*
X83673Y295761D01*
X83578Y295819D01*
X83493Y295851D01*
X83411Y295891D01*
X83304Y295920D01*
X83200Y295958D01*
X83110Y295972D01*
X83022Y295996D01*
X82885Y296007D01*
X82802Y296020D01*
X82755Y296018D01*
X82692Y296023D01*
X-82892Y296023D01*
X-82982Y296014D01*
X-83073Y296015D01*
X-83182Y295994D01*
X-83292Y295983D01*
X-83379Y295956D01*
X-83469Y295939D01*
X-83571Y295897D01*
X-83677Y295865D01*
X-83757Y295821D01*
X-83842Y295787D01*
X-83934Y295726D01*
X-84031Y295673D01*
X-84101Y295615D01*
X-84177Y295564D01*
X-84256Y295486D01*
X-84341Y295415D01*
X-84398Y295344D01*
X-84462Y295280D01*
X-84540Y295167D01*
X-84593Y295101D01*
X-84615Y295059D01*
X-84651Y295007D01*
X-110495Y250243D01*
X-110558Y250104D01*
X-110627Y249968D01*
X-110640Y249921D01*
X-110661Y249876D01*
X-110695Y249727D01*
X-110736Y249581D01*
X-110740Y249531D01*
X-110751Y249483D01*
X-110755Y249331D01*
X-110766Y249179D01*
X-110761Y249124D01*
X-110762Y249081D01*
X-110747Y248996D01*
X-110732Y248849D01*
X-110721Y248791D01*
X-110699Y248717D01*
X-110686Y248642D01*
X-110642Y248525D01*
X-110607Y248405D01*
X-110571Y248337D01*
X-110544Y248265D01*
X-110477Y248159D01*
X-110419Y248049D01*
X-110371Y247989D01*
X-110330Y247924D01*
X-110220Y247804D01*
X-110165Y247736D01*
X-110137Y247714D01*
X-110106Y247680D01*
X-109470Y247090D01*
X-109409Y247044D01*
X-109354Y246990D01*
X-109249Y246923D01*
X-109149Y246847D01*
X-109080Y246814D01*
X-109016Y246772D01*
X-108900Y246726D01*
X-108799Y246678D01*
X-108250Y245989D01*
X-108202Y245941D01*
X-108043Y245767D01*
X-107392Y245163D01*
X-107381Y245112D01*
X-107331Y244997D01*
X-107290Y244879D01*
X-107251Y244813D01*
X-107221Y244743D01*
X-107129Y244608D01*
X-107085Y244533D01*
X-107061Y244506D01*
X-107035Y244468D01*
X-106495Y243790D01*
X-106441Y243735D01*
X-106395Y243674D01*
X-106301Y243592D01*
X-106214Y243502D01*
X-106150Y243459D01*
X-106093Y243408D01*
X-105985Y243345D01*
X-105893Y243282D01*
X-105452Y242520D01*
X-105413Y242465D01*
X-105281Y242269D01*
X-104727Y241575D01*
X-104724Y241523D01*
X-104692Y241402D01*
X-104668Y241279D01*
X-104640Y241208D01*
X-104620Y241134D01*
X-104550Y240986D01*
X-104517Y240906D01*
X-104498Y240876D01*
X-104478Y240834D01*
X-104044Y240084D01*
X-104000Y240021D01*
X-103963Y239954D01*
X-103882Y239858D01*
X-103809Y239757D01*
X-103753Y239705D01*
X-103704Y239646D01*
X-103606Y239568D01*
X-103525Y239492D01*
X-103202Y238672D01*
X-103172Y238612D01*
X-103070Y238398D01*
X-102627Y237630D01*
X-102631Y237578D01*
X-102617Y237454D01*
X-102613Y237328D01*
X-102595Y237254D01*
X-102586Y237178D01*
X-102539Y237022D01*
X-102519Y236937D01*
X-102504Y236904D01*
X-102491Y236860D01*
X-102174Y236053D01*
X-102139Y235985D01*
X-102113Y235913D01*
X-102047Y235806D01*
X-101990Y235695D01*
X-101942Y235635D01*
X-101902Y235570D01*
X-101817Y235478D01*
X-101748Y235391D01*
X-101552Y234532D01*
X-101530Y234468D01*
X-101462Y234242D01*
X-101138Y233416D01*
X-101150Y233365D01*
X-101155Y233240D01*
X-101169Y233115D01*
X-101162Y233039D01*
X-101165Y232962D01*
X-101142Y232801D01*
X-101134Y232714D01*
X-101124Y232679D01*
X-101118Y232634D01*
X-100925Y231789D01*
X-100900Y231716D01*
X-100885Y231641D01*
X-100836Y231526D01*
X-100797Y231407D01*
X-100758Y231341D01*
X-100728Y231270D01*
X-100658Y231167D01*
X-100602Y231070D01*
X-100536Y230192D01*
X-100525Y230125D01*
X-100491Y229891D01*
X-100293Y229026D01*
X-100313Y228978D01*
X-100336Y228855D01*
X-100369Y228734D01*
X-100374Y228658D01*
X-100388Y228582D01*
X-100389Y228419D01*
X-100395Y228332D01*
X-100390Y228297D01*
X-100390Y228251D01*
X-100325Y227386D01*
X-100312Y227311D01*
X-100308Y227234D01*
X-100277Y227113D01*
X-100255Y226990D01*
X-100227Y226918D01*
X-100208Y226844D01*
X-100154Y226731D01*
X-100114Y226628D01*
X-100179Y225749D01*
X-100177Y225682D01*
X-100179Y225445D01*
X-100112Y224560D01*
X-100139Y224516D01*
X-100181Y224397D01*
X-100231Y224283D01*
X-100247Y224208D01*
X-100272Y224136D01*
X-100298Y223975D01*
X-100316Y223889D01*
X-100317Y223853D01*
X-100324Y223808D01*
X-100388Y222943D01*
X-100387Y222867D01*
X-100394Y222791D01*
X-100382Y222666D01*
X-100378Y222541D01*
X-100362Y222466D01*
X-100354Y222390D01*
X-100317Y222270D01*
X-100292Y222162D01*
X-100488Y221303D01*
X-100496Y221236D01*
X-100533Y221002D01*
X-100599Y220117D01*
X-100632Y220077D01*
X-100691Y219966D01*
X-100758Y219860D01*
X-100785Y219789D01*
X-100821Y219721D01*
X-100870Y219565D01*
X-100901Y219484D01*
X-100907Y219449D01*
X-100921Y219405D01*
X-101113Y218560D01*
X-101123Y218484D01*
X-101142Y218409D01*
X-101148Y218284D01*
X-101163Y218160D01*
X-101158Y218084D01*
X-101162Y218007D01*
X-101143Y217883D01*
X-101135Y217772D01*
X-101456Y216952D01*
X-101475Y216887D01*
X-101546Y216662D01*
X-101754Y215746D01*
X-101768Y215729D01*
X-101874Y215606D01*
X-101894Y215572D01*
X-101918Y215541D01*
X-101992Y215397D01*
X-102072Y215255D01*
X-102084Y215218D01*
X-102102Y215183D01*
X-102146Y215027D01*
X-102197Y214872D01*
X-102201Y214833D01*
X-102212Y214795D01*
X-102224Y214634D01*
X-102243Y214472D01*
X-102240Y214433D01*
X-102243Y214394D01*
X-102223Y214233D01*
X-102210Y214071D01*
X-102199Y214033D01*
X-102194Y213994D01*
X-102143Y213840D01*
X-102098Y213684D01*
X-102080Y213649D01*
X-102068Y213612D01*
X-101987Y213471D01*
X-101913Y213327D01*
X-101888Y213296D01*
X-101868Y213262D01*
X-101762Y213140D01*
X-101660Y213014D01*
X-101630Y212988D01*
X-101604Y212959D01*
X-101475Y212860D01*
X-101351Y212756D01*
X-101316Y212737D01*
X-101285Y212713D01*
X-101021Y212578D01*
X-100997Y212564D01*
X-100993Y212563D01*
X-100990Y212562D01*
X-98868Y211683D01*
X-97161Y209976D01*
X-96237Y207745D01*
X-96237Y205296D01*
X-96235Y205270D01*
X-96237Y205243D01*
X-96215Y205069D01*
X-96197Y204896D01*
X-96190Y204870D01*
X-96186Y204843D01*
X-96131Y204678D01*
X-96079Y204511D01*
X-96067Y204487D01*
X-96058Y204462D01*
X-95971Y204310D01*
X-95888Y204157D01*
X-95871Y204136D01*
X-95857Y204113D01*
X-95642Y203860D01*
X-82660Y190877D01*
X-80493Y188710D01*
X-80476Y188696D01*
X-80461Y188679D01*
X-80320Y188569D01*
X-80181Y188455D01*
X-80162Y188445D01*
X-80144Y188431D01*
X-79984Y188351D01*
X-79826Y188267D01*
X-79804Y188260D01*
X-79784Y188250D01*
X-79611Y188203D01*
X-79440Y188152D01*
X-79418Y188150D01*
X-79396Y188144D01*
X-79217Y188132D01*
X-79039Y188115D01*
X-79017Y188118D01*
X-78994Y188116D01*
X-78817Y188140D01*
X-78639Y188159D01*
X-78617Y188166D01*
X-78595Y188168D01*
X-78279Y188270D01*
X-77303Y188674D01*
X-77283Y188685D01*
X-77262Y188692D01*
X-77106Y188780D01*
X-76948Y188864D01*
X-76931Y188879D01*
X-76912Y188890D01*
X-76776Y189007D01*
X-76638Y189121D01*
X-76624Y189138D01*
X-76607Y189153D01*
X-76498Y189294D01*
X-76384Y189434D01*
X-76374Y189453D01*
X-76360Y189471D01*
X-76280Y189631D01*
X-76197Y189790D01*
X-76191Y189811D01*
X-76181Y189831D01*
X-76134Y190005D01*
X-76084Y190176D01*
X-76082Y190199D01*
X-76076Y190220D01*
X-76049Y190551D01*
X-76049Y193835D01*
X-74710Y195174D01*
X-61815Y195174D01*
X-60476Y193835D01*
X-60476Y181940D01*
X-61815Y180601D01*
X-69087Y180601D01*
X-69109Y180599D01*
X-69131Y180600D01*
X-69309Y180579D01*
X-69487Y180561D01*
X-69509Y180554D01*
X-69531Y180552D01*
X-69700Y180495D01*
X-69872Y180443D01*
X-69892Y180432D01*
X-69913Y180425D01*
X-70068Y180336D01*
X-70226Y180251D01*
X-70243Y180237D01*
X-70263Y180226D01*
X-70398Y180108D01*
X-70535Y179993D01*
X-70549Y179976D01*
X-70566Y179961D01*
X-70676Y179819D01*
X-70788Y179679D01*
X-70798Y179660D01*
X-70812Y179642D01*
X-70963Y179347D01*
X-71055Y179125D01*
X-72824Y177356D01*
X-72883Y177325D01*
X-72894Y177316D01*
X-72906Y177309D01*
X-73047Y177189D01*
X-73193Y177068D01*
X-73202Y177057D01*
X-73213Y177048D01*
X-73328Y176902D01*
X-73447Y176756D01*
X-73453Y176743D01*
X-73462Y176732D01*
X-73547Y176565D01*
X-73634Y176399D01*
X-73638Y176385D01*
X-73644Y176373D01*
X-73694Y176193D01*
X-73747Y176013D01*
X-73748Y175999D01*
X-73752Y175985D01*
X-73766Y175798D01*
X-73782Y175612D01*
X-73780Y175598D01*
X-73781Y175583D01*
X-73762Y175431D01*
X-73762Y167919D01*
X-73760Y167902D01*
X-73761Y167884D01*
X-73740Y167702D01*
X-73722Y167519D01*
X-73717Y167502D01*
X-73715Y167484D01*
X-73658Y167310D01*
X-73604Y167134D01*
X-73595Y167118D01*
X-73590Y167101D01*
X-73499Y166941D01*
X-73412Y166780D01*
X-73401Y166766D01*
X-73392Y166751D01*
X-73272Y166611D01*
X-73154Y166471D01*
X-73140Y166459D01*
X-73129Y166446D01*
X-72984Y166333D01*
X-72840Y166218D01*
X-72825Y166210D01*
X-72811Y166199D01*
X-72646Y166117D01*
X-72483Y166033D01*
X-72466Y166028D01*
X-72450Y166020D01*
X-72272Y165972D01*
X-72096Y165921D01*
X-72078Y165920D01*
X-72061Y165915D01*
X-71731Y165888D01*
X-59475Y165888D01*
X-41417Y147830D01*
X-41410Y147825D01*
X-41404Y147818D01*
X-41255Y147698D01*
X-41105Y147575D01*
X-41097Y147571D01*
X-41090Y147565D01*
X-40920Y147477D01*
X-40750Y147387D01*
X-40741Y147384D01*
X-40733Y147380D01*
X-40548Y147327D01*
X-40364Y147272D01*
X-40355Y147271D01*
X-40346Y147269D01*
X-40155Y147253D01*
X-39963Y147235D01*
X-39954Y147236D01*
X-39945Y147236D01*
X-39756Y147258D01*
X-39562Y147279D01*
X-39554Y147282D01*
X-39545Y147283D01*
X-39363Y147342D01*
X-39179Y147400D01*
X-39171Y147405D01*
X-39162Y147407D01*
X-38994Y147502D01*
X-38826Y147595D01*
X-38820Y147601D01*
X-38812Y147605D01*
X-38666Y147731D01*
X-38519Y147856D01*
X-38514Y147863D01*
X-38507Y147869D01*
X-38390Y148020D01*
X-38270Y148172D01*
X-38266Y148180D01*
X-38260Y148187D01*
X-38175Y148359D01*
X-38087Y148531D01*
X-38085Y148539D01*
X-38081Y148547D01*
X-38031Y148734D01*
X-37979Y148918D01*
X-37979Y148927D01*
X-37976Y148936D01*
X-37949Y149267D01*
X-37949Y157785D01*
X-36833Y158901D01*
X-36821Y158915D01*
X-36808Y158927D01*
X-36694Y159071D01*
X-36578Y159213D01*
X-36569Y159228D01*
X-36558Y159242D01*
X-36475Y159407D01*
X-36389Y159568D01*
X-36384Y159585D01*
X-36376Y159601D01*
X-36326Y159779D01*
X-36274Y159954D01*
X-36273Y159972D01*
X-36268Y159989D01*
X-36254Y160172D01*
X-36238Y160355D01*
X-36240Y160373D01*
X-36238Y160391D01*
X-36261Y160573D01*
X-36281Y160756D01*
X-36287Y160773D01*
X-36289Y160790D01*
X-36347Y160964D01*
X-36403Y161139D01*
X-36411Y161155D01*
X-36417Y161172D01*
X-36509Y161331D01*
X-36598Y161492D01*
X-36609Y161505D01*
X-36618Y161521D01*
X-36833Y161774D01*
X-37949Y162890D01*
X-37949Y174785D01*
X-36610Y176124D01*
X-28747Y176124D01*
X-28721Y176127D01*
X-28694Y176125D01*
X-28520Y176147D01*
X-28347Y176164D01*
X-28321Y176172D01*
X-28294Y176175D01*
X-28129Y176231D01*
X-27962Y176282D01*
X-27938Y176295D01*
X-27913Y176304D01*
X-27761Y176391D01*
X-27608Y176474D01*
X-27587Y176491D01*
X-27564Y176504D01*
X-27311Y176719D01*
X-15742Y188288D01*
X1727Y188288D01*
X1754Y188291D01*
X1781Y188289D01*
X1955Y188311D01*
X2128Y188328D01*
X2154Y188336D01*
X2180Y188339D01*
X2346Y188395D01*
X2513Y188446D01*
X2537Y188459D01*
X2562Y188468D01*
X2713Y188555D01*
X2867Y188638D01*
X2887Y188655D01*
X2911Y188668D01*
X3164Y188883D01*
X4157Y189876D01*
X6387Y190800D01*
X8802Y190800D01*
X11032Y189876D01*
X12739Y188169D01*
X13663Y185939D01*
X13663Y183524D01*
X12739Y181294D01*
X11064Y179619D01*
X11050Y179601D01*
X11033Y179587D01*
X10922Y179445D01*
X10809Y179307D01*
X10798Y179287D01*
X10785Y179270D01*
X10704Y179109D01*
X10620Y178951D01*
X10614Y178930D01*
X10604Y178910D01*
X10557Y178737D01*
X10505Y178565D01*
X10503Y178543D01*
X10498Y178522D01*
X10485Y178344D01*
X10469Y178164D01*
X10472Y178142D01*
X10470Y178120D01*
X10493Y177943D01*
X10512Y177764D01*
X10519Y177743D01*
X10522Y177721D01*
X10624Y177405D01*
X11589Y175074D01*
X11589Y172660D01*
X10899Y170995D01*
X10895Y170982D01*
X10889Y170971D01*
X10837Y170790D01*
X10783Y170610D01*
X10782Y170597D01*
X10778Y170584D01*
X10762Y170395D01*
X10745Y170209D01*
X10746Y170196D01*
X10745Y170182D01*
X10767Y169996D01*
X10786Y169809D01*
X10790Y169796D01*
X10792Y169783D01*
X10850Y169603D01*
X10906Y169424D01*
X10913Y169413D01*
X10917Y169400D01*
X11011Y169234D01*
X11100Y169071D01*
X11108Y169061D01*
X11115Y169049D01*
X11238Y168907D01*
X11359Y168763D01*
X11369Y168755D01*
X11378Y168744D01*
X11526Y168630D01*
X11673Y168512D01*
X11685Y168506D01*
X11696Y168498D01*
X11864Y168414D01*
X12032Y168328D01*
X12044Y168324D01*
X12057Y168318D01*
X12239Y168269D01*
X12419Y168218D01*
X12432Y168217D01*
X12445Y168214D01*
X12776Y168187D01*
X18878Y168187D01*
X18904Y168189D01*
X18931Y168187D01*
X19105Y168209D01*
X19278Y168227D01*
X19304Y168234D01*
X19331Y168238D01*
X19496Y168293D01*
X19663Y168345D01*
X19687Y168358D01*
X19712Y168366D01*
X19864Y168453D01*
X20017Y168537D01*
X20038Y168554D01*
X20061Y168567D01*
X20314Y168782D01*
X30232Y178700D01*
X34710Y178700D01*
X34737Y178702D01*
X34764Y178700D01*
X34938Y178722D01*
X35111Y178740D01*
X35136Y178747D01*
X35163Y178751D01*
X35329Y178806D01*
X35496Y178858D01*
X35520Y178871D01*
X35545Y178879D01*
X35696Y178966D01*
X35850Y179050D01*
X35870Y179067D01*
X35894Y179080D01*
X36147Y179295D01*
X42440Y185588D01*
X42460Y185612D01*
X42483Y185633D01*
X42587Y185768D01*
X42695Y185900D01*
X42710Y185927D01*
X42729Y185952D01*
X42880Y186247D01*
X42993Y186518D01*
X43986Y187511D01*
X44003Y187532D01*
X44023Y187549D01*
X44130Y187687D01*
X44241Y187823D01*
X44253Y187846D01*
X44270Y187868D01*
X44348Y188025D01*
X44430Y188179D01*
X44437Y188204D01*
X44449Y188228D01*
X44495Y188398D01*
X44544Y188564D01*
X44547Y188591D01*
X44554Y188617D01*
X44581Y188948D01*
X44581Y197805D01*
X47259Y200483D01*
X47259Y200484D01*
X61461Y214686D01*
X61473Y214700D01*
X61486Y214711D01*
X61600Y214855D01*
X61717Y214997D01*
X61725Y215013D01*
X61736Y215027D01*
X61820Y215192D01*
X61905Y215353D01*
X61910Y215370D01*
X61918Y215386D01*
X61968Y215564D01*
X62020Y215739D01*
X62022Y215757D01*
X62026Y215774D01*
X62040Y215957D01*
X62056Y216140D01*
X62054Y216158D01*
X62056Y216176D01*
X62033Y216357D01*
X62013Y216540D01*
X62008Y216557D01*
X62005Y216575D01*
X61947Y216748D01*
X61891Y216924D01*
X61883Y216940D01*
X61877Y216957D01*
X61785Y217116D01*
X61697Y217276D01*
X61685Y217290D01*
X61676Y217306D01*
X61461Y217559D01*
X59943Y219077D01*
X59943Y239598D01*
X61599Y241254D01*
X61616Y241275D01*
X61636Y241292D01*
X61743Y241430D01*
X61854Y241565D01*
X61866Y241589D01*
X61883Y241610D01*
X61961Y241767D01*
X62043Y241921D01*
X62050Y241947D01*
X62062Y241971D01*
X62108Y242140D01*
X62157Y242307D01*
X62160Y242334D01*
X62167Y242359D01*
X62194Y242690D01*
X62194Y244095D01*
X63118Y246325D01*
X64152Y247359D01*
X64166Y247376D01*
X64183Y247391D01*
X64294Y247532D01*
X64407Y247671D01*
X64417Y247690D01*
X64431Y247708D01*
X64512Y247868D01*
X64595Y248026D01*
X64602Y248048D01*
X64612Y248068D01*
X64659Y248241D01*
X64710Y248412D01*
X64712Y248435D01*
X64718Y248456D01*
X64730Y248634D01*
X64747Y248813D01*
X64744Y248836D01*
X64746Y248858D01*
X64723Y249034D01*
X64703Y249214D01*
X64696Y249235D01*
X64694Y249257D01*
X64592Y249573D01*
X63781Y251530D01*
X63781Y253945D01*
X64705Y256175D01*
X66412Y257882D01*
X68643Y258806D01*
X71057Y258806D01*
X73288Y257882D01*
X74995Y256175D01*
X75919Y253945D01*
X75919Y251480D01*
X75921Y251454D01*
X75919Y251427D01*
X75941Y251253D01*
X75959Y251080D01*
X75966Y251054D01*
X75970Y251027D01*
X76025Y250862D01*
X76077Y250695D01*
X76090Y250671D01*
X76098Y250646D01*
X76185Y250494D01*
X76269Y250341D01*
X76286Y250320D01*
X76299Y250297D01*
X76514Y250044D01*
X79157Y247400D01*
X79157Y234518D01*
X79160Y234491D01*
X79158Y234464D01*
X79180Y234291D01*
X79197Y234117D01*
X79199Y234111D01*
X79199Y229772D01*
X79202Y229746D01*
X79200Y229719D01*
X79222Y229545D01*
X79239Y229372D01*
X79247Y229346D01*
X79250Y229319D01*
X79306Y229154D01*
X79357Y228987D01*
X79370Y228963D01*
X79379Y228938D01*
X79466Y228786D01*
X79549Y228633D01*
X79566Y228612D01*
X79579Y228589D01*
X79794Y228336D01*
X82819Y225311D01*
X82819Y206665D01*
X82825Y206608D01*
X82824Y206530D01*
X82919Y205105D01*
X81909Y204096D01*
X81873Y204051D01*
X81817Y203997D01*
X53688Y171843D01*
X53595Y171713D01*
X53497Y171586D01*
X53479Y171549D01*
X53455Y171516D01*
X53389Y171369D01*
X53353Y171296D01*
X53254Y171167D01*
X53146Y171035D01*
X53131Y171008D01*
X53112Y170983D01*
X52961Y170688D01*
X52121Y168661D01*
X50414Y166954D01*
X48183Y166030D01*
X45926Y166030D01*
X45900Y166027D01*
X45873Y166029D01*
X45699Y166007D01*
X45526Y165990D01*
X45500Y165982D01*
X45474Y165979D01*
X45308Y165923D01*
X45141Y165872D01*
X45117Y165859D01*
X45092Y165851D01*
X44940Y165763D01*
X44787Y165680D01*
X44766Y165663D01*
X44743Y165650D01*
X44490Y165435D01*
X43307Y164252D01*
X43290Y164231D01*
X43269Y164213D01*
X43162Y164076D01*
X43052Y163940D01*
X43039Y163917D01*
X43023Y163895D01*
X42945Y163738D01*
X42863Y163584D01*
X42855Y163559D01*
X42843Y163535D01*
X42798Y163365D01*
X42748Y163199D01*
X42746Y163172D01*
X42739Y163146D01*
X42712Y162815D01*
X42712Y154953D01*
X41595Y153836D01*
X41584Y153823D01*
X41570Y153811D01*
X41456Y153667D01*
X41340Y153525D01*
X41332Y153509D01*
X41321Y153495D01*
X41237Y153331D01*
X41152Y153169D01*
X41146Y153152D01*
X41138Y153136D01*
X41089Y152959D01*
X41037Y152783D01*
X41035Y152765D01*
X41030Y152748D01*
X41017Y152565D01*
X41000Y152382D01*
X41002Y152364D01*
X41001Y152347D01*
X41024Y152165D01*
X41044Y151982D01*
X41049Y151965D01*
X41051Y151947D01*
X41110Y151774D01*
X41165Y151598D01*
X41174Y151582D01*
X41180Y151566D01*
X41271Y151407D01*
X41360Y151246D01*
X41372Y151232D01*
X41381Y151217D01*
X41595Y150964D01*
X42712Y149847D01*
X42712Y137836D01*
X42680Y137774D01*
X42595Y137612D01*
X42589Y137595D01*
X42581Y137579D01*
X42532Y137402D01*
X42480Y137226D01*
X42478Y137208D01*
X42473Y137191D01*
X42460Y137008D01*
X42443Y136825D01*
X42445Y136808D01*
X42444Y136790D01*
X42467Y136607D01*
X42487Y136425D01*
X42492Y136408D01*
X42494Y136390D01*
X42553Y136217D01*
X42608Y136041D01*
X42617Y136025D01*
X42623Y136009D01*
X42714Y135850D01*
X42803Y135689D01*
X42815Y135675D01*
X42824Y135660D01*
X43038Y135407D01*
X43245Y135200D01*
X44169Y132970D01*
X44169Y130555D01*
X43245Y128325D01*
X41538Y126618D01*
X39307Y125694D01*
X37937Y125694D01*
X37920Y125692D01*
X37902Y125693D01*
X37720Y125672D01*
X37537Y125654D01*
X37520Y125649D01*
X37502Y125647D01*
X37328Y125590D01*
X37152Y125536D01*
X37136Y125527D01*
X37119Y125522D01*
X36959Y125431D01*
X36798Y125344D01*
X36784Y125333D01*
X36769Y125324D01*
X36629Y125204D01*
X36489Y125086D01*
X36477Y125072D01*
X36464Y125061D01*
X36351Y124916D01*
X36236Y124772D01*
X36228Y124757D01*
X36217Y124743D01*
X36135Y124578D01*
X36051Y124415D01*
X36046Y124398D01*
X36038Y124382D01*
X35990Y124204D01*
X35939Y124028D01*
X35938Y124010D01*
X35933Y123993D01*
X35906Y123663D01*
X35906Y118338D01*
X35909Y118311D01*
X35907Y118284D01*
X35929Y118110D01*
X35946Y117937D01*
X35954Y117912D01*
X35957Y117885D01*
X36013Y117719D01*
X36064Y117552D01*
X36077Y117529D01*
X36086Y117503D01*
X36173Y117352D01*
X36256Y117198D01*
X36273Y117178D01*
X36286Y117154D01*
X36501Y116901D01*
X36513Y116889D01*
X36513Y115645D01*
X36515Y115627D01*
X36514Y115609D01*
X36535Y115427D01*
X36553Y115244D01*
X36558Y115227D01*
X36560Y115210D01*
X36617Y115035D01*
X36671Y114859D01*
X36680Y114844D01*
X36685Y114827D01*
X36776Y114667D01*
X36863Y114505D01*
X36874Y114492D01*
X36883Y114476D01*
X37003Y114337D01*
X37121Y114196D01*
X37135Y114185D01*
X37146Y114171D01*
X37291Y114059D01*
X37435Y113944D01*
X37450Y113936D01*
X37464Y113925D01*
X37629Y113843D01*
X37792Y113758D01*
X37809Y113753D01*
X37825Y113745D01*
X37840Y113741D01*
X39307Y112274D01*
X39307Y107840D01*
X37968Y106500D01*
X27945Y106500D01*
X26606Y107840D01*
X26606Y108712D01*
X26604Y108730D01*
X26605Y108748D01*
X26584Y108930D01*
X26566Y109113D01*
X26561Y109130D01*
X26559Y109147D01*
X26502Y109322D01*
X26448Y109498D01*
X26439Y109513D01*
X26434Y109530D01*
X26343Y109690D01*
X26256Y109852D01*
X26245Y109865D01*
X26236Y109881D01*
X26116Y110020D01*
X25998Y110161D01*
X25984Y110172D01*
X25973Y110186D01*
X25828Y110298D01*
X25684Y110413D01*
X25669Y110421D01*
X25655Y110432D01*
X25490Y110514D01*
X25327Y110599D01*
X25310Y110604D01*
X25294Y110612D01*
X25116Y110659D01*
X24940Y110710D01*
X24922Y110712D01*
X24905Y110716D01*
X24575Y110743D01*
X-27750Y110743D01*
X-27767Y110741D01*
X-27785Y110743D01*
X-27967Y110722D01*
X-28150Y110703D01*
X-28167Y110698D01*
X-28185Y110696D01*
X-28359Y110639D01*
X-28535Y110585D01*
X-28551Y110577D01*
X-28568Y110571D01*
X-28728Y110481D01*
X-28889Y110393D01*
X-28903Y110382D01*
X-28918Y110373D01*
X-29058Y110253D01*
X-29198Y110136D01*
X-29210Y110122D01*
X-29223Y110110D01*
X-29336Y109965D01*
X-29451Y109822D01*
X-29459Y109806D01*
X-29470Y109792D01*
X-29552Y109627D01*
X-29636Y109465D01*
X-29641Y109448D01*
X-29649Y109432D01*
X-29697Y109253D01*
X-29748Y109078D01*
X-29749Y109060D01*
X-29754Y109043D01*
X-29781Y108712D01*
X-29781Y82834D01*
X-31129Y81486D01*
X-31140Y81472D01*
X-31154Y81460D01*
X-31268Y81316D01*
X-31384Y81174D01*
X-31392Y81159D01*
X-31403Y81145D01*
X-31487Y80980D01*
X-31572Y80819D01*
X-31578Y80802D01*
X-31586Y80786D01*
X-31635Y80608D01*
X-31687Y80433D01*
X-31689Y80415D01*
X-31694Y80398D01*
X-31707Y80215D01*
X-31724Y80032D01*
X-31722Y80014D01*
X-31723Y79996D01*
X-31700Y79814D01*
X-31680Y79631D01*
X-31675Y79614D01*
X-31673Y79597D01*
X-31614Y79423D01*
X-31559Y79248D01*
X-31550Y79232D01*
X-31544Y79215D01*
X-31453Y79056D01*
X-31364Y78895D01*
X-31352Y78882D01*
X-31343Y78866D01*
X-31129Y78613D01*
X-29781Y77265D01*
X-29781Y57827D01*
X-31120Y56487D01*
X-38679Y56487D01*
X-38705Y56485D01*
X-38732Y56487D01*
X-38906Y56465D01*
X-39080Y56447D01*
X-39105Y56440D01*
X-39132Y56436D01*
X-39297Y56380D01*
X-39464Y56329D01*
X-39488Y56316D01*
X-39513Y56308D01*
X-39665Y56221D01*
X-39818Y56137D01*
X-39839Y56120D01*
X-39862Y56107D01*
X-40115Y55892D01*
X-42873Y53134D01*
X-45531Y50477D01*
X-45548Y50456D01*
X-45568Y50439D01*
X-45675Y50301D01*
X-45786Y50165D01*
X-45798Y50142D01*
X-45815Y50120D01*
X-45893Y49964D01*
X-45975Y49810D01*
X-45982Y49784D01*
X-45994Y49760D01*
X-46040Y49591D01*
X-46089Y49424D01*
X-46092Y49397D01*
X-46099Y49371D01*
X-46126Y49040D01*
X-46126Y41178D01*
X-47465Y39838D01*
X-59360Y39838D01*
X-60476Y40955D01*
X-60490Y40966D01*
X-60502Y40980D01*
X-60646Y41094D01*
X-60788Y41210D01*
X-60803Y41218D01*
X-60817Y41229D01*
X-60982Y41313D01*
X-61143Y41398D01*
X-61160Y41404D01*
X-61176Y41412D01*
X-61354Y41461D01*
X-61529Y41513D01*
X-61547Y41515D01*
X-61564Y41520D01*
X-61747Y41533D01*
X-61930Y41550D01*
X-61948Y41548D01*
X-61966Y41549D01*
X-62148Y41526D01*
X-62331Y41506D01*
X-62348Y41501D01*
X-62365Y41499D01*
X-62539Y41440D01*
X-62714Y41385D01*
X-62730Y41376D01*
X-62747Y41370D01*
X-62906Y41279D01*
X-63067Y41190D01*
X-63080Y41178D01*
X-63096Y41169D01*
X-63349Y40955D01*
X-64465Y39838D01*
X-64825Y39838D01*
X-64842Y39836D01*
X-64860Y39838D01*
X-65042Y39817D01*
X-65225Y39798D01*
X-65242Y39793D01*
X-65260Y39791D01*
X-65434Y39734D01*
X-65610Y39680D01*
X-65626Y39672D01*
X-65643Y39666D01*
X-65803Y39576D01*
X-65964Y39488D01*
X-65978Y39477D01*
X-65993Y39468D01*
X-66133Y39348D01*
X-66273Y39231D01*
X-66285Y39217D01*
X-66298Y39205D01*
X-66411Y39060D01*
X-66526Y38917D01*
X-66534Y38901D01*
X-66545Y38887D01*
X-66627Y38722D01*
X-66711Y38560D01*
X-66716Y38543D01*
X-66724Y38527D01*
X-66772Y38348D01*
X-66823Y38173D01*
X-66824Y38157D01*
X-66826Y38150D01*
X-66826Y38148D01*
X-66829Y38138D01*
X-66856Y37807D01*
X-66856Y37802D01*
X-66854Y37787D01*
X-66855Y37771D01*
X-66854Y37761D01*
X-66855Y37749D01*
X-66833Y37575D01*
X-66816Y37402D01*
X-66810Y37381D01*
X-66809Y37372D01*
X-66807Y37366D01*
X-66805Y37349D01*
X-66749Y37184D01*
X-66698Y37017D01*
X-66685Y36994D01*
X-66684Y36989D01*
X-66683Y36988D01*
X-66676Y36968D01*
X-66589Y36816D01*
X-66506Y36663D01*
X-66489Y36642D01*
X-66476Y36619D01*
X-66261Y36366D01*
X-64793Y34898D01*
X-64772Y34881D01*
X-64755Y34861D01*
X-64617Y34754D01*
X-64481Y34643D01*
X-64458Y34630D01*
X-64437Y34614D01*
X-64280Y34536D01*
X-64126Y34454D01*
X-64100Y34447D01*
X-64076Y34435D01*
X-63907Y34389D01*
X-63740Y34339D01*
X-63713Y34337D01*
X-63687Y34330D01*
X-63357Y34303D01*
X-61952Y34303D01*
X-59722Y33379D01*
X-58014Y31672D01*
X-57091Y29441D01*
X-57091Y27027D01*
X-58014Y24797D01*
X-59722Y23089D01*
X-61952Y22166D01*
X-64366Y22166D01*
X-66597Y23089D01*
X-68304Y24797D01*
X-69228Y27027D01*
X-69228Y28432D01*
X-69231Y28458D01*
X-69229Y28485D01*
X-69251Y28659D01*
X-69268Y28832D01*
X-69276Y28858D01*
X-69279Y28884D01*
X-69335Y29050D01*
X-69386Y29217D01*
X-69399Y29241D01*
X-69407Y29266D01*
X-69495Y29418D01*
X-69578Y29571D01*
X-69595Y29592D01*
X-69608Y29615D01*
X-69823Y29868D01*
X-73969Y34014D01*
X-73969Y37807D01*
X-73971Y37825D01*
X-73970Y37843D01*
X-73991Y38025D01*
X-74009Y38208D01*
X-74014Y38225D01*
X-74016Y38242D01*
X-74073Y38417D01*
X-74127Y38593D01*
X-74136Y38608D01*
X-74141Y38625D01*
X-74232Y38785D01*
X-74319Y38947D01*
X-74330Y38960D01*
X-74339Y38976D01*
X-74459Y39115D01*
X-74577Y39256D01*
X-74591Y39267D01*
X-74602Y39281D01*
X-74747Y39393D01*
X-74891Y39508D01*
X-74906Y39516D01*
X-74920Y39527D01*
X-75085Y39609D01*
X-75248Y39694D01*
X-75265Y39699D01*
X-75281Y39707D01*
X-75459Y39754D01*
X-75635Y39805D01*
X-75653Y39807D01*
X-75670Y39811D01*
X-76000Y39838D01*
X-76360Y39838D01*
X-77699Y41178D01*
X-77699Y51836D01*
X-77701Y51853D01*
X-77700Y51871D01*
X-77721Y52053D01*
X-77739Y52236D01*
X-77744Y52253D01*
X-77746Y52271D01*
X-77803Y52445D01*
X-77857Y52621D01*
X-77866Y52637D01*
X-77871Y52654D01*
X-77962Y52814D01*
X-78049Y52975D01*
X-78060Y52989D01*
X-78069Y53004D01*
X-78189Y53144D01*
X-78307Y53284D01*
X-78321Y53296D01*
X-78332Y53309D01*
X-78477Y53422D01*
X-78621Y53537D01*
X-78636Y53545D01*
X-78650Y53556D01*
X-78815Y53638D01*
X-78978Y53722D01*
X-78995Y53727D01*
X-79011Y53735D01*
X-79189Y53783D01*
X-79365Y53834D01*
X-79383Y53835D01*
X-79400Y53840D01*
X-79730Y53867D01*
X-95242Y53867D01*
X-95269Y53864D01*
X-95296Y53866D01*
X-95470Y53844D01*
X-95643Y53827D01*
X-95669Y53819D01*
X-95695Y53816D01*
X-95861Y53760D01*
X-96028Y53709D01*
X-96052Y53696D01*
X-96077Y53687D01*
X-96229Y53600D01*
X-96382Y53517D01*
X-96402Y53500D01*
X-96426Y53487D01*
X-96679Y53272D01*
X-97672Y52279D01*
X-99902Y51355D01*
X-102317Y51355D01*
X-104547Y52279D01*
X-106336Y54067D01*
X-106444Y54156D01*
X-106547Y54251D01*
X-106600Y54283D01*
X-106647Y54322D01*
X-106771Y54388D01*
X-106891Y54461D01*
X-106949Y54482D01*
X-107003Y54511D01*
X-107137Y54551D01*
X-107269Y54599D01*
X-107330Y54608D01*
X-107389Y54626D01*
X-107529Y54639D01*
X-107667Y54660D01*
X-107737Y54657D01*
X-107790Y54662D01*
X-107871Y54653D01*
X-107999Y54650D01*
X-108316Y54614D01*
X-108391Y54598D01*
X-108467Y54591D01*
X-108587Y54556D01*
X-108709Y54530D01*
X-108780Y54499D01*
X-108853Y54478D01*
X-108964Y54419D01*
X-109079Y54369D01*
X-109142Y54326D01*
X-109209Y54290D01*
X-109338Y54189D01*
X-109409Y54139D01*
X-109434Y54113D01*
X-109470Y54085D01*
X-110106Y53495D01*
X-110156Y53438D01*
X-110213Y53388D01*
X-110289Y53288D01*
X-110373Y53194D01*
X-110411Y53128D01*
X-110457Y53067D01*
X-110511Y52954D01*
X-110574Y52845D01*
X-110599Y52773D01*
X-110632Y52705D01*
X-110676Y52546D01*
X-110704Y52464D01*
X-110708Y52430D01*
X-110711Y52422D01*
X-110712Y52416D01*
X-110720Y52385D01*
X-110731Y52327D01*
X-110745Y52174D01*
X-110766Y52023D01*
X-110763Y51974D01*
X-110767Y51926D01*
X-110750Y51774D01*
X-110741Y51621D01*
X-110728Y51574D01*
X-110723Y51526D01*
X-110676Y51380D01*
X-110637Y51232D01*
X-110613Y51183D01*
X-110600Y51142D01*
X-110558Y51067D01*
X-110495Y50932D01*
X-92214Y19267D01*
X-93572Y18876D01*
X-93602Y18860D01*
X-93648Y18847D01*
X-96414Y17539D01*
X-96436Y17522D01*
X-96463Y17512D01*
X-96515Y17463D01*
X-96573Y17420D01*
X-96587Y17395D01*
X-96608Y17375D01*
X-96637Y17310D01*
X-96673Y17248D01*
X-96676Y17220D01*
X-96688Y17193D01*
X-96689Y17121D01*
X-96698Y17051D01*
X-96690Y17023D01*
X-96691Y16994D01*
X-96655Y16900D01*
X-96644Y16859D01*
X-96637Y16851D01*
X-96633Y16838D01*
X-87133Y338D01*
X-87081Y280D01*
X-87035Y217D01*
X-87016Y206D01*
X-87001Y189D01*
X-86931Y156D01*
X-86864Y116D01*
X-86840Y112D01*
X-86822Y103D01*
X-86777Y101D01*
X-86700Y88D01*
X-67700Y88D01*
X-67672Y94D01*
G37*
G36*
X-110257Y98632D02*
X-110257Y98632D01*
X-110237Y98631D01*
X-110057Y98657D01*
X-109877Y98680D01*
X-109859Y98686D01*
X-109839Y98689D01*
X-109668Y98750D01*
X-109496Y98808D01*
X-109478Y98818D01*
X-109460Y98825D01*
X-109304Y98918D01*
X-109147Y99009D01*
X-109130Y99023D01*
X-109115Y99032D01*
X-109058Y99084D01*
X-108894Y99224D01*
X-107871Y100247D01*
X-105192Y102925D01*
X-85872Y102925D01*
X-85863Y102926D01*
X-85854Y102925D01*
X-85660Y102946D01*
X-85471Y102965D01*
X-85463Y102968D01*
X-85454Y102969D01*
X-85269Y103027D01*
X-85086Y103083D01*
X-85078Y103088D01*
X-85070Y103090D01*
X-84901Y103183D01*
X-84732Y103275D01*
X-84725Y103281D01*
X-84717Y103285D01*
X-84570Y103410D01*
X-84423Y103533D01*
X-84417Y103540D01*
X-84410Y103546D01*
X-84291Y103697D01*
X-84170Y103847D01*
X-84166Y103854D01*
X-84161Y103861D01*
X-84073Y104034D01*
X-83985Y104204D01*
X-83982Y104212D01*
X-83978Y104220D01*
X-83926Y104407D01*
X-83874Y104591D01*
X-83873Y104600D01*
X-83870Y104608D01*
X-83856Y104801D01*
X-83841Y104992D01*
X-83842Y105001D01*
X-83841Y105010D01*
X-83865Y105202D01*
X-83888Y105392D01*
X-83890Y105400D01*
X-83891Y105409D01*
X-83953Y105591D01*
X-84012Y105775D01*
X-84017Y105783D01*
X-84020Y105791D01*
X-84116Y105958D01*
X-84210Y106125D01*
X-84216Y106132D01*
X-84221Y106140D01*
X-84435Y106393D01*
X-100891Y122848D01*
X-100912Y122865D01*
X-100929Y122886D01*
X-101067Y122993D01*
X-101202Y123103D01*
X-101226Y123116D01*
X-101247Y123132D01*
X-101404Y123210D01*
X-101558Y123292D01*
X-101584Y123300D01*
X-101608Y123312D01*
X-101777Y123357D01*
X-101944Y123407D01*
X-101971Y123409D01*
X-101996Y123416D01*
X-102327Y123443D01*
X-116393Y123443D01*
X-116415Y123441D01*
X-116438Y123443D01*
X-116615Y123421D01*
X-116794Y123403D01*
X-116815Y123397D01*
X-116837Y123394D01*
X-117007Y123338D01*
X-117179Y123285D01*
X-117198Y123275D01*
X-117219Y123268D01*
X-117375Y123179D01*
X-117533Y123093D01*
X-117550Y123079D01*
X-117569Y123068D01*
X-117704Y122950D01*
X-117842Y122836D01*
X-117856Y122818D01*
X-117873Y122804D01*
X-117982Y122661D01*
X-118094Y122522D01*
X-118104Y122502D01*
X-118118Y122484D01*
X-118270Y122189D01*
X-118601Y121388D01*
X-121388Y118601D01*
X-125029Y117093D01*
X-128971Y117093D01*
X-132612Y118601D01*
X-135399Y121388D01*
X-136907Y125029D01*
X-136907Y128971D01*
X-135399Y132612D01*
X-132612Y135399D01*
X-128971Y136907D01*
X-125029Y136907D01*
X-121388Y135399D01*
X-118601Y132612D01*
X-118270Y131811D01*
X-118259Y131791D01*
X-118252Y131770D01*
X-118164Y131614D01*
X-118080Y131456D01*
X-118065Y131439D01*
X-118054Y131419D01*
X-117937Y131283D01*
X-117823Y131145D01*
X-117806Y131131D01*
X-117791Y131114D01*
X-117650Y131005D01*
X-117510Y130892D01*
X-117491Y130881D01*
X-117473Y130868D01*
X-117313Y130788D01*
X-117154Y130705D01*
X-117133Y130698D01*
X-117113Y130688D01*
X-116939Y130642D01*
X-116768Y130592D01*
X-116745Y130590D01*
X-116724Y130584D01*
X-116393Y130557D01*
X-102391Y130557D01*
X-102382Y130558D01*
X-102373Y130557D01*
X-102181Y130578D01*
X-101990Y130597D01*
X-101981Y130599D01*
X-101973Y130600D01*
X-101790Y130658D01*
X-101605Y130715D01*
X-101597Y130719D01*
X-101589Y130722D01*
X-101420Y130815D01*
X-101251Y130907D01*
X-101244Y130912D01*
X-101236Y130917D01*
X-101089Y131041D01*
X-100942Y131164D01*
X-100936Y131171D01*
X-100929Y131177D01*
X-100810Y131328D01*
X-100689Y131478D01*
X-100685Y131486D01*
X-100680Y131493D01*
X-100592Y131666D01*
X-100504Y131835D01*
X-100501Y131844D01*
X-100497Y131852D01*
X-100445Y132038D01*
X-100393Y132222D01*
X-100392Y132231D01*
X-100389Y132240D01*
X-100375Y132433D01*
X-100360Y132624D01*
X-100361Y132632D01*
X-100360Y132641D01*
X-100384Y132834D01*
X-100407Y133023D01*
X-100409Y133032D01*
X-100410Y133041D01*
X-100472Y133224D01*
X-100531Y133406D01*
X-100536Y133414D01*
X-100539Y133422D01*
X-100635Y133589D01*
X-100729Y133757D01*
X-100735Y133764D01*
X-100740Y133771D01*
X-100954Y134024D01*
X-105719Y138789D01*
X-105719Y142520D01*
X-105721Y142537D01*
X-105720Y142555D01*
X-105741Y142737D01*
X-105759Y142920D01*
X-105764Y142937D01*
X-105766Y142955D01*
X-105823Y143129D01*
X-105877Y143305D01*
X-105886Y143321D01*
X-105891Y143338D01*
X-105982Y143498D01*
X-106069Y143659D01*
X-106080Y143673D01*
X-106089Y143688D01*
X-106209Y143828D01*
X-106327Y143968D01*
X-106341Y143980D01*
X-106352Y143993D01*
X-106497Y144106D01*
X-106641Y144221D01*
X-106656Y144229D01*
X-106670Y144240D01*
X-106835Y144322D01*
X-106998Y144406D01*
X-107015Y144411D01*
X-107031Y144419D01*
X-107209Y144467D01*
X-107385Y144518D01*
X-107403Y144519D01*
X-107420Y144524D01*
X-107750Y144551D01*
X-108047Y144551D01*
X-109387Y145890D01*
X-109387Y146050D01*
X-109389Y146068D01*
X-109387Y146086D01*
X-109408Y146268D01*
X-109427Y146451D01*
X-109432Y146468D01*
X-109434Y146485D01*
X-109491Y146660D01*
X-109545Y146836D01*
X-109553Y146851D01*
X-109559Y146868D01*
X-109649Y147028D01*
X-109737Y147190D01*
X-109748Y147203D01*
X-109757Y147219D01*
X-109877Y147358D01*
X-109994Y147499D01*
X-110008Y147510D01*
X-110020Y147524D01*
X-110165Y147636D01*
X-110308Y147751D01*
X-110324Y147759D01*
X-110338Y147770D01*
X-110503Y147852D01*
X-110665Y147937D01*
X-110682Y147942D01*
X-110698Y147950D01*
X-110877Y147997D01*
X-111052Y148048D01*
X-111070Y148050D01*
X-111087Y148054D01*
X-111418Y148081D01*
X-116709Y148081D01*
X-116731Y148079D01*
X-116753Y148081D01*
X-116931Y148059D01*
X-117109Y148041D01*
X-117131Y148035D01*
X-117153Y148032D01*
X-117323Y147976D01*
X-117494Y147923D01*
X-117514Y147913D01*
X-117535Y147906D01*
X-117691Y147817D01*
X-117848Y147731D01*
X-117865Y147717D01*
X-117885Y147706D01*
X-118020Y147588D01*
X-118157Y147474D01*
X-118172Y147456D01*
X-118188Y147442D01*
X-118297Y147300D01*
X-118410Y147160D01*
X-118420Y147140D01*
X-118434Y147122D01*
X-118585Y146827D01*
X-118601Y146788D01*
X-121388Y144001D01*
X-125029Y142493D01*
X-128971Y142493D01*
X-132612Y144001D01*
X-135399Y146788D01*
X-136907Y150429D01*
X-136907Y154371D01*
X-135399Y158012D01*
X-132612Y160799D01*
X-132573Y160815D01*
X-132553Y160825D01*
X-132532Y160832D01*
X-132376Y160920D01*
X-132218Y161005D01*
X-132201Y161019D01*
X-132181Y161030D01*
X-132046Y161147D01*
X-131907Y161261D01*
X-131893Y161279D01*
X-131876Y161293D01*
X-131767Y161434D01*
X-131654Y161574D01*
X-131643Y161594D01*
X-131630Y161611D01*
X-131550Y161771D01*
X-131467Y161930D01*
X-131460Y161952D01*
X-131450Y161972D01*
X-131404Y162145D01*
X-131354Y162317D01*
X-131352Y162339D01*
X-131346Y162361D01*
X-131319Y162691D01*
X-131319Y167509D01*
X-131321Y167531D01*
X-131319Y167553D01*
X-131341Y167731D01*
X-131359Y167909D01*
X-131365Y167931D01*
X-131368Y167953D01*
X-131424Y168123D01*
X-131477Y168294D01*
X-131487Y168314D01*
X-131494Y168335D01*
X-131583Y168491D01*
X-131669Y168648D01*
X-131683Y168665D01*
X-131694Y168685D01*
X-131812Y168820D01*
X-131926Y168957D01*
X-131944Y168972D01*
X-131958Y168988D01*
X-132100Y169097D01*
X-132240Y169210D01*
X-132260Y169220D01*
X-132278Y169234D01*
X-132573Y169385D01*
X-132612Y169401D01*
X-135399Y172188D01*
X-136907Y175829D01*
X-136907Y179771D01*
X-135399Y183412D01*
X-132612Y186199D01*
X-128971Y187707D01*
X-125029Y187707D01*
X-121388Y186199D01*
X-118601Y183412D01*
X-117093Y179771D01*
X-117093Y175829D01*
X-118601Y172188D01*
X-121388Y169401D01*
X-121427Y169385D01*
X-121447Y169375D01*
X-121468Y169368D01*
X-121624Y169280D01*
X-121782Y169195D01*
X-121799Y169181D01*
X-121819Y169170D01*
X-121954Y169053D01*
X-122093Y168939D01*
X-122107Y168921D01*
X-122124Y168907D01*
X-122233Y168766D01*
X-122346Y168626D01*
X-122357Y168606D01*
X-122370Y168589D01*
X-122450Y168429D01*
X-122533Y168270D01*
X-122540Y168248D01*
X-122550Y168228D01*
X-122596Y168055D01*
X-122646Y167883D01*
X-122648Y167861D01*
X-122654Y167839D01*
X-122681Y167509D01*
X-122681Y162691D01*
X-122679Y162669D01*
X-122681Y162647D01*
X-122659Y162469D01*
X-122641Y162291D01*
X-122635Y162269D01*
X-122632Y162247D01*
X-122576Y162077D01*
X-122523Y161906D01*
X-122513Y161886D01*
X-122506Y161865D01*
X-122417Y161709D01*
X-122331Y161552D01*
X-122317Y161535D01*
X-122306Y161515D01*
X-122188Y161380D01*
X-122074Y161243D01*
X-122056Y161228D01*
X-122042Y161212D01*
X-121900Y161103D01*
X-121760Y160990D01*
X-121740Y160980D01*
X-121722Y160966D01*
X-121427Y160815D01*
X-121388Y160799D01*
X-118601Y158012D01*
X-118585Y157973D01*
X-118575Y157953D01*
X-118568Y157932D01*
X-118480Y157776D01*
X-118395Y157618D01*
X-118381Y157601D01*
X-118370Y157581D01*
X-118253Y157446D01*
X-118139Y157307D01*
X-118121Y157293D01*
X-118107Y157276D01*
X-117966Y157167D01*
X-117826Y157054D01*
X-117806Y157043D01*
X-117789Y157030D01*
X-117629Y156950D01*
X-117470Y156867D01*
X-117448Y156860D01*
X-117428Y156850D01*
X-117255Y156804D01*
X-117083Y156754D01*
X-117061Y156752D01*
X-117039Y156746D01*
X-116709Y156719D01*
X-111294Y156719D01*
X-111267Y156721D01*
X-111241Y156719D01*
X-111067Y156741D01*
X-110893Y156759D01*
X-110868Y156766D01*
X-110841Y156770D01*
X-110675Y156826D01*
X-110509Y156877D01*
X-110485Y156890D01*
X-110460Y156898D01*
X-110308Y156985D01*
X-110154Y157069D01*
X-110134Y157086D01*
X-110111Y157099D01*
X-109858Y157314D01*
X-108047Y159124D01*
X-95153Y159124D01*
X-93813Y157785D01*
X-93813Y145890D01*
X-95153Y144551D01*
X-96517Y144551D01*
X-96526Y144550D01*
X-96535Y144551D01*
X-96728Y144530D01*
X-96918Y144511D01*
X-96926Y144508D01*
X-96935Y144507D01*
X-97119Y144449D01*
X-97302Y144393D01*
X-97310Y144388D01*
X-97319Y144386D01*
X-97487Y144293D01*
X-97656Y144201D01*
X-97663Y144195D01*
X-97671Y144191D01*
X-97818Y144066D01*
X-97966Y143943D01*
X-97971Y143936D01*
X-97978Y143930D01*
X-98098Y143779D01*
X-98218Y143629D01*
X-98222Y143622D01*
X-98228Y143615D01*
X-98316Y143441D01*
X-98404Y143272D01*
X-98406Y143264D01*
X-98410Y143256D01*
X-98462Y143069D01*
X-98515Y142885D01*
X-98516Y142876D01*
X-98518Y142868D01*
X-98532Y142675D01*
X-98548Y142484D01*
X-98547Y142475D01*
X-98547Y142466D01*
X-98523Y142272D01*
X-98501Y142084D01*
X-98498Y142076D01*
X-98497Y142067D01*
X-98436Y141885D01*
X-98376Y141701D01*
X-98372Y141693D01*
X-98369Y141685D01*
X-98273Y141518D01*
X-98178Y141351D01*
X-98172Y141344D01*
X-98168Y141336D01*
X-97953Y141083D01*
X-71079Y114209D01*
X-71058Y114192D01*
X-71040Y114171D01*
X-70903Y114064D01*
X-70767Y113954D01*
X-70744Y113941D01*
X-70722Y113925D01*
X-70565Y113847D01*
X-70411Y113765D01*
X-70386Y113757D01*
X-70362Y113745D01*
X-70192Y113700D01*
X-70026Y113650D01*
X-69999Y113648D01*
X-69973Y113641D01*
X-69642Y113614D01*
X-57681Y113614D01*
X-57673Y113615D01*
X-57664Y113614D01*
X-57472Y113635D01*
X-57281Y113654D01*
X-57272Y113656D01*
X-57263Y113657D01*
X-57081Y113715D01*
X-56896Y113772D01*
X-56888Y113776D01*
X-56880Y113779D01*
X-56711Y113872D01*
X-56542Y113964D01*
X-56535Y113969D01*
X-56527Y113974D01*
X-56379Y114099D01*
X-56233Y114221D01*
X-56227Y114228D01*
X-56220Y114234D01*
X-56100Y114386D01*
X-55980Y114535D01*
X-55976Y114543D01*
X-55971Y114550D01*
X-55883Y114722D01*
X-55795Y114892D01*
X-55792Y114901D01*
X-55788Y114909D01*
X-55737Y115095D01*
X-55683Y115279D01*
X-55683Y115288D01*
X-55680Y115297D01*
X-55666Y115489D01*
X-55651Y115681D01*
X-55652Y115689D01*
X-55651Y115698D01*
X-55675Y115891D01*
X-55697Y116080D01*
X-55700Y116089D01*
X-55701Y116098D01*
X-55763Y116281D01*
X-55822Y116463D01*
X-55827Y116471D01*
X-55830Y116479D01*
X-55925Y116645D01*
X-56020Y116814D01*
X-56026Y116821D01*
X-56031Y116828D01*
X-56245Y117081D01*
X-57884Y118720D01*
X-58808Y120950D01*
X-58808Y123365D01*
X-57884Y125595D01*
X-56177Y127302D01*
X-54495Y127999D01*
X-54483Y128005D01*
X-54470Y128009D01*
X-54306Y128100D01*
X-54140Y128189D01*
X-54129Y128198D01*
X-54118Y128204D01*
X-53975Y128325D01*
X-53829Y128446D01*
X-53821Y128456D01*
X-53811Y128465D01*
X-53694Y128612D01*
X-53576Y128758D01*
X-53569Y128770D01*
X-53561Y128781D01*
X-53475Y128949D01*
X-53389Y129115D01*
X-53385Y129128D01*
X-53379Y129140D01*
X-53328Y129322D01*
X-53275Y129501D01*
X-53274Y129515D01*
X-53271Y129527D01*
X-53257Y129716D01*
X-53241Y129902D01*
X-53242Y129915D01*
X-53241Y129929D01*
X-53265Y130117D01*
X-53286Y130302D01*
X-53290Y130315D01*
X-53292Y130328D01*
X-53352Y130507D01*
X-53409Y130686D01*
X-53416Y130697D01*
X-53420Y130710D01*
X-53514Y130873D01*
X-53605Y131037D01*
X-53614Y131047D01*
X-53621Y131059D01*
X-53836Y131312D01*
X-67575Y145052D01*
X-67596Y145069D01*
X-67613Y145089D01*
X-67751Y145196D01*
X-67887Y145307D01*
X-67910Y145319D01*
X-67931Y145336D01*
X-68088Y145414D01*
X-68242Y145495D01*
X-68268Y145503D01*
X-68292Y145515D01*
X-68461Y145560D01*
X-68628Y145610D01*
X-68655Y145612D01*
X-68681Y145619D01*
X-69011Y145646D01*
X-76705Y145646D01*
X-76731Y145644D01*
X-76758Y145646D01*
X-76932Y145624D01*
X-77105Y145607D01*
X-77131Y145599D01*
X-77157Y145595D01*
X-77323Y145540D01*
X-77490Y145488D01*
X-77514Y145476D01*
X-77539Y145467D01*
X-77691Y145380D01*
X-77844Y145297D01*
X-77865Y145280D01*
X-77888Y145266D01*
X-78141Y145052D01*
X-79134Y144058D01*
X-81365Y143134D01*
X-83779Y143134D01*
X-86009Y144058D01*
X-87717Y145766D01*
X-88641Y147996D01*
X-88641Y150410D01*
X-87717Y152641D01*
X-86009Y154348D01*
X-83937Y155206D01*
X-83925Y155213D01*
X-83913Y155217D01*
X-83748Y155308D01*
X-83582Y155397D01*
X-83572Y155405D01*
X-83560Y155412D01*
X-83417Y155533D01*
X-83272Y155653D01*
X-83263Y155663D01*
X-83253Y155672D01*
X-83137Y155820D01*
X-83018Y155966D01*
X-83012Y155977D01*
X-83004Y155988D01*
X-82918Y156156D01*
X-82831Y156322D01*
X-82827Y156335D01*
X-82821Y156347D01*
X-82771Y156528D01*
X-82718Y156709D01*
X-82717Y156722D01*
X-82713Y156735D01*
X-82700Y156924D01*
X-82683Y157110D01*
X-82685Y157123D01*
X-82684Y157136D01*
X-82708Y157325D01*
X-82729Y157510D01*
X-82733Y157522D01*
X-82734Y157536D01*
X-82794Y157714D01*
X-82852Y157893D01*
X-82858Y157905D01*
X-82863Y157917D01*
X-82956Y158079D01*
X-83048Y158245D01*
X-83057Y158255D01*
X-83064Y158266D01*
X-83278Y158519D01*
X-85701Y160942D01*
X-85701Y168990D01*
X-85704Y169016D01*
X-85702Y169043D01*
X-85724Y169217D01*
X-85741Y169390D01*
X-85749Y169416D01*
X-85752Y169443D01*
X-85808Y169608D01*
X-85859Y169775D01*
X-85872Y169799D01*
X-85881Y169824D01*
X-85968Y169976D01*
X-86051Y170129D01*
X-86068Y170150D01*
X-86081Y170173D01*
X-86296Y170426D01*
X-91921Y176051D01*
X-91921Y179904D01*
X-91923Y179930D01*
X-91921Y179957D01*
X-91943Y180131D01*
X-91961Y180305D01*
X-91968Y180330D01*
X-91972Y180357D01*
X-92027Y180522D01*
X-92079Y180689D01*
X-92092Y180713D01*
X-92100Y180738D01*
X-92187Y180890D01*
X-92271Y181043D01*
X-92288Y181064D01*
X-92301Y181087D01*
X-92516Y181340D01*
X-111277Y200102D01*
X-111339Y200152D01*
X-111394Y200210D01*
X-111494Y200280D01*
X-111589Y200357D01*
X-111659Y200394D01*
X-111724Y200440D01*
X-111837Y200488D01*
X-111944Y200546D01*
X-112021Y200568D01*
X-112094Y200600D01*
X-112213Y200625D01*
X-112330Y200660D01*
X-112410Y200668D01*
X-112488Y200684D01*
X-112609Y200686D01*
X-112731Y200697D01*
X-112811Y200688D01*
X-112890Y200689D01*
X-113010Y200666D01*
X-113132Y200653D01*
X-113208Y200629D01*
X-113286Y200614D01*
X-113432Y200558D01*
X-113515Y200532D01*
X-113549Y200513D01*
X-113595Y200495D01*
X-114950Y199843D01*
X-115008Y199807D01*
X-115213Y199691D01*
X-115946Y199191D01*
X-115998Y199191D01*
X-116121Y199168D01*
X-116246Y199154D01*
X-116318Y199131D01*
X-116394Y199117D01*
X-116546Y199058D01*
X-116629Y199031D01*
X-116660Y199014D01*
X-116703Y198997D01*
X-117484Y198621D01*
X-117549Y198581D01*
X-117619Y198550D01*
X-117721Y198476D01*
X-117828Y198411D01*
X-117884Y198359D01*
X-117946Y198315D01*
X-118031Y198223D01*
X-118113Y198147D01*
X-118955Y197887D01*
X-119017Y197861D01*
X-119238Y197776D01*
X-120037Y197391D01*
X-120088Y197399D01*
X-120214Y197395D01*
X-120339Y197399D01*
X-120414Y197387D01*
X-120491Y197384D01*
X-120650Y197349D01*
X-120736Y197335D01*
X-120770Y197323D01*
X-120815Y197313D01*
X-121643Y197057D01*
X-121714Y197027D01*
X-121787Y197006D01*
X-121899Y196949D01*
X-122014Y196901D01*
X-122077Y196858D01*
X-122146Y196823D01*
X-122243Y196745D01*
X-122336Y196682D01*
X-123207Y196550D01*
X-123272Y196534D01*
X-123503Y196483D01*
X-124351Y196221D01*
X-124400Y196237D01*
X-124525Y196251D01*
X-124648Y196274D01*
X-124725Y196273D01*
X-124801Y196282D01*
X-124963Y196271D01*
X-125051Y196270D01*
X-125086Y196263D01*
X-125132Y196259D01*
X-125989Y196130D01*
X-126063Y196111D01*
X-126139Y196102D01*
X-126257Y196062D01*
X-126379Y196031D01*
X-126448Y195998D01*
X-126520Y195973D01*
X-126629Y195911D01*
X-126729Y195862D01*
X-127611Y195862D01*
X-127677Y195855D01*
X-127913Y195839D01*
X-128791Y195707D01*
X-128838Y195730D01*
X-128958Y195762D01*
X-129077Y195804D01*
X-129152Y195815D01*
X-129226Y195834D01*
X-129389Y195848D01*
X-129475Y195860D01*
X-129511Y195858D01*
X-129557Y195861D01*
X-130424Y195861D01*
X-130500Y195854D01*
X-130576Y195855D01*
X-130700Y195834D01*
X-130825Y195821D01*
X-130898Y195799D01*
X-130973Y195785D01*
X-131089Y195740D01*
X-131196Y195707D01*
X-132068Y195838D01*
X-132135Y195841D01*
X-132370Y195861D01*
X-133258Y195860D01*
X-133300Y195890D01*
X-133415Y195940D01*
X-133526Y195999D01*
X-133599Y196021D01*
X-133669Y196051D01*
X-133828Y196089D01*
X-133912Y196114D01*
X-133948Y196117D01*
X-133992Y196127D01*
X-134850Y196256D01*
X-134926Y196260D01*
X-135001Y196273D01*
X-135127Y196270D01*
X-135252Y196277D01*
X-135327Y196265D01*
X-135404Y196263D01*
X-135526Y196235D01*
X-135636Y196219D01*
X-136478Y196478D01*
X-136544Y196492D01*
X-136774Y196546D01*
X-137652Y196678D01*
X-137690Y196714D01*
X-137796Y196781D01*
X-137896Y196855D01*
X-137966Y196888D01*
X-138031Y196928D01*
X-138182Y196989D01*
X-138261Y197026D01*
X-138296Y197034D01*
X-138339Y197052D01*
X-139167Y197307D01*
X-139242Y197322D01*
X-139314Y197346D01*
X-139439Y197362D01*
X-139562Y197387D01*
X-139638Y197387D01*
X-139714Y197396D01*
X-139839Y197387D01*
X-139964Y197387D01*
X-140039Y197372D01*
X-140115Y197366D01*
X-140274Y197325D01*
X-140359Y197308D01*
X-140392Y197294D01*
X-140436Y197283D01*
X-140520Y197253D01*
X-140658Y197189D01*
X-140799Y197132D01*
X-140840Y197104D01*
X-140885Y197083D01*
X-141007Y196993D01*
X-141134Y196909D01*
X-141169Y196874D01*
X-141209Y196845D01*
X-141311Y196732D01*
X-141419Y196625D01*
X-141451Y196579D01*
X-141480Y196547D01*
X-141524Y196473D01*
X-141608Y196352D01*
X-159882Y164699D01*
X-160931Y165706D01*
X-160959Y165724D01*
X-160993Y165757D01*
X-163516Y167498D01*
X-163543Y167510D01*
X-163565Y167528D01*
X-163634Y167549D01*
X-163699Y167576D01*
X-163728Y167577D01*
X-163756Y167585D01*
X-163827Y167577D01*
X-163898Y167577D01*
X-163925Y167566D01*
X-163954Y167563D01*
X-164016Y167528D01*
X-164081Y167500D01*
X-164102Y167479D01*
X-164127Y167465D01*
X-164190Y167388D01*
X-164220Y167357D01*
X-164224Y167347D01*
X-164233Y167337D01*
X-173733Y150837D01*
X-173757Y150764D01*
X-173788Y150693D01*
X-173788Y150670D01*
X-173796Y150648D01*
X-173790Y150571D01*
X-173791Y150494D01*
X-173781Y150470D01*
X-173780Y150450D01*
X-173759Y150410D01*
X-173740Y150358D01*
X-173739Y150353D01*
X-173737Y150351D01*
X-173733Y150338D01*
X-164233Y133838D01*
X-164214Y133817D01*
X-164201Y133790D01*
X-164148Y133743D01*
X-164101Y133689D01*
X-164075Y133677D01*
X-164054Y133657D01*
X-163986Y133634D01*
X-163922Y133603D01*
X-163893Y133602D01*
X-163866Y133593D01*
X-163794Y133597D01*
X-163723Y133594D01*
X-163696Y133604D01*
X-163667Y133606D01*
X-163577Y133649D01*
X-163537Y133663D01*
X-163529Y133671D01*
X-163516Y133677D01*
X-160993Y135418D01*
X-160969Y135443D01*
X-160931Y135469D01*
X-159882Y136476D01*
X-141608Y104823D01*
X-141519Y104700D01*
X-141437Y104572D01*
X-141402Y104537D01*
X-141373Y104496D01*
X-141262Y104393D01*
X-141156Y104284D01*
X-141115Y104256D01*
X-141078Y104222D01*
X-140949Y104142D01*
X-140824Y104057D01*
X-140772Y104034D01*
X-140735Y104011D01*
X-140654Y103981D01*
X-140521Y103922D01*
X-140437Y103893D01*
X-140366Y103875D01*
X-140357Y103872D01*
X-140356Y103872D01*
X-140291Y103847D01*
X-140167Y103827D01*
X-140046Y103798D01*
X-139969Y103795D01*
X-139893Y103782D01*
X-139768Y103787D01*
X-139644Y103782D01*
X-139568Y103794D01*
X-139491Y103797D01*
X-139332Y103832D01*
X-139246Y103846D01*
X-139212Y103858D01*
X-139167Y103868D01*
X-138339Y104123D01*
X-138268Y104153D01*
X-138194Y104174D01*
X-138083Y104231D01*
X-137968Y104280D01*
X-137904Y104323D01*
X-137836Y104357D01*
X-137738Y104435D01*
X-137646Y104498D01*
X-136774Y104629D01*
X-136710Y104646D01*
X-136478Y104697D01*
X-135630Y104958D01*
X-135581Y104942D01*
X-135456Y104928D01*
X-135333Y104904D01*
X-135257Y104905D01*
X-135181Y104896D01*
X-135018Y104907D01*
X-134931Y104908D01*
X-134896Y104916D01*
X-134850Y104919D01*
X-133992Y105048D01*
X-133918Y105066D01*
X-133842Y105076D01*
X-133724Y105116D01*
X-133602Y105147D01*
X-133533Y105180D01*
X-133461Y105204D01*
X-133352Y105267D01*
X-133252Y105315D01*
X-132370Y105314D01*
X-132303Y105321D01*
X-132068Y105337D01*
X-131190Y105469D01*
X-131143Y105446D01*
X-131023Y105413D01*
X-130904Y105372D01*
X-130828Y105361D01*
X-130755Y105341D01*
X-130592Y105328D01*
X-130506Y105315D01*
X-130470Y105318D01*
X-130424Y105314D01*
X-129557Y105314D01*
X-129481Y105321D01*
X-129404Y105319D01*
X-129281Y105341D01*
X-129156Y105353D01*
X-129083Y105376D01*
X-129008Y105389D01*
X-128891Y105435D01*
X-128785Y105467D01*
X-127913Y105336D01*
X-127846Y105332D01*
X-127611Y105313D01*
X-126723Y105313D01*
X-126680Y105283D01*
X-126566Y105232D01*
X-126455Y105174D01*
X-126382Y105152D01*
X-126312Y105121D01*
X-126153Y105084D01*
X-126069Y105059D01*
X-126034Y105056D01*
X-125989Y105045D01*
X-125132Y104916D01*
X-125055Y104912D01*
X-124980Y104898D01*
X-124854Y104901D01*
X-124729Y104895D01*
X-124654Y104906D01*
X-124577Y104908D01*
X-124455Y104936D01*
X-124345Y104952D01*
X-123503Y104692D01*
X-123437Y104679D01*
X-123207Y104625D01*
X-122330Y104492D01*
X-122292Y104456D01*
X-122186Y104390D01*
X-122085Y104315D01*
X-122016Y104282D01*
X-121951Y104242D01*
X-121800Y104181D01*
X-121721Y104144D01*
X-121686Y104135D01*
X-121643Y104118D01*
X-120815Y103862D01*
X-120740Y103847D01*
X-120667Y103823D01*
X-120543Y103807D01*
X-120420Y103782D01*
X-120344Y103782D01*
X-120268Y103773D01*
X-120143Y103782D01*
X-120031Y103782D01*
X-119238Y103399D01*
X-119174Y103376D01*
X-118955Y103288D01*
X-118107Y103026D01*
X-118075Y102985D01*
X-117980Y102903D01*
X-117892Y102814D01*
X-117828Y102772D01*
X-117770Y102722D01*
X-117630Y102639D01*
X-117557Y102591D01*
X-117524Y102577D01*
X-117484Y102554D01*
X-116703Y102178D01*
X-116632Y102151D01*
X-116563Y102116D01*
X-116443Y102082D01*
X-116325Y102040D01*
X-116249Y102028D01*
X-116176Y102007D01*
X-116051Y101998D01*
X-115941Y101981D01*
X-115213Y101484D01*
X-115153Y101452D01*
X-114950Y101332D01*
X-114151Y100947D01*
X-114125Y100902D01*
X-114043Y100806D01*
X-113969Y100706D01*
X-113913Y100654D01*
X-113863Y100596D01*
X-113736Y100493D01*
X-113671Y100435D01*
X-113641Y100416D01*
X-113605Y100387D01*
X-112889Y99899D01*
X-112821Y99862D01*
X-112759Y99818D01*
X-112646Y99766D01*
X-112535Y99706D01*
X-112462Y99683D01*
X-112393Y99652D01*
X-112270Y99624D01*
X-112164Y99591D01*
X-111712Y99171D01*
X-111568Y99062D01*
X-111425Y98949D01*
X-111407Y98940D01*
X-111391Y98928D01*
X-111228Y98849D01*
X-111066Y98767D01*
X-111047Y98761D01*
X-111029Y98753D01*
X-110853Y98707D01*
X-110678Y98659D01*
X-110658Y98657D01*
X-110639Y98652D01*
X-110458Y98643D01*
X-110277Y98629D01*
X-110257Y98632D01*
G37*
G36*
X139639Y103788D02*
X139639Y103788D01*
X139764Y103788D01*
X139839Y103803D01*
X139915Y103809D01*
X140074Y103850D01*
X140159Y103867D01*
X140192Y103881D01*
X140236Y103892D01*
X140320Y103922D01*
X140458Y103986D01*
X140599Y104043D01*
X140640Y104071D01*
X140685Y104092D01*
X140807Y104182D01*
X140934Y104266D01*
X140969Y104301D01*
X141009Y104330D01*
X141111Y104443D01*
X141219Y104550D01*
X141251Y104596D01*
X141280Y104628D01*
X141324Y104702D01*
X141408Y104823D01*
X159682Y136476D01*
X160731Y135469D01*
X160759Y135451D01*
X160793Y135418D01*
X163316Y133677D01*
X163343Y133665D01*
X163365Y133647D01*
X163434Y133627D01*
X163499Y133599D01*
X163528Y133598D01*
X163556Y133590D01*
X163627Y133598D01*
X163698Y133598D01*
X163725Y133609D01*
X163754Y133612D01*
X163816Y133648D01*
X163881Y133675D01*
X163902Y133696D01*
X163927Y133710D01*
X163990Y133787D01*
X164020Y133818D01*
X164024Y133828D01*
X164033Y133838D01*
X173533Y150338D01*
X173543Y150370D01*
X173552Y150383D01*
X173556Y150408D01*
X173557Y150411D01*
X173588Y150482D01*
X173588Y150505D01*
X173596Y150527D01*
X173590Y150604D01*
X173591Y150681D01*
X173581Y150705D01*
X173580Y150725D01*
X173559Y150765D01*
X173533Y150837D01*
X164033Y167337D01*
X164014Y167358D01*
X164001Y167385D01*
X163948Y167432D01*
X163901Y167486D01*
X163875Y167498D01*
X163854Y167518D01*
X163786Y167541D01*
X163722Y167572D01*
X163693Y167573D01*
X163666Y167582D01*
X163594Y167578D01*
X163523Y167581D01*
X163496Y167571D01*
X163467Y167569D01*
X163377Y167526D01*
X163337Y167512D01*
X163329Y167504D01*
X163316Y167498D01*
X160793Y165757D01*
X160769Y165732D01*
X160731Y165706D01*
X159682Y164699D01*
X141408Y196352D01*
X141319Y196475D01*
X141237Y196603D01*
X141202Y196639D01*
X141173Y196679D01*
X141062Y196783D01*
X140956Y196891D01*
X140915Y196919D01*
X140878Y196953D01*
X140749Y197033D01*
X140623Y197119D01*
X140572Y197141D01*
X140535Y197164D01*
X140455Y197194D01*
X140320Y197253D01*
X140236Y197283D01*
X140165Y197300D01*
X140157Y197303D01*
X140156Y197303D01*
X140091Y197328D01*
X139967Y197348D01*
X139845Y197377D01*
X139769Y197380D01*
X139694Y197393D01*
X139568Y197388D01*
X139443Y197393D01*
X139367Y197381D01*
X139291Y197378D01*
X139132Y197343D01*
X139045Y197329D01*
X139012Y197317D01*
X138967Y197307D01*
X138139Y197052D01*
X138068Y197022D01*
X137994Y197001D01*
X137883Y196944D01*
X137768Y196895D01*
X137704Y196852D01*
X137636Y196818D01*
X137538Y196740D01*
X137446Y196677D01*
X136574Y196546D01*
X136510Y196529D01*
X136278Y196478D01*
X135430Y196217D01*
X135381Y196233D01*
X135256Y196247D01*
X135133Y196271D01*
X135057Y196270D01*
X134981Y196279D01*
X134818Y196268D01*
X134731Y196267D01*
X134696Y196259D01*
X134650Y196256D01*
X133792Y196127D01*
X133718Y196109D01*
X133642Y196099D01*
X133524Y196059D01*
X133402Y196028D01*
X133333Y195995D01*
X133261Y195971D01*
X133152Y195908D01*
X133052Y195860D01*
X132170Y195861D01*
X132103Y195854D01*
X131868Y195838D01*
X130990Y195706D01*
X130943Y195729D01*
X130822Y195762D01*
X130704Y195803D01*
X130628Y195814D01*
X130555Y195834D01*
X130392Y195847D01*
X130306Y195860D01*
X130270Y195857D01*
X130224Y195861D01*
X129389Y195861D01*
X129371Y195860D01*
X129352Y195861D01*
X129170Y195840D01*
X128988Y195822D01*
X128971Y195816D01*
X128953Y195814D01*
X128778Y195757D01*
X128603Y195704D01*
X128587Y195695D01*
X128570Y195689D01*
X128410Y195599D01*
X128249Y195512D01*
X128235Y195500D01*
X128219Y195491D01*
X128081Y195372D01*
X127940Y195254D01*
X127928Y195240D01*
X127914Y195228D01*
X127802Y195084D01*
X127687Y194941D01*
X127679Y194925D01*
X127668Y194910D01*
X127586Y194745D01*
X127502Y194583D01*
X127497Y194566D01*
X127488Y194550D01*
X127441Y194372D01*
X127390Y194197D01*
X127389Y194179D01*
X127384Y194161D01*
X127357Y193830D01*
X127357Y114389D01*
X120996Y108029D01*
X120894Y107904D01*
X120787Y107784D01*
X120767Y107749D01*
X120741Y107717D01*
X120666Y107575D01*
X120585Y107436D01*
X120571Y107397D01*
X120552Y107361D01*
X120507Y107207D01*
X120454Y107055D01*
X120449Y107014D01*
X120438Y106975D01*
X120423Y106815D01*
X120402Y106656D01*
X120405Y106615D01*
X120401Y106575D01*
X120419Y106414D01*
X120430Y106254D01*
X120440Y106215D01*
X120445Y106174D01*
X120493Y106021D01*
X120536Y105866D01*
X120554Y105829D01*
X120566Y105790D01*
X120644Y105649D01*
X120716Y105506D01*
X120741Y105474D01*
X120761Y105438D01*
X120865Y105315D01*
X120964Y105189D01*
X120995Y105162D01*
X121021Y105131D01*
X121148Y105031D01*
X121270Y104927D01*
X121305Y104907D01*
X121337Y104881D01*
X121481Y104809D01*
X121621Y104730D01*
X121660Y104718D01*
X121696Y104699D01*
X121851Y104656D01*
X122005Y104607D01*
X122045Y104602D01*
X122084Y104591D01*
X122245Y104579D01*
X122405Y104561D01*
X122450Y104564D01*
X122486Y104562D01*
X122573Y104573D01*
X122736Y104584D01*
X123007Y104625D01*
X123072Y104641D01*
X123303Y104692D01*
X124151Y104954D01*
X124200Y104938D01*
X124325Y104924D01*
X124448Y104901D01*
X124525Y104902D01*
X124601Y104893D01*
X124763Y104904D01*
X124851Y104905D01*
X124886Y104912D01*
X124932Y104916D01*
X125789Y105045D01*
X125863Y105064D01*
X125939Y105073D01*
X126057Y105113D01*
X126179Y105144D01*
X126248Y105177D01*
X126320Y105202D01*
X126429Y105264D01*
X126529Y105313D01*
X127411Y105313D01*
X127477Y105320D01*
X127713Y105336D01*
X128591Y105468D01*
X128638Y105445D01*
X128758Y105413D01*
X128877Y105371D01*
X128952Y105360D01*
X129026Y105341D01*
X129189Y105327D01*
X129275Y105315D01*
X129311Y105317D01*
X129357Y105314D01*
X130224Y105314D01*
X130300Y105321D01*
X130376Y105320D01*
X130500Y105341D01*
X130625Y105354D01*
X130698Y105376D01*
X130773Y105390D01*
X130889Y105435D01*
X130996Y105468D01*
X131868Y105337D01*
X131935Y105334D01*
X132170Y105314D01*
X133058Y105315D01*
X133100Y105285D01*
X133215Y105235D01*
X133326Y105176D01*
X133399Y105154D01*
X133469Y105124D01*
X133628Y105086D01*
X133712Y105061D01*
X133748Y105058D01*
X133792Y105048D01*
X134650Y104919D01*
X134726Y104915D01*
X134801Y104902D01*
X134927Y104905D01*
X135052Y104898D01*
X135127Y104910D01*
X135204Y104912D01*
X135326Y104940D01*
X135436Y104956D01*
X136278Y104697D01*
X136344Y104683D01*
X136574Y104629D01*
X137452Y104497D01*
X137490Y104461D01*
X137596Y104394D01*
X137696Y104320D01*
X137766Y104287D01*
X137831Y104247D01*
X137982Y104186D01*
X138061Y104149D01*
X138096Y104141D01*
X138139Y104123D01*
X138967Y103868D01*
X139042Y103853D01*
X139114Y103829D01*
X139239Y103813D01*
X139362Y103788D01*
X139438Y103788D01*
X139514Y103779D01*
X139639Y103788D01*
G37*
G36*
X86576Y104D02*
X86576Y104D01*
X86654Y112D01*
X86673Y123D01*
X86695Y128D01*
X86759Y172D01*
X86827Y210D01*
X86843Y229D01*
X86859Y240D01*
X86883Y278D01*
X86933Y338D01*
X96433Y16838D01*
X96442Y16866D01*
X96458Y16889D01*
X96473Y16959D01*
X96496Y17027D01*
X96493Y17056D01*
X96499Y17084D01*
X96486Y17154D01*
X96480Y17225D01*
X96467Y17251D01*
X96461Y17279D01*
X96421Y17338D01*
X96388Y17402D01*
X96366Y17420D01*
X96350Y17444D01*
X96267Y17501D01*
X96235Y17528D01*
X96224Y17531D01*
X96214Y17539D01*
X93448Y18847D01*
X93415Y18855D01*
X93372Y18876D01*
X92014Y19267D01*
X97644Y29020D01*
X97704Y29153D01*
X97772Y29283D01*
X97787Y29336D01*
X97810Y29387D01*
X97843Y29529D01*
X97883Y29670D01*
X97888Y29725D01*
X97900Y29779D01*
X97904Y29925D01*
X97916Y30071D01*
X97909Y30126D01*
X97911Y30182D01*
X97886Y30326D01*
X97869Y30471D01*
X97852Y30524D01*
X97842Y30578D01*
X97790Y30714D01*
X97744Y30854D01*
X97717Y30902D01*
X97697Y30954D01*
X97618Y31077D01*
X97546Y31204D01*
X97510Y31246D01*
X97480Y31293D01*
X97378Y31399D01*
X97283Y31509D01*
X97239Y31543D01*
X97201Y31583D01*
X97080Y31666D01*
X96965Y31756D01*
X96915Y31781D01*
X96870Y31812D01*
X96736Y31870D01*
X96605Y31935D01*
X96551Y31950D01*
X96500Y31971D01*
X96357Y32002D01*
X96216Y32040D01*
X96153Y32045D01*
X96106Y32055D01*
X96022Y32056D01*
X95885Y32067D01*
X26466Y32067D01*
X24642Y33891D01*
X24635Y33896D01*
X24629Y33903D01*
X24480Y34024D01*
X24330Y34146D01*
X24322Y34150D01*
X24316Y34156D01*
X24145Y34244D01*
X23975Y34334D01*
X23966Y34337D01*
X23958Y34341D01*
X23774Y34394D01*
X23589Y34449D01*
X23580Y34450D01*
X23571Y34452D01*
X23380Y34468D01*
X23188Y34486D01*
X23179Y34485D01*
X23170Y34485D01*
X22981Y34463D01*
X22788Y34442D01*
X22779Y34439D01*
X22770Y34438D01*
X22588Y34379D01*
X22404Y34321D01*
X22396Y34316D01*
X22387Y34314D01*
X22219Y34219D01*
X22051Y34126D01*
X22045Y34120D01*
X22037Y34116D01*
X21891Y33990D01*
X21744Y33865D01*
X21739Y33858D01*
X21732Y33853D01*
X21615Y33701D01*
X21495Y33549D01*
X21491Y33541D01*
X21485Y33534D01*
X21400Y33362D01*
X21312Y33191D01*
X21310Y33182D01*
X21306Y33174D01*
X21256Y32988D01*
X21204Y32803D01*
X21204Y32794D01*
X21201Y32785D01*
X21174Y32454D01*
X21174Y30055D01*
X20250Y27824D01*
X18921Y26494D01*
X18917Y26490D01*
X18912Y26486D01*
X18787Y26331D01*
X18666Y26183D01*
X18663Y26178D01*
X18659Y26173D01*
X18568Y25999D01*
X18477Y25827D01*
X18475Y25821D01*
X18472Y25816D01*
X18418Y25631D01*
X18362Y25441D01*
X18362Y25435D01*
X18360Y25429D01*
X18344Y25237D01*
X18326Y25040D01*
X18326Y25034D01*
X18326Y25028D01*
X18348Y24838D01*
X18369Y24640D01*
X18371Y24634D01*
X18372Y24628D01*
X18431Y24446D01*
X18491Y24256D01*
X18494Y24251D01*
X18496Y24245D01*
X18589Y24078D01*
X18686Y23904D01*
X18690Y23899D01*
X18692Y23894D01*
X18817Y23749D01*
X18946Y23597D01*
X18951Y23593D01*
X18955Y23589D01*
X19213Y23380D01*
X19336Y23296D01*
X19354Y23247D01*
X19421Y23141D01*
X19479Y23030D01*
X19527Y22971D01*
X19568Y22906D01*
X19678Y22786D01*
X19733Y22718D01*
X19761Y22695D01*
X19792Y22661D01*
X20426Y22073D01*
X20487Y22027D01*
X20541Y21974D01*
X20647Y21906D01*
X20747Y21830D01*
X20815Y21797D01*
X20880Y21755D01*
X20996Y21709D01*
X21097Y21661D01*
X21646Y20972D01*
X21693Y20924D01*
X21853Y20749D01*
X22503Y20146D01*
X22514Y20095D01*
X22564Y19980D01*
X22605Y19862D01*
X22644Y19796D01*
X22675Y19726D01*
X22765Y19590D01*
X22810Y19515D01*
X22834Y19488D01*
X22860Y19450D01*
X23399Y18774D01*
X23452Y18719D01*
X23498Y18658D01*
X23592Y18575D01*
X23680Y18486D01*
X23743Y18443D01*
X23800Y18392D01*
X23909Y18329D01*
X24001Y18266D01*
X24441Y17503D01*
X24480Y17449D01*
X24612Y17252D01*
X25166Y16559D01*
X25169Y16507D01*
X25201Y16385D01*
X25224Y16262D01*
X25253Y16191D01*
X25273Y16118D01*
X25342Y15970D01*
X25375Y15889D01*
X25395Y15859D01*
X25415Y15818D01*
X25847Y15069D01*
X25891Y15007D01*
X25928Y14939D01*
X26009Y14844D01*
X26082Y14742D01*
X26138Y14690D01*
X26187Y14631D01*
X26285Y14553D01*
X26366Y14477D01*
X26688Y13657D01*
X26719Y13597D01*
X26820Y13383D01*
X27264Y12615D01*
X27259Y12563D01*
X27273Y12438D01*
X27278Y12313D01*
X27295Y12238D01*
X27304Y12162D01*
X27351Y12006D01*
X27371Y11921D01*
X27386Y11889D01*
X27399Y11845D01*
X27715Y11040D01*
X27750Y10972D01*
X27776Y10900D01*
X27842Y10793D01*
X27899Y10681D01*
X27947Y10621D01*
X27986Y10556D01*
X28071Y10465D01*
X28141Y10377D01*
X28337Y9518D01*
X28358Y9454D01*
X28426Y9228D01*
X28751Y8402D01*
X28738Y8351D01*
X28734Y8226D01*
X28719Y8101D01*
X28726Y8025D01*
X28723Y7949D01*
X28746Y7787D01*
X28754Y7700D01*
X28764Y7666D01*
X28770Y7620D01*
X28963Y6777D01*
X28987Y6705D01*
X29002Y6630D01*
X29051Y6514D01*
X29091Y6396D01*
X29129Y6330D01*
X29158Y6259D01*
X29229Y6155D01*
X29291Y6047D01*
X29342Y5989D01*
X29385Y5926D01*
X29499Y5810D01*
X29557Y5744D01*
X29586Y5723D01*
X29618Y5690D01*
X29671Y5644D01*
X29796Y5557D01*
X29916Y5463D01*
X29960Y5441D01*
X30001Y5413D01*
X30140Y5352D01*
X30277Y5284D01*
X30325Y5271D01*
X30370Y5251D01*
X30518Y5219D01*
X30665Y5179D01*
X30721Y5175D01*
X30763Y5166D01*
X30849Y5164D01*
X30996Y5152D01*
X67600Y5152D01*
X67258Y3757D01*
X67256Y3723D01*
X67245Y3677D01*
X67002Y627D01*
X67006Y599D01*
X67001Y571D01*
X67018Y501D01*
X67026Y430D01*
X67041Y405D01*
X67047Y378D01*
X67090Y320D01*
X67126Y257D01*
X67148Y240D01*
X67165Y217D01*
X67227Y181D01*
X67284Y137D01*
X67312Y130D01*
X67336Y116D01*
X67436Y99D01*
X67477Y89D01*
X67487Y90D01*
X67500Y88D01*
X86500Y88D01*
X86576Y104D01*
G37*
%LPC*%
G36*
X-66272Y204376D02*
X-66272Y204376D01*
X-66536Y204640D01*
X-66554Y204654D01*
X-66568Y204671D01*
X-66709Y204781D01*
X-66848Y204895D01*
X-66868Y204906D01*
X-66885Y204919D01*
X-67045Y204999D01*
X-67204Y205084D01*
X-67225Y205090D01*
X-67245Y205100D01*
X-67417Y205147D01*
X-67589Y205198D01*
X-67612Y205200D01*
X-67633Y205206D01*
X-67811Y205219D01*
X-67990Y205235D01*
X-68013Y205232D01*
X-68035Y205234D01*
X-68212Y205211D01*
X-68391Y205191D01*
X-68412Y205185D01*
X-68434Y205182D01*
X-68750Y205080D01*
X-68778Y205069D01*
X-70306Y205069D01*
X-70333Y205066D01*
X-70359Y205068D01*
X-70533Y205046D01*
X-70707Y205029D01*
X-70732Y205021D01*
X-70759Y205018D01*
X-70925Y204962D01*
X-71091Y204911D01*
X-71115Y204898D01*
X-71141Y204889D01*
X-71164Y204876D01*
X-84235Y204876D01*
X-85574Y206215D01*
X-85574Y218110D01*
X-84458Y219226D01*
X-84446Y219240D01*
X-84433Y219252D01*
X-84319Y219396D01*
X-84203Y219538D01*
X-84194Y219553D01*
X-84183Y219567D01*
X-84100Y219732D01*
X-84014Y219893D01*
X-84009Y219910D01*
X-84001Y219926D01*
X-83951Y220104D01*
X-83899Y220279D01*
X-83898Y220297D01*
X-83893Y220314D01*
X-83879Y220497D01*
X-83863Y220680D01*
X-83865Y220698D01*
X-83863Y220716D01*
X-83886Y220898D01*
X-83906Y221081D01*
X-83912Y221098D01*
X-83914Y221115D01*
X-83972Y221288D01*
X-84028Y221464D01*
X-84036Y221480D01*
X-84042Y221497D01*
X-84134Y221656D01*
X-84223Y221817D01*
X-84234Y221830D01*
X-84243Y221846D01*
X-84458Y222099D01*
X-85574Y223215D01*
X-85574Y235110D01*
X-84913Y235771D01*
X-84908Y235778D01*
X-84901Y235783D01*
X-84780Y235933D01*
X-84658Y236082D01*
X-84654Y236090D01*
X-84648Y236097D01*
X-84560Y236267D01*
X-84470Y236438D01*
X-84467Y236447D01*
X-84463Y236454D01*
X-84410Y236639D01*
X-84355Y236824D01*
X-84354Y236833D01*
X-84351Y236841D01*
X-84336Y237032D01*
X-84318Y237225D01*
X-84319Y237234D01*
X-84319Y237243D01*
X-84341Y237432D01*
X-84362Y237625D01*
X-84364Y237634D01*
X-84365Y237642D01*
X-84425Y237824D01*
X-84483Y238009D01*
X-84488Y238017D01*
X-84490Y238025D01*
X-84585Y238192D01*
X-84678Y238361D01*
X-84684Y238368D01*
X-84688Y238376D01*
X-84813Y238521D01*
X-84939Y238668D01*
X-84946Y238674D01*
X-84951Y238681D01*
X-85102Y238797D01*
X-85254Y238918D01*
X-85263Y238922D01*
X-85269Y238927D01*
X-85440Y239012D01*
X-85613Y239100D01*
X-85622Y239103D01*
X-85630Y239107D01*
X-85816Y239156D01*
X-86001Y239208D01*
X-86010Y239209D01*
X-86019Y239211D01*
X-86350Y239238D01*
X-90647Y239238D01*
X-91987Y240578D01*
X-91987Y258472D01*
X-90647Y259812D01*
X-79536Y259812D01*
X-79516Y259814D01*
X-79496Y259812D01*
X-79316Y259834D01*
X-79136Y259852D01*
X-79116Y259858D01*
X-79096Y259860D01*
X-78924Y259917D01*
X-78751Y259970D01*
X-78733Y259979D01*
X-78714Y259986D01*
X-78556Y260075D01*
X-78397Y260162D01*
X-78381Y260174D01*
X-78363Y260185D01*
X-78226Y260304D01*
X-78087Y260419D01*
X-78075Y260435D01*
X-78059Y260448D01*
X-77948Y260592D01*
X-77835Y260733D01*
X-77826Y260751D01*
X-77813Y260767D01*
X-77733Y260930D01*
X-77650Y261090D01*
X-77644Y261110D01*
X-77635Y261128D01*
X-77588Y261303D01*
X-77538Y261477D01*
X-77537Y261498D01*
X-77531Y261517D01*
X-77526Y261607D01*
X-77506Y261846D01*
X-77506Y261868D01*
X-77505Y261879D01*
X-77506Y261886D01*
X-77506Y264664D01*
X-76582Y266895D01*
X-74875Y268602D01*
X-72645Y269526D01*
X-70230Y269526D01*
X-68000Y268602D01*
X-66293Y266895D01*
X-65369Y264664D01*
X-65369Y263857D01*
X-65368Y263848D01*
X-65369Y263839D01*
X-65348Y263647D01*
X-65329Y263456D01*
X-65326Y263447D01*
X-65325Y263438D01*
X-65268Y263256D01*
X-65211Y263071D01*
X-65206Y263063D01*
X-65204Y263055D01*
X-65111Y262886D01*
X-65019Y262717D01*
X-65013Y262710D01*
X-65009Y262702D01*
X-64884Y262554D01*
X-64761Y262408D01*
X-64754Y262402D01*
X-64748Y262395D01*
X-64596Y262275D01*
X-64447Y262155D01*
X-64440Y262151D01*
X-64433Y262146D01*
X-64260Y262058D01*
X-64090Y261970D01*
X-64082Y261967D01*
X-64074Y261963D01*
X-63888Y261912D01*
X-63703Y261858D01*
X-63694Y261858D01*
X-63686Y261855D01*
X-63493Y261841D01*
X-63302Y261826D01*
X-63293Y261827D01*
X-63284Y261826D01*
X-63093Y261850D01*
X-62902Y261872D01*
X-62894Y261875D01*
X-62885Y261876D01*
X-62703Y261937D01*
X-62519Y261997D01*
X-62512Y262002D01*
X-62503Y262005D01*
X-62336Y262101D01*
X-62169Y262195D01*
X-62162Y262201D01*
X-62154Y262206D01*
X-61901Y262420D01*
X-61510Y262812D01*
X-59737Y262812D01*
X-59706Y262815D01*
X-59674Y262813D01*
X-59505Y262835D01*
X-59336Y262852D01*
X-59306Y262861D01*
X-59275Y262865D01*
X-58959Y262966D01*
X-58205Y263279D01*
X-58204Y263279D01*
X-57281Y263662D01*
X-53844Y263662D01*
X-52166Y262966D01*
X-52136Y262957D01*
X-52108Y262943D01*
X-51943Y262899D01*
X-51780Y262850D01*
X-51749Y262847D01*
X-51719Y262839D01*
X-51388Y262812D01*
X-49615Y262812D01*
X-48276Y261472D01*
X-48276Y260406D01*
X-48273Y260375D01*
X-48275Y260344D01*
X-48253Y260175D01*
X-48236Y260006D01*
X-48227Y259976D01*
X-48223Y259945D01*
X-48121Y259629D01*
X-46926Y256743D01*
X-46926Y253307D01*
X-48121Y250421D01*
X-48130Y250391D01*
X-48144Y250363D01*
X-48188Y250198D01*
X-48238Y250036D01*
X-48241Y250005D01*
X-48249Y249975D01*
X-48276Y249644D01*
X-48276Y248578D01*
X-49615Y247238D01*
X-50294Y247238D01*
X-50320Y247236D01*
X-50347Y247238D01*
X-50521Y247216D01*
X-50694Y247198D01*
X-50720Y247191D01*
X-50746Y247187D01*
X-50912Y247132D01*
X-51079Y247080D01*
X-51103Y247067D01*
X-51128Y247059D01*
X-51280Y246972D01*
X-51433Y246888D01*
X-51454Y246871D01*
X-51477Y246858D01*
X-51730Y246643D01*
X-56170Y242203D01*
X-59360Y240882D01*
X-59489Y240866D01*
X-59662Y240848D01*
X-59688Y240841D01*
X-59714Y240837D01*
X-59880Y240781D01*
X-60047Y240730D01*
X-60071Y240717D01*
X-60096Y240709D01*
X-60247Y240622D01*
X-60401Y240538D01*
X-60422Y240521D01*
X-60445Y240508D01*
X-60698Y240293D01*
X-61753Y239238D01*
X-69225Y239238D01*
X-69234Y239237D01*
X-69243Y239238D01*
X-69435Y239217D01*
X-69626Y239198D01*
X-69635Y239196D01*
X-69644Y239195D01*
X-69826Y239137D01*
X-70011Y239080D01*
X-70019Y239076D01*
X-70027Y239073D01*
X-70196Y238980D01*
X-70365Y238888D01*
X-70372Y238883D01*
X-70380Y238878D01*
X-70528Y238753D01*
X-70674Y238631D01*
X-70680Y238624D01*
X-70687Y238618D01*
X-70806Y238467D01*
X-70927Y238317D01*
X-70931Y238309D01*
X-70936Y238302D01*
X-71023Y238131D01*
X-71112Y237960D01*
X-71115Y237951D01*
X-71119Y237943D01*
X-71170Y237757D01*
X-71224Y237573D01*
X-71224Y237564D01*
X-71227Y237555D01*
X-71241Y237363D01*
X-71256Y237171D01*
X-71255Y237163D01*
X-71256Y237154D01*
X-71231Y236958D01*
X-71210Y236772D01*
X-71207Y236763D01*
X-71206Y236754D01*
X-71144Y236571D01*
X-71085Y236389D01*
X-71080Y236381D01*
X-71077Y236373D01*
X-70982Y236207D01*
X-70887Y236038D01*
X-70881Y236031D01*
X-70876Y236024D01*
X-70662Y235771D01*
X-70001Y235110D01*
X-70001Y223215D01*
X-71117Y222099D01*
X-71129Y222085D01*
X-71142Y222074D01*
X-71256Y221930D01*
X-71372Y221787D01*
X-71381Y221772D01*
X-71392Y221758D01*
X-71475Y221594D01*
X-71561Y221432D01*
X-71566Y221414D01*
X-71574Y221399D01*
X-71624Y221221D01*
X-71676Y221046D01*
X-71677Y221028D01*
X-71682Y221011D01*
X-71695Y220828D01*
X-71712Y220645D01*
X-71710Y220627D01*
X-71712Y220609D01*
X-71689Y220428D01*
X-71669Y220244D01*
X-71663Y220227D01*
X-71661Y220210D01*
X-71603Y220036D01*
X-71547Y219861D01*
X-71539Y219845D01*
X-71533Y219828D01*
X-71442Y219670D01*
X-71352Y219508D01*
X-71341Y219495D01*
X-71332Y219479D01*
X-71117Y219226D01*
X-70493Y218602D01*
X-70479Y218590D01*
X-70467Y218577D01*
X-70323Y218463D01*
X-70181Y218346D01*
X-70165Y218338D01*
X-70151Y218327D01*
X-69987Y218244D01*
X-69825Y218158D01*
X-69808Y218153D01*
X-69792Y218145D01*
X-69616Y218095D01*
X-69440Y218043D01*
X-69422Y218041D01*
X-69404Y218037D01*
X-69222Y218023D01*
X-69039Y218007D01*
X-69021Y218009D01*
X-69003Y218007D01*
X-68821Y218030D01*
X-68638Y218050D01*
X-68621Y218055D01*
X-68604Y218058D01*
X-68429Y218116D01*
X-68254Y218172D01*
X-68239Y218180D01*
X-68222Y218186D01*
X-68062Y218278D01*
X-67902Y218366D01*
X-67889Y218378D01*
X-67873Y218387D01*
X-67620Y218601D01*
X-66272Y219949D01*
X-54378Y219949D01*
X-53038Y218610D01*
X-53038Y205715D01*
X-54378Y204376D01*
X-66272Y204376D01*
G37*
%LPD*%
G36*
X131841Y198155D02*
X131841Y198155D01*
X131884Y198154D01*
X135877Y198754D01*
X135907Y198765D01*
X135950Y198771D01*
X139809Y199960D01*
X139837Y199975D01*
X139878Y199987D01*
X143516Y201738D01*
X143538Y201754D01*
X143564Y201764D01*
X143617Y201814D01*
X143675Y201858D01*
X143688Y201881D01*
X143708Y201900D01*
X143738Y201967D01*
X143774Y202030D01*
X143777Y202057D01*
X143788Y202082D01*
X143789Y202155D01*
X143798Y202228D01*
X143790Y202254D01*
X143790Y202281D01*
X143754Y202380D01*
X143742Y202419D01*
X143736Y202426D01*
X143732Y202437D01*
X116732Y249237D01*
X116714Y249257D01*
X116703Y249282D01*
X116649Y249331D01*
X116601Y249386D01*
X116576Y249398D01*
X116556Y249416D01*
X116487Y249440D01*
X116421Y249472D01*
X116394Y249473D01*
X116369Y249482D01*
X116296Y249477D01*
X116223Y249481D01*
X116197Y249471D01*
X116170Y249470D01*
X116074Y249426D01*
X116036Y249411D01*
X116029Y249405D01*
X116019Y249400D01*
X112682Y247127D01*
X112660Y247104D01*
X112624Y247080D01*
X109663Y244335D01*
X109644Y244309D01*
X109612Y244280D01*
X107094Y241124D01*
X107079Y241096D01*
X107052Y241063D01*
X105032Y237566D01*
X105022Y237536D01*
X104999Y237499D01*
X103523Y233741D01*
X103518Y233710D01*
X103501Y233670D01*
X102601Y229734D01*
X102601Y229702D01*
X102590Y229660D01*
X102287Y225634D01*
X102290Y225610D01*
X102287Y225590D01*
X102289Y225581D01*
X102287Y225559D01*
X102588Y221533D01*
X102596Y221502D01*
X102599Y221459D01*
X103496Y217522D01*
X103509Y217493D01*
X103518Y217451D01*
X104992Y213692D01*
X105009Y213665D01*
X105024Y213624D01*
X107042Y210127D01*
X107063Y210103D01*
X107084Y210065D01*
X109600Y206908D01*
X109625Y206887D01*
X109651Y206853D01*
X112610Y204106D01*
X112637Y204089D01*
X112668Y204059D01*
X116004Y201784D01*
X116033Y201771D01*
X116068Y201746D01*
X119706Y199993D01*
X119736Y199986D01*
X119775Y199966D01*
X123633Y198775D01*
X123665Y198772D01*
X123706Y198758D01*
X127698Y198155D01*
X127730Y198157D01*
X127772Y198149D01*
X131810Y198148D01*
X131841Y198155D01*
G37*
G36*
X-127972Y198149D02*
X-127972Y198149D01*
X-127941Y198156D01*
X-127898Y198155D01*
X-123906Y198758D01*
X-123876Y198769D01*
X-123833Y198775D01*
X-119975Y199966D01*
X-119947Y199981D01*
X-119906Y199993D01*
X-116268Y201746D01*
X-116243Y201766D01*
X-116204Y201784D01*
X-112868Y204059D01*
X-112846Y204082D01*
X-112810Y204106D01*
X-109851Y206853D01*
X-109832Y206879D01*
X-109800Y206908D01*
X-107284Y210065D01*
X-107269Y210094D01*
X-107242Y210127D01*
X-105224Y213624D01*
X-105214Y213655D01*
X-105192Y213692D01*
X-103718Y217451D01*
X-103712Y217482D01*
X-103696Y217522D01*
X-102799Y221459D01*
X-102798Y221491D01*
X-102788Y221533D01*
X-102487Y225559D01*
X-102491Y225591D01*
X-102490Y225607D01*
X-102487Y225623D01*
X-102488Y225627D01*
X-102487Y225634D01*
X-102790Y229660D01*
X-102799Y229691D01*
X-102801Y229734D01*
X-103701Y233670D01*
X-103714Y233699D01*
X-103723Y233741D01*
X-105199Y237499D01*
X-105217Y237526D01*
X-105232Y237566D01*
X-107252Y241063D01*
X-107273Y241086D01*
X-107294Y241124D01*
X-109812Y244280D01*
X-109837Y244301D01*
X-109863Y244335D01*
X-112824Y247080D01*
X-112851Y247097D01*
X-112882Y247127D01*
X-116219Y249400D01*
X-116244Y249411D01*
X-116265Y249428D01*
X-116335Y249449D01*
X-116402Y249477D01*
X-116430Y249477D01*
X-116456Y249485D01*
X-116528Y249477D01*
X-116601Y249476D01*
X-116626Y249466D01*
X-116653Y249463D01*
X-116717Y249427D01*
X-116784Y249398D01*
X-116803Y249379D01*
X-116826Y249365D01*
X-116894Y249284D01*
X-116922Y249255D01*
X-116925Y249246D01*
X-116932Y249237D01*
X-143932Y202437D01*
X-143941Y202411D01*
X-143957Y202389D01*
X-143972Y202318D01*
X-143996Y202248D01*
X-143993Y202221D01*
X-143999Y202195D01*
X-143986Y202123D01*
X-143980Y202050D01*
X-143967Y202026D01*
X-143962Y201999D01*
X-143922Y201939D01*
X-143888Y201874D01*
X-143867Y201856D01*
X-143852Y201834D01*
X-143766Y201773D01*
X-143735Y201747D01*
X-143726Y201744D01*
X-143716Y201738D01*
X-140078Y199987D01*
X-140047Y199979D01*
X-140009Y199960D01*
X-136150Y198771D01*
X-136118Y198768D01*
X-136077Y198754D01*
X-132084Y198154D01*
X-132053Y198155D01*
X-132010Y198148D01*
X-127972Y198149D01*
G37*
G36*
X116328Y51698D02*
X116328Y51698D01*
X116401Y51699D01*
X116426Y51709D01*
X116453Y51712D01*
X116517Y51748D01*
X116584Y51777D01*
X116603Y51796D01*
X116626Y51810D01*
X116694Y51891D01*
X116722Y51920D01*
X116725Y51929D01*
X116732Y51938D01*
X143732Y98738D01*
X143741Y98764D01*
X143757Y98786D01*
X143772Y98857D01*
X143796Y98927D01*
X143793Y98954D01*
X143799Y98980D01*
X143786Y99052D01*
X143780Y99125D01*
X143767Y99149D01*
X143762Y99176D01*
X143722Y99237D01*
X143688Y99301D01*
X143667Y99319D01*
X143652Y99341D01*
X143566Y99402D01*
X143535Y99428D01*
X143526Y99431D01*
X143516Y99437D01*
X139878Y101188D01*
X139847Y101196D01*
X139809Y101215D01*
X135950Y102404D01*
X135918Y102407D01*
X135877Y102421D01*
X131884Y103021D01*
X131853Y103020D01*
X131810Y103027D01*
X127772Y103026D01*
X127741Y103019D01*
X127698Y103020D01*
X123706Y102417D01*
X123676Y102406D01*
X123633Y102400D01*
X119775Y101209D01*
X119747Y101194D01*
X119706Y101182D01*
X116068Y99429D01*
X116043Y99409D01*
X116004Y99391D01*
X112668Y97116D01*
X112646Y97093D01*
X112610Y97069D01*
X109651Y94322D01*
X109632Y94296D01*
X109600Y94267D01*
X107084Y91110D01*
X107069Y91081D01*
X107042Y91048D01*
X105024Y87551D01*
X105014Y87520D01*
X104992Y87483D01*
X103518Y83724D01*
X103512Y83693D01*
X103496Y83653D01*
X102599Y79716D01*
X102598Y79684D01*
X102588Y79642D01*
X102287Y75616D01*
X102291Y75584D01*
X102287Y75541D01*
X102590Y71515D01*
X102599Y71484D01*
X102601Y71441D01*
X103501Y67505D01*
X103514Y67476D01*
X103523Y67434D01*
X104999Y63676D01*
X105017Y63649D01*
X105032Y63609D01*
X107052Y60113D01*
X107073Y60089D01*
X107094Y60051D01*
X109612Y56895D01*
X109637Y56875D01*
X109663Y56840D01*
X112624Y54095D01*
X112651Y54078D01*
X112682Y54048D01*
X116019Y51775D01*
X116044Y51764D01*
X116065Y51747D01*
X116135Y51726D01*
X116202Y51698D01*
X116230Y51698D01*
X116256Y51690D01*
X116328Y51698D01*
G37*
G36*
X-116496Y51698D02*
X-116496Y51698D01*
X-116423Y51694D01*
X-116397Y51704D01*
X-116370Y51705D01*
X-116274Y51749D01*
X-116236Y51764D01*
X-116229Y51770D01*
X-116219Y51775D01*
X-112882Y54048D01*
X-112860Y54071D01*
X-112824Y54095D01*
X-109863Y56840D01*
X-109844Y56866D01*
X-109812Y56895D01*
X-107294Y60051D01*
X-107279Y60079D01*
X-107252Y60113D01*
X-105232Y63609D01*
X-105222Y63639D01*
X-105199Y63676D01*
X-103723Y67434D01*
X-103718Y67465D01*
X-103701Y67505D01*
X-102801Y71441D01*
X-102801Y71473D01*
X-102790Y71515D01*
X-102487Y75541D01*
X-102491Y75573D01*
X-102487Y75616D01*
X-102788Y79642D01*
X-102796Y79673D01*
X-102799Y79716D01*
X-103696Y83653D01*
X-103709Y83682D01*
X-103718Y83724D01*
X-105192Y87483D01*
X-105209Y87510D01*
X-105224Y87551D01*
X-107242Y91048D01*
X-107263Y91072D01*
X-107284Y91110D01*
X-109800Y94267D01*
X-109825Y94288D01*
X-109851Y94322D01*
X-112810Y97069D01*
X-112837Y97086D01*
X-112868Y97116D01*
X-116204Y99391D01*
X-116233Y99404D01*
X-116268Y99429D01*
X-119906Y101182D01*
X-119936Y101189D01*
X-119975Y101209D01*
X-123833Y102400D01*
X-123865Y102403D01*
X-123906Y102417D01*
X-127898Y103020D01*
X-127930Y103018D01*
X-127972Y103026D01*
X-132010Y103027D01*
X-132041Y103021D01*
X-132084Y103021D01*
X-136077Y102421D01*
X-136107Y102410D01*
X-136150Y102404D01*
X-140009Y101215D01*
X-140037Y101200D01*
X-140078Y101188D01*
X-143716Y99437D01*
X-143738Y99421D01*
X-143764Y99411D01*
X-143817Y99361D01*
X-143875Y99317D01*
X-143888Y99294D01*
X-143908Y99275D01*
X-143938Y99208D01*
X-143974Y99145D01*
X-143977Y99118D01*
X-143988Y99093D01*
X-143989Y99020D01*
X-143998Y98947D01*
X-143990Y98921D01*
X-143990Y98894D01*
X-143954Y98795D01*
X-143942Y98756D01*
X-143936Y98749D01*
X-143932Y98738D01*
X-116932Y51938D01*
X-116914Y51918D01*
X-116903Y51893D01*
X-116849Y51844D01*
X-116801Y51789D01*
X-116776Y51777D01*
X-116756Y51759D01*
X-116687Y51735D01*
X-116621Y51703D01*
X-116594Y51702D01*
X-116569Y51693D01*
X-116496Y51698D01*
G37*
G36*
X26927Y94D02*
X26927Y94D01*
X26954Y91D01*
X27023Y113D01*
X27095Y128D01*
X27117Y143D01*
X27143Y152D01*
X27199Y199D01*
X27259Y240D01*
X27273Y263D01*
X27294Y281D01*
X27327Y346D01*
X27366Y408D01*
X27370Y435D01*
X27382Y459D01*
X27392Y564D01*
X27399Y604D01*
X27397Y613D01*
X27398Y625D01*
X27096Y4649D01*
X27088Y4680D01*
X27085Y4723D01*
X26187Y8657D01*
X26174Y8686D01*
X26165Y8728D01*
X24691Y12485D01*
X24674Y12512D01*
X24659Y12552D01*
X22641Y16047D01*
X22620Y16071D01*
X22599Y16108D01*
X20083Y19263D01*
X20058Y19284D01*
X20032Y19318D01*
X17074Y22063D01*
X17047Y22079D01*
X17015Y22109D01*
X13681Y24383D01*
X13652Y24395D01*
X13617Y24420D01*
X9981Y26171D01*
X9950Y26179D01*
X9911Y26198D01*
X6055Y27388D01*
X6024Y27391D01*
X5982Y27404D01*
X1992Y28006D01*
X1960Y28004D01*
X1918Y28011D01*
X-2118Y28011D01*
X-2149Y28005D01*
X-2192Y28006D01*
X-6182Y27404D01*
X-6212Y27393D01*
X-6255Y27388D01*
X-10111Y26198D01*
X-10139Y26183D01*
X-10181Y26171D01*
X-13817Y24420D01*
X-13842Y24401D01*
X-13881Y24383D01*
X-17215Y22109D01*
X-17238Y22087D01*
X-17274Y22063D01*
X-20232Y19318D01*
X-20251Y19292D01*
X-20283Y19263D01*
X-22799Y16108D01*
X-22813Y16080D01*
X-22841Y16047D01*
X-24859Y12552D01*
X-24869Y12522D01*
X-24891Y12485D01*
X-26365Y8728D01*
X-26371Y8697D01*
X-26387Y8657D01*
X-27285Y4723D01*
X-27286Y4691D01*
X-27296Y4649D01*
X-27598Y625D01*
X-27594Y598D01*
X-27599Y571D01*
X-27582Y500D01*
X-27573Y428D01*
X-27559Y404D01*
X-27553Y378D01*
X-27510Y319D01*
X-27473Y256D01*
X-27451Y239D01*
X-27435Y217D01*
X-27372Y180D01*
X-27314Y136D01*
X-27287Y130D01*
X-27264Y116D01*
X-27160Y98D01*
X-27121Y89D01*
X-27111Y90D01*
X-27100Y88D01*
X26900Y88D01*
X26927Y94D01*
G37*
G36*
X-55530Y60983D02*
X-55530Y60983D01*
X-55503Y60981D01*
X-55329Y61003D01*
X-55156Y61020D01*
X-55130Y61028D01*
X-55104Y61031D01*
X-54938Y61087D01*
X-54771Y61138D01*
X-54747Y61151D01*
X-54722Y61160D01*
X-54570Y61247D01*
X-54417Y61330D01*
X-54396Y61347D01*
X-54373Y61360D01*
X-54120Y61575D01*
X-51396Y64299D01*
X-51379Y64320D01*
X-51358Y64338D01*
X-51251Y64476D01*
X-51141Y64611D01*
X-51128Y64635D01*
X-51112Y64656D01*
X-51034Y64813D01*
X-50952Y64967D01*
X-50944Y64992D01*
X-50932Y65016D01*
X-50887Y65186D01*
X-50837Y65353D01*
X-50835Y65379D01*
X-50828Y65405D01*
X-50801Y65736D01*
X-50801Y70771D01*
X-45645Y75926D01*
X-43545Y78027D01*
X-43539Y78034D01*
X-43532Y78039D01*
X-43412Y78189D01*
X-43290Y78338D01*
X-43285Y78346D01*
X-43280Y78353D01*
X-43191Y78523D01*
X-43101Y78694D01*
X-43098Y78703D01*
X-43094Y78710D01*
X-43042Y78892D01*
X-42986Y79080D01*
X-42985Y79089D01*
X-42983Y79097D01*
X-42967Y79288D01*
X-42950Y79481D01*
X-42951Y79490D01*
X-42950Y79499D01*
X-42972Y79688D01*
X-42993Y79881D01*
X-42996Y79890D01*
X-42997Y79898D01*
X-43056Y80080D01*
X-43115Y80265D01*
X-43119Y80273D01*
X-43122Y80281D01*
X-43216Y80448D01*
X-43310Y80617D01*
X-43315Y80624D01*
X-43320Y80632D01*
X-43445Y80777D01*
X-43570Y80924D01*
X-43577Y80930D01*
X-43583Y80937D01*
X-43732Y81052D01*
X-43886Y81174D01*
X-43894Y81178D01*
X-43901Y81183D01*
X-44072Y81269D01*
X-44245Y81356D01*
X-44253Y81359D01*
X-44262Y81363D01*
X-44447Y81413D01*
X-44633Y81464D01*
X-44642Y81465D01*
X-44650Y81467D01*
X-44981Y81494D01*
X-47832Y81494D01*
X-47850Y81492D01*
X-47868Y81494D01*
X-48050Y81473D01*
X-48233Y81454D01*
X-48250Y81449D01*
X-48267Y81447D01*
X-48442Y81390D01*
X-48618Y81336D01*
X-48633Y81328D01*
X-48650Y81322D01*
X-48810Y81232D01*
X-48972Y81144D01*
X-48985Y81133D01*
X-49001Y81124D01*
X-49140Y81004D01*
X-49281Y80887D01*
X-49292Y80873D01*
X-49306Y80861D01*
X-49418Y80716D01*
X-49533Y80573D01*
X-49541Y80557D01*
X-49552Y80543D01*
X-49634Y80378D01*
X-49719Y80216D01*
X-49724Y80199D01*
X-49732Y80183D01*
X-49779Y80004D01*
X-49812Y79892D01*
X-51203Y78501D01*
X-52976Y78501D01*
X-53007Y78498D01*
X-53038Y78500D01*
X-53208Y78478D01*
X-53377Y78461D01*
X-53406Y78452D01*
X-53437Y78448D01*
X-53753Y78346D01*
X-55432Y77651D01*
X-58868Y77651D01*
X-60547Y78346D01*
X-60577Y78355D01*
X-60605Y78369D01*
X-60769Y78413D01*
X-60932Y78463D01*
X-60963Y78466D01*
X-60993Y78474D01*
X-61324Y78501D01*
X-63097Y78501D01*
X-64090Y79493D01*
X-64110Y79510D01*
X-64128Y79531D01*
X-64266Y79638D01*
X-64401Y79748D01*
X-64425Y79761D01*
X-64446Y79777D01*
X-64603Y79855D01*
X-64757Y79937D01*
X-64782Y79945D01*
X-64807Y79957D01*
X-64976Y80002D01*
X-65143Y80052D01*
X-65169Y80054D01*
X-65195Y80061D01*
X-65526Y80088D01*
X-79885Y80088D01*
X-81483Y81687D01*
X-81497Y81698D01*
X-81509Y81712D01*
X-81652Y81825D01*
X-81795Y81942D01*
X-81811Y81950D01*
X-81824Y81961D01*
X-81988Y82044D01*
X-82150Y82130D01*
X-82168Y82136D01*
X-82183Y82144D01*
X-82360Y82193D01*
X-82536Y82245D01*
X-82554Y82247D01*
X-82571Y82252D01*
X-82754Y82265D01*
X-82937Y82282D01*
X-82955Y82280D01*
X-82973Y82281D01*
X-83155Y82258D01*
X-83338Y82238D01*
X-83355Y82233D01*
X-83372Y82231D01*
X-83546Y82172D01*
X-83721Y82117D01*
X-83737Y82108D01*
X-83754Y82102D01*
X-83913Y82011D01*
X-84074Y81922D01*
X-84087Y81910D01*
X-84103Y81901D01*
X-84356Y81687D01*
X-85462Y80580D01*
X-87693Y79656D01*
X-90107Y79656D01*
X-92338Y80580D01*
X-94045Y82287D01*
X-94969Y84518D01*
X-94969Y86932D01*
X-94045Y89163D01*
X-92338Y90870D01*
X-89841Y91904D01*
X-89837Y91906D01*
X-89833Y91907D01*
X-89658Y92002D01*
X-89486Y92094D01*
X-89483Y92097D01*
X-89479Y92099D01*
X-89328Y92225D01*
X-89176Y92351D01*
X-89173Y92354D01*
X-89170Y92357D01*
X-89047Y92509D01*
X-88922Y92663D01*
X-88920Y92667D01*
X-88917Y92671D01*
X-88828Y92843D01*
X-88735Y93020D01*
X-88734Y93024D01*
X-88732Y93028D01*
X-88678Y93214D01*
X-88622Y93406D01*
X-88622Y93410D01*
X-88620Y93415D01*
X-88604Y93613D01*
X-88587Y93807D01*
X-88588Y93812D01*
X-88588Y93816D01*
X-88611Y94014D01*
X-88633Y94207D01*
X-88634Y94211D01*
X-88634Y94216D01*
X-88696Y94404D01*
X-88756Y94591D01*
X-88758Y94594D01*
X-88759Y94599D01*
X-88857Y94771D01*
X-88952Y94942D01*
X-88955Y94945D01*
X-88957Y94949D01*
X-89086Y95098D01*
X-89214Y95248D01*
X-89217Y95251D01*
X-89220Y95254D01*
X-89375Y95374D01*
X-89531Y95496D01*
X-89535Y95498D01*
X-89538Y95501D01*
X-89715Y95589D01*
X-89891Y95677D01*
X-89895Y95678D01*
X-89899Y95680D01*
X-90092Y95732D01*
X-90279Y95783D01*
X-90283Y95784D01*
X-90288Y95785D01*
X-90619Y95812D01*
X-101404Y95812D01*
X-101431Y95809D01*
X-101458Y95811D01*
X-101632Y95789D01*
X-101805Y95772D01*
X-101830Y95764D01*
X-101857Y95761D01*
X-102023Y95705D01*
X-102190Y95654D01*
X-102213Y95641D01*
X-102239Y95632D01*
X-102390Y95545D01*
X-102544Y95462D01*
X-102564Y95445D01*
X-102588Y95432D01*
X-102841Y95217D01*
X-104224Y93834D01*
X-104291Y93752D01*
X-104365Y93677D01*
X-104418Y93597D01*
X-104479Y93522D01*
X-104528Y93429D01*
X-104586Y93341D01*
X-104622Y93251D01*
X-104668Y93166D01*
X-104698Y93066D01*
X-104737Y92968D01*
X-104755Y92873D01*
X-104782Y92780D01*
X-104792Y92676D01*
X-104811Y92572D01*
X-104810Y92476D01*
X-104819Y92379D01*
X-104807Y92275D01*
X-104806Y92170D01*
X-104786Y92075D01*
X-104775Y91979D01*
X-104744Y91879D01*
X-104734Y91834D01*
X-104731Y91784D01*
X-104732Y91658D01*
X-104718Y91583D01*
X-104714Y91507D01*
X-104681Y91386D01*
X-104658Y91263D01*
X-104630Y91192D01*
X-104610Y91118D01*
X-104540Y90970D01*
X-104508Y90889D01*
X-104488Y90859D01*
X-104468Y90818D01*
X-104035Y90067D01*
X-103990Y90005D01*
X-103954Y89938D01*
X-103873Y89841D01*
X-103800Y89740D01*
X-103744Y89688D01*
X-103695Y89629D01*
X-103597Y89551D01*
X-103516Y89475D01*
X-103194Y88654D01*
X-103163Y88595D01*
X-103062Y88381D01*
X-102619Y87612D01*
X-102623Y87560D01*
X-102610Y87436D01*
X-102605Y87311D01*
X-102587Y87236D01*
X-102579Y87160D01*
X-102532Y87004D01*
X-102512Y86919D01*
X-102497Y86886D01*
X-102483Y86842D01*
X-102167Y86035D01*
X-102132Y85967D01*
X-102106Y85895D01*
X-102041Y85789D01*
X-101984Y85677D01*
X-101936Y85617D01*
X-101896Y85552D01*
X-101811Y85460D01*
X-101742Y85372D01*
X-101546Y84513D01*
X-101524Y84449D01*
X-101456Y84223D01*
X-101132Y83397D01*
X-101145Y83346D01*
X-101150Y83221D01*
X-101164Y83097D01*
X-101157Y83020D01*
X-101160Y82944D01*
X-101137Y82782D01*
X-101130Y82695D01*
X-101120Y82661D01*
X-101113Y82615D01*
X-100921Y81770D01*
X-100896Y81698D01*
X-100881Y81623D01*
X-100832Y81507D01*
X-100793Y81389D01*
X-100755Y81322D01*
X-100725Y81252D01*
X-100654Y81148D01*
X-100599Y81051D01*
X-100533Y80173D01*
X-100522Y80106D01*
X-100488Y79872D01*
X-100291Y79007D01*
X-100311Y78959D01*
X-100334Y78836D01*
X-100367Y78715D01*
X-100372Y78639D01*
X-100386Y78563D01*
X-100387Y78400D01*
X-100393Y78313D01*
X-100388Y78278D01*
X-100388Y78232D01*
X-100324Y77367D01*
X-100311Y77292D01*
X-100307Y77215D01*
X-100276Y77094D01*
X-100254Y76971D01*
X-100227Y76899D01*
X-100208Y76825D01*
X-100153Y76712D01*
X-100113Y76608D01*
X-100179Y75730D01*
X-100177Y75662D01*
X-100179Y75426D01*
X-100113Y74541D01*
X-100140Y74496D01*
X-100181Y74378D01*
X-100232Y74263D01*
X-100248Y74189D01*
X-100273Y74117D01*
X-100299Y73955D01*
X-100317Y73870D01*
X-100318Y73834D01*
X-100325Y73789D01*
X-100390Y72924D01*
X-100388Y72848D01*
X-100396Y72772D01*
X-100384Y72647D01*
X-100380Y72522D01*
X-100364Y72447D01*
X-100356Y72371D01*
X-100319Y72251D01*
X-100295Y72143D01*
X-100491Y71284D01*
X-100499Y71217D01*
X-100536Y70983D01*
X-100603Y70098D01*
X-100636Y70058D01*
X-100695Y69948D01*
X-100761Y69842D01*
X-100789Y69770D01*
X-100825Y69702D01*
X-100874Y69547D01*
X-100905Y69465D01*
X-100911Y69430D01*
X-100925Y69386D01*
X-101118Y68541D01*
X-101122Y68509D01*
X-101128Y68487D01*
X-101131Y68450D01*
X-101146Y68391D01*
X-101153Y68266D01*
X-101168Y68142D01*
X-101163Y68065D01*
X-101166Y67989D01*
X-101148Y67865D01*
X-101140Y67754D01*
X-101462Y66933D01*
X-101480Y66868D01*
X-101552Y66643D01*
X-101704Y65976D01*
X-101710Y65932D01*
X-101722Y65889D01*
X-101735Y65733D01*
X-101754Y65577D01*
X-101751Y65532D01*
X-101755Y65488D01*
X-101737Y65332D01*
X-101725Y65175D01*
X-101713Y65132D01*
X-101708Y65088D01*
X-101659Y64939D01*
X-101617Y64787D01*
X-101597Y64748D01*
X-101583Y64705D01*
X-101506Y64568D01*
X-101435Y64428D01*
X-101407Y64393D01*
X-101385Y64355D01*
X-101283Y64236D01*
X-101185Y64112D01*
X-101151Y64084D01*
X-101122Y64050D01*
X-100998Y63954D01*
X-100878Y63852D01*
X-100839Y63830D01*
X-100804Y63803D01*
X-100663Y63733D01*
X-100526Y63657D01*
X-100483Y63644D01*
X-100443Y63624D01*
X-100292Y63583D01*
X-100142Y63536D01*
X-100098Y63531D01*
X-100055Y63519D01*
X-99946Y63510D01*
X-97672Y62568D01*
X-96679Y61575D01*
X-96658Y61558D01*
X-96641Y61538D01*
X-96503Y61431D01*
X-96367Y61320D01*
X-96344Y61308D01*
X-96322Y61291D01*
X-96166Y61213D01*
X-96012Y61131D01*
X-95986Y61124D01*
X-95962Y61112D01*
X-95793Y61066D01*
X-95626Y61017D01*
X-95599Y61014D01*
X-95573Y61007D01*
X-95242Y60980D01*
X-55556Y60980D01*
X-55530Y60983D01*
G37*
D10*
X78350Y109538D03*
X61350Y109538D03*
D11*
X61938Y134938D03*
X80938Y134938D03*
D12*
X-70413Y47625D03*
X-53413Y47625D03*
D13*
X60325Y86612D03*
X60325Y74613D03*
X60325Y62613D03*
D10*
X85163Y195263D03*
X102163Y195263D03*
X78350Y120650D03*
X61350Y120650D03*
D12*
X-57150Y69288D03*
X-57150Y86288D03*
D14*
X-71438Y88875D03*
X-71438Y69875D03*
D10*
X-101600Y168838D03*
X-101600Y151838D03*
D11*
X61938Y152400D03*
X80938Y152400D03*
D12*
X62938Y168275D03*
X79938Y168275D03*
D15*
X165100Y150588D03*
X82500Y7488D03*
X-82700Y7488D03*
X-165300Y150588D03*
X123800Y222088D03*
X123800Y79088D03*
X-100Y7488D03*
X-124000Y79088D03*
X-124000Y222088D03*
D16*
X32957Y110057D03*
X32957Y105056D03*
X32957Y100054D03*
X32957Y95053D03*
X32957Y90052D03*
X32957Y85051D03*
X32957Y80049D03*
X32957Y75048D03*
X32957Y70047D03*
X32957Y65046D03*
X32957Y60044D03*
X32957Y55043D03*
D17*
X25920Y48006D03*
X20919Y48006D03*
X15917Y48006D03*
X10916Y48006D03*
X5915Y48006D03*
X914Y48006D03*
X-4089Y48006D03*
X-9090Y48006D03*
X-14091Y48006D03*
X-19092Y48006D03*
X-24094Y48006D03*
X-29095Y48006D03*
D16*
X-36132Y55043D03*
X-36132Y60044D03*
X-36132Y65046D03*
X-36132Y70047D03*
X-36132Y75048D03*
X-36132Y80049D03*
X-36132Y85051D03*
X-36132Y90052D03*
X-36132Y95053D03*
X-36132Y100054D03*
X-36132Y105056D03*
X-36132Y110057D03*
D17*
X-29095Y117094D03*
X-24094Y117094D03*
X-19092Y117094D03*
X-14091Y117094D03*
X-9090Y117094D03*
X-4089Y117094D03*
X914Y117094D03*
X5915Y117094D03*
X10916Y117094D03*
X15917Y117094D03*
X20919Y117094D03*
X25920Y117094D03*
D18*
X-1588Y82550D03*
D19*
X103188Y177800D03*
D20*
X-127000Y177800D03*
X-127000Y152400D03*
X-127000Y127000D03*
D10*
X20638Y160900D03*
X20638Y143900D03*
X34925Y160900D03*
X34925Y143900D03*
X-30163Y168838D03*
X-30163Y151838D03*
X6350Y160900D03*
X6350Y143900D03*
X-14288Y168838D03*
X-14288Y151838D03*
X-77788Y229163D03*
X-77788Y212163D03*
D12*
X-55563Y272025D03*
X-55563Y255025D03*
D21*
X50913Y230188D03*
X72913Y230188D03*
X49325Y214313D03*
X71325Y214313D03*
D10*
X-68263Y170888D03*
X-68263Y187888D03*
D22*
X-76200Y249525D03*
X-76200Y277525D03*
D12*
X-60325Y229163D03*
X-60325Y212163D03*
D23*
X-57150Y69288D02*
X-70850Y69288D01*
X-71438Y69875D01*
D24*
X-46389Y80049D02*
X-36132Y80049D01*
X-46389Y80049D02*
X-57150Y69288D01*
D25*
X-44450Y280988D03*
X-9525Y282575D03*
X11113Y282575D03*
X23813Y282575D03*
X41275Y284163D03*
X41275Y269875D03*
X-23813Y280988D03*
X-44450Y261938D03*
X46038Y258763D03*
X34925Y258763D03*
X46038Y242888D03*
X34925Y242888D03*
X38100Y228600D03*
X-46038Y233363D03*
X-44450Y249238D03*
X-41275Y211138D03*
X-23813Y207963D03*
X-6350Y207963D03*
X11113Y207963D03*
X34925Y214313D03*
X85725Y277813D03*
X92075Y258763D03*
X-28575Y25400D03*
D24*
X-36132Y80049D02*
X-4089Y80049D01*
X-1588Y82550D01*
D25*
X61913Y17463D03*
X136525Y184150D03*
X142875Y173038D03*
X96838Y152400D03*
X-47625Y179388D03*
X-49213Y166688D03*
X39688Y119063D03*
D26*
X58881Y164218D02*
X62938Y168275D01*
X58881Y164218D02*
X53649Y164218D01*
X49506Y127586D02*
X40982Y119063D01*
X39688Y119063D01*
X49506Y160075D02*
X53649Y164218D01*
X49506Y160075D02*
X49506Y127586D01*
D25*
X-4763Y65088D03*
X-79375Y138113D03*
X65088Y173038D03*
X22225Y58738D03*
D23*
X-70850Y89463D02*
X-71438Y88875D01*
X-70850Y89463D02*
X-60325Y89463D01*
X-57150Y86288D01*
D24*
X-55914Y85051D02*
X-36132Y85051D01*
X-55914Y85051D02*
X-57150Y86288D01*
D25*
X-71438Y263457D03*
D26*
X-71438Y247650D01*
X-74325Y247650D01*
X-76200Y249525D01*
D23*
X-61063Y249525D02*
X-55563Y255025D01*
X-61063Y249525D02*
X-76200Y249525D01*
D27*
X-77788Y247938D02*
X-77788Y229163D01*
X-77788Y247938D02*
X-76200Y249525D01*
D26*
X-71438Y88875D02*
X-88900Y85725D01*
D25*
X-88900Y85725D03*
X116462Y194638D03*
D24*
X116462Y115350D01*
X90424Y89312D01*
X90424Y71849D01*
X48832Y50519D02*
X39307Y60044D01*
X32957Y60044D01*
X48832Y50707D02*
X48832Y50519D01*
X48832Y50707D02*
X69282Y50707D01*
X90424Y71849D01*
X45657Y45518D02*
X36132Y55043D01*
X32957Y55043D01*
X45657Y45518D02*
X70918Y45518D01*
X95250Y69850D01*
X95250Y87313D01*
X123800Y115863D02*
X123800Y222088D01*
X123800Y115863D02*
X95250Y87313D01*
D25*
X98085Y50153D03*
D24*
X31646Y40692D02*
X25920Y46419D01*
X25920Y48006D01*
X31646Y40692D02*
X88010Y40692D01*
X97471Y50153D02*
X98085Y50153D01*
X97471Y50153D02*
X88010Y40692D01*
X27939Y35624D02*
X21094Y42469D01*
X106338Y47338D02*
X106338Y61625D01*
X123800Y79088D01*
X106338Y47338D02*
X94624Y35624D01*
X21094Y47831D02*
X20919Y48006D01*
X21094Y47831D02*
X21094Y42469D01*
X27939Y35624D02*
X94624Y35624D01*
D25*
X-101110Y57424D03*
D24*
X-47244Y69297D02*
X-41493Y75048D01*
X-53242Y57424D02*
X-101110Y57424D01*
X-47244Y63421D02*
X-47244Y69297D01*
X-47244Y63421D02*
X-53242Y57424D01*
X-41493Y75048D02*
X-36132Y75048D01*
X-100013Y127000D02*
X-127000Y127000D01*
X-78069Y105056D02*
X-36132Y105056D01*
X-78069Y105056D02*
X-100013Y127000D01*
X-43752Y57286D02*
X-53413Y47625D01*
X-43752Y57286D02*
X-43752Y57786D01*
X-41493Y60044D01*
X-36132Y60044D01*
X-70413Y47625D02*
X-70413Y35488D01*
X-63159Y28234D01*
D25*
X-63159Y28234D03*
D24*
X914Y133462D02*
X-14288Y148663D01*
X-14288Y151838D01*
X914Y133462D02*
X914Y117094D01*
X32957Y75048D02*
X46473Y75048D01*
X58037Y86612D02*
X60325Y86612D01*
X58037Y86612D02*
X46473Y75048D01*
X50603Y70047D02*
X32957Y70047D01*
X58037Y62613D02*
X60325Y62613D01*
X58037Y62613D02*
X50603Y70047D01*
D26*
X-102163Y152400D02*
X-127000Y152400D01*
X-102163Y152400D02*
X-101600Y151838D01*
X-127000Y152400D02*
X-127000Y177800D01*
D24*
X-71957Y110057D02*
X-36132Y110057D01*
X-102163Y140263D02*
X-102163Y152400D01*
X-102163Y140263D02*
X-71957Y110057D01*
D25*
X-82572Y149203D03*
D24*
X-27939Y126302D02*
X-24269Y122631D01*
X-24269Y117269D01*
X-24094Y117094D01*
D28*
X-71010Y212163D02*
X-77788Y212163D01*
X-71010Y212163D02*
X-69985Y211138D01*
D25*
X-69985Y211138D03*
D28*
X-71010Y212163D02*
X-60325Y212163D01*
D24*
X-66697Y149203D02*
X-43795Y126302D01*
X-66697Y149203D02*
X-82572Y149203D01*
X-43795Y126302D02*
X-27939Y126302D01*
X25920Y117094D02*
X26988Y118162D01*
X34925Y142313D02*
X34925Y143900D01*
X34925Y142313D02*
X26988Y134375D01*
X26988Y118162D01*
X21094Y117269D02*
X20919Y117094D01*
X21094Y143444D02*
X20638Y143900D01*
X21094Y143444D02*
X21094Y117269D01*
X6350Y124905D02*
X5915Y124470D01*
X5915Y117094D01*
X6350Y124905D02*
X6350Y143900D01*
X-16008Y142313D02*
X-20638Y142313D01*
X-30163Y151838D01*
X-4089Y130393D02*
X-4089Y117094D01*
X-4089Y130393D02*
X-16008Y142313D01*
X32957Y115416D02*
X32957Y110057D01*
X32957Y115416D02*
X32350Y116023D01*
X32350Y126012D01*
X38100Y131763D01*
D25*
X38100Y131763D03*
D23*
X61350Y120650D02*
X61350Y109538D01*
X61350Y120650D02*
X61350Y134350D01*
X61938Y134938D01*
X61938Y152400D01*
D28*
X43784Y91971D02*
X40707Y88895D01*
X44676Y92864D02*
X61350Y109538D01*
D24*
X44676Y92864D02*
X41865Y90052D01*
X32957Y90052D01*
X32957Y95053D02*
X34549Y95053D01*
X40707Y88895D01*
X41865Y90052D02*
X36864Y85051D01*
X32957Y85051D01*
D25*
X41379Y91971D03*
D28*
X43784Y91971D01*
X44676Y92864D01*
D23*
X78350Y109538D02*
X78350Y120650D01*
X80938Y123238D01*
X80938Y134938D01*
X80938Y152400D01*
D26*
X80938Y167275D02*
X79938Y168275D01*
X80938Y167275D02*
X80938Y152400D01*
D24*
X78350Y109538D02*
X62475Y93663D01*
X33133Y80225D02*
X32957Y80049D01*
X49756Y90072D02*
X53346Y93663D01*
X49756Y90072D02*
X49756Y89971D01*
X40010Y80225D01*
X33133Y80225D01*
X53346Y93663D02*
X62475Y93663D01*
X-29095Y117094D02*
X-30983Y118983D01*
X-49564Y118983D01*
X-52739Y122158D01*
D25*
X-52739Y122158D03*
D24*
X32957Y65046D02*
X33133Y64870D01*
X41306Y64870D01*
X49239Y56937D01*
X49358Y57057D01*
X68798Y57057D01*
X85598Y91311D02*
X107475Y113188D01*
X85598Y73857D02*
X68798Y57057D01*
X85598Y73857D02*
X85598Y91311D01*
X107475Y173513D02*
X103188Y177800D01*
X107475Y173513D02*
X107475Y113188D01*
D28*
X103188Y194238D02*
X102163Y195263D01*
X103188Y194238D02*
X103188Y177800D01*
D24*
X-36132Y90052D02*
X-45386Y90052D01*
X-54702Y99369D01*
X-103719Y99369D02*
X-124000Y79088D01*
X-103719Y99369D02*
X-54702Y99369D01*
D25*
X-76200Y182563D03*
D26*
X-70875Y187888D01*
X-68263Y187888D01*
D24*
X-9265Y117269D02*
X-9090Y117094D01*
X-9265Y117269D02*
X-9265Y127393D01*
X-19285Y137414D01*
X-75235Y162332D02*
X-77319Y164415D01*
X-75235Y162332D02*
X-60948Y162332D01*
X-36030Y137414D02*
X-19285Y137414D01*
X-36030Y137414D02*
X-60948Y162332D01*
X-103188Y206375D02*
X-103024Y206538D01*
X-102306Y206538D01*
D25*
X-102306Y206538D03*
D24*
X-77319Y173304D02*
X-77319Y164415D01*
X-83538Y186726D02*
X-103188Y206375D01*
X-83538Y179523D02*
X-77319Y173304D01*
X-83538Y179523D02*
X-83538Y186726D01*
X-109644Y207732D02*
X-124000Y222088D01*
X-109644Y207732D02*
X-109644Y203499D01*
X-82145Y162416D02*
X-77234Y157506D01*
X-62947Y157506D01*
X-38029Y132588D02*
X-21463Y132588D01*
X-14091Y125216D02*
X-14091Y117094D01*
X-38029Y132588D02*
X-62947Y157506D01*
X-21463Y132588D02*
X-14091Y125216D01*
X-88364Y182219D02*
X-109644Y203499D01*
X-88364Y182219D02*
X-88364Y177524D01*
X-82145Y171305D01*
X-82145Y162416D01*
D25*
X5520Y173867D03*
D24*
X1624Y169971D01*
X-4871Y169971D01*
X-10146Y164696D01*
X-14288Y168838D01*
D25*
X5920Y156157D03*
D24*
X5920Y160470D02*
X6350Y160900D01*
X5920Y160470D02*
X5920Y156157D01*
D25*
X7595Y184732D03*
D24*
X-14269Y184732D01*
X-30163Y168838D01*
X15917Y48006D02*
X15917Y32073D01*
X15106Y31262D01*
D25*
X15106Y31262D03*
D24*
X10916Y38481D02*
X10916Y48006D01*
X10916Y38481D02*
X-100Y27466D01*
X-100Y7488D01*
X44963Y183081D02*
X48138Y183081D01*
X44963Y183081D02*
X37025Y175143D01*
X31706Y175143D01*
X20638Y164075D01*
X20638Y160900D01*
X66118Y214313D02*
X71325Y214313D01*
X66118Y214313D02*
X48138Y196332D01*
D25*
X68263Y242888D03*
D24*
X63500Y238125D02*
X63500Y220550D01*
X69738Y214313D02*
X71325Y214313D01*
X69738Y214313D02*
X63500Y220550D01*
X63500Y238125D02*
X68263Y242888D01*
D25*
X48138Y183081D03*
D24*
X48138Y196332D01*
X79263Y223838D02*
X72913Y230188D01*
X79263Y223838D02*
X79263Y206479D01*
X49629Y172605D01*
X46976Y172605D01*
X46976Y172099D01*
X46976Y172951D02*
X34925Y160900D01*
D25*
X69850Y252738D03*
D24*
X69850Y251678D01*
X75601Y245927D01*
X75601Y232876D01*
X72913Y230188D01*
D25*
X46976Y172099D03*
D24*
X46976Y172951D01*
M02*
