G04 EAGLE Gerber RS-274X export*
G75*
%MOMM*%
%FSLAX34Y34*%
%LPD*%
%INTop Copper*%
%IPPOS*%
%AMOC8*
5,1,8,0,0,1.08239X$1,22.5*%
G01*
%ADD10R,0.800000X0.800000*%
%ADD11R,1.100000X1.000000*%
%ADD12C,1.000000*%
%ADD13P,1.649562X8X202.500000*%
%ADD14C,1.524000*%
%ADD15R,0.800000X0.400000*%
%ADD16R,0.400000X0.800000*%
%ADD17R,1.450000X1.450000*%
%ADD18R,0.700000X0.700000*%
%ADD19C,0.499997*%
%ADD20R,0.500000X0.800000*%
%ADD21C,0.756400*%
%ADD22C,0.406400*%
%ADD23C,0.304800*%
%ADD24C,1.016000*%
%ADD25C,0.812800*%
%ADD26C,0.609600*%
%ADD27C,0.254000*%
%ADD28C,0.508000*%

G36*
X-76650Y53978D02*
X-76650Y53978D01*
X-76632Y53976D01*
X-76450Y53997D01*
X-76267Y54016D01*
X-76250Y54021D01*
X-76233Y54023D01*
X-76058Y54080D01*
X-75882Y54134D01*
X-75867Y54142D01*
X-75850Y54148D01*
X-75690Y54238D01*
X-75528Y54326D01*
X-75515Y54337D01*
X-75499Y54346D01*
X-75360Y54466D01*
X-75219Y54583D01*
X-75208Y54597D01*
X-75194Y54609D01*
X-75082Y54754D01*
X-74967Y54897D01*
X-74959Y54913D01*
X-74948Y54927D01*
X-74866Y55092D01*
X-74781Y55254D01*
X-74776Y55271D01*
X-74768Y55287D01*
X-74721Y55466D01*
X-74670Y55641D01*
X-74668Y55659D01*
X-74664Y55676D01*
X-74637Y56007D01*
X-74637Y63599D01*
X-74619Y63621D01*
X-74509Y63757D01*
X-74496Y63780D01*
X-74480Y63802D01*
X-74402Y63958D01*
X-74320Y64112D01*
X-74312Y64138D01*
X-74300Y64162D01*
X-74255Y64331D01*
X-74205Y64498D01*
X-74203Y64525D01*
X-74196Y64551D01*
X-74169Y64882D01*
X-74169Y64915D01*
X-74171Y64938D01*
X-74169Y64961D01*
X-74191Y65138D01*
X-74209Y65316D01*
X-74215Y65338D01*
X-74218Y65360D01*
X-74274Y65530D01*
X-74327Y65701D01*
X-74338Y65721D01*
X-74345Y65743D01*
X-74433Y65897D01*
X-74519Y66055D01*
X-74533Y66072D01*
X-74545Y66092D01*
X-74662Y66227D01*
X-74776Y66364D01*
X-74794Y66378D01*
X-74809Y66396D01*
X-74834Y66414D01*
X-76408Y67989D01*
X-77137Y69748D01*
X-77137Y82652D01*
X-76408Y84411D01*
X-75061Y85758D01*
X-73302Y86487D01*
X-66843Y86487D01*
X-66816Y86489D01*
X-66789Y86487D01*
X-66615Y86509D01*
X-66442Y86527D01*
X-66416Y86534D01*
X-66390Y86538D01*
X-66224Y86594D01*
X-66057Y86645D01*
X-66033Y86658D01*
X-66008Y86666D01*
X-65856Y86753D01*
X-65703Y86836D01*
X-65682Y86854D01*
X-65659Y86867D01*
X-65406Y87082D01*
X-57492Y94996D01*
X-51582Y94996D01*
X-51555Y94998D01*
X-51529Y94996D01*
X-51355Y95018D01*
X-51181Y95036D01*
X-51156Y95043D01*
X-51129Y95047D01*
X-50964Y95102D01*
X-50796Y95154D01*
X-50773Y95167D01*
X-50748Y95175D01*
X-50596Y95262D01*
X-50442Y95346D01*
X-50422Y95363D01*
X-50399Y95376D01*
X-50146Y95591D01*
X-18693Y127043D01*
X-18676Y127064D01*
X-18656Y127081D01*
X-18549Y127219D01*
X-18438Y127355D01*
X-18426Y127378D01*
X-18409Y127399D01*
X-18331Y127556D01*
X-18249Y127710D01*
X-18242Y127736D01*
X-18230Y127760D01*
X-18184Y127929D01*
X-18135Y128096D01*
X-18132Y128123D01*
X-18125Y128149D01*
X-18098Y128480D01*
X-18098Y176734D01*
X-18099Y176743D01*
X-18098Y176752D01*
X-18119Y176945D01*
X-18138Y177134D01*
X-18141Y177143D01*
X-18142Y177152D01*
X-18200Y177336D01*
X-18256Y177519D01*
X-18261Y177527D01*
X-18263Y177536D01*
X-18356Y177704D01*
X-18448Y177873D01*
X-18454Y177880D01*
X-18458Y177888D01*
X-18583Y178035D01*
X-18706Y178183D01*
X-18713Y178188D01*
X-18719Y178195D01*
X-18870Y178315D01*
X-19020Y178435D01*
X-19027Y178439D01*
X-19034Y178445D01*
X-19207Y178532D01*
X-19377Y178620D01*
X-19385Y178623D01*
X-19393Y178627D01*
X-19580Y178679D01*
X-19764Y178732D01*
X-19773Y178733D01*
X-19781Y178735D01*
X-19974Y178749D01*
X-20165Y178765D01*
X-20174Y178764D01*
X-20183Y178764D01*
X-20375Y178740D01*
X-20565Y178718D01*
X-20573Y178715D01*
X-20582Y178714D01*
X-20764Y178653D01*
X-20948Y178593D01*
X-20956Y178588D01*
X-20964Y178586D01*
X-21131Y178490D01*
X-21298Y178395D01*
X-21305Y178389D01*
X-21313Y178385D01*
X-21566Y178170D01*
X-24907Y174829D01*
X-24912Y174822D01*
X-24919Y174817D01*
X-25039Y174667D01*
X-25162Y174518D01*
X-25166Y174510D01*
X-25171Y174503D01*
X-25260Y174332D01*
X-25350Y174162D01*
X-25353Y174154D01*
X-25357Y174146D01*
X-25410Y173960D01*
X-25465Y173776D01*
X-25466Y173767D01*
X-25468Y173759D01*
X-25484Y173566D01*
X-25501Y173375D01*
X-25500Y173366D01*
X-25501Y173357D01*
X-25479Y173168D01*
X-25458Y172975D01*
X-25455Y172966D01*
X-25454Y172958D01*
X-25395Y172776D01*
X-25337Y172591D01*
X-25332Y172583D01*
X-25329Y172575D01*
X-25234Y172406D01*
X-25142Y172239D01*
X-25136Y172232D01*
X-25132Y172224D01*
X-25006Y172078D01*
X-24881Y171932D01*
X-24874Y171926D01*
X-24868Y171919D01*
X-24717Y171802D01*
X-24565Y171682D01*
X-24557Y171678D01*
X-24550Y171673D01*
X-24378Y171587D01*
X-24206Y171500D01*
X-24198Y171497D01*
X-24190Y171493D01*
X-24003Y171443D01*
X-23818Y171392D01*
X-23810Y171391D01*
X-23801Y171389D01*
X-23737Y171384D01*
X-22376Y170022D01*
X-22376Y158128D01*
X-23715Y156788D01*
X-34451Y156788D01*
X-34469Y156786D01*
X-34486Y156788D01*
X-34669Y156767D01*
X-34852Y156748D01*
X-34869Y156743D01*
X-34886Y156741D01*
X-35061Y156684D01*
X-35236Y156630D01*
X-35252Y156622D01*
X-35269Y156616D01*
X-35429Y156526D01*
X-35591Y156438D01*
X-35604Y156427D01*
X-35620Y156418D01*
X-35759Y156298D01*
X-35900Y156181D01*
X-35911Y156167D01*
X-35924Y156155D01*
X-36037Y156010D01*
X-36152Y155867D01*
X-36160Y155851D01*
X-36171Y155837D01*
X-36253Y155672D01*
X-36338Y155510D01*
X-36343Y155493D01*
X-36351Y155477D01*
X-36398Y155298D01*
X-36449Y155123D01*
X-36450Y155105D01*
X-36455Y155088D01*
X-36482Y154757D01*
X-36482Y149259D01*
X-48587Y137154D01*
X-48604Y137133D01*
X-48624Y137116D01*
X-48731Y136978D01*
X-48842Y136843D01*
X-48855Y136819D01*
X-48871Y136798D01*
X-48949Y136641D01*
X-49031Y136487D01*
X-49039Y136461D01*
X-49051Y136437D01*
X-49096Y136268D01*
X-49146Y136101D01*
X-49148Y136074D01*
X-49155Y136049D01*
X-49182Y135718D01*
X-49182Y128025D01*
X-49180Y127998D01*
X-49182Y127971D01*
X-49160Y127797D01*
X-49142Y127624D01*
X-49134Y127598D01*
X-49131Y127572D01*
X-49075Y127406D01*
X-49024Y127239D01*
X-49011Y127215D01*
X-49003Y127190D01*
X-48916Y127039D01*
X-48832Y126885D01*
X-48815Y126865D01*
X-48802Y126841D01*
X-48587Y126588D01*
X-47594Y125595D01*
X-46670Y123365D01*
X-46670Y120950D01*
X-47594Y118720D01*
X-49301Y117013D01*
X-51532Y116089D01*
X-53946Y116089D01*
X-56177Y117013D01*
X-57884Y118720D01*
X-58808Y120950D01*
X-58808Y123365D01*
X-57884Y125595D01*
X-56891Y126588D01*
X-56874Y126609D01*
X-56853Y126626D01*
X-56746Y126764D01*
X-56636Y126900D01*
X-56623Y126923D01*
X-56607Y126945D01*
X-56529Y127102D01*
X-56447Y127256D01*
X-56439Y127281D01*
X-56427Y127305D01*
X-56382Y127475D01*
X-56332Y127641D01*
X-56330Y127668D01*
X-56323Y127694D01*
X-56296Y128025D01*
X-56296Y139506D01*
X-44191Y151611D01*
X-44174Y151632D01*
X-44153Y151649D01*
X-44046Y151787D01*
X-43936Y151922D01*
X-43923Y151946D01*
X-43907Y151967D01*
X-43829Y152124D01*
X-43747Y152278D01*
X-43739Y152304D01*
X-43727Y152328D01*
X-43682Y152497D01*
X-43632Y152664D01*
X-43630Y152691D01*
X-43623Y152716D01*
X-43596Y153047D01*
X-43596Y185570D01*
X-43597Y185587D01*
X-43596Y185605D01*
X-43617Y185787D01*
X-43636Y185970D01*
X-43641Y185987D01*
X-43643Y186005D01*
X-43700Y186179D01*
X-43754Y186355D01*
X-43762Y186371D01*
X-43768Y186388D01*
X-43858Y186548D01*
X-43945Y186709D01*
X-43957Y186723D01*
X-43966Y186738D01*
X-44086Y186878D01*
X-44203Y187018D01*
X-44217Y187030D01*
X-44229Y187043D01*
X-44374Y187156D01*
X-44517Y187271D01*
X-44533Y187279D01*
X-44547Y187290D01*
X-44712Y187372D01*
X-44874Y187456D01*
X-44891Y187461D01*
X-44907Y187469D01*
X-45086Y187517D01*
X-45261Y187568D01*
X-45279Y187569D01*
X-45296Y187574D01*
X-45627Y187601D01*
X-50947Y187601D01*
X-52287Y188940D01*
X-52287Y198835D01*
X-50947Y200174D01*
X-44883Y200174D01*
X-44769Y200114D01*
X-44752Y200109D01*
X-44736Y200101D01*
X-44559Y200052D01*
X-44383Y199999D01*
X-44366Y199998D01*
X-44348Y199993D01*
X-44165Y199979D01*
X-43982Y199963D01*
X-43965Y199965D01*
X-43947Y199963D01*
X-43765Y199986D01*
X-43582Y200006D01*
X-43565Y200012D01*
X-43547Y200014D01*
X-43373Y200072D01*
X-43198Y200128D01*
X-43183Y200136D01*
X-43166Y200142D01*
X-43110Y200174D01*
X-37053Y200174D01*
X-35713Y198835D01*
X-35713Y188940D01*
X-35887Y188766D01*
X-35904Y188746D01*
X-35924Y188728D01*
X-36031Y188590D01*
X-36142Y188455D01*
X-36155Y188431D01*
X-36171Y188410D01*
X-36249Y188253D01*
X-36331Y188099D01*
X-36339Y188074D01*
X-36351Y188049D01*
X-36396Y187880D01*
X-36446Y187713D01*
X-36448Y187687D01*
X-36455Y187661D01*
X-36482Y187330D01*
X-36482Y178936D01*
X-36481Y178927D01*
X-36482Y178918D01*
X-36461Y178725D01*
X-36442Y178535D01*
X-36440Y178527D01*
X-36439Y178518D01*
X-36380Y178334D01*
X-36324Y178150D01*
X-36320Y178142D01*
X-36317Y178134D01*
X-36224Y177966D01*
X-36132Y177796D01*
X-36127Y177789D01*
X-36122Y177782D01*
X-35998Y177635D01*
X-35875Y177487D01*
X-35868Y177481D01*
X-35862Y177475D01*
X-35711Y177356D01*
X-35561Y177235D01*
X-35553Y177231D01*
X-35546Y177225D01*
X-35373Y177137D01*
X-35204Y177049D01*
X-35195Y177047D01*
X-35187Y177043D01*
X-35001Y176991D01*
X-34817Y176938D01*
X-34808Y176937D01*
X-34799Y176935D01*
X-34606Y176921D01*
X-34415Y176905D01*
X-34407Y176906D01*
X-34398Y176905D01*
X-34205Y176930D01*
X-34016Y176952D01*
X-34007Y176955D01*
X-33998Y176956D01*
X-33815Y177017D01*
X-33633Y177077D01*
X-33625Y177081D01*
X-33617Y177084D01*
X-33450Y177180D01*
X-33282Y177275D01*
X-33275Y177280D01*
X-33268Y177285D01*
X-33015Y177500D01*
X-26367Y184148D01*
X-26355Y184161D01*
X-26342Y184173D01*
X-26228Y184317D01*
X-26112Y184459D01*
X-26103Y184475D01*
X-26092Y184489D01*
X-26009Y184653D01*
X-25923Y184815D01*
X-25918Y184832D01*
X-25910Y184848D01*
X-25860Y185025D01*
X-25808Y185201D01*
X-25807Y185218D01*
X-25802Y185236D01*
X-25788Y185419D01*
X-25772Y185602D01*
X-25774Y185619D01*
X-25772Y185637D01*
X-25795Y185819D01*
X-25815Y186002D01*
X-25821Y186019D01*
X-25823Y186037D01*
X-25881Y186211D01*
X-25937Y186386D01*
X-25945Y186401D01*
X-25951Y186418D01*
X-26042Y186577D01*
X-26131Y186738D01*
X-26143Y186752D01*
X-26152Y186767D01*
X-26367Y187020D01*
X-28287Y188940D01*
X-28287Y198835D01*
X-26947Y200174D01*
X-20883Y200174D01*
X-20769Y200114D01*
X-20752Y200109D01*
X-20736Y200101D01*
X-20559Y200052D01*
X-20383Y199999D01*
X-20366Y199998D01*
X-20348Y199993D01*
X-20165Y199979D01*
X-19982Y199963D01*
X-19965Y199965D01*
X-19947Y199963D01*
X-19765Y199986D01*
X-19582Y200006D01*
X-19565Y200012D01*
X-19547Y200014D01*
X-19373Y200072D01*
X-19198Y200128D01*
X-19183Y200136D01*
X-19166Y200142D01*
X-19110Y200174D01*
X-12883Y200174D01*
X-12769Y200114D01*
X-12752Y200109D01*
X-12736Y200101D01*
X-12559Y200052D01*
X-12383Y199999D01*
X-12366Y199998D01*
X-12348Y199993D01*
X-12165Y199979D01*
X-11982Y199963D01*
X-11965Y199965D01*
X-11947Y199963D01*
X-11765Y199986D01*
X-11582Y200006D01*
X-11565Y200012D01*
X-11547Y200014D01*
X-11373Y200072D01*
X-11198Y200128D01*
X-11183Y200136D01*
X-11166Y200142D01*
X-11110Y200174D01*
X-4883Y200174D01*
X-4769Y200114D01*
X-4752Y200109D01*
X-4736Y200101D01*
X-4559Y200052D01*
X-4383Y199999D01*
X-4366Y199998D01*
X-4348Y199993D01*
X-4165Y199979D01*
X-3982Y199963D01*
X-3965Y199965D01*
X-3947Y199963D01*
X-3765Y199986D01*
X-3582Y200006D01*
X-3565Y200012D01*
X-3547Y200014D01*
X-3373Y200072D01*
X-3198Y200128D01*
X-3183Y200136D01*
X-3166Y200142D01*
X-3110Y200174D01*
X3117Y200174D01*
X3231Y200114D01*
X3248Y200109D01*
X3264Y200101D01*
X3441Y200052D01*
X3617Y199999D01*
X3634Y199998D01*
X3652Y199993D01*
X3835Y199979D01*
X4018Y199963D01*
X4035Y199965D01*
X4053Y199963D01*
X4235Y199986D01*
X4418Y200006D01*
X4435Y200012D01*
X4453Y200014D01*
X4627Y200072D01*
X4802Y200128D01*
X4817Y200136D01*
X4834Y200142D01*
X4890Y200174D01*
X11117Y200174D01*
X11231Y200114D01*
X11248Y200109D01*
X11264Y200101D01*
X11441Y200052D01*
X11617Y199999D01*
X11634Y199998D01*
X11652Y199993D01*
X11835Y199979D01*
X12018Y199963D01*
X12035Y199965D01*
X12053Y199963D01*
X12235Y199986D01*
X12418Y200006D01*
X12435Y200012D01*
X12453Y200014D01*
X12627Y200072D01*
X12802Y200128D01*
X12817Y200136D01*
X12834Y200142D01*
X12890Y200174D01*
X19117Y200174D01*
X19231Y200114D01*
X19248Y200109D01*
X19264Y200101D01*
X19441Y200052D01*
X19617Y199999D01*
X19634Y199998D01*
X19652Y199993D01*
X19835Y199979D01*
X20018Y199963D01*
X20035Y199965D01*
X20053Y199963D01*
X20235Y199986D01*
X20418Y200006D01*
X20435Y200012D01*
X20453Y200014D01*
X20627Y200072D01*
X20802Y200128D01*
X20817Y200136D01*
X20834Y200142D01*
X20890Y200174D01*
X27117Y200174D01*
X27231Y200114D01*
X27248Y200109D01*
X27264Y200101D01*
X27441Y200052D01*
X27617Y199999D01*
X27634Y199998D01*
X27652Y199993D01*
X27835Y199979D01*
X28018Y199963D01*
X28035Y199965D01*
X28053Y199963D01*
X28235Y199986D01*
X28418Y200006D01*
X28435Y200012D01*
X28453Y200014D01*
X28627Y200072D01*
X28802Y200128D01*
X28817Y200136D01*
X28834Y200142D01*
X28890Y200174D01*
X35117Y200174D01*
X35231Y200114D01*
X35248Y200109D01*
X35264Y200101D01*
X35441Y200052D01*
X35617Y199999D01*
X35634Y199998D01*
X35652Y199993D01*
X35835Y199979D01*
X36018Y199963D01*
X36035Y199965D01*
X36053Y199963D01*
X36235Y199986D01*
X36418Y200006D01*
X36435Y200012D01*
X36453Y200014D01*
X36627Y200072D01*
X36802Y200128D01*
X36817Y200136D01*
X36834Y200142D01*
X36890Y200174D01*
X43117Y200174D01*
X43231Y200114D01*
X43248Y200109D01*
X43264Y200101D01*
X43441Y200052D01*
X43617Y199999D01*
X43634Y199998D01*
X43652Y199993D01*
X43835Y199979D01*
X44018Y199963D01*
X44035Y199965D01*
X44053Y199963D01*
X44235Y199986D01*
X44418Y200006D01*
X44435Y200012D01*
X44453Y200014D01*
X44627Y200072D01*
X44802Y200128D01*
X44817Y200136D01*
X44834Y200142D01*
X44890Y200174D01*
X50682Y200174D01*
X50700Y200176D01*
X50718Y200175D01*
X50900Y200196D01*
X51083Y200214D01*
X51100Y200219D01*
X51117Y200221D01*
X51292Y200278D01*
X51468Y200332D01*
X51483Y200341D01*
X51500Y200346D01*
X51660Y200437D01*
X51822Y200524D01*
X51835Y200535D01*
X51851Y200544D01*
X51990Y200664D01*
X52131Y200782D01*
X52142Y200796D01*
X52156Y200807D01*
X52268Y200952D01*
X52383Y201096D01*
X52391Y201111D01*
X52402Y201125D01*
X52484Y201290D01*
X52569Y201453D01*
X52574Y201470D01*
X52582Y201486D01*
X52629Y201664D01*
X52680Y201840D01*
X52682Y201858D01*
X52686Y201875D01*
X52713Y202205D01*
X52713Y206005D01*
X52773Y206118D01*
X52779Y206135D01*
X52787Y206151D01*
X52836Y206328D01*
X52888Y206504D01*
X52890Y206522D01*
X52895Y206539D01*
X52908Y206722D01*
X52925Y206905D01*
X52923Y206923D01*
X52924Y206941D01*
X52901Y207123D01*
X52881Y207305D01*
X52876Y207323D01*
X52874Y207340D01*
X52815Y207514D01*
X52760Y207689D01*
X52751Y207705D01*
X52745Y207722D01*
X52713Y207778D01*
X52713Y214005D01*
X52773Y214118D01*
X52779Y214135D01*
X52787Y214151D01*
X52836Y214328D01*
X52888Y214504D01*
X52890Y214522D01*
X52895Y214539D01*
X52908Y214722D01*
X52925Y214905D01*
X52923Y214923D01*
X52924Y214941D01*
X52901Y215123D01*
X52881Y215305D01*
X52876Y215323D01*
X52874Y215340D01*
X52815Y215514D01*
X52760Y215689D01*
X52751Y215705D01*
X52745Y215722D01*
X52713Y215778D01*
X52713Y222005D01*
X52773Y222118D01*
X52779Y222135D01*
X52787Y222151D01*
X52836Y222328D01*
X52888Y222504D01*
X52890Y222522D01*
X52895Y222539D01*
X52908Y222722D01*
X52925Y222905D01*
X52923Y222923D01*
X52924Y222941D01*
X52901Y223123D01*
X52881Y223305D01*
X52876Y223323D01*
X52874Y223340D01*
X52815Y223514D01*
X52760Y223689D01*
X52751Y223705D01*
X52745Y223722D01*
X52713Y223778D01*
X52713Y230005D01*
X52773Y230118D01*
X52779Y230135D01*
X52787Y230151D01*
X52836Y230328D01*
X52888Y230504D01*
X52890Y230522D01*
X52895Y230539D01*
X52908Y230722D01*
X52925Y230905D01*
X52923Y230923D01*
X52924Y230941D01*
X52901Y231123D01*
X52881Y231305D01*
X52876Y231323D01*
X52874Y231340D01*
X52815Y231514D01*
X52760Y231689D01*
X52751Y231705D01*
X52745Y231722D01*
X52713Y231778D01*
X52713Y238005D01*
X52773Y238118D01*
X52779Y238135D01*
X52787Y238152D01*
X52836Y238329D01*
X52888Y238504D01*
X52890Y238522D01*
X52895Y238539D01*
X52908Y238722D01*
X52925Y238905D01*
X52923Y238923D01*
X52924Y238941D01*
X52901Y239122D01*
X52881Y239306D01*
X52876Y239323D01*
X52874Y239340D01*
X52815Y239514D01*
X52760Y239689D01*
X52751Y239705D01*
X52745Y239722D01*
X52713Y239778D01*
X52713Y246005D01*
X52773Y246118D01*
X52779Y246135D01*
X52787Y246151D01*
X52836Y246328D01*
X52888Y246504D01*
X52890Y246522D01*
X52895Y246539D01*
X52908Y246722D01*
X52925Y246905D01*
X52923Y246923D01*
X52924Y246941D01*
X52901Y247123D01*
X52881Y247305D01*
X52876Y247323D01*
X52874Y247340D01*
X52815Y247514D01*
X52760Y247689D01*
X52751Y247705D01*
X52745Y247722D01*
X52713Y247778D01*
X52713Y254005D01*
X52773Y254118D01*
X52779Y254135D01*
X52787Y254151D01*
X52836Y254328D01*
X52888Y254504D01*
X52890Y254522D01*
X52895Y254539D01*
X52908Y254722D01*
X52925Y254905D01*
X52923Y254923D01*
X52924Y254941D01*
X52901Y255123D01*
X52881Y255305D01*
X52876Y255323D01*
X52874Y255340D01*
X52815Y255514D01*
X52760Y255689D01*
X52751Y255705D01*
X52745Y255722D01*
X52713Y255778D01*
X52713Y262005D01*
X52773Y262118D01*
X52779Y262135D01*
X52787Y262151D01*
X52836Y262328D01*
X52888Y262504D01*
X52890Y262522D01*
X52895Y262539D01*
X52908Y262722D01*
X52925Y262905D01*
X52923Y262923D01*
X52924Y262941D01*
X52901Y263123D01*
X52881Y263305D01*
X52876Y263323D01*
X52874Y263340D01*
X52815Y263514D01*
X52760Y263689D01*
X52751Y263705D01*
X52745Y263722D01*
X52713Y263778D01*
X52713Y270005D01*
X52773Y270118D01*
X52779Y270135D01*
X52787Y270151D01*
X52836Y270328D01*
X52888Y270504D01*
X52890Y270522D01*
X52895Y270539D01*
X52908Y270722D01*
X52925Y270905D01*
X52923Y270923D01*
X52924Y270941D01*
X52901Y271123D01*
X52881Y271305D01*
X52876Y271323D01*
X52874Y271340D01*
X52815Y271514D01*
X52760Y271689D01*
X52751Y271705D01*
X52745Y271722D01*
X52713Y271778D01*
X52713Y278005D01*
X52773Y278118D01*
X52779Y278135D01*
X52787Y278151D01*
X52836Y278328D01*
X52888Y278504D01*
X52890Y278522D01*
X52895Y278539D01*
X52908Y278722D01*
X52925Y278905D01*
X52923Y278923D01*
X52924Y278941D01*
X52901Y279123D01*
X52881Y279305D01*
X52876Y279323D01*
X52874Y279340D01*
X52815Y279514D01*
X52760Y279689D01*
X52751Y279705D01*
X52745Y279722D01*
X52713Y279778D01*
X52713Y285835D01*
X54053Y287174D01*
X63947Y287174D01*
X65287Y285835D01*
X65287Y279770D01*
X65227Y279657D01*
X65221Y279640D01*
X65213Y279623D01*
X65164Y279446D01*
X65112Y279271D01*
X65110Y279253D01*
X65105Y279236D01*
X65092Y279053D01*
X65075Y278870D01*
X65077Y278852D01*
X65076Y278834D01*
X65099Y278653D01*
X65119Y278469D01*
X65124Y278452D01*
X65126Y278435D01*
X65185Y278261D01*
X65240Y278086D01*
X65249Y278070D01*
X65255Y278053D01*
X65287Y277997D01*
X65287Y271770D01*
X65227Y271657D01*
X65221Y271640D01*
X65213Y271623D01*
X65164Y271446D01*
X65112Y271271D01*
X65110Y271253D01*
X65105Y271236D01*
X65092Y271053D01*
X65075Y270870D01*
X65077Y270852D01*
X65076Y270834D01*
X65099Y270653D01*
X65119Y270469D01*
X65124Y270452D01*
X65126Y270435D01*
X65185Y270261D01*
X65240Y270086D01*
X65249Y270070D01*
X65255Y270053D01*
X65287Y269997D01*
X65287Y263770D01*
X65227Y263657D01*
X65221Y263640D01*
X65213Y263623D01*
X65164Y263446D01*
X65112Y263271D01*
X65110Y263253D01*
X65105Y263236D01*
X65092Y263053D01*
X65075Y262870D01*
X65077Y262852D01*
X65076Y262834D01*
X65099Y262653D01*
X65119Y262469D01*
X65124Y262452D01*
X65126Y262435D01*
X65185Y262261D01*
X65240Y262086D01*
X65249Y262070D01*
X65255Y262053D01*
X65287Y261997D01*
X65287Y260456D01*
X65288Y260443D01*
X65287Y260429D01*
X65308Y260243D01*
X65327Y260055D01*
X65331Y260043D01*
X65332Y260029D01*
X65390Y259850D01*
X65445Y259671D01*
X65451Y259659D01*
X65455Y259646D01*
X65547Y259482D01*
X65637Y259316D01*
X65645Y259306D01*
X65652Y259294D01*
X65774Y259151D01*
X65894Y259007D01*
X65905Y258999D01*
X65913Y258989D01*
X66062Y258872D01*
X66208Y258755D01*
X66220Y258749D01*
X66230Y258740D01*
X66400Y258655D01*
X66565Y258569D01*
X66578Y258566D01*
X66590Y258560D01*
X66772Y258510D01*
X66952Y258458D01*
X66966Y258457D01*
X66979Y258453D01*
X67165Y258441D01*
X67354Y258425D01*
X67367Y258427D01*
X67380Y258426D01*
X67566Y258450D01*
X67753Y258472D01*
X67766Y258476D01*
X67779Y258478D01*
X68095Y258579D01*
X68643Y258806D01*
X71057Y258806D01*
X73288Y257882D01*
X74995Y256175D01*
X75919Y253945D01*
X75919Y251530D01*
X74995Y249300D01*
X73961Y248266D01*
X73947Y248249D01*
X73930Y248234D01*
X73819Y248093D01*
X73706Y247954D01*
X73695Y247935D01*
X73681Y247917D01*
X73601Y247757D01*
X73517Y247599D01*
X73511Y247577D01*
X73501Y247557D01*
X73453Y247384D01*
X73402Y247213D01*
X73400Y247190D01*
X73394Y247169D01*
X73382Y246991D01*
X73366Y246812D01*
X73368Y246789D01*
X73367Y246767D01*
X73390Y246591D01*
X73409Y246411D01*
X73416Y246390D01*
X73419Y246368D01*
X73520Y246052D01*
X74331Y244095D01*
X74331Y241680D01*
X73407Y239450D01*
X71700Y237743D01*
X69470Y236819D01*
X67318Y236819D01*
X67300Y236817D01*
X67282Y236818D01*
X67100Y236797D01*
X66917Y236779D01*
X66900Y236774D01*
X66883Y236772D01*
X66708Y236715D01*
X66532Y236661D01*
X66517Y236652D01*
X66500Y236647D01*
X66340Y236556D01*
X66178Y236469D01*
X66165Y236458D01*
X66149Y236449D01*
X66010Y236329D01*
X65869Y236211D01*
X65858Y236197D01*
X65844Y236186D01*
X65732Y236041D01*
X65617Y235897D01*
X65609Y235882D01*
X65598Y235868D01*
X65516Y235703D01*
X65431Y235540D01*
X65426Y235523D01*
X65418Y235507D01*
X65371Y235329D01*
X65320Y235153D01*
X65318Y235135D01*
X65314Y235118D01*
X65287Y234788D01*
X65287Y231770D01*
X65227Y231657D01*
X65221Y231640D01*
X65213Y231623D01*
X65164Y231446D01*
X65112Y231271D01*
X65110Y231253D01*
X65105Y231236D01*
X65092Y231053D01*
X65075Y230870D01*
X65077Y230852D01*
X65076Y230834D01*
X65099Y230653D01*
X65119Y230469D01*
X65124Y230452D01*
X65126Y230435D01*
X65185Y230261D01*
X65240Y230086D01*
X65249Y230070D01*
X65255Y230053D01*
X65287Y229997D01*
X65287Y225115D01*
X65289Y225092D01*
X65287Y225070D01*
X65309Y224893D01*
X65327Y224714D01*
X65333Y224693D01*
X65336Y224671D01*
X65392Y224501D01*
X65445Y224329D01*
X65455Y224310D01*
X65462Y224288D01*
X65551Y224132D01*
X65637Y223975D01*
X65651Y223958D01*
X65662Y223939D01*
X65780Y223803D01*
X65894Y223666D01*
X65912Y223652D01*
X65926Y223635D01*
X66068Y223526D01*
X66208Y223413D01*
X66228Y223403D01*
X66246Y223390D01*
X66541Y223238D01*
X68205Y222549D01*
X86211Y204542D01*
X86869Y202955D01*
X86869Y133143D01*
X86871Y133125D01*
X86869Y133107D01*
X86890Y132925D01*
X86909Y132742D01*
X86914Y132725D01*
X86916Y132708D01*
X86973Y132533D01*
X87027Y132357D01*
X87035Y132342D01*
X87041Y132325D01*
X87131Y132165D01*
X87219Y132003D01*
X87230Y131990D01*
X87239Y131974D01*
X87359Y131835D01*
X87476Y131694D01*
X87490Y131683D01*
X87502Y131669D01*
X87647Y131557D01*
X87790Y131442D01*
X87806Y131434D01*
X87820Y131423D01*
X87985Y131341D01*
X88147Y131256D01*
X88164Y131251D01*
X88180Y131243D01*
X88348Y131198D01*
X89774Y129772D01*
X89774Y117451D01*
X89777Y117425D01*
X89775Y117398D01*
X89797Y117224D01*
X89814Y117050D01*
X89822Y117025D01*
X89825Y116998D01*
X89881Y116833D01*
X89932Y116666D01*
X89945Y116642D01*
X89954Y116617D01*
X90041Y116465D01*
X90124Y116312D01*
X90141Y116291D01*
X90154Y116268D01*
X90337Y116053D01*
X90337Y104153D01*
X89220Y103036D01*
X89209Y103023D01*
X89195Y103011D01*
X89081Y102867D01*
X88965Y102725D01*
X88957Y102709D01*
X88946Y102695D01*
X88862Y102531D01*
X88777Y102369D01*
X88771Y102352D01*
X88763Y102336D01*
X88714Y102160D01*
X88662Y101983D01*
X88660Y101965D01*
X88655Y101948D01*
X88642Y101766D01*
X88625Y101582D01*
X88627Y101565D01*
X88626Y101547D01*
X88649Y101365D01*
X88669Y101182D01*
X88674Y101165D01*
X88676Y101147D01*
X88734Y100974D01*
X88790Y100798D01*
X88799Y100782D01*
X88805Y100766D01*
X88896Y100607D01*
X88985Y100446D01*
X88997Y100432D01*
X89006Y100417D01*
X89220Y100164D01*
X89634Y99750D01*
X89648Y99739D01*
X89659Y99725D01*
X89803Y99611D01*
X89946Y99495D01*
X89961Y99486D01*
X89975Y99475D01*
X90139Y99392D01*
X90301Y99306D01*
X90318Y99301D01*
X90334Y99293D01*
X90512Y99243D01*
X90687Y99191D01*
X90705Y99190D01*
X90722Y99185D01*
X90906Y99172D01*
X91088Y99155D01*
X91106Y99157D01*
X91124Y99156D01*
X91306Y99179D01*
X91488Y99198D01*
X91505Y99204D01*
X91523Y99206D01*
X91698Y99265D01*
X91872Y99320D01*
X91888Y99328D01*
X91905Y99334D01*
X92064Y99426D01*
X92225Y99515D01*
X92238Y99526D01*
X92254Y99535D01*
X92507Y99750D01*
X149590Y156833D01*
X151746Y157726D01*
X151866Y157790D01*
X151991Y157847D01*
X152044Y157885D01*
X152101Y157916D01*
X152206Y158003D01*
X152317Y158083D01*
X152361Y158131D01*
X152412Y158173D01*
X152498Y158278D01*
X152590Y158379D01*
X152630Y158442D01*
X152665Y158485D01*
X152702Y158556D01*
X152768Y158659D01*
X152950Y159006D01*
X152957Y159025D01*
X153078Y159307D01*
X153351Y160125D01*
X153422Y160179D01*
X153493Y160260D01*
X153570Y160334D01*
X153624Y160411D01*
X153686Y160482D01*
X153740Y160576D01*
X153802Y160664D01*
X153839Y160750D01*
X153886Y160832D01*
X153920Y160934D01*
X153963Y161033D01*
X153983Y161125D01*
X154013Y161214D01*
X154026Y161321D01*
X154049Y161426D01*
X154049Y161451D01*
X154562Y162134D01*
X154573Y162151D01*
X154736Y162410D01*
X155137Y163173D01*
X155215Y163215D01*
X155298Y163284D01*
X155387Y163345D01*
X155453Y163412D01*
X155525Y163472D01*
X155593Y163556D01*
X155668Y163633D01*
X155719Y163712D01*
X155778Y163785D01*
X155828Y163881D01*
X155887Y163972D01*
X155921Y164059D01*
X155965Y164142D01*
X155995Y164246D01*
X156034Y164346D01*
X156039Y164371D01*
X156654Y164962D01*
X156668Y164978D01*
X156871Y165207D01*
X157489Y166028D01*
X157495Y166039D01*
X157503Y166048D01*
X157599Y166211D01*
X157697Y166373D01*
X157701Y166384D01*
X157707Y166394D01*
X157769Y166572D01*
X157834Y166751D01*
X157836Y166763D01*
X157840Y166775D01*
X157865Y166961D01*
X157893Y167150D01*
X157893Y167162D01*
X157894Y167173D01*
X157883Y167361D01*
X157873Y167552D01*
X157870Y167563D01*
X157869Y167575D01*
X157821Y167758D01*
X157774Y167942D01*
X157769Y167953D01*
X157766Y167964D01*
X157624Y168264D01*
X141408Y196352D01*
X141319Y196475D01*
X141237Y196603D01*
X141202Y196638D01*
X141173Y196679D01*
X141062Y196782D01*
X140956Y196891D01*
X140915Y196919D01*
X140878Y196953D01*
X140749Y197033D01*
X140624Y197118D01*
X140572Y197141D01*
X140535Y197164D01*
X140454Y197194D01*
X140321Y197253D01*
X140237Y197282D01*
X140166Y197300D01*
X140157Y197303D01*
X140156Y197303D01*
X140091Y197328D01*
X139967Y197348D01*
X139846Y197377D01*
X139769Y197380D01*
X139693Y197393D01*
X139568Y197388D01*
X139444Y197393D01*
X139368Y197381D01*
X139291Y197378D01*
X139132Y197343D01*
X139046Y197329D01*
X139012Y197317D01*
X138967Y197307D01*
X138139Y197052D01*
X138068Y197022D01*
X137994Y197001D01*
X137883Y196944D01*
X137768Y196895D01*
X137704Y196852D01*
X137636Y196818D01*
X137538Y196740D01*
X137446Y196677D01*
X136574Y196546D01*
X136510Y196529D01*
X136278Y196478D01*
X135430Y196217D01*
X135381Y196233D01*
X135256Y196247D01*
X135133Y196271D01*
X135057Y196270D01*
X134981Y196279D01*
X134818Y196268D01*
X134731Y196267D01*
X134696Y196259D01*
X134650Y196256D01*
X133792Y196127D01*
X133718Y196109D01*
X133642Y196099D01*
X133524Y196059D01*
X133402Y196028D01*
X133333Y195995D01*
X133261Y195971D01*
X133152Y195908D01*
X133052Y195860D01*
X132170Y195861D01*
X132103Y195854D01*
X131868Y195838D01*
X130990Y195706D01*
X130943Y195729D01*
X130823Y195762D01*
X130704Y195803D01*
X130628Y195814D01*
X130555Y195834D01*
X130392Y195847D01*
X130306Y195860D01*
X130270Y195857D01*
X130224Y195861D01*
X129357Y195861D01*
X129281Y195854D01*
X129204Y195856D01*
X129081Y195834D01*
X128956Y195822D01*
X128883Y195799D01*
X128808Y195786D01*
X128691Y195740D01*
X128585Y195708D01*
X127713Y195839D01*
X127646Y195843D01*
X127411Y195862D01*
X126523Y195862D01*
X126481Y195892D01*
X126366Y195943D01*
X126255Y196001D01*
X126182Y196023D01*
X126112Y196054D01*
X125953Y196091D01*
X125869Y196116D01*
X125834Y196119D01*
X125789Y196130D01*
X124932Y196260D01*
X124855Y196263D01*
X124779Y196277D01*
X124655Y196274D01*
X124530Y196280D01*
X124454Y196269D01*
X124377Y196267D01*
X124255Y196239D01*
X124131Y196221D01*
X124059Y196195D01*
X123984Y196178D01*
X123835Y196113D01*
X123753Y196084D01*
X123722Y196065D01*
X123679Y196047D01*
X123613Y196012D01*
X123506Y195941D01*
X123393Y195877D01*
X123338Y195830D01*
X123278Y195790D01*
X123186Y195699D01*
X123088Y195614D01*
X123044Y195557D01*
X122992Y195505D01*
X122921Y195398D01*
X122842Y195296D01*
X122809Y195231D01*
X122769Y195170D01*
X122720Y195051D01*
X122662Y194936D01*
X122644Y194865D01*
X122616Y194798D01*
X122591Y194671D01*
X122558Y194547D01*
X122551Y194463D01*
X122539Y194403D01*
X122540Y194328D01*
X122531Y194216D01*
X122531Y193431D01*
X121607Y191200D01*
X119900Y189493D01*
X117669Y188569D01*
X115255Y188569D01*
X113024Y189493D01*
X111317Y191200D01*
X110393Y193431D01*
X110393Y195845D01*
X111317Y198075D01*
X111958Y198716D01*
X111965Y198724D01*
X111970Y198729D01*
X111997Y198763D01*
X112034Y198796D01*
X112120Y198914D01*
X112213Y199027D01*
X112218Y199037D01*
X112222Y199042D01*
X112242Y199081D01*
X112271Y199121D01*
X112333Y199254D01*
X112401Y199383D01*
X112404Y199394D01*
X112408Y199400D01*
X112420Y199442D01*
X112440Y199487D01*
X112474Y199629D01*
X112516Y199769D01*
X112517Y199780D01*
X112519Y199787D01*
X112523Y199831D01*
X112534Y199878D01*
X112539Y200024D01*
X112552Y200170D01*
X112551Y200180D01*
X112552Y200188D01*
X112547Y200232D01*
X112548Y200280D01*
X112525Y200424D01*
X112509Y200570D01*
X112506Y200580D01*
X112505Y200588D01*
X112491Y200630D01*
X112483Y200678D01*
X112432Y200814D01*
X112388Y200954D01*
X112383Y200963D01*
X112380Y200970D01*
X112358Y201010D01*
X112341Y201054D01*
X112263Y201178D01*
X112193Y201306D01*
X112186Y201313D01*
X112182Y201321D01*
X112152Y201356D01*
X112127Y201396D01*
X111982Y201555D01*
X111932Y201613D01*
X111925Y201619D01*
X111919Y201626D01*
X111911Y201632D01*
X111903Y201640D01*
X111318Y202184D01*
X111264Y202225D01*
X111081Y202373D01*
X110348Y202873D01*
X110329Y202922D01*
X110263Y203028D01*
X110205Y203139D01*
X110156Y203198D01*
X110116Y203263D01*
X110005Y203384D01*
X109950Y203451D01*
X109923Y203474D01*
X109892Y203508D01*
X109256Y204098D01*
X109195Y204144D01*
X109141Y204198D01*
X109036Y204266D01*
X108936Y204341D01*
X108867Y204375D01*
X108803Y204416D01*
X108686Y204462D01*
X108586Y204511D01*
X108036Y205200D01*
X107990Y205248D01*
X107830Y205422D01*
X107180Y206026D01*
X107169Y206077D01*
X107119Y206192D01*
X107078Y206310D01*
X107039Y206376D01*
X107008Y206447D01*
X106917Y206582D01*
X106873Y206657D01*
X106849Y206684D01*
X106823Y206722D01*
X106283Y207400D01*
X106230Y207455D01*
X106183Y207516D01*
X106090Y207599D01*
X106002Y207688D01*
X105939Y207732D01*
X105882Y207782D01*
X105773Y207845D01*
X105681Y207908D01*
X105241Y208671D01*
X105202Y208725D01*
X105070Y208922D01*
X104517Y209616D01*
X104514Y209668D01*
X104481Y209789D01*
X104458Y209912D01*
X104430Y209983D01*
X104410Y210057D01*
X104340Y210205D01*
X104308Y210286D01*
X104288Y210316D01*
X104268Y210357D01*
X103835Y211108D01*
X103790Y211170D01*
X103754Y211237D01*
X103673Y211333D01*
X103600Y211435D01*
X103544Y211487D01*
X103495Y211546D01*
X103397Y211624D01*
X103316Y211700D01*
X102994Y212521D01*
X102963Y212580D01*
X102862Y212794D01*
X102419Y213563D01*
X102423Y213615D01*
X102410Y213739D01*
X102405Y213864D01*
X102387Y213939D01*
X102379Y214015D01*
X102332Y214171D01*
X102312Y214256D01*
X102297Y214289D01*
X102283Y214333D01*
X101967Y215140D01*
X101953Y215167D01*
X101946Y215189D01*
X101926Y215223D01*
X101906Y215280D01*
X101841Y215386D01*
X101784Y215498D01*
X101736Y215558D01*
X101696Y215623D01*
X101611Y215715D01*
X101542Y215803D01*
X101346Y216662D01*
X101324Y216726D01*
X101256Y216952D01*
X100932Y217778D01*
X100945Y217829D01*
X100950Y217954D01*
X100964Y218078D01*
X100957Y218155D01*
X100960Y218231D01*
X100937Y218393D01*
X100930Y218480D01*
X100920Y218514D01*
X100913Y218560D01*
X100721Y219405D01*
X100696Y219477D01*
X100681Y219552D01*
X100632Y219668D01*
X100593Y219786D01*
X100555Y219853D01*
X100525Y219923D01*
X100454Y220027D01*
X100399Y220124D01*
X100333Y221002D01*
X100322Y221069D01*
X100288Y221303D01*
X100091Y222168D01*
X100111Y222216D01*
X100134Y222339D01*
X100167Y222460D01*
X100172Y222536D01*
X100186Y222611D01*
X100187Y222775D01*
X100193Y222862D01*
X100188Y222897D01*
X100188Y222943D01*
X100124Y223808D01*
X100111Y223883D01*
X100107Y223960D01*
X100076Y224081D01*
X100054Y224204D01*
X100026Y224276D01*
X100008Y224350D01*
X99954Y224463D01*
X99913Y224567D01*
X99979Y225445D01*
X99977Y225513D01*
X99979Y225749D01*
X99913Y226634D01*
X99940Y226679D01*
X99981Y226797D01*
X100032Y226912D01*
X100048Y226986D01*
X100073Y227058D01*
X100099Y227220D01*
X100117Y227305D01*
X100118Y227341D01*
X100125Y227386D01*
X100190Y228251D01*
X100188Y228327D01*
X100196Y228403D01*
X100184Y228528D01*
X100180Y228653D01*
X100164Y228728D01*
X100156Y228804D01*
X100119Y228924D01*
X100095Y229032D01*
X100291Y229891D01*
X100299Y229958D01*
X100336Y230192D01*
X100403Y231076D01*
X100436Y231117D01*
X100495Y231227D01*
X100561Y231333D01*
X100589Y231405D01*
X100625Y231473D01*
X100674Y231628D01*
X100705Y231710D01*
X100711Y231745D01*
X100725Y231789D01*
X100918Y232634D01*
X100927Y232710D01*
X100946Y232784D01*
X100953Y232909D01*
X100968Y233033D01*
X100963Y233110D01*
X100966Y233186D01*
X100948Y233310D01*
X100940Y233421D01*
X101262Y234242D01*
X101280Y234306D01*
X101352Y234532D01*
X101549Y235397D01*
X101588Y235432D01*
X101663Y235532D01*
X101744Y235627D01*
X101782Y235694D01*
X101828Y235755D01*
X101899Y235902D01*
X101942Y235978D01*
X101953Y236012D01*
X101974Y236053D01*
X102291Y236860D01*
X102311Y236934D01*
X102341Y237004D01*
X102366Y237127D01*
X102400Y237247D01*
X102406Y237324D01*
X102421Y237399D01*
X102421Y237524D01*
X102430Y237635D01*
X102870Y238398D01*
X102898Y238459D01*
X103002Y238672D01*
X103327Y239498D01*
X103370Y239526D01*
X103459Y239615D01*
X103554Y239696D01*
X103601Y239757D01*
X103655Y239811D01*
X103748Y239945D01*
X103802Y240014D01*
X103818Y240046D01*
X103844Y240084D01*
X104278Y240834D01*
X104309Y240904D01*
X104349Y240969D01*
X104392Y241087D01*
X104444Y241201D01*
X104461Y241275D01*
X104487Y241347D01*
X104506Y241471D01*
X104531Y241580D01*
X105081Y242269D01*
X105117Y242326D01*
X105252Y242520D01*
X105696Y243288D01*
X105743Y243310D01*
X105844Y243384D01*
X105950Y243451D01*
X106006Y243503D01*
X106067Y243549D01*
X106179Y243667D01*
X106243Y243727D01*
X106263Y243757D01*
X106295Y243790D01*
X106835Y244468D01*
X106877Y244532D01*
X106926Y244591D01*
X106986Y244700D01*
X107054Y244806D01*
X107082Y244877D01*
X107119Y244944D01*
X107156Y245064D01*
X107197Y245168D01*
X107843Y245767D01*
X107887Y245817D01*
X108050Y245989D01*
X108603Y246683D01*
X108653Y246697D01*
X108764Y246756D01*
X108879Y246806D01*
X108941Y246849D01*
X109009Y246885D01*
X109138Y246986D01*
X109209Y247036D01*
X109234Y247062D01*
X109270Y247090D01*
X109906Y247680D01*
X109956Y247737D01*
X110014Y247787D01*
X110089Y247887D01*
X110173Y247981D01*
X110211Y248047D01*
X110257Y248108D01*
X110311Y248221D01*
X110374Y248330D01*
X110399Y248402D01*
X110432Y248470D01*
X110476Y248628D01*
X110504Y248711D01*
X110508Y248745D01*
X110511Y248753D01*
X110512Y248759D01*
X110520Y248790D01*
X110531Y248848D01*
X110545Y249001D01*
X110566Y249152D01*
X110563Y249201D01*
X110567Y249249D01*
X110550Y249401D01*
X110541Y249554D01*
X110528Y249601D01*
X110523Y249650D01*
X110476Y249795D01*
X110437Y249943D01*
X110413Y249993D01*
X110400Y250033D01*
X110358Y250108D01*
X110295Y250243D01*
X84451Y295007D01*
X84398Y295081D01*
X84353Y295160D01*
X84281Y295244D01*
X84216Y295334D01*
X84149Y295396D01*
X84090Y295465D01*
X84002Y295533D01*
X83921Y295608D01*
X83844Y295656D01*
X83772Y295712D01*
X83673Y295761D01*
X83578Y295819D01*
X83493Y295851D01*
X83411Y295891D01*
X83304Y295920D01*
X83200Y295958D01*
X83110Y295972D01*
X83022Y295996D01*
X82885Y296007D01*
X82802Y296020D01*
X82755Y296018D01*
X82692Y296023D01*
X-82892Y296023D01*
X-82982Y296014D01*
X-83073Y296015D01*
X-83182Y295994D01*
X-83292Y295983D01*
X-83379Y295956D01*
X-83469Y295939D01*
X-83571Y295897D01*
X-83677Y295865D01*
X-83757Y295821D01*
X-83842Y295787D01*
X-83934Y295726D01*
X-84031Y295673D01*
X-84101Y295615D01*
X-84177Y295564D01*
X-84256Y295486D01*
X-84341Y295415D01*
X-84398Y295344D01*
X-84462Y295280D01*
X-84540Y295167D01*
X-84593Y295101D01*
X-84615Y295059D01*
X-84651Y295007D01*
X-110495Y250243D01*
X-110558Y250104D01*
X-110627Y249967D01*
X-110641Y249920D01*
X-110661Y249876D01*
X-110695Y249727D01*
X-110736Y249580D01*
X-110740Y249531D01*
X-110751Y249483D01*
X-110755Y249331D01*
X-110766Y249178D01*
X-110761Y249123D01*
X-110762Y249081D01*
X-110747Y248996D01*
X-110731Y248848D01*
X-110720Y248790D01*
X-110699Y248717D01*
X-110698Y248715D01*
X-110686Y248642D01*
X-110642Y248524D01*
X-110606Y248404D01*
X-110571Y248337D01*
X-110544Y248265D01*
X-110477Y248159D01*
X-110419Y248048D01*
X-110371Y247989D01*
X-110330Y247924D01*
X-110219Y247803D01*
X-110164Y247736D01*
X-110137Y247713D01*
X-110106Y247680D01*
X-109470Y247090D01*
X-109409Y247044D01*
X-109354Y246990D01*
X-109249Y246923D01*
X-109149Y246847D01*
X-109080Y246814D01*
X-109016Y246772D01*
X-108900Y246726D01*
X-108799Y246678D01*
X-108250Y245989D01*
X-108203Y245941D01*
X-108043Y245767D01*
X-107392Y245163D01*
X-107381Y245112D01*
X-107331Y244997D01*
X-107290Y244879D01*
X-107251Y244813D01*
X-107220Y244743D01*
X-107129Y244608D01*
X-107085Y244533D01*
X-107061Y244506D01*
X-107035Y244468D01*
X-106495Y243790D01*
X-106441Y243735D01*
X-106395Y243674D01*
X-106301Y243591D01*
X-106214Y243502D01*
X-106151Y243459D01*
X-106093Y243408D01*
X-105984Y243345D01*
X-105893Y243282D01*
X-105452Y242520D01*
X-105413Y242465D01*
X-105281Y242269D01*
X-104727Y241575D01*
X-104724Y241523D01*
X-104692Y241402D01*
X-104668Y241279D01*
X-104640Y241208D01*
X-104620Y241134D01*
X-104550Y240986D01*
X-104517Y240906D01*
X-104498Y240876D01*
X-104478Y240834D01*
X-104044Y240084D01*
X-104000Y240021D01*
X-103963Y239954D01*
X-103882Y239858D01*
X-103809Y239757D01*
X-103753Y239705D01*
X-103704Y239646D01*
X-103606Y239568D01*
X-103514Y239482D01*
X-103449Y239442D01*
X-103389Y239395D01*
X-103246Y239317D01*
X-103171Y239272D01*
X-103138Y239259D01*
X-103097Y239238D01*
X-103014Y239201D01*
X-103003Y239193D01*
X-102846Y239111D01*
X-102689Y239025D01*
X-102667Y239018D01*
X-102646Y239007D01*
X-102475Y238958D01*
X-102305Y238905D01*
X-102282Y238902D01*
X-102259Y238896D01*
X-102081Y238881D01*
X-101905Y238863D01*
X-101881Y238865D01*
X-101857Y238863D01*
X-101681Y238884D01*
X-101504Y238900D01*
X-101481Y238907D01*
X-101458Y238910D01*
X-101289Y238965D01*
X-101118Y239016D01*
X-101097Y239027D01*
X-101075Y239035D01*
X-100920Y239122D01*
X-100763Y239206D01*
X-100745Y239221D01*
X-100724Y239233D01*
X-100590Y239349D01*
X-100452Y239462D01*
X-100437Y239480D01*
X-100419Y239496D01*
X-100311Y239636D01*
X-100198Y239774D01*
X-100187Y239795D01*
X-100173Y239814D01*
X-100093Y239974D01*
X-100011Y240130D01*
X-100004Y240153D01*
X-99993Y240174D01*
X-99947Y240347D01*
X-99897Y240517D01*
X-99895Y240540D01*
X-99889Y240563D01*
X-99862Y240894D01*
X-99862Y254735D01*
X-99204Y256322D01*
X-94107Y261420D01*
X-94090Y261441D01*
X-94069Y261458D01*
X-93962Y261596D01*
X-93852Y261731D01*
X-93839Y261755D01*
X-93823Y261776D01*
X-93745Y261933D01*
X-93663Y262087D01*
X-93655Y262113D01*
X-93643Y262137D01*
X-93598Y262306D01*
X-93548Y262473D01*
X-93546Y262500D01*
X-93539Y262526D01*
X-93512Y262856D01*
X-93512Y270035D01*
X-92172Y271374D01*
X-79278Y271374D01*
X-77901Y269997D01*
X-77898Y269972D01*
X-77894Y269960D01*
X-77893Y269946D01*
X-77835Y269767D01*
X-77780Y269587D01*
X-77774Y269576D01*
X-77770Y269563D01*
X-77677Y269398D01*
X-77588Y269233D01*
X-77580Y269223D01*
X-77573Y269211D01*
X-77451Y269068D01*
X-77331Y268924D01*
X-77320Y268916D01*
X-77312Y268906D01*
X-77163Y268789D01*
X-77017Y268672D01*
X-77005Y268666D01*
X-76995Y268657D01*
X-76826Y268573D01*
X-76660Y268486D01*
X-76647Y268483D01*
X-76635Y268477D01*
X-76454Y268427D01*
X-76273Y268375D01*
X-76259Y268374D01*
X-76246Y268370D01*
X-76058Y268357D01*
X-75871Y268342D01*
X-75858Y268344D01*
X-75845Y268343D01*
X-75657Y268367D01*
X-75472Y268389D01*
X-75459Y268393D01*
X-75446Y268395D01*
X-75130Y268496D01*
X-72645Y269526D01*
X-72318Y269526D01*
X-72291Y269528D01*
X-72264Y269526D01*
X-72091Y269548D01*
X-71917Y269566D01*
X-71892Y269573D01*
X-71865Y269577D01*
X-71699Y269632D01*
X-71532Y269684D01*
X-71509Y269697D01*
X-71483Y269705D01*
X-71332Y269792D01*
X-71178Y269876D01*
X-71158Y269893D01*
X-71134Y269906D01*
X-70881Y270121D01*
X-70453Y270549D01*
X-68866Y271206D01*
X-58009Y271206D01*
X-57990Y271201D01*
X-57660Y271174D01*
X-54053Y271174D01*
X-52713Y269835D01*
X-52713Y263770D01*
X-52773Y263657D01*
X-52779Y263640D01*
X-52787Y263624D01*
X-52836Y263445D01*
X-52888Y263271D01*
X-52890Y263253D01*
X-52895Y263236D01*
X-52908Y263053D01*
X-52925Y262870D01*
X-52923Y262852D01*
X-52924Y262834D01*
X-52901Y262652D01*
X-52881Y262470D01*
X-52876Y262452D01*
X-52874Y262435D01*
X-52815Y262261D01*
X-52760Y262086D01*
X-52751Y262070D01*
X-52745Y262053D01*
X-52713Y261997D01*
X-52713Y255770D01*
X-52773Y255657D01*
X-52779Y255640D01*
X-52787Y255624D01*
X-52836Y255445D01*
X-52888Y255271D01*
X-52890Y255253D01*
X-52895Y255236D01*
X-52908Y255053D01*
X-52925Y254870D01*
X-52923Y254852D01*
X-52924Y254834D01*
X-52901Y254652D01*
X-52881Y254470D01*
X-52876Y254452D01*
X-52874Y254435D01*
X-52815Y254261D01*
X-52760Y254086D01*
X-52751Y254070D01*
X-52745Y254053D01*
X-52713Y253997D01*
X-52713Y247770D01*
X-52773Y247657D01*
X-52779Y247640D01*
X-52787Y247624D01*
X-52836Y247445D01*
X-52888Y247271D01*
X-52890Y247253D01*
X-52895Y247236D01*
X-52908Y247053D01*
X-52925Y246870D01*
X-52923Y246852D01*
X-52924Y246834D01*
X-52901Y246652D01*
X-52881Y246470D01*
X-52876Y246452D01*
X-52874Y246435D01*
X-52815Y246261D01*
X-52760Y246086D01*
X-52751Y246070D01*
X-52745Y246053D01*
X-52713Y245997D01*
X-52713Y239770D01*
X-52773Y239657D01*
X-52779Y239640D01*
X-52787Y239624D01*
X-52836Y239447D01*
X-52888Y239271D01*
X-52890Y239253D01*
X-52895Y239236D01*
X-52908Y239052D01*
X-52925Y238870D01*
X-52923Y238852D01*
X-52924Y238834D01*
X-52901Y238652D01*
X-52881Y238470D01*
X-52876Y238452D01*
X-52874Y238435D01*
X-52815Y238261D01*
X-52760Y238086D01*
X-52751Y238070D01*
X-52745Y238053D01*
X-52713Y237997D01*
X-52713Y231770D01*
X-52773Y231657D01*
X-52779Y231640D01*
X-52787Y231624D01*
X-52836Y231445D01*
X-52888Y231271D01*
X-52890Y231253D01*
X-52895Y231236D01*
X-52908Y231053D01*
X-52925Y230870D01*
X-52923Y230852D01*
X-52924Y230834D01*
X-52901Y230652D01*
X-52881Y230470D01*
X-52876Y230452D01*
X-52874Y230435D01*
X-52815Y230261D01*
X-52760Y230086D01*
X-52751Y230070D01*
X-52745Y230053D01*
X-52713Y229997D01*
X-52713Y223770D01*
X-52773Y223657D01*
X-52779Y223640D01*
X-52787Y223624D01*
X-52836Y223445D01*
X-52888Y223271D01*
X-52890Y223253D01*
X-52895Y223236D01*
X-52908Y223053D01*
X-52925Y222870D01*
X-52923Y222852D01*
X-52924Y222834D01*
X-52901Y222652D01*
X-52881Y222470D01*
X-52876Y222452D01*
X-52874Y222435D01*
X-52815Y222261D01*
X-52760Y222086D01*
X-52751Y222070D01*
X-52745Y222053D01*
X-52713Y221997D01*
X-52713Y215770D01*
X-52773Y215657D01*
X-52779Y215640D01*
X-52787Y215624D01*
X-52836Y215445D01*
X-52888Y215271D01*
X-52890Y215253D01*
X-52895Y215236D01*
X-52908Y215053D01*
X-52925Y214870D01*
X-52923Y214852D01*
X-52924Y214834D01*
X-52901Y214652D01*
X-52881Y214470D01*
X-52876Y214452D01*
X-52874Y214435D01*
X-52815Y214261D01*
X-52760Y214086D01*
X-52751Y214070D01*
X-52745Y214053D01*
X-52713Y213997D01*
X-52713Y207940D01*
X-54053Y206601D01*
X-60968Y206601D01*
X-60986Y206599D01*
X-61004Y206600D01*
X-61186Y206579D01*
X-61369Y206561D01*
X-61386Y206556D01*
X-61403Y206554D01*
X-61578Y206497D01*
X-61754Y206443D01*
X-61769Y206434D01*
X-61786Y206429D01*
X-61946Y206338D01*
X-62108Y206251D01*
X-62121Y206240D01*
X-62137Y206231D01*
X-62276Y206111D01*
X-62417Y205993D01*
X-62428Y205979D01*
X-62442Y205968D01*
X-62554Y205823D01*
X-62669Y205679D01*
X-62677Y205664D01*
X-62688Y205650D01*
X-62770Y205485D01*
X-62855Y205322D01*
X-62860Y205305D01*
X-62868Y205289D01*
X-62915Y205111D01*
X-62966Y204935D01*
X-62968Y204917D01*
X-62972Y204900D01*
X-62999Y204570D01*
X-62999Y163387D01*
X-75908Y150478D01*
X-75925Y150457D01*
X-75945Y150440D01*
X-76052Y150302D01*
X-76163Y150166D01*
X-76176Y150143D01*
X-76192Y150121D01*
X-76270Y149964D01*
X-76352Y149810D01*
X-76359Y149785D01*
X-76371Y149761D01*
X-76417Y149591D01*
X-76467Y149425D01*
X-76469Y149398D01*
X-76476Y149372D01*
X-76503Y149041D01*
X-76503Y147996D01*
X-77427Y145766D01*
X-79134Y144058D01*
X-81365Y143134D01*
X-83779Y143134D01*
X-86009Y144058D01*
X-87717Y145766D01*
X-88641Y147996D01*
X-88641Y150410D01*
X-87717Y152641D01*
X-86009Y154348D01*
X-83779Y155272D01*
X-82734Y155272D01*
X-82707Y155275D01*
X-82680Y155273D01*
X-82506Y155295D01*
X-82333Y155312D01*
X-82307Y155320D01*
X-82281Y155323D01*
X-82115Y155379D01*
X-81948Y155430D01*
X-81924Y155443D01*
X-81899Y155451D01*
X-81748Y155539D01*
X-81594Y155622D01*
X-81574Y155639D01*
X-81550Y155652D01*
X-81297Y155867D01*
X-71216Y165949D01*
X-71199Y165969D01*
X-71178Y165987D01*
X-71071Y166125D01*
X-70961Y166260D01*
X-70948Y166284D01*
X-70932Y166305D01*
X-70854Y166462D01*
X-70772Y166616D01*
X-70764Y166641D01*
X-70752Y166665D01*
X-70707Y166834D01*
X-70657Y167002D01*
X-70655Y167028D01*
X-70648Y167054D01*
X-70621Y167385D01*
X-70621Y175265D01*
X-70622Y175278D01*
X-70621Y175291D01*
X-70642Y175478D01*
X-70661Y175665D01*
X-70665Y175678D01*
X-70666Y175692D01*
X-70723Y175870D01*
X-70779Y176050D01*
X-70785Y176062D01*
X-70789Y176075D01*
X-70881Y176239D01*
X-70971Y176404D01*
X-70979Y176415D01*
X-70986Y176426D01*
X-71109Y176570D01*
X-71228Y176714D01*
X-71239Y176722D01*
X-71247Y176732D01*
X-71396Y176849D01*
X-71542Y176966D01*
X-71554Y176972D01*
X-71564Y176980D01*
X-71734Y177065D01*
X-71899Y177151D01*
X-71912Y177155D01*
X-71924Y177161D01*
X-72106Y177211D01*
X-72286Y177263D01*
X-72300Y177264D01*
X-72313Y177267D01*
X-72499Y177280D01*
X-72688Y177296D01*
X-72701Y177294D01*
X-72714Y177295D01*
X-72901Y177271D01*
X-73087Y177249D01*
X-73100Y177245D01*
X-73113Y177243D01*
X-73429Y177141D01*
X-74993Y176494D01*
X-77407Y176494D01*
X-79638Y177418D01*
X-79926Y177706D01*
X-79946Y177723D01*
X-79964Y177743D01*
X-80102Y177850D01*
X-80237Y177961D01*
X-80261Y177973D01*
X-80282Y177990D01*
X-80439Y178068D01*
X-80593Y178150D01*
X-80619Y178157D01*
X-80643Y178169D01*
X-80811Y178214D01*
X-80979Y178264D01*
X-81006Y178267D01*
X-81031Y178274D01*
X-81362Y178301D01*
X-90672Y178301D01*
X-92012Y179640D01*
X-92012Y188983D01*
X-92021Y189072D01*
X-92020Y189162D01*
X-92041Y189272D01*
X-92052Y189383D01*
X-92078Y189469D01*
X-92095Y189558D01*
X-92137Y189661D01*
X-92170Y189768D01*
X-92213Y189847D01*
X-92247Y189931D01*
X-92308Y190024D01*
X-92362Y190122D01*
X-92419Y190191D01*
X-92469Y190266D01*
X-92548Y190346D01*
X-92619Y190431D01*
X-92689Y190488D01*
X-92753Y190552D01*
X-92846Y190614D01*
X-92933Y190684D01*
X-93013Y190725D01*
X-93088Y190775D01*
X-93191Y190818D01*
X-93290Y190869D01*
X-93377Y190894D01*
X-93460Y190928D01*
X-93570Y190950D01*
X-93677Y190981D01*
X-93767Y190988D01*
X-93856Y191005D01*
X-93995Y191007D01*
X-94079Y191013D01*
X-94125Y191008D01*
X-94187Y191009D01*
X-94337Y190998D01*
X-94365Y190993D01*
X-94392Y190993D01*
X-94718Y190934D01*
X-94963Y190869D01*
X-95175Y190897D01*
X-95215Y190898D01*
X-95254Y190905D01*
X-95549Y190908D01*
X-95578Y190909D01*
X-95581Y190909D01*
X-95585Y190909D01*
X-119627Y189192D01*
X-119764Y189168D01*
X-119901Y189153D01*
X-119961Y189134D01*
X-120024Y189123D01*
X-120153Y189073D01*
X-120285Y189032D01*
X-120340Y189001D01*
X-120400Y188978D01*
X-120516Y188904D01*
X-120637Y188837D01*
X-120685Y188796D01*
X-120739Y188761D01*
X-120839Y188666D01*
X-120944Y188576D01*
X-120983Y188526D01*
X-121029Y188482D01*
X-121108Y188369D01*
X-121193Y188260D01*
X-121222Y188204D01*
X-121259Y188151D01*
X-121313Y188025D01*
X-121376Y187902D01*
X-121393Y187840D01*
X-121418Y187782D01*
X-121447Y187647D01*
X-121484Y187514D01*
X-121488Y187450D01*
X-121502Y187388D01*
X-121503Y187250D01*
X-121513Y187112D01*
X-121505Y187049D01*
X-121506Y186985D01*
X-121480Y186850D01*
X-121463Y186713D01*
X-121442Y186652D01*
X-121431Y186590D01*
X-121379Y186462D01*
X-121335Y186331D01*
X-121303Y186276D01*
X-121279Y186217D01*
X-121202Y186102D01*
X-121134Y185982D01*
X-121086Y185926D01*
X-121056Y185881D01*
X-121000Y185825D01*
X-120919Y185729D01*
X-118601Y183412D01*
X-117093Y179771D01*
X-117093Y175829D01*
X-118601Y172188D01*
X-121388Y169401D01*
X-125029Y167893D01*
X-128971Y167893D01*
X-132612Y169401D01*
X-135399Y172188D01*
X-136907Y175829D01*
X-136907Y179771D01*
X-135733Y182603D01*
X-135722Y182641D01*
X-135705Y182676D01*
X-135664Y182833D01*
X-135617Y182989D01*
X-135613Y183028D01*
X-135603Y183066D01*
X-135594Y183228D01*
X-135579Y183390D01*
X-135583Y183429D01*
X-135581Y183468D01*
X-135604Y183628D01*
X-135620Y183790D01*
X-135632Y183828D01*
X-135638Y183866D01*
X-135692Y184019D01*
X-135740Y184174D01*
X-135759Y184209D01*
X-135772Y184246D01*
X-135855Y184385D01*
X-135933Y184528D01*
X-135959Y184558D01*
X-135979Y184591D01*
X-136088Y184712D01*
X-136193Y184836D01*
X-136223Y184860D01*
X-136250Y184889D01*
X-136381Y184986D01*
X-136507Y185087D01*
X-136542Y185105D01*
X-136574Y185128D01*
X-136721Y185197D01*
X-136866Y185271D01*
X-136903Y185281D01*
X-136939Y185298D01*
X-137097Y185336D01*
X-137253Y185380D01*
X-137292Y185383D01*
X-137330Y185393D01*
X-137493Y185399D01*
X-137654Y185411D01*
X-137693Y185407D01*
X-137733Y185408D01*
X-137893Y185382D01*
X-138054Y185363D01*
X-138091Y185350D01*
X-138130Y185344D01*
X-138282Y185288D01*
X-138436Y185236D01*
X-138470Y185217D01*
X-138507Y185203D01*
X-138645Y185117D01*
X-138786Y185037D01*
X-138816Y185011D01*
X-138849Y184990D01*
X-138967Y184879D01*
X-139090Y184772D01*
X-139113Y184741D01*
X-139142Y184714D01*
X-139319Y184474D01*
X-139335Y184453D01*
X-139337Y184450D01*
X-139339Y184447D01*
X-153330Y161766D01*
X-153382Y161660D01*
X-153442Y161559D01*
X-153470Y161479D01*
X-153507Y161404D01*
X-153536Y161290D01*
X-153575Y161179D01*
X-153587Y161095D01*
X-153608Y161014D01*
X-153615Y160897D01*
X-153631Y160780D01*
X-153626Y160696D01*
X-153631Y160612D01*
X-153614Y160496D01*
X-153607Y160378D01*
X-153584Y160282D01*
X-153574Y160214D01*
X-153551Y160150D01*
X-153528Y160056D01*
X-153278Y159307D01*
X-153270Y159289D01*
X-153150Y159006D01*
X-152749Y158243D01*
X-152759Y158155D01*
X-152750Y158047D01*
X-152750Y157939D01*
X-152732Y157847D01*
X-152724Y157754D01*
X-152693Y157650D01*
X-152672Y157544D01*
X-152636Y157457D01*
X-152610Y157367D01*
X-152560Y157272D01*
X-152518Y157172D01*
X-152466Y157094D01*
X-152422Y157011D01*
X-152354Y156928D01*
X-152294Y156838D01*
X-152276Y156820D01*
X-152139Y155978D01*
X-152134Y155958D01*
X-152061Y155660D01*
X-151788Y154843D01*
X-151812Y154757D01*
X-151819Y154650D01*
X-151837Y154543D01*
X-151834Y154450D01*
X-151841Y154356D01*
X-151827Y154249D01*
X-151824Y154141D01*
X-151802Y154050D01*
X-151791Y153956D01*
X-151756Y153854D01*
X-151731Y153749D01*
X-151692Y153664D01*
X-151662Y153575D01*
X-151609Y153481D01*
X-151564Y153383D01*
X-151549Y153363D01*
X-151549Y152509D01*
X-151547Y152490D01*
X-151522Y152184D01*
X-151384Y151333D01*
X-151421Y151252D01*
X-151446Y151147D01*
X-151481Y151045D01*
X-151493Y150952D01*
X-151515Y150861D01*
X-151519Y150753D01*
X-151532Y150646D01*
X-151526Y150552D01*
X-151529Y150458D01*
X-151512Y150352D01*
X-151504Y150244D01*
X-151479Y150154D01*
X-151464Y150061D01*
X-151426Y149960D01*
X-151397Y149856D01*
X-151386Y149834D01*
X-151522Y148996D01*
X-151522Y148991D01*
X-151524Y148972D01*
X-151549Y148666D01*
X-151549Y147803D01*
X-151598Y147730D01*
X-151640Y147630D01*
X-151690Y147535D01*
X-151717Y147445D01*
X-151753Y147358D01*
X-151774Y147253D01*
X-151805Y147149D01*
X-151814Y147056D01*
X-151832Y146963D01*
X-151832Y146856D01*
X-151842Y146748D01*
X-151832Y146655D01*
X-151831Y146561D01*
X-151810Y146455D01*
X-151798Y146348D01*
X-151791Y146324D01*
X-152061Y145515D01*
X-152065Y145494D01*
X-152139Y145197D01*
X-152339Y143967D01*
X-152339Y143962D01*
X-152341Y143957D01*
X-152352Y143757D01*
X-152364Y143565D01*
X-152363Y143560D01*
X-152363Y143555D01*
X-152335Y143358D01*
X-152309Y143167D01*
X-152307Y143161D01*
X-152306Y143156D01*
X-152241Y142973D01*
X-152176Y142786D01*
X-152174Y142782D01*
X-152172Y142777D01*
X-152007Y142489D01*
X-143203Y129714D01*
X-143194Y129703D01*
X-143187Y129690D01*
X-143065Y129550D01*
X-142943Y129406D01*
X-142932Y129397D01*
X-142922Y129387D01*
X-142774Y129273D01*
X-142627Y129157D01*
X-142615Y129150D01*
X-142603Y129141D01*
X-142308Y128990D01*
X-141793Y128777D01*
X-140374Y127357D01*
X-140367Y127352D01*
X-140362Y127345D01*
X-140212Y127225D01*
X-140063Y127102D01*
X-140055Y127098D01*
X-140048Y127093D01*
X-139878Y127004D01*
X-139707Y126914D01*
X-139698Y126911D01*
X-139691Y126907D01*
X-139506Y126854D01*
X-139321Y126799D01*
X-139312Y126798D01*
X-139304Y126796D01*
X-139113Y126780D01*
X-138920Y126762D01*
X-138911Y126763D01*
X-138902Y126763D01*
X-138713Y126785D01*
X-138520Y126806D01*
X-138511Y126809D01*
X-138503Y126810D01*
X-138321Y126869D01*
X-138136Y126927D01*
X-138128Y126932D01*
X-138120Y126934D01*
X-137953Y127029D01*
X-137784Y127122D01*
X-137777Y127128D01*
X-137769Y127132D01*
X-137624Y127258D01*
X-137477Y127383D01*
X-137471Y127390D01*
X-137464Y127396D01*
X-137348Y127546D01*
X-137227Y127699D01*
X-137223Y127707D01*
X-137218Y127714D01*
X-137132Y127885D01*
X-137045Y128058D01*
X-137042Y128066D01*
X-137038Y128074D01*
X-136988Y128260D01*
X-136937Y128445D01*
X-136936Y128454D01*
X-136934Y128463D01*
X-136907Y128794D01*
X-136907Y128971D01*
X-135399Y132612D01*
X-132612Y135399D01*
X-128971Y136907D01*
X-125029Y136907D01*
X-121388Y135399D01*
X-118601Y132612D01*
X-117093Y128971D01*
X-117093Y125029D01*
X-118270Y122189D01*
X-118274Y122176D01*
X-118280Y122165D01*
X-118331Y121985D01*
X-118386Y121804D01*
X-118387Y121791D01*
X-118391Y121778D01*
X-118406Y121590D01*
X-118424Y121403D01*
X-118423Y121390D01*
X-118424Y121376D01*
X-118402Y121189D01*
X-118383Y121003D01*
X-118379Y120990D01*
X-118377Y120977D01*
X-118319Y120797D01*
X-118263Y120618D01*
X-118256Y120607D01*
X-118252Y120594D01*
X-118159Y120429D01*
X-118070Y120265D01*
X-118061Y120255D01*
X-118054Y120243D01*
X-117931Y120101D01*
X-117810Y119957D01*
X-117800Y119949D01*
X-117791Y119938D01*
X-117643Y119823D01*
X-117496Y119706D01*
X-117484Y119700D01*
X-117473Y119692D01*
X-117304Y119608D01*
X-117137Y119522D01*
X-117125Y119518D01*
X-117113Y119512D01*
X-116930Y119463D01*
X-116750Y119412D01*
X-116737Y119411D01*
X-116724Y119408D01*
X-116393Y119381D01*
X-107374Y119381D01*
X-104666Y118259D01*
X-82655Y96248D01*
X-81533Y93540D01*
X-81533Y56007D01*
X-81531Y55989D01*
X-81533Y55971D01*
X-81512Y55789D01*
X-81493Y55606D01*
X-81488Y55589D01*
X-81486Y55572D01*
X-81429Y55397D01*
X-81375Y55221D01*
X-81367Y55206D01*
X-81361Y55189D01*
X-81271Y55029D01*
X-81183Y54867D01*
X-81172Y54854D01*
X-81163Y54838D01*
X-81043Y54699D01*
X-80926Y54558D01*
X-80912Y54547D01*
X-80900Y54533D01*
X-80755Y54421D01*
X-80612Y54306D01*
X-80596Y54298D01*
X-80582Y54287D01*
X-80417Y54205D01*
X-80255Y54120D01*
X-80238Y54115D01*
X-80222Y54107D01*
X-80043Y54060D01*
X-79868Y54009D01*
X-79850Y54007D01*
X-79833Y54003D01*
X-79502Y53976D01*
X-76668Y53976D01*
X-76650Y53978D01*
G37*
G36*
X67468Y12831D02*
X67468Y12831D01*
X67558Y12830D01*
X67668Y12851D01*
X67780Y12862D01*
X67865Y12888D01*
X67953Y12905D01*
X68057Y12947D01*
X68165Y12980D01*
X68243Y13023D01*
X68326Y13057D01*
X68420Y13119D01*
X68519Y13172D01*
X68587Y13229D01*
X68662Y13279D01*
X68763Y13376D01*
X68828Y13430D01*
X68857Y13466D01*
X68901Y13509D01*
X68954Y13568D01*
X68966Y13585D01*
X69150Y13830D01*
X69611Y14560D01*
X69687Y14594D01*
X69775Y14656D01*
X69869Y14709D01*
X69940Y14771D01*
X70017Y14825D01*
X70091Y14903D01*
X70172Y14975D01*
X70229Y15049D01*
X70294Y15117D01*
X70351Y15209D01*
X70417Y15294D01*
X70458Y15379D01*
X70508Y15458D01*
X70546Y15559D01*
X70594Y15656D01*
X70599Y15676D01*
X71260Y16217D01*
X71274Y16231D01*
X71495Y16444D01*
X72067Y17091D01*
X72148Y17112D01*
X72245Y17159D01*
X72346Y17197D01*
X72426Y17246D01*
X72511Y17287D01*
X72596Y17353D01*
X72688Y17410D01*
X72756Y17474D01*
X72831Y17531D01*
X72902Y17612D01*
X72981Y17686D01*
X73035Y17763D01*
X73097Y17833D01*
X73151Y17927D01*
X73213Y18015D01*
X73221Y18034D01*
X73961Y18462D01*
X73978Y18474D01*
X74230Y18648D01*
X74930Y19221D01*
X74951Y19223D01*
X75025Y19248D01*
X75102Y19263D01*
X75216Y19311D01*
X75333Y19350D01*
X75401Y19389D01*
X75473Y19419D01*
X75575Y19488D01*
X75683Y19549D01*
X75742Y19601D01*
X75807Y19645D01*
X75893Y19733D01*
X75986Y19814D01*
X76034Y19876D01*
X76089Y19932D01*
X76156Y20035D01*
X76232Y20133D01*
X76273Y20214D01*
X76309Y20269D01*
X76336Y20335D01*
X76383Y20428D01*
X77116Y22197D01*
X80367Y25448D01*
X80384Y25469D01*
X80404Y25486D01*
X80511Y25624D01*
X80622Y25760D01*
X80634Y25783D01*
X80651Y25804D01*
X80729Y25961D01*
X80811Y26115D01*
X80818Y26141D01*
X80830Y26165D01*
X80876Y26334D01*
X80925Y26501D01*
X80928Y26528D01*
X80935Y26554D01*
X80962Y26884D01*
X80962Y55099D01*
X80961Y55108D01*
X80962Y55118D01*
X80941Y55308D01*
X80922Y55500D01*
X80919Y55509D01*
X80918Y55518D01*
X80860Y55700D01*
X80804Y55885D01*
X80799Y55893D01*
X80796Y55902D01*
X80703Y56071D01*
X80612Y56239D01*
X80606Y56246D01*
X80601Y56254D01*
X80476Y56402D01*
X80354Y56548D01*
X80347Y56554D01*
X80341Y56561D01*
X80189Y56681D01*
X80040Y56800D01*
X80032Y56804D01*
X80025Y56810D01*
X79852Y56898D01*
X79683Y56986D01*
X79674Y56988D01*
X79666Y56993D01*
X79480Y57044D01*
X79296Y57097D01*
X79287Y57098D01*
X79278Y57100D01*
X79086Y57114D01*
X78895Y57130D01*
X78886Y57129D01*
X78876Y57130D01*
X78685Y57105D01*
X78646Y57101D01*
X71165Y57101D01*
X69826Y58440D01*
X69826Y67141D01*
X69823Y67172D01*
X69825Y67203D01*
X69803Y67373D01*
X69786Y67542D01*
X69777Y67571D01*
X69773Y67602D01*
X69671Y67918D01*
X68913Y69748D01*
X68913Y82652D01*
X69642Y84411D01*
X70989Y85758D01*
X72752Y86488D01*
X72768Y86487D01*
X72950Y86508D01*
X73133Y86527D01*
X73150Y86532D01*
X73167Y86534D01*
X73342Y86591D01*
X73518Y86645D01*
X73533Y86653D01*
X73550Y86659D01*
X73710Y86749D01*
X73872Y86836D01*
X73885Y86848D01*
X73901Y86857D01*
X74040Y86977D01*
X74181Y87094D01*
X74192Y87108D01*
X74206Y87120D01*
X74318Y87265D01*
X74433Y87408D01*
X74441Y87424D01*
X74452Y87438D01*
X74534Y87603D01*
X74619Y87765D01*
X74624Y87782D01*
X74632Y87798D01*
X74679Y87977D01*
X74730Y88152D01*
X74732Y88170D01*
X74736Y88187D01*
X74763Y88518D01*
X74763Y99047D01*
X75880Y100164D01*
X75891Y100178D01*
X75905Y100189D01*
X76019Y100333D01*
X76135Y100475D01*
X76143Y100491D01*
X76154Y100505D01*
X76238Y100669D01*
X76323Y100831D01*
X76329Y100848D01*
X76337Y100864D01*
X76386Y101041D01*
X76438Y101217D01*
X76440Y101235D01*
X76445Y101252D01*
X76458Y101435D01*
X76475Y101618D01*
X76473Y101636D01*
X76474Y101653D01*
X76451Y101834D01*
X76431Y102018D01*
X76426Y102035D01*
X76424Y102053D01*
X76365Y102227D01*
X76310Y102402D01*
X76301Y102418D01*
X76295Y102434D01*
X76204Y102593D01*
X76115Y102754D01*
X76103Y102768D01*
X76094Y102783D01*
X75880Y103036D01*
X74763Y104153D01*
X74763Y114507D01*
X74761Y114525D01*
X74763Y114543D01*
X74742Y114725D01*
X74723Y114908D01*
X74718Y114925D01*
X74716Y114942D01*
X74659Y115117D01*
X74605Y115293D01*
X74597Y115308D01*
X74591Y115325D01*
X74501Y115485D01*
X74413Y115647D01*
X74402Y115660D01*
X74393Y115676D01*
X74273Y115815D01*
X74156Y115956D01*
X74142Y115967D01*
X74130Y115981D01*
X73985Y116093D01*
X73842Y116208D01*
X73826Y116216D01*
X73812Y116227D01*
X73647Y116309D01*
X73485Y116394D01*
X73468Y116399D01*
X73452Y116407D01*
X73273Y116454D01*
X73098Y116505D01*
X73080Y116507D01*
X73063Y116511D01*
X72732Y116538D01*
X70537Y116538D01*
X70511Y116536D01*
X70484Y116538D01*
X70310Y116516D01*
X70137Y116498D01*
X70111Y116491D01*
X70084Y116487D01*
X69919Y116431D01*
X69752Y116380D01*
X69728Y116367D01*
X69703Y116359D01*
X69551Y116272D01*
X69398Y116188D01*
X69377Y116171D01*
X69354Y116158D01*
X69101Y115943D01*
X65532Y112374D01*
X65515Y112353D01*
X65494Y112336D01*
X65388Y112198D01*
X65277Y112063D01*
X65264Y112039D01*
X65248Y112018D01*
X65170Y111862D01*
X65088Y111707D01*
X65080Y111681D01*
X65068Y111657D01*
X65023Y111488D01*
X64973Y111321D01*
X64971Y111294D01*
X64964Y111268D01*
X64937Y110938D01*
X64937Y104153D01*
X63820Y103036D01*
X63809Y103023D01*
X63795Y103011D01*
X63681Y102867D01*
X63565Y102725D01*
X63557Y102709D01*
X63546Y102695D01*
X63462Y102531D01*
X63377Y102369D01*
X63371Y102352D01*
X63363Y102336D01*
X63314Y102159D01*
X63262Y101983D01*
X63260Y101965D01*
X63255Y101948D01*
X63242Y101765D01*
X63225Y101582D01*
X63227Y101564D01*
X63226Y101547D01*
X63249Y101365D01*
X63269Y101182D01*
X63274Y101165D01*
X63276Y101147D01*
X63335Y100974D01*
X63390Y100798D01*
X63399Y100782D01*
X63405Y100766D01*
X63496Y100607D01*
X63585Y100446D01*
X63597Y100432D01*
X63606Y100417D01*
X63820Y100164D01*
X64937Y99047D01*
X64937Y87153D01*
X63597Y85813D01*
X61405Y85813D01*
X61391Y85812D01*
X61378Y85813D01*
X61192Y85792D01*
X61004Y85773D01*
X60991Y85769D01*
X60978Y85768D01*
X60799Y85710D01*
X60619Y85655D01*
X60607Y85649D01*
X60595Y85645D01*
X60431Y85553D01*
X60265Y85463D01*
X60255Y85455D01*
X60243Y85448D01*
X60100Y85326D01*
X59956Y85206D01*
X59948Y85195D01*
X59937Y85187D01*
X59821Y85038D01*
X59704Y84892D01*
X59697Y84880D01*
X59689Y84870D01*
X59604Y84701D01*
X59518Y84535D01*
X59514Y84522D01*
X59508Y84510D01*
X59459Y84328D01*
X59407Y84148D01*
X59406Y84134D01*
X59402Y84121D01*
X59389Y83935D01*
X59374Y83746D01*
X59375Y83733D01*
X59375Y83720D01*
X59399Y83534D01*
X59421Y83347D01*
X59425Y83334D01*
X59427Y83321D01*
X59528Y83005D01*
X59674Y82652D01*
X59674Y69748D01*
X58945Y67989D01*
X57769Y66812D01*
X57752Y66792D01*
X57732Y66774D01*
X57625Y66636D01*
X57514Y66501D01*
X57502Y66477D01*
X57485Y66456D01*
X57407Y66299D01*
X57325Y66145D01*
X57318Y66119D01*
X57306Y66095D01*
X57260Y65926D01*
X57211Y65759D01*
X57208Y65733D01*
X57201Y65707D01*
X57174Y65376D01*
X57174Y58440D01*
X55835Y57101D01*
X48940Y57101D01*
X47601Y58440D01*
X47601Y65376D01*
X47598Y65403D01*
X47600Y65429D01*
X47578Y65603D01*
X47561Y65777D01*
X47553Y65802D01*
X47550Y65829D01*
X47494Y65995D01*
X47443Y66161D01*
X47430Y66185D01*
X47421Y66210D01*
X47334Y66362D01*
X47251Y66516D01*
X47234Y66536D01*
X47220Y66559D01*
X47006Y66812D01*
X45830Y67989D01*
X45101Y69748D01*
X45101Y82652D01*
X45370Y83302D01*
X45373Y83311D01*
X45377Y83319D01*
X45431Y83505D01*
X45487Y83688D01*
X45487Y83697D01*
X45490Y83705D01*
X45507Y83898D01*
X45525Y84089D01*
X45524Y84098D01*
X45525Y84106D01*
X45503Y84298D01*
X45483Y84489D01*
X45480Y84498D01*
X45479Y84507D01*
X45421Y84689D01*
X45363Y84873D01*
X45359Y84881D01*
X45356Y84890D01*
X45263Y85057D01*
X45170Y85227D01*
X45164Y85233D01*
X45160Y85241D01*
X45035Y85388D01*
X44911Y85535D01*
X44904Y85540D01*
X44898Y85547D01*
X44746Y85666D01*
X44596Y85786D01*
X44588Y85790D01*
X44581Y85795D01*
X44409Y85882D01*
X44238Y85970D01*
X44229Y85972D01*
X44221Y85976D01*
X44036Y86027D01*
X43851Y86079D01*
X43842Y86080D01*
X43833Y86082D01*
X43641Y86096D01*
X43449Y86110D01*
X43440Y86109D01*
X43431Y86110D01*
X43241Y86085D01*
X43049Y86062D01*
X43041Y86059D01*
X43032Y86058D01*
X42716Y85956D01*
X42586Y85902D01*
X40172Y85902D01*
X37941Y86826D01*
X37098Y87669D01*
X37077Y87686D01*
X37060Y87707D01*
X36922Y87813D01*
X36787Y87924D01*
X36763Y87937D01*
X36742Y87953D01*
X36586Y88031D01*
X36431Y88113D01*
X36405Y88121D01*
X36381Y88133D01*
X36213Y88178D01*
X36045Y88228D01*
X36018Y88230D01*
X35993Y88237D01*
X35662Y88264D01*
X26559Y88264D01*
X26509Y88259D01*
X26458Y88262D01*
X26309Y88240D01*
X26158Y88225D01*
X26110Y88210D01*
X26060Y88202D01*
X25839Y88126D01*
X25773Y88106D01*
X25762Y88100D01*
X25746Y88095D01*
X25417Y87951D01*
X24976Y88124D01*
X24965Y88127D01*
X24954Y88133D01*
X24770Y88182D01*
X24589Y88233D01*
X24577Y88234D01*
X24565Y88237D01*
X24234Y88264D01*
X23761Y88264D01*
X23632Y88393D01*
X23612Y88410D01*
X23594Y88431D01*
X23456Y88537D01*
X23321Y88648D01*
X23297Y88661D01*
X23276Y88677D01*
X23120Y88755D01*
X22965Y88837D01*
X22939Y88845D01*
X22915Y88857D01*
X22747Y88902D01*
X22579Y88952D01*
X22553Y88954D01*
X22527Y88961D01*
X22196Y88988D01*
X21843Y88988D01*
X21825Y88986D01*
X21807Y88988D01*
X21625Y88967D01*
X21442Y88948D01*
X21425Y88943D01*
X21408Y88941D01*
X21233Y88884D01*
X21057Y88830D01*
X21042Y88822D01*
X21025Y88816D01*
X20865Y88726D01*
X20703Y88638D01*
X20690Y88627D01*
X20674Y88618D01*
X20535Y88498D01*
X20394Y88381D01*
X20383Y88367D01*
X20369Y88355D01*
X20257Y88210D01*
X20142Y88067D01*
X20134Y88051D01*
X20123Y88037D01*
X20041Y87872D01*
X19956Y87710D01*
X19951Y87693D01*
X19943Y87677D01*
X19895Y87498D01*
X19845Y87323D01*
X19843Y87305D01*
X19839Y87288D01*
X19812Y86957D01*
X19812Y63667D01*
X19154Y62080D01*
X17654Y60579D01*
X14518Y57443D01*
X14512Y57436D01*
X14506Y57431D01*
X14502Y57426D01*
X14500Y57424D01*
X14428Y57334D01*
X14385Y57281D01*
X14263Y57132D01*
X14259Y57124D01*
X14253Y57117D01*
X14250Y57111D01*
X14249Y57110D01*
X14201Y57017D01*
X14165Y56947D01*
X14074Y56776D01*
X14072Y56767D01*
X14068Y56760D01*
X14066Y56753D01*
X14065Y56751D01*
X14039Y56660D01*
X14015Y56575D01*
X13960Y56390D01*
X13959Y56381D01*
X13956Y56373D01*
X13956Y56366D01*
X13955Y56364D01*
X13948Y56278D01*
X13940Y56179D01*
X13923Y55989D01*
X13924Y55980D01*
X13923Y55971D01*
X13924Y55965D01*
X13924Y55963D01*
X13935Y55874D01*
X13946Y55782D01*
X13967Y55589D01*
X13969Y55580D01*
X13970Y55572D01*
X13972Y55565D01*
X13973Y55563D01*
X14004Y55467D01*
X14030Y55390D01*
X14088Y55205D01*
X14092Y55197D01*
X14095Y55189D01*
X14098Y55183D01*
X14099Y55181D01*
X14151Y55090D01*
X14190Y55020D01*
X14283Y54853D01*
X14289Y54846D01*
X14293Y54838D01*
X14297Y54833D01*
X14299Y54831D01*
X14375Y54743D01*
X14419Y54692D01*
X14543Y54546D01*
X14550Y54540D01*
X14556Y54533D01*
X14561Y54530D01*
X14563Y54527D01*
X14669Y54446D01*
X14708Y54416D01*
X14859Y54296D01*
X14867Y54292D01*
X14874Y54287D01*
X14880Y54284D01*
X14882Y54282D01*
X15177Y54130D01*
X17885Y53009D01*
X56184Y14710D01*
X56446Y14076D01*
X56457Y14057D01*
X56464Y14035D01*
X56552Y13879D01*
X56637Y13721D01*
X56651Y13704D01*
X56662Y13685D01*
X56779Y13549D01*
X56893Y13411D01*
X56910Y13397D01*
X56925Y13380D01*
X57066Y13270D01*
X57206Y13157D01*
X57225Y13147D01*
X57243Y13133D01*
X57403Y13054D01*
X57562Y12970D01*
X57584Y12964D01*
X57604Y12954D01*
X57777Y12907D01*
X57949Y12857D01*
X57971Y12855D01*
X57992Y12849D01*
X58323Y12822D01*
X67379Y12822D01*
X67468Y12831D01*
G37*
G36*
X-62119Y5153D02*
X-62119Y5153D01*
X-62110Y5152D01*
X-61918Y5173D01*
X-61727Y5192D01*
X-61718Y5195D01*
X-61709Y5196D01*
X-61527Y5253D01*
X-61342Y5310D01*
X-61334Y5315D01*
X-61326Y5317D01*
X-61157Y5410D01*
X-60988Y5502D01*
X-60981Y5508D01*
X-60973Y5512D01*
X-60825Y5637D01*
X-60679Y5760D01*
X-60673Y5767D01*
X-60666Y5773D01*
X-60547Y5924D01*
X-60426Y6074D01*
X-60422Y6082D01*
X-60417Y6088D01*
X-60330Y6260D01*
X-60241Y6431D01*
X-60238Y6439D01*
X-60234Y6447D01*
X-60183Y6633D01*
X-60129Y6818D01*
X-60129Y6827D01*
X-60126Y6835D01*
X-60112Y7028D01*
X-60097Y7219D01*
X-60098Y7228D01*
X-60097Y7237D01*
X-60121Y7430D01*
X-60143Y7619D01*
X-60146Y7627D01*
X-60147Y7636D01*
X-60209Y7819D01*
X-60268Y8002D01*
X-60273Y8010D01*
X-60276Y8018D01*
X-60371Y8183D01*
X-60466Y8352D01*
X-60472Y8359D01*
X-60477Y8367D01*
X-60691Y8620D01*
X-61412Y9340D01*
X-61412Y14703D01*
X-61414Y14729D01*
X-61412Y14756D01*
X-61434Y14930D01*
X-61452Y15103D01*
X-61459Y15129D01*
X-61463Y15156D01*
X-61518Y15321D01*
X-61570Y15488D01*
X-61583Y15512D01*
X-61591Y15537D01*
X-61678Y15689D01*
X-61762Y15842D01*
X-61779Y15863D01*
X-61792Y15886D01*
X-62007Y16139D01*
X-66716Y20849D01*
X-66716Y22367D01*
X-66719Y22394D01*
X-66717Y22420D01*
X-66739Y22594D01*
X-66756Y22768D01*
X-66764Y22793D01*
X-66767Y22820D01*
X-66823Y22986D01*
X-66874Y23153D01*
X-66887Y23176D01*
X-66895Y23202D01*
X-66983Y23353D01*
X-67066Y23507D01*
X-67083Y23527D01*
X-67096Y23550D01*
X-67311Y23803D01*
X-68304Y24797D01*
X-69228Y27027D01*
X-69228Y29441D01*
X-68304Y31672D01*
X-66597Y33379D01*
X-64366Y34303D01*
X-61952Y34303D01*
X-59722Y33379D01*
X-58014Y31672D01*
X-57091Y29441D01*
X-57091Y27027D01*
X-58041Y24733D01*
X-58128Y24627D01*
X-58136Y24611D01*
X-58148Y24597D01*
X-58231Y24433D01*
X-58317Y24271D01*
X-58322Y24254D01*
X-58330Y24238D01*
X-58379Y24062D01*
X-58431Y23885D01*
X-58433Y23867D01*
X-58438Y23850D01*
X-58451Y23667D01*
X-58468Y23484D01*
X-58466Y23466D01*
X-58467Y23448D01*
X-58444Y23267D01*
X-58425Y23084D01*
X-58419Y23067D01*
X-58417Y23049D01*
X-58358Y22875D01*
X-58303Y22700D01*
X-58294Y22684D01*
X-58289Y22667D01*
X-58197Y22508D01*
X-58108Y22348D01*
X-58097Y22334D01*
X-58088Y22318D01*
X-57873Y22065D01*
X-56977Y21169D01*
X-56956Y21152D01*
X-56938Y21132D01*
X-56801Y21025D01*
X-56665Y20914D01*
X-56641Y20902D01*
X-56620Y20885D01*
X-56464Y20807D01*
X-56309Y20725D01*
X-56284Y20718D01*
X-56260Y20706D01*
X-56091Y20660D01*
X-55924Y20611D01*
X-55897Y20608D01*
X-55871Y20601D01*
X-55540Y20574D01*
X-50178Y20574D01*
X-48838Y19235D01*
X-48838Y9340D01*
X-49559Y8620D01*
X-49564Y8613D01*
X-49571Y8607D01*
X-49693Y8456D01*
X-49814Y8308D01*
X-49818Y8300D01*
X-49824Y8293D01*
X-49912Y8123D01*
X-50002Y7953D01*
X-50005Y7944D01*
X-50009Y7936D01*
X-50062Y7752D01*
X-50117Y7567D01*
X-50118Y7558D01*
X-50121Y7549D01*
X-50136Y7358D01*
X-50154Y7166D01*
X-50153Y7157D01*
X-50153Y7148D01*
X-50131Y6959D01*
X-50110Y6765D01*
X-50108Y6757D01*
X-50107Y6748D01*
X-50047Y6566D01*
X-49989Y6382D01*
X-49984Y6374D01*
X-49982Y6365D01*
X-49887Y6198D01*
X-49794Y6029D01*
X-49788Y6022D01*
X-49784Y6015D01*
X-49659Y5870D01*
X-49533Y5722D01*
X-49526Y5717D01*
X-49521Y5710D01*
X-49370Y5593D01*
X-49218Y5473D01*
X-49209Y5469D01*
X-49203Y5463D01*
X-49032Y5378D01*
X-48859Y5290D01*
X-48850Y5288D01*
X-48842Y5284D01*
X-48656Y5234D01*
X-48471Y5182D01*
X-48462Y5182D01*
X-48453Y5179D01*
X-48122Y5152D01*
X-31196Y5152D01*
X-31045Y5167D01*
X-30893Y5175D01*
X-30845Y5187D01*
X-30796Y5192D01*
X-30650Y5237D01*
X-30503Y5274D01*
X-30458Y5296D01*
X-30411Y5310D01*
X-30277Y5383D01*
X-30140Y5448D01*
X-30095Y5482D01*
X-30057Y5502D01*
X-29991Y5557D01*
X-29872Y5644D01*
X-29818Y5689D01*
X-29766Y5744D01*
X-29755Y5753D01*
X-29706Y5794D01*
X-29627Y5890D01*
X-29541Y5981D01*
X-29500Y6046D01*
X-29451Y6105D01*
X-29392Y6216D01*
X-29326Y6322D01*
X-29298Y6393D01*
X-29263Y6461D01*
X-29214Y6616D01*
X-29182Y6698D01*
X-29176Y6733D01*
X-29163Y6777D01*
X-28970Y7620D01*
X-28961Y7696D01*
X-28942Y7770D01*
X-28936Y7896D01*
X-28920Y8020D01*
X-28925Y8096D01*
X-28922Y8172D01*
X-28940Y8296D01*
X-28948Y8408D01*
X-28626Y9228D01*
X-28608Y9293D01*
X-28537Y9518D01*
X-28340Y10383D01*
X-28301Y10418D01*
X-28226Y10519D01*
X-28144Y10614D01*
X-28107Y10680D01*
X-28061Y10742D01*
X-27990Y10888D01*
X-27947Y10964D01*
X-27936Y10998D01*
X-27915Y11040D01*
X-27599Y11845D01*
X-27579Y11918D01*
X-27549Y11989D01*
X-27524Y12111D01*
X-27490Y12232D01*
X-27484Y12309D01*
X-27469Y12383D01*
X-27469Y12509D01*
X-27461Y12620D01*
X-27020Y13383D01*
X-26992Y13444D01*
X-26888Y13657D01*
X-26564Y14483D01*
X-26521Y14511D01*
X-26432Y14600D01*
X-26337Y14682D01*
X-26290Y14742D01*
X-26236Y14796D01*
X-26143Y14930D01*
X-26089Y14999D01*
X-26073Y15031D01*
X-26047Y15069D01*
X-25615Y15818D01*
X-25583Y15887D01*
X-25543Y15953D01*
X-25500Y16070D01*
X-25449Y16184D01*
X-25432Y16259D01*
X-25405Y16331D01*
X-25387Y16455D01*
X-25362Y16563D01*
X-24812Y17252D01*
X-24776Y17309D01*
X-24641Y17503D01*
X-24198Y18272D01*
X-24150Y18294D01*
X-24049Y18368D01*
X-23943Y18435D01*
X-23888Y18487D01*
X-23826Y18533D01*
X-23714Y18652D01*
X-23651Y18711D01*
X-23630Y18741D01*
X-23599Y18774D01*
X-23060Y19450D01*
X-23018Y19514D01*
X-22969Y19573D01*
X-22909Y19683D01*
X-22841Y19788D01*
X-22813Y19859D01*
X-22776Y19927D01*
X-22739Y20046D01*
X-22698Y20150D01*
X-22053Y20749D01*
X-22008Y20800D01*
X-21846Y20972D01*
X-21293Y21666D01*
X-21243Y21680D01*
X-21132Y21739D01*
X-21017Y21789D01*
X-20954Y21833D01*
X-20887Y21868D01*
X-20758Y21969D01*
X-20687Y22019D01*
X-20662Y22045D01*
X-20626Y22073D01*
X-19992Y22661D01*
X-19941Y22719D01*
X-19884Y22769D01*
X-19808Y22869D01*
X-19725Y22963D01*
X-19687Y23029D01*
X-19641Y23090D01*
X-19586Y23203D01*
X-19530Y23300D01*
X-18802Y23796D01*
X-18751Y23839D01*
X-18565Y23985D01*
X-17915Y24589D01*
X-17863Y24596D01*
X-17745Y24637D01*
X-17623Y24670D01*
X-17555Y24703D01*
X-17483Y24729D01*
X-17341Y24809D01*
X-17262Y24848D01*
X-17234Y24870D01*
X-17194Y24893D01*
X-16480Y25380D01*
X-16421Y25429D01*
X-16357Y25470D01*
X-16267Y25558D01*
X-16171Y25638D01*
X-16123Y25698D01*
X-16069Y25751D01*
X-15998Y25855D01*
X-15928Y25942D01*
X-15135Y26324D01*
X-15077Y26359D01*
X-14872Y26476D01*
X-14138Y26976D01*
X-14086Y26975D01*
X-13963Y26998D01*
X-13838Y27012D01*
X-13766Y27036D01*
X-13690Y27050D01*
X-13538Y27108D01*
X-13455Y27135D01*
X-13424Y27152D01*
X-13381Y27169D01*
X-12602Y27544D01*
X-12536Y27584D01*
X-12467Y27615D01*
X-12365Y27688D01*
X-12258Y27754D01*
X-12202Y27806D01*
X-12140Y27850D01*
X-12055Y27942D01*
X-11973Y28018D01*
X-11131Y28278D01*
X-11069Y28304D01*
X-10848Y28389D01*
X-10049Y28774D01*
X-9997Y28765D01*
X-9872Y28770D01*
X-9747Y28765D01*
X-9671Y28777D01*
X-9595Y28780D01*
X-9435Y28815D01*
X-9349Y28829D01*
X-9315Y28841D01*
X-9271Y28851D01*
X-8444Y29106D01*
X-8374Y29136D01*
X-8300Y29157D01*
X-8189Y29214D01*
X-8073Y29262D01*
X-8010Y29305D01*
X-7942Y29340D01*
X-7844Y29418D01*
X-7752Y29481D01*
X-6881Y29612D01*
X-6815Y29629D01*
X-6585Y29680D01*
X-5736Y29941D01*
X-5687Y29925D01*
X-5562Y29911D01*
X-5439Y29888D01*
X-5363Y29889D01*
X-5287Y29880D01*
X-5124Y29891D01*
X-5037Y29892D01*
X-5002Y29899D01*
X-4956Y29902D01*
X-4101Y30031D01*
X-4027Y30050D01*
X-3951Y30060D01*
X-3832Y30100D01*
X-3711Y30131D01*
X-3642Y30164D01*
X-3569Y30188D01*
X-3460Y30251D01*
X-3360Y30299D01*
X-2479Y30299D01*
X-2412Y30305D01*
X-2176Y30321D01*
X-1299Y30454D01*
X-1252Y30430D01*
X-1131Y30398D01*
X-1013Y30356D01*
X-937Y30346D01*
X-863Y30326D01*
X-700Y30312D01*
X-614Y30300D01*
X-578Y30302D01*
X-532Y30299D01*
X332Y30299D01*
X408Y30306D01*
X485Y30304D01*
X608Y30326D01*
X733Y30339D01*
X806Y30361D01*
X881Y30374D01*
X998Y30420D01*
X1105Y30453D01*
X1976Y30321D01*
X2043Y30318D01*
X2279Y30299D01*
X3166Y30299D01*
X3209Y30269D01*
X3324Y30219D01*
X3434Y30160D01*
X3508Y30138D01*
X3578Y30107D01*
X3737Y30070D01*
X3820Y30045D01*
X3856Y30042D01*
X3901Y30031D01*
X4756Y29902D01*
X4832Y29899D01*
X4908Y29885D01*
X5033Y29889D01*
X5158Y29882D01*
X5233Y29893D01*
X5310Y29895D01*
X5432Y29923D01*
X5542Y29940D01*
X6385Y29680D01*
X6451Y29666D01*
X6594Y29633D01*
X6640Y29619D01*
X6655Y29618D01*
X6680Y29612D01*
X6702Y29609D01*
X6745Y29607D01*
X6779Y29600D01*
X6880Y29600D01*
X7041Y29587D01*
X7073Y29590D01*
X7104Y29589D01*
X7176Y29599D01*
X7182Y29599D01*
X7198Y29603D01*
X7272Y29614D01*
X7441Y29633D01*
X7471Y29643D01*
X7503Y29648D01*
X7662Y29706D01*
X7824Y29758D01*
X7851Y29774D01*
X7881Y29785D01*
X8026Y29873D01*
X8174Y29956D01*
X8198Y29977D01*
X8226Y29993D01*
X8351Y30108D01*
X8479Y30219D01*
X8498Y30244D01*
X8522Y30266D01*
X8622Y30404D01*
X8726Y30537D01*
X8740Y30566D01*
X8759Y30592D01*
X8829Y30746D01*
X8905Y30898D01*
X8913Y30929D01*
X8927Y30957D01*
X8966Y31123D01*
X9010Y31287D01*
X9013Y31322D01*
X9019Y31349D01*
X9022Y31435D01*
X9037Y31618D01*
X9037Y32469D01*
X9961Y34699D01*
X11668Y36407D01*
X12294Y36666D01*
X12305Y36672D01*
X12318Y36676D01*
X12483Y36767D01*
X12648Y36856D01*
X12659Y36864D01*
X12671Y36871D01*
X12814Y36993D01*
X12959Y37112D01*
X12967Y37123D01*
X12977Y37131D01*
X13094Y37279D01*
X13213Y37425D01*
X13219Y37437D01*
X13227Y37447D01*
X13312Y37615D01*
X13400Y37781D01*
X13403Y37794D01*
X13409Y37806D01*
X13460Y37987D01*
X13513Y38168D01*
X13514Y38181D01*
X13517Y38194D01*
X13531Y38382D01*
X13547Y38569D01*
X13546Y38582D01*
X13547Y38596D01*
X13523Y38783D01*
X13502Y38969D01*
X13498Y38982D01*
X13496Y38995D01*
X13436Y39173D01*
X13379Y39352D01*
X13372Y39364D01*
X13368Y39377D01*
X13274Y39540D01*
X13183Y39704D01*
X13174Y39714D01*
X13167Y39726D01*
X12953Y39979D01*
X12252Y40679D01*
X12231Y40696D01*
X12214Y40717D01*
X12076Y40823D01*
X11940Y40934D01*
X11917Y40947D01*
X11896Y40963D01*
X11739Y41041D01*
X11585Y41123D01*
X11559Y41131D01*
X11535Y41143D01*
X11366Y41188D01*
X11199Y41238D01*
X11172Y41240D01*
X11146Y41247D01*
X10816Y41274D01*
X-79502Y41274D01*
X-79520Y41272D01*
X-79538Y41274D01*
X-79720Y41253D01*
X-79903Y41234D01*
X-79920Y41229D01*
X-79937Y41227D01*
X-80112Y41170D01*
X-80288Y41116D01*
X-80303Y41108D01*
X-80320Y41102D01*
X-80480Y41012D01*
X-80642Y40924D01*
X-80655Y40913D01*
X-80671Y40904D01*
X-80810Y40784D01*
X-80951Y40667D01*
X-80962Y40653D01*
X-80976Y40641D01*
X-81088Y40496D01*
X-81203Y40353D01*
X-81211Y40337D01*
X-81222Y40323D01*
X-81304Y40158D01*
X-81389Y39996D01*
X-81394Y39979D01*
X-81402Y39963D01*
X-81449Y39784D01*
X-81500Y39609D01*
X-81502Y39591D01*
X-81506Y39574D01*
X-81533Y39243D01*
X-81533Y28693D01*
X-81531Y28666D01*
X-81533Y28639D01*
X-81511Y28465D01*
X-81493Y28292D01*
X-81486Y28267D01*
X-81482Y28240D01*
X-81426Y28074D01*
X-81375Y27907D01*
X-81362Y27884D01*
X-81354Y27858D01*
X-81267Y27707D01*
X-81183Y27553D01*
X-81166Y27533D01*
X-81153Y27509D01*
X-80938Y27256D01*
X-76455Y22773D01*
X-75296Y19975D01*
X-75293Y19949D01*
X-75256Y19827D01*
X-75227Y19703D01*
X-75197Y19635D01*
X-75175Y19564D01*
X-75114Y19452D01*
X-75062Y19336D01*
X-75019Y19275D01*
X-74983Y19210D01*
X-74902Y19112D01*
X-74827Y19008D01*
X-74765Y18948D01*
X-74726Y18901D01*
X-74668Y18854D01*
X-74589Y18778D01*
X-74430Y18648D01*
X-74414Y18638D01*
X-74161Y18462D01*
X-73414Y18029D01*
X-73377Y17954D01*
X-73312Y17868D01*
X-73255Y17776D01*
X-73190Y17708D01*
X-73133Y17633D01*
X-73052Y17562D01*
X-72978Y17484D01*
X-72901Y17429D01*
X-72831Y17367D01*
X-72737Y17314D01*
X-72649Y17251D01*
X-72563Y17213D01*
X-72482Y17166D01*
X-72380Y17132D01*
X-72281Y17088D01*
X-72261Y17084D01*
X-71695Y16444D01*
X-71680Y16429D01*
X-71460Y16217D01*
X-70792Y15670D01*
X-70768Y15590D01*
X-70717Y15495D01*
X-70675Y15395D01*
X-70622Y15317D01*
X-70578Y15235D01*
X-70510Y15151D01*
X-70449Y15062D01*
X-70382Y14996D01*
X-70323Y14924D01*
X-70239Y14855D01*
X-70162Y14780D01*
X-70083Y14728D01*
X-70010Y14669D01*
X-69915Y14619D01*
X-69825Y14560D01*
X-69806Y14552D01*
X-69350Y13830D01*
X-69337Y13813D01*
X-69154Y13568D01*
X-68582Y12921D01*
X-68571Y12838D01*
X-68536Y12736D01*
X-68511Y12631D01*
X-68472Y12546D01*
X-68441Y12457D01*
X-68387Y12364D01*
X-68342Y12266D01*
X-68286Y12190D01*
X-68239Y12109D01*
X-68167Y12028D01*
X-68103Y11941D01*
X-68034Y11878D01*
X-67972Y11808D01*
X-67885Y11743D01*
X-67806Y11670D01*
X-67788Y11660D01*
X-67454Y10873D01*
X-67445Y10855D01*
X-67303Y10584D01*
X-66842Y9853D01*
X-66845Y9769D01*
X-66827Y9663D01*
X-66819Y9555D01*
X-66793Y9465D01*
X-66778Y9372D01*
X-66739Y9272D01*
X-66710Y9168D01*
X-66667Y9084D01*
X-66633Y8997D01*
X-66576Y8905D01*
X-66527Y8809D01*
X-66468Y8736D01*
X-66418Y8656D01*
X-66343Y8578D01*
X-66276Y8494D01*
X-66261Y8481D01*
X-66057Y7651D01*
X-66050Y7631D01*
X-65954Y7341D01*
X-65550Y6390D01*
X-65544Y6378D01*
X-65540Y6365D01*
X-65447Y6201D01*
X-65357Y6036D01*
X-65348Y6026D01*
X-65342Y6015D01*
X-65219Y5872D01*
X-65098Y5728D01*
X-65087Y5720D01*
X-65079Y5710D01*
X-64930Y5595D01*
X-64783Y5477D01*
X-64771Y5471D01*
X-64761Y5463D01*
X-64592Y5379D01*
X-64425Y5293D01*
X-64412Y5290D01*
X-64400Y5284D01*
X-64218Y5235D01*
X-64037Y5184D01*
X-64024Y5183D01*
X-64011Y5179D01*
X-63681Y5152D01*
X-62128Y5152D01*
X-62119Y5153D01*
G37*
G36*
X47359Y95443D02*
X47359Y95443D01*
X47368Y95442D01*
X47557Y95464D01*
X47750Y95485D01*
X47759Y95488D01*
X47767Y95489D01*
X47949Y95548D01*
X48134Y95607D01*
X48142Y95611D01*
X48150Y95614D01*
X48317Y95708D01*
X48486Y95802D01*
X48493Y95807D01*
X48501Y95812D01*
X48646Y95937D01*
X48793Y96062D01*
X48799Y96069D01*
X48806Y96075D01*
X48922Y96225D01*
X49043Y96378D01*
X49047Y96386D01*
X49052Y96393D01*
X49137Y96564D01*
X49225Y96737D01*
X49228Y96746D01*
X49232Y96754D01*
X49281Y96939D01*
X49333Y97125D01*
X49334Y97134D01*
X49336Y97142D01*
X49363Y97473D01*
X49363Y99047D01*
X50480Y100164D01*
X50491Y100178D01*
X50505Y100189D01*
X50619Y100333D01*
X50735Y100475D01*
X50743Y100491D01*
X50754Y100505D01*
X50838Y100669D01*
X50923Y100831D01*
X50929Y100848D01*
X50937Y100864D01*
X50986Y101041D01*
X51038Y101217D01*
X51040Y101235D01*
X51045Y101252D01*
X51058Y101435D01*
X51075Y101618D01*
X51073Y101636D01*
X51074Y101653D01*
X51051Y101834D01*
X51031Y102018D01*
X51026Y102035D01*
X51024Y102053D01*
X50965Y102227D01*
X50910Y102402D01*
X50901Y102418D01*
X50895Y102434D01*
X50804Y102593D01*
X50715Y102754D01*
X50703Y102768D01*
X50694Y102783D01*
X50480Y103036D01*
X49363Y104153D01*
X49363Y116047D01*
X50703Y117387D01*
X57420Y117387D01*
X57437Y117389D01*
X57455Y117387D01*
X57637Y117408D01*
X57820Y117427D01*
X57837Y117432D01*
X57855Y117434D01*
X58029Y117491D01*
X58205Y117545D01*
X58221Y117553D01*
X58238Y117559D01*
X58398Y117649D01*
X58559Y117737D01*
X58573Y117748D01*
X58588Y117757D01*
X58728Y117877D01*
X58868Y117994D01*
X58880Y118008D01*
X58893Y118020D01*
X59006Y118165D01*
X59121Y118308D01*
X59129Y118324D01*
X59140Y118338D01*
X59222Y118503D01*
X59306Y118665D01*
X59311Y118682D01*
X59319Y118698D01*
X59367Y118877D01*
X59418Y119052D01*
X59419Y119070D01*
X59424Y119087D01*
X59451Y119418D01*
X59451Y129772D01*
X60790Y131112D01*
X61361Y131112D01*
X61383Y131114D01*
X61405Y131112D01*
X61583Y131134D01*
X61761Y131152D01*
X61783Y131158D01*
X61805Y131161D01*
X61975Y131217D01*
X62146Y131270D01*
X62166Y131280D01*
X62187Y131287D01*
X62343Y131376D01*
X62500Y131462D01*
X62517Y131476D01*
X62537Y131487D01*
X62672Y131605D01*
X62810Y131719D01*
X62823Y131737D01*
X62840Y131751D01*
X62950Y131893D01*
X63062Y132033D01*
X63072Y132053D01*
X63086Y132071D01*
X63237Y132366D01*
X63576Y133184D01*
X69317Y138924D01*
X69334Y138945D01*
X69354Y138963D01*
X69461Y139101D01*
X69572Y139236D01*
X69584Y139260D01*
X69601Y139281D01*
X69679Y139438D01*
X69761Y139592D01*
X69768Y139617D01*
X69780Y139641D01*
X69826Y139811D01*
X69875Y139978D01*
X69878Y140004D01*
X69885Y140030D01*
X69912Y140361D01*
X69912Y146547D01*
X69910Y146560D01*
X69912Y146573D01*
X69891Y146760D01*
X69872Y146947D01*
X69868Y146960D01*
X69866Y146974D01*
X69809Y147152D01*
X69754Y147332D01*
X69747Y147344D01*
X69743Y147357D01*
X69651Y147521D01*
X69562Y147686D01*
X69553Y147697D01*
X69547Y147708D01*
X69424Y147852D01*
X69304Y147996D01*
X69294Y148004D01*
X69285Y148014D01*
X69136Y148131D01*
X68990Y148248D01*
X68979Y148254D01*
X68968Y148262D01*
X68799Y148347D01*
X68633Y148433D01*
X68620Y148437D01*
X68608Y148443D01*
X68427Y148493D01*
X68246Y148545D01*
X68233Y148546D01*
X68220Y148549D01*
X68033Y148562D01*
X67845Y148578D01*
X67832Y148576D01*
X67818Y148577D01*
X67633Y148553D01*
X67445Y148531D01*
X67432Y148527D01*
X67419Y148525D01*
X67103Y148423D01*
X66777Y148288D01*
X53873Y148288D01*
X52114Y149017D01*
X50767Y150364D01*
X50295Y151502D01*
X50291Y151510D01*
X50289Y151519D01*
X50197Y151687D01*
X50105Y151857D01*
X50100Y151864D01*
X50095Y151872D01*
X49971Y152019D01*
X49849Y152167D01*
X49842Y152173D01*
X49836Y152180D01*
X49686Y152300D01*
X49536Y152421D01*
X49528Y152425D01*
X49521Y152431D01*
X49350Y152519D01*
X49180Y152608D01*
X49171Y152611D01*
X49163Y152615D01*
X48979Y152667D01*
X48793Y152721D01*
X48784Y152722D01*
X48776Y152725D01*
X48585Y152739D01*
X48392Y152756D01*
X48383Y152755D01*
X48374Y152756D01*
X48183Y152732D01*
X47992Y152711D01*
X47984Y152708D01*
X47975Y152707D01*
X47791Y152646D01*
X47609Y152588D01*
X47601Y152583D01*
X47592Y152580D01*
X47425Y152485D01*
X47257Y152391D01*
X47250Y152385D01*
X47243Y152381D01*
X47098Y152255D01*
X46951Y152129D01*
X46946Y152122D01*
X46939Y152117D01*
X46821Y151963D01*
X46703Y151812D01*
X46699Y151805D01*
X46694Y151797D01*
X46542Y151502D01*
X46070Y150364D01*
X44724Y149017D01*
X42965Y148288D01*
X31867Y148288D01*
X31858Y148287D01*
X31849Y148288D01*
X31656Y148267D01*
X31467Y148248D01*
X31458Y148246D01*
X31449Y148245D01*
X31265Y148187D01*
X31082Y148130D01*
X31074Y148126D01*
X31065Y148123D01*
X30897Y148030D01*
X30728Y147939D01*
X30721Y147933D01*
X30713Y147928D01*
X30566Y147804D01*
X30418Y147681D01*
X30413Y147674D01*
X30406Y147668D01*
X30287Y147517D01*
X30166Y147367D01*
X30162Y147359D01*
X30156Y147352D01*
X30069Y147179D01*
X29981Y147010D01*
X29978Y147001D01*
X29974Y146993D01*
X29922Y146806D01*
X29869Y146623D01*
X29868Y146614D01*
X29866Y146605D01*
X29852Y146413D01*
X29836Y146222D01*
X29837Y146213D01*
X29837Y146204D01*
X29861Y146011D01*
X29883Y145822D01*
X29886Y145813D01*
X29887Y145804D01*
X29949Y145619D01*
X30008Y145439D01*
X30012Y145431D01*
X30015Y145423D01*
X30111Y145256D01*
X30206Y145088D01*
X30212Y145082D01*
X30216Y145074D01*
X30431Y144821D01*
X36826Y138426D01*
X36846Y138409D01*
X36864Y138389D01*
X37002Y138282D01*
X37137Y138171D01*
X37161Y138159D01*
X37182Y138142D01*
X37339Y138064D01*
X37493Y137982D01*
X37518Y137975D01*
X37542Y137963D01*
X37712Y137917D01*
X37879Y137868D01*
X37905Y137865D01*
X37931Y137858D01*
X38262Y137831D01*
X39307Y137831D01*
X41538Y136907D01*
X43245Y135200D01*
X44169Y132970D01*
X44169Y130555D01*
X43245Y128325D01*
X41538Y126618D01*
X39307Y125694D01*
X36893Y125694D01*
X34662Y126618D01*
X32955Y128325D01*
X32031Y130555D01*
X32031Y131601D01*
X32029Y131627D01*
X32031Y131654D01*
X32009Y131828D01*
X31991Y132001D01*
X31984Y132027D01*
X31980Y132053D01*
X31925Y132219D01*
X31873Y132386D01*
X31860Y132410D01*
X31852Y132435D01*
X31765Y132587D01*
X31681Y132740D01*
X31664Y132761D01*
X31651Y132784D01*
X31436Y133037D01*
X25171Y139302D01*
X25157Y139313D01*
X25146Y139327D01*
X25002Y139441D01*
X24860Y139557D01*
X24844Y139566D01*
X24830Y139577D01*
X24665Y139660D01*
X24504Y139746D01*
X24487Y139751D01*
X24471Y139759D01*
X24293Y139808D01*
X24118Y139861D01*
X24100Y139862D01*
X24083Y139867D01*
X23900Y139880D01*
X23717Y139897D01*
X23699Y139895D01*
X23682Y139896D01*
X23500Y139873D01*
X23317Y139854D01*
X23300Y139848D01*
X23282Y139846D01*
X23109Y139788D01*
X22933Y139732D01*
X22917Y139723D01*
X22900Y139718D01*
X22741Y139626D01*
X22581Y139537D01*
X22567Y139526D01*
X22552Y139517D01*
X22299Y139302D01*
X20958Y137961D01*
X20946Y137948D01*
X20933Y137936D01*
X20819Y137792D01*
X20703Y137650D01*
X20694Y137634D01*
X20683Y137620D01*
X20600Y137456D01*
X20514Y137294D01*
X20509Y137277D01*
X20501Y137261D01*
X20451Y137084D01*
X20399Y136908D01*
X20398Y136890D01*
X20393Y136873D01*
X20379Y136690D01*
X20363Y136507D01*
X20365Y136489D01*
X20363Y136472D01*
X20386Y136290D01*
X20406Y136107D01*
X20412Y136090D01*
X20414Y136072D01*
X20472Y135899D01*
X20528Y135723D01*
X20536Y135707D01*
X20542Y135691D01*
X20634Y135531D01*
X20723Y135371D01*
X20734Y135357D01*
X20743Y135342D01*
X20958Y135089D01*
X22074Y133972D01*
X22074Y124549D01*
X22080Y124493D01*
X22077Y124438D01*
X22100Y124294D01*
X22114Y124148D01*
X22130Y124095D01*
X22139Y124040D01*
X22189Y123903D01*
X22232Y123763D01*
X22259Y123714D01*
X22278Y123662D01*
X22354Y123538D01*
X22424Y123409D01*
X22460Y123367D01*
X22489Y123319D01*
X22588Y123212D01*
X22682Y123100D01*
X22725Y123065D01*
X22763Y123025D01*
X22935Y122896D01*
X22996Y122848D01*
X23011Y122839D01*
X23029Y122826D01*
X23537Y122509D01*
X23539Y122508D01*
X23541Y122506D01*
X23836Y122355D01*
X24142Y122228D01*
X24238Y122132D01*
X24288Y122091D01*
X24332Y122044D01*
X24484Y121931D01*
X24550Y121877D01*
X24572Y121865D01*
X24598Y121846D01*
X24713Y121774D01*
X24905Y121504D01*
X24907Y121502D01*
X24908Y121500D01*
X25123Y121247D01*
X25214Y121156D01*
X25234Y121140D01*
X25252Y121119D01*
X25390Y121012D01*
X25525Y120901D01*
X25549Y120889D01*
X25570Y120873D01*
X25726Y120795D01*
X25881Y120713D01*
X25906Y120705D01*
X25930Y120693D01*
X26099Y120648D01*
X26267Y120598D01*
X26293Y120596D01*
X26319Y120589D01*
X26650Y120562D01*
X33435Y120562D01*
X34774Y119222D01*
X34774Y107328D01*
X33658Y106211D01*
X33646Y106198D01*
X33633Y106186D01*
X33519Y106042D01*
X33403Y105900D01*
X33394Y105884D01*
X33383Y105870D01*
X33300Y105706D01*
X33214Y105544D01*
X33209Y105527D01*
X33201Y105511D01*
X33152Y105334D01*
X33099Y105158D01*
X33098Y105140D01*
X33093Y105123D01*
X33079Y104940D01*
X33063Y104757D01*
X33065Y104739D01*
X33063Y104722D01*
X33086Y104540D01*
X33106Y104357D01*
X33112Y104340D01*
X33114Y104322D01*
X33172Y104149D01*
X33228Y103973D01*
X33236Y103957D01*
X33242Y103941D01*
X33334Y103782D01*
X33423Y103621D01*
X33434Y103607D01*
X33443Y103592D01*
X33658Y103339D01*
X34774Y102222D01*
X34774Y98844D01*
X34776Y98831D01*
X34774Y98817D01*
X34796Y98630D01*
X34814Y98443D01*
X34818Y98431D01*
X34820Y98417D01*
X34877Y98238D01*
X34932Y98059D01*
X34939Y98047D01*
X34943Y98034D01*
X35034Y97870D01*
X35124Y97705D01*
X35133Y97694D01*
X35139Y97683D01*
X35262Y97539D01*
X35382Y97395D01*
X35392Y97387D01*
X35401Y97377D01*
X35549Y97261D01*
X35696Y97143D01*
X35707Y97137D01*
X35718Y97128D01*
X35887Y97044D01*
X36053Y96957D01*
X36066Y96954D01*
X36078Y96948D01*
X36260Y96898D01*
X36440Y96846D01*
X36453Y96845D01*
X36466Y96841D01*
X36653Y96829D01*
X36841Y96813D01*
X36854Y96815D01*
X36868Y96814D01*
X37053Y96838D01*
X37241Y96860D01*
X37254Y96864D01*
X37267Y96866D01*
X37583Y96967D01*
X40172Y98040D01*
X42586Y98040D01*
X44817Y97116D01*
X45896Y96037D01*
X45903Y96031D01*
X45908Y96024D01*
X46059Y95903D01*
X46207Y95782D01*
X46215Y95777D01*
X46222Y95772D01*
X46392Y95683D01*
X46563Y95593D01*
X46572Y95590D01*
X46579Y95586D01*
X46764Y95533D01*
X46949Y95478D01*
X46958Y95477D01*
X46966Y95475D01*
X47157Y95459D01*
X47350Y95442D01*
X47359Y95443D01*
G37*
G36*
X18Y53978D02*
X18Y53978D01*
X36Y53976D01*
X218Y53997D01*
X401Y54016D01*
X418Y54021D01*
X435Y54023D01*
X610Y54080D01*
X786Y54134D01*
X801Y54142D01*
X818Y54148D01*
X978Y54238D01*
X1140Y54326D01*
X1153Y54337D01*
X1169Y54346D01*
X1308Y54466D01*
X1449Y54583D01*
X1460Y54597D01*
X1474Y54609D01*
X1586Y54754D01*
X1701Y54897D01*
X1709Y54913D01*
X1720Y54927D01*
X1802Y55092D01*
X1887Y55254D01*
X1892Y55271D01*
X1900Y55287D01*
X1947Y55466D01*
X1998Y55641D01*
X2000Y55659D01*
X2004Y55676D01*
X2031Y56007D01*
X2031Y56242D01*
X2689Y57829D01*
X10579Y65720D01*
X10596Y65741D01*
X10617Y65758D01*
X10724Y65896D01*
X10834Y66031D01*
X10847Y66055D01*
X10863Y66076D01*
X10941Y66233D01*
X11023Y66387D01*
X11031Y66413D01*
X11043Y66437D01*
X11088Y66606D01*
X11138Y66773D01*
X11140Y66800D01*
X11147Y66825D01*
X11174Y67156D01*
X11174Y102640D01*
X11832Y104227D01*
X18606Y111001D01*
X18623Y111022D01*
X18643Y111039D01*
X18750Y111177D01*
X18861Y111312D01*
X18873Y111336D01*
X18890Y111357D01*
X18968Y111514D01*
X19050Y111668D01*
X19057Y111694D01*
X19069Y111718D01*
X19115Y111887D01*
X19164Y112054D01*
X19167Y112081D01*
X19174Y112107D01*
X19201Y112437D01*
X19201Y113907D01*
X19195Y113963D01*
X19198Y114018D01*
X19175Y114162D01*
X19161Y114308D01*
X19145Y114361D01*
X19136Y114416D01*
X19086Y114553D01*
X19043Y114693D01*
X19016Y114742D01*
X18997Y114794D01*
X18921Y114918D01*
X18851Y115047D01*
X18815Y115090D01*
X18786Y115137D01*
X18687Y115244D01*
X18593Y115356D01*
X18550Y115391D01*
X18512Y115432D01*
X18339Y115560D01*
X18279Y115609D01*
X18264Y115617D01*
X18246Y115630D01*
X12446Y119255D01*
X12444Y119256D01*
X12442Y119257D01*
X12147Y119409D01*
X11509Y119673D01*
X11496Y119677D01*
X11484Y119683D01*
X11304Y119735D01*
X11123Y119790D01*
X11110Y119791D01*
X11097Y119795D01*
X10909Y119810D01*
X10723Y119828D01*
X10709Y119826D01*
X10696Y119828D01*
X10508Y119806D01*
X10322Y119786D01*
X10309Y119782D01*
X10296Y119781D01*
X10117Y119722D01*
X9938Y119666D01*
X9926Y119660D01*
X9913Y119656D01*
X9749Y119563D01*
X9585Y119473D01*
X9574Y119465D01*
X9563Y119458D01*
X9420Y119335D01*
X9276Y119214D01*
X9268Y119203D01*
X9258Y119195D01*
X9143Y119046D01*
X9025Y118899D01*
X9019Y118887D01*
X9011Y118877D01*
X8927Y118708D01*
X8842Y118541D01*
X8838Y118528D01*
X8832Y118516D01*
X8783Y118333D01*
X8732Y118154D01*
X8731Y118140D01*
X8727Y118127D01*
X8700Y117797D01*
X8700Y110068D01*
X5873Y107241D01*
X5873Y107240D01*
X-14081Y87286D01*
X-14093Y87272D01*
X-14106Y87261D01*
X-14220Y87116D01*
X-14336Y86974D01*
X-14345Y86959D01*
X-14356Y86945D01*
X-14439Y86780D01*
X-14525Y86619D01*
X-14530Y86602D01*
X-14538Y86586D01*
X-14588Y86408D01*
X-14640Y86233D01*
X-14642Y86215D01*
X-14646Y86198D01*
X-14660Y86015D01*
X-14676Y85832D01*
X-14674Y85814D01*
X-14676Y85796D01*
X-14653Y85614D01*
X-14633Y85432D01*
X-14627Y85415D01*
X-14625Y85397D01*
X-14567Y85224D01*
X-14511Y85048D01*
X-14503Y85032D01*
X-14497Y85015D01*
X-14405Y84856D01*
X-14317Y84695D01*
X-14305Y84682D01*
X-14296Y84666D01*
X-14081Y84413D01*
X-14080Y84411D01*
X-13351Y82652D01*
X-13351Y69748D01*
X-14080Y67989D01*
X-15426Y66642D01*
X-16211Y66317D01*
X-16223Y66311D01*
X-16236Y66307D01*
X-16400Y66216D01*
X-16566Y66127D01*
X-16576Y66118D01*
X-16588Y66112D01*
X-16731Y65990D01*
X-16876Y65870D01*
X-16885Y65860D01*
X-16895Y65851D01*
X-17011Y65704D01*
X-17130Y65558D01*
X-17136Y65546D01*
X-17145Y65535D01*
X-17230Y65368D01*
X-17317Y65201D01*
X-17321Y65188D01*
X-17327Y65176D01*
X-17377Y64995D01*
X-17430Y64815D01*
X-17431Y64801D01*
X-17435Y64788D01*
X-17449Y64600D01*
X-17465Y64414D01*
X-17463Y64400D01*
X-17464Y64387D01*
X-17441Y64200D01*
X-17438Y64179D01*
X-17438Y56007D01*
X-17436Y55989D01*
X-17438Y55971D01*
X-17417Y55789D01*
X-17398Y55606D01*
X-17393Y55589D01*
X-17391Y55572D01*
X-17334Y55397D01*
X-17280Y55221D01*
X-17272Y55206D01*
X-17266Y55189D01*
X-17176Y55029D01*
X-17088Y54867D01*
X-17077Y54854D01*
X-17068Y54838D01*
X-16948Y54699D01*
X-16831Y54558D01*
X-16817Y54547D01*
X-16805Y54533D01*
X-16660Y54421D01*
X-16517Y54306D01*
X-16501Y54298D01*
X-16487Y54287D01*
X-16322Y54205D01*
X-16160Y54120D01*
X-16143Y54115D01*
X-16127Y54107D01*
X-15948Y54060D01*
X-15773Y54009D01*
X-15755Y54007D01*
X-15738Y54003D01*
X-15407Y53976D01*
X0Y53976D01*
X18Y53978D01*
G37*
G36*
X131841Y198155D02*
X131841Y198155D01*
X131884Y198154D01*
X135877Y198754D01*
X135907Y198765D01*
X135950Y198771D01*
X139809Y199960D01*
X139837Y199975D01*
X139878Y199987D01*
X143516Y201738D01*
X143538Y201754D01*
X143564Y201764D01*
X143617Y201814D01*
X143675Y201858D01*
X143688Y201881D01*
X143708Y201900D01*
X143738Y201967D01*
X143774Y202030D01*
X143777Y202057D01*
X143788Y202082D01*
X143789Y202155D01*
X143798Y202228D01*
X143790Y202254D01*
X143790Y202281D01*
X143754Y202380D01*
X143742Y202419D01*
X143736Y202426D01*
X143732Y202437D01*
X116732Y249237D01*
X116714Y249257D01*
X116703Y249282D01*
X116649Y249331D01*
X116601Y249386D01*
X116576Y249398D01*
X116556Y249416D01*
X116487Y249440D01*
X116421Y249472D01*
X116394Y249473D01*
X116369Y249482D01*
X116296Y249477D01*
X116223Y249481D01*
X116197Y249471D01*
X116170Y249470D01*
X116074Y249426D01*
X116036Y249411D01*
X116029Y249405D01*
X116019Y249400D01*
X112682Y247127D01*
X112660Y247104D01*
X112624Y247080D01*
X109663Y244335D01*
X109644Y244309D01*
X109612Y244280D01*
X107094Y241124D01*
X107079Y241096D01*
X107052Y241063D01*
X105032Y237566D01*
X105022Y237536D01*
X104999Y237499D01*
X103523Y233741D01*
X103518Y233710D01*
X103501Y233670D01*
X102601Y229734D01*
X102601Y229702D01*
X102590Y229660D01*
X102287Y225634D01*
X102290Y225610D01*
X102287Y225590D01*
X102289Y225581D01*
X102287Y225559D01*
X102588Y221533D01*
X102596Y221502D01*
X102599Y221459D01*
X103496Y217522D01*
X103509Y217493D01*
X103518Y217451D01*
X104992Y213692D01*
X105009Y213665D01*
X105024Y213624D01*
X107042Y210127D01*
X107063Y210103D01*
X107084Y210065D01*
X109600Y206908D01*
X109625Y206887D01*
X109651Y206853D01*
X112610Y204106D01*
X112637Y204089D01*
X112668Y204059D01*
X116004Y201784D01*
X116033Y201771D01*
X116068Y201746D01*
X119706Y199993D01*
X119736Y199986D01*
X119775Y199966D01*
X123633Y198775D01*
X123665Y198772D01*
X123706Y198758D01*
X127698Y198155D01*
X127730Y198157D01*
X127772Y198149D01*
X131810Y198148D01*
X131841Y198155D01*
G37*
G36*
X-127972Y198149D02*
X-127972Y198149D01*
X-127941Y198156D01*
X-127898Y198155D01*
X-123906Y198758D01*
X-123876Y198769D01*
X-123833Y198775D01*
X-119975Y199966D01*
X-119947Y199981D01*
X-119906Y199993D01*
X-116268Y201746D01*
X-116243Y201766D01*
X-116204Y201784D01*
X-112868Y204059D01*
X-112846Y204082D01*
X-112810Y204106D01*
X-109851Y206853D01*
X-109832Y206879D01*
X-109800Y206908D01*
X-107284Y210065D01*
X-107269Y210094D01*
X-107242Y210127D01*
X-105224Y213624D01*
X-105214Y213655D01*
X-105192Y213692D01*
X-103718Y217451D01*
X-103712Y217482D01*
X-103696Y217522D01*
X-102799Y221459D01*
X-102798Y221491D01*
X-102788Y221533D01*
X-102487Y225559D01*
X-102491Y225591D01*
X-102490Y225607D01*
X-102487Y225623D01*
X-102488Y225627D01*
X-102487Y225634D01*
X-102790Y229660D01*
X-102799Y229691D01*
X-102801Y229734D01*
X-103701Y233670D01*
X-103714Y233699D01*
X-103723Y233741D01*
X-105199Y237499D01*
X-105217Y237526D01*
X-105232Y237566D01*
X-107252Y241063D01*
X-107273Y241086D01*
X-107294Y241124D01*
X-109812Y244280D01*
X-109837Y244301D01*
X-109863Y244335D01*
X-112824Y247080D01*
X-112851Y247097D01*
X-112882Y247127D01*
X-116219Y249400D01*
X-116244Y249411D01*
X-116265Y249428D01*
X-116335Y249449D01*
X-116402Y249477D01*
X-116430Y249477D01*
X-116456Y249485D01*
X-116528Y249477D01*
X-116601Y249476D01*
X-116626Y249466D01*
X-116653Y249463D01*
X-116717Y249427D01*
X-116784Y249398D01*
X-116803Y249379D01*
X-116826Y249365D01*
X-116894Y249284D01*
X-116922Y249255D01*
X-116925Y249246D01*
X-116932Y249237D01*
X-143932Y202437D01*
X-143941Y202411D01*
X-143957Y202389D01*
X-143972Y202318D01*
X-143996Y202248D01*
X-143993Y202221D01*
X-143999Y202195D01*
X-143986Y202123D01*
X-143980Y202050D01*
X-143967Y202026D01*
X-143962Y201999D01*
X-143922Y201939D01*
X-143888Y201874D01*
X-143867Y201856D01*
X-143852Y201834D01*
X-143766Y201773D01*
X-143735Y201747D01*
X-143726Y201744D01*
X-143716Y201738D01*
X-140078Y199987D01*
X-140047Y199979D01*
X-140009Y199960D01*
X-136150Y198771D01*
X-136118Y198768D01*
X-136077Y198754D01*
X-132084Y198154D01*
X-132053Y198155D01*
X-132010Y198148D01*
X-127972Y198149D01*
G37*
G36*
X116328Y51698D02*
X116328Y51698D01*
X116401Y51699D01*
X116426Y51709D01*
X116453Y51712D01*
X116517Y51748D01*
X116584Y51777D01*
X116603Y51796D01*
X116626Y51810D01*
X116694Y51891D01*
X116722Y51920D01*
X116725Y51929D01*
X116732Y51938D01*
X143732Y98738D01*
X143741Y98764D01*
X143757Y98786D01*
X143772Y98857D01*
X143796Y98927D01*
X143793Y98954D01*
X143799Y98980D01*
X143786Y99052D01*
X143780Y99125D01*
X143767Y99149D01*
X143762Y99176D01*
X143722Y99237D01*
X143688Y99301D01*
X143667Y99319D01*
X143652Y99341D01*
X143566Y99402D01*
X143535Y99428D01*
X143526Y99431D01*
X143516Y99437D01*
X139878Y101188D01*
X139847Y101196D01*
X139809Y101215D01*
X135950Y102404D01*
X135918Y102407D01*
X135877Y102421D01*
X131884Y103021D01*
X131853Y103020D01*
X131810Y103027D01*
X127772Y103026D01*
X127741Y103019D01*
X127698Y103020D01*
X123706Y102417D01*
X123676Y102406D01*
X123633Y102400D01*
X119775Y101209D01*
X119747Y101194D01*
X119706Y101182D01*
X116068Y99429D01*
X116043Y99409D01*
X116004Y99391D01*
X112668Y97116D01*
X112646Y97093D01*
X112610Y97069D01*
X109651Y94322D01*
X109632Y94296D01*
X109600Y94267D01*
X107084Y91110D01*
X107069Y91081D01*
X107042Y91048D01*
X105024Y87551D01*
X105014Y87520D01*
X104992Y87483D01*
X103518Y83724D01*
X103512Y83693D01*
X103496Y83653D01*
X102599Y79716D01*
X102598Y79684D01*
X102588Y79642D01*
X102287Y75616D01*
X102291Y75584D01*
X102287Y75541D01*
X102590Y71515D01*
X102599Y71484D01*
X102601Y71441D01*
X103501Y67505D01*
X103514Y67476D01*
X103523Y67434D01*
X104999Y63676D01*
X105017Y63649D01*
X105032Y63609D01*
X107052Y60113D01*
X107073Y60089D01*
X107094Y60051D01*
X109612Y56895D01*
X109637Y56875D01*
X109663Y56840D01*
X112624Y54095D01*
X112651Y54078D01*
X112682Y54048D01*
X116019Y51775D01*
X116044Y51764D01*
X116065Y51747D01*
X116135Y51726D01*
X116202Y51698D01*
X116230Y51698D01*
X116256Y51690D01*
X116328Y51698D01*
G37*
G36*
X-116496Y51698D02*
X-116496Y51698D01*
X-116423Y51694D01*
X-116397Y51704D01*
X-116370Y51705D01*
X-116274Y51749D01*
X-116236Y51764D01*
X-116229Y51770D01*
X-116219Y51775D01*
X-112882Y54048D01*
X-112860Y54071D01*
X-112824Y54095D01*
X-109863Y56840D01*
X-109844Y56866D01*
X-109812Y56895D01*
X-107294Y60051D01*
X-107279Y60079D01*
X-107252Y60113D01*
X-105232Y63609D01*
X-105222Y63639D01*
X-105199Y63676D01*
X-103723Y67434D01*
X-103718Y67465D01*
X-103701Y67505D01*
X-102801Y71441D01*
X-102801Y71473D01*
X-102790Y71515D01*
X-102487Y75541D01*
X-102491Y75573D01*
X-102487Y75616D01*
X-102788Y79642D01*
X-102796Y79673D01*
X-102799Y79716D01*
X-103696Y83653D01*
X-103709Y83682D01*
X-103718Y83724D01*
X-105192Y87483D01*
X-105209Y87510D01*
X-105224Y87551D01*
X-107242Y91048D01*
X-107263Y91072D01*
X-107284Y91110D01*
X-109800Y94267D01*
X-109825Y94288D01*
X-109851Y94322D01*
X-112810Y97069D01*
X-112837Y97086D01*
X-112868Y97116D01*
X-116204Y99391D01*
X-116233Y99404D01*
X-116268Y99429D01*
X-119906Y101182D01*
X-119936Y101189D01*
X-119975Y101209D01*
X-123833Y102400D01*
X-123865Y102403D01*
X-123906Y102417D01*
X-127898Y103020D01*
X-127930Y103018D01*
X-127972Y103026D01*
X-132010Y103027D01*
X-132041Y103021D01*
X-132084Y103021D01*
X-136077Y102421D01*
X-136107Y102410D01*
X-136150Y102404D01*
X-140009Y101215D01*
X-140037Y101200D01*
X-140078Y101188D01*
X-143716Y99437D01*
X-143738Y99421D01*
X-143764Y99411D01*
X-143817Y99361D01*
X-143875Y99317D01*
X-143888Y99294D01*
X-143908Y99275D01*
X-143938Y99208D01*
X-143974Y99145D01*
X-143977Y99118D01*
X-143988Y99093D01*
X-143989Y99020D01*
X-143998Y98947D01*
X-143990Y98921D01*
X-143990Y98894D01*
X-143954Y98795D01*
X-143942Y98756D01*
X-143936Y98749D01*
X-143932Y98738D01*
X-116932Y51938D01*
X-116914Y51918D01*
X-116903Y51893D01*
X-116849Y51844D01*
X-116801Y51789D01*
X-116776Y51777D01*
X-116756Y51759D01*
X-116687Y51735D01*
X-116621Y51703D01*
X-116594Y51702D01*
X-116569Y51693D01*
X-116496Y51698D01*
G37*
G36*
X26927Y94D02*
X26927Y94D01*
X26954Y91D01*
X27023Y113D01*
X27095Y128D01*
X27117Y143D01*
X27143Y152D01*
X27199Y199D01*
X27259Y240D01*
X27273Y263D01*
X27294Y281D01*
X27327Y346D01*
X27366Y408D01*
X27370Y435D01*
X27382Y459D01*
X27392Y564D01*
X27399Y604D01*
X27397Y613D01*
X27398Y625D01*
X27096Y4649D01*
X27088Y4680D01*
X27085Y4723D01*
X26187Y8657D01*
X26174Y8686D01*
X26165Y8728D01*
X24691Y12485D01*
X24674Y12512D01*
X24659Y12552D01*
X22641Y16047D01*
X22620Y16071D01*
X22599Y16108D01*
X20083Y19263D01*
X20058Y19284D01*
X20032Y19318D01*
X17074Y22063D01*
X17047Y22079D01*
X17015Y22109D01*
X13681Y24383D01*
X13652Y24395D01*
X13617Y24420D01*
X9981Y26171D01*
X9950Y26179D01*
X9911Y26198D01*
X6055Y27388D01*
X6024Y27391D01*
X5982Y27404D01*
X1992Y28006D01*
X1960Y28004D01*
X1918Y28011D01*
X-2118Y28011D01*
X-2149Y28005D01*
X-2192Y28006D01*
X-6182Y27404D01*
X-6212Y27393D01*
X-6255Y27388D01*
X-10111Y26198D01*
X-10139Y26183D01*
X-10181Y26171D01*
X-13817Y24420D01*
X-13842Y24401D01*
X-13881Y24383D01*
X-17215Y22109D01*
X-17238Y22087D01*
X-17274Y22063D01*
X-20232Y19318D01*
X-20251Y19292D01*
X-20283Y19263D01*
X-22799Y16108D01*
X-22813Y16080D01*
X-22841Y16047D01*
X-24859Y12552D01*
X-24869Y12522D01*
X-24891Y12485D01*
X-26365Y8728D01*
X-26371Y8697D01*
X-26387Y8657D01*
X-27285Y4723D01*
X-27286Y4691D01*
X-27296Y4649D01*
X-27598Y625D01*
X-27594Y598D01*
X-27599Y571D01*
X-27582Y500D01*
X-27573Y428D01*
X-27559Y404D01*
X-27553Y378D01*
X-27510Y319D01*
X-27473Y256D01*
X-27451Y239D01*
X-27435Y217D01*
X-27372Y180D01*
X-27314Y136D01*
X-27287Y130D01*
X-27264Y116D01*
X-27160Y98D01*
X-27121Y89D01*
X-27111Y90D01*
X-27100Y88D01*
X26900Y88D01*
X26927Y94D01*
G37*
G36*
X67903Y162573D02*
X67903Y162573D01*
X67916Y162572D01*
X68103Y162594D01*
X68290Y162614D01*
X68303Y162618D01*
X68316Y162619D01*
X68495Y162678D01*
X68674Y162733D01*
X68686Y162740D01*
X68699Y162744D01*
X68863Y162837D01*
X69027Y162927D01*
X69038Y162935D01*
X69049Y162942D01*
X69192Y163065D01*
X69336Y163186D01*
X69344Y163196D01*
X69354Y163205D01*
X69469Y163353D01*
X69586Y163501D01*
X69593Y163513D01*
X69601Y163523D01*
X69684Y163691D01*
X69770Y163859D01*
X69774Y163872D01*
X69780Y163884D01*
X69829Y164066D01*
X69880Y164246D01*
X69881Y164260D01*
X69885Y164273D01*
X69912Y164603D01*
X69912Y198732D01*
X69909Y198759D01*
X69911Y198785D01*
X69889Y198959D01*
X69872Y199133D01*
X69864Y199158D01*
X69861Y199185D01*
X69805Y199351D01*
X69754Y199518D01*
X69741Y199541D01*
X69732Y199567D01*
X69645Y199718D01*
X69562Y199872D01*
X69545Y199892D01*
X69532Y199915D01*
X69317Y200169D01*
X68754Y200731D01*
X68747Y200737D01*
X68742Y200744D01*
X68592Y200864D01*
X68443Y200986D01*
X68435Y200990D01*
X68428Y200996D01*
X68258Y201084D01*
X68087Y201175D01*
X68078Y201177D01*
X68071Y201181D01*
X67887Y201234D01*
X67701Y201290D01*
X67692Y201290D01*
X67684Y201293D01*
X67493Y201308D01*
X67300Y201326D01*
X67291Y201325D01*
X67282Y201326D01*
X67093Y201303D01*
X66900Y201283D01*
X66891Y201280D01*
X66883Y201279D01*
X66700Y201219D01*
X66516Y201161D01*
X66508Y201157D01*
X66500Y201154D01*
X66331Y201059D01*
X66164Y200966D01*
X66157Y200960D01*
X66149Y200956D01*
X66004Y200830D01*
X65857Y200706D01*
X65851Y200699D01*
X65844Y200693D01*
X65727Y200542D01*
X65607Y200390D01*
X65603Y200382D01*
X65598Y200375D01*
X65512Y200203D01*
X65474Y200127D01*
X63947Y198601D01*
X54318Y198601D01*
X54300Y198599D01*
X54282Y198600D01*
X54100Y198579D01*
X53917Y198561D01*
X53900Y198556D01*
X53883Y198554D01*
X53708Y198497D01*
X53532Y198443D01*
X53517Y198434D01*
X53500Y198429D01*
X53340Y198338D01*
X53178Y198251D01*
X53165Y198240D01*
X53149Y198231D01*
X53010Y198111D01*
X52869Y197993D01*
X52858Y197979D01*
X52844Y197968D01*
X52732Y197823D01*
X52617Y197679D01*
X52609Y197664D01*
X52598Y197650D01*
X52516Y197485D01*
X52431Y197322D01*
X52426Y197305D01*
X52418Y197289D01*
X52370Y197110D01*
X52320Y196935D01*
X52318Y196917D01*
X52314Y196900D01*
X52287Y196570D01*
X52287Y188355D01*
X52289Y188329D01*
X52287Y188302D01*
X52309Y188128D01*
X52327Y187954D01*
X52334Y187929D01*
X52338Y187902D01*
X52393Y187737D01*
X52445Y187570D01*
X52458Y187546D01*
X52466Y187521D01*
X52553Y187369D01*
X52637Y187216D01*
X52654Y187195D01*
X52667Y187172D01*
X52882Y186919D01*
X53282Y186518D01*
X54206Y184288D01*
X54206Y182705D01*
X54209Y182679D01*
X54207Y182652D01*
X54229Y182478D01*
X54246Y182305D01*
X54254Y182279D01*
X54257Y182252D01*
X54313Y182087D01*
X54364Y181920D01*
X54377Y181896D01*
X54386Y181871D01*
X54473Y181719D01*
X54556Y181566D01*
X54573Y181545D01*
X54586Y181522D01*
X54801Y181269D01*
X57871Y178199D01*
X57871Y164893D01*
X57873Y164875D01*
X57871Y164857D01*
X57893Y164675D01*
X57911Y164492D01*
X57916Y164475D01*
X57918Y164458D01*
X57975Y164283D01*
X58029Y164107D01*
X58038Y164092D01*
X58043Y164075D01*
X58133Y163915D01*
X58221Y163753D01*
X58232Y163740D01*
X58241Y163724D01*
X58361Y163585D01*
X58479Y163444D01*
X58492Y163433D01*
X58504Y163419D01*
X58649Y163307D01*
X58792Y163192D01*
X58808Y163184D01*
X58822Y163173D01*
X58987Y163091D01*
X59150Y163006D01*
X59167Y163001D01*
X59183Y162993D01*
X59361Y162945D01*
X59537Y162895D01*
X59554Y162893D01*
X59572Y162889D01*
X59902Y162862D01*
X66777Y162862D01*
X67103Y162727D01*
X67116Y162723D01*
X67128Y162717D01*
X67309Y162664D01*
X67489Y162610D01*
X67502Y162609D01*
X67515Y162605D01*
X67703Y162590D01*
X67889Y162572D01*
X67903Y162573D01*
G37*
G36*
X163627Y133598D02*
X163627Y133598D01*
X163698Y133598D01*
X163725Y133609D01*
X163754Y133612D01*
X163816Y133648D01*
X163881Y133675D01*
X163902Y133696D01*
X163927Y133710D01*
X163990Y133787D01*
X164020Y133818D01*
X164024Y133828D01*
X164033Y133838D01*
X173533Y150338D01*
X173543Y150370D01*
X173552Y150383D01*
X173556Y150408D01*
X173557Y150411D01*
X173588Y150482D01*
X173588Y150505D01*
X173596Y150527D01*
X173590Y150604D01*
X173591Y150681D01*
X173581Y150705D01*
X173580Y150725D01*
X173559Y150765D01*
X173533Y150837D01*
X164033Y167337D01*
X164014Y167358D01*
X164001Y167385D01*
X163948Y167432D01*
X163901Y167486D01*
X163875Y167498D01*
X163854Y167518D01*
X163786Y167541D01*
X163722Y167572D01*
X163693Y167573D01*
X163666Y167582D01*
X163594Y167578D01*
X163523Y167581D01*
X163496Y167571D01*
X163467Y167569D01*
X163377Y167526D01*
X163337Y167512D01*
X163329Y167504D01*
X163316Y167498D01*
X160793Y165757D01*
X160769Y165732D01*
X160731Y165706D01*
X158519Y163582D01*
X158500Y163554D01*
X158466Y163522D01*
X156624Y161070D01*
X156610Y161040D01*
X156581Y161002D01*
X155156Y158287D01*
X155147Y158256D01*
X155131Y158231D01*
X155130Y158223D01*
X155125Y158214D01*
X154154Y155305D01*
X154150Y155271D01*
X154135Y155227D01*
X153643Y152201D01*
X153644Y152167D01*
X153636Y152121D01*
X153636Y149054D01*
X153637Y149051D01*
X153637Y149048D01*
X153643Y149022D01*
X153643Y149021D01*
X153643Y148974D01*
X154135Y145948D01*
X154147Y145916D01*
X154154Y145870D01*
X155125Y142961D01*
X155142Y142932D01*
X155156Y142888D01*
X156581Y140173D01*
X156603Y140146D01*
X156624Y140105D01*
X158466Y137653D01*
X158491Y137631D01*
X158519Y137593D01*
X160731Y135469D01*
X160759Y135451D01*
X160793Y135418D01*
X163316Y133677D01*
X163343Y133665D01*
X163365Y133647D01*
X163434Y133627D01*
X163499Y133599D01*
X163528Y133598D01*
X163556Y133590D01*
X163627Y133598D01*
G37*
G36*
X-163794Y133597D02*
X-163794Y133597D01*
X-163723Y133594D01*
X-163696Y133604D01*
X-163667Y133606D01*
X-163577Y133649D01*
X-163537Y133663D01*
X-163529Y133671D01*
X-163516Y133677D01*
X-160993Y135418D01*
X-160969Y135443D01*
X-160931Y135469D01*
X-158719Y137593D01*
X-158700Y137621D01*
X-158666Y137653D01*
X-156824Y140105D01*
X-156810Y140135D01*
X-156781Y140173D01*
X-155356Y142888D01*
X-155347Y142920D01*
X-155325Y142961D01*
X-154354Y145870D01*
X-154350Y145904D01*
X-154335Y145948D01*
X-153843Y148974D01*
X-153844Y149008D01*
X-153836Y149054D01*
X-153836Y152121D01*
X-153843Y152154D01*
X-153843Y152201D01*
X-154335Y155227D01*
X-154347Y155259D01*
X-154354Y155305D01*
X-155325Y158214D01*
X-155338Y158237D01*
X-155344Y158261D01*
X-155351Y158270D01*
X-155356Y158287D01*
X-156781Y161002D01*
X-156803Y161029D01*
X-156824Y161070D01*
X-158666Y163522D01*
X-158691Y163544D01*
X-158719Y163582D01*
X-160931Y165706D01*
X-160959Y165724D01*
X-160993Y165757D01*
X-163516Y167498D01*
X-163543Y167510D01*
X-163565Y167528D01*
X-163634Y167549D01*
X-163699Y167576D01*
X-163728Y167577D01*
X-163756Y167585D01*
X-163827Y167577D01*
X-163898Y167577D01*
X-163925Y167566D01*
X-163954Y167563D01*
X-164016Y167528D01*
X-164081Y167500D01*
X-164102Y167479D01*
X-164127Y167465D01*
X-164190Y167388D01*
X-164220Y167357D01*
X-164224Y167347D01*
X-164233Y167337D01*
X-173733Y150837D01*
X-173757Y150764D01*
X-173788Y150693D01*
X-173788Y150670D01*
X-173796Y150648D01*
X-173790Y150571D01*
X-173791Y150494D01*
X-173781Y150470D01*
X-173780Y150450D01*
X-173759Y150410D01*
X-173740Y150358D01*
X-173739Y150353D01*
X-173737Y150351D01*
X-173733Y150338D01*
X-164233Y133838D01*
X-164214Y133817D01*
X-164201Y133790D01*
X-164148Y133743D01*
X-164101Y133689D01*
X-164075Y133677D01*
X-164054Y133657D01*
X-163986Y133634D01*
X-163922Y133603D01*
X-163893Y133602D01*
X-163866Y133593D01*
X-163794Y133597D01*
G37*
G36*
X86576Y104D02*
X86576Y104D01*
X86654Y112D01*
X86673Y123D01*
X86695Y128D01*
X86759Y172D01*
X86827Y210D01*
X86843Y229D01*
X86859Y240D01*
X86883Y278D01*
X86933Y338D01*
X96433Y16838D01*
X96442Y16866D01*
X96458Y16889D01*
X96473Y16959D01*
X96496Y17027D01*
X96493Y17056D01*
X96499Y17084D01*
X96486Y17154D01*
X96480Y17225D01*
X96467Y17251D01*
X96461Y17279D01*
X96421Y17338D01*
X96388Y17402D01*
X96366Y17420D01*
X96350Y17444D01*
X96267Y17501D01*
X96235Y17528D01*
X96224Y17531D01*
X96214Y17539D01*
X93448Y18847D01*
X93415Y18855D01*
X93372Y18876D01*
X90432Y19723D01*
X90398Y19726D01*
X90354Y19739D01*
X87316Y20105D01*
X87282Y20102D01*
X87235Y20108D01*
X84178Y19981D01*
X84145Y19973D01*
X84098Y19971D01*
X81101Y19355D01*
X81070Y19342D01*
X81024Y19333D01*
X78164Y18245D01*
X78136Y18226D01*
X78092Y18210D01*
X75444Y16677D01*
X75418Y16654D01*
X75378Y16631D01*
X73010Y14693D01*
X72988Y14667D01*
X72952Y14637D01*
X70925Y12345D01*
X70909Y12315D01*
X70877Y12280D01*
X69245Y9692D01*
X69233Y9661D01*
X69208Y9621D01*
X68012Y6805D01*
X68005Y6771D01*
X68002Y6765D01*
X67998Y6758D01*
X67997Y6753D01*
X67986Y6728D01*
X67258Y3757D01*
X67256Y3723D01*
X67245Y3677D01*
X67002Y627D01*
X67006Y599D01*
X67001Y571D01*
X67018Y501D01*
X67026Y430D01*
X67041Y405D01*
X67047Y378D01*
X67090Y320D01*
X67126Y257D01*
X67148Y240D01*
X67165Y217D01*
X67227Y181D01*
X67284Y137D01*
X67312Y130D01*
X67336Y116D01*
X67436Y99D01*
X67477Y89D01*
X67487Y90D01*
X67500Y88D01*
X86500Y88D01*
X86576Y104D01*
G37*
G36*
X-67672Y94D02*
X-67672Y94D01*
X-67644Y91D01*
X-67576Y114D01*
X-67505Y128D01*
X-67482Y144D01*
X-67455Y153D01*
X-67400Y200D01*
X-67341Y240D01*
X-67326Y264D01*
X-67305Y283D01*
X-67273Y347D01*
X-67234Y408D01*
X-67229Y436D01*
X-67217Y461D01*
X-67208Y563D01*
X-67201Y604D01*
X-67203Y614D01*
X-67202Y627D01*
X-67445Y3677D01*
X-67454Y3710D01*
X-67458Y3757D01*
X-68186Y6728D01*
X-68201Y6759D01*
X-68212Y6805D01*
X-69408Y9621D01*
X-69427Y9649D01*
X-69445Y9692D01*
X-71077Y12280D01*
X-71101Y12305D01*
X-71125Y12345D01*
X-73152Y14637D01*
X-73179Y14658D01*
X-73210Y14693D01*
X-75578Y16631D01*
X-75608Y16647D01*
X-75644Y16677D01*
X-78292Y18210D01*
X-78324Y18221D01*
X-78364Y18245D01*
X-81224Y19333D01*
X-81257Y19339D01*
X-81301Y19355D01*
X-84298Y19971D01*
X-84332Y19971D01*
X-84378Y19981D01*
X-87435Y20108D01*
X-87469Y20102D01*
X-87516Y20105D01*
X-90554Y19739D01*
X-90586Y19729D01*
X-90632Y19723D01*
X-93572Y18876D01*
X-93602Y18860D01*
X-93648Y18847D01*
X-96414Y17539D01*
X-96436Y17522D01*
X-96463Y17512D01*
X-96515Y17463D01*
X-96573Y17420D01*
X-96587Y17395D01*
X-96608Y17375D01*
X-96637Y17310D01*
X-96673Y17248D01*
X-96676Y17220D01*
X-96688Y17193D01*
X-96689Y17121D01*
X-96698Y17051D01*
X-96690Y17023D01*
X-96691Y16994D01*
X-96655Y16900D01*
X-96644Y16859D01*
X-96637Y16851D01*
X-96633Y16838D01*
X-87133Y338D01*
X-87081Y280D01*
X-87035Y217D01*
X-87016Y206D01*
X-87001Y189D01*
X-86931Y156D01*
X-86864Y116D01*
X-86840Y112D01*
X-86822Y103D01*
X-86777Y101D01*
X-86700Y88D01*
X-67700Y88D01*
X-67672Y94D01*
G37*
%LPC*%
G36*
X99084Y167893D02*
X99084Y167893D01*
X93281Y173697D01*
X93281Y181903D01*
X99084Y187707D01*
X107291Y187707D01*
X113094Y181903D01*
X113094Y173697D01*
X107291Y167893D01*
X99084Y167893D01*
G37*
%LPD*%
%LPC*%
G36*
X-128971Y142493D02*
X-128971Y142493D01*
X-132612Y144001D01*
X-135399Y146788D01*
X-136907Y150429D01*
X-136907Y154371D01*
X-135399Y158012D01*
X-132612Y160799D01*
X-130396Y161716D01*
X-130395Y161717D01*
X-128971Y162307D01*
X-125029Y162307D01*
X-121388Y160799D01*
X-118601Y158012D01*
X-117093Y154371D01*
X-117093Y150429D01*
X-118601Y146788D01*
X-121388Y144001D01*
X-125029Y142493D01*
X-128971Y142493D01*
G37*
%LPD*%
D10*
X-55125Y14288D03*
X-40125Y14288D03*
D11*
X26988Y113275D03*
X26988Y96275D03*
D12*
X165100Y150588D03*
X82500Y7488D03*
X-82700Y7488D03*
X-165300Y150588D03*
X123800Y222088D03*
X123800Y79088D03*
X-100Y7488D03*
X-124000Y79088D03*
X-124000Y222088D03*
D13*
X103188Y177800D03*
D14*
X-127000Y177800D03*
X-127000Y152400D03*
X-127000Y127000D03*
D15*
X-59000Y282888D03*
X-59000Y274888D03*
X-59000Y266888D03*
X-59000Y258888D03*
X-59000Y250888D03*
X-59000Y242888D03*
X-59000Y234888D03*
X-59000Y226888D03*
X-59000Y218888D03*
X-59000Y210888D03*
X-59000Y202888D03*
D16*
X-48000Y193888D03*
X-40000Y193888D03*
X-32000Y193888D03*
X-24000Y193888D03*
X-16000Y193888D03*
X-8000Y193888D03*
X0Y193888D03*
X8000Y193888D03*
X16000Y193888D03*
X24000Y193888D03*
X32000Y193888D03*
X40000Y193888D03*
X48000Y193888D03*
D15*
X59000Y202888D03*
X59000Y210888D03*
X59000Y218888D03*
X59000Y226888D03*
X59000Y234888D03*
X59000Y242888D03*
X59000Y250888D03*
X59000Y258888D03*
X59000Y266888D03*
X59000Y274888D03*
X59000Y282888D03*
D16*
X48000Y291888D03*
X40000Y291888D03*
X32000Y291888D03*
X24000Y291888D03*
X16000Y291888D03*
X8000Y291888D03*
X0Y291888D03*
X-8000Y291888D03*
X-16000Y291888D03*
X-24000Y291888D03*
X-32000Y291888D03*
X-40000Y291888D03*
X-48000Y291888D03*
D17*
X0Y242888D03*
X19750Y262638D03*
X0Y262638D03*
X-19750Y262638D03*
X-19750Y242888D03*
X-19750Y223138D03*
X0Y223138D03*
X19750Y223138D03*
X19750Y242888D03*
D18*
X-59500Y292388D03*
X-59500Y193388D03*
X59500Y193388D03*
X59500Y292388D03*
D19*
X-67350Y81700D02*
X-67350Y70700D01*
X-72350Y70700D01*
X-72350Y81700D01*
X-67350Y81700D01*
X-67350Y75450D02*
X-72350Y75450D01*
X-72350Y80200D02*
X-67350Y80200D01*
X-56475Y81700D02*
X-56475Y70700D01*
X-56475Y81700D02*
X-51475Y81700D01*
X-51475Y70700D01*
X-56475Y70700D01*
X-56475Y75450D02*
X-51475Y75450D01*
X-51475Y80200D02*
X-56475Y80200D01*
X-35600Y81700D02*
X-35600Y70700D01*
X-40600Y70700D01*
X-40600Y81700D01*
X-35600Y81700D01*
X-35600Y75450D02*
X-40600Y75450D01*
X-40600Y80200D02*
X-35600Y80200D01*
X-18138Y81700D02*
X-18138Y70700D01*
X-23138Y70700D01*
X-23138Y81700D01*
X-18138Y81700D01*
X-18138Y75450D02*
X-23138Y75450D01*
X-23138Y80200D02*
X-18138Y80200D01*
D11*
X14288Y145025D03*
X14288Y128025D03*
X-30163Y164075D03*
X-30163Y147075D03*
D19*
X54825Y158075D02*
X65825Y158075D01*
X65825Y153075D01*
X54825Y153075D01*
X54825Y158075D01*
X54825Y157825D02*
X65825Y157825D01*
X42013Y153075D02*
X31013Y153075D01*
X31013Y158075D01*
X42013Y158075D01*
X42013Y153075D01*
X42013Y157825D02*
X31013Y157825D01*
X54888Y81700D02*
X54888Y70700D01*
X49888Y70700D01*
X49888Y81700D01*
X54888Y81700D01*
X54888Y75450D02*
X49888Y75450D01*
X49888Y80200D02*
X54888Y80200D01*
X78700Y81700D02*
X78700Y70700D01*
X73700Y70700D01*
X73700Y81700D01*
X78700Y81700D01*
X78700Y75450D02*
X73700Y75450D01*
X73700Y80200D02*
X78700Y80200D01*
D20*
X-38100Y36625D03*
X-38100Y58625D03*
X-53975Y36625D03*
X-53975Y58625D03*
X-69850Y36625D03*
X-69850Y58625D03*
X-22225Y36625D03*
X-22225Y58625D03*
D11*
X57150Y110100D03*
X57150Y93100D03*
X82550Y110100D03*
X82550Y93100D03*
X98988Y123825D03*
X81988Y123825D03*
X50238Y123825D03*
X67238Y123825D03*
D20*
X52388Y41388D03*
X52388Y63388D03*
X74613Y41388D03*
X74613Y63388D03*
D10*
X-85725Y199588D03*
X-85725Y184588D03*
D11*
X-85725Y247088D03*
X-85725Y264088D03*
D21*
X-44450Y280988D03*
X-9525Y282575D03*
X11113Y282575D03*
X23813Y282575D03*
X41275Y284163D03*
X41275Y269875D03*
X-23813Y280988D03*
X-44450Y261938D03*
X46038Y258763D03*
X34925Y258763D03*
X46038Y242888D03*
X34925Y242888D03*
X38100Y228600D03*
X-46038Y233363D03*
X-44450Y249238D03*
X-41275Y211138D03*
X-23813Y207963D03*
X-6350Y207963D03*
X11113Y207963D03*
X34925Y214313D03*
X85725Y277813D03*
X92075Y258763D03*
X-28575Y25400D03*
X61913Y17463D03*
X136525Y184150D03*
X142875Y173038D03*
X96838Y152400D03*
X-47625Y179388D03*
X-49213Y166688D03*
X39688Y119063D03*
X-4763Y65088D03*
X-79375Y138113D03*
X65088Y173038D03*
X22225Y58738D03*
D22*
X-59000Y266888D02*
X-68007Y266888D01*
X-71438Y263457D01*
D21*
X-71438Y263457D03*
D23*
X-72068Y264088D02*
X-85725Y264088D01*
X-72068Y264088D02*
X-71438Y263457D01*
D24*
X-82700Y18600D02*
X-82700Y7488D01*
X-82700Y18600D02*
X-88900Y24800D01*
X-108839Y112014D02*
X-135449Y112014D01*
X-145966Y122531D01*
X-88900Y47625D02*
X-88900Y24800D01*
X-88900Y47625D02*
X-88900Y85725D01*
X-88900Y92075D01*
X-108839Y112014D01*
X153763Y150588D02*
X165100Y150588D01*
X153763Y150588D02*
X95416Y92241D01*
X95416Y84138D01*
X93154Y64579D02*
X93154Y63500D01*
X93829Y82550D02*
X95416Y84138D01*
X93829Y82550D02*
X93829Y65254D01*
X93154Y64579D01*
D25*
X93154Y63500D02*
X92753Y60738D01*
D22*
X-95543Y240299D02*
X-95543Y253876D01*
X-85725Y263694D02*
X-85725Y264088D01*
X-85725Y263694D02*
X-95543Y253876D01*
X-95543Y240299D02*
X-94206Y238962D01*
X-94206Y203183D01*
X-95250Y195263D02*
X-139700Y192088D01*
X-95250Y195263D02*
X-94206Y203183D01*
D25*
X-165300Y150588D02*
X-145966Y122531D01*
D22*
X-165300Y150588D02*
X-139700Y192088D01*
D21*
X-88900Y85725D03*
D26*
X50800Y11113D02*
X53713Y8200D01*
D25*
X87313Y55297D02*
X92753Y60738D01*
D23*
X53713Y8200D02*
X54425Y7488D01*
D26*
X82500Y7488D01*
D25*
X87313Y23413D02*
X87313Y55297D01*
X87313Y23413D02*
X82500Y18600D01*
X82500Y7488D01*
D22*
X14288Y123197D02*
X14288Y128025D01*
X21696Y118567D02*
X26988Y113275D01*
X21696Y118567D02*
X14288Y123197D01*
D25*
X6350Y47625D02*
X-88900Y47625D01*
X6350Y47625D02*
X14288Y47625D01*
X50800Y11113D01*
D22*
X6350Y47625D02*
X6350Y55383D01*
X15493Y64526D01*
X15493Y101781D02*
X26988Y113275D01*
X15493Y101781D02*
X15493Y64526D01*
D27*
X116462Y214750D02*
X123800Y222088D01*
X116462Y214750D02*
X116462Y194638D01*
D21*
X116462Y194638D03*
X98085Y50153D03*
D27*
X107324Y62280D02*
X118601Y67857D01*
X108962Y61030D02*
X98085Y50153D01*
X107324Y62280D02*
X108962Y61030D01*
X118601Y67857D02*
X123800Y76863D01*
X123800Y79088D01*
D21*
X-101110Y57424D03*
D27*
X-102336Y57424D01*
X-124000Y79088D01*
D21*
X-63159Y28234D03*
D27*
X-63159Y22322D01*
X-55125Y14288D01*
D23*
X-30163Y164075D02*
X-30163Y174938D01*
X-30175Y174950D01*
X-16000Y189125D01*
X-16000Y193888D01*
D21*
X-82572Y149203D03*
D23*
X-63763Y226888D02*
X-59000Y226888D01*
X-63763Y226888D02*
X-69985Y220665D01*
X-69985Y211138D01*
X-66810Y164965D02*
X-82572Y149203D01*
D21*
X-69985Y211138D03*
D23*
X-66810Y207963D01*
X-66810Y164965D01*
X-14288Y176212D02*
X-14288Y126060D01*
D22*
X-69850Y76200D02*
X-69850Y58625D01*
D23*
X-49162Y91185D02*
X-14288Y126060D01*
X-49162Y91185D02*
X-55914Y91185D01*
X-65960Y81139D01*
X-65960Y81678D01*
X-69850Y77788D01*
X-69850Y76200D01*
X-14288Y176212D02*
X0Y190499D01*
X0Y193888D01*
D22*
X64706Y210888D02*
X74231Y201363D01*
X64706Y210888D02*
X59000Y210888D01*
X74231Y201363D02*
X74231Y137731D01*
X67238Y130738D02*
X67238Y123825D01*
X67238Y130738D02*
X74231Y137731D01*
X67238Y123825D02*
X67238Y120188D01*
X57150Y110100D01*
X52388Y76200D02*
X52388Y63388D01*
X52388Y76200D02*
X52388Y88338D01*
X57150Y93100D01*
X76200Y76200D02*
X82550Y82550D01*
X82550Y93100D01*
X74613Y74613D02*
X74613Y63388D01*
X74613Y74613D02*
X76200Y76200D01*
D28*
X82550Y123263D02*
X81988Y123825D01*
D22*
X65758Y218888D02*
X59000Y218888D01*
X82550Y202096D02*
X82550Y123263D01*
X82550Y202096D02*
X65758Y218888D01*
X82550Y123263D02*
X82550Y110100D01*
D23*
X14606Y145344D02*
X14288Y145025D01*
X32000Y181161D02*
X32000Y193888D01*
X32000Y181161D02*
X14606Y163767D01*
X14606Y145344D01*
D21*
X38100Y131763D03*
D23*
X40000Y181288D02*
X40000Y193888D01*
X25400Y144463D02*
X38100Y131763D01*
X24703Y165990D02*
X40000Y181288D01*
X24703Y165990D02*
X24703Y147286D01*
X25400Y146589D02*
X25400Y144463D01*
X25400Y146589D02*
X24703Y147286D01*
X26988Y96275D02*
X25340Y92075D01*
X41483Y92075D01*
X41379Y91971D01*
D21*
X41379Y91971D03*
X-52739Y122158D03*
D27*
X-40039Y150733D02*
X-40039Y193849D01*
X-40039Y150733D02*
X-52739Y138033D01*
X-52739Y122158D01*
X-40039Y193849D02*
X-40000Y193888D01*
D22*
X-78225Y184588D02*
X-85725Y184588D01*
X-78225Y184588D02*
X-76200Y182563D01*
D21*
X-76200Y182563D03*
D23*
X-61190Y240698D02*
X-59000Y242888D01*
X-61190Y240698D02*
X-69341Y240698D01*
X-85725Y224313D01*
X-85725Y199588D01*
D21*
X-102306Y206538D03*
D27*
X-117855Y222088D01*
X-124000Y222088D01*
D23*
X-81925Y250888D02*
X-59000Y250888D01*
X-81925Y250888D02*
X-85725Y247088D01*
D21*
X5520Y173867D03*
D23*
X16000Y181172D02*
X16000Y193888D01*
X16000Y181172D02*
X8695Y173867D01*
X5520Y173867D01*
X-3620Y110681D02*
X-38100Y76200D01*
X-3620Y110681D02*
X-3620Y166688D01*
X3560Y173867D01*
X5520Y173867D01*
D22*
X-38100Y76200D02*
X-38100Y58625D01*
D21*
X5920Y156157D03*
D23*
X5920Y163082D01*
X24000Y181163D02*
X24000Y193888D01*
X24000Y181163D02*
X5920Y163082D01*
X-20638Y86119D02*
X-20638Y76200D01*
X-20638Y86119D02*
X4890Y111646D01*
X4890Y155127D02*
X5920Y156157D01*
X4890Y155127D02*
X4890Y111646D01*
D22*
X-22225Y74613D02*
X-22225Y58625D01*
X-22225Y74613D02*
X-20638Y76200D01*
D21*
X7595Y184732D03*
D23*
X-8954Y171450D02*
X-8954Y114872D01*
D22*
X-53975Y76200D02*
X-53975Y58625D01*
D23*
X-35815Y88010D02*
X-8954Y114872D01*
X-35815Y88010D02*
X-43753Y88010D01*
X-53975Y77788D01*
X-53975Y76200D01*
X-8954Y171450D02*
X4328Y184732D01*
X7595Y184732D01*
X8000Y185137D02*
X8000Y193888D01*
X8000Y185137D02*
X7595Y184732D01*
D21*
X15106Y31262D03*
D27*
X-769Y15387D01*
X-769Y8406D01*
X-100Y7736D02*
X-100Y7488D01*
X-100Y7736D02*
X-769Y8406D01*
D21*
X68263Y242888D03*
D27*
X59000Y242888D01*
D21*
X48138Y183081D03*
D27*
X54314Y161586D02*
X60325Y155575D01*
X48138Y182903D02*
X48138Y183081D01*
X48138Y182903D02*
X54314Y176726D01*
X54314Y161586D01*
D21*
X69850Y252738D03*
D27*
X68000Y250888D01*
X59000Y250888D01*
X46976Y172099D02*
X46976Y166039D01*
X36513Y155575D01*
D21*
X46976Y172099D03*
M02*
