G04 EAGLE Gerber RS-274X export*
G75*
%MOMM*%
%FSLAX34Y34*%
%LPD*%
%INBottom Copper*%
%IPPOS*%
%AMOC8*
5,1,8,0,0,1.08239X$1,22.5*%
G01*
%ADD10R,1.100000X1.000000*%
%ADD11R,1.300000X1.500000*%
%ADD12R,1.000000X1.100000*%
%ADD13R,1.399997X0.400000*%
%ADD14R,1.500000X1.300000*%
%ADD15C,1.000000*%
%ADD16R,0.812800X0.254000*%
%ADD17R,0.254000X0.812800*%
%ADD18R,5.511800X5.511800*%
%ADD19P,1.649562X8X202.500000*%
%ADD20C,1.524000*%
%ADD21R,0.800000X0.500000*%
%ADD22R,2.700000X1.600000*%
%ADD23C,0.508000*%
%ADD24C,0.304800*%
%ADD25C,0.254000*%
%ADD26C,0.756400*%
%ADD27C,0.406400*%

G36*
X419276Y251116D02*
X419276Y251116D01*
X419302Y251114D01*
X419476Y251136D01*
X419650Y251153D01*
X419675Y251161D01*
X419702Y251164D01*
X419868Y251220D01*
X420035Y251271D01*
X420058Y251284D01*
X420084Y251293D01*
X420235Y251380D01*
X420389Y251463D01*
X420409Y251480D01*
X420432Y251494D01*
X420685Y251708D01*
X425405Y256427D01*
X425421Y256448D01*
X425442Y256466D01*
X425549Y256603D01*
X425660Y256739D01*
X425672Y256762D01*
X425689Y256784D01*
X425767Y256941D01*
X425848Y257095D01*
X425856Y257120D01*
X425868Y257144D01*
X425913Y257314D01*
X425963Y257480D01*
X425965Y257507D01*
X425972Y257533D01*
X425999Y257864D01*
X425999Y279104D01*
X428678Y281783D01*
X436178Y289283D01*
X436184Y289290D01*
X436191Y289296D01*
X436311Y289445D01*
X436433Y289595D01*
X436437Y289603D01*
X436443Y289610D01*
X436532Y289780D01*
X436622Y289950D01*
X436624Y289959D01*
X436629Y289967D01*
X436682Y290152D01*
X436737Y290336D01*
X436738Y290345D01*
X436740Y290354D01*
X436756Y290545D01*
X436773Y290737D01*
X436772Y290746D01*
X436773Y290755D01*
X436751Y290943D01*
X436730Y291138D01*
X436727Y291146D01*
X436726Y291155D01*
X436667Y291337D01*
X436608Y291521D01*
X436604Y291529D01*
X436601Y291538D01*
X436597Y291544D01*
X436665Y291509D01*
X436674Y291506D01*
X436682Y291502D01*
X436868Y291450D01*
X437052Y291398D01*
X437061Y291397D01*
X437070Y291394D01*
X437263Y291380D01*
X437454Y291365D01*
X437462Y291366D01*
X437471Y291365D01*
X437664Y291389D01*
X437853Y291412D01*
X437862Y291414D01*
X437871Y291415D01*
X438054Y291477D01*
X438236Y291536D01*
X438244Y291541D01*
X438252Y291544D01*
X438419Y291640D01*
X438587Y291734D01*
X438594Y291740D01*
X438601Y291745D01*
X438854Y291959D01*
X456223Y309328D01*
X456240Y309349D01*
X456261Y309367D01*
X456368Y309504D01*
X456478Y309640D01*
X456491Y309663D01*
X456507Y309685D01*
X456585Y309842D01*
X456667Y309996D01*
X456675Y310021D01*
X456687Y310045D01*
X456732Y310215D01*
X456782Y310381D01*
X456784Y310408D01*
X456791Y310434D01*
X456818Y310765D01*
X456818Y356362D01*
X456816Y356380D01*
X456818Y356398D01*
X456797Y356580D01*
X456778Y356763D01*
X456773Y356780D01*
X456771Y356797D01*
X456714Y356972D01*
X456660Y357148D01*
X456652Y357163D01*
X456646Y357180D01*
X456556Y357340D01*
X456468Y357502D01*
X456457Y357515D01*
X456448Y357531D01*
X456328Y357670D01*
X456211Y357811D01*
X456197Y357822D01*
X456185Y357836D01*
X456040Y357948D01*
X455897Y358063D01*
X455881Y358071D01*
X455867Y358082D01*
X455702Y358164D01*
X455540Y358249D01*
X455523Y358254D01*
X455507Y358262D01*
X455328Y358309D01*
X455153Y358360D01*
X455135Y358362D01*
X455118Y358366D01*
X454787Y358393D01*
X448334Y358393D01*
X442531Y364197D01*
X442531Y372403D01*
X445348Y375221D01*
X445359Y375234D01*
X445373Y375246D01*
X445487Y375390D01*
X445603Y375532D01*
X445611Y375548D01*
X445622Y375562D01*
X445706Y375726D01*
X445792Y375888D01*
X445797Y375905D01*
X445805Y375921D01*
X445854Y376098D01*
X445906Y376274D01*
X445908Y376291D01*
X445913Y376309D01*
X445926Y376492D01*
X445943Y376675D01*
X445941Y376692D01*
X445942Y376710D01*
X445919Y376892D01*
X445899Y377075D01*
X445894Y377092D01*
X445892Y377110D01*
X445833Y377283D01*
X445778Y377459D01*
X445769Y377474D01*
X445764Y377491D01*
X445672Y377650D01*
X445583Y377811D01*
X445571Y377825D01*
X445563Y377840D01*
X445348Y378093D01*
X443626Y379815D01*
X443626Y391710D01*
X444965Y393049D01*
X455001Y393049D01*
X455048Y393054D01*
X455095Y393051D01*
X455248Y393074D01*
X455402Y393089D01*
X455447Y393103D01*
X455493Y393110D01*
X455639Y393162D01*
X455787Y393207D01*
X455828Y393230D01*
X455872Y393245D01*
X456005Y393325D01*
X456141Y393399D01*
X456177Y393429D01*
X456217Y393453D01*
X456332Y393558D01*
X456450Y393657D01*
X456480Y393693D01*
X456514Y393725D01*
X456606Y393850D01*
X456703Y393971D01*
X456724Y394012D01*
X456752Y394050D01*
X456817Y394190D01*
X456888Y394328D01*
X456901Y394373D01*
X456921Y394415D01*
X456957Y394566D01*
X457000Y394715D01*
X457003Y394761D01*
X457014Y394807D01*
X457020Y394962D01*
X457032Y395116D01*
X457027Y395162D01*
X457029Y395209D01*
X457004Y395362D01*
X456986Y395516D01*
X456971Y395560D01*
X456963Y395606D01*
X456909Y395751D01*
X456861Y395899D01*
X456838Y395939D01*
X456821Y395983D01*
X456739Y396114D01*
X456663Y396249D01*
X456632Y396285D01*
X456607Y396324D01*
X456438Y396509D01*
X456432Y396517D01*
X456419Y396577D01*
X456369Y396692D01*
X456328Y396811D01*
X456289Y396876D01*
X456258Y396947D01*
X456167Y397082D01*
X456123Y397157D01*
X456099Y397184D01*
X456073Y397222D01*
X455533Y397900D01*
X455480Y397955D01*
X455433Y398016D01*
X455339Y398099D01*
X455252Y398188D01*
X455189Y398232D01*
X455132Y398282D01*
X455023Y398345D01*
X454931Y398408D01*
X454491Y399171D01*
X454452Y399225D01*
X454320Y399422D01*
X453767Y400116D01*
X453764Y400168D01*
X453731Y400289D01*
X453708Y400412D01*
X453680Y400483D01*
X453660Y400557D01*
X453590Y400705D01*
X453558Y400786D01*
X453538Y400816D01*
X453518Y400857D01*
X453085Y401608D01*
X453040Y401670D01*
X453004Y401737D01*
X452923Y401834D01*
X452850Y401935D01*
X452794Y401987D01*
X452745Y402046D01*
X452647Y402124D01*
X452566Y402200D01*
X452244Y403021D01*
X452213Y403080D01*
X452112Y403294D01*
X451669Y404063D01*
X451673Y404115D01*
X451660Y404239D01*
X451655Y404364D01*
X451637Y404439D01*
X451629Y404515D01*
X451582Y404671D01*
X451562Y404756D01*
X451547Y404789D01*
X451533Y404833D01*
X451217Y405640D01*
X451203Y405667D01*
X451196Y405689D01*
X451177Y405723D01*
X451156Y405780D01*
X451091Y405887D01*
X451034Y405998D01*
X450986Y406058D01*
X450946Y406123D01*
X450861Y406215D01*
X450792Y406303D01*
X450596Y407162D01*
X450574Y407226D01*
X450506Y407452D01*
X450182Y408278D01*
X450195Y408329D01*
X450200Y408454D01*
X450214Y408578D01*
X450207Y408655D01*
X450210Y408731D01*
X450187Y408893D01*
X450180Y408980D01*
X450170Y409014D01*
X450163Y409060D01*
X449971Y409905D01*
X449946Y409977D01*
X449931Y410052D01*
X449882Y410168D01*
X449843Y410286D01*
X449805Y410353D01*
X449775Y410423D01*
X449704Y410527D01*
X449649Y410624D01*
X449583Y411502D01*
X449572Y411569D01*
X449538Y411803D01*
X449341Y412668D01*
X449361Y412716D01*
X449384Y412839D01*
X449417Y412960D01*
X449422Y413036D01*
X449436Y413111D01*
X449437Y413275D01*
X449443Y413362D01*
X449438Y413397D01*
X449438Y413443D01*
X449374Y414308D01*
X449361Y414383D01*
X449357Y414460D01*
X449326Y414581D01*
X449304Y414704D01*
X449276Y414776D01*
X449258Y414850D01*
X449204Y414963D01*
X449163Y415067D01*
X449229Y415945D01*
X449227Y416013D01*
X449229Y416249D01*
X449163Y417134D01*
X449190Y417179D01*
X449231Y417297D01*
X449282Y417412D01*
X449298Y417486D01*
X449323Y417558D01*
X449349Y417720D01*
X449367Y417805D01*
X449368Y417841D01*
X449375Y417886D01*
X449440Y418751D01*
X449438Y418827D01*
X449446Y418903D01*
X449434Y419028D01*
X449430Y419153D01*
X449414Y419228D01*
X449406Y419304D01*
X449369Y419424D01*
X449345Y419532D01*
X449541Y420391D01*
X449549Y420458D01*
X449586Y420692D01*
X449653Y421576D01*
X449686Y421617D01*
X449745Y421727D01*
X449811Y421833D01*
X449839Y421905D01*
X449875Y421973D01*
X449924Y422128D01*
X449955Y422210D01*
X449961Y422245D01*
X449975Y422289D01*
X450168Y423134D01*
X450177Y423210D01*
X450196Y423284D01*
X450203Y423409D01*
X450218Y423533D01*
X450213Y423610D01*
X450216Y423686D01*
X450198Y423810D01*
X450190Y423921D01*
X450512Y424742D01*
X450530Y424806D01*
X450602Y425032D01*
X450799Y425897D01*
X450838Y425932D01*
X450913Y426032D01*
X450994Y426127D01*
X451032Y426194D01*
X451078Y426255D01*
X451149Y426402D01*
X451192Y426478D01*
X451203Y426512D01*
X451224Y426553D01*
X451541Y427360D01*
X451561Y427434D01*
X451591Y427504D01*
X451616Y427627D01*
X451650Y427747D01*
X451656Y427824D01*
X451671Y427899D01*
X451671Y428024D01*
X451680Y428135D01*
X452120Y428898D01*
X452148Y428959D01*
X452252Y429172D01*
X452577Y429998D01*
X452620Y430026D01*
X452709Y430115D01*
X452804Y430196D01*
X452851Y430257D01*
X452905Y430311D01*
X452998Y430445D01*
X453052Y430514D01*
X453068Y430546D01*
X453094Y430584D01*
X453528Y431334D01*
X453559Y431404D01*
X453599Y431469D01*
X453642Y431587D01*
X453694Y431701D01*
X453711Y431775D01*
X453737Y431847D01*
X453756Y431971D01*
X453781Y432080D01*
X454331Y432769D01*
X454367Y432825D01*
X454502Y433020D01*
X454946Y433788D01*
X454993Y433810D01*
X455094Y433884D01*
X455200Y433951D01*
X455256Y434003D01*
X455317Y434049D01*
X455429Y434167D01*
X455493Y434227D01*
X455513Y434257D01*
X455545Y434290D01*
X456085Y434968D01*
X456127Y435032D01*
X456176Y435091D01*
X456236Y435200D01*
X456304Y435306D01*
X456332Y435377D01*
X456369Y435444D01*
X456406Y435564D01*
X456447Y435668D01*
X457093Y436267D01*
X457137Y436317D01*
X457300Y436489D01*
X457614Y436883D01*
X457667Y436965D01*
X457727Y437040D01*
X457776Y437133D01*
X457833Y437221D01*
X457868Y437312D01*
X457913Y437397D01*
X457942Y437498D01*
X457980Y437596D01*
X457997Y437691D01*
X458024Y437784D01*
X458033Y437889D01*
X458051Y437992D01*
X458049Y438089D01*
X458057Y438186D01*
X458045Y438290D01*
X458043Y438395D01*
X458022Y438489D01*
X458010Y438585D01*
X457978Y438685D01*
X457955Y438787D01*
X457915Y438876D01*
X457885Y438968D01*
X457834Y439060D01*
X457791Y439155D01*
X457735Y439234D01*
X457687Y439319D01*
X457619Y439398D01*
X457558Y439484D01*
X457488Y439550D01*
X457424Y439624D01*
X457342Y439688D01*
X457265Y439760D01*
X457183Y439811D01*
X457106Y439870D01*
X457012Y439917D01*
X456923Y439972D01*
X456832Y440006D01*
X456746Y440050D01*
X456644Y440077D01*
X456546Y440114D01*
X456450Y440129D01*
X456357Y440154D01*
X456229Y440165D01*
X456149Y440178D01*
X456096Y440176D01*
X456026Y440181D01*
X442360Y440181D01*
X442342Y440179D01*
X442324Y440181D01*
X442142Y440160D01*
X441959Y440141D01*
X441942Y440136D01*
X441925Y440134D01*
X441750Y440077D01*
X441574Y440023D01*
X441559Y440015D01*
X441542Y440009D01*
X441382Y439919D01*
X441220Y439831D01*
X441207Y439820D01*
X441191Y439811D01*
X441052Y439691D01*
X440911Y439574D01*
X440900Y439560D01*
X440886Y439548D01*
X440774Y439403D01*
X440659Y439260D01*
X440651Y439244D01*
X440640Y439230D01*
X440558Y439065D01*
X440473Y438903D01*
X440468Y438886D01*
X440460Y438870D01*
X440413Y438691D01*
X440362Y438516D01*
X440360Y438498D01*
X440356Y438481D01*
X440329Y438150D01*
X440329Y437970D01*
X439634Y436292D01*
X438350Y435008D01*
X436672Y434313D01*
X261628Y434313D01*
X259950Y435008D01*
X258666Y436292D01*
X257971Y437970D01*
X257971Y438150D01*
X257969Y438168D01*
X257971Y438186D01*
X257950Y438368D01*
X257931Y438551D01*
X257926Y438568D01*
X257924Y438585D01*
X257867Y438760D01*
X257813Y438936D01*
X257805Y438951D01*
X257799Y438968D01*
X257709Y439128D01*
X257621Y439290D01*
X257610Y439303D01*
X257601Y439319D01*
X257481Y439458D01*
X257364Y439599D01*
X257350Y439610D01*
X257338Y439624D01*
X257193Y439736D01*
X257050Y439851D01*
X257034Y439859D01*
X257020Y439870D01*
X256855Y439952D01*
X256693Y440037D01*
X256676Y440042D01*
X256660Y440050D01*
X256481Y440097D01*
X256306Y440148D01*
X256288Y440150D01*
X256271Y440154D01*
X255940Y440181D01*
X242274Y440181D01*
X242177Y440172D01*
X242080Y440172D01*
X241977Y440152D01*
X241873Y440141D01*
X241781Y440113D01*
X241685Y440094D01*
X241589Y440054D01*
X241488Y440023D01*
X241403Y439977D01*
X241313Y439940D01*
X241226Y439881D01*
X241134Y439831D01*
X241060Y439769D01*
X240979Y439715D01*
X240905Y439641D01*
X240825Y439574D01*
X240764Y439498D01*
X240696Y439429D01*
X240638Y439342D01*
X240573Y439260D01*
X240528Y439174D01*
X240475Y439093D01*
X240435Y438995D01*
X240387Y438903D01*
X240360Y438809D01*
X240324Y438719D01*
X240305Y438617D01*
X240276Y438516D01*
X240268Y438419D01*
X240250Y438324D01*
X240251Y438219D01*
X240243Y438114D01*
X240254Y438018D01*
X240256Y437921D01*
X240278Y437819D01*
X240290Y437715D01*
X240320Y437622D01*
X240340Y437528D01*
X240382Y437431D01*
X240415Y437332D01*
X240462Y437247D01*
X240501Y437158D01*
X240573Y437052D01*
X240613Y436981D01*
X240647Y436942D01*
X240686Y436883D01*
X241000Y436489D01*
X241048Y436441D01*
X241207Y436267D01*
X241858Y435663D01*
X241869Y435612D01*
X241919Y435497D01*
X241960Y435379D01*
X241999Y435313D01*
X242030Y435243D01*
X242121Y435108D01*
X242165Y435033D01*
X242189Y435006D01*
X242215Y434968D01*
X242755Y434290D01*
X242809Y434235D01*
X242855Y434174D01*
X242949Y434091D01*
X243036Y434002D01*
X243099Y433959D01*
X243157Y433908D01*
X243266Y433845D01*
X243357Y433782D01*
X243798Y433020D01*
X243837Y432965D01*
X243969Y432769D01*
X244523Y432075D01*
X244526Y432023D01*
X244558Y431902D01*
X244582Y431779D01*
X244610Y431708D01*
X244630Y431634D01*
X244700Y431486D01*
X244733Y431406D01*
X244752Y431376D01*
X244772Y431334D01*
X245206Y430584D01*
X245250Y430521D01*
X245287Y430454D01*
X245368Y430358D01*
X245441Y430257D01*
X245497Y430205D01*
X245546Y430146D01*
X245644Y430068D01*
X245725Y429992D01*
X246048Y429172D01*
X246078Y429112D01*
X246180Y428898D01*
X246623Y428130D01*
X246619Y428078D01*
X246633Y427954D01*
X246637Y427828D01*
X246655Y427754D01*
X246664Y427678D01*
X246711Y427522D01*
X246731Y427437D01*
X246746Y427404D01*
X246759Y427360D01*
X247076Y426553D01*
X247111Y426485D01*
X247137Y426413D01*
X247203Y426306D01*
X247260Y426195D01*
X247308Y426135D01*
X247348Y426070D01*
X247433Y425978D01*
X247502Y425891D01*
X247698Y425032D01*
X247720Y424968D01*
X247788Y424742D01*
X248112Y423916D01*
X248100Y423865D01*
X248095Y423740D01*
X248081Y423615D01*
X248088Y423539D01*
X248085Y423462D01*
X248108Y423301D01*
X248116Y423214D01*
X248126Y423180D01*
X248132Y423134D01*
X248325Y422289D01*
X248350Y422216D01*
X248365Y422141D01*
X248414Y422026D01*
X248454Y421907D01*
X248492Y421841D01*
X248521Y421770D01*
X248592Y421667D01*
X248648Y421570D01*
X248714Y420692D01*
X248725Y420625D01*
X248759Y420391D01*
X248957Y419526D01*
X248937Y419478D01*
X248914Y419355D01*
X248881Y419234D01*
X248876Y419158D01*
X248862Y419082D01*
X248861Y418919D01*
X248855Y418832D01*
X248860Y418797D01*
X248860Y418751D01*
X248925Y417886D01*
X248938Y417811D01*
X248942Y417734D01*
X248973Y417613D01*
X248995Y417490D01*
X249023Y417418D01*
X249042Y417344D01*
X249096Y417231D01*
X249136Y417128D01*
X249071Y416249D01*
X249073Y416182D01*
X249071Y415945D01*
X249138Y415060D01*
X249111Y415016D01*
X249069Y414897D01*
X249019Y414783D01*
X249003Y414708D01*
X248978Y414636D01*
X248952Y414475D01*
X248934Y414389D01*
X248933Y414353D01*
X248926Y414308D01*
X248862Y413443D01*
X248863Y413367D01*
X248856Y413291D01*
X248868Y413166D01*
X248872Y413041D01*
X248888Y412966D01*
X248896Y412890D01*
X248933Y412770D01*
X248958Y412662D01*
X248762Y411803D01*
X248754Y411736D01*
X248717Y411502D01*
X248651Y410617D01*
X248618Y410577D01*
X248559Y410466D01*
X248492Y410360D01*
X248465Y410289D01*
X248429Y410221D01*
X248380Y410065D01*
X248349Y409984D01*
X248343Y409949D01*
X248329Y409905D01*
X248137Y409060D01*
X248127Y408984D01*
X248108Y408909D01*
X248102Y408784D01*
X248087Y408660D01*
X248092Y408584D01*
X248088Y408507D01*
X248107Y408383D01*
X248115Y408272D01*
X247794Y407452D01*
X247775Y407387D01*
X247704Y407162D01*
X247507Y406297D01*
X247468Y406261D01*
X247394Y406161D01*
X247312Y406066D01*
X247274Y405999D01*
X247229Y405938D01*
X247157Y405791D01*
X247114Y405715D01*
X247103Y405681D01*
X247083Y405640D01*
X246767Y404833D01*
X246746Y404759D01*
X246716Y404688D01*
X246691Y404566D01*
X246657Y404445D01*
X246652Y404369D01*
X246637Y404294D01*
X246636Y404168D01*
X246628Y404057D01*
X246188Y403294D01*
X246160Y403233D01*
X246056Y403021D01*
X245732Y402194D01*
X245689Y402166D01*
X245600Y402077D01*
X245505Y401995D01*
X245458Y401935D01*
X245404Y401881D01*
X245311Y401747D01*
X245257Y401678D01*
X245241Y401646D01*
X245215Y401608D01*
X244782Y400857D01*
X244750Y400788D01*
X244711Y400722D01*
X244668Y400604D01*
X244616Y400490D01*
X244599Y400416D01*
X244573Y400344D01*
X244554Y400220D01*
X244529Y400111D01*
X243980Y399422D01*
X243944Y399366D01*
X243809Y399171D01*
X243366Y398403D01*
X243318Y398381D01*
X243217Y398306D01*
X243111Y398240D01*
X243056Y398187D01*
X242994Y398142D01*
X242882Y398023D01*
X242819Y397963D01*
X242798Y397933D01*
X242767Y397900D01*
X242227Y397222D01*
X242185Y397158D01*
X242136Y397099D01*
X242076Y396989D01*
X242008Y396884D01*
X241980Y396813D01*
X241944Y396745D01*
X241907Y396626D01*
X241866Y396522D01*
X241220Y395922D01*
X241175Y395872D01*
X241014Y395700D01*
X240461Y395006D01*
X240411Y394991D01*
X240300Y394933D01*
X240185Y394883D01*
X240122Y394839D01*
X240054Y394803D01*
X239926Y394702D01*
X239855Y394652D01*
X239830Y394626D01*
X239794Y394598D01*
X239428Y394258D01*
X239391Y394217D01*
X239349Y394181D01*
X239258Y394066D01*
X239161Y393957D01*
X239133Y393908D01*
X239099Y393865D01*
X239033Y393735D01*
X238960Y393608D01*
X238942Y393555D01*
X238917Y393506D01*
X238877Y393365D01*
X238831Y393227D01*
X238824Y393172D01*
X238809Y393118D01*
X238798Y392972D01*
X238779Y392827D01*
X238783Y392772D01*
X238779Y392717D01*
X238798Y392571D01*
X238808Y392426D01*
X238823Y392372D01*
X238830Y392317D01*
X238876Y392178D01*
X238915Y392038D01*
X238940Y391988D01*
X238958Y391935D01*
X239031Y391809D01*
X239097Y391678D01*
X239131Y391635D01*
X239159Y391587D01*
X239298Y391423D01*
X239346Y391362D01*
X239359Y391350D01*
X239374Y391334D01*
X240783Y389924D01*
X241707Y387694D01*
X241707Y385279D01*
X241334Y384378D01*
X241327Y384357D01*
X241317Y384337D01*
X241269Y384164D01*
X241217Y383993D01*
X241215Y383971D01*
X241209Y383949D01*
X241196Y383769D01*
X241179Y383592D01*
X241181Y383570D01*
X241180Y383547D01*
X241202Y383369D01*
X241221Y383192D01*
X241227Y383170D01*
X241230Y383148D01*
X241287Y382978D01*
X241341Y382807D01*
X241351Y382788D01*
X241358Y382766D01*
X241448Y382610D01*
X241534Y382454D01*
X241548Y382437D01*
X241559Y382417D01*
X241774Y382164D01*
X276569Y347369D01*
X276590Y347352D01*
X276608Y347332D01*
X276746Y347225D01*
X276881Y347114D01*
X276905Y347102D01*
X276926Y347085D01*
X277083Y347007D01*
X277237Y346925D01*
X277262Y346918D01*
X277286Y346906D01*
X277456Y346860D01*
X277623Y346811D01*
X277649Y346808D01*
X277675Y346801D01*
X278006Y346774D01*
X307682Y346774D01*
X307700Y346776D01*
X307718Y346775D01*
X307900Y346796D01*
X308083Y346814D01*
X308100Y346819D01*
X308117Y346821D01*
X308292Y346878D01*
X308468Y346932D01*
X308483Y346941D01*
X308500Y346946D01*
X308660Y347037D01*
X308822Y347124D01*
X308835Y347135D01*
X308851Y347144D01*
X308990Y347264D01*
X309131Y347382D01*
X309142Y347396D01*
X309156Y347407D01*
X309268Y347552D01*
X309383Y347696D01*
X309391Y347711D01*
X309402Y347725D01*
X309484Y347890D01*
X309569Y348053D01*
X309574Y348070D01*
X309582Y348086D01*
X309629Y348264D01*
X309680Y348440D01*
X309682Y348458D01*
X309686Y348475D01*
X309713Y348805D01*
X309713Y359397D01*
X310830Y360514D01*
X310841Y360528D01*
X310855Y360539D01*
X310969Y360683D01*
X311085Y360825D01*
X311093Y360841D01*
X311104Y360855D01*
X311188Y361019D01*
X311273Y361181D01*
X311279Y361198D01*
X311287Y361214D01*
X311336Y361391D01*
X311388Y361567D01*
X311390Y361585D01*
X311395Y361602D01*
X311408Y361785D01*
X311425Y361968D01*
X311423Y361986D01*
X311424Y362003D01*
X311401Y362185D01*
X311381Y362368D01*
X311376Y362385D01*
X311374Y362403D01*
X311315Y362577D01*
X311260Y362752D01*
X311251Y362768D01*
X311245Y362784D01*
X311154Y362943D01*
X311065Y363104D01*
X311053Y363118D01*
X311044Y363133D01*
X310830Y363386D01*
X309713Y364503D01*
X309713Y376397D01*
X310937Y377621D01*
X310942Y377628D01*
X310949Y377633D01*
X311070Y377783D01*
X311192Y377932D01*
X311196Y377940D01*
X311202Y377947D01*
X311290Y378117D01*
X311380Y378288D01*
X311383Y378297D01*
X311387Y378304D01*
X311440Y378489D01*
X311495Y378674D01*
X311496Y378683D01*
X311499Y378691D01*
X311514Y378882D01*
X311532Y379075D01*
X311531Y379084D01*
X311531Y379093D01*
X311509Y379282D01*
X311488Y379475D01*
X311486Y379484D01*
X311485Y379492D01*
X311425Y379674D01*
X311367Y379859D01*
X311362Y379867D01*
X311360Y379875D01*
X311265Y380042D01*
X311172Y380211D01*
X311166Y380218D01*
X311162Y380226D01*
X311037Y380371D01*
X310911Y380518D01*
X310904Y380524D01*
X310899Y380531D01*
X310748Y380647D01*
X310596Y380768D01*
X310587Y380772D01*
X310581Y380777D01*
X310409Y380863D01*
X310237Y380950D01*
X310228Y380953D01*
X310220Y380957D01*
X310034Y381007D01*
X309849Y381058D01*
X309840Y381059D01*
X309831Y381061D01*
X309500Y381088D01*
X301528Y381088D01*
X299697Y382919D01*
X299680Y382933D01*
X299666Y382950D01*
X299524Y383060D01*
X299386Y383174D01*
X299366Y383184D01*
X299349Y383198D01*
X299188Y383279D01*
X299030Y383362D01*
X299009Y383369D01*
X298989Y383379D01*
X298816Y383426D01*
X298644Y383477D01*
X298622Y383479D01*
X298601Y383485D01*
X298423Y383497D01*
X298243Y383514D01*
X298221Y383511D01*
X298199Y383513D01*
X298022Y383490D01*
X297843Y383470D01*
X297822Y383463D01*
X297800Y383461D01*
X297484Y383359D01*
X296451Y382931D01*
X294037Y382931D01*
X291583Y383948D01*
X291570Y383952D01*
X291558Y383958D01*
X291377Y384010D01*
X291197Y384064D01*
X291184Y384065D01*
X291171Y384069D01*
X290982Y384085D01*
X290797Y384102D01*
X290783Y384101D01*
X290770Y384102D01*
X290584Y384080D01*
X290396Y384061D01*
X290383Y384057D01*
X290370Y384055D01*
X290192Y383997D01*
X290012Y383941D01*
X290000Y383934D01*
X289987Y383930D01*
X289824Y383838D01*
X289659Y383748D01*
X289648Y383739D01*
X289637Y383732D01*
X289494Y383610D01*
X289350Y383488D01*
X289342Y383478D01*
X289332Y383469D01*
X289217Y383321D01*
X289099Y383174D01*
X289093Y383162D01*
X289085Y383151D01*
X289002Y382983D01*
X288916Y382816D01*
X288912Y382803D01*
X288906Y382791D01*
X288857Y382608D01*
X288806Y382428D01*
X288805Y382415D01*
X288801Y382402D01*
X288774Y382071D01*
X288774Y372440D01*
X287435Y371101D01*
X280512Y371101D01*
X280486Y371098D01*
X280459Y371100D01*
X280285Y371078D01*
X280111Y371061D01*
X280086Y371053D01*
X280059Y371050D01*
X279893Y370994D01*
X279727Y370943D01*
X279703Y370930D01*
X279678Y370921D01*
X279526Y370834D01*
X279373Y370751D01*
X279352Y370734D01*
X279329Y370720D01*
X279076Y370506D01*
X278075Y369505D01*
X275845Y368581D01*
X273430Y368581D01*
X271200Y369505D01*
X269493Y371212D01*
X268569Y373443D01*
X268569Y375857D01*
X269493Y378088D01*
X271200Y379795D01*
X271947Y380104D01*
X271966Y380115D01*
X271988Y380122D01*
X272144Y380210D01*
X272302Y380294D01*
X272319Y380309D01*
X272338Y380320D01*
X272474Y380436D01*
X272612Y380551D01*
X272626Y380568D01*
X272643Y380583D01*
X272753Y380724D01*
X272866Y380863D01*
X272876Y380883D01*
X272890Y380901D01*
X272970Y381061D01*
X273053Y381220D01*
X273059Y381241D01*
X273069Y381261D01*
X273116Y381435D01*
X273166Y381606D01*
X273168Y381629D01*
X273174Y381650D01*
X273201Y381981D01*
X273201Y384845D01*
X273199Y384862D01*
X273200Y384880D01*
X273179Y385062D01*
X273161Y385245D01*
X273156Y385262D01*
X273154Y385280D01*
X273097Y385454D01*
X273043Y385630D01*
X273034Y385646D01*
X273029Y385663D01*
X272938Y385823D01*
X272851Y385984D01*
X272840Y385998D01*
X272831Y386013D01*
X272711Y386153D01*
X272593Y386293D01*
X272579Y386305D01*
X272568Y386318D01*
X272423Y386431D01*
X272279Y386546D01*
X272264Y386554D01*
X272250Y386565D01*
X272085Y386647D01*
X271922Y386731D01*
X271905Y386736D01*
X271889Y386744D01*
X271711Y386792D01*
X271535Y386843D01*
X271517Y386844D01*
X271500Y386849D01*
X271170Y386876D01*
X255428Y386876D01*
X254088Y388215D01*
X254088Y406110D01*
X255428Y407449D01*
X269713Y407449D01*
X269730Y407451D01*
X269748Y407450D01*
X269930Y407471D01*
X270113Y407489D01*
X270130Y407494D01*
X270148Y407496D01*
X270322Y407553D01*
X270498Y407607D01*
X270514Y407616D01*
X270531Y407621D01*
X270691Y407712D01*
X270852Y407799D01*
X270866Y407810D01*
X270881Y407819D01*
X271021Y407939D01*
X271161Y408057D01*
X271173Y408071D01*
X271186Y408082D01*
X271299Y408227D01*
X271414Y408371D01*
X271422Y408386D01*
X271433Y408400D01*
X271515Y408565D01*
X271599Y408728D01*
X271604Y408745D01*
X271612Y408761D01*
X271660Y408939D01*
X271711Y409115D01*
X271712Y409133D01*
X271717Y409150D01*
X271744Y409480D01*
X271744Y410782D01*
X272668Y413013D01*
X274375Y414720D01*
X276605Y415644D01*
X279020Y415644D01*
X281250Y414720D01*
X282957Y413013D01*
X283500Y411703D01*
X283510Y411684D01*
X283517Y411662D01*
X283606Y411506D01*
X283690Y411348D01*
X283704Y411331D01*
X283715Y411312D01*
X283832Y411176D01*
X283946Y411038D01*
X283964Y411024D01*
X283978Y411007D01*
X284120Y410897D01*
X284259Y410784D01*
X284279Y410774D01*
X284296Y410760D01*
X284457Y410681D01*
X284615Y410597D01*
X284637Y410591D01*
X284657Y410581D01*
X284830Y410534D01*
X285002Y410484D01*
X285024Y410482D01*
X285046Y410476D01*
X285376Y410449D01*
X298474Y410449D01*
X298500Y410452D01*
X298527Y410450D01*
X298701Y410472D01*
X298875Y410489D01*
X298900Y410497D01*
X298927Y410500D01*
X299092Y410556D01*
X299259Y410607D01*
X299283Y410620D01*
X299308Y410629D01*
X299460Y410716D01*
X299613Y410799D01*
X299634Y410816D01*
X299657Y410829D01*
X299910Y411044D01*
X301528Y412662D01*
X314422Y412662D01*
X315762Y411322D01*
X315762Y399428D01*
X314645Y398311D01*
X314634Y398297D01*
X314620Y398286D01*
X314506Y398142D01*
X314390Y398000D01*
X314382Y397984D01*
X314371Y397970D01*
X314287Y397806D01*
X314202Y397644D01*
X314196Y397627D01*
X314188Y397611D01*
X314139Y397434D01*
X314087Y397258D01*
X314085Y397240D01*
X314080Y397223D01*
X314067Y397040D01*
X314050Y396857D01*
X314052Y396839D01*
X314051Y396822D01*
X314074Y396640D01*
X314094Y396457D01*
X314099Y396440D01*
X314101Y396422D01*
X314160Y396248D01*
X314215Y396073D01*
X314224Y396057D01*
X314230Y396041D01*
X314321Y395882D01*
X314410Y395721D01*
X314422Y395707D01*
X314431Y395692D01*
X314645Y395439D01*
X315762Y394322D01*
X315762Y392371D01*
X315763Y392362D01*
X315762Y392353D01*
X315783Y392160D01*
X315802Y391970D01*
X315804Y391961D01*
X315805Y391952D01*
X315864Y391768D01*
X315920Y391585D01*
X315924Y391577D01*
X315927Y391569D01*
X316022Y391397D01*
X316112Y391231D01*
X316117Y391224D01*
X316122Y391216D01*
X316246Y391069D01*
X316369Y390922D01*
X316376Y390916D01*
X316382Y390909D01*
X316532Y390791D01*
X316683Y390669D01*
X316691Y390665D01*
X316698Y390660D01*
X316871Y390572D01*
X317040Y390484D01*
X317049Y390481D01*
X317057Y390477D01*
X317243Y390426D01*
X317427Y390373D01*
X317436Y390372D01*
X317445Y390369D01*
X317635Y390356D01*
X317829Y390340D01*
X317838Y390341D01*
X317846Y390340D01*
X318037Y390364D01*
X318228Y390387D01*
X318237Y390389D01*
X318246Y390390D01*
X318428Y390452D01*
X318611Y390511D01*
X318619Y390516D01*
X318628Y390519D01*
X318706Y390564D01*
X363766Y390564D01*
X369178Y385152D01*
X371857Y382473D01*
X371857Y370243D01*
X371859Y370225D01*
X371857Y370207D01*
X371878Y370025D01*
X371897Y369842D01*
X371902Y369825D01*
X371904Y369808D01*
X371961Y369633D01*
X372015Y369457D01*
X372023Y369442D01*
X372029Y369425D01*
X372119Y369265D01*
X372207Y369103D01*
X372218Y369090D01*
X372227Y369074D01*
X372347Y368935D01*
X372464Y368794D01*
X372478Y368783D01*
X372490Y368769D01*
X372635Y368657D01*
X372778Y368542D01*
X372794Y368534D01*
X372808Y368523D01*
X372973Y368441D01*
X373135Y368356D01*
X373152Y368351D01*
X373168Y368343D01*
X373347Y368296D01*
X373522Y368245D01*
X373540Y368243D01*
X373557Y368239D01*
X373888Y368212D01*
X379240Y368212D01*
X379267Y368214D01*
X379294Y368212D01*
X379468Y368234D01*
X379641Y368252D01*
X379666Y368259D01*
X379693Y368263D01*
X379859Y368318D01*
X380026Y368370D01*
X380049Y368383D01*
X380075Y368391D01*
X380226Y368478D01*
X380380Y368562D01*
X380400Y368579D01*
X380424Y368592D01*
X380677Y368807D01*
X384021Y372151D01*
X384271Y372151D01*
X384297Y372153D01*
X384324Y372151D01*
X384498Y372173D01*
X384671Y372191D01*
X384697Y372198D01*
X384724Y372202D01*
X384889Y372257D01*
X385056Y372309D01*
X385080Y372322D01*
X385105Y372330D01*
X385257Y372417D01*
X385410Y372501D01*
X385431Y372518D01*
X385454Y372531D01*
X385707Y372746D01*
X391581Y378620D01*
X391671Y378697D01*
X391811Y378814D01*
X391823Y378828D01*
X391836Y378840D01*
X391949Y378985D01*
X392064Y379128D01*
X392072Y379144D01*
X392083Y379158D01*
X392164Y379322D01*
X392249Y379485D01*
X392254Y379502D01*
X392262Y379518D01*
X392310Y379697D01*
X392361Y379872D01*
X392362Y379890D01*
X392367Y379907D01*
X392394Y380238D01*
X392394Y382207D01*
X393318Y384438D01*
X395025Y386145D01*
X395572Y386371D01*
X395591Y386382D01*
X395613Y386389D01*
X395769Y386477D01*
X395927Y386562D01*
X395944Y386576D01*
X395963Y386587D01*
X396099Y386704D01*
X396237Y386818D01*
X396251Y386835D01*
X396268Y386850D01*
X396378Y386991D01*
X396491Y387131D01*
X396501Y387150D01*
X396515Y387168D01*
X396595Y387329D01*
X396678Y387487D01*
X396684Y387508D01*
X396694Y387529D01*
X396741Y387702D01*
X396791Y387874D01*
X396793Y387896D01*
X396799Y387917D01*
X396826Y388248D01*
X396826Y395560D01*
X398165Y396899D01*
X408060Y396899D01*
X409520Y395439D01*
X409541Y395422D01*
X409558Y395401D01*
X409696Y395294D01*
X409832Y395184D01*
X409855Y395171D01*
X409877Y395155D01*
X410033Y395077D01*
X410187Y394995D01*
X410213Y394987D01*
X410237Y394975D01*
X410406Y394930D01*
X410573Y394880D01*
X410600Y394878D01*
X410626Y394871D01*
X410957Y394844D01*
X412407Y394844D01*
X412434Y394846D01*
X412461Y394844D01*
X412635Y394866D01*
X412808Y394884D01*
X412834Y394891D01*
X412860Y394895D01*
X413026Y394950D01*
X413193Y395002D01*
X413217Y395015D01*
X413242Y395023D01*
X413393Y395110D01*
X413547Y395194D01*
X413567Y395211D01*
X413591Y395224D01*
X413844Y395439D01*
X414075Y395670D01*
X416305Y396594D01*
X418720Y396594D01*
X420950Y395670D01*
X422657Y393963D01*
X423581Y391732D01*
X423581Y389318D01*
X422657Y387087D01*
X421664Y386094D01*
X421647Y386073D01*
X421627Y386056D01*
X421520Y385918D01*
X421409Y385783D01*
X421397Y385759D01*
X421380Y385738D01*
X421302Y385581D01*
X421220Y385427D01*
X421213Y385401D01*
X421201Y385377D01*
X421155Y385208D01*
X421106Y385041D01*
X421103Y385014D01*
X421096Y384989D01*
X421069Y384658D01*
X421069Y376048D01*
X418391Y373369D01*
X415051Y370029D01*
X415045Y370022D01*
X415038Y370017D01*
X414918Y369867D01*
X414796Y369718D01*
X414791Y369710D01*
X414786Y369703D01*
X414697Y369533D01*
X414607Y369362D01*
X414604Y369353D01*
X414600Y369346D01*
X414547Y369161D01*
X414492Y368976D01*
X414491Y368967D01*
X414489Y368959D01*
X414473Y368768D01*
X414456Y368575D01*
X414457Y368566D01*
X414456Y368557D01*
X414478Y368368D01*
X414499Y368175D01*
X414502Y368166D01*
X414503Y368158D01*
X414562Y367976D01*
X414621Y367791D01*
X414625Y367783D01*
X414628Y367775D01*
X414723Y367606D01*
X414816Y367439D01*
X414821Y367432D01*
X414826Y367424D01*
X414952Y367278D01*
X415076Y367132D01*
X415083Y367126D01*
X415089Y367119D01*
X415240Y367002D01*
X415392Y366882D01*
X415400Y366878D01*
X415407Y366873D01*
X415579Y366787D01*
X415751Y366700D01*
X415759Y366697D01*
X415768Y366693D01*
X415953Y366643D01*
X416139Y366592D01*
X416148Y366591D01*
X416156Y366589D01*
X416487Y366562D01*
X422897Y366562D01*
X424237Y365222D01*
X424237Y356906D01*
X424239Y356880D01*
X424237Y356853D01*
X424259Y356679D01*
X424277Y356506D01*
X424285Y356480D01*
X424288Y356454D01*
X424343Y356288D01*
X424395Y356121D01*
X424408Y356097D01*
X424416Y356072D01*
X424503Y355921D01*
X424587Y355767D01*
X424604Y355746D01*
X424617Y355723D01*
X424832Y355470D01*
X425667Y354635D01*
X425954Y353941D01*
X425965Y353921D01*
X425972Y353900D01*
X426060Y353744D01*
X426144Y353586D01*
X426159Y353569D01*
X426170Y353549D01*
X426287Y353414D01*
X426401Y353275D01*
X426418Y353261D01*
X426433Y353244D01*
X426574Y353135D01*
X426714Y353022D01*
X426733Y353011D01*
X426751Y352998D01*
X426911Y352918D01*
X427070Y352835D01*
X427091Y352828D01*
X427111Y352818D01*
X427285Y352772D01*
X427456Y352722D01*
X427479Y352720D01*
X427500Y352714D01*
X427831Y352687D01*
X437635Y352687D01*
X438974Y351347D01*
X438974Y316990D01*
X437635Y315651D01*
X437418Y315651D01*
X437400Y315649D01*
X437382Y315650D01*
X437200Y315629D01*
X437017Y315611D01*
X437000Y315606D01*
X436983Y315604D01*
X436808Y315547D01*
X436632Y315493D01*
X436617Y315484D01*
X436600Y315479D01*
X436440Y315388D01*
X436278Y315301D01*
X436265Y315290D01*
X436249Y315281D01*
X436110Y315161D01*
X435969Y315043D01*
X435958Y315029D01*
X435944Y315018D01*
X435832Y314873D01*
X435717Y314729D01*
X435709Y314714D01*
X435698Y314700D01*
X435616Y314535D01*
X435531Y314372D01*
X435526Y314355D01*
X435518Y314339D01*
X435471Y314161D01*
X435420Y313985D01*
X435418Y313967D01*
X435414Y313950D01*
X435387Y313620D01*
X435387Y293396D01*
X435388Y293387D01*
X435387Y293378D01*
X435408Y293184D01*
X435427Y292995D01*
X435429Y292987D01*
X435430Y292978D01*
X435489Y292792D01*
X435545Y292610D01*
X435549Y292602D01*
X435552Y292594D01*
X435566Y292568D01*
X435478Y292613D01*
X435469Y292615D01*
X435461Y292619D01*
X435275Y292669D01*
X435090Y292721D01*
X435081Y292721D01*
X435073Y292724D01*
X434742Y292751D01*
X427262Y292751D01*
X427236Y292748D01*
X427209Y292750D01*
X427035Y292728D01*
X426862Y292711D01*
X426836Y292703D01*
X426810Y292700D01*
X426644Y292644D01*
X426477Y292593D01*
X426453Y292580D01*
X426428Y292571D01*
X426276Y292484D01*
X426123Y292401D01*
X426102Y292384D01*
X426079Y292371D01*
X425826Y292156D01*
X416145Y282474D01*
X416133Y282460D01*
X416119Y282449D01*
X416006Y282305D01*
X415889Y282163D01*
X415881Y282147D01*
X415870Y282133D01*
X415786Y281968D01*
X415701Y281807D01*
X415696Y281790D01*
X415688Y281774D01*
X415638Y281596D01*
X415586Y281421D01*
X415584Y281403D01*
X415580Y281386D01*
X415566Y281204D01*
X415550Y281020D01*
X415552Y281002D01*
X415550Y280985D01*
X415573Y280804D01*
X415593Y280620D01*
X415599Y280603D01*
X415601Y280585D01*
X415659Y280412D01*
X415687Y280324D01*
X415687Y274165D01*
X414347Y272826D01*
X405956Y272826D01*
X405929Y272823D01*
X405902Y272825D01*
X405728Y272803D01*
X405555Y272786D01*
X405530Y272778D01*
X405503Y272775D01*
X405337Y272719D01*
X405170Y272668D01*
X405147Y272655D01*
X405121Y272646D01*
X404970Y272559D01*
X404816Y272476D01*
X404796Y272459D01*
X404772Y272445D01*
X404519Y272231D01*
X397121Y264832D01*
X397109Y264818D01*
X397096Y264807D01*
X396982Y264663D01*
X396866Y264521D01*
X396857Y264505D01*
X396846Y264491D01*
X396763Y264327D01*
X396677Y264165D01*
X396672Y264148D01*
X396664Y264132D01*
X396614Y263954D01*
X396562Y263779D01*
X396560Y263761D01*
X396556Y263744D01*
X396542Y263561D01*
X396526Y263378D01*
X396528Y263360D01*
X396526Y263342D01*
X396549Y263160D01*
X396569Y262978D01*
X396575Y262961D01*
X396577Y262943D01*
X396635Y262769D01*
X396691Y262594D01*
X396699Y262578D01*
X396705Y262561D01*
X396797Y262402D01*
X396885Y262242D01*
X396897Y262228D01*
X396906Y262212D01*
X397121Y261959D01*
X401086Y257994D01*
X401107Y257977D01*
X401124Y257957D01*
X401262Y257850D01*
X401397Y257739D01*
X401421Y257727D01*
X401442Y257710D01*
X401599Y257632D01*
X401753Y257551D01*
X401779Y257543D01*
X401803Y257531D01*
X401972Y257485D01*
X402139Y257436D01*
X402166Y257433D01*
X402191Y257426D01*
X402522Y257399D01*
X414347Y257399D01*
X415687Y256060D01*
X415687Y253145D01*
X415688Y253127D01*
X415687Y253109D01*
X415708Y252927D01*
X415727Y252744D01*
X415732Y252727D01*
X415734Y252709D01*
X415791Y252535D01*
X415845Y252359D01*
X415853Y252343D01*
X415859Y252326D01*
X415949Y252166D01*
X416036Y252005D01*
X416048Y251991D01*
X416057Y251976D01*
X416177Y251836D01*
X416294Y251696D01*
X416308Y251685D01*
X416320Y251671D01*
X416465Y251559D01*
X416608Y251443D01*
X416624Y251435D01*
X416638Y251424D01*
X416803Y251342D01*
X416965Y251258D01*
X416982Y251253D01*
X416998Y251245D01*
X417177Y251197D01*
X417352Y251146D01*
X417370Y251145D01*
X417387Y251140D01*
X417718Y251113D01*
X419249Y251113D01*
X419276Y251116D01*
G37*
G36*
X281578Y190594D02*
X281578Y190594D01*
X281606Y190591D01*
X281674Y190614D01*
X281745Y190628D01*
X281768Y190644D01*
X281795Y190653D01*
X281850Y190700D01*
X281909Y190740D01*
X281924Y190764D01*
X281946Y190783D01*
X281977Y190847D01*
X282016Y190908D01*
X282021Y190936D01*
X282033Y190961D01*
X282042Y191063D01*
X282049Y191104D01*
X282047Y191114D01*
X282048Y191127D01*
X281805Y194177D01*
X281796Y194210D01*
X281792Y194257D01*
X281450Y195652D01*
X318054Y195652D01*
X318205Y195667D01*
X318357Y195675D01*
X318405Y195687D01*
X318454Y195692D01*
X318600Y195737D01*
X318748Y195774D01*
X318792Y195796D01*
X318839Y195810D01*
X318973Y195883D01*
X319110Y195949D01*
X319156Y195982D01*
X319193Y196002D01*
X319259Y196057D01*
X319379Y196144D01*
X319432Y196190D01*
X319484Y196244D01*
X319497Y196255D01*
X319544Y196294D01*
X319624Y196391D01*
X319710Y196481D01*
X319751Y196546D01*
X319799Y196605D01*
X319858Y196716D01*
X319924Y196822D01*
X319952Y196893D01*
X319987Y196961D01*
X320037Y197117D01*
X320068Y197198D01*
X320074Y197234D01*
X320087Y197277D01*
X320280Y198120D01*
X320289Y198196D01*
X320308Y198270D01*
X320314Y198396D01*
X320330Y198520D01*
X320325Y198596D01*
X320328Y198672D01*
X320310Y198796D01*
X320302Y198908D01*
X320624Y199728D01*
X320642Y199793D01*
X320713Y200018D01*
X320910Y200883D01*
X320949Y200918D01*
X321024Y201019D01*
X321106Y201114D01*
X321143Y201180D01*
X321189Y201242D01*
X321260Y201388D01*
X321303Y201464D01*
X321314Y201498D01*
X321335Y201540D01*
X321651Y202345D01*
X321671Y202418D01*
X321701Y202489D01*
X321726Y202611D01*
X321760Y202732D01*
X321766Y202809D01*
X321781Y202883D01*
X321781Y203009D01*
X321789Y203120D01*
X322230Y203883D01*
X322258Y203944D01*
X322362Y204157D01*
X322686Y204983D01*
X322729Y205011D01*
X322818Y205100D01*
X322913Y205182D01*
X322960Y205242D01*
X323014Y205296D01*
X323107Y205430D01*
X323161Y205499D01*
X323177Y205531D01*
X323203Y205569D01*
X323635Y206318D01*
X323667Y206387D01*
X323707Y206453D01*
X323750Y206570D01*
X323801Y206684D01*
X323818Y206759D01*
X323845Y206831D01*
X323863Y206955D01*
X323888Y207063D01*
X324438Y207752D01*
X324474Y207809D01*
X324609Y208003D01*
X325052Y208772D01*
X325100Y208794D01*
X325201Y208868D01*
X325307Y208935D01*
X325362Y208987D01*
X325424Y209033D01*
X325536Y209152D01*
X325599Y209211D01*
X325620Y209241D01*
X325651Y209274D01*
X326190Y209950D01*
X326232Y210014D01*
X326281Y210073D01*
X326341Y210183D01*
X326409Y210288D01*
X326437Y210359D01*
X326474Y210427D01*
X326511Y210546D01*
X326552Y210650D01*
X327197Y211249D01*
X327242Y211300D01*
X327404Y211472D01*
X327957Y212166D01*
X328007Y212180D01*
X328118Y212239D01*
X328233Y212289D01*
X328296Y212333D01*
X328363Y212368D01*
X328492Y212469D01*
X328563Y212519D01*
X328588Y212545D01*
X328624Y212573D01*
X329258Y213161D01*
X329309Y213219D01*
X329366Y213269D01*
X329442Y213369D01*
X329525Y213463D01*
X329563Y213529D01*
X329609Y213590D01*
X329664Y213703D01*
X329720Y213800D01*
X330448Y214296D01*
X330499Y214339D01*
X330685Y214485D01*
X331336Y215089D01*
X331387Y215096D01*
X331505Y215137D01*
X331627Y215170D01*
X331695Y215203D01*
X331767Y215229D01*
X331909Y215309D01*
X331988Y215348D01*
X332016Y215370D01*
X332056Y215393D01*
X332770Y215880D01*
X332829Y215929D01*
X332893Y215970D01*
X332983Y216058D01*
X333079Y216138D01*
X333127Y216198D01*
X333181Y216251D01*
X333252Y216355D01*
X333322Y216442D01*
X334115Y216824D01*
X334172Y216859D01*
X334378Y216976D01*
X335112Y217476D01*
X335164Y217475D01*
X335287Y217498D01*
X335412Y217512D01*
X335484Y217536D01*
X335560Y217550D01*
X335712Y217608D01*
X335795Y217635D01*
X335826Y217652D01*
X335869Y217669D01*
X336648Y218044D01*
X336714Y218084D01*
X336783Y218115D01*
X336885Y218188D01*
X336992Y218254D01*
X337048Y218306D01*
X337110Y218350D01*
X337195Y218442D01*
X337277Y218518D01*
X338119Y218778D01*
X338181Y218804D01*
X338402Y218889D01*
X339201Y219274D01*
X339253Y219265D01*
X339378Y219270D01*
X339503Y219265D01*
X339579Y219277D01*
X339655Y219280D01*
X339815Y219315D01*
X339901Y219329D01*
X339935Y219341D01*
X339979Y219351D01*
X340806Y219606D01*
X340876Y219636D01*
X340950Y219657D01*
X341061Y219714D01*
X341177Y219762D01*
X341240Y219805D01*
X341308Y219840D01*
X341406Y219918D01*
X341498Y219981D01*
X342369Y220112D01*
X342435Y220129D01*
X342665Y220180D01*
X343513Y220441D01*
X343563Y220425D01*
X343688Y220411D01*
X343811Y220388D01*
X343887Y220389D01*
X343963Y220380D01*
X344126Y220391D01*
X344213Y220392D01*
X344248Y220399D01*
X344294Y220402D01*
X345149Y220531D01*
X345223Y220550D01*
X345299Y220560D01*
X345418Y220600D01*
X345539Y220630D01*
X345608Y220664D01*
X345681Y220688D01*
X345790Y220750D01*
X345890Y220799D01*
X346771Y220799D01*
X346838Y220805D01*
X347074Y220821D01*
X348246Y220998D01*
X348262Y220997D01*
X348395Y220978D01*
X348462Y220982D01*
X348530Y220977D01*
X348663Y220994D01*
X348797Y221002D01*
X348862Y221019D01*
X348929Y221028D01*
X349057Y221070D01*
X349186Y221105D01*
X349247Y221134D01*
X349311Y221156D01*
X349427Y221223D01*
X349548Y221282D01*
X349601Y221323D01*
X349660Y221357D01*
X349799Y221475D01*
X349867Y221527D01*
X349886Y221548D01*
X349913Y221572D01*
X355839Y227497D01*
X355856Y227518D01*
X355876Y227536D01*
X355983Y227674D01*
X356094Y227809D01*
X356106Y227833D01*
X356123Y227854D01*
X356201Y228011D01*
X356283Y228165D01*
X356290Y228190D01*
X356302Y228214D01*
X356348Y228384D01*
X356397Y228551D01*
X356400Y228577D01*
X356407Y228603D01*
X356434Y228934D01*
X356434Y230124D01*
X356432Y230142D01*
X356433Y230160D01*
X356412Y230342D01*
X356394Y230525D01*
X356389Y230542D01*
X356387Y230559D01*
X356330Y230734D01*
X356276Y230910D01*
X356267Y230925D01*
X356262Y230942D01*
X356171Y231102D01*
X356084Y231264D01*
X356073Y231277D01*
X356064Y231293D01*
X355944Y231432D01*
X355826Y231573D01*
X355812Y231584D01*
X355801Y231598D01*
X355656Y231710D01*
X355512Y231825D01*
X355497Y231833D01*
X355483Y231844D01*
X355318Y231926D01*
X355155Y232011D01*
X355138Y232016D01*
X355122Y232024D01*
X354944Y232071D01*
X354768Y232122D01*
X354750Y232124D01*
X354733Y232128D01*
X354403Y232155D01*
X327941Y232155D01*
X326602Y233495D01*
X326602Y243517D01*
X327941Y244857D01*
X373825Y244857D01*
X373842Y244859D01*
X373860Y244857D01*
X374042Y244878D01*
X374225Y244897D01*
X374242Y244902D01*
X374260Y244904D01*
X374434Y244961D01*
X374610Y245015D01*
X374626Y245023D01*
X374643Y245029D01*
X374803Y245119D01*
X374964Y245207D01*
X374978Y245218D01*
X374993Y245227D01*
X375133Y245347D01*
X375273Y245464D01*
X375285Y245478D01*
X375298Y245490D01*
X375411Y245635D01*
X375526Y245778D01*
X375534Y245794D01*
X375545Y245808D01*
X375627Y245973D01*
X375711Y246135D01*
X375716Y246152D01*
X375724Y246168D01*
X375772Y246346D01*
X375823Y246522D01*
X375824Y246540D01*
X375829Y246557D01*
X375856Y246888D01*
X375856Y287770D01*
X377195Y289110D01*
X387505Y289110D01*
X387532Y289112D01*
X387559Y289110D01*
X387732Y289132D01*
X387906Y289150D01*
X387931Y289157D01*
X387958Y289161D01*
X388124Y289216D01*
X388291Y289268D01*
X388314Y289281D01*
X388340Y289289D01*
X388491Y289376D01*
X388645Y289460D01*
X388665Y289477D01*
X388689Y289490D01*
X388942Y289705D01*
X393498Y294261D01*
X394998Y295761D01*
X396585Y296419D01*
X400782Y296419D01*
X400800Y296421D01*
X400818Y296419D01*
X401000Y296440D01*
X401183Y296459D01*
X401200Y296464D01*
X401217Y296466D01*
X401392Y296523D01*
X401568Y296577D01*
X401583Y296585D01*
X401600Y296591D01*
X401760Y296681D01*
X401922Y296769D01*
X401935Y296780D01*
X401951Y296789D01*
X402090Y296909D01*
X402231Y297026D01*
X402242Y297040D01*
X402256Y297052D01*
X402368Y297197D01*
X402483Y297340D01*
X402491Y297356D01*
X402502Y297370D01*
X402584Y297535D01*
X402669Y297697D01*
X402674Y297714D01*
X402682Y297730D01*
X402729Y297909D01*
X402780Y298084D01*
X402782Y298102D01*
X402786Y298119D01*
X402813Y298450D01*
X402813Y315736D01*
X402811Y315763D01*
X402813Y315790D01*
X402791Y315964D01*
X402773Y316137D01*
X402766Y316163D01*
X402762Y316189D01*
X402707Y316355D01*
X402655Y316522D01*
X402642Y316546D01*
X402634Y316571D01*
X402547Y316722D01*
X402463Y316876D01*
X402446Y316897D01*
X402433Y316920D01*
X402401Y316958D01*
X402401Y332400D01*
X402400Y332409D01*
X402401Y332418D01*
X402380Y332610D01*
X402361Y332801D01*
X402358Y332810D01*
X402357Y332819D01*
X402300Y333001D01*
X402243Y333186D01*
X402238Y333194D01*
X402236Y333202D01*
X402143Y333371D01*
X402051Y333540D01*
X402045Y333547D01*
X402041Y333555D01*
X401916Y333703D01*
X401793Y333849D01*
X401786Y333855D01*
X401780Y333862D01*
X401628Y333982D01*
X401479Y334102D01*
X401472Y334106D01*
X401465Y334111D01*
X401292Y334199D01*
X401122Y334287D01*
X401114Y334290D01*
X401106Y334294D01*
X400920Y334345D01*
X400735Y334399D01*
X400726Y334399D01*
X400718Y334402D01*
X400525Y334416D01*
X400334Y334431D01*
X400325Y334430D01*
X400316Y334431D01*
X400125Y334407D01*
X399934Y334385D01*
X399926Y334382D01*
X399917Y334381D01*
X399735Y334320D01*
X399551Y334260D01*
X399544Y334255D01*
X399535Y334252D01*
X399368Y334156D01*
X399201Y334062D01*
X399194Y334056D01*
X399186Y334051D01*
X398933Y333837D01*
X398560Y333463D01*
X397700Y333463D01*
X397683Y333461D01*
X397665Y333463D01*
X397483Y333442D01*
X397300Y333423D01*
X397283Y333418D01*
X397265Y333416D01*
X397091Y333359D01*
X396915Y333305D01*
X396899Y333297D01*
X396882Y333291D01*
X396722Y333201D01*
X396561Y333113D01*
X396547Y333102D01*
X396532Y333093D01*
X396392Y332973D01*
X396252Y332856D01*
X396240Y332842D01*
X396227Y332830D01*
X396114Y332685D01*
X395999Y332542D01*
X395991Y332526D01*
X395980Y332512D01*
X395898Y332347D01*
X395814Y332185D01*
X395809Y332168D01*
X395801Y332152D01*
X395753Y331973D01*
X395702Y331798D01*
X395701Y331780D01*
X395696Y331763D01*
X395669Y331432D01*
X395669Y323064D01*
X392991Y320385D01*
X389301Y316696D01*
X389293Y316685D01*
X389282Y316677D01*
X389165Y316529D01*
X389046Y316384D01*
X389040Y316372D01*
X389031Y316362D01*
X388945Y316194D01*
X388857Y316028D01*
X388854Y316016D01*
X388847Y316004D01*
X388796Y315823D01*
X388743Y315642D01*
X388741Y315629D01*
X388738Y315616D01*
X388723Y315429D01*
X388706Y315242D01*
X388708Y315228D01*
X388707Y315215D01*
X388729Y315029D01*
X388750Y314841D01*
X388754Y314828D01*
X388755Y314815D01*
X388814Y314636D01*
X388871Y314457D01*
X388878Y314446D01*
X388882Y314433D01*
X388975Y314269D01*
X389066Y314105D01*
X389075Y314095D01*
X389081Y314083D01*
X389205Y313941D01*
X389326Y313798D01*
X389337Y313790D01*
X389346Y313780D01*
X389495Y313665D01*
X389642Y313548D01*
X389654Y313542D01*
X389665Y313534D01*
X389960Y313383D01*
X390788Y313040D01*
X392495Y311333D01*
X393419Y309102D01*
X393419Y306688D01*
X392495Y304457D01*
X390788Y302750D01*
X389811Y302346D01*
X389792Y302335D01*
X389770Y302328D01*
X389614Y302240D01*
X389456Y302156D01*
X389439Y302141D01*
X389420Y302130D01*
X389284Y302013D01*
X389146Y301899D01*
X389132Y301882D01*
X389115Y301867D01*
X389005Y301726D01*
X388892Y301586D01*
X388882Y301567D01*
X388868Y301549D01*
X388788Y301388D01*
X388705Y301230D01*
X388699Y301209D01*
X388689Y301189D01*
X388642Y301015D01*
X388592Y300844D01*
X388590Y300821D01*
X388584Y300800D01*
X388557Y300469D01*
X388557Y298340D01*
X387218Y297000D01*
X377195Y297000D01*
X375856Y298340D01*
X375856Y299212D01*
X375854Y299230D01*
X375855Y299248D01*
X375834Y299430D01*
X375816Y299613D01*
X375811Y299630D01*
X375809Y299647D01*
X375752Y299822D01*
X375698Y299998D01*
X375689Y300013D01*
X375684Y300030D01*
X375593Y300190D01*
X375506Y300352D01*
X375495Y300365D01*
X375486Y300381D01*
X375366Y300520D01*
X375248Y300661D01*
X375234Y300672D01*
X375223Y300686D01*
X375078Y300798D01*
X374934Y300913D01*
X374919Y300921D01*
X374905Y300932D01*
X374740Y301014D01*
X374577Y301099D01*
X374560Y301104D01*
X374544Y301112D01*
X374366Y301159D01*
X374190Y301210D01*
X374172Y301212D01*
X374155Y301216D01*
X373825Y301243D01*
X321500Y301243D01*
X321483Y301241D01*
X321465Y301243D01*
X321283Y301222D01*
X321100Y301203D01*
X321083Y301198D01*
X321065Y301196D01*
X320891Y301139D01*
X320715Y301085D01*
X320699Y301077D01*
X320682Y301071D01*
X320522Y300981D01*
X320361Y300893D01*
X320347Y300882D01*
X320332Y300873D01*
X320192Y300753D01*
X320052Y300636D01*
X320040Y300622D01*
X320027Y300610D01*
X319914Y300465D01*
X319799Y300322D01*
X319791Y300306D01*
X319780Y300292D01*
X319698Y300127D01*
X319614Y299965D01*
X319609Y299948D01*
X319601Y299932D01*
X319553Y299753D01*
X319502Y299578D01*
X319501Y299560D01*
X319496Y299543D01*
X319469Y299212D01*
X319469Y273334D01*
X318121Y271986D01*
X318110Y271972D01*
X318096Y271960D01*
X317982Y271816D01*
X317866Y271674D01*
X317858Y271659D01*
X317847Y271645D01*
X317763Y271480D01*
X317678Y271319D01*
X317672Y271302D01*
X317664Y271286D01*
X317615Y271108D01*
X317563Y270933D01*
X317561Y270915D01*
X317556Y270898D01*
X317543Y270715D01*
X317526Y270532D01*
X317528Y270514D01*
X317527Y270496D01*
X317550Y270314D01*
X317570Y270131D01*
X317575Y270114D01*
X317577Y270097D01*
X317636Y269923D01*
X317691Y269748D01*
X317700Y269732D01*
X317706Y269715D01*
X317797Y269556D01*
X317886Y269395D01*
X317898Y269382D01*
X317907Y269366D01*
X318121Y269113D01*
X319469Y267765D01*
X319469Y248327D01*
X318130Y246987D01*
X308421Y246987D01*
X308395Y246985D01*
X308368Y246987D01*
X308194Y246965D01*
X308021Y246947D01*
X307995Y246940D01*
X307968Y246936D01*
X307803Y246881D01*
X307636Y246829D01*
X307612Y246816D01*
X307587Y246808D01*
X307435Y246721D01*
X307282Y246637D01*
X307261Y246620D01*
X307238Y246607D01*
X306985Y246392D01*
X303719Y243127D01*
X303702Y243106D01*
X303682Y243088D01*
X303575Y242951D01*
X303464Y242815D01*
X303452Y242792D01*
X303435Y242770D01*
X303357Y242613D01*
X303275Y242459D01*
X303268Y242434D01*
X303256Y242410D01*
X303210Y242240D01*
X303161Y242074D01*
X303158Y242047D01*
X303151Y242021D01*
X303124Y241690D01*
X303124Y231678D01*
X301785Y230338D01*
X289890Y230338D01*
X288774Y231455D01*
X288760Y231466D01*
X288748Y231480D01*
X288604Y231594D01*
X288462Y231710D01*
X288447Y231718D01*
X288433Y231729D01*
X288268Y231813D01*
X288107Y231898D01*
X288090Y231904D01*
X288074Y231912D01*
X287896Y231961D01*
X287721Y232013D01*
X287703Y232015D01*
X287686Y232020D01*
X287503Y232033D01*
X287320Y232050D01*
X287302Y232048D01*
X287284Y232049D01*
X287102Y232026D01*
X286919Y232006D01*
X286902Y232001D01*
X286885Y231999D01*
X286711Y231940D01*
X286536Y231885D01*
X286520Y231876D01*
X286503Y231870D01*
X286344Y231779D01*
X286183Y231690D01*
X286170Y231678D01*
X286154Y231669D01*
X285901Y231455D01*
X284785Y230338D01*
X284433Y230338D01*
X284424Y230337D01*
X284415Y230338D01*
X284223Y230317D01*
X284032Y230298D01*
X284024Y230296D01*
X284015Y230295D01*
X283833Y230237D01*
X283648Y230180D01*
X283640Y230176D01*
X283631Y230173D01*
X283463Y230080D01*
X283294Y229988D01*
X283287Y229983D01*
X283279Y229978D01*
X283132Y229854D01*
X282984Y229731D01*
X282979Y229724D01*
X282972Y229718D01*
X282853Y229567D01*
X282732Y229417D01*
X282728Y229409D01*
X282722Y229402D01*
X282634Y229229D01*
X282546Y229060D01*
X282544Y229051D01*
X282540Y229043D01*
X282488Y228857D01*
X282435Y228673D01*
X282434Y228664D01*
X282432Y228655D01*
X282418Y228462D01*
X282402Y228271D01*
X282403Y228263D01*
X282403Y228254D01*
X282427Y228061D01*
X282449Y227872D01*
X282452Y227863D01*
X282453Y227854D01*
X282514Y227671D01*
X282574Y227489D01*
X282578Y227481D01*
X282581Y227473D01*
X282677Y227306D01*
X282772Y227138D01*
X282778Y227131D01*
X282782Y227124D01*
X282997Y226871D01*
X287304Y222564D01*
X287325Y222547D01*
X287342Y222526D01*
X287480Y222420D01*
X287615Y222309D01*
X287639Y222296D01*
X287660Y222280D01*
X287816Y222202D01*
X287971Y222120D01*
X287997Y222112D01*
X288021Y222100D01*
X288190Y222055D01*
X288357Y222005D01*
X288384Y222003D01*
X288409Y221996D01*
X288740Y221969D01*
X290145Y221969D01*
X292375Y221045D01*
X294082Y219338D01*
X295006Y217107D01*
X295006Y214693D01*
X294082Y212462D01*
X292375Y210755D01*
X290145Y209831D01*
X287730Y209831D01*
X285500Y210755D01*
X283793Y212462D01*
X282869Y214693D01*
X282869Y216097D01*
X282866Y216124D01*
X282868Y216151D01*
X282846Y216325D01*
X282829Y216498D01*
X282821Y216523D01*
X282818Y216550D01*
X282762Y216716D01*
X282711Y216883D01*
X282698Y216906D01*
X282689Y216932D01*
X282602Y217083D01*
X282519Y217237D01*
X282502Y217257D01*
X282489Y217281D01*
X282274Y217534D01*
X275281Y224527D01*
X275281Y228307D01*
X275279Y228325D01*
X275280Y228343D01*
X275259Y228525D01*
X275241Y228708D01*
X275236Y228725D01*
X275234Y228742D01*
X275177Y228917D01*
X275123Y229093D01*
X275114Y229108D01*
X275109Y229125D01*
X275018Y229285D01*
X274931Y229447D01*
X274920Y229460D01*
X274911Y229476D01*
X274791Y229615D01*
X274673Y229756D01*
X274659Y229767D01*
X274648Y229781D01*
X274503Y229893D01*
X274359Y230008D01*
X274344Y230016D01*
X274330Y230027D01*
X274165Y230109D01*
X274002Y230194D01*
X273985Y230199D01*
X273969Y230207D01*
X273791Y230254D01*
X273615Y230305D01*
X273597Y230307D01*
X273580Y230311D01*
X273250Y230338D01*
X272890Y230338D01*
X271551Y231678D01*
X271551Y244731D01*
X271549Y244749D01*
X271550Y244767D01*
X271529Y244949D01*
X271511Y245132D01*
X271506Y245149D01*
X271504Y245166D01*
X271447Y245341D01*
X271393Y245517D01*
X271384Y245532D01*
X271379Y245549D01*
X271289Y245709D01*
X271201Y245871D01*
X271190Y245884D01*
X271181Y245900D01*
X271061Y246039D01*
X270943Y246180D01*
X270929Y246191D01*
X270918Y246205D01*
X270773Y246317D01*
X270629Y246432D01*
X270614Y246440D01*
X270600Y246451D01*
X270435Y246533D01*
X270272Y246618D01*
X270255Y246623D01*
X270239Y246631D01*
X270061Y246678D01*
X269885Y246729D01*
X269867Y246731D01*
X269850Y246735D01*
X269520Y246762D01*
X253829Y246762D01*
X253803Y246760D01*
X253776Y246762D01*
X253602Y246740D01*
X253428Y246722D01*
X253403Y246715D01*
X253376Y246711D01*
X253211Y246656D01*
X253044Y246604D01*
X253020Y246591D01*
X252995Y246583D01*
X252843Y246496D01*
X252690Y246412D01*
X252669Y246395D01*
X252646Y246382D01*
X252393Y246167D01*
X249833Y243607D01*
X249816Y243587D01*
X249796Y243569D01*
X249688Y243431D01*
X249578Y243296D01*
X249565Y243272D01*
X249549Y243251D01*
X249471Y243094D01*
X249389Y242940D01*
X249381Y242915D01*
X249369Y242890D01*
X249324Y242721D01*
X249274Y242554D01*
X249272Y242528D01*
X249265Y242502D01*
X249238Y242171D01*
X249238Y240766D01*
X248314Y238536D01*
X246607Y236829D01*
X244555Y235979D01*
X244423Y235908D01*
X244286Y235843D01*
X244245Y235813D01*
X244200Y235789D01*
X244084Y235693D01*
X243963Y235603D01*
X243929Y235565D01*
X243890Y235532D01*
X243795Y235416D01*
X243694Y235303D01*
X243668Y235259D01*
X243636Y235220D01*
X243566Y235086D01*
X243490Y234957D01*
X243473Y234908D01*
X243449Y234863D01*
X243407Y234718D01*
X243357Y234576D01*
X243350Y234526D01*
X243336Y234477D01*
X243323Y234327D01*
X243303Y234177D01*
X243306Y234127D01*
X243301Y234076D01*
X243318Y233926D01*
X243328Y233776D01*
X243341Y233726D01*
X243347Y233676D01*
X243393Y233532D01*
X243431Y233387D01*
X243456Y233334D01*
X243470Y233292D01*
X243511Y233218D01*
X243573Y233087D01*
X257036Y209767D01*
X255678Y209376D01*
X255648Y209360D01*
X255603Y209347D01*
X252837Y208039D01*
X252814Y208022D01*
X252787Y208012D01*
X252735Y207963D01*
X252677Y207920D01*
X252663Y207895D01*
X252642Y207875D01*
X252613Y207810D01*
X252577Y207748D01*
X252574Y207720D01*
X252562Y207693D01*
X252561Y207621D01*
X252552Y207551D01*
X252560Y207523D01*
X252560Y207494D01*
X252595Y207400D01*
X252606Y207359D01*
X252613Y207351D01*
X252617Y207338D01*
X262117Y190838D01*
X262169Y190780D01*
X262215Y190717D01*
X262234Y190706D01*
X262249Y190689D01*
X262319Y190656D01*
X262386Y190616D01*
X262411Y190612D01*
X262428Y190603D01*
X262473Y190601D01*
X262550Y190588D01*
X281550Y190588D01*
X281578Y190594D01*
G37*
G36*
X258062Y258704D02*
X258062Y258704D01*
X258089Y258702D01*
X258263Y258724D01*
X258436Y258742D01*
X258461Y258749D01*
X258488Y258753D01*
X258654Y258808D01*
X258821Y258860D01*
X258845Y258873D01*
X258870Y258881D01*
X259021Y258968D01*
X259175Y259052D01*
X259195Y259069D01*
X259219Y259082D01*
X259472Y259297D01*
X262548Y262373D01*
X262565Y262394D01*
X262586Y262411D01*
X262693Y262549D01*
X262803Y262685D01*
X262816Y262708D01*
X262832Y262730D01*
X262910Y262886D01*
X262992Y263040D01*
X263000Y263066D01*
X263012Y263090D01*
X263057Y263259D01*
X263107Y263426D01*
X263109Y263453D01*
X263116Y263479D01*
X263143Y263810D01*
X263143Y288833D01*
X263173Y288870D01*
X263294Y289018D01*
X263298Y289026D01*
X263304Y289033D01*
X263392Y289203D01*
X263483Y289374D01*
X263486Y289383D01*
X263490Y289390D01*
X263543Y289575D01*
X263598Y289760D01*
X263598Y289769D01*
X263601Y289777D01*
X263617Y289968D01*
X263634Y290161D01*
X263633Y290170D01*
X263634Y290179D01*
X263612Y290368D01*
X263591Y290561D01*
X263588Y290570D01*
X263587Y290578D01*
X263527Y290762D01*
X263469Y290945D01*
X263465Y290953D01*
X263462Y290961D01*
X263367Y291130D01*
X263274Y291297D01*
X263269Y291304D01*
X263264Y291312D01*
X263140Y291455D01*
X263014Y291604D01*
X263007Y291610D01*
X263001Y291617D01*
X262850Y291734D01*
X262698Y291854D01*
X262690Y291858D01*
X262683Y291863D01*
X262511Y291949D01*
X262339Y292036D01*
X262331Y292039D01*
X262322Y292043D01*
X262134Y292093D01*
X261951Y292144D01*
X261942Y292145D01*
X261934Y292147D01*
X261603Y292174D01*
X261121Y292174D01*
X239947Y313348D01*
X239926Y313365D01*
X239908Y313386D01*
X239771Y313493D01*
X239635Y313603D01*
X239612Y313616D01*
X239590Y313632D01*
X239433Y313710D01*
X239279Y313792D01*
X239254Y313800D01*
X239230Y313812D01*
X239060Y313857D01*
X238894Y313907D01*
X238867Y313909D01*
X238841Y313916D01*
X238510Y313943D01*
X232857Y313943D01*
X232835Y313941D01*
X232812Y313943D01*
X232635Y313921D01*
X232456Y313903D01*
X232435Y313897D01*
X232413Y313894D01*
X232243Y313838D01*
X232071Y313785D01*
X232052Y313775D01*
X232031Y313768D01*
X231875Y313679D01*
X231717Y313593D01*
X231700Y313579D01*
X231681Y313568D01*
X231546Y313450D01*
X231408Y313336D01*
X231394Y313318D01*
X231377Y313304D01*
X231268Y313161D01*
X231156Y313022D01*
X231146Y313002D01*
X231132Y312984D01*
X230980Y312689D01*
X230649Y311888D01*
X227862Y309101D01*
X224221Y307593D01*
X220279Y307593D01*
X216638Y309101D01*
X213851Y311888D01*
X212343Y315529D01*
X212343Y319471D01*
X213851Y323112D01*
X216638Y325899D01*
X220279Y327407D01*
X224221Y327407D01*
X227862Y325899D01*
X230649Y323112D01*
X230980Y322311D01*
X230991Y322291D01*
X230998Y322270D01*
X231086Y322114D01*
X231170Y321956D01*
X231185Y321939D01*
X231196Y321919D01*
X231313Y321783D01*
X231427Y321645D01*
X231444Y321631D01*
X231459Y321614D01*
X231600Y321505D01*
X231740Y321392D01*
X231759Y321381D01*
X231777Y321368D01*
X231937Y321288D01*
X232096Y321205D01*
X232117Y321198D01*
X232137Y321188D01*
X232311Y321142D01*
X232482Y321092D01*
X232505Y321090D01*
X232526Y321084D01*
X232857Y321057D01*
X234159Y321057D01*
X234168Y321058D01*
X234177Y321057D01*
X234371Y321078D01*
X234560Y321097D01*
X234568Y321099D01*
X234577Y321100D01*
X234762Y321159D01*
X234945Y321215D01*
X234953Y321219D01*
X234961Y321222D01*
X235130Y321315D01*
X235299Y321407D01*
X235306Y321412D01*
X235314Y321417D01*
X235461Y321541D01*
X235608Y321664D01*
X235614Y321671D01*
X235621Y321677D01*
X235740Y321829D01*
X235861Y321978D01*
X235865Y321986D01*
X235870Y321993D01*
X235958Y322166D01*
X236046Y322335D01*
X236049Y322344D01*
X236053Y322352D01*
X236105Y322538D01*
X236157Y322722D01*
X236158Y322731D01*
X236161Y322740D01*
X236175Y322933D01*
X236190Y323124D01*
X236189Y323132D01*
X236190Y323141D01*
X236166Y323334D01*
X236143Y323523D01*
X236141Y323532D01*
X236140Y323541D01*
X236078Y323723D01*
X236019Y323906D01*
X236014Y323914D01*
X236011Y323922D01*
X235915Y324089D01*
X235821Y324257D01*
X235815Y324264D01*
X235810Y324271D01*
X235596Y324524D01*
X227235Y332885D01*
X227218Y332899D01*
X227203Y332916D01*
X227063Y333026D01*
X226924Y333140D01*
X226904Y333150D01*
X226886Y333164D01*
X226726Y333245D01*
X226568Y333328D01*
X226547Y333335D01*
X226527Y333345D01*
X226353Y333392D01*
X226182Y333443D01*
X226160Y333445D01*
X226138Y333451D01*
X225960Y333463D01*
X225781Y333480D01*
X225759Y333477D01*
X225737Y333479D01*
X225560Y333456D01*
X225381Y333436D01*
X225360Y333429D01*
X225337Y333427D01*
X225022Y333325D01*
X224221Y332993D01*
X220279Y332993D01*
X216638Y334501D01*
X213851Y337288D01*
X212343Y340929D01*
X212343Y344871D01*
X213851Y348512D01*
X216638Y351299D01*
X218854Y352216D01*
X218855Y352217D01*
X220279Y352807D01*
X224221Y352807D01*
X227862Y351299D01*
X230649Y348512D01*
X232157Y344871D01*
X232157Y340929D01*
X231825Y340128D01*
X231818Y340107D01*
X231808Y340087D01*
X231760Y339914D01*
X231708Y339743D01*
X231706Y339721D01*
X231700Y339699D01*
X231687Y339520D01*
X231670Y339342D01*
X231673Y339320D01*
X231671Y339298D01*
X231694Y339118D01*
X231712Y338942D01*
X231719Y338920D01*
X231721Y338898D01*
X231778Y338729D01*
X231832Y338557D01*
X231843Y338538D01*
X231850Y338517D01*
X231939Y338361D01*
X232025Y338204D01*
X232039Y338187D01*
X232051Y338168D01*
X232265Y337915D01*
X264971Y305209D01*
X264978Y305204D01*
X264983Y305197D01*
X265133Y305076D01*
X265282Y304954D01*
X265290Y304950D01*
X265297Y304944D01*
X265468Y304856D01*
X265638Y304766D01*
X265646Y304763D01*
X265654Y304759D01*
X265840Y304706D01*
X266024Y304651D01*
X266033Y304650D01*
X266041Y304648D01*
X266233Y304632D01*
X266425Y304614D01*
X266434Y304615D01*
X266443Y304615D01*
X266632Y304637D01*
X266825Y304658D01*
X266834Y304661D01*
X266842Y304662D01*
X267024Y304721D01*
X267209Y304779D01*
X267217Y304784D01*
X267225Y304786D01*
X267394Y304881D01*
X267561Y304974D01*
X267568Y304980D01*
X267576Y304984D01*
X267722Y305110D01*
X267868Y305235D01*
X267874Y305242D01*
X267881Y305247D01*
X267998Y305399D01*
X268118Y305551D01*
X268122Y305559D01*
X268127Y305566D01*
X268213Y305738D01*
X268300Y305909D01*
X268303Y305918D01*
X268307Y305926D01*
X268357Y306113D01*
X268408Y306297D01*
X268409Y306306D01*
X268411Y306315D01*
X268438Y306646D01*
X268438Y311772D01*
X269778Y313112D01*
X282672Y313112D01*
X284012Y311772D01*
X284012Y306145D01*
X284014Y306127D01*
X284012Y306109D01*
X284034Y305926D01*
X284052Y305744D01*
X284057Y305727D01*
X284059Y305710D01*
X284116Y305535D01*
X284170Y305359D01*
X284178Y305344D01*
X284184Y305327D01*
X284274Y305167D01*
X284362Y305005D01*
X284373Y304992D01*
X284382Y304976D01*
X284502Y304837D01*
X284619Y304696D01*
X284633Y304685D01*
X284645Y304671D01*
X284790Y304559D01*
X284933Y304444D01*
X284949Y304436D01*
X284963Y304425D01*
X285128Y304343D01*
X285290Y304258D01*
X285307Y304253D01*
X285323Y304245D01*
X285502Y304198D01*
X285677Y304147D01*
X285695Y304145D01*
X285712Y304141D01*
X286043Y304114D01*
X313702Y304114D01*
X313711Y304115D01*
X313720Y304114D01*
X313912Y304135D01*
X314103Y304154D01*
X314111Y304156D01*
X314120Y304157D01*
X314302Y304215D01*
X314487Y304272D01*
X314495Y304276D01*
X314504Y304279D01*
X314672Y304372D01*
X314841Y304464D01*
X314848Y304469D01*
X314856Y304474D01*
X315003Y304598D01*
X315151Y304721D01*
X315156Y304728D01*
X315163Y304734D01*
X315282Y304885D01*
X315403Y305035D01*
X315407Y305043D01*
X315413Y305050D01*
X315501Y305223D01*
X315589Y305392D01*
X315591Y305401D01*
X315595Y305409D01*
X315647Y305595D01*
X315700Y305779D01*
X315701Y305788D01*
X315703Y305797D01*
X315717Y305990D01*
X315733Y306181D01*
X315732Y306189D01*
X315732Y306198D01*
X315708Y306391D01*
X315686Y306580D01*
X315683Y306589D01*
X315682Y306598D01*
X315621Y306781D01*
X315561Y306963D01*
X315557Y306971D01*
X315554Y306979D01*
X315458Y307146D01*
X315363Y307314D01*
X315357Y307321D01*
X315353Y307328D01*
X315138Y307581D01*
X310296Y312424D01*
X310275Y312441D01*
X310257Y312461D01*
X310120Y312568D01*
X309984Y312679D01*
X309960Y312692D01*
X309939Y312708D01*
X309783Y312785D01*
X309628Y312868D01*
X309603Y312875D01*
X309579Y312887D01*
X309410Y312933D01*
X309243Y312982D01*
X309216Y312985D01*
X309190Y312992D01*
X308859Y313019D01*
X306768Y313019D01*
X304537Y313943D01*
X302830Y315650D01*
X301906Y317880D01*
X301906Y320295D01*
X302290Y321222D01*
X302294Y321235D01*
X302301Y321247D01*
X302352Y321427D01*
X302407Y321608D01*
X302408Y321621D01*
X302412Y321634D01*
X302427Y321822D01*
X302445Y322008D01*
X302444Y322022D01*
X302445Y322035D01*
X302423Y322222D01*
X302403Y322409D01*
X302399Y322422D01*
X302398Y322435D01*
X302340Y322613D01*
X302284Y322793D01*
X302277Y322805D01*
X302273Y322818D01*
X302181Y322981D01*
X302090Y323146D01*
X302082Y323157D01*
X302075Y323168D01*
X301953Y323310D01*
X301831Y323455D01*
X301821Y323463D01*
X301812Y323473D01*
X301663Y323588D01*
X301516Y323705D01*
X301505Y323712D01*
X301494Y323720D01*
X301325Y323804D01*
X301158Y323889D01*
X301145Y323893D01*
X301133Y323899D01*
X300951Y323948D01*
X300771Y323999D01*
X300758Y324000D01*
X300745Y324004D01*
X300414Y324031D01*
X299830Y324031D01*
X299813Y324029D01*
X299795Y324030D01*
X299613Y324009D01*
X299430Y323991D01*
X299413Y323986D01*
X299395Y323984D01*
X299221Y323927D01*
X299045Y323873D01*
X299029Y323864D01*
X299012Y323859D01*
X298852Y323768D01*
X298691Y323681D01*
X298677Y323670D01*
X298662Y323661D01*
X298522Y323541D01*
X298382Y323423D01*
X298370Y323409D01*
X298357Y323398D01*
X298244Y323253D01*
X298129Y323109D01*
X298121Y323094D01*
X298110Y323080D01*
X298028Y322915D01*
X297944Y322752D01*
X297939Y322735D01*
X297931Y322719D01*
X297883Y322541D01*
X297832Y322365D01*
X297831Y322347D01*
X297826Y322330D01*
X297799Y322000D01*
X297799Y321140D01*
X296460Y319801D01*
X284565Y319801D01*
X283226Y321140D01*
X283226Y331665D01*
X283224Y331683D01*
X283225Y331701D01*
X283204Y331883D01*
X283186Y332066D01*
X283181Y332083D01*
X283179Y332100D01*
X283122Y332275D01*
X283068Y332451D01*
X283059Y332466D01*
X283054Y332483D01*
X282963Y332643D01*
X282876Y332805D01*
X282865Y332818D01*
X282856Y332834D01*
X282736Y332973D01*
X282618Y333114D01*
X282604Y333125D01*
X282593Y333138D01*
X282448Y333251D01*
X282304Y333366D01*
X282289Y333374D01*
X282275Y333385D01*
X282110Y333467D01*
X281947Y333552D01*
X281930Y333557D01*
X281914Y333565D01*
X281736Y333612D01*
X281560Y333663D01*
X281542Y333665D01*
X281525Y333669D01*
X281195Y333696D01*
X274839Y333696D01*
X274813Y333694D01*
X274786Y333696D01*
X274612Y333674D01*
X274439Y333656D01*
X274413Y333648D01*
X274387Y333645D01*
X274221Y333589D01*
X274054Y333538D01*
X274030Y333525D01*
X274005Y333517D01*
X273875Y333442D01*
X270587Y333442D01*
X235624Y368405D01*
X235617Y368411D01*
X235612Y368417D01*
X235462Y368538D01*
X235313Y368660D01*
X235305Y368664D01*
X235298Y368670D01*
X235127Y368759D01*
X234957Y368849D01*
X234949Y368851D01*
X234941Y368855D01*
X234755Y368909D01*
X234571Y368963D01*
X234562Y368964D01*
X234554Y368967D01*
X234362Y368982D01*
X234170Y369000D01*
X234161Y368999D01*
X234152Y369000D01*
X233963Y368977D01*
X233770Y368956D01*
X233761Y368954D01*
X233753Y368953D01*
X233571Y368893D01*
X233386Y368835D01*
X233378Y368831D01*
X233370Y368828D01*
X233201Y368733D01*
X233034Y368640D01*
X233027Y368634D01*
X233019Y368630D01*
X232873Y368504D01*
X232727Y368380D01*
X232721Y368373D01*
X232714Y368367D01*
X232597Y368215D01*
X232477Y368064D01*
X232473Y368056D01*
X232468Y368049D01*
X232382Y367877D01*
X232295Y367705D01*
X232292Y367696D01*
X232288Y367688D01*
X232238Y367500D01*
X232187Y367317D01*
X232186Y367308D01*
X232184Y367299D01*
X232157Y366969D01*
X232157Y366329D01*
X230649Y362688D01*
X227862Y359901D01*
X224221Y358393D01*
X220279Y358393D01*
X216638Y359901D01*
X213851Y362688D01*
X212343Y366329D01*
X212343Y370271D01*
X213851Y373912D01*
X216638Y376699D01*
X220279Y378207D01*
X220919Y378207D01*
X220927Y378208D01*
X220936Y378207D01*
X221128Y378228D01*
X221319Y378247D01*
X221328Y378249D01*
X221337Y378250D01*
X221519Y378308D01*
X221704Y378365D01*
X221712Y378369D01*
X221721Y378372D01*
X221889Y378465D01*
X222058Y378557D01*
X222065Y378562D01*
X222073Y378567D01*
X222221Y378692D01*
X222367Y378814D01*
X222373Y378821D01*
X222380Y378827D01*
X222500Y378979D01*
X222620Y379128D01*
X222624Y379136D01*
X222629Y379143D01*
X222717Y379315D01*
X222805Y379485D01*
X222808Y379494D01*
X222812Y379502D01*
X222864Y379688D01*
X222917Y379872D01*
X222917Y379881D01*
X222920Y379890D01*
X222934Y380082D01*
X222950Y380274D01*
X222949Y380282D01*
X222949Y380291D01*
X222925Y380484D01*
X222903Y380673D01*
X222900Y380682D01*
X222899Y380691D01*
X222837Y380873D01*
X222778Y381056D01*
X222773Y381064D01*
X222771Y381072D01*
X222675Y381238D01*
X222580Y381407D01*
X222574Y381414D01*
X222570Y381421D01*
X222355Y381674D01*
X221439Y382590D01*
X221439Y384330D01*
X221437Y384348D01*
X221439Y384366D01*
X221417Y384549D01*
X221399Y384731D01*
X221394Y384748D01*
X221392Y384766D01*
X221335Y384941D01*
X221281Y385116D01*
X221273Y385132D01*
X221267Y385149D01*
X221177Y385308D01*
X221089Y385470D01*
X221078Y385484D01*
X221069Y385499D01*
X220949Y385639D01*
X220832Y385779D01*
X220818Y385790D01*
X220806Y385804D01*
X220660Y385917D01*
X220518Y386031D01*
X220502Y386040D01*
X220487Y386051D01*
X220323Y386133D01*
X220161Y386217D01*
X220143Y386222D01*
X220127Y386230D01*
X219950Y386277D01*
X219774Y386328D01*
X219756Y386330D01*
X219738Y386334D01*
X219407Y386361D01*
X218826Y386361D01*
X218750Y386354D01*
X218674Y386355D01*
X218550Y386334D01*
X218425Y386321D01*
X218352Y386299D01*
X218277Y386285D01*
X218161Y386240D01*
X218054Y386207D01*
X217182Y386338D01*
X217115Y386341D01*
X216880Y386361D01*
X215992Y386360D01*
X215949Y386390D01*
X215835Y386440D01*
X215724Y386499D01*
X215651Y386521D01*
X215581Y386551D01*
X215422Y386589D01*
X215338Y386614D01*
X215302Y386617D01*
X215258Y386627D01*
X214400Y386756D01*
X214324Y386760D01*
X214249Y386773D01*
X214123Y386770D01*
X213998Y386776D01*
X213923Y386765D01*
X213846Y386763D01*
X213724Y386735D01*
X213614Y386719D01*
X212772Y386978D01*
X212706Y386992D01*
X212476Y387046D01*
X211598Y387178D01*
X211560Y387214D01*
X211454Y387281D01*
X211354Y387355D01*
X211284Y387388D01*
X211219Y387428D01*
X211068Y387489D01*
X210989Y387526D01*
X210954Y387534D01*
X210911Y387552D01*
X210083Y387807D01*
X210008Y387822D01*
X209936Y387846D01*
X209811Y387862D01*
X209688Y387887D01*
X209612Y387887D01*
X209536Y387896D01*
X209411Y387887D01*
X209286Y387887D01*
X209211Y387872D01*
X209135Y387866D01*
X208976Y387825D01*
X208891Y387808D01*
X208858Y387794D01*
X208814Y387783D01*
X208730Y387753D01*
X208592Y387689D01*
X208451Y387632D01*
X208410Y387604D01*
X208365Y387583D01*
X208243Y387493D01*
X208116Y387409D01*
X208081Y387374D01*
X208041Y387345D01*
X207939Y387232D01*
X207831Y387125D01*
X207799Y387079D01*
X207770Y387047D01*
X207726Y386973D01*
X207642Y386852D01*
X189368Y355199D01*
X188319Y356206D01*
X188291Y356224D01*
X188257Y356257D01*
X185734Y357998D01*
X185707Y358010D01*
X185685Y358028D01*
X185616Y358049D01*
X185551Y358076D01*
X185522Y358077D01*
X185494Y358085D01*
X185423Y358077D01*
X185352Y358077D01*
X185325Y358066D01*
X185296Y358063D01*
X185234Y358028D01*
X185169Y358000D01*
X185148Y357979D01*
X185123Y357965D01*
X185060Y357888D01*
X185030Y357857D01*
X185026Y357847D01*
X185017Y357837D01*
X175517Y341337D01*
X175493Y341264D01*
X175462Y341193D01*
X175462Y341170D01*
X175454Y341148D01*
X175461Y341071D01*
X175460Y340994D01*
X175469Y340970D01*
X175470Y340950D01*
X175491Y340910D01*
X175510Y340858D01*
X175511Y340853D01*
X175513Y340851D01*
X175517Y340838D01*
X185017Y324338D01*
X185036Y324317D01*
X185049Y324290D01*
X185102Y324243D01*
X185149Y324189D01*
X185175Y324177D01*
X185197Y324157D01*
X185264Y324134D01*
X185328Y324103D01*
X185357Y324102D01*
X185384Y324093D01*
X185456Y324097D01*
X185527Y324094D01*
X185554Y324104D01*
X185583Y324106D01*
X185673Y324149D01*
X185713Y324163D01*
X185721Y324171D01*
X185734Y324177D01*
X188257Y325918D01*
X188281Y325943D01*
X188319Y325969D01*
X189368Y326976D01*
X207642Y295323D01*
X207731Y295200D01*
X207813Y295072D01*
X207848Y295036D01*
X207877Y294996D01*
X207988Y294892D01*
X208094Y294784D01*
X208135Y294756D01*
X208172Y294722D01*
X208301Y294642D01*
X208427Y294556D01*
X208478Y294534D01*
X208515Y294511D01*
X208595Y294481D01*
X208730Y294422D01*
X208814Y294392D01*
X208885Y294375D01*
X208893Y294372D01*
X208894Y294372D01*
X208959Y294347D01*
X209083Y294327D01*
X209205Y294298D01*
X209281Y294295D01*
X209356Y294282D01*
X209482Y294287D01*
X209607Y294282D01*
X209683Y294294D01*
X209759Y294297D01*
X209918Y294332D01*
X210005Y294346D01*
X210038Y294358D01*
X210083Y294368D01*
X210911Y294623D01*
X210982Y294653D01*
X211056Y294674D01*
X211167Y294731D01*
X211282Y294780D01*
X211346Y294823D01*
X211414Y294857D01*
X211512Y294935D01*
X211604Y294998D01*
X212476Y295129D01*
X212540Y295146D01*
X212772Y295197D01*
X213620Y295458D01*
X213669Y295442D01*
X213794Y295428D01*
X213917Y295404D01*
X213993Y295405D01*
X214069Y295396D01*
X214232Y295407D01*
X214319Y295408D01*
X214354Y295416D01*
X214400Y295419D01*
X215258Y295548D01*
X215332Y295566D01*
X215408Y295576D01*
X215526Y295616D01*
X215648Y295647D01*
X215717Y295680D01*
X215789Y295704D01*
X215898Y295767D01*
X215998Y295815D01*
X216880Y295814D01*
X216947Y295821D01*
X217182Y295837D01*
X218060Y295969D01*
X218107Y295946D01*
X218227Y295913D01*
X218346Y295872D01*
X218422Y295861D01*
X218495Y295841D01*
X218658Y295828D01*
X218744Y295815D01*
X218780Y295818D01*
X218826Y295814D01*
X219693Y295814D01*
X219769Y295821D01*
X219846Y295819D01*
X219969Y295841D01*
X220094Y295853D01*
X220167Y295876D01*
X220242Y295889D01*
X220359Y295935D01*
X220465Y295967D01*
X221337Y295836D01*
X221404Y295832D01*
X221639Y295813D01*
X222527Y295813D01*
X222569Y295783D01*
X222684Y295732D01*
X222795Y295674D01*
X222868Y295652D01*
X222938Y295621D01*
X223097Y295584D01*
X223181Y295559D01*
X223216Y295556D01*
X223261Y295545D01*
X224118Y295415D01*
X224195Y295412D01*
X224270Y295398D01*
X224396Y295401D01*
X224520Y295395D01*
X224596Y295406D01*
X224673Y295408D01*
X224795Y295436D01*
X224905Y295452D01*
X225747Y295192D01*
X225813Y295179D01*
X226043Y295125D01*
X226920Y294992D01*
X226958Y294956D01*
X227064Y294890D01*
X227165Y294815D01*
X227234Y294782D01*
X227299Y294742D01*
X227450Y294681D01*
X227529Y294644D01*
X227564Y294635D01*
X227607Y294618D01*
X228435Y294362D01*
X228510Y294347D01*
X228583Y294323D01*
X228707Y294307D01*
X228830Y294282D01*
X228906Y294282D01*
X228982Y294273D01*
X229107Y294282D01*
X229219Y294282D01*
X230012Y293899D01*
X230076Y293876D01*
X230295Y293788D01*
X231143Y293526D01*
X231175Y293485D01*
X231270Y293403D01*
X231358Y293314D01*
X231422Y293272D01*
X231480Y293222D01*
X231620Y293139D01*
X231693Y293091D01*
X231726Y293077D01*
X231766Y293054D01*
X232547Y292678D01*
X232618Y292651D01*
X232687Y292616D01*
X232807Y292582D01*
X232925Y292540D01*
X233001Y292528D01*
X233074Y292507D01*
X233199Y292498D01*
X233309Y292481D01*
X234037Y291984D01*
X234097Y291952D01*
X234300Y291832D01*
X235100Y291447D01*
X235125Y291402D01*
X235207Y291307D01*
X235281Y291206D01*
X235337Y291154D01*
X235387Y291096D01*
X235514Y290993D01*
X235579Y290935D01*
X235609Y290916D01*
X235645Y290887D01*
X236361Y290399D01*
X236428Y290362D01*
X236491Y290318D01*
X236605Y290266D01*
X236715Y290206D01*
X236788Y290183D01*
X236857Y290152D01*
X236980Y290124D01*
X237086Y290091D01*
X237732Y289491D01*
X237786Y289450D01*
X237969Y289302D01*
X238702Y288802D01*
X238721Y288753D01*
X238787Y288647D01*
X238845Y288536D01*
X238894Y288477D01*
X238934Y288412D01*
X239045Y288291D01*
X239100Y288224D01*
X239127Y288201D01*
X239158Y288167D01*
X239794Y287577D01*
X239855Y287531D01*
X239909Y287477D01*
X240014Y287409D01*
X240114Y287334D01*
X240183Y287300D01*
X240247Y287259D01*
X240364Y287213D01*
X240464Y287164D01*
X241014Y286475D01*
X241060Y286427D01*
X241220Y286253D01*
X241870Y285649D01*
X241881Y285598D01*
X241931Y285483D01*
X241972Y285364D01*
X242011Y285299D01*
X242042Y285229D01*
X242133Y285093D01*
X242177Y285018D01*
X242201Y284991D01*
X242227Y284953D01*
X242767Y284275D01*
X242820Y284220D01*
X242867Y284159D01*
X242960Y284076D01*
X243048Y283987D01*
X243111Y283943D01*
X243168Y283893D01*
X243277Y283830D01*
X243369Y283767D01*
X243809Y283004D01*
X243848Y282949D01*
X243980Y282753D01*
X244533Y282059D01*
X244536Y282007D01*
X244569Y281886D01*
X244592Y281763D01*
X244620Y281692D01*
X244640Y281618D01*
X244710Y281470D01*
X244742Y281389D01*
X244762Y281359D01*
X244782Y281318D01*
X245215Y280567D01*
X245260Y280505D01*
X245296Y280438D01*
X245377Y280341D01*
X245450Y280240D01*
X245506Y280188D01*
X245555Y280129D01*
X245653Y280051D01*
X245734Y279975D01*
X246056Y279154D01*
X246087Y279095D01*
X246188Y278881D01*
X246631Y278112D01*
X246627Y278060D01*
X246640Y277936D01*
X246645Y277811D01*
X246663Y277736D01*
X246671Y277660D01*
X246718Y277504D01*
X246738Y277419D01*
X246753Y277386D01*
X246767Y277342D01*
X247083Y276535D01*
X247118Y276467D01*
X247144Y276395D01*
X247209Y276289D01*
X247266Y276177D01*
X247314Y276117D01*
X247354Y276052D01*
X247439Y275960D01*
X247508Y275872D01*
X247704Y275013D01*
X247726Y274949D01*
X247794Y274723D01*
X248118Y273897D01*
X248105Y273846D01*
X248100Y273721D01*
X248086Y273597D01*
X248093Y273520D01*
X248090Y273444D01*
X248113Y273282D01*
X248120Y273195D01*
X248130Y273161D01*
X248137Y273115D01*
X248329Y272270D01*
X248354Y272198D01*
X248369Y272123D01*
X248418Y272007D01*
X248457Y271889D01*
X248495Y271822D01*
X248525Y271752D01*
X248596Y271648D01*
X248651Y271551D01*
X248717Y270673D01*
X248728Y270606D01*
X248762Y270372D01*
X248959Y269507D01*
X248939Y269459D01*
X248916Y269336D01*
X248883Y269215D01*
X248878Y269139D01*
X248864Y269063D01*
X248863Y268900D01*
X248857Y268813D01*
X248862Y268778D01*
X248862Y268732D01*
X248926Y267867D01*
X248939Y267792D01*
X248943Y267715D01*
X248974Y267594D01*
X248996Y267471D01*
X249023Y267399D01*
X249042Y267325D01*
X249097Y267212D01*
X249137Y267108D01*
X249071Y266230D01*
X249073Y266162D01*
X249071Y265926D01*
X249137Y265041D01*
X249110Y264996D01*
X249069Y264878D01*
X249018Y264763D01*
X249002Y264689D01*
X248977Y264617D01*
X248951Y264455D01*
X248933Y264370D01*
X248932Y264334D01*
X248925Y264289D01*
X248860Y263424D01*
X248862Y263348D01*
X248854Y263272D01*
X248866Y263147D01*
X248870Y263022D01*
X248886Y262947D01*
X248894Y262871D01*
X248931Y262751D01*
X248955Y262643D01*
X248881Y262319D01*
X248875Y262266D01*
X248860Y262214D01*
X248850Y262066D01*
X248831Y261919D01*
X248835Y261866D01*
X248831Y261813D01*
X248850Y261665D01*
X248860Y261518D01*
X248875Y261466D01*
X248881Y261413D01*
X248929Y261273D01*
X248968Y261130D01*
X248993Y261082D01*
X249010Y261032D01*
X249084Y260903D01*
X249151Y260771D01*
X249184Y260729D01*
X249211Y260683D01*
X249355Y260513D01*
X249400Y260455D01*
X249413Y260445D01*
X249425Y260430D01*
X250558Y259297D01*
X250579Y259280D01*
X250596Y259259D01*
X250734Y259152D01*
X250870Y259042D01*
X250893Y259029D01*
X250915Y259013D01*
X251072Y258935D01*
X251226Y258853D01*
X251251Y258845D01*
X251275Y258833D01*
X251445Y258788D01*
X251611Y258738D01*
X251638Y258736D01*
X251664Y258729D01*
X251995Y258702D01*
X258035Y258702D01*
X258062Y258704D01*
G37*
G36*
X488889Y294288D02*
X488889Y294288D01*
X489014Y294288D01*
X489089Y294303D01*
X489165Y294309D01*
X489324Y294350D01*
X489409Y294367D01*
X489442Y294381D01*
X489486Y294392D01*
X489570Y294422D01*
X489708Y294486D01*
X489849Y294543D01*
X489890Y294571D01*
X489935Y294592D01*
X490057Y294682D01*
X490184Y294766D01*
X490219Y294801D01*
X490259Y294830D01*
X490361Y294943D01*
X490469Y295050D01*
X490501Y295096D01*
X490530Y295128D01*
X490574Y295202D01*
X490658Y295323D01*
X508932Y326976D01*
X509981Y325969D01*
X510009Y325951D01*
X510043Y325918D01*
X512566Y324177D01*
X512593Y324165D01*
X512615Y324147D01*
X512684Y324127D01*
X512749Y324099D01*
X512778Y324098D01*
X512806Y324090D01*
X512877Y324098D01*
X512948Y324098D01*
X512975Y324109D01*
X513004Y324112D01*
X513066Y324148D01*
X513131Y324175D01*
X513152Y324196D01*
X513177Y324210D01*
X513240Y324287D01*
X513270Y324318D01*
X513274Y324328D01*
X513283Y324338D01*
X522783Y340838D01*
X522793Y340870D01*
X522802Y340883D01*
X522806Y340908D01*
X522807Y340911D01*
X522838Y340982D01*
X522838Y341005D01*
X522846Y341027D01*
X522840Y341104D01*
X522841Y341181D01*
X522831Y341205D01*
X522830Y341225D01*
X522809Y341265D01*
X522783Y341337D01*
X513283Y357837D01*
X513264Y357858D01*
X513251Y357885D01*
X513198Y357932D01*
X513151Y357986D01*
X513125Y357998D01*
X513104Y358018D01*
X513036Y358041D01*
X512972Y358072D01*
X512943Y358073D01*
X512916Y358082D01*
X512844Y358078D01*
X512773Y358081D01*
X512746Y358071D01*
X512717Y358069D01*
X512627Y358026D01*
X512587Y358012D01*
X512579Y358004D01*
X512566Y357998D01*
X510043Y356257D01*
X510019Y356232D01*
X509981Y356206D01*
X508932Y355199D01*
X490658Y386852D01*
X490569Y386975D01*
X490487Y387103D01*
X490452Y387139D01*
X490423Y387179D01*
X490312Y387283D01*
X490206Y387391D01*
X490165Y387419D01*
X490128Y387453D01*
X489999Y387533D01*
X489873Y387619D01*
X489822Y387641D01*
X489785Y387664D01*
X489705Y387694D01*
X489570Y387753D01*
X489486Y387783D01*
X489415Y387800D01*
X489407Y387803D01*
X489406Y387803D01*
X489341Y387828D01*
X489217Y387848D01*
X489095Y387877D01*
X489019Y387880D01*
X488944Y387893D01*
X488818Y387888D01*
X488693Y387893D01*
X488617Y387881D01*
X488541Y387878D01*
X488382Y387843D01*
X488295Y387829D01*
X488262Y387817D01*
X488217Y387807D01*
X487389Y387552D01*
X487318Y387522D01*
X487244Y387501D01*
X487133Y387444D01*
X487018Y387395D01*
X486954Y387352D01*
X486886Y387318D01*
X486788Y387240D01*
X486696Y387177D01*
X485824Y387046D01*
X485760Y387029D01*
X485528Y386978D01*
X484680Y386717D01*
X484631Y386733D01*
X484506Y386747D01*
X484383Y386771D01*
X484307Y386770D01*
X484231Y386779D01*
X484068Y386768D01*
X483981Y386767D01*
X483945Y386759D01*
X483900Y386756D01*
X483042Y386627D01*
X482968Y386609D01*
X482892Y386599D01*
X482773Y386559D01*
X482652Y386528D01*
X482583Y386495D01*
X482511Y386471D01*
X482402Y386408D01*
X482302Y386360D01*
X481420Y386361D01*
X481353Y386354D01*
X481118Y386338D01*
X480240Y386206D01*
X480193Y386229D01*
X480073Y386262D01*
X479954Y386303D01*
X479878Y386314D01*
X479805Y386334D01*
X479642Y386347D01*
X479556Y386360D01*
X479520Y386357D01*
X479474Y386361D01*
X478607Y386361D01*
X478531Y386354D01*
X478454Y386356D01*
X478331Y386334D01*
X478206Y386322D01*
X478133Y386299D01*
X478058Y386286D01*
X477941Y386240D01*
X477835Y386208D01*
X477354Y386280D01*
X477184Y386289D01*
X477015Y386303D01*
X476983Y386299D01*
X476952Y386301D01*
X476784Y386276D01*
X476615Y386256D01*
X476585Y386246D01*
X476554Y386241D01*
X476394Y386184D01*
X476232Y386131D01*
X476205Y386115D01*
X476175Y386105D01*
X476030Y386017D01*
X475882Y385933D01*
X475858Y385912D01*
X475831Y385896D01*
X475705Y385781D01*
X475577Y385670D01*
X475558Y385645D01*
X475534Y385623D01*
X475434Y385486D01*
X475330Y385352D01*
X475316Y385323D01*
X475297Y385298D01*
X475227Y385143D01*
X475151Y384991D01*
X475143Y384961D01*
X475129Y384932D01*
X475090Y384766D01*
X475046Y384603D01*
X475043Y384567D01*
X475037Y384540D01*
X475034Y384454D01*
X475019Y384272D01*
X475019Y301714D01*
X472261Y298956D01*
X472185Y298863D01*
X472101Y298776D01*
X472057Y298707D01*
X472006Y298644D01*
X471949Y298538D01*
X471885Y298437D01*
X471855Y298361D01*
X471817Y298289D01*
X471783Y298173D01*
X471739Y298061D01*
X471726Y297981D01*
X471702Y297903D01*
X471692Y297783D01*
X471671Y297664D01*
X471673Y297583D01*
X471666Y297502D01*
X471679Y297382D01*
X471682Y297262D01*
X471701Y297183D01*
X471709Y297102D01*
X471746Y296987D01*
X471773Y296870D01*
X471806Y296795D01*
X471831Y296718D01*
X471889Y296612D01*
X471939Y296503D01*
X471986Y296437D01*
X472026Y296365D01*
X472104Y296274D01*
X472174Y296176D01*
X472233Y296121D01*
X472286Y296058D01*
X472381Y295984D01*
X472469Y295902D01*
X472549Y295851D01*
X472602Y295809D01*
X472664Y295777D01*
X472749Y295723D01*
X472930Y295628D01*
X473000Y295599D01*
X473067Y295562D01*
X473186Y295523D01*
X473302Y295476D01*
X473378Y295462D01*
X473450Y295438D01*
X473575Y295424D01*
X473698Y295401D01*
X473775Y295402D01*
X473851Y295393D01*
X474013Y295404D01*
X474101Y295405D01*
X474136Y295412D01*
X474182Y295416D01*
X475039Y295545D01*
X475113Y295564D01*
X475189Y295573D01*
X475307Y295613D01*
X475429Y295644D01*
X475498Y295677D01*
X475570Y295702D01*
X475679Y295764D01*
X475779Y295813D01*
X476661Y295813D01*
X476727Y295820D01*
X476963Y295836D01*
X477841Y295968D01*
X477888Y295945D01*
X478008Y295913D01*
X478127Y295871D01*
X478202Y295860D01*
X478276Y295841D01*
X478439Y295827D01*
X478525Y295815D01*
X478561Y295817D01*
X478607Y295814D01*
X479474Y295814D01*
X479550Y295821D01*
X479626Y295820D01*
X479750Y295841D01*
X479875Y295854D01*
X479948Y295876D01*
X480023Y295890D01*
X480139Y295935D01*
X480246Y295968D01*
X481118Y295837D01*
X481185Y295834D01*
X481420Y295814D01*
X482308Y295815D01*
X482350Y295785D01*
X482465Y295735D01*
X482576Y295676D01*
X482649Y295654D01*
X482719Y295624D01*
X482878Y295586D01*
X482962Y295561D01*
X482998Y295558D01*
X483042Y295548D01*
X483900Y295419D01*
X483976Y295415D01*
X484051Y295402D01*
X484177Y295405D01*
X484302Y295398D01*
X484377Y295410D01*
X484454Y295412D01*
X484576Y295440D01*
X484686Y295456D01*
X485528Y295197D01*
X485594Y295183D01*
X485824Y295129D01*
X486702Y294997D01*
X486740Y294961D01*
X486846Y294894D01*
X486946Y294820D01*
X487016Y294787D01*
X487081Y294747D01*
X487232Y294686D01*
X487311Y294649D01*
X487346Y294641D01*
X487389Y294623D01*
X488217Y294368D01*
X488292Y294353D01*
X488364Y294329D01*
X488489Y294313D01*
X488612Y294288D01*
X488688Y294288D01*
X488764Y294279D01*
X488889Y294288D01*
G37*
G36*
X435826Y190604D02*
X435826Y190604D01*
X435904Y190612D01*
X435923Y190623D01*
X435945Y190628D01*
X436009Y190672D01*
X436077Y190710D01*
X436093Y190729D01*
X436109Y190740D01*
X436133Y190778D01*
X436183Y190838D01*
X445683Y207338D01*
X445692Y207366D01*
X445708Y207389D01*
X445723Y207459D01*
X445746Y207527D01*
X445743Y207556D01*
X445749Y207584D01*
X445736Y207654D01*
X445730Y207725D01*
X445717Y207751D01*
X445711Y207779D01*
X445671Y207838D01*
X445638Y207902D01*
X445616Y207920D01*
X445600Y207944D01*
X445517Y208001D01*
X445485Y208028D01*
X445474Y208031D01*
X445464Y208039D01*
X442698Y209347D01*
X442665Y209355D01*
X442622Y209376D01*
X441264Y209767D01*
X456298Y235808D01*
X456354Y235933D01*
X456419Y236054D01*
X456437Y236116D01*
X456463Y236175D01*
X456494Y236309D01*
X456533Y236440D01*
X456539Y236504D01*
X456554Y236567D01*
X456557Y236704D01*
X456570Y236841D01*
X456563Y236905D01*
X456565Y236970D01*
X456541Y237105D01*
X456526Y237242D01*
X456507Y237303D01*
X456496Y237366D01*
X456446Y237494D01*
X456405Y237625D01*
X456374Y237682D01*
X456350Y237742D01*
X456277Y237858D01*
X456210Y237978D01*
X456168Y238027D01*
X456134Y238081D01*
X456038Y238180D01*
X455950Y238285D01*
X455899Y238325D01*
X455854Y238371D01*
X455741Y238449D01*
X455634Y238534D01*
X455576Y238563D01*
X455523Y238600D01*
X455397Y238654D01*
X455275Y238717D01*
X455213Y238734D01*
X455154Y238759D01*
X455019Y238788D01*
X454887Y238825D01*
X454823Y238829D01*
X454760Y238843D01*
X454622Y238844D01*
X454485Y238854D01*
X454421Y238846D01*
X454357Y238847D01*
X454222Y238821D01*
X454086Y238804D01*
X454025Y238783D01*
X453962Y238771D01*
X453834Y238719D01*
X453704Y238675D01*
X453648Y238643D01*
X453589Y238619D01*
X453474Y238543D01*
X453355Y238474D01*
X453299Y238427D01*
X453253Y238396D01*
X453197Y238340D01*
X453102Y238260D01*
X431948Y217106D01*
X377927Y217106D01*
X377918Y217105D01*
X377909Y217106D01*
X377716Y217085D01*
X377526Y217066D01*
X377518Y217063D01*
X377509Y217062D01*
X377324Y217004D01*
X377141Y216948D01*
X377133Y216943D01*
X377125Y216941D01*
X376957Y216848D01*
X376787Y216756D01*
X376780Y216750D01*
X376773Y216746D01*
X376626Y216621D01*
X376478Y216498D01*
X376472Y216491D01*
X376466Y216485D01*
X376346Y216334D01*
X376226Y216184D01*
X376222Y216177D01*
X376216Y216170D01*
X376128Y215996D01*
X376040Y215827D01*
X376038Y215819D01*
X376034Y215811D01*
X375982Y215624D01*
X375929Y215440D01*
X375928Y215431D01*
X375926Y215423D01*
X375912Y215230D01*
X375896Y215039D01*
X375897Y215030D01*
X375896Y215021D01*
X375921Y214829D01*
X375943Y214639D01*
X375946Y214631D01*
X375947Y214622D01*
X376008Y214440D01*
X376068Y214256D01*
X376072Y214248D01*
X376075Y214240D01*
X376171Y214073D01*
X376266Y213906D01*
X376271Y213899D01*
X376276Y213891D01*
X376490Y213638D01*
X383951Y206178D01*
X383975Y206158D01*
X383995Y206135D01*
X384130Y206031D01*
X384262Y205923D01*
X384290Y205908D01*
X384315Y205889D01*
X384610Y205738D01*
X384881Y205625D01*
X386588Y203918D01*
X387512Y201688D01*
X387512Y199273D01*
X387175Y198461D01*
X387171Y198448D01*
X387165Y198436D01*
X387113Y198256D01*
X387059Y198075D01*
X387058Y198062D01*
X387054Y198049D01*
X387038Y197861D01*
X387021Y197675D01*
X387022Y197661D01*
X387021Y197648D01*
X387043Y197461D01*
X387062Y197274D01*
X387066Y197261D01*
X387068Y197248D01*
X387126Y197070D01*
X387182Y196890D01*
X387189Y196878D01*
X387193Y196865D01*
X387285Y196702D01*
X387375Y196537D01*
X387384Y196526D01*
X387391Y196515D01*
X387513Y196372D01*
X387634Y196228D01*
X387645Y196220D01*
X387654Y196210D01*
X387802Y196095D01*
X387949Y195978D01*
X387961Y195971D01*
X387972Y195963D01*
X388140Y195880D01*
X388307Y195794D01*
X388320Y195790D01*
X388332Y195784D01*
X388514Y195735D01*
X388695Y195684D01*
X388708Y195683D01*
X388721Y195679D01*
X389052Y195652D01*
X416850Y195652D01*
X416508Y194257D01*
X416506Y194223D01*
X416495Y194177D01*
X416252Y191127D01*
X416256Y191099D01*
X416251Y191071D01*
X416268Y191001D01*
X416276Y190930D01*
X416291Y190905D01*
X416297Y190878D01*
X416340Y190820D01*
X416376Y190757D01*
X416398Y190740D01*
X416415Y190717D01*
X416477Y190681D01*
X416534Y190637D01*
X416562Y190630D01*
X416586Y190616D01*
X416686Y190599D01*
X416727Y190589D01*
X416737Y190590D01*
X416750Y190588D01*
X435750Y190588D01*
X435826Y190604D01*
G37*
G36*
X481091Y388655D02*
X481091Y388655D01*
X481134Y388654D01*
X485127Y389254D01*
X485157Y389265D01*
X485200Y389271D01*
X489059Y390460D01*
X489087Y390475D01*
X489128Y390487D01*
X492766Y392238D01*
X492788Y392254D01*
X492814Y392264D01*
X492867Y392314D01*
X492925Y392358D01*
X492938Y392381D01*
X492958Y392400D01*
X492988Y392467D01*
X493024Y392530D01*
X493027Y392557D01*
X493038Y392582D01*
X493039Y392655D01*
X493048Y392728D01*
X493040Y392754D01*
X493040Y392781D01*
X493004Y392880D01*
X492992Y392919D01*
X492986Y392926D01*
X492982Y392937D01*
X465982Y439737D01*
X465964Y439757D01*
X465953Y439782D01*
X465899Y439831D01*
X465851Y439886D01*
X465826Y439898D01*
X465806Y439916D01*
X465737Y439940D01*
X465671Y439972D01*
X465644Y439973D01*
X465619Y439982D01*
X465546Y439977D01*
X465473Y439981D01*
X465447Y439971D01*
X465420Y439970D01*
X465324Y439926D01*
X465286Y439911D01*
X465279Y439905D01*
X465269Y439900D01*
X461932Y437627D01*
X461910Y437604D01*
X461874Y437580D01*
X458913Y434835D01*
X458894Y434809D01*
X458862Y434780D01*
X456344Y431624D01*
X456329Y431596D01*
X456302Y431563D01*
X454282Y428066D01*
X454272Y428036D01*
X454249Y427999D01*
X452773Y424241D01*
X452768Y424210D01*
X452751Y424170D01*
X451851Y420234D01*
X451851Y420202D01*
X451840Y420160D01*
X451537Y416134D01*
X451540Y416110D01*
X451537Y416090D01*
X451539Y416081D01*
X451537Y416059D01*
X451838Y412033D01*
X451846Y412002D01*
X451849Y411959D01*
X452746Y408022D01*
X452759Y407993D01*
X452768Y407951D01*
X454242Y404192D01*
X454259Y404165D01*
X454274Y404124D01*
X456292Y400627D01*
X456313Y400603D01*
X456334Y400565D01*
X458850Y397408D01*
X458875Y397387D01*
X458901Y397353D01*
X461860Y394606D01*
X461887Y394589D01*
X461918Y394559D01*
X465254Y392284D01*
X465283Y392271D01*
X465318Y392246D01*
X468956Y390493D01*
X468986Y390486D01*
X469025Y390466D01*
X472883Y389275D01*
X472915Y389272D01*
X472956Y389258D01*
X476948Y388655D01*
X476980Y388657D01*
X477022Y388649D01*
X481060Y388648D01*
X481091Y388655D01*
G37*
G36*
X221278Y388649D02*
X221278Y388649D01*
X221309Y388656D01*
X221352Y388655D01*
X225344Y389258D01*
X225374Y389269D01*
X225417Y389275D01*
X229275Y390466D01*
X229303Y390481D01*
X229345Y390493D01*
X232982Y392246D01*
X233007Y392266D01*
X233046Y392284D01*
X236382Y394559D01*
X236404Y394582D01*
X236440Y394606D01*
X239399Y397353D01*
X239418Y397379D01*
X239450Y397408D01*
X241966Y400565D01*
X241981Y400594D01*
X242008Y400627D01*
X244026Y404124D01*
X244036Y404155D01*
X244058Y404192D01*
X245532Y407951D01*
X245538Y407982D01*
X245554Y408022D01*
X246451Y411959D01*
X246452Y411991D01*
X246462Y412033D01*
X246763Y416059D01*
X246759Y416091D01*
X246760Y416107D01*
X246763Y416123D01*
X246762Y416127D01*
X246763Y416134D01*
X246460Y420160D01*
X246451Y420191D01*
X246449Y420234D01*
X245549Y424170D01*
X245536Y424199D01*
X245527Y424241D01*
X244051Y427999D01*
X244033Y428026D01*
X244018Y428066D01*
X241998Y431563D01*
X241977Y431586D01*
X241956Y431624D01*
X239438Y434780D01*
X239413Y434801D01*
X239387Y434835D01*
X236426Y437580D01*
X236399Y437597D01*
X236368Y437627D01*
X233031Y439900D01*
X233006Y439911D01*
X232985Y439928D01*
X232915Y439949D01*
X232848Y439977D01*
X232820Y439977D01*
X232794Y439985D01*
X232722Y439977D01*
X232649Y439976D01*
X232624Y439966D01*
X232597Y439963D01*
X232533Y439927D01*
X232466Y439898D01*
X232447Y439879D01*
X232424Y439865D01*
X232357Y439784D01*
X232328Y439755D01*
X232325Y439746D01*
X232318Y439737D01*
X205318Y392937D01*
X205309Y392911D01*
X205293Y392889D01*
X205278Y392818D01*
X205254Y392748D01*
X205257Y392721D01*
X205251Y392695D01*
X205264Y392623D01*
X205270Y392550D01*
X205283Y392526D01*
X205288Y392499D01*
X205328Y392439D01*
X205362Y392374D01*
X205383Y392356D01*
X205398Y392334D01*
X205484Y392273D01*
X205515Y392247D01*
X205524Y392244D01*
X205534Y392238D01*
X209172Y390487D01*
X209203Y390479D01*
X209241Y390460D01*
X213100Y389271D01*
X213132Y389268D01*
X213173Y389254D01*
X217166Y388654D01*
X217197Y388655D01*
X217240Y388648D01*
X221278Y388649D01*
G37*
G36*
X465578Y242198D02*
X465578Y242198D01*
X465651Y242199D01*
X465676Y242209D01*
X465703Y242212D01*
X465767Y242248D01*
X465834Y242277D01*
X465853Y242296D01*
X465876Y242310D01*
X465944Y242391D01*
X465972Y242420D01*
X465975Y242429D01*
X465982Y242438D01*
X492982Y289238D01*
X492991Y289264D01*
X493007Y289286D01*
X493022Y289357D01*
X493046Y289427D01*
X493043Y289454D01*
X493049Y289480D01*
X493036Y289552D01*
X493030Y289625D01*
X493017Y289649D01*
X493012Y289676D01*
X492972Y289737D01*
X492938Y289801D01*
X492917Y289819D01*
X492902Y289841D01*
X492816Y289902D01*
X492785Y289928D01*
X492776Y289931D01*
X492766Y289937D01*
X489128Y291688D01*
X489097Y291696D01*
X489059Y291715D01*
X485200Y292904D01*
X485168Y292907D01*
X485127Y292921D01*
X481134Y293521D01*
X481103Y293520D01*
X481060Y293527D01*
X477022Y293526D01*
X476991Y293519D01*
X476948Y293520D01*
X472956Y292917D01*
X472926Y292906D01*
X472883Y292900D01*
X469025Y291709D01*
X468997Y291694D01*
X468956Y291682D01*
X465318Y289929D01*
X465293Y289909D01*
X465254Y289891D01*
X461918Y287616D01*
X461896Y287593D01*
X461860Y287569D01*
X458901Y284822D01*
X458882Y284796D01*
X458850Y284767D01*
X456334Y281610D01*
X456319Y281581D01*
X456292Y281548D01*
X454274Y278051D01*
X454264Y278020D01*
X454242Y277983D01*
X452768Y274224D01*
X452762Y274193D01*
X452746Y274153D01*
X451849Y270216D01*
X451848Y270184D01*
X451838Y270142D01*
X451537Y266116D01*
X451541Y266084D01*
X451537Y266041D01*
X451840Y262015D01*
X451849Y261984D01*
X451851Y261941D01*
X452751Y258005D01*
X452764Y257976D01*
X452773Y257934D01*
X454249Y254176D01*
X454267Y254149D01*
X454282Y254109D01*
X456302Y250613D01*
X456323Y250589D01*
X456344Y250551D01*
X458862Y247395D01*
X458887Y247375D01*
X458913Y247340D01*
X461874Y244595D01*
X461901Y244578D01*
X461932Y244548D01*
X465269Y242275D01*
X465294Y242264D01*
X465315Y242247D01*
X465385Y242226D01*
X465452Y242198D01*
X465480Y242198D01*
X465506Y242190D01*
X465578Y242198D01*
G37*
G36*
X232754Y242198D02*
X232754Y242198D01*
X232827Y242194D01*
X232853Y242204D01*
X232880Y242205D01*
X232976Y242249D01*
X233014Y242264D01*
X233021Y242270D01*
X233031Y242275D01*
X236368Y244548D01*
X236390Y244571D01*
X236426Y244595D01*
X239387Y247340D01*
X239406Y247366D01*
X239438Y247395D01*
X241956Y250551D01*
X241971Y250579D01*
X241998Y250613D01*
X244018Y254109D01*
X244028Y254139D01*
X244051Y254176D01*
X245527Y257934D01*
X245532Y257965D01*
X245549Y258005D01*
X246449Y261941D01*
X246449Y261973D01*
X246460Y262015D01*
X246763Y266041D01*
X246759Y266073D01*
X246763Y266116D01*
X246462Y270142D01*
X246454Y270173D01*
X246451Y270216D01*
X245554Y274153D01*
X245541Y274182D01*
X245532Y274224D01*
X244058Y277983D01*
X244041Y278010D01*
X244026Y278051D01*
X242008Y281548D01*
X241987Y281572D01*
X241966Y281610D01*
X239450Y284767D01*
X239425Y284788D01*
X239399Y284822D01*
X236440Y287569D01*
X236413Y287586D01*
X236382Y287616D01*
X233046Y289891D01*
X233017Y289904D01*
X232982Y289929D01*
X229345Y291682D01*
X229314Y291689D01*
X229275Y291709D01*
X225417Y292900D01*
X225385Y292903D01*
X225344Y292917D01*
X221352Y293520D01*
X221320Y293518D01*
X221278Y293526D01*
X217240Y293527D01*
X217209Y293521D01*
X217166Y293521D01*
X213173Y292921D01*
X213143Y292910D01*
X213100Y292904D01*
X209241Y291715D01*
X209213Y291700D01*
X209172Y291688D01*
X205534Y289937D01*
X205512Y289921D01*
X205486Y289911D01*
X205433Y289861D01*
X205375Y289817D01*
X205362Y289794D01*
X205342Y289775D01*
X205312Y289708D01*
X205276Y289645D01*
X205273Y289618D01*
X205262Y289593D01*
X205261Y289520D01*
X205252Y289447D01*
X205260Y289421D01*
X205260Y289394D01*
X205296Y289295D01*
X205308Y289256D01*
X205314Y289249D01*
X205318Y289238D01*
X232318Y242438D01*
X232336Y242418D01*
X232347Y242393D01*
X232401Y242344D01*
X232449Y242289D01*
X232474Y242277D01*
X232494Y242259D01*
X232563Y242235D01*
X232629Y242203D01*
X232656Y242202D01*
X232681Y242193D01*
X232754Y242198D01*
G37*
G36*
X376177Y190594D02*
X376177Y190594D01*
X376204Y190591D01*
X376273Y190613D01*
X376345Y190628D01*
X376367Y190643D01*
X376393Y190652D01*
X376449Y190699D01*
X376509Y190740D01*
X376523Y190763D01*
X376544Y190781D01*
X376577Y190846D01*
X376616Y190908D01*
X376620Y190935D01*
X376632Y190959D01*
X376642Y191064D01*
X376649Y191104D01*
X376647Y191113D01*
X376648Y191125D01*
X376346Y195149D01*
X376338Y195180D01*
X376335Y195223D01*
X375437Y199157D01*
X375424Y199186D01*
X375415Y199228D01*
X373941Y202985D01*
X373924Y203012D01*
X373909Y203052D01*
X371891Y206547D01*
X371870Y206571D01*
X371849Y206608D01*
X369333Y209763D01*
X369308Y209784D01*
X369282Y209818D01*
X366324Y212563D01*
X366297Y212579D01*
X366265Y212609D01*
X362931Y214883D01*
X362902Y214895D01*
X362867Y214920D01*
X359231Y216671D01*
X359200Y216679D01*
X359161Y216698D01*
X355305Y217888D01*
X355274Y217891D01*
X355232Y217904D01*
X351242Y218506D01*
X351210Y218504D01*
X351168Y218511D01*
X347132Y218511D01*
X347101Y218505D01*
X347058Y218506D01*
X343068Y217904D01*
X343038Y217893D01*
X342995Y217888D01*
X339139Y216698D01*
X339111Y216683D01*
X339069Y216671D01*
X335433Y214920D01*
X335408Y214901D01*
X335369Y214883D01*
X332035Y212609D01*
X332012Y212587D01*
X331976Y212563D01*
X329018Y209818D01*
X329000Y209792D01*
X328967Y209763D01*
X326451Y206608D01*
X326437Y206580D01*
X326409Y206547D01*
X324391Y203052D01*
X324381Y203022D01*
X324359Y202985D01*
X322885Y199228D01*
X322879Y199197D01*
X322863Y199157D01*
X321965Y195223D01*
X321964Y195191D01*
X321954Y195149D01*
X321652Y191125D01*
X321656Y191098D01*
X321651Y191071D01*
X321668Y191000D01*
X321677Y190928D01*
X321691Y190904D01*
X321697Y190878D01*
X321740Y190819D01*
X321777Y190756D01*
X321799Y190739D01*
X321815Y190717D01*
X321878Y190680D01*
X321936Y190636D01*
X321963Y190630D01*
X321986Y190616D01*
X322090Y190598D01*
X322129Y190589D01*
X322139Y190590D01*
X322150Y190588D01*
X376150Y190588D01*
X376177Y190594D01*
G37*
G36*
X295086Y253878D02*
X295086Y253878D01*
X295104Y253876D01*
X295286Y253897D01*
X295469Y253916D01*
X295486Y253921D01*
X295503Y253923D01*
X295678Y253980D01*
X295854Y254034D01*
X295869Y254042D01*
X295886Y254048D01*
X296046Y254138D01*
X296208Y254226D01*
X296221Y254237D01*
X296237Y254246D01*
X296376Y254366D01*
X296517Y254483D01*
X296528Y254497D01*
X296542Y254509D01*
X296654Y254654D01*
X296769Y254797D01*
X296777Y254813D01*
X296788Y254827D01*
X296870Y254992D01*
X296955Y255154D01*
X296960Y255171D01*
X296968Y255187D01*
X297015Y255366D01*
X297066Y255541D01*
X297068Y255559D01*
X297072Y255576D01*
X297099Y255907D01*
X297099Y259921D01*
X303605Y266426D01*
X305880Y268702D01*
X305886Y268709D01*
X305893Y268714D01*
X306013Y268864D01*
X306135Y269013D01*
X306140Y269021D01*
X306145Y269028D01*
X306234Y269198D01*
X306324Y269369D01*
X306327Y269378D01*
X306331Y269385D01*
X306384Y269570D01*
X306439Y269755D01*
X306440Y269764D01*
X306442Y269772D01*
X306458Y269963D01*
X306475Y270156D01*
X306474Y270165D01*
X306475Y270174D01*
X306453Y270363D01*
X306432Y270556D01*
X306429Y270565D01*
X306428Y270573D01*
X306369Y270755D01*
X306310Y270940D01*
X306306Y270948D01*
X306303Y270956D01*
X306208Y271125D01*
X306115Y271292D01*
X306110Y271299D01*
X306105Y271307D01*
X305979Y271453D01*
X305855Y271599D01*
X305848Y271605D01*
X305842Y271612D01*
X305691Y271729D01*
X305539Y271849D01*
X305531Y271853D01*
X305524Y271858D01*
X305352Y271944D01*
X305180Y272031D01*
X305172Y272034D01*
X305163Y272038D01*
X304978Y272088D01*
X304792Y272139D01*
X304783Y272140D01*
X304775Y272142D01*
X304444Y272169D01*
X301418Y272169D01*
X301400Y272167D01*
X301382Y272169D01*
X301200Y272148D01*
X301017Y272129D01*
X301000Y272124D01*
X300983Y272122D01*
X300808Y272065D01*
X300632Y272011D01*
X300617Y272003D01*
X300600Y271997D01*
X300440Y271907D01*
X300278Y271819D01*
X300265Y271808D01*
X300249Y271799D01*
X300110Y271679D01*
X299969Y271562D01*
X299958Y271548D01*
X299944Y271536D01*
X299832Y271391D01*
X299717Y271248D01*
X299709Y271232D01*
X299698Y271218D01*
X299616Y271053D01*
X299531Y270891D01*
X299526Y270874D01*
X299518Y270858D01*
X299471Y270679D01*
X299420Y270504D01*
X299418Y270486D01*
X299414Y270469D01*
X299405Y270358D01*
X298047Y269001D01*
X286153Y269001D01*
X285160Y269993D01*
X285140Y270010D01*
X285122Y270031D01*
X284984Y270138D01*
X284849Y270248D01*
X284825Y270261D01*
X284804Y270277D01*
X284647Y270355D01*
X284493Y270437D01*
X284468Y270445D01*
X284443Y270457D01*
X284274Y270502D01*
X284107Y270552D01*
X284081Y270554D01*
X284055Y270561D01*
X283724Y270588D01*
X272288Y270588D01*
X272270Y270586D01*
X272252Y270588D01*
X272070Y270567D01*
X271887Y270548D01*
X271870Y270543D01*
X271853Y270541D01*
X271678Y270484D01*
X271502Y270430D01*
X271487Y270422D01*
X271470Y270416D01*
X271310Y270326D01*
X271148Y270238D01*
X271135Y270227D01*
X271119Y270218D01*
X270980Y270098D01*
X270839Y269981D01*
X270828Y269967D01*
X270814Y269955D01*
X270702Y269810D01*
X270587Y269667D01*
X270579Y269651D01*
X270568Y269637D01*
X270486Y269472D01*
X270401Y269310D01*
X270396Y269293D01*
X270388Y269277D01*
X270340Y269098D01*
X270290Y268923D01*
X270288Y268905D01*
X270284Y268888D01*
X270257Y268557D01*
X270257Y260022D01*
X267579Y257344D01*
X267578Y257343D01*
X267573Y257336D01*
X267566Y257331D01*
X267445Y257181D01*
X267323Y257032D01*
X267319Y257024D01*
X267313Y257017D01*
X267225Y256846D01*
X267135Y256676D01*
X267132Y256668D01*
X267128Y256660D01*
X267075Y256474D01*
X267020Y256290D01*
X267019Y256281D01*
X267017Y256273D01*
X267001Y256081D01*
X266983Y255889D01*
X266984Y255880D01*
X266984Y255871D01*
X267006Y255682D01*
X267027Y255489D01*
X267030Y255480D01*
X267031Y255472D01*
X267090Y255290D01*
X267148Y255105D01*
X267153Y255097D01*
X267155Y255089D01*
X267250Y254920D01*
X267343Y254753D01*
X267349Y254746D01*
X267353Y254738D01*
X267479Y254592D01*
X267604Y254446D01*
X267611Y254440D01*
X267616Y254433D01*
X267768Y254316D01*
X267920Y254196D01*
X267928Y254192D01*
X267935Y254187D01*
X268107Y254101D01*
X268278Y254014D01*
X268287Y254011D01*
X268295Y254007D01*
X268482Y253957D01*
X268666Y253906D01*
X268675Y253905D01*
X268684Y253903D01*
X269015Y253876D01*
X295068Y253876D01*
X295086Y253878D01*
G37*
G36*
X385881Y274971D02*
X385881Y274971D01*
X385999Y274978D01*
X386038Y274991D01*
X386078Y274996D01*
X386189Y275039D01*
X386302Y275076D01*
X386336Y275098D01*
X386374Y275113D01*
X386470Y275183D01*
X386571Y275246D01*
X386598Y275276D01*
X386631Y275299D01*
X386707Y275391D01*
X386789Y275478D01*
X386808Y275513D01*
X386834Y275544D01*
X386885Y275652D01*
X386942Y275756D01*
X386952Y275796D01*
X386969Y275832D01*
X386992Y275949D01*
X387022Y276064D01*
X387025Y276125D01*
X387029Y276145D01*
X387028Y276165D01*
X387032Y276225D01*
X387032Y285728D01*
X387017Y285846D01*
X387009Y285965D01*
X386997Y286003D01*
X386992Y286044D01*
X386948Y286154D01*
X386911Y286267D01*
X386890Y286302D01*
X386875Y286339D01*
X386805Y286435D01*
X386741Y286536D01*
X386712Y286564D01*
X386688Y286597D01*
X386596Y286673D01*
X386510Y286754D01*
X386474Y286774D01*
X386443Y286799D01*
X386335Y286850D01*
X386231Y286908D01*
X386192Y286918D01*
X386155Y286935D01*
X386039Y286957D01*
X385923Y286987D01*
X385863Y286991D01*
X385843Y286995D01*
X385823Y286993D01*
X385763Y286997D01*
X379413Y286997D01*
X379294Y286982D01*
X379176Y286975D01*
X379137Y286962D01*
X379097Y286957D01*
X378986Y286914D01*
X378873Y286877D01*
X378839Y286855D01*
X378801Y286840D01*
X378705Y286771D01*
X378604Y286707D01*
X378577Y286677D01*
X378544Y286654D01*
X378468Y286562D01*
X378386Y286475D01*
X378367Y286440D01*
X378341Y286409D01*
X378290Y286301D01*
X378233Y286197D01*
X378223Y286157D01*
X378206Y286121D01*
X378183Y286004D01*
X378153Y285889D01*
X378150Y285829D01*
X378146Y285809D01*
X378147Y285788D01*
X378143Y285728D01*
X378143Y276225D01*
X378158Y276107D01*
X378166Y275988D01*
X378178Y275950D01*
X378183Y275909D01*
X378227Y275799D01*
X378264Y275686D01*
X378285Y275651D01*
X378300Y275614D01*
X378370Y275518D01*
X378434Y275417D01*
X378463Y275389D01*
X378487Y275356D01*
X378579Y275281D01*
X378665Y275199D01*
X378701Y275179D01*
X378732Y275154D01*
X378840Y275103D01*
X378944Y275045D01*
X378983Y275035D01*
X379020Y275018D01*
X379136Y274996D01*
X379252Y274966D01*
X379312Y274962D01*
X379332Y274958D01*
X379352Y274960D01*
X379413Y274956D01*
X385763Y274956D01*
X385881Y274971D01*
G37*
D10*
X427600Y300038D03*
X410600Y300038D03*
D11*
X411188Y325438D03*
X430188Y325438D03*
D12*
X278838Y238125D03*
X295838Y238125D03*
D13*
X406400Y277112D03*
X406400Y265113D03*
X406400Y253113D03*
D10*
X434413Y385763D03*
X451413Y385763D03*
X427600Y311150D03*
X410600Y311150D03*
D12*
X292100Y259788D03*
X292100Y276788D03*
D14*
X277813Y279375D03*
X277813Y260375D03*
D10*
X276225Y322825D03*
X276225Y305825D03*
D11*
X411188Y342900D03*
X430188Y342900D03*
D12*
X433950Y358775D03*
X416950Y358775D03*
D15*
X514350Y341088D03*
X431750Y197988D03*
X266550Y197988D03*
X183950Y341088D03*
X473050Y412588D03*
X473050Y269588D03*
X349150Y197988D03*
X225250Y269588D03*
X225250Y412588D03*
D16*
X382207Y300557D03*
X382207Y295556D03*
X382207Y290554D03*
X382207Y285553D03*
X382207Y280552D03*
X382207Y275551D03*
X382207Y270549D03*
X382207Y265548D03*
X382207Y260547D03*
X382207Y255546D03*
X382207Y250544D03*
X382207Y245543D03*
D17*
X375170Y238506D03*
X370169Y238506D03*
X365167Y238506D03*
X360166Y238506D03*
X355165Y238506D03*
X350164Y238506D03*
X345162Y238506D03*
X340161Y238506D03*
X335160Y238506D03*
X330159Y238506D03*
X325157Y238506D03*
X320156Y238506D03*
D16*
X313119Y245543D03*
X313119Y250544D03*
X313119Y255546D03*
X313119Y260547D03*
X313119Y265548D03*
X313119Y270549D03*
X313119Y275551D03*
X313119Y280552D03*
X313119Y285553D03*
X313119Y290554D03*
X313119Y295556D03*
X313119Y300557D03*
D17*
X320156Y307594D03*
X325157Y307594D03*
X330159Y307594D03*
X335160Y307594D03*
X340161Y307594D03*
X345162Y307594D03*
X350164Y307594D03*
X355165Y307594D03*
X360166Y307594D03*
X365167Y307594D03*
X370169Y307594D03*
X375170Y307594D03*
D18*
X347663Y273050D03*
D19*
X452438Y368300D03*
D20*
X222250Y368300D03*
X222250Y342900D03*
X222250Y317500D03*
D10*
X377825Y360925D03*
X377825Y343925D03*
X392113Y357750D03*
X392113Y340750D03*
X317500Y370450D03*
X317500Y353450D03*
X347663Y370450D03*
X347663Y353450D03*
X333375Y370450D03*
X333375Y353450D03*
D12*
X292100Y419663D03*
X292100Y402663D03*
D21*
X381113Y392113D03*
X403113Y392113D03*
X381113Y374650D03*
X403113Y374650D03*
D10*
X280988Y361388D03*
X280988Y378388D03*
X307975Y388375D03*
X307975Y405375D03*
D22*
X269875Y397163D03*
X269875Y425163D03*
D12*
X290513Y310588D03*
X290513Y327588D03*
D23*
X286600Y425163D02*
X269875Y425163D01*
X286600Y425163D02*
X292100Y419663D01*
D24*
X276225Y322825D02*
X288463Y310588D01*
X290513Y310588D01*
D25*
X313119Y270549D02*
X312944Y270374D01*
X305758Y270374D01*
X295171Y259788D02*
X292100Y259788D01*
X295171Y259788D02*
X305758Y270374D01*
D26*
X406143Y213325D03*
D27*
X397489Y197988D02*
X431750Y197988D01*
X397489Y197988D02*
X382152Y213325D01*
D26*
X382152Y213325D03*
X351368Y228374D03*
D27*
X337912Y228374D01*
X307525Y197988D02*
X266550Y197988D01*
X319881Y210344D02*
X337912Y228374D01*
X319881Y210344D02*
X307525Y197988D01*
D26*
X311150Y219075D03*
D24*
X319881Y210344D01*
D27*
X266550Y197988D02*
X266550Y235100D01*
X257175Y244475D01*
X255681Y242981D01*
X254794Y242981D01*
D26*
X254794Y242981D03*
X254136Y262483D03*
D23*
X254136Y279264D01*
X217095Y305054D02*
X209804Y312345D01*
X209804Y315436D01*
X184153Y341088D01*
X217095Y305054D02*
X228346Y305054D01*
X184153Y341088D02*
X183950Y341088D01*
X228346Y305054D02*
X254136Y279264D01*
D24*
X406400Y265113D02*
X412590Y271303D01*
X414978Y271303D01*
X440498Y351978D02*
X433950Y358526D01*
X433950Y358775D01*
X440498Y296822D02*
X414978Y271303D01*
X440498Y296822D02*
X440498Y351978D01*
D27*
X479026Y341088D02*
X514350Y341088D01*
X479026Y341088D02*
X478801Y341313D01*
D26*
X478801Y341313D03*
X453037Y341313D03*
D27*
X435575Y358775D01*
X433950Y358775D01*
X434413Y359238D01*
X434413Y385763D01*
X381113Y392113D02*
X381113Y374650D01*
D26*
X395288Y419100D03*
D27*
X428851Y391324D02*
X434413Y385763D01*
X428851Y391324D02*
X428851Y394292D01*
X404043Y419100D01*
X395288Y419100D01*
D26*
X382588Y419100D03*
X366713Y419100D03*
X352425Y419100D03*
X338138Y419100D03*
X323850Y419100D03*
X300038Y377825D03*
X300038Y350838D03*
X382588Y406400D03*
X393700Y406400D03*
X428625Y430213D03*
X446088Y404813D03*
D25*
X345162Y270549D02*
X313119Y270549D01*
X345162Y270549D02*
X347663Y273050D01*
D27*
X291075Y359800D02*
X282575Y359800D01*
X280988Y361388D01*
X291075Y359800D02*
X300038Y350838D01*
X381113Y392113D02*
X381113Y404925D01*
X382588Y406400D01*
D26*
X263525Y333375D03*
X203200Y366713D03*
X330200Y293688D03*
X247650Y385763D03*
X398463Y320675D03*
X366713Y409575D03*
X352425Y409575D03*
X338138Y409575D03*
X323850Y409575D03*
X312738Y419100D03*
X357188Y400050D03*
X338138Y400050D03*
X369888Y390525D03*
X300038Y365125D03*
D23*
X269875Y397163D02*
X275375Y402663D01*
X292100Y402663D01*
X294813Y405375D02*
X307975Y405375D01*
X294813Y405375D02*
X292100Y402663D01*
D25*
X292100Y276788D02*
X300804Y276788D01*
X301865Y275726D01*
X312944Y275726D01*
X313119Y275551D01*
D27*
X289513Y279375D02*
X277813Y279375D01*
X289513Y279375D02*
X292100Y276788D01*
X287338Y281550D01*
X287338Y282489D01*
D26*
X287338Y282489D03*
D27*
X269875Y397163D02*
X277813Y405100D01*
X277813Y409575D01*
D26*
X277813Y409575D03*
X463871Y385216D03*
D25*
X465458Y383629D01*
X465458Y306708D01*
X434382Y275632D02*
X434382Y253550D01*
X418235Y237403D01*
X400710Y237403D02*
X387568Y250544D01*
X382207Y250544D01*
X400710Y237403D02*
X418235Y237403D01*
X434382Y275632D02*
X465458Y306708D01*
D24*
X471463Y411000D02*
X473050Y412588D01*
D25*
X471463Y411000D02*
X471463Y303188D01*
X439716Y271441D02*
X439716Y251341D01*
X419706Y231331D02*
X419100Y231331D01*
X396419Y231331D01*
X382207Y245543D01*
X439716Y271441D02*
X471463Y303188D01*
X439716Y251341D02*
X419706Y231331D01*
D26*
X448680Y250458D03*
D25*
X448680Y247999D01*
X426678Y225997D01*
X384175Y225997D01*
X384175Y229501D01*
X375170Y238506D01*
X370344Y238331D02*
X370169Y238506D01*
X370344Y238331D02*
X370344Y226619D01*
X376300Y220663D01*
X430475Y220663D01*
X466700Y263238D02*
X473050Y269588D01*
X466700Y263238D02*
X466700Y256888D01*
X430475Y220663D01*
D26*
X243169Y241974D03*
D25*
X251515Y250319D01*
X298160Y250319D01*
X300656Y252815D02*
X300656Y258447D01*
X307757Y265548D01*
X313119Y265548D01*
X300656Y252815D02*
X298160Y250319D01*
X298169Y295556D02*
X313119Y295556D01*
X240825Y317500D02*
X222250Y317500D01*
X240825Y317500D02*
X262594Y295731D01*
X297994Y295731D01*
X298169Y295556D01*
X306107Y250544D02*
X313119Y250544D01*
X295838Y240275D02*
X295838Y238125D01*
X295838Y240275D02*
X306107Y250544D01*
X278838Y238125D02*
X278838Y226000D01*
X288938Y215900D01*
D26*
X288938Y215900D03*
D25*
X350164Y307594D02*
X349988Y307770D01*
X349988Y324960D01*
X341313Y342338D02*
X333375Y350275D01*
X333375Y353450D01*
X341313Y342338D02*
X341313Y333635D01*
X349988Y324960D01*
X382207Y265548D02*
X389373Y265548D01*
X400937Y277112D02*
X406400Y277112D01*
X389724Y265899D02*
X389373Y265548D01*
X389724Y265899D02*
X393158Y265899D01*
X400937Y273679D02*
X400937Y277112D01*
X400937Y273679D02*
X393158Y265899D01*
X393503Y260547D02*
X382207Y260547D01*
X400937Y253113D02*
X406400Y253113D01*
X400937Y253113D02*
X393503Y260547D01*
X264593Y300557D02*
X222250Y342900D01*
D27*
X276225Y305825D02*
X276225Y302907D01*
D25*
X276225Y300557D02*
X313119Y300557D01*
X276225Y300557D02*
X264593Y300557D01*
X276225Y300557D02*
X276225Y305825D01*
D26*
X324801Y316864D03*
D25*
X325157Y316508D01*
X325157Y307594D01*
X314077Y327588D02*
X290513Y327588D01*
X314077Y327588D02*
X324801Y316864D01*
X375170Y307594D02*
X392113Y324537D01*
X392113Y340750D01*
X370169Y313754D02*
X370169Y307594D01*
X370169Y313754D02*
X381988Y325573D01*
X381988Y339762D02*
X377825Y343925D01*
X381988Y339762D02*
X381988Y325573D01*
X355165Y307594D02*
X354990Y307769D01*
X354990Y328371D01*
X346675Y352462D02*
X347663Y353450D01*
X346675Y352462D02*
X346675Y336686D01*
X354990Y328371D01*
X344987Y307769D02*
X345162Y307594D01*
X334963Y331932D02*
X334963Y340750D01*
X331788Y343925D01*
X327025Y343925D01*
X317500Y353450D01*
X344987Y321908D02*
X344987Y307769D01*
X344987Y321908D02*
X338210Y328685D01*
X334963Y331932D01*
D26*
X387350Y307895D03*
D25*
X387350Y305701D01*
X382207Y300557D01*
D26*
X387920Y282575D03*
D27*
X410600Y300038D02*
X410600Y311150D01*
X410600Y324850D01*
X411188Y325438D01*
X411188Y342900D01*
X410600Y300038D02*
X410600Y295275D01*
X407425Y292100D01*
X397445Y292100D01*
X387920Y282575D01*
X385897Y280552D01*
X382207Y280552D01*
D25*
X427600Y299106D02*
X427600Y300038D01*
D23*
X430188Y325438D02*
X430188Y342900D01*
D27*
X422006Y351082D01*
X422006Y352189D01*
X416950Y357244D02*
X416950Y358775D01*
X416950Y357244D02*
X422006Y352189D01*
D23*
X427600Y311150D02*
X427600Y300038D01*
X427600Y311150D02*
X427600Y322850D01*
X430188Y325438D01*
D25*
X382383Y270725D02*
X382207Y270549D01*
X382383Y270725D02*
X387743Y270725D01*
X394589Y277571D01*
X394589Y279330D01*
X399515Y284256D01*
D27*
X411818Y284256D02*
X427600Y300038D01*
X411818Y284256D02*
X399515Y284256D01*
D26*
X307975Y319088D03*
D25*
X308662Y319088D02*
X320156Y307594D01*
X308662Y319088D02*
X307975Y319088D01*
X452438Y368300D02*
X460375Y360363D01*
X460375Y308450D01*
X429556Y277631D01*
X429556Y255549D01*
X382383Y255370D02*
X382207Y255546D01*
X382383Y255370D02*
X389567Y255370D01*
X397381Y247557D02*
X421564Y247557D01*
X397381Y247557D02*
X389567Y255370D01*
X421564Y247557D02*
X429556Y255549D01*
D27*
X452438Y368300D02*
X452438Y384738D01*
X451413Y385763D01*
D25*
X233925Y267262D02*
X231600Y269588D01*
X225250Y269588D01*
X305181Y280552D02*
X313119Y280552D01*
X305181Y280552D02*
X295906Y289827D01*
X269189Y289827D01*
X237563Y267262D02*
X233925Y267262D01*
X237563Y267262D02*
X249680Y255145D01*
X260350Y255145D02*
X266700Y261495D01*
X266700Y287338D02*
X269189Y289827D01*
X260350Y255145D02*
X249680Y255145D01*
X266700Y261495D02*
X266700Y287338D01*
D24*
X277250Y374650D02*
X280988Y378388D01*
X277250Y374650D02*
X274638Y374650D01*
D26*
X274638Y374650D03*
D25*
X340161Y319550D02*
X340161Y307594D01*
X340161Y319550D02*
X316747Y342964D01*
D26*
X235638Y386486D03*
D24*
X235638Y382911D01*
X275586Y342964D02*
X316747Y342964D01*
X275586Y342964D02*
X235638Y382911D01*
D25*
X335160Y317726D02*
X335160Y307594D01*
D24*
X272165Y337253D02*
X225250Y384168D01*
D25*
X315632Y337253D02*
X335160Y317726D01*
D24*
X225250Y384168D02*
X225250Y412588D01*
D25*
X272165Y337253D02*
X315632Y337253D01*
D26*
X295244Y389000D03*
D24*
X295869Y388375D01*
X307975Y388375D01*
D26*
X363538Y319088D03*
D25*
X363538Y324066D01*
X361950Y325654D01*
X361950Y373625D02*
X354013Y381563D01*
X341313Y381563D01*
X333375Y373625D02*
X333375Y370450D01*
X333375Y373625D02*
X341313Y381563D01*
X361950Y373625D02*
X361950Y325654D01*
D26*
X371475Y325438D03*
D25*
X368300Y328613D02*
X368300Y381000D01*
X368300Y328613D02*
X371475Y325438D01*
X362293Y387007D02*
X320332Y387007D01*
X317500Y384175D02*
X317500Y370450D01*
X317500Y384175D02*
X320332Y387007D01*
X362293Y387007D02*
X368300Y381000D01*
D26*
X354013Y341313D03*
D25*
X356719Y344019D02*
X356719Y362982D01*
X356719Y344019D02*
X354013Y341313D01*
X349250Y370450D02*
X347663Y370450D01*
X349250Y370450D02*
X356719Y362982D01*
D26*
X381443Y200481D03*
D25*
X381443Y203656D01*
X365167Y219932D01*
X365167Y238506D01*
X359991Y238331D02*
X359991Y226619D01*
X359991Y238331D02*
X360166Y238506D01*
X349150Y215779D02*
X349150Y197988D01*
X349150Y215779D02*
X359991Y226619D01*
X377825Y360925D02*
X385494Y368594D01*
X386585Y368594D01*
X392641Y374650D02*
X403113Y374650D01*
X392641Y374650D02*
X386585Y368594D01*
X398463Y379300D02*
X403113Y374650D01*
X398463Y379300D02*
X398463Y381000D01*
D26*
X398463Y381000D03*
X417513Y390525D03*
D25*
X402957Y368594D02*
X392113Y357750D01*
X402957Y368594D02*
X408585Y368594D01*
X417513Y377521D01*
X417513Y390525D01*
D27*
X404700Y390525D02*
X403113Y392113D01*
X404700Y390525D02*
X417513Y390525D01*
M02*
