G04 EAGLE Gerber RS-274X export*
G75*
%MOMM*%
%FSLAX34Y34*%
%LPD*%
%INBottom Copper*%
%IPPOS*%
%AMOC8*
5,1,8,0,0,1.08239X$1,22.5*%
G01*
%ADD10R,1.100000X1.000000*%
%ADD11R,1.300000X1.500000*%
%ADD12R,1.000000X1.100000*%
%ADD13R,1.399997X0.400000*%
%ADD14R,1.500000X1.300000*%
%ADD15C,1.000000*%
%ADD16R,0.550000X0.297181*%
%ADD17R,0.297181X0.550000*%
%ADD18R,5.600000X5.600000*%
%ADD19P,1.649562X8X202.500000*%
%ADD20C,1.524000*%
%ADD21R,0.900000X0.700000*%
%ADD22R,0.500000X0.800000*%
%ADD23R,2.700000X1.600000*%
%ADD24C,1.270000*%
%ADD25C,0.254000*%
%ADD26C,0.604800*%
%ADD27C,0.406400*%
%ADD28C,0.304800*%
%ADD29C,0.203200*%

G36*
X81703Y59866D02*
X81703Y59866D01*
X81793Y59873D01*
X81823Y59886D01*
X81855Y59891D01*
X81936Y59934D01*
X82020Y59969D01*
X82052Y59995D01*
X82073Y60006D01*
X82095Y60029D01*
X82151Y60074D01*
X85755Y63679D01*
X85808Y63753D01*
X85868Y63822D01*
X85880Y63852D01*
X85899Y63879D01*
X85926Y63965D01*
X85960Y64050D01*
X85964Y64091D01*
X85971Y64114D01*
X85970Y64146D01*
X85978Y64217D01*
X85978Y155018D01*
X87838Y156878D01*
X98969Y168009D01*
X98981Y168025D01*
X98996Y168038D01*
X99053Y168125D01*
X99113Y168209D01*
X99119Y168228D01*
X99129Y168245D01*
X99155Y168345D01*
X99185Y168444D01*
X99185Y168464D01*
X99190Y168483D01*
X99181Y168586D01*
X99179Y168690D01*
X99172Y168709D01*
X99170Y168728D01*
X99130Y168823D01*
X99094Y168921D01*
X99082Y168936D01*
X99074Y168955D01*
X98969Y169086D01*
X94043Y174012D01*
X94043Y181588D01*
X99402Y186947D01*
X99417Y186946D01*
X99518Y186968D01*
X99620Y186984D01*
X99638Y186994D01*
X99657Y186998D01*
X99746Y187051D01*
X99838Y187100D01*
X99851Y187114D01*
X99868Y187124D01*
X99936Y187203D01*
X100007Y187278D01*
X100015Y187296D01*
X100028Y187311D01*
X100067Y187407D01*
X100111Y187501D01*
X100113Y187521D01*
X100120Y187539D01*
X100139Y187706D01*
X100139Y187977D01*
X100136Y187996D01*
X100138Y188016D01*
X100116Y188117D01*
X100099Y188219D01*
X100090Y188237D01*
X100085Y188256D01*
X100032Y188345D01*
X99984Y188437D01*
X99970Y188450D01*
X99959Y188467D01*
X99881Y188535D01*
X99806Y188606D01*
X99788Y188614D01*
X99772Y188627D01*
X99676Y188666D01*
X99583Y188710D01*
X99563Y188712D01*
X99544Y188719D01*
X99378Y188738D01*
X96031Y188738D01*
X95138Y189631D01*
X95138Y200894D01*
X96031Y201787D01*
X108294Y201787D01*
X109187Y200894D01*
X109187Y189631D01*
X108294Y188738D01*
X106997Y188738D01*
X106978Y188735D01*
X106958Y188737D01*
X106857Y188715D01*
X106755Y188698D01*
X106737Y188689D01*
X106718Y188684D01*
X106629Y188631D01*
X106537Y188583D01*
X106524Y188569D01*
X106507Y188558D01*
X106439Y188480D01*
X106368Y188405D01*
X106360Y188387D01*
X106347Y188371D01*
X106308Y188275D01*
X106264Y188182D01*
X106262Y188162D01*
X106255Y188143D01*
X106236Y187977D01*
X106236Y187706D01*
X106239Y187686D01*
X106237Y187667D01*
X106259Y187565D01*
X106276Y187463D01*
X106285Y187446D01*
X106290Y187426D01*
X106343Y187337D01*
X106391Y187246D01*
X106405Y187232D01*
X106416Y187215D01*
X106494Y187148D01*
X106569Y187076D01*
X106587Y187068D01*
X106603Y187055D01*
X106699Y187016D01*
X106792Y186973D01*
X106812Y186971D01*
X106831Y186963D01*
X106973Y186947D01*
X112114Y181806D01*
X112172Y181764D01*
X112224Y181715D01*
X112271Y181693D01*
X112313Y181663D01*
X112382Y181642D01*
X112447Y181611D01*
X112499Y181606D01*
X112549Y181590D01*
X112620Y181592D01*
X112691Y181584D01*
X112742Y181595D01*
X112794Y181597D01*
X112862Y181621D01*
X112932Y181637D01*
X112977Y181663D01*
X113025Y181681D01*
X113081Y181726D01*
X113143Y181763D01*
X113177Y181802D01*
X113217Y181835D01*
X113256Y181895D01*
X113303Y181950D01*
X113322Y181998D01*
X113350Y182042D01*
X113368Y182111D01*
X113395Y182178D01*
X113403Y182249D01*
X113411Y182280D01*
X113409Y182304D01*
X113413Y182345D01*
X113413Y190938D01*
X113399Y191028D01*
X113391Y191119D01*
X113379Y191149D01*
X113374Y191181D01*
X113331Y191262D01*
X113295Y191345D01*
X113269Y191378D01*
X113258Y191398D01*
X113235Y191420D01*
X113190Y191476D01*
X111913Y192753D01*
X111913Y196522D01*
X114586Y199195D01*
X114609Y199199D01*
X114685Y199202D01*
X114729Y199218D01*
X114776Y199226D01*
X114844Y199262D01*
X114915Y199289D01*
X114952Y199319D01*
X114994Y199341D01*
X115046Y199396D01*
X115105Y199445D01*
X115130Y199485D01*
X115163Y199520D01*
X115195Y199589D01*
X115236Y199653D01*
X115247Y199699D01*
X115267Y199743D01*
X115275Y199818D01*
X115293Y199892D01*
X115289Y199940D01*
X115294Y199987D01*
X115278Y200062D01*
X115271Y200137D01*
X115252Y200181D01*
X115242Y200227D01*
X115202Y200293D01*
X115172Y200363D01*
X115140Y200398D01*
X115115Y200439D01*
X115057Y200488D01*
X115006Y200544D01*
X114952Y200578D01*
X114928Y200598D01*
X114904Y200608D01*
X114864Y200633D01*
X114641Y200741D01*
X114601Y200801D01*
X114559Y200879D01*
X114533Y200902D01*
X114514Y200931D01*
X114387Y201040D01*
X112566Y202283D01*
X112534Y202297D01*
X112507Y202319D01*
X112424Y202349D01*
X112343Y202386D01*
X112308Y202390D01*
X112276Y202402D01*
X112197Y202408D01*
X111725Y202846D01*
X111697Y202864D01*
X111636Y202917D01*
X111107Y203278D01*
X111077Y203343D01*
X111046Y203426D01*
X111025Y203453D01*
X111010Y203485D01*
X110947Y203558D01*
X110943Y203564D01*
X110936Y203570D01*
X110900Y203612D01*
X109285Y205111D01*
X109256Y205131D01*
X109232Y205156D01*
X109154Y205198D01*
X109080Y205247D01*
X109047Y205256D01*
X109016Y205273D01*
X108939Y205290D01*
X108537Y205794D01*
X108513Y205816D01*
X108460Y205877D01*
X107991Y206313D01*
X107970Y206382D01*
X107953Y206469D01*
X107935Y206499D01*
X107925Y206532D01*
X107836Y206674D01*
X106462Y208398D01*
X106437Y208421D01*
X106417Y208450D01*
X106346Y208503D01*
X106280Y208563D01*
X106248Y208577D01*
X106220Y208598D01*
X106146Y208626D01*
X105825Y209184D01*
X105804Y209209D01*
X105761Y209278D01*
X105362Y209779D01*
X105352Y209850D01*
X105347Y209939D01*
X105335Y209971D01*
X105330Y210005D01*
X105262Y210159D01*
X104161Y212068D01*
X104139Y212095D01*
X104124Y212126D01*
X104061Y212190D01*
X104005Y212258D01*
X103976Y212277D01*
X103952Y212302D01*
X103883Y212341D01*
X103648Y212940D01*
X103631Y212969D01*
X103598Y213043D01*
X103278Y213598D01*
X103279Y213670D01*
X103288Y213758D01*
X103280Y213792D01*
X103281Y213826D01*
X103237Y213988D01*
X102432Y216040D01*
X102415Y216070D01*
X102404Y216103D01*
X102352Y216175D01*
X102307Y216252D01*
X102280Y216275D01*
X102260Y216303D01*
X102198Y216352D01*
X102055Y216979D01*
X102043Y217010D01*
X102021Y217088D01*
X101788Y217684D01*
X101799Y217755D01*
X101821Y217841D01*
X101818Y217876D01*
X101824Y217910D01*
X101805Y218077D01*
X101315Y220226D01*
X101302Y220258D01*
X101297Y220292D01*
X101256Y220371D01*
X101222Y220454D01*
X101200Y220480D01*
X101184Y220511D01*
X101130Y220569D01*
X101082Y221211D01*
X101074Y221243D01*
X101065Y221323D01*
X100923Y221948D01*
X100944Y222016D01*
X100979Y222098D01*
X100982Y222133D01*
X100992Y222166D01*
X100998Y222333D01*
X100834Y224531D01*
X100826Y224565D01*
X100826Y224600D01*
X100797Y224684D01*
X100776Y224770D01*
X100758Y224800D01*
X100747Y224833D01*
X100702Y224898D01*
X100750Y225540D01*
X100747Y225573D01*
X100750Y225654D01*
X100703Y226292D01*
X100734Y226357D01*
X100781Y226433D01*
X100789Y226466D01*
X100804Y226497D01*
X100835Y226662D01*
X101000Y228860D01*
X100997Y228895D01*
X101002Y228929D01*
X100987Y229017D01*
X100979Y229105D01*
X100965Y229137D01*
X100959Y229171D01*
X100924Y229243D01*
X101068Y229870D01*
X101070Y229903D01*
X101085Y229983D01*
X101133Y230621D01*
X101174Y230680D01*
X101231Y230748D01*
X101244Y230780D01*
X101263Y230809D01*
X101319Y230967D01*
X101810Y233116D01*
X101812Y233151D01*
X101822Y233184D01*
X101819Y233273D01*
X101825Y233362D01*
X101816Y233395D01*
X101815Y233430D01*
X101792Y233506D01*
X102027Y234105D01*
X102034Y234137D01*
X102060Y234213D01*
X102203Y234838D01*
X102252Y234890D01*
X102319Y234949D01*
X102336Y234979D01*
X102360Y235004D01*
X102438Y235152D01*
X103244Y237204D01*
X103252Y237238D01*
X103267Y237269D01*
X103277Y237357D01*
X103296Y237444D01*
X103292Y237479D01*
X103296Y237513D01*
X103285Y237592D01*
X103607Y238149D01*
X103618Y238180D01*
X103656Y238251D01*
X103890Y238847D01*
X103947Y238892D01*
X104021Y238940D01*
X104043Y238967D01*
X104070Y238988D01*
X104170Y239123D01*
X105272Y241032D01*
X105285Y241064D01*
X105304Y241093D01*
X105328Y241179D01*
X105359Y241262D01*
X105361Y241297D01*
X105370Y241330D01*
X105370Y241409D01*
X105771Y241912D01*
X105787Y241941D01*
X105835Y242007D01*
X106156Y242561D01*
X106218Y242596D01*
X106299Y242633D01*
X106325Y242656D01*
X106355Y242673D01*
X106473Y242792D01*
X107848Y244515D01*
X107865Y244545D01*
X107889Y244571D01*
X107925Y244652D01*
X107968Y244730D01*
X107975Y244764D01*
X107989Y244795D01*
X108001Y244874D01*
X108473Y245311D01*
X108493Y245337D01*
X108550Y245395D01*
X108950Y245895D01*
X109016Y245921D01*
X109102Y245945D01*
X109131Y245965D01*
X109163Y245977D01*
X109298Y246077D01*
X110914Y247575D01*
X110936Y247603D01*
X110963Y247624D01*
X111011Y247699D01*
X111065Y247770D01*
X111077Y247802D01*
X111095Y247832D01*
X111119Y247907D01*
X111651Y248270D01*
X111675Y248293D01*
X111740Y248341D01*
X112209Y248776D01*
X112279Y248791D01*
X112367Y248802D01*
X112399Y248817D01*
X112433Y248825D01*
X112581Y248904D01*
X114069Y249917D01*
X114151Y249995D01*
X114236Y250073D01*
X114241Y250081D01*
X114247Y250087D01*
X114300Y250187D01*
X114356Y250288D01*
X114358Y250297D01*
X114362Y250304D01*
X114380Y250417D01*
X114401Y250530D01*
X114400Y250538D01*
X114401Y250547D01*
X114383Y250660D01*
X114367Y250773D01*
X114362Y250783D01*
X114361Y250790D01*
X114351Y250810D01*
X114299Y250927D01*
X86284Y299452D01*
X86241Y299505D01*
X86207Y299562D01*
X86164Y299599D01*
X86128Y299642D01*
X86071Y299678D01*
X86020Y299722D01*
X85967Y299743D01*
X85920Y299773D01*
X85854Y299789D01*
X85791Y299814D01*
X85713Y299823D01*
X85681Y299831D01*
X85660Y299829D01*
X85625Y299833D01*
X-85825Y299833D01*
X-85891Y299822D01*
X-85959Y299821D01*
X-86012Y299802D01*
X-86067Y299793D01*
X-86127Y299761D01*
X-86191Y299739D01*
X-86235Y299704D01*
X-86285Y299678D01*
X-86331Y299629D01*
X-86385Y299587D01*
X-86432Y299523D01*
X-86454Y299500D01*
X-86463Y299481D01*
X-86484Y299452D01*
X-97730Y279973D01*
X-97755Y279908D01*
X-97788Y279846D01*
X-97798Y279793D01*
X-97817Y279743D01*
X-97819Y279673D01*
X-97832Y279604D01*
X-97824Y279551D01*
X-97826Y279497D01*
X-97806Y279430D01*
X-97795Y279361D01*
X-97771Y279313D01*
X-97756Y279262D01*
X-97716Y279204D01*
X-97684Y279142D01*
X-97645Y279104D01*
X-97615Y279060D01*
X-97558Y279019D01*
X-97508Y278970D01*
X-97460Y278946D01*
X-97416Y278915D01*
X-97349Y278893D01*
X-97286Y278863D01*
X-97213Y278850D01*
X-97182Y278840D01*
X-97160Y278840D01*
X-97121Y278833D01*
X-52320Y275846D01*
X-52301Y275848D01*
X-52269Y275845D01*
X-51181Y275845D01*
X-51156Y275827D01*
X-51093Y275808D01*
X-51083Y275803D01*
X-50362Y274979D01*
X-50347Y274967D01*
X-50328Y274942D01*
X-49558Y274173D01*
X-49553Y274143D01*
X-49522Y274085D01*
X-49518Y274074D01*
X-49591Y272982D01*
X-49589Y272963D01*
X-49593Y272932D01*
X-49593Y219505D01*
X-51230Y217868D01*
X-53102Y217868D01*
X-53121Y217865D01*
X-53141Y217867D01*
X-53242Y217845D01*
X-53344Y217828D01*
X-53362Y217819D01*
X-53381Y217814D01*
X-53470Y217761D01*
X-53562Y217713D01*
X-53575Y217699D01*
X-53592Y217688D01*
X-53660Y217610D01*
X-53731Y217535D01*
X-53739Y217517D01*
X-53752Y217501D01*
X-53791Y217405D01*
X-53835Y217312D01*
X-53837Y217292D01*
X-53844Y217273D01*
X-53863Y217107D01*
X-53863Y207093D01*
X-54756Y206200D01*
X-67019Y206200D01*
X-67216Y206397D01*
X-67232Y206409D01*
X-67245Y206425D01*
X-67332Y206481D01*
X-67416Y206541D01*
X-67435Y206547D01*
X-67452Y206557D01*
X-67552Y206583D01*
X-67651Y206613D01*
X-67671Y206613D01*
X-67690Y206617D01*
X-67793Y206609D01*
X-67897Y206607D01*
X-67915Y206600D01*
X-67936Y206598D01*
X-67958Y206589D01*
X-70390Y206589D01*
X-70480Y206574D01*
X-70571Y206567D01*
X-70600Y206554D01*
X-70632Y206549D01*
X-70713Y206506D01*
X-70797Y206471D01*
X-70829Y206445D01*
X-70850Y206434D01*
X-70872Y206411D01*
X-70928Y206366D01*
X-71737Y205557D01*
X-71748Y205541D01*
X-71764Y205528D01*
X-71820Y205441D01*
X-71880Y205357D01*
X-71886Y205338D01*
X-71897Y205322D01*
X-71922Y205221D01*
X-71953Y205122D01*
X-71952Y205102D01*
X-71957Y205083D01*
X-71949Y204980D01*
X-71946Y204876D01*
X-71939Y204858D01*
X-71938Y204838D01*
X-71897Y204743D01*
X-71862Y204645D01*
X-71849Y204630D01*
X-71841Y204611D01*
X-71825Y204591D01*
X-71825Y192306D01*
X-72718Y191413D01*
X-82621Y191413D01*
X-82641Y191410D01*
X-82661Y191412D01*
X-82762Y191390D01*
X-82864Y191373D01*
X-82881Y191364D01*
X-82901Y191359D01*
X-82990Y191306D01*
X-83081Y191258D01*
X-83095Y191244D01*
X-83112Y191233D01*
X-83179Y191155D01*
X-83251Y191080D01*
X-83259Y191062D01*
X-83272Y191046D01*
X-83311Y190950D01*
X-83354Y190857D01*
X-83356Y190837D01*
X-83364Y190818D01*
X-83382Y190652D01*
X-83382Y175376D01*
X-83368Y175286D01*
X-83361Y175195D01*
X-83348Y175165D01*
X-83343Y175134D01*
X-83300Y175053D01*
X-83264Y174969D01*
X-83239Y174937D01*
X-83228Y174916D01*
X-83204Y174894D01*
X-83159Y174838D01*
X-53516Y145194D01*
X-53442Y145141D01*
X-53372Y145082D01*
X-53342Y145069D01*
X-53316Y145051D01*
X-53229Y145024D01*
X-53144Y144990D01*
X-53103Y144985D01*
X-53081Y144978D01*
X-53049Y144979D01*
X-52977Y144971D01*
X-33773Y144971D01*
X-33754Y144974D01*
X-33734Y144972D01*
X-33633Y144994D01*
X-33531Y145011D01*
X-33513Y145020D01*
X-33494Y145025D01*
X-33405Y145078D01*
X-33313Y145126D01*
X-33300Y145140D01*
X-33283Y145151D01*
X-33215Y145229D01*
X-33144Y145304D01*
X-33136Y145322D01*
X-33123Y145338D01*
X-33084Y145434D01*
X-33040Y145527D01*
X-33038Y145547D01*
X-33031Y145566D01*
X-33012Y145732D01*
X-33012Y153207D01*
X-32119Y154100D01*
X-21856Y154100D01*
X-21176Y153420D01*
X-21160Y153408D01*
X-21147Y153392D01*
X-21060Y153336D01*
X-20976Y153276D01*
X-20957Y153270D01*
X-20940Y153259D01*
X-20840Y153234D01*
X-20741Y153204D01*
X-20721Y153204D01*
X-20702Y153199D01*
X-20599Y153207D01*
X-20495Y153210D01*
X-20476Y153217D01*
X-20457Y153218D01*
X-20362Y153259D01*
X-20264Y153294D01*
X-20248Y153307D01*
X-20230Y153315D01*
X-20099Y153420D01*
X-19419Y154100D01*
X-9156Y154100D01*
X-8476Y153420D01*
X-8460Y153408D01*
X-8447Y153392D01*
X-8360Y153336D01*
X-8276Y153276D01*
X-8257Y153270D01*
X-8240Y153259D01*
X-8140Y153234D01*
X-8041Y153204D01*
X-8021Y153204D01*
X-8002Y153199D01*
X-7899Y153207D01*
X-7795Y153210D01*
X-7776Y153217D01*
X-7756Y153218D01*
X-7662Y153259D01*
X-7564Y153294D01*
X-7548Y153307D01*
X-7530Y153315D01*
X-7399Y153420D01*
X-6719Y154100D01*
X3544Y154100D01*
X4450Y153194D01*
X4451Y153164D01*
X4469Y153115D01*
X4477Y153064D01*
X4511Y153000D01*
X4535Y152933D01*
X4568Y152892D01*
X4592Y152846D01*
X4644Y152797D01*
X4689Y152741D01*
X4733Y152713D01*
X4770Y152677D01*
X4835Y152647D01*
X4896Y152608D01*
X4946Y152595D01*
X4993Y152573D01*
X5065Y152565D01*
X5134Y152548D01*
X5186Y152552D01*
X5238Y152546D01*
X5308Y152561D01*
X5379Y152567D01*
X5427Y152587D01*
X5478Y152598D01*
X5540Y152635D01*
X5606Y152663D01*
X5662Y152708D01*
X5689Y152725D01*
X5705Y152742D01*
X5737Y152768D01*
X6568Y153600D01*
X18832Y153600D01*
X19725Y152707D01*
X19725Y145546D01*
X19739Y145456D01*
X19747Y145365D01*
X19759Y145335D01*
X19764Y145303D01*
X19807Y145223D01*
X19843Y145139D01*
X19869Y145107D01*
X19880Y145086D01*
X19903Y145064D01*
X19948Y145008D01*
X20251Y144705D01*
X20309Y144663D01*
X20361Y144614D01*
X20408Y144592D01*
X20450Y144561D01*
X20519Y144540D01*
X20584Y144510D01*
X20636Y144504D01*
X20686Y144489D01*
X20757Y144491D01*
X20828Y144483D01*
X20879Y144494D01*
X20931Y144495D01*
X20999Y144520D01*
X21069Y144535D01*
X21114Y144562D01*
X21162Y144580D01*
X21218Y144625D01*
X21280Y144661D01*
X21314Y144701D01*
X21354Y144733D01*
X21393Y144794D01*
X21440Y144848D01*
X21459Y144897D01*
X21487Y144940D01*
X21505Y145010D01*
X21532Y145076D01*
X21540Y145148D01*
X21548Y145179D01*
X21546Y145202D01*
X21550Y145243D01*
X21550Y152707D01*
X22443Y153600D01*
X34707Y153600D01*
X35600Y152707D01*
X35600Y141443D01*
X34707Y140550D01*
X29221Y140550D01*
X29202Y140547D01*
X29182Y140549D01*
X29081Y140527D01*
X28979Y140511D01*
X28961Y140501D01*
X28942Y140497D01*
X28853Y140444D01*
X28761Y140395D01*
X28748Y140381D01*
X28731Y140371D01*
X28663Y140292D01*
X28592Y140217D01*
X28584Y140199D01*
X28571Y140184D01*
X28532Y140088D01*
X28488Y139994D01*
X28486Y139974D01*
X28479Y139956D01*
X28460Y139789D01*
X28460Y128806D01*
X28472Y128735D01*
X28474Y128663D01*
X28492Y128614D01*
X28500Y128563D01*
X28533Y128500D01*
X28558Y128432D01*
X28591Y128392D01*
X28615Y128346D01*
X28667Y128296D01*
X28712Y128240D01*
X28756Y128212D01*
X28793Y128176D01*
X28858Y128146D01*
X28919Y128107D01*
X28969Y128095D01*
X29016Y128073D01*
X29088Y128065D01*
X29157Y128047D01*
X29209Y128051D01*
X29261Y128046D01*
X29331Y128061D01*
X29403Y128067D01*
X29450Y128087D01*
X29501Y128098D01*
X29563Y128135D01*
X29629Y128163D01*
X29685Y128208D01*
X29712Y128224D01*
X29728Y128242D01*
X29760Y128268D01*
X29866Y128374D01*
X33634Y128374D01*
X36299Y125709D01*
X36299Y121941D01*
X35367Y121009D01*
X35314Y120935D01*
X35255Y120866D01*
X35242Y120836D01*
X35224Y120810D01*
X35197Y120723D01*
X35163Y120638D01*
X35158Y120597D01*
X35151Y120574D01*
X35152Y120542D01*
X35144Y120471D01*
X35144Y113829D01*
X35147Y113809D01*
X35145Y113789D01*
X35167Y113691D01*
X35170Y113648D01*
X35176Y113633D01*
X35184Y113586D01*
X35193Y113569D01*
X35198Y113549D01*
X35248Y113465D01*
X35266Y113422D01*
X35280Y113404D01*
X35299Y113369D01*
X35313Y113355D01*
X35324Y113338D01*
X35354Y113312D01*
X35371Y113291D01*
X36487Y112174D01*
X36487Y107867D01*
X36482Y107859D01*
X36457Y107759D01*
X36427Y107660D01*
X36427Y107640D01*
X36422Y107621D01*
X36430Y107518D01*
X36433Y107414D01*
X36440Y107395D01*
X36441Y107376D01*
X36482Y107281D01*
X36487Y107266D01*
X36487Y102866D01*
X36482Y102858D01*
X36456Y102757D01*
X36426Y102659D01*
X36427Y102639D01*
X36422Y102619D01*
X36430Y102516D01*
X36432Y102413D01*
X36439Y102394D01*
X36441Y102374D01*
X36481Y102279D01*
X36487Y102263D01*
X36487Y98709D01*
X36499Y98638D01*
X36501Y98567D01*
X36519Y98518D01*
X36527Y98466D01*
X36561Y98403D01*
X36585Y98336D01*
X36618Y98295D01*
X36642Y98249D01*
X36694Y98199D01*
X36739Y98143D01*
X36783Y98115D01*
X36820Y98079D01*
X36885Y98049D01*
X36946Y98010D01*
X36996Y97998D01*
X37043Y97976D01*
X37115Y97968D01*
X37184Y97950D01*
X37236Y97954D01*
X37288Y97949D01*
X37358Y97964D01*
X37429Y97970D01*
X37477Y97990D01*
X37528Y98001D01*
X37590Y98038D01*
X37656Y98066D01*
X37712Y98111D01*
X37739Y98127D01*
X37755Y98145D01*
X37787Y98171D01*
X40551Y100935D01*
X41940Y102324D01*
X41993Y102398D01*
X42053Y102468D01*
X42065Y102498D01*
X42084Y102524D01*
X42111Y102611D01*
X42145Y102696D01*
X42149Y102737D01*
X42156Y102759D01*
X42155Y102791D01*
X42163Y102863D01*
X42163Y114428D01*
X42149Y114518D01*
X42141Y114609D01*
X42129Y114638D01*
X42124Y114670D01*
X42081Y114751D01*
X42045Y114835D01*
X42019Y114867D01*
X42008Y114888D01*
X41985Y114910D01*
X41940Y114966D01*
X41213Y115693D01*
X41213Y146244D01*
X42106Y147137D01*
X56369Y147137D01*
X57276Y146231D01*
X57277Y146222D01*
X57284Y146131D01*
X57297Y146101D01*
X57302Y146069D01*
X57345Y145989D01*
X57380Y145905D01*
X57406Y145873D01*
X57417Y145852D01*
X57440Y145830D01*
X57485Y145774D01*
X57849Y145410D01*
X57849Y102138D01*
X57861Y102067D01*
X57863Y101996D01*
X57881Y101947D01*
X57889Y101895D01*
X57922Y101832D01*
X57947Y101765D01*
X57980Y101724D01*
X58004Y101678D01*
X58056Y101629D01*
X58101Y101573D01*
X58145Y101544D01*
X58182Y101509D01*
X58248Y101478D01*
X58308Y101440D01*
X58358Y101427D01*
X58405Y101405D01*
X58477Y101397D01*
X58546Y101380D01*
X58598Y101384D01*
X58650Y101378D01*
X58720Y101393D01*
X58792Y101399D01*
X58839Y101419D01*
X58890Y101430D01*
X58952Y101467D01*
X59018Y101495D01*
X59074Y101540D01*
X59101Y101556D01*
X59117Y101574D01*
X59149Y101600D01*
X59403Y101854D01*
X59456Y101928D01*
X59515Y101997D01*
X59528Y102027D01*
X59546Y102054D01*
X59573Y102141D01*
X59607Y102225D01*
X59612Y102266D01*
X59619Y102289D01*
X59618Y102321D01*
X59626Y102392D01*
X59626Y156522D01*
X60965Y157862D01*
X75560Y157862D01*
X76899Y156522D01*
X76899Y99065D01*
X75337Y97503D01*
X73972Y96138D01*
X62626Y96138D01*
X62536Y96124D01*
X62445Y96116D01*
X62415Y96104D01*
X62383Y96099D01*
X62302Y96056D01*
X62218Y96020D01*
X62186Y95994D01*
X62166Y95983D01*
X62143Y95960D01*
X62087Y95915D01*
X58263Y92091D01*
X54713Y92091D01*
X54623Y92076D01*
X54532Y92069D01*
X54502Y92056D01*
X54470Y92051D01*
X54389Y92008D01*
X54305Y91973D01*
X54273Y91947D01*
X54252Y91936D01*
X54230Y91913D01*
X54174Y91868D01*
X53743Y91437D01*
X53701Y91379D01*
X53652Y91327D01*
X53630Y91279D01*
X53600Y91237D01*
X53579Y91168D01*
X53548Y91103D01*
X53543Y91052D01*
X53527Y91002D01*
X53529Y90930D01*
X53521Y90859D01*
X53532Y90808D01*
X53534Y90756D01*
X53558Y90689D01*
X53573Y90619D01*
X53600Y90574D01*
X53618Y90525D01*
X53663Y90469D01*
X53700Y90408D01*
X53739Y90374D01*
X53772Y90333D01*
X53832Y90294D01*
X53887Y90248D01*
X53935Y90228D01*
X53979Y90200D01*
X54048Y90183D01*
X54115Y90156D01*
X54186Y90148D01*
X54217Y90140D01*
X54241Y90142D01*
X54281Y90137D01*
X67957Y90137D01*
X68850Y89244D01*
X68850Y83981D01*
X67957Y83088D01*
X59140Y83088D01*
X59050Y83073D01*
X58959Y83066D01*
X58929Y83053D01*
X58897Y83048D01*
X58816Y83005D01*
X58732Y82970D01*
X58700Y82944D01*
X58680Y82933D01*
X58657Y82910D01*
X58601Y82865D01*
X48506Y72770D01*
X48494Y72753D01*
X48479Y72741D01*
X48423Y72654D01*
X48363Y72570D01*
X48357Y72551D01*
X48346Y72534D01*
X48321Y72434D01*
X48290Y72335D01*
X48291Y72315D01*
X48286Y72295D01*
X48294Y72193D01*
X48297Y72089D01*
X48303Y72070D01*
X48305Y72050D01*
X48345Y71955D01*
X48381Y71858D01*
X48394Y71842D01*
X48401Y71824D01*
X48506Y71693D01*
X53839Y66360D01*
X53913Y66307D01*
X53982Y66248D01*
X54012Y66236D01*
X54039Y66217D01*
X54126Y66190D01*
X54210Y66156D01*
X54251Y66151D01*
X54274Y66144D01*
X54306Y66145D01*
X54377Y66137D01*
X67957Y66137D01*
X68850Y65244D01*
X68850Y60613D01*
X68853Y60593D01*
X68851Y60573D01*
X68873Y60472D01*
X68889Y60370D01*
X68899Y60352D01*
X68903Y60333D01*
X68956Y60244D01*
X69005Y60152D01*
X69019Y60139D01*
X69029Y60122D01*
X69108Y60054D01*
X69183Y59983D01*
X69201Y59975D01*
X69216Y59962D01*
X69312Y59923D01*
X69406Y59879D01*
X69426Y59877D01*
X69444Y59870D01*
X69611Y59851D01*
X81612Y59851D01*
X81703Y59866D01*
G37*
G36*
X-67672Y94D02*
X-67672Y94D01*
X-67644Y91D01*
X-67576Y114D01*
X-67505Y128D01*
X-67482Y144D01*
X-67455Y153D01*
X-67400Y200D01*
X-67341Y240D01*
X-67326Y264D01*
X-67305Y283D01*
X-67273Y347D01*
X-67234Y408D01*
X-67229Y436D01*
X-67217Y461D01*
X-67208Y563D01*
X-67201Y604D01*
X-67203Y614D01*
X-67202Y627D01*
X-67259Y1342D01*
X-29780Y1342D01*
X-29668Y1361D01*
X-29554Y1377D01*
X-29546Y1381D01*
X-29537Y1382D01*
X-29437Y1435D01*
X-29334Y1487D01*
X-29328Y1493D01*
X-29320Y1497D01*
X-29241Y1580D01*
X-29161Y1661D01*
X-29157Y1669D01*
X-29151Y1675D01*
X-29102Y1779D01*
X-29052Y1882D01*
X-29050Y1892D01*
X-29047Y1898D01*
X-29045Y1921D01*
X-29021Y2047D01*
X-28886Y3849D01*
X-28889Y3883D01*
X-28884Y3918D01*
X-28900Y4005D01*
X-28907Y4094D01*
X-28921Y4126D01*
X-28928Y4160D01*
X-28962Y4231D01*
X-28819Y4859D01*
X-28817Y4892D01*
X-28802Y4971D01*
X-28754Y5610D01*
X-28713Y5669D01*
X-28656Y5737D01*
X-28643Y5769D01*
X-28624Y5797D01*
X-28568Y5956D01*
X-28078Y8103D01*
X-28076Y8137D01*
X-28066Y8170D01*
X-28069Y8259D01*
X-28063Y8348D01*
X-28072Y8382D01*
X-28073Y8416D01*
X-28097Y8492D01*
X-27862Y9091D01*
X-27855Y9123D01*
X-27828Y9200D01*
X-27686Y9824D01*
X-27636Y9876D01*
X-27570Y9935D01*
X-27552Y9965D01*
X-27528Y9991D01*
X-27450Y10139D01*
X-26646Y12189D01*
X-26639Y12223D01*
X-26624Y12254D01*
X-26613Y12342D01*
X-26594Y12429D01*
X-26598Y12464D01*
X-26594Y12498D01*
X-26606Y12577D01*
X-26284Y13134D01*
X-26272Y13165D01*
X-26235Y13237D01*
X-26001Y13833D01*
X-25944Y13877D01*
X-25870Y13925D01*
X-25848Y13952D01*
X-25821Y13973D01*
X-25721Y14109D01*
X-24620Y16016D01*
X-24608Y16048D01*
X-24589Y16077D01*
X-24565Y16162D01*
X-24533Y16246D01*
X-24532Y16280D01*
X-24523Y16314D01*
X-24523Y16393D01*
X-24122Y16896D01*
X-24105Y16925D01*
X-24057Y16990D01*
X-23737Y17545D01*
X-23675Y17580D01*
X-23594Y17617D01*
X-23569Y17640D01*
X-23538Y17657D01*
X-23420Y17776D01*
X-22047Y19498D01*
X-22030Y19528D01*
X-22007Y19553D01*
X-21970Y19635D01*
X-21927Y19712D01*
X-21920Y19746D01*
X-21906Y19778D01*
X-21894Y19857D01*
X-21423Y20294D01*
X-21402Y20320D01*
X-21345Y20378D01*
X-20946Y20879D01*
X-20879Y20904D01*
X-20793Y20928D01*
X-20765Y20948D01*
X-20732Y20960D01*
X-20598Y21060D01*
X-18983Y22558D01*
X-18962Y22585D01*
X-18935Y22607D01*
X-18887Y22682D01*
X-18833Y22752D01*
X-18821Y22785D01*
X-18802Y22814D01*
X-18779Y22890D01*
X-18247Y23252D01*
X-18223Y23275D01*
X-18158Y23323D01*
X-17689Y23759D01*
X-17619Y23774D01*
X-17531Y23785D01*
X-17499Y23800D01*
X-17465Y23808D01*
X-17317Y23886D01*
X-15498Y25127D01*
X-15473Y25151D01*
X-15443Y25168D01*
X-15384Y25235D01*
X-15320Y25296D01*
X-15304Y25327D01*
X-15281Y25353D01*
X-15247Y25425D01*
X-14667Y25704D01*
X-14640Y25723D01*
X-14568Y25761D01*
X-14039Y26121D01*
X-13967Y26126D01*
X-13879Y26124D01*
X-13845Y26134D01*
X-13811Y26136D01*
X-13653Y26192D01*
X-11669Y27148D01*
X-11640Y27167D01*
X-11608Y27180D01*
X-11540Y27238D01*
X-11467Y27289D01*
X-11447Y27317D01*
X-11420Y27339D01*
X-11376Y27405D01*
X-10761Y27594D01*
X-10731Y27609D01*
X-10655Y27636D01*
X-10078Y27914D01*
X-10006Y27908D01*
X-9919Y27892D01*
X-9884Y27898D01*
X-9850Y27895D01*
X-9685Y27926D01*
X-7581Y28575D01*
X-7550Y28591D01*
X-7516Y28598D01*
X-7440Y28645D01*
X-7361Y28685D01*
X-7336Y28709D01*
X-7307Y28727D01*
X-7253Y28786D01*
X-6616Y28882D01*
X-6585Y28892D01*
X-6505Y28907D01*
X-5893Y29096D01*
X-5824Y29079D01*
X-5739Y29051D01*
X-5705Y29051D01*
X-5671Y29043D01*
X-5503Y29049D01*
X-3326Y29377D01*
X-3293Y29388D01*
X-3258Y29391D01*
X-3177Y29426D01*
X-3092Y29453D01*
X-3064Y29474D01*
X-3032Y29487D01*
X-2970Y29537D01*
X-2656Y29537D01*
X-2566Y29551D01*
X-2475Y29559D01*
X-2445Y29571D01*
X-2413Y29576D01*
X-2332Y29619D01*
X-2248Y29655D01*
X-2216Y29681D01*
X-2196Y29692D01*
X-2173Y29715D01*
X-2117Y29760D01*
X-1140Y30737D01*
X7644Y39521D01*
X7697Y39595D01*
X7756Y39664D01*
X7769Y39694D01*
X7787Y39721D01*
X7814Y39808D01*
X7848Y39892D01*
X7853Y39933D01*
X7860Y39956D01*
X7859Y39988D01*
X7867Y40059D01*
X7867Y43714D01*
X7864Y43734D01*
X7866Y43753D01*
X7844Y43855D01*
X7827Y43957D01*
X7818Y43974D01*
X7813Y43994D01*
X7760Y44083D01*
X7712Y44174D01*
X7698Y44188D01*
X7687Y44205D01*
X7609Y44272D01*
X7534Y44344D01*
X7516Y44352D01*
X7500Y44365D01*
X7404Y44404D01*
X7311Y44447D01*
X7291Y44449D01*
X7272Y44457D01*
X7106Y44475D01*
X3724Y44475D01*
X3717Y44480D01*
X3616Y44505D01*
X3518Y44536D01*
X3498Y44535D01*
X3478Y44540D01*
X3375Y44532D01*
X3272Y44530D01*
X3253Y44523D01*
X3233Y44521D01*
X3138Y44481D01*
X3123Y44475D01*
X-1276Y44475D01*
X-1285Y44481D01*
X-1385Y44506D01*
X-1484Y44536D01*
X-1504Y44536D01*
X-1523Y44541D01*
X-1626Y44533D01*
X-1730Y44530D01*
X-1749Y44523D01*
X-1768Y44522D01*
X-1863Y44481D01*
X-1880Y44475D01*
X-6279Y44475D01*
X-6286Y44480D01*
X-6387Y44505D01*
X-6485Y44536D01*
X-6505Y44535D01*
X-6525Y44540D01*
X-6628Y44532D01*
X-6731Y44530D01*
X-6750Y44523D01*
X-6770Y44521D01*
X-6865Y44481D01*
X-6880Y44475D01*
X-11280Y44475D01*
X-11287Y44480D01*
X-11388Y44505D01*
X-11486Y44536D01*
X-11506Y44535D01*
X-11526Y44540D01*
X-11629Y44532D01*
X-11732Y44530D01*
X-11751Y44523D01*
X-11771Y44521D01*
X-11866Y44481D01*
X-11881Y44475D01*
X-16281Y44475D01*
X-16288Y44480D01*
X-16389Y44505D01*
X-16487Y44536D01*
X-16507Y44535D01*
X-16527Y44540D01*
X-16630Y44532D01*
X-16733Y44530D01*
X-16752Y44523D01*
X-16772Y44521D01*
X-16867Y44481D01*
X-16882Y44475D01*
X-21209Y44475D01*
X-22102Y45368D01*
X-22102Y52132D01*
X-21209Y53025D01*
X-16901Y53025D01*
X-16894Y53020D01*
X-16793Y52994D01*
X-16694Y52964D01*
X-16674Y52965D01*
X-16655Y52960D01*
X-16552Y52968D01*
X-16449Y52970D01*
X-16430Y52977D01*
X-16410Y52979D01*
X-16315Y53019D01*
X-16300Y53025D01*
X-11900Y53025D01*
X-11893Y53020D01*
X-11792Y52994D01*
X-11693Y52964D01*
X-11673Y52965D01*
X-11654Y52960D01*
X-11551Y52968D01*
X-11448Y52970D01*
X-11429Y52977D01*
X-11409Y52979D01*
X-11314Y53019D01*
X-11299Y53025D01*
X-6899Y53025D01*
X-6892Y53020D01*
X-6791Y52994D01*
X-6692Y52964D01*
X-6672Y52965D01*
X-6653Y52960D01*
X-6550Y52968D01*
X-6447Y52970D01*
X-6428Y52977D01*
X-6408Y52979D01*
X-6313Y53019D01*
X-6298Y53025D01*
X-1899Y53025D01*
X-1890Y53019D01*
X-1790Y52994D01*
X-1691Y52964D01*
X-1671Y52964D01*
X-1652Y52959D01*
X-1548Y52967D01*
X-1445Y52970D01*
X-1426Y52977D01*
X-1406Y52978D01*
X-1312Y53019D01*
X-1295Y53025D01*
X3104Y53025D01*
X3111Y53020D01*
X3212Y52994D01*
X3311Y52964D01*
X3331Y52965D01*
X3350Y52960D01*
X3453Y52968D01*
X3556Y52970D01*
X3575Y52977D01*
X3595Y52979D01*
X3690Y53019D01*
X3705Y53025D01*
X8105Y53025D01*
X8112Y53020D01*
X8213Y52994D01*
X8312Y52964D01*
X8332Y52965D01*
X8351Y52960D01*
X8454Y52968D01*
X8557Y52970D01*
X8576Y52977D01*
X8596Y52979D01*
X8691Y53019D01*
X8706Y53025D01*
X13106Y53025D01*
X13113Y53020D01*
X13214Y52994D01*
X13313Y52964D01*
X13333Y52965D01*
X13352Y52960D01*
X13455Y52968D01*
X13558Y52970D01*
X13577Y52977D01*
X13597Y52979D01*
X13692Y53019D01*
X13707Y53025D01*
X18106Y53025D01*
X18115Y53019D01*
X18215Y52994D01*
X18314Y52964D01*
X18334Y52964D01*
X18353Y52959D01*
X18457Y52967D01*
X18560Y52970D01*
X18579Y52977D01*
X18599Y52978D01*
X18693Y53019D01*
X18710Y53025D01*
X23109Y53025D01*
X23116Y53020D01*
X23217Y52994D01*
X23316Y52964D01*
X23336Y52965D01*
X23355Y52960D01*
X23458Y52968D01*
X23561Y52970D01*
X23580Y52977D01*
X23600Y52979D01*
X23695Y53019D01*
X23710Y53025D01*
X27177Y53025D01*
X27196Y53028D01*
X27216Y53026D01*
X27317Y53048D01*
X27419Y53064D01*
X27437Y53074D01*
X27456Y53078D01*
X27545Y53131D01*
X27637Y53180D01*
X27650Y53194D01*
X27667Y53204D01*
X27735Y53283D01*
X27806Y53358D01*
X27814Y53376D01*
X27827Y53391D01*
X27866Y53487D01*
X27910Y53581D01*
X27912Y53601D01*
X27919Y53619D01*
X27938Y53786D01*
X27938Y57233D01*
X27943Y57241D01*
X27968Y57341D01*
X27998Y57440D01*
X27998Y57460D01*
X28003Y57479D01*
X27995Y57583D01*
X27992Y57686D01*
X27985Y57705D01*
X27984Y57725D01*
X27943Y57819D01*
X27938Y57834D01*
X27938Y62234D01*
X27943Y62242D01*
X27969Y62343D01*
X27999Y62442D01*
X27998Y62462D01*
X28003Y62481D01*
X27995Y62584D01*
X27993Y62687D01*
X27986Y62706D01*
X27984Y62726D01*
X27944Y62821D01*
X27938Y62837D01*
X27938Y67236D01*
X27943Y67244D01*
X27968Y67344D01*
X27998Y67443D01*
X27998Y67463D01*
X28003Y67482D01*
X27995Y67586D01*
X27992Y67689D01*
X27985Y67708D01*
X27984Y67728D01*
X27943Y67822D01*
X27938Y67837D01*
X27938Y72237D01*
X27943Y72245D01*
X27968Y72345D01*
X27998Y72444D01*
X27998Y72464D01*
X28003Y72483D01*
X27995Y72587D01*
X27992Y72690D01*
X27985Y72709D01*
X27984Y72729D01*
X27943Y72823D01*
X27938Y72838D01*
X27938Y77238D01*
X27943Y77246D01*
X27968Y77346D01*
X27998Y77445D01*
X27998Y77465D01*
X28003Y77484D01*
X27995Y77587D01*
X27992Y77691D01*
X27985Y77710D01*
X27984Y77729D01*
X27943Y77824D01*
X27938Y77839D01*
X27938Y82239D01*
X27943Y82247D01*
X27969Y82348D01*
X27999Y82447D01*
X27998Y82467D01*
X28003Y82486D01*
X27995Y82589D01*
X27993Y82692D01*
X27986Y82711D01*
X27984Y82731D01*
X27944Y82826D01*
X27938Y82842D01*
X27938Y84401D01*
X27923Y84491D01*
X27916Y84582D01*
X27903Y84611D01*
X27898Y84643D01*
X27876Y84685D01*
X27876Y96293D01*
X27885Y96323D01*
X27919Y96408D01*
X27924Y96449D01*
X27931Y96471D01*
X27930Y96503D01*
X27938Y96575D01*
X27938Y97243D01*
X27943Y97251D01*
X27968Y97351D01*
X27998Y97450D01*
X27998Y97470D01*
X28003Y97489D01*
X27995Y97593D01*
X27992Y97696D01*
X27985Y97715D01*
X27984Y97735D01*
X27943Y97829D01*
X27938Y97844D01*
X27938Y102244D01*
X27943Y102252D01*
X27969Y102353D01*
X27999Y102452D01*
X27998Y102472D01*
X28003Y102491D01*
X27995Y102594D01*
X27993Y102697D01*
X27986Y102716D01*
X27984Y102736D01*
X27944Y102831D01*
X27938Y102847D01*
X27938Y107246D01*
X27943Y107254D01*
X27968Y107354D01*
X27998Y107453D01*
X27998Y107473D01*
X28003Y107492D01*
X27995Y107596D01*
X27992Y107699D01*
X27985Y107718D01*
X27984Y107738D01*
X27943Y107832D01*
X27938Y107847D01*
X27938Y111314D01*
X27935Y111334D01*
X27937Y111353D01*
X27915Y111455D01*
X27898Y111557D01*
X27889Y111574D01*
X27884Y111594D01*
X27831Y111683D01*
X27783Y111774D01*
X27769Y111788D01*
X27758Y111805D01*
X27680Y111872D01*
X27605Y111944D01*
X27587Y111952D01*
X27571Y111965D01*
X27475Y112004D01*
X27382Y112047D01*
X27362Y112049D01*
X27343Y112057D01*
X27177Y112075D01*
X23729Y112075D01*
X23722Y112080D01*
X23621Y112105D01*
X23523Y112136D01*
X23503Y112135D01*
X23483Y112140D01*
X23380Y112132D01*
X23277Y112130D01*
X23258Y112123D01*
X23238Y112121D01*
X23143Y112081D01*
X23128Y112075D01*
X18729Y112075D01*
X18720Y112081D01*
X18620Y112106D01*
X18521Y112136D01*
X18501Y112136D01*
X18482Y112141D01*
X18378Y112133D01*
X18275Y112130D01*
X18256Y112123D01*
X18236Y112122D01*
X18142Y112081D01*
X18125Y112075D01*
X13726Y112075D01*
X13719Y112080D01*
X13618Y112106D01*
X13519Y112136D01*
X13499Y112135D01*
X13480Y112140D01*
X13377Y112132D01*
X13274Y112130D01*
X13255Y112123D01*
X13235Y112121D01*
X13140Y112081D01*
X13125Y112075D01*
X8725Y112075D01*
X8718Y112080D01*
X8617Y112106D01*
X8518Y112136D01*
X8498Y112135D01*
X8479Y112140D01*
X8376Y112132D01*
X8273Y112130D01*
X8254Y112123D01*
X8234Y112121D01*
X8139Y112081D01*
X8124Y112075D01*
X3724Y112075D01*
X3717Y112080D01*
X3616Y112106D01*
X3517Y112136D01*
X3497Y112135D01*
X3478Y112140D01*
X3375Y112132D01*
X3272Y112130D01*
X3253Y112123D01*
X3233Y112121D01*
X3138Y112081D01*
X3123Y112075D01*
X-1276Y112075D01*
X-1285Y112081D01*
X-1385Y112106D01*
X-1484Y112136D01*
X-1504Y112136D01*
X-1523Y112141D01*
X-1627Y112133D01*
X-1730Y112130D01*
X-1749Y112123D01*
X-1769Y112122D01*
X-1863Y112081D01*
X-1880Y112075D01*
X-6279Y112075D01*
X-6286Y112080D01*
X-6387Y112106D01*
X-6486Y112136D01*
X-6506Y112135D01*
X-6525Y112140D01*
X-6628Y112132D01*
X-6731Y112130D01*
X-6750Y112123D01*
X-6770Y112121D01*
X-6865Y112081D01*
X-6880Y112075D01*
X-11280Y112075D01*
X-11287Y112080D01*
X-11388Y112106D01*
X-11487Y112136D01*
X-11507Y112135D01*
X-11526Y112140D01*
X-11629Y112132D01*
X-11732Y112130D01*
X-11751Y112123D01*
X-11771Y112121D01*
X-11866Y112081D01*
X-11881Y112075D01*
X-16281Y112075D01*
X-16288Y112080D01*
X-16389Y112106D01*
X-16488Y112136D01*
X-16508Y112135D01*
X-16527Y112140D01*
X-16630Y112132D01*
X-16733Y112130D01*
X-16752Y112123D01*
X-16772Y112121D01*
X-16867Y112081D01*
X-16882Y112075D01*
X-21281Y112075D01*
X-21290Y112081D01*
X-21390Y112106D01*
X-21489Y112136D01*
X-21509Y112136D01*
X-21528Y112141D01*
X-21632Y112133D01*
X-21735Y112130D01*
X-21754Y112123D01*
X-21774Y112122D01*
X-21868Y112081D01*
X-21885Y112075D01*
X-26284Y112075D01*
X-26291Y112080D01*
X-26392Y112106D01*
X-26491Y112136D01*
X-26511Y112135D01*
X-26530Y112140D01*
X-26633Y112132D01*
X-26736Y112130D01*
X-26755Y112123D01*
X-26775Y112121D01*
X-26870Y112081D01*
X-26885Y112075D01*
X-30352Y112075D01*
X-30371Y112072D01*
X-30391Y112074D01*
X-30492Y112052D01*
X-30594Y112036D01*
X-30612Y112026D01*
X-30631Y112022D01*
X-30720Y111969D01*
X-30812Y111920D01*
X-30825Y111906D01*
X-30842Y111896D01*
X-30910Y111817D01*
X-30981Y111742D01*
X-30989Y111724D01*
X-31002Y111709D01*
X-31041Y111613D01*
X-31085Y111519D01*
X-31087Y111499D01*
X-31094Y111481D01*
X-31113Y111314D01*
X-31113Y107867D01*
X-31118Y107859D01*
X-31143Y107759D01*
X-31173Y107660D01*
X-31173Y107640D01*
X-31178Y107621D01*
X-31170Y107517D01*
X-31167Y107414D01*
X-31160Y107395D01*
X-31159Y107375D01*
X-31118Y107281D01*
X-31113Y107266D01*
X-31113Y102866D01*
X-31118Y102858D01*
X-31144Y102757D01*
X-31174Y102658D01*
X-31173Y102638D01*
X-31178Y102619D01*
X-31170Y102516D01*
X-31168Y102413D01*
X-31161Y102394D01*
X-31159Y102374D01*
X-31119Y102279D01*
X-31113Y102263D01*
X-31113Y97864D01*
X-31118Y97856D01*
X-31143Y97756D01*
X-31173Y97657D01*
X-31173Y97637D01*
X-31178Y97618D01*
X-31170Y97514D01*
X-31167Y97411D01*
X-31160Y97392D01*
X-31159Y97372D01*
X-31118Y97278D01*
X-31113Y97263D01*
X-31113Y92863D01*
X-31118Y92855D01*
X-31143Y92755D01*
X-31173Y92656D01*
X-31173Y92636D01*
X-31178Y92617D01*
X-31170Y92513D01*
X-31167Y92410D01*
X-31160Y92391D01*
X-31159Y92371D01*
X-31118Y92277D01*
X-31113Y92262D01*
X-31113Y87862D01*
X-31118Y87854D01*
X-31143Y87754D01*
X-31173Y87655D01*
X-31173Y87635D01*
X-31178Y87616D01*
X-31170Y87512D01*
X-31167Y87409D01*
X-31160Y87390D01*
X-31159Y87370D01*
X-31118Y87276D01*
X-31113Y87261D01*
X-31113Y82934D01*
X-32006Y82040D01*
X-33771Y82040D01*
X-33861Y82026D01*
X-33953Y82018D01*
X-33982Y82006D01*
X-34004Y82002D01*
X-49864Y82002D01*
X-49884Y81999D01*
X-49903Y82001D01*
X-50005Y81979D01*
X-50107Y81963D01*
X-50124Y81953D01*
X-50144Y81949D01*
X-50233Y81896D01*
X-50324Y81847D01*
X-50338Y81833D01*
X-50355Y81823D01*
X-50422Y81744D01*
X-50494Y81669D01*
X-50502Y81651D01*
X-50515Y81636D01*
X-50554Y81540D01*
X-50597Y81446D01*
X-50599Y81426D01*
X-50607Y81408D01*
X-50625Y81241D01*
X-50625Y80156D01*
X-51518Y79263D01*
X-53380Y79263D01*
X-53445Y79252D01*
X-53510Y79252D01*
X-53590Y79228D01*
X-53623Y79223D01*
X-53640Y79214D01*
X-53671Y79205D01*
X-55584Y78413D01*
X-58716Y78413D01*
X-60629Y79205D01*
X-60692Y79220D01*
X-60753Y79244D01*
X-60836Y79253D01*
X-60868Y79261D01*
X-60887Y79259D01*
X-60920Y79263D01*
X-62782Y79263D01*
X-63684Y80165D01*
X-63698Y80230D01*
X-63714Y80332D01*
X-63724Y80349D01*
X-63728Y80369D01*
X-63781Y80458D01*
X-63830Y80549D01*
X-63844Y80563D01*
X-63854Y80580D01*
X-63933Y80647D01*
X-64008Y80719D01*
X-64026Y80727D01*
X-64041Y80740D01*
X-64137Y80779D01*
X-64231Y80822D01*
X-64251Y80824D01*
X-64269Y80832D01*
X-64436Y80850D01*
X-79569Y80850D01*
X-80462Y81743D01*
X-80462Y84557D01*
X-80465Y84577D01*
X-80463Y84596D01*
X-80485Y84698D01*
X-80502Y84800D01*
X-80511Y84817D01*
X-80516Y84837D01*
X-80569Y84926D01*
X-80617Y85017D01*
X-80631Y85031D01*
X-80642Y85048D01*
X-80720Y85115D01*
X-80795Y85187D01*
X-80813Y85195D01*
X-80829Y85208D01*
X-80925Y85247D01*
X-81018Y85290D01*
X-81038Y85292D01*
X-81057Y85300D01*
X-81223Y85318D01*
X-88909Y85318D01*
X-88999Y85304D01*
X-89090Y85296D01*
X-89119Y85284D01*
X-89151Y85279D01*
X-89232Y85236D01*
X-89316Y85200D01*
X-89348Y85174D01*
X-89369Y85163D01*
X-89391Y85140D01*
X-89447Y85095D01*
X-90191Y84351D01*
X-93959Y84351D01*
X-96624Y87016D01*
X-96624Y90784D01*
X-93959Y93449D01*
X-90191Y93449D01*
X-89397Y92655D01*
X-89323Y92602D01*
X-89253Y92542D01*
X-89223Y92530D01*
X-89197Y92511D01*
X-89110Y92484D01*
X-89025Y92450D01*
X-88984Y92446D01*
X-88962Y92439D01*
X-88930Y92440D01*
X-88859Y92432D01*
X-81223Y92432D01*
X-81204Y92435D01*
X-81184Y92433D01*
X-81083Y92455D01*
X-80981Y92471D01*
X-80963Y92481D01*
X-80944Y92485D01*
X-80855Y92538D01*
X-80763Y92587D01*
X-80750Y92601D01*
X-80733Y92611D01*
X-80665Y92690D01*
X-80594Y92765D01*
X-80586Y92783D01*
X-80573Y92798D01*
X-80534Y92894D01*
X-80490Y92988D01*
X-80488Y93008D01*
X-80481Y93026D01*
X-80462Y93193D01*
X-80462Y95559D01*
X-80465Y95578D01*
X-80463Y95598D01*
X-80485Y95699D01*
X-80502Y95801D01*
X-80511Y95819D01*
X-80516Y95838D01*
X-80569Y95927D01*
X-80617Y96019D01*
X-80631Y96032D01*
X-80642Y96049D01*
X-80720Y96117D01*
X-80795Y96188D01*
X-80813Y96196D01*
X-80829Y96209D01*
X-80925Y96248D01*
X-81018Y96292D01*
X-81038Y96294D01*
X-81057Y96301D01*
X-81223Y96320D01*
X-102141Y96320D01*
X-102231Y96305D01*
X-102322Y96298D01*
X-102352Y96285D01*
X-102384Y96280D01*
X-102464Y96237D01*
X-102548Y96202D01*
X-102580Y96176D01*
X-102601Y96165D01*
X-102623Y96142D01*
X-102679Y96097D01*
X-105887Y92889D01*
X-105945Y92808D01*
X-106009Y92730D01*
X-106017Y92708D01*
X-106031Y92689D01*
X-106060Y92594D01*
X-106095Y92500D01*
X-106096Y92476D01*
X-106103Y92454D01*
X-106100Y92354D01*
X-106104Y92254D01*
X-106097Y92231D01*
X-106097Y92208D01*
X-106062Y92114D01*
X-106034Y92018D01*
X-106018Y91994D01*
X-106012Y91977D01*
X-105991Y91951D01*
X-105944Y91876D01*
X-105562Y91396D01*
X-105552Y91325D01*
X-105547Y91236D01*
X-105535Y91204D01*
X-105530Y91170D01*
X-105462Y91016D01*
X-104361Y89107D01*
X-104339Y89080D01*
X-104324Y89049D01*
X-104261Y88985D01*
X-104205Y88917D01*
X-104176Y88898D01*
X-104152Y88873D01*
X-104083Y88834D01*
X-103848Y88235D01*
X-103831Y88206D01*
X-103798Y88132D01*
X-103478Y87577D01*
X-103479Y87505D01*
X-103488Y87417D01*
X-103480Y87383D01*
X-103481Y87349D01*
X-103437Y87187D01*
X-102632Y85135D01*
X-102615Y85105D01*
X-102604Y85072D01*
X-102552Y85000D01*
X-102507Y84923D01*
X-102480Y84900D01*
X-102460Y84872D01*
X-102398Y84823D01*
X-102255Y84196D01*
X-102243Y84165D01*
X-102221Y84087D01*
X-101988Y83491D01*
X-101999Y83420D01*
X-102021Y83334D01*
X-102018Y83299D01*
X-102024Y83265D01*
X-102005Y83098D01*
X-101515Y80949D01*
X-101502Y80917D01*
X-101497Y80883D01*
X-101456Y80804D01*
X-101422Y80721D01*
X-101400Y80695D01*
X-101384Y80664D01*
X-101330Y80606D01*
X-101282Y79964D01*
X-101274Y79932D01*
X-101265Y79852D01*
X-101123Y79227D01*
X-101144Y79159D01*
X-101179Y79077D01*
X-101182Y79042D01*
X-101192Y79009D01*
X-101198Y78842D01*
X-101034Y76644D01*
X-101026Y76610D01*
X-101026Y76575D01*
X-100998Y76493D01*
X-100983Y76426D01*
X-100980Y76421D01*
X-100976Y76405D01*
X-100958Y76375D01*
X-100947Y76342D01*
X-100902Y76277D01*
X-100950Y75635D01*
X-100947Y75602D01*
X-100950Y75521D01*
X-100903Y74883D01*
X-100934Y74818D01*
X-100981Y74742D01*
X-100989Y74709D01*
X-101004Y74678D01*
X-101035Y74513D01*
X-101200Y72315D01*
X-101197Y72280D01*
X-101202Y72246D01*
X-101187Y72158D01*
X-101179Y72070D01*
X-101165Y72038D01*
X-101159Y72004D01*
X-101124Y71932D01*
X-101268Y71305D01*
X-101270Y71272D01*
X-101285Y71192D01*
X-101333Y70554D01*
X-101374Y70495D01*
X-101431Y70427D01*
X-101444Y70395D01*
X-101463Y70366D01*
X-101519Y70208D01*
X-102010Y68059D01*
X-102012Y68024D01*
X-102022Y67991D01*
X-102019Y67902D01*
X-102025Y67813D01*
X-102016Y67780D01*
X-102015Y67745D01*
X-101992Y67669D01*
X-102227Y67070D01*
X-102234Y67038D01*
X-102234Y67037D01*
X-102245Y67015D01*
X-102246Y67004D01*
X-102260Y66962D01*
X-102403Y66337D01*
X-102452Y66285D01*
X-102519Y66226D01*
X-102536Y66196D01*
X-102560Y66171D01*
X-102638Y66023D01*
X-103444Y63971D01*
X-103452Y63937D01*
X-103467Y63906D01*
X-103477Y63818D01*
X-103496Y63731D01*
X-103492Y63696D01*
X-103496Y63662D01*
X-103485Y63583D01*
X-103807Y63026D01*
X-103818Y62995D01*
X-103856Y62924D01*
X-104090Y62328D01*
X-104147Y62283D01*
X-104221Y62235D01*
X-104243Y62208D01*
X-104270Y62187D01*
X-104370Y62052D01*
X-104622Y61614D01*
X-104656Y61525D01*
X-104696Y61438D01*
X-104699Y61410D01*
X-104709Y61384D01*
X-104713Y61289D01*
X-104723Y61194D01*
X-104717Y61167D01*
X-104718Y61138D01*
X-104691Y61047D01*
X-104671Y60954D01*
X-104657Y60929D01*
X-104649Y60903D01*
X-104594Y60825D01*
X-104545Y60743D01*
X-104524Y60724D01*
X-104507Y60701D01*
X-104431Y60645D01*
X-104358Y60583D01*
X-104332Y60572D01*
X-104309Y60555D01*
X-104219Y60526D01*
X-104130Y60491D01*
X-104095Y60487D01*
X-104075Y60481D01*
X-104042Y60481D01*
X-103963Y60472D01*
X-54820Y60472D01*
X-54730Y60487D01*
X-54639Y60494D01*
X-54609Y60507D01*
X-54577Y60512D01*
X-54496Y60555D01*
X-54413Y60590D01*
X-54380Y60616D01*
X-54360Y60627D01*
X-54338Y60650D01*
X-54282Y60695D01*
X-50516Y64461D01*
X-50463Y64535D01*
X-50403Y64604D01*
X-50391Y64635D01*
X-50372Y64661D01*
X-50345Y64748D01*
X-50311Y64833D01*
X-50307Y64874D01*
X-50300Y64896D01*
X-50301Y64928D01*
X-50293Y64999D01*
X-50293Y70560D01*
X-42756Y78097D01*
X-33987Y78097D01*
X-33938Y78077D01*
X-33897Y78073D01*
X-33875Y78066D01*
X-33843Y78067D01*
X-33771Y78059D01*
X-32006Y78059D01*
X-31113Y77165D01*
X-31113Y72858D01*
X-31118Y72850D01*
X-31143Y72750D01*
X-31173Y72651D01*
X-31173Y72631D01*
X-31178Y72612D01*
X-31170Y72508D01*
X-31167Y72405D01*
X-31160Y72386D01*
X-31159Y72366D01*
X-31118Y72272D01*
X-31113Y72257D01*
X-31113Y67857D01*
X-31118Y67849D01*
X-31143Y67749D01*
X-31173Y67650D01*
X-31173Y67630D01*
X-31178Y67611D01*
X-31170Y67507D01*
X-31167Y67404D01*
X-31160Y67385D01*
X-31159Y67365D01*
X-31118Y67271D01*
X-31113Y67256D01*
X-31113Y62856D01*
X-31118Y62848D01*
X-31144Y62747D01*
X-31174Y62648D01*
X-31173Y62628D01*
X-31178Y62609D01*
X-31170Y62506D01*
X-31168Y62403D01*
X-31161Y62384D01*
X-31159Y62364D01*
X-31119Y62269D01*
X-31113Y62253D01*
X-31113Y57927D01*
X-32006Y57033D01*
X-38772Y57033D01*
X-38836Y57079D01*
X-38905Y57139D01*
X-38936Y57151D01*
X-38962Y57170D01*
X-39049Y57197D01*
X-39134Y57231D01*
X-39175Y57235D01*
X-39197Y57242D01*
X-39229Y57241D01*
X-39300Y57249D01*
X-39521Y57249D01*
X-39611Y57235D01*
X-39702Y57227D01*
X-39731Y57215D01*
X-39763Y57210D01*
X-39844Y57167D01*
X-39928Y57131D01*
X-39960Y57105D01*
X-39981Y57094D01*
X-40003Y57071D01*
X-40059Y57026D01*
X-46665Y50420D01*
X-46718Y50346D01*
X-46777Y50277D01*
X-46790Y50247D01*
X-46808Y50221D01*
X-46835Y50134D01*
X-46869Y50049D01*
X-46874Y50008D01*
X-46881Y49986D01*
X-46880Y49953D01*
X-46888Y49882D01*
X-46888Y41493D01*
X-47781Y40600D01*
X-59044Y40600D01*
X-59937Y41493D01*
X-59937Y53614D01*
X-59940Y53633D01*
X-59938Y53653D01*
X-59960Y53754D01*
X-59977Y53856D01*
X-59986Y53874D01*
X-59991Y53893D01*
X-60044Y53982D01*
X-60092Y54074D01*
X-60106Y54087D01*
X-60117Y54104D01*
X-60195Y54172D01*
X-60270Y54243D01*
X-60288Y54251D01*
X-60304Y54264D01*
X-60400Y54303D01*
X-60493Y54347D01*
X-60513Y54349D01*
X-60532Y54356D01*
X-60698Y54375D01*
X-63127Y54375D01*
X-63146Y54372D01*
X-63166Y54374D01*
X-63267Y54352D01*
X-63369Y54335D01*
X-63387Y54326D01*
X-63406Y54321D01*
X-63495Y54268D01*
X-63587Y54220D01*
X-63600Y54206D01*
X-63617Y54195D01*
X-63685Y54117D01*
X-63756Y54042D01*
X-63764Y54024D01*
X-63777Y54008D01*
X-63816Y53912D01*
X-63860Y53819D01*
X-63862Y53799D01*
X-63869Y53780D01*
X-63888Y53614D01*
X-63888Y41493D01*
X-64781Y40600D01*
X-66857Y40600D01*
X-66876Y40597D01*
X-66896Y40599D01*
X-66997Y40577D01*
X-67099Y40561D01*
X-67117Y40551D01*
X-67136Y40547D01*
X-67225Y40494D01*
X-67317Y40445D01*
X-67330Y40431D01*
X-67347Y40421D01*
X-67415Y40342D01*
X-67486Y40267D01*
X-67494Y40249D01*
X-67507Y40234D01*
X-67546Y40138D01*
X-67590Y40044D01*
X-67592Y40024D01*
X-67599Y40006D01*
X-67618Y39839D01*
X-67618Y36960D01*
X-67603Y36870D01*
X-67596Y36779D01*
X-67583Y36750D01*
X-67578Y36718D01*
X-67535Y36637D01*
X-67500Y36553D01*
X-67474Y36521D01*
X-67463Y36500D01*
X-67440Y36478D01*
X-67395Y36422D01*
X-63979Y33006D01*
X-63905Y32953D01*
X-63835Y32893D01*
X-63805Y32881D01*
X-63779Y32862D01*
X-63692Y32836D01*
X-63607Y32801D01*
X-63566Y32797D01*
X-63544Y32790D01*
X-63512Y32791D01*
X-63440Y32783D01*
X-61275Y32783D01*
X-58611Y30118D01*
X-58611Y26350D01*
X-61275Y23686D01*
X-65043Y23686D01*
X-67708Y26350D01*
X-67708Y28515D01*
X-67723Y28605D01*
X-67730Y28696D01*
X-67743Y28726D01*
X-67748Y28758D01*
X-67790Y28839D01*
X-67826Y28923D01*
X-67852Y28955D01*
X-67863Y28975D01*
X-67886Y28998D01*
X-67931Y29054D01*
X-73207Y34330D01*
X-73207Y39839D01*
X-73210Y39859D01*
X-73208Y39878D01*
X-73230Y39980D01*
X-73247Y40082D01*
X-73256Y40099D01*
X-73261Y40119D01*
X-73314Y40208D01*
X-73362Y40299D01*
X-73376Y40313D01*
X-73387Y40330D01*
X-73465Y40397D01*
X-73540Y40469D01*
X-73558Y40477D01*
X-73574Y40490D01*
X-73670Y40529D01*
X-73763Y40572D01*
X-73783Y40574D01*
X-73802Y40582D01*
X-73968Y40600D01*
X-76044Y40600D01*
X-76937Y41493D01*
X-76937Y53614D01*
X-76940Y53633D01*
X-76938Y53653D01*
X-76960Y53754D01*
X-76977Y53856D01*
X-76986Y53874D01*
X-76991Y53893D01*
X-77044Y53982D01*
X-77092Y54074D01*
X-77106Y54087D01*
X-77117Y54104D01*
X-77195Y54172D01*
X-77270Y54243D01*
X-77288Y54251D01*
X-77304Y54264D01*
X-77400Y54303D01*
X-77493Y54347D01*
X-77513Y54349D01*
X-77532Y54356D01*
X-77698Y54375D01*
X-101119Y54375D01*
X-101209Y54360D01*
X-101300Y54353D01*
X-101330Y54340D01*
X-101362Y54335D01*
X-101442Y54292D01*
X-101526Y54257D01*
X-101558Y54231D01*
X-101579Y54220D01*
X-101601Y54197D01*
X-101657Y54152D01*
X-104275Y51534D01*
X-104328Y51460D01*
X-104388Y51390D01*
X-104400Y51360D01*
X-104419Y51334D01*
X-104446Y51247D01*
X-104480Y51162D01*
X-104484Y51121D01*
X-104491Y51099D01*
X-104490Y51067D01*
X-104498Y50995D01*
X-104498Y49189D01*
X-107163Y46525D01*
X-111031Y46525D01*
X-111125Y46509D01*
X-111220Y46501D01*
X-111246Y46490D01*
X-111274Y46485D01*
X-111358Y46440D01*
X-111445Y46402D01*
X-111466Y46383D01*
X-111491Y46370D01*
X-111557Y46301D01*
X-111627Y46237D01*
X-111641Y46212D01*
X-111661Y46192D01*
X-111701Y46105D01*
X-111747Y46022D01*
X-111752Y45994D01*
X-111764Y45969D01*
X-111775Y45874D01*
X-111792Y45780D01*
X-111788Y45752D01*
X-111791Y45724D01*
X-111771Y45631D01*
X-111758Y45537D01*
X-111744Y45504D01*
X-111739Y45484D01*
X-111722Y45455D01*
X-111690Y45383D01*
X-95786Y17835D01*
X-96414Y17539D01*
X-96436Y17522D01*
X-96463Y17512D01*
X-96515Y17463D01*
X-96573Y17420D01*
X-96587Y17395D01*
X-96608Y17375D01*
X-96637Y17310D01*
X-96673Y17248D01*
X-96676Y17220D01*
X-96688Y17193D01*
X-96689Y17121D01*
X-96698Y17051D01*
X-96690Y17023D01*
X-96691Y16994D01*
X-96655Y16900D01*
X-96644Y16859D01*
X-96637Y16851D01*
X-96633Y16838D01*
X-87133Y338D01*
X-87081Y280D01*
X-87035Y217D01*
X-87016Y206D01*
X-87001Y189D01*
X-86931Y156D01*
X-86864Y116D01*
X-86840Y112D01*
X-86822Y103D01*
X-86777Y101D01*
X-86700Y88D01*
X-67700Y88D01*
X-67672Y94D01*
G37*
G36*
X-110412Y97262D02*
X-110412Y97262D01*
X-110294Y97269D01*
X-110289Y97272D01*
X-110283Y97272D01*
X-110223Y97298D01*
X-110212Y97299D01*
X-110184Y97314D01*
X-110176Y97318D01*
X-110066Y97362D01*
X-110062Y97366D01*
X-110057Y97368D01*
X-110008Y97407D01*
X-109995Y97415D01*
X-109980Y97430D01*
X-109926Y97473D01*
X-106991Y100408D01*
X-104982Y102417D01*
X-76457Y102417D01*
X-76387Y102429D01*
X-76315Y102431D01*
X-76266Y102449D01*
X-76215Y102457D01*
X-76151Y102490D01*
X-76084Y102515D01*
X-76043Y102548D01*
X-75997Y102572D01*
X-75948Y102624D01*
X-75892Y102669D01*
X-75864Y102713D01*
X-75828Y102750D01*
X-75798Y102815D01*
X-75759Y102876D01*
X-75746Y102926D01*
X-75724Y102973D01*
X-75716Y103045D01*
X-75699Y103114D01*
X-75703Y103166D01*
X-75697Y103218D01*
X-75712Y103288D01*
X-75718Y103360D01*
X-75738Y103407D01*
X-75749Y103458D01*
X-75786Y103520D01*
X-75814Y103586D01*
X-75859Y103642D01*
X-75876Y103669D01*
X-75893Y103685D01*
X-75919Y103717D01*
X-76324Y104121D01*
X-97772Y125570D01*
X-97846Y125623D01*
X-97916Y125682D01*
X-97946Y125695D01*
X-97972Y125713D01*
X-98059Y125740D01*
X-98144Y125774D01*
X-98185Y125779D01*
X-98207Y125786D01*
X-98239Y125785D01*
X-98310Y125793D01*
X-112332Y125793D01*
X-112351Y125790D01*
X-112371Y125792D01*
X-112472Y125770D01*
X-112562Y125755D01*
X-112574Y125753D01*
X-112592Y125744D01*
X-112611Y125739D01*
X-112700Y125686D01*
X-112770Y125649D01*
X-112782Y125643D01*
X-112792Y125638D01*
X-112805Y125624D01*
X-112822Y125613D01*
X-112890Y125535D01*
X-112929Y125493D01*
X-112954Y125468D01*
X-112955Y125466D01*
X-112961Y125460D01*
X-112969Y125442D01*
X-112982Y125426D01*
X-112998Y125388D01*
X-113035Y125321D01*
X-114485Y121820D01*
X-117057Y119247D01*
X-120419Y117855D01*
X-124056Y117855D01*
X-127418Y119247D01*
X-129990Y121820D01*
X-131382Y125181D01*
X-131382Y128819D01*
X-129990Y132180D01*
X-127418Y134753D01*
X-124056Y136145D01*
X-120419Y136145D01*
X-117057Y134753D01*
X-114485Y132180D01*
X-114349Y131852D01*
X-114288Y131753D01*
X-114228Y131653D01*
X-114223Y131648D01*
X-114220Y131643D01*
X-114130Y131569D01*
X-114041Y131493D01*
X-114035Y131490D01*
X-114030Y131486D01*
X-113922Y131445D01*
X-113813Y131401D01*
X-113805Y131400D01*
X-113800Y131398D01*
X-113782Y131397D01*
X-113646Y131382D01*
X-95680Y131382D01*
X-93820Y129522D01*
X-74999Y110702D01*
X-74941Y110660D01*
X-74889Y110610D01*
X-74842Y110588D01*
X-74800Y110558D01*
X-74731Y110537D01*
X-74666Y110507D01*
X-74614Y110501D01*
X-74564Y110486D01*
X-74493Y110488D01*
X-74422Y110480D01*
X-74371Y110491D01*
X-74319Y110492D01*
X-74251Y110517D01*
X-74181Y110532D01*
X-74137Y110559D01*
X-74088Y110577D01*
X-74032Y110621D01*
X-73970Y110658D01*
X-73936Y110698D01*
X-73896Y110730D01*
X-73857Y110791D01*
X-73810Y110845D01*
X-73791Y110893D01*
X-73763Y110937D01*
X-73745Y111007D01*
X-73718Y111073D01*
X-73710Y111145D01*
X-73702Y111176D01*
X-73704Y111199D01*
X-73700Y111240D01*
X-73700Y118645D01*
X-73714Y118735D01*
X-73722Y118826D01*
X-73734Y118855D01*
X-73739Y118887D01*
X-73782Y118968D01*
X-73818Y119052D01*
X-73844Y119084D01*
X-73855Y119105D01*
X-73878Y119127D01*
X-73923Y119183D01*
X-104122Y149382D01*
X-104196Y149435D01*
X-104266Y149495D01*
X-104296Y149507D01*
X-104322Y149526D01*
X-104409Y149553D01*
X-104494Y149587D01*
X-104535Y149591D01*
X-104557Y149598D01*
X-104589Y149597D01*
X-104660Y149605D01*
X-112988Y149605D01*
X-113103Y149586D01*
X-113219Y149569D01*
X-113225Y149567D01*
X-113231Y149566D01*
X-113334Y149511D01*
X-113438Y149458D01*
X-113443Y149453D01*
X-113448Y149450D01*
X-113528Y149366D01*
X-113611Y149282D01*
X-113614Y149276D01*
X-113618Y149272D01*
X-113626Y149255D01*
X-113692Y149135D01*
X-114485Y147220D01*
X-117057Y144647D01*
X-120419Y143255D01*
X-124056Y143255D01*
X-127418Y144647D01*
X-129990Y147220D01*
X-131382Y150581D01*
X-131382Y154219D01*
X-129990Y157580D01*
X-127418Y160153D01*
X-124056Y161545D01*
X-120419Y161545D01*
X-117057Y160153D01*
X-114485Y157580D01*
X-113692Y155665D01*
X-113630Y155565D01*
X-113570Y155465D01*
X-113565Y155461D01*
X-113562Y155456D01*
X-113471Y155381D01*
X-113383Y155305D01*
X-113377Y155303D01*
X-113373Y155299D01*
X-113264Y155257D01*
X-113155Y155213D01*
X-113147Y155212D01*
X-113143Y155211D01*
X-113125Y155210D01*
X-112988Y155195D01*
X-102030Y155195D01*
X-67320Y120485D01*
X-67246Y120432D01*
X-67177Y120373D01*
X-67147Y120360D01*
X-67121Y120342D01*
X-67034Y120315D01*
X-66949Y120281D01*
X-66908Y120276D01*
X-66886Y120269D01*
X-66853Y120270D01*
X-66782Y120262D01*
X-62482Y120262D01*
X-62462Y120265D01*
X-62442Y120263D01*
X-62341Y120285D01*
X-62239Y120302D01*
X-62221Y120311D01*
X-62202Y120316D01*
X-62113Y120369D01*
X-62022Y120417D01*
X-62008Y120431D01*
X-61991Y120442D01*
X-61923Y120520D01*
X-61852Y120595D01*
X-61844Y120613D01*
X-61831Y120629D01*
X-61792Y120725D01*
X-61749Y120818D01*
X-61746Y120838D01*
X-61739Y120857D01*
X-61721Y121023D01*
X-61721Y124100D01*
X-59056Y126764D01*
X-55288Y126764D01*
X-54413Y125890D01*
X-54339Y125837D01*
X-54270Y125778D01*
X-54240Y125765D01*
X-54214Y125747D01*
X-54127Y125720D01*
X-54042Y125686D01*
X-54001Y125681D01*
X-53979Y125674D01*
X-53946Y125675D01*
X-53875Y125667D01*
X-26887Y125667D01*
X-25175Y123956D01*
X-23264Y122045D01*
X-22065Y120845D01*
X-22049Y120834D01*
X-22036Y120818D01*
X-21956Y120767D01*
X-21919Y120735D01*
X-21901Y120728D01*
X-21865Y120702D01*
X-21846Y120696D01*
X-21829Y120685D01*
X-21739Y120662D01*
X-21691Y120643D01*
X-21665Y120640D01*
X-21630Y120630D01*
X-21610Y120630D01*
X-21591Y120625D01*
X-21554Y120628D01*
X-21524Y120625D01*
X-17900Y120625D01*
X-17881Y120628D01*
X-17861Y120626D01*
X-17760Y120648D01*
X-17658Y120664D01*
X-17640Y120674D01*
X-17621Y120678D01*
X-17532Y120731D01*
X-17440Y120780D01*
X-17427Y120794D01*
X-17410Y120804D01*
X-17342Y120883D01*
X-17271Y120958D01*
X-17263Y120976D01*
X-17250Y120991D01*
X-17211Y121087D01*
X-17167Y121181D01*
X-17165Y121201D01*
X-17158Y121219D01*
X-17139Y121386D01*
X-17139Y122050D01*
X-17154Y122140D01*
X-17161Y122231D01*
X-17174Y122261D01*
X-17179Y122293D01*
X-17222Y122373D01*
X-17257Y122457D01*
X-17283Y122489D01*
X-17294Y122510D01*
X-17317Y122532D01*
X-17362Y122588D01*
X-28853Y134079D01*
X-28927Y134132D01*
X-28996Y134191D01*
X-29026Y134204D01*
X-29053Y134222D01*
X-29140Y134249D01*
X-29224Y134283D01*
X-29265Y134288D01*
X-29288Y134295D01*
X-29320Y134294D01*
X-29391Y134302D01*
X-58342Y134302D01*
X-95230Y171190D01*
X-95230Y201391D01*
X-95245Y201481D01*
X-95252Y201572D01*
X-95265Y201602D01*
X-95270Y201634D01*
X-95313Y201714D01*
X-95348Y201798D01*
X-95374Y201830D01*
X-95385Y201851D01*
X-95408Y201873D01*
X-95453Y201929D01*
X-104110Y210586D01*
X-104205Y210654D01*
X-104302Y210725D01*
X-104306Y210727D01*
X-104309Y210729D01*
X-104421Y210763D01*
X-104536Y210800D01*
X-104541Y210800D01*
X-104544Y210801D01*
X-104663Y210798D01*
X-104782Y210797D01*
X-104786Y210795D01*
X-104790Y210795D01*
X-104902Y210754D01*
X-105014Y210715D01*
X-105017Y210712D01*
X-105021Y210711D01*
X-105115Y210636D01*
X-105208Y210563D01*
X-105211Y210559D01*
X-105213Y210557D01*
X-105221Y210545D01*
X-105307Y210428D01*
X-105462Y210159D01*
X-105475Y210126D01*
X-105494Y210098D01*
X-105518Y210012D01*
X-105549Y209929D01*
X-105551Y209894D01*
X-105560Y209861D01*
X-105560Y209781D01*
X-105961Y209278D01*
X-105977Y209249D01*
X-106025Y209184D01*
X-106345Y208629D01*
X-106407Y208594D01*
X-106488Y208557D01*
X-106514Y208534D01*
X-106544Y208517D01*
X-106662Y208398D01*
X-108036Y206674D01*
X-108053Y206644D01*
X-108076Y206618D01*
X-108113Y206537D01*
X-108156Y206459D01*
X-108163Y206425D01*
X-108177Y206394D01*
X-108188Y206315D01*
X-108660Y205877D01*
X-108680Y205851D01*
X-108737Y205794D01*
X-109137Y205293D01*
X-109203Y205267D01*
X-109289Y205243D01*
X-109318Y205224D01*
X-109350Y205211D01*
X-109485Y205111D01*
X-111100Y203612D01*
X-111121Y203584D01*
X-111148Y203563D01*
X-111181Y203511D01*
X-111191Y203502D01*
X-111198Y203486D01*
X-111251Y203417D01*
X-111262Y203385D01*
X-111281Y203355D01*
X-111304Y203280D01*
X-111836Y202917D01*
X-111860Y202894D01*
X-111925Y202846D01*
X-112394Y202410D01*
X-112464Y202395D01*
X-112553Y202384D01*
X-112584Y202369D01*
X-112618Y202361D01*
X-112766Y202283D01*
X-114587Y201040D01*
X-114612Y201016D01*
X-114642Y200999D01*
X-114700Y200932D01*
X-114765Y200871D01*
X-114781Y200840D01*
X-114804Y200814D01*
X-114838Y200742D01*
X-115418Y200463D01*
X-115445Y200444D01*
X-115516Y200406D01*
X-116045Y200045D01*
X-116117Y200040D01*
X-116206Y200042D01*
X-116239Y200032D01*
X-116274Y200030D01*
X-116432Y199974D01*
X-118417Y199017D01*
X-118446Y198997D01*
X-118478Y198985D01*
X-118546Y198927D01*
X-118619Y198876D01*
X-118639Y198848D01*
X-118666Y198826D01*
X-118710Y198760D01*
X-119325Y198570D01*
X-119355Y198555D01*
X-119431Y198529D01*
X-120008Y198250D01*
X-120080Y198256D01*
X-120167Y198272D01*
X-120201Y198267D01*
X-120236Y198270D01*
X-120401Y198238D01*
X-122507Y197588D01*
X-122538Y197572D01*
X-122572Y197564D01*
X-122648Y197518D01*
X-122727Y197478D01*
X-122751Y197454D01*
X-122781Y197435D01*
X-122835Y197377D01*
X-123471Y197281D01*
X-123503Y197271D01*
X-123582Y197256D01*
X-124194Y197067D01*
X-124264Y197083D01*
X-124348Y197111D01*
X-124383Y197111D01*
X-124417Y197119D01*
X-124584Y197113D01*
X-126764Y196784D01*
X-126797Y196773D01*
X-126831Y196770D01*
X-126913Y196735D01*
X-126998Y196708D01*
X-127026Y196687D01*
X-127058Y196674D01*
X-127119Y196624D01*
X-127763Y196624D01*
X-127796Y196619D01*
X-127877Y196616D01*
X-128510Y196520D01*
X-128576Y196547D01*
X-128655Y196587D01*
X-128690Y196592D01*
X-128722Y196605D01*
X-128889Y196624D01*
X-131093Y196623D01*
X-131127Y196617D01*
X-131162Y196620D01*
X-131248Y196598D01*
X-131335Y196583D01*
X-131366Y196567D01*
X-131400Y196558D01*
X-131468Y196518D01*
X-132105Y196614D01*
X-132138Y196614D01*
X-132218Y196623D01*
X-132859Y196622D01*
X-132921Y196659D01*
X-132993Y196711D01*
X-133026Y196721D01*
X-133056Y196738D01*
X-133218Y196782D01*
X-135398Y197109D01*
X-135432Y197109D01*
X-135466Y197116D01*
X-135555Y197107D01*
X-135643Y197106D01*
X-135676Y197095D01*
X-135711Y197091D01*
X-135784Y197062D01*
X-136400Y197251D01*
X-136432Y197256D01*
X-136511Y197277D01*
X-137144Y197372D01*
X-137200Y197417D01*
X-137263Y197479D01*
X-137294Y197494D01*
X-137321Y197516D01*
X-137475Y197583D01*
X-139582Y198232D01*
X-139616Y198237D01*
X-139648Y198249D01*
X-139737Y198253D01*
X-139825Y198265D01*
X-139859Y198259D01*
X-139894Y198261D01*
X-139971Y198243D01*
X-140551Y198522D01*
X-140583Y198531D01*
X-140657Y198563D01*
X-141269Y198752D01*
X-141318Y198805D01*
X-141371Y198876D01*
X-141400Y198895D01*
X-141423Y198921D01*
X-141566Y199010D01*
X-143204Y199798D01*
X-143313Y199830D01*
X-143423Y199865D01*
X-143432Y199865D01*
X-143440Y199868D01*
X-143554Y199863D01*
X-143669Y199862D01*
X-143677Y199859D01*
X-143686Y199858D01*
X-143793Y199818D01*
X-143901Y199780D01*
X-143908Y199774D01*
X-143916Y199771D01*
X-144005Y199698D01*
X-144094Y199628D01*
X-144101Y199620D01*
X-144106Y199615D01*
X-144119Y199595D01*
X-144194Y199493D01*
X-162908Y167078D01*
X-163516Y167498D01*
X-163543Y167510D01*
X-163565Y167528D01*
X-163634Y167549D01*
X-163699Y167576D01*
X-163728Y167577D01*
X-163756Y167585D01*
X-163827Y167577D01*
X-163898Y167577D01*
X-163925Y167566D01*
X-163954Y167563D01*
X-164016Y167528D01*
X-164081Y167500D01*
X-164102Y167479D01*
X-164127Y167465D01*
X-164190Y167388D01*
X-164220Y167357D01*
X-164224Y167347D01*
X-164233Y167337D01*
X-173733Y150837D01*
X-173757Y150764D01*
X-173788Y150693D01*
X-173788Y150670D01*
X-173796Y150648D01*
X-173790Y150571D01*
X-173791Y150494D01*
X-173781Y150470D01*
X-173780Y150450D01*
X-173759Y150410D01*
X-173740Y150358D01*
X-173739Y150353D01*
X-173737Y150351D01*
X-173733Y150338D01*
X-164233Y133838D01*
X-164214Y133817D01*
X-164201Y133790D01*
X-164148Y133743D01*
X-164101Y133689D01*
X-164075Y133677D01*
X-164054Y133657D01*
X-163986Y133634D01*
X-163922Y133603D01*
X-163893Y133602D01*
X-163866Y133593D01*
X-163794Y133597D01*
X-163723Y133594D01*
X-163696Y133604D01*
X-163667Y133606D01*
X-163577Y133649D01*
X-163537Y133663D01*
X-163529Y133671D01*
X-163516Y133677D01*
X-162908Y134097D01*
X-144194Y101682D01*
X-144121Y101593D01*
X-144051Y101503D01*
X-144044Y101499D01*
X-144038Y101492D01*
X-143941Y101431D01*
X-143846Y101368D01*
X-143837Y101366D01*
X-143830Y101361D01*
X-143718Y101334D01*
X-143608Y101305D01*
X-143599Y101306D01*
X-143590Y101303D01*
X-143477Y101314D01*
X-143363Y101321D01*
X-143353Y101325D01*
X-143345Y101325D01*
X-143324Y101335D01*
X-143204Y101377D01*
X-141566Y102165D01*
X-141537Y102185D01*
X-141505Y102198D01*
X-141437Y102255D01*
X-141364Y102306D01*
X-141344Y102334D01*
X-141317Y102357D01*
X-141272Y102422D01*
X-140657Y102612D01*
X-140628Y102626D01*
X-140617Y102628D01*
X-140605Y102634D01*
X-140551Y102653D01*
X-139974Y102931D01*
X-139903Y102925D01*
X-139815Y102909D01*
X-139781Y102915D01*
X-139747Y102912D01*
X-139582Y102943D01*
X-137475Y103592D01*
X-137444Y103608D01*
X-137410Y103615D01*
X-137335Y103662D01*
X-137255Y103702D01*
X-137230Y103726D01*
X-137201Y103744D01*
X-137147Y103803D01*
X-136511Y103898D01*
X-136479Y103908D01*
X-136400Y103924D01*
X-135788Y104112D01*
X-135718Y104096D01*
X-135634Y104067D01*
X-135599Y104067D01*
X-135565Y104059D01*
X-135398Y104066D01*
X-133218Y104393D01*
X-133185Y104404D01*
X-133150Y104407D01*
X-133068Y104442D01*
X-132984Y104469D01*
X-132956Y104489D01*
X-132924Y104503D01*
X-132862Y104553D01*
X-132218Y104552D01*
X-132186Y104558D01*
X-132105Y104561D01*
X-131472Y104656D01*
X-131405Y104629D01*
X-131326Y104589D01*
X-131292Y104584D01*
X-131259Y104571D01*
X-131093Y104552D01*
X-128889Y104551D01*
X-128854Y104557D01*
X-128820Y104554D01*
X-128734Y104577D01*
X-128646Y104591D01*
X-128615Y104607D01*
X-128582Y104616D01*
X-128513Y104656D01*
X-127877Y104559D01*
X-127843Y104560D01*
X-127763Y104551D01*
X-127123Y104551D01*
X-127061Y104514D01*
X-126989Y104462D01*
X-126956Y104452D01*
X-126926Y104435D01*
X-126764Y104391D01*
X-124584Y104062D01*
X-124550Y104063D01*
X-124516Y104055D01*
X-124427Y104064D01*
X-124338Y104065D01*
X-124305Y104077D01*
X-124271Y104080D01*
X-124197Y104109D01*
X-123582Y103919D01*
X-123550Y103915D01*
X-123471Y103894D01*
X-122838Y103798D01*
X-122783Y103753D01*
X-122719Y103691D01*
X-122688Y103676D01*
X-122661Y103654D01*
X-122507Y103587D01*
X-120401Y102937D01*
X-120366Y102932D01*
X-120334Y102920D01*
X-120245Y102915D01*
X-120157Y102903D01*
X-120123Y102910D01*
X-120088Y102908D01*
X-120011Y102926D01*
X-119431Y102646D01*
X-119400Y102637D01*
X-119325Y102605D01*
X-118713Y102416D01*
X-118665Y102363D01*
X-118611Y102292D01*
X-118583Y102272D01*
X-118559Y102247D01*
X-118417Y102158D01*
X-116432Y101201D01*
X-116399Y101191D01*
X-116368Y101174D01*
X-116281Y101156D01*
X-116196Y101131D01*
X-116161Y101133D01*
X-116127Y101126D01*
X-116048Y101132D01*
X-115516Y100769D01*
X-115486Y100755D01*
X-115418Y100712D01*
X-114841Y100434D01*
X-114801Y100374D01*
X-114759Y100296D01*
X-114733Y100273D01*
X-114714Y100244D01*
X-114587Y100135D01*
X-112766Y98892D01*
X-112734Y98878D01*
X-112707Y98856D01*
X-112624Y98826D01*
X-112543Y98789D01*
X-112508Y98785D01*
X-112476Y98773D01*
X-112397Y98767D01*
X-111925Y98329D01*
X-111898Y98311D01*
X-111836Y98258D01*
X-111307Y97897D01*
X-111277Y97832D01*
X-111246Y97749D01*
X-111225Y97722D01*
X-111210Y97690D01*
X-111100Y97563D01*
X-110982Y97454D01*
X-110977Y97450D01*
X-110974Y97446D01*
X-110910Y97405D01*
X-110869Y97370D01*
X-110836Y97357D01*
X-110777Y97318D01*
X-110772Y97316D01*
X-110767Y97313D01*
X-110662Y97287D01*
X-110641Y97278D01*
X-110622Y97276D01*
X-110540Y97254D01*
X-110534Y97254D01*
X-110528Y97253D01*
X-110412Y97262D01*
G37*
G36*
X102256Y85959D02*
X102256Y85959D01*
X102274Y85957D01*
X102377Y85979D01*
X102480Y85996D01*
X102496Y86005D01*
X102515Y86009D01*
X102605Y86063D01*
X102697Y86112D01*
X102710Y86125D01*
X102726Y86135D01*
X102794Y86214D01*
X102866Y86290D01*
X102876Y86311D01*
X102886Y86322D01*
X102898Y86351D01*
X102944Y86439D01*
X103237Y87187D01*
X103244Y87221D01*
X103259Y87252D01*
X103270Y87340D01*
X103289Y87427D01*
X103285Y87462D01*
X103289Y87496D01*
X103277Y87575D01*
X103598Y88132D01*
X103610Y88163D01*
X103648Y88235D01*
X103882Y88831D01*
X103938Y88875D01*
X104013Y88923D01*
X104034Y88950D01*
X104062Y88972D01*
X104161Y89107D01*
X105262Y91016D01*
X105275Y91049D01*
X105294Y91077D01*
X105318Y91163D01*
X105349Y91246D01*
X105351Y91281D01*
X105360Y91314D01*
X105360Y91394D01*
X105761Y91897D01*
X105777Y91926D01*
X105825Y91991D01*
X106145Y92546D01*
X106207Y92581D01*
X106288Y92618D01*
X106314Y92641D01*
X106344Y92658D01*
X106462Y92777D01*
X107836Y94501D01*
X107851Y94528D01*
X107870Y94548D01*
X107872Y94552D01*
X107876Y94557D01*
X107913Y94638D01*
X107956Y94716D01*
X107962Y94745D01*
X107974Y94771D01*
X107974Y94776D01*
X107977Y94781D01*
X107988Y94860D01*
X108460Y95298D01*
X108480Y95324D01*
X108537Y95381D01*
X108937Y95882D01*
X109003Y95908D01*
X109089Y95932D01*
X109118Y95951D01*
X109150Y95964D01*
X109285Y96064D01*
X110900Y97563D01*
X110921Y97591D01*
X110948Y97612D01*
X110996Y97687D01*
X111051Y97758D01*
X111062Y97790D01*
X111081Y97820D01*
X111104Y97895D01*
X111636Y98258D01*
X111660Y98281D01*
X111725Y98329D01*
X112194Y98765D01*
X112264Y98780D01*
X112353Y98791D01*
X112384Y98806D01*
X112418Y98814D01*
X112566Y98892D01*
X114387Y100135D01*
X114412Y100159D01*
X114442Y100176D01*
X114500Y100243D01*
X114565Y100304D01*
X114581Y100335D01*
X114604Y100361D01*
X114638Y100433D01*
X115218Y100712D01*
X115245Y100731D01*
X115316Y100769D01*
X115845Y101130D01*
X115917Y101135D01*
X116006Y101133D01*
X116039Y101143D01*
X116074Y101145D01*
X116232Y101201D01*
X118217Y102158D01*
X118246Y102178D01*
X118278Y102190D01*
X118346Y102248D01*
X118419Y102299D01*
X118439Y102327D01*
X118466Y102349D01*
X118510Y102415D01*
X119125Y102605D01*
X119155Y102620D01*
X119179Y102628D01*
X119180Y102628D01*
X119181Y102629D01*
X119231Y102646D01*
X119808Y102925D01*
X119880Y102919D01*
X119967Y102903D01*
X120001Y102908D01*
X120036Y102905D01*
X120201Y102937D01*
X122307Y103587D01*
X122338Y103603D01*
X122372Y103611D01*
X122448Y103657D01*
X122527Y103697D01*
X122551Y103721D01*
X122581Y103740D01*
X122635Y103798D01*
X123271Y103894D01*
X123303Y103904D01*
X123382Y103919D01*
X123994Y104108D01*
X124064Y104092D01*
X124148Y104064D01*
X124183Y104064D01*
X124217Y104056D01*
X124384Y104062D01*
X126564Y104391D01*
X126597Y104402D01*
X126631Y104405D01*
X126713Y104440D01*
X126798Y104467D01*
X126826Y104488D01*
X126858Y104501D01*
X126919Y104551D01*
X127563Y104551D01*
X127596Y104556D01*
X127677Y104559D01*
X128310Y104655D01*
X128376Y104628D01*
X128455Y104588D01*
X128490Y104583D01*
X128522Y104570D01*
X128689Y104551D01*
X130893Y104552D01*
X130927Y104558D01*
X130962Y104555D01*
X131048Y104577D01*
X131135Y104592D01*
X131166Y104608D01*
X131200Y104617D01*
X131268Y104657D01*
X131905Y104561D01*
X131938Y104561D01*
X132018Y104552D01*
X132659Y104553D01*
X132721Y104516D01*
X132793Y104464D01*
X132826Y104454D01*
X132856Y104437D01*
X133018Y104393D01*
X135198Y104066D01*
X135232Y104066D01*
X135266Y104059D01*
X135355Y104068D01*
X135443Y104069D01*
X135476Y104080D01*
X135511Y104084D01*
X135584Y104113D01*
X136200Y103924D01*
X136232Y103919D01*
X136311Y103898D01*
X136944Y103803D01*
X137000Y103758D01*
X137063Y103696D01*
X137094Y103681D01*
X137121Y103659D01*
X137275Y103592D01*
X139382Y102943D01*
X139416Y102938D01*
X139448Y102926D01*
X139537Y102922D01*
X139625Y102910D01*
X139659Y102916D01*
X139694Y102914D01*
X139771Y102932D01*
X140351Y102653D01*
X140383Y102644D01*
X140457Y102612D01*
X141069Y102423D01*
X141118Y102370D01*
X141171Y102299D01*
X141200Y102280D01*
X141223Y102254D01*
X141366Y102165D01*
X143004Y101377D01*
X143113Y101345D01*
X143223Y101310D01*
X143232Y101310D01*
X143240Y101307D01*
X143354Y101312D01*
X143469Y101313D01*
X143477Y101316D01*
X143486Y101317D01*
X143593Y101357D01*
X143701Y101395D01*
X143708Y101401D01*
X143716Y101404D01*
X143805Y101477D01*
X143894Y101547D01*
X143901Y101556D01*
X143906Y101560D01*
X143918Y101580D01*
X143994Y101682D01*
X162708Y134097D01*
X163316Y133677D01*
X163343Y133665D01*
X163365Y133647D01*
X163434Y133627D01*
X163499Y133599D01*
X163528Y133598D01*
X163556Y133590D01*
X163627Y133598D01*
X163698Y133598D01*
X163725Y133609D01*
X163754Y133612D01*
X163816Y133648D01*
X163881Y133675D01*
X163902Y133696D01*
X163927Y133710D01*
X163990Y133787D01*
X164020Y133818D01*
X164024Y133828D01*
X164033Y133838D01*
X173533Y150338D01*
X173543Y150370D01*
X173552Y150383D01*
X173556Y150408D01*
X173557Y150411D01*
X173588Y150482D01*
X173588Y150505D01*
X173596Y150527D01*
X173590Y150604D01*
X173591Y150681D01*
X173581Y150705D01*
X173580Y150725D01*
X173559Y150765D01*
X173533Y150837D01*
X164033Y167337D01*
X164014Y167358D01*
X164001Y167385D01*
X163948Y167432D01*
X163901Y167486D01*
X163875Y167498D01*
X163854Y167518D01*
X163786Y167541D01*
X163722Y167572D01*
X163693Y167573D01*
X163666Y167582D01*
X163594Y167578D01*
X163523Y167581D01*
X163496Y167571D01*
X163467Y167569D01*
X163377Y167526D01*
X163337Y167512D01*
X163329Y167504D01*
X163316Y167498D01*
X162708Y167078D01*
X143994Y199493D01*
X143921Y199582D01*
X143851Y199672D01*
X143844Y199676D01*
X143838Y199683D01*
X143741Y199744D01*
X143646Y199807D01*
X143637Y199809D01*
X143630Y199814D01*
X143518Y199841D01*
X143408Y199870D01*
X143399Y199869D01*
X143390Y199872D01*
X143277Y199861D01*
X143163Y199854D01*
X143153Y199850D01*
X143145Y199850D01*
X143124Y199840D01*
X143004Y199798D01*
X141366Y199010D01*
X141337Y198990D01*
X141305Y198977D01*
X141237Y198920D01*
X141164Y198869D01*
X141144Y198841D01*
X141117Y198818D01*
X141072Y198753D01*
X140457Y198563D01*
X140428Y198549D01*
X140351Y198522D01*
X139774Y198244D01*
X139703Y198250D01*
X139615Y198266D01*
X139581Y198260D01*
X139547Y198263D01*
X139382Y198232D01*
X137275Y197583D01*
X137244Y197567D01*
X137210Y197560D01*
X137135Y197513D01*
X137055Y197473D01*
X137030Y197449D01*
X137001Y197431D01*
X136947Y197372D01*
X136311Y197277D01*
X136279Y197267D01*
X136200Y197251D01*
X135588Y197063D01*
X135518Y197079D01*
X135434Y197108D01*
X135399Y197108D01*
X135365Y197116D01*
X135198Y197109D01*
X133018Y196782D01*
X132985Y196771D01*
X132950Y196768D01*
X132868Y196733D01*
X132784Y196706D01*
X132756Y196686D01*
X132724Y196672D01*
X132662Y196622D01*
X132018Y196623D01*
X131986Y196617D01*
X131905Y196614D01*
X131272Y196519D01*
X131205Y196546D01*
X131126Y196586D01*
X131092Y196591D01*
X131059Y196604D01*
X130893Y196623D01*
X128689Y196624D01*
X128654Y196618D01*
X128620Y196621D01*
X128534Y196598D01*
X128446Y196584D01*
X128415Y196568D01*
X128382Y196559D01*
X128313Y196519D01*
X127724Y196608D01*
X127647Y196607D01*
X127571Y196616D01*
X127525Y196606D01*
X127478Y196605D01*
X127405Y196580D01*
X127330Y196564D01*
X127290Y196540D01*
X127246Y196524D01*
X127185Y196477D01*
X127119Y196437D01*
X127089Y196402D01*
X127051Y196373D01*
X127009Y196309D01*
X126959Y196251D01*
X126942Y196207D01*
X126916Y196168D01*
X126896Y196094D01*
X126867Y196022D01*
X126860Y195960D01*
X126852Y195930D01*
X126854Y195904D01*
X126849Y195856D01*
X126849Y171750D01*
X101697Y146598D01*
X101644Y146524D01*
X101584Y146454D01*
X101572Y146424D01*
X101553Y146398D01*
X101526Y146311D01*
X101492Y146226D01*
X101488Y146185D01*
X101481Y146163D01*
X101482Y146131D01*
X101474Y146059D01*
X101474Y86717D01*
X101491Y86614D01*
X101502Y86510D01*
X101510Y86493D01*
X101513Y86474D01*
X101562Y86382D01*
X101607Y86287D01*
X101620Y86273D01*
X101629Y86257D01*
X101704Y86185D01*
X101777Y86109D01*
X101793Y86100D01*
X101807Y86087D01*
X101902Y86043D01*
X101994Y85995D01*
X102013Y85992D01*
X102030Y85984D01*
X102134Y85972D01*
X102237Y85956D01*
X102256Y85959D01*
G37*
%LPC*%
G36*
X-32119Y157050D02*
X-32119Y157050D01*
X-33012Y157943D01*
X-33012Y166207D01*
X-32119Y167100D01*
X-27459Y167100D01*
X-27369Y167114D01*
X-27278Y167122D01*
X-27248Y167134D01*
X-27216Y167139D01*
X-27135Y167182D01*
X-27051Y167218D01*
X-27019Y167244D01*
X-26999Y167255D01*
X-26976Y167278D01*
X-26920Y167323D01*
X-6971Y187272D01*
X2285Y187272D01*
X2304Y187275D01*
X2324Y187273D01*
X2425Y187295D01*
X2527Y187312D01*
X2545Y187321D01*
X2564Y187326D01*
X2653Y187379D01*
X2745Y187427D01*
X2758Y187441D01*
X2775Y187452D01*
X2843Y187530D01*
X2914Y187605D01*
X2922Y187623D01*
X2935Y187639D01*
X2974Y187735D01*
X3018Y187828D01*
X3020Y187848D01*
X3027Y187867D01*
X3046Y188033D01*
X3046Y189791D01*
X5710Y192455D01*
X9479Y192455D01*
X12245Y189689D01*
X12261Y189677D01*
X12274Y189662D01*
X12361Y189606D01*
X12445Y189545D01*
X12464Y189540D01*
X12481Y189529D01*
X12581Y189503D01*
X12680Y189473D01*
X12700Y189474D01*
X12719Y189469D01*
X12822Y189477D01*
X12926Y189479D01*
X12945Y189486D01*
X12964Y189488D01*
X13059Y189528D01*
X13060Y189528D01*
X16929Y189528D01*
X18799Y187658D01*
X18816Y187647D01*
X18828Y187631D01*
X18915Y187575D01*
X18999Y187515D01*
X19018Y187509D01*
X19035Y187498D01*
X19135Y187473D01*
X19234Y187443D01*
X19254Y187443D01*
X19274Y187438D01*
X19376Y187446D01*
X19480Y187449D01*
X19499Y187456D01*
X19519Y187457D01*
X19614Y187498D01*
X19711Y187533D01*
X19727Y187546D01*
X19745Y187554D01*
X19876Y187658D01*
X21498Y189280D01*
X25266Y189280D01*
X27931Y186616D01*
X27931Y184389D01*
X27934Y184370D01*
X27932Y184350D01*
X27954Y184249D01*
X27970Y184147D01*
X27980Y184129D01*
X27984Y184110D01*
X28037Y184021D01*
X28086Y183929D01*
X28100Y183916D01*
X28110Y183899D01*
X28189Y183831D01*
X28264Y183760D01*
X28282Y183752D01*
X28297Y183739D01*
X28393Y183700D01*
X28487Y183656D01*
X28507Y183654D01*
X28525Y183647D01*
X28692Y183628D01*
X30139Y183628D01*
X30159Y183631D01*
X30178Y183629D01*
X30280Y183651D01*
X30382Y183668D01*
X30399Y183677D01*
X30419Y183682D01*
X30508Y183735D01*
X30599Y183783D01*
X30613Y183797D01*
X30630Y183808D01*
X30697Y183886D01*
X30769Y183961D01*
X30777Y183979D01*
X30790Y183995D01*
X30829Y184091D01*
X30872Y184184D01*
X30874Y184204D01*
X30882Y184223D01*
X30900Y184389D01*
X30900Y185719D01*
X31793Y186612D01*
X38057Y186612D01*
X38950Y185719D01*
X38950Y184897D01*
X38953Y184878D01*
X38951Y184858D01*
X38973Y184757D01*
X38989Y184655D01*
X38999Y184637D01*
X39003Y184618D01*
X39056Y184529D01*
X39105Y184437D01*
X39119Y184424D01*
X39129Y184407D01*
X39208Y184339D01*
X39283Y184268D01*
X39301Y184260D01*
X39316Y184247D01*
X39412Y184208D01*
X39506Y184164D01*
X39526Y184162D01*
X39544Y184155D01*
X39711Y184136D01*
X42828Y184136D01*
X42847Y184139D01*
X42867Y184137D01*
X42968Y184159D01*
X43070Y184176D01*
X43088Y184185D01*
X43107Y184190D01*
X43196Y184243D01*
X43288Y184291D01*
X43301Y184305D01*
X43318Y184316D01*
X43386Y184394D01*
X43457Y184469D01*
X43465Y184487D01*
X43478Y184503D01*
X43517Y184598D01*
X43561Y184692D01*
X43563Y184712D01*
X43570Y184731D01*
X43589Y184897D01*
X43589Y184965D01*
X46253Y187629D01*
X48778Y187629D01*
X48868Y187644D01*
X48959Y187651D01*
X48989Y187664D01*
X49021Y187669D01*
X49101Y187712D01*
X49185Y187747D01*
X49217Y187773D01*
X49238Y187784D01*
X49260Y187807D01*
X49316Y187852D01*
X60552Y199088D01*
X60922Y199088D01*
X61012Y199103D01*
X61103Y199110D01*
X61133Y199123D01*
X61165Y199128D01*
X61245Y199171D01*
X61329Y199206D01*
X61361Y199232D01*
X61382Y199243D01*
X61404Y199266D01*
X61460Y199311D01*
X65499Y203350D01*
X65552Y203424D01*
X65611Y203493D01*
X65624Y203523D01*
X65642Y203550D01*
X65669Y203637D01*
X65703Y203721D01*
X65708Y203762D01*
X65715Y203785D01*
X65714Y203817D01*
X65722Y203888D01*
X65722Y238680D01*
X65707Y238770D01*
X65700Y238861D01*
X65687Y238891D01*
X65682Y238923D01*
X65639Y239003D01*
X65604Y239087D01*
X65578Y239119D01*
X65567Y239140D01*
X65544Y239162D01*
X65499Y239218D01*
X63714Y241003D01*
X63714Y244772D01*
X66378Y247436D01*
X66548Y247436D01*
X66568Y247439D01*
X66587Y247437D01*
X66689Y247459D01*
X66791Y247476D01*
X66808Y247485D01*
X66828Y247490D01*
X66917Y247543D01*
X67008Y247591D01*
X67022Y247605D01*
X67039Y247616D01*
X67106Y247694D01*
X67178Y247769D01*
X67186Y247787D01*
X67199Y247803D01*
X67238Y247899D01*
X67281Y247992D01*
X67283Y248012D01*
X67291Y248031D01*
X67309Y248197D01*
X67309Y248530D01*
X67295Y248620D01*
X67287Y248711D01*
X67275Y248741D01*
X67270Y248773D01*
X67227Y248853D01*
X67191Y248937D01*
X67165Y248969D01*
X67154Y248990D01*
X67131Y249012D01*
X67086Y249068D01*
X65301Y250853D01*
X65301Y254622D01*
X67966Y257286D01*
X71734Y257286D01*
X74399Y254622D01*
X74399Y250853D01*
X73617Y250071D01*
X73605Y250055D01*
X73590Y250043D01*
X73534Y249956D01*
X73473Y249872D01*
X73468Y249853D01*
X73457Y249836D01*
X73431Y249736D01*
X73401Y249637D01*
X73402Y249617D01*
X73397Y249597D01*
X73405Y249494D01*
X73407Y249391D01*
X73414Y249372D01*
X73416Y249352D01*
X73456Y249257D01*
X73492Y249160D01*
X73504Y249144D01*
X73512Y249126D01*
X73594Y249023D01*
X73597Y249019D01*
X73600Y249016D01*
X73617Y248995D01*
X74656Y247956D01*
X76367Y246245D01*
X76367Y195124D01*
X62985Y181742D01*
X62932Y181668D01*
X62873Y181599D01*
X62860Y181569D01*
X62842Y181542D01*
X62815Y181455D01*
X62781Y181371D01*
X62776Y181330D01*
X62769Y181307D01*
X62770Y181275D01*
X62762Y181204D01*
X62762Y176456D01*
X61869Y175563D01*
X57840Y175563D01*
X57750Y175548D01*
X57659Y175541D01*
X57629Y175528D01*
X57597Y175523D01*
X57516Y175480D01*
X57432Y175445D01*
X57400Y175419D01*
X57380Y175408D01*
X57357Y175385D01*
X57301Y175340D01*
X53020Y171059D01*
X51012Y169050D01*
X50676Y169050D01*
X50586Y169035D01*
X50495Y169028D01*
X50465Y169016D01*
X50433Y169010D01*
X50352Y168968D01*
X50268Y168932D01*
X50236Y168906D01*
X50216Y168895D01*
X50193Y168872D01*
X50137Y168827D01*
X48860Y167550D01*
X45092Y167550D01*
X43307Y169335D01*
X43233Y169388D01*
X43164Y169448D01*
X43133Y169460D01*
X43107Y169479D01*
X43020Y169505D01*
X42935Y169540D01*
X42895Y169544D01*
X42872Y169551D01*
X42840Y169550D01*
X42769Y169558D01*
X37966Y169558D01*
X37876Y169543D01*
X37785Y169536D01*
X37756Y169524D01*
X37724Y169518D01*
X37643Y169476D01*
X37559Y169440D01*
X37527Y169414D01*
X37506Y169403D01*
X37484Y169380D01*
X37428Y169335D01*
X35823Y167730D01*
X35770Y167656D01*
X35710Y167586D01*
X35698Y167556D01*
X35679Y167530D01*
X35652Y167443D01*
X35618Y167358D01*
X35614Y167317D01*
X35607Y167295D01*
X35608Y167263D01*
X35600Y167191D01*
X35600Y158443D01*
X34707Y157550D01*
X22443Y157550D01*
X21550Y158443D01*
X21550Y167494D01*
X21539Y167565D01*
X21537Y167637D01*
X21519Y167686D01*
X21511Y167737D01*
X21477Y167800D01*
X21452Y167868D01*
X21420Y167908D01*
X21395Y167954D01*
X21344Y168004D01*
X21299Y168060D01*
X21255Y168088D01*
X21217Y168124D01*
X21152Y168154D01*
X21092Y168193D01*
X21041Y168206D01*
X20994Y168227D01*
X20923Y168235D01*
X20853Y168253D01*
X20801Y168249D01*
X20750Y168255D01*
X20679Y168239D01*
X20608Y168234D01*
X20560Y168213D01*
X20509Y168202D01*
X20448Y168165D01*
X20382Y168137D01*
X20326Y168093D01*
X20298Y168076D01*
X20283Y168058D01*
X20251Y168033D01*
X19948Y167730D01*
X19895Y167656D01*
X19835Y167586D01*
X19823Y167556D01*
X19804Y167530D01*
X19777Y167443D01*
X19743Y167358D01*
X19739Y167317D01*
X19732Y167295D01*
X19733Y167263D01*
X19725Y167191D01*
X19725Y158443D01*
X18832Y157550D01*
X6568Y157550D01*
X5737Y158382D01*
X5679Y158424D01*
X5627Y158473D01*
X5579Y158495D01*
X5537Y158525D01*
X5469Y158547D01*
X5403Y158577D01*
X5352Y158583D01*
X5302Y158598D01*
X5230Y158596D01*
X5159Y158604D01*
X5108Y158593D01*
X5056Y158591D01*
X4989Y158567D01*
X4919Y158552D01*
X4874Y158525D01*
X4825Y158507D01*
X4769Y158462D01*
X4708Y158425D01*
X4674Y158386D01*
X4633Y158353D01*
X4594Y158293D01*
X4548Y158239D01*
X4528Y158190D01*
X4500Y158146D01*
X4483Y158077D01*
X4456Y158010D01*
X4450Y157956D01*
X3544Y157050D01*
X-6719Y157050D01*
X-7399Y157730D01*
X-7415Y157742D01*
X-7428Y157758D01*
X-7515Y157814D01*
X-7599Y157874D01*
X-7618Y157880D01*
X-7635Y157891D01*
X-7735Y157916D01*
X-7834Y157946D01*
X-7854Y157946D01*
X-7873Y157951D01*
X-7976Y157943D01*
X-8080Y157940D01*
X-8099Y157933D01*
X-8118Y157932D01*
X-8213Y157891D01*
X-8311Y157856D01*
X-8327Y157843D01*
X-8345Y157835D01*
X-8476Y157730D01*
X-9156Y157050D01*
X-19419Y157050D01*
X-20099Y157730D01*
X-20115Y157742D01*
X-20128Y157758D01*
X-20215Y157814D01*
X-20299Y157874D01*
X-20318Y157880D01*
X-20335Y157891D01*
X-20435Y157916D01*
X-20534Y157946D01*
X-20554Y157946D01*
X-20573Y157951D01*
X-20676Y157943D01*
X-20780Y157940D01*
X-20799Y157933D01*
X-20819Y157932D01*
X-20913Y157891D01*
X-21011Y157856D01*
X-21027Y157843D01*
X-21045Y157835D01*
X-21176Y157730D01*
X-21856Y157050D01*
X-32119Y157050D01*
G37*
%LPD*%
G36*
X-52269Y219408D02*
X-52269Y219408D01*
X-52151Y219416D01*
X-52112Y219428D01*
X-52072Y219433D01*
X-51961Y219477D01*
X-51848Y219514D01*
X-51814Y219535D01*
X-51776Y219550D01*
X-51680Y219620D01*
X-51579Y219684D01*
X-51552Y219713D01*
X-51519Y219737D01*
X-51443Y219829D01*
X-51361Y219915D01*
X-51342Y219951D01*
X-51316Y219982D01*
X-51265Y220090D01*
X-51208Y220194D01*
X-51198Y220233D01*
X-51181Y220270D01*
X-51158Y220386D01*
X-51128Y220502D01*
X-51125Y220562D01*
X-51121Y220582D01*
X-51122Y220602D01*
X-51118Y220663D01*
X-51118Y273050D01*
X-51128Y273126D01*
X-51128Y273203D01*
X-51148Y273284D01*
X-51158Y273366D01*
X-51186Y273437D01*
X-51205Y273512D01*
X-51245Y273585D01*
X-51275Y273661D01*
X-51320Y273723D01*
X-51357Y273791D01*
X-51413Y273852D01*
X-51462Y273919D01*
X-51521Y273968D01*
X-51574Y274024D01*
X-51643Y274069D01*
X-51707Y274121D01*
X-51777Y274154D01*
X-51841Y274196D01*
X-51920Y274222D01*
X-51995Y274257D01*
X-52070Y274271D01*
X-52143Y274296D01*
X-52303Y274316D01*
X-65425Y275191D01*
X-65567Y275183D01*
X-65707Y275179D01*
X-65725Y275174D01*
X-65743Y275173D01*
X-65877Y275129D01*
X-66013Y275090D01*
X-66028Y275081D01*
X-66046Y275075D01*
X-66165Y275000D01*
X-66287Y274929D01*
X-66305Y274912D01*
X-66315Y274906D01*
X-66329Y274892D01*
X-66374Y274851D01*
X-70147Y274851D01*
X-70511Y275216D01*
X-70556Y275250D01*
X-70595Y275292D01*
X-70681Y275348D01*
X-70762Y275410D01*
X-70814Y275433D01*
X-70862Y275464D01*
X-70960Y275496D01*
X-71054Y275537D01*
X-71110Y275546D01*
X-71164Y275564D01*
X-71324Y275584D01*
X-98402Y277390D01*
X-98550Y277381D01*
X-98697Y277375D01*
X-98708Y277372D01*
X-98720Y277371D01*
X-98860Y277326D01*
X-99002Y277283D01*
X-99012Y277277D01*
X-99023Y277274D01*
X-99147Y277196D01*
X-99274Y277119D01*
X-99282Y277111D01*
X-99292Y277105D01*
X-99393Y276997D01*
X-99497Y276892D01*
X-99506Y276879D01*
X-99511Y276874D01*
X-99518Y276860D01*
X-99586Y276758D01*
X-111355Y256373D01*
X-111363Y256355D01*
X-111391Y256306D01*
X-113848Y251393D01*
X-113886Y251283D01*
X-113932Y251176D01*
X-113939Y251134D01*
X-113953Y251093D01*
X-113963Y250977D01*
X-113981Y250862D01*
X-113977Y250819D01*
X-113981Y250776D01*
X-113962Y250661D01*
X-113951Y250546D01*
X-113936Y250505D01*
X-113929Y250462D01*
X-113882Y250356D01*
X-113842Y250247D01*
X-113809Y250190D01*
X-113800Y250171D01*
X-113788Y250156D01*
X-113760Y250108D01*
X-113228Y249331D01*
X-113174Y249270D01*
X-113128Y249203D01*
X-113069Y249152D01*
X-113017Y249093D01*
X-112950Y249047D01*
X-112888Y248994D01*
X-112818Y248959D01*
X-112753Y248915D01*
X-112677Y248888D01*
X-112604Y248851D01*
X-112528Y248834D01*
X-112454Y248808D01*
X-112442Y248807D01*
X-111967Y248367D01*
X-111956Y248358D01*
X-111946Y248347D01*
X-111819Y248248D01*
X-111289Y247887D01*
X-111278Y247854D01*
X-111276Y247850D01*
X-111274Y247846D01*
X-111192Y247717D01*
X-111108Y247585D01*
X-111105Y247582D01*
X-111103Y247578D01*
X-110992Y247462D01*
X-109621Y246190D01*
X-109617Y246188D01*
X-109615Y246185D01*
X-109487Y246095D01*
X-109362Y246005D01*
X-109358Y246004D01*
X-109355Y246001D01*
X-109210Y245946D01*
X-109181Y245935D01*
X-108774Y245425D01*
X-108763Y245414D01*
X-108756Y245402D01*
X-108645Y245285D01*
X-108174Y244849D01*
X-108168Y244815D01*
X-108167Y244811D01*
X-108166Y244807D01*
X-108103Y244666D01*
X-108040Y244523D01*
X-108038Y244520D01*
X-108036Y244516D01*
X-107944Y244384D01*
X-106778Y242923D01*
X-106775Y242920D01*
X-106772Y242916D01*
X-106661Y242810D01*
X-106550Y242701D01*
X-106546Y242699D01*
X-106543Y242696D01*
X-106409Y242621D01*
X-106381Y242604D01*
X-106054Y242039D01*
X-106046Y242028D01*
X-106040Y242015D01*
X-105947Y241883D01*
X-105547Y241381D01*
X-105547Y241346D01*
X-105546Y241342D01*
X-105545Y241338D01*
X-105505Y241191D01*
X-105463Y241039D01*
X-105461Y241035D01*
X-105460Y241031D01*
X-105389Y240887D01*
X-104453Y239268D01*
X-104451Y239265D01*
X-104449Y239261D01*
X-104355Y239138D01*
X-104261Y239015D01*
X-104258Y239012D01*
X-104255Y239009D01*
X-104132Y238913D01*
X-104108Y238894D01*
X-103870Y238287D01*
X-103863Y238274D01*
X-103859Y238260D01*
X-103787Y238116D01*
X-103466Y237560D01*
X-103471Y237525D01*
X-103471Y237521D01*
X-103471Y237517D01*
X-103452Y237364D01*
X-103434Y237209D01*
X-103433Y237205D01*
X-103432Y237201D01*
X-103383Y237048D01*
X-102700Y235308D01*
X-102698Y235304D01*
X-102697Y235300D01*
X-102622Y235165D01*
X-102547Y235029D01*
X-102544Y235026D01*
X-102542Y235022D01*
X-102436Y234909D01*
X-102414Y234886D01*
X-102269Y234250D01*
X-102264Y234237D01*
X-102262Y234222D01*
X-102213Y234069D01*
X-101967Y233444D01*
X-101969Y233406D01*
X-101982Y233324D01*
X-101974Y233248D01*
X-101977Y233171D01*
X-101959Y233090D01*
X-101951Y233008D01*
X-101925Y232936D01*
X-101908Y232861D01*
X-101871Y232787D01*
X-101843Y232709D01*
X-101768Y232583D01*
X-101765Y232577D01*
X-101763Y232575D01*
X-101760Y232570D01*
X-96015Y224173D01*
X-95990Y224145D01*
X-95971Y224113D01*
X-95865Y223992D01*
X-92995Y221122D01*
X-92995Y220663D01*
X-92980Y220544D01*
X-92973Y220426D01*
X-92960Y220387D01*
X-92955Y220347D01*
X-92911Y220236D01*
X-92875Y220123D01*
X-92853Y220089D01*
X-92838Y220051D01*
X-92768Y219955D01*
X-92704Y219854D01*
X-92675Y219827D01*
X-92651Y219794D01*
X-92559Y219718D01*
X-92473Y219636D01*
X-92437Y219617D01*
X-92406Y219591D01*
X-92299Y219540D01*
X-92194Y219483D01*
X-92155Y219473D01*
X-92118Y219456D01*
X-92002Y219433D01*
X-91886Y219403D01*
X-91826Y219400D01*
X-91806Y219396D01*
X-91786Y219397D01*
X-91726Y219393D01*
X-52388Y219393D01*
X-52269Y219408D01*
G37*
G36*
X86576Y104D02*
X86576Y104D01*
X86654Y112D01*
X86673Y123D01*
X86695Y128D01*
X86759Y172D01*
X86827Y210D01*
X86843Y229D01*
X86859Y240D01*
X86883Y278D01*
X86933Y338D01*
X96433Y16838D01*
X96442Y16866D01*
X96458Y16889D01*
X96473Y16959D01*
X96496Y17027D01*
X96493Y17056D01*
X96499Y17084D01*
X96486Y17154D01*
X96480Y17225D01*
X96467Y17251D01*
X96461Y17279D01*
X96421Y17338D01*
X96388Y17402D01*
X96366Y17420D01*
X96350Y17444D01*
X96267Y17501D01*
X96235Y17528D01*
X96224Y17531D01*
X96214Y17539D01*
X95586Y17835D01*
X110250Y43235D01*
X110259Y43257D01*
X110273Y43277D01*
X110302Y43371D01*
X110337Y43465D01*
X110338Y43489D01*
X110345Y43512D01*
X110342Y43611D01*
X110346Y43710D01*
X110339Y43734D01*
X110339Y43758D01*
X110305Y43851D01*
X110276Y43946D01*
X110262Y43966D01*
X110254Y43989D01*
X110192Y44066D01*
X110135Y44148D01*
X110116Y44162D01*
X110100Y44181D01*
X110017Y44234D01*
X109937Y44293D01*
X109914Y44301D01*
X109894Y44314D01*
X109797Y44338D01*
X109702Y44368D01*
X109678Y44368D01*
X109655Y44374D01*
X109556Y44366D01*
X109457Y44365D01*
X109434Y44356D01*
X109410Y44355D01*
X109319Y44316D01*
X109225Y44283D01*
X109206Y44268D01*
X109184Y44258D01*
X109053Y44153D01*
X99483Y34584D01*
X97474Y32575D01*
X27838Y32575D01*
X27837Y32575D01*
X27835Y32575D01*
X26573Y32570D01*
X25680Y33463D01*
X25679Y33464D01*
X25678Y33465D01*
X20263Y38838D01*
X20205Y38878D01*
X20155Y38927D01*
X20106Y38949D01*
X20062Y38980D01*
X19995Y39001D01*
X19931Y39030D01*
X19878Y39036D01*
X19827Y39052D01*
X19757Y39050D01*
X19687Y39057D01*
X19635Y39046D01*
X19581Y39045D01*
X19515Y39020D01*
X19447Y39005D01*
X19401Y38978D01*
X19350Y38959D01*
X19296Y38915D01*
X19236Y38879D01*
X19201Y38838D01*
X19159Y38805D01*
X19121Y38745D01*
X19076Y38692D01*
X19056Y38642D01*
X19027Y38597D01*
X19010Y38529D01*
X18984Y38464D01*
X18976Y38390D01*
X18968Y38358D01*
X18970Y38336D01*
X18965Y38297D01*
X18965Y34150D01*
X18980Y34060D01*
X18987Y33969D01*
X19000Y33940D01*
X19005Y33908D01*
X19048Y33827D01*
X19083Y33743D01*
X19109Y33711D01*
X19120Y33690D01*
X19143Y33668D01*
X19188Y33612D01*
X19654Y33146D01*
X19654Y29378D01*
X16990Y26713D01*
X15658Y26713D01*
X15634Y26709D01*
X15610Y26712D01*
X15513Y26689D01*
X15415Y26673D01*
X15394Y26662D01*
X15370Y26656D01*
X15285Y26604D01*
X15198Y26558D01*
X15181Y26541D01*
X15160Y26528D01*
X15097Y26451D01*
X15029Y26380D01*
X15018Y26358D01*
X15003Y26339D01*
X14967Y26247D01*
X14925Y26157D01*
X14922Y26132D01*
X14913Y26110D01*
X14909Y26011D01*
X14898Y25912D01*
X14903Y25888D01*
X14902Y25864D01*
X14940Y25700D01*
X15008Y25504D01*
X15025Y25474D01*
X15034Y25440D01*
X15083Y25366D01*
X15126Y25288D01*
X15151Y25265D01*
X15171Y25236D01*
X15298Y25127D01*
X17117Y23886D01*
X17149Y23872D01*
X17176Y23850D01*
X17260Y23820D01*
X17340Y23782D01*
X17375Y23779D01*
X17407Y23767D01*
X17487Y23761D01*
X17958Y23323D01*
X17986Y23305D01*
X18047Y23252D01*
X18576Y22892D01*
X18607Y22827D01*
X18637Y22743D01*
X18659Y22716D01*
X18674Y22685D01*
X18783Y22558D01*
X20398Y21060D01*
X20426Y21041D01*
X20450Y21015D01*
X20528Y20973D01*
X20603Y20924D01*
X20636Y20915D01*
X20667Y20898D01*
X20744Y20881D01*
X21145Y20378D01*
X21170Y20356D01*
X21223Y20294D01*
X21692Y19859D01*
X21713Y19790D01*
X21730Y19703D01*
X21748Y19673D01*
X21757Y19640D01*
X21847Y19498D01*
X23220Y17776D01*
X23245Y17753D01*
X23265Y17724D01*
X23336Y17671D01*
X23402Y17611D01*
X23434Y17598D01*
X23462Y17577D01*
X23536Y17548D01*
X23858Y16990D01*
X23878Y16965D01*
X23922Y16896D01*
X24321Y16396D01*
X24331Y16325D01*
X24335Y16236D01*
X24348Y16204D01*
X24353Y16169D01*
X24420Y16016D01*
X25521Y14109D01*
X25543Y14082D01*
X25558Y14051D01*
X25621Y13987D01*
X25677Y13918D01*
X25706Y13900D01*
X25731Y13875D01*
X25800Y13836D01*
X26035Y13237D01*
X26051Y13208D01*
X26084Y13134D01*
X26404Y12579D01*
X26404Y12508D01*
X26395Y12419D01*
X26402Y12385D01*
X26402Y12351D01*
X26446Y12189D01*
X27250Y10139D01*
X27268Y10109D01*
X27278Y10076D01*
X27330Y10004D01*
X27376Y9928D01*
X27402Y9905D01*
X27423Y9877D01*
X27485Y9827D01*
X27628Y9200D01*
X27640Y9169D01*
X27662Y9091D01*
X27895Y8495D01*
X27884Y8424D01*
X27862Y8338D01*
X27865Y8304D01*
X27859Y8269D01*
X27878Y8103D01*
X28368Y5956D01*
X28381Y5924D01*
X28387Y5890D01*
X28428Y5810D01*
X28461Y5728D01*
X28484Y5702D01*
X28500Y5671D01*
X28554Y5613D01*
X28602Y4971D01*
X28610Y4939D01*
X28619Y4859D01*
X28761Y4234D01*
X28740Y4166D01*
X28705Y4084D01*
X28703Y4049D01*
X28692Y4016D01*
X28686Y3849D01*
X28821Y2047D01*
X28848Y1936D01*
X28872Y1824D01*
X28877Y1816D01*
X28879Y1808D01*
X28940Y1711D01*
X28998Y1613D01*
X29005Y1607D01*
X29010Y1599D01*
X29098Y1527D01*
X29185Y1453D01*
X29194Y1449D01*
X29200Y1444D01*
X29307Y1404D01*
X29413Y1361D01*
X29424Y1360D01*
X29431Y1357D01*
X29454Y1356D01*
X29580Y1342D01*
X67059Y1342D01*
X67002Y627D01*
X67006Y599D01*
X67001Y571D01*
X67018Y501D01*
X67026Y430D01*
X67041Y405D01*
X67047Y378D01*
X67090Y320D01*
X67126Y257D01*
X67148Y240D01*
X67165Y217D01*
X67227Y181D01*
X67284Y137D01*
X67312Y130D01*
X67336Y116D01*
X67436Y99D01*
X67477Y89D01*
X67487Y90D01*
X67500Y88D01*
X86500Y88D01*
X86576Y104D01*
G37*
G36*
X131841Y198155D02*
X131841Y198155D01*
X131884Y198154D01*
X135877Y198754D01*
X135907Y198765D01*
X135950Y198771D01*
X139809Y199960D01*
X139837Y199975D01*
X139878Y199987D01*
X143516Y201738D01*
X143538Y201754D01*
X143564Y201764D01*
X143617Y201814D01*
X143675Y201858D01*
X143688Y201881D01*
X143708Y201900D01*
X143738Y201967D01*
X143774Y202030D01*
X143777Y202057D01*
X143788Y202082D01*
X143789Y202155D01*
X143798Y202228D01*
X143790Y202254D01*
X143790Y202281D01*
X143754Y202380D01*
X143742Y202419D01*
X143736Y202426D01*
X143732Y202437D01*
X116732Y249237D01*
X116714Y249257D01*
X116703Y249282D01*
X116649Y249331D01*
X116601Y249386D01*
X116576Y249398D01*
X116556Y249416D01*
X116487Y249440D01*
X116421Y249472D01*
X116394Y249473D01*
X116369Y249482D01*
X116296Y249477D01*
X116223Y249481D01*
X116197Y249471D01*
X116170Y249470D01*
X116074Y249426D01*
X116036Y249411D01*
X116029Y249405D01*
X116019Y249400D01*
X112682Y247127D01*
X112660Y247104D01*
X112624Y247080D01*
X109663Y244335D01*
X109644Y244309D01*
X109612Y244280D01*
X107094Y241124D01*
X107079Y241096D01*
X107052Y241063D01*
X105032Y237566D01*
X105022Y237536D01*
X104999Y237499D01*
X103523Y233741D01*
X103518Y233710D01*
X103501Y233670D01*
X102601Y229734D01*
X102601Y229702D01*
X102590Y229660D01*
X102287Y225634D01*
X102290Y225610D01*
X102287Y225590D01*
X102289Y225581D01*
X102287Y225559D01*
X102588Y221533D01*
X102596Y221502D01*
X102599Y221459D01*
X103496Y217522D01*
X103509Y217493D01*
X103518Y217451D01*
X104992Y213692D01*
X105009Y213665D01*
X105024Y213624D01*
X107042Y210127D01*
X107063Y210103D01*
X107084Y210065D01*
X109600Y206908D01*
X109625Y206887D01*
X109651Y206853D01*
X112610Y204106D01*
X112637Y204089D01*
X112668Y204059D01*
X116004Y201784D01*
X116033Y201771D01*
X116068Y201746D01*
X119706Y199993D01*
X119736Y199986D01*
X119775Y199966D01*
X123633Y198775D01*
X123665Y198772D01*
X123706Y198758D01*
X127698Y198155D01*
X127730Y198157D01*
X127772Y198149D01*
X131810Y198148D01*
X131841Y198155D01*
G37*
G36*
X-127972Y198149D02*
X-127972Y198149D01*
X-127941Y198156D01*
X-127898Y198155D01*
X-123906Y198758D01*
X-123876Y198769D01*
X-123833Y198775D01*
X-119975Y199966D01*
X-119947Y199981D01*
X-119906Y199993D01*
X-116268Y201746D01*
X-116243Y201766D01*
X-116204Y201784D01*
X-112868Y204059D01*
X-112846Y204082D01*
X-112810Y204106D01*
X-109851Y206853D01*
X-109832Y206879D01*
X-109800Y206908D01*
X-107284Y210065D01*
X-107269Y210094D01*
X-107242Y210127D01*
X-105224Y213624D01*
X-105214Y213655D01*
X-105192Y213692D01*
X-103718Y217451D01*
X-103712Y217482D01*
X-103696Y217522D01*
X-102799Y221459D01*
X-102798Y221491D01*
X-102788Y221533D01*
X-102487Y225559D01*
X-102491Y225591D01*
X-102490Y225607D01*
X-102487Y225623D01*
X-102488Y225627D01*
X-102487Y225634D01*
X-102790Y229660D01*
X-102799Y229691D01*
X-102801Y229734D01*
X-103701Y233670D01*
X-103714Y233699D01*
X-103723Y233741D01*
X-105199Y237499D01*
X-105217Y237526D01*
X-105232Y237566D01*
X-107252Y241063D01*
X-107273Y241086D01*
X-107294Y241124D01*
X-109812Y244280D01*
X-109837Y244301D01*
X-109863Y244335D01*
X-112824Y247080D01*
X-112851Y247097D01*
X-112882Y247127D01*
X-116219Y249400D01*
X-116244Y249411D01*
X-116265Y249428D01*
X-116335Y249449D01*
X-116402Y249477D01*
X-116430Y249477D01*
X-116456Y249485D01*
X-116528Y249477D01*
X-116601Y249476D01*
X-116626Y249466D01*
X-116653Y249463D01*
X-116717Y249427D01*
X-116784Y249398D01*
X-116803Y249379D01*
X-116826Y249365D01*
X-116894Y249284D01*
X-116922Y249255D01*
X-116925Y249246D01*
X-116932Y249237D01*
X-143932Y202437D01*
X-143941Y202411D01*
X-143957Y202389D01*
X-143972Y202318D01*
X-143996Y202248D01*
X-143993Y202221D01*
X-143999Y202195D01*
X-143986Y202123D01*
X-143980Y202050D01*
X-143967Y202026D01*
X-143962Y201999D01*
X-143922Y201939D01*
X-143888Y201874D01*
X-143867Y201856D01*
X-143852Y201834D01*
X-143766Y201773D01*
X-143735Y201747D01*
X-143726Y201744D01*
X-143716Y201738D01*
X-140078Y199987D01*
X-140047Y199979D01*
X-140009Y199960D01*
X-136150Y198771D01*
X-136118Y198768D01*
X-136077Y198754D01*
X-132084Y198154D01*
X-132053Y198155D01*
X-132010Y198148D01*
X-127972Y198149D01*
G37*
G36*
X116328Y51698D02*
X116328Y51698D01*
X116401Y51699D01*
X116426Y51709D01*
X116453Y51712D01*
X116517Y51748D01*
X116584Y51777D01*
X116603Y51796D01*
X116626Y51810D01*
X116694Y51891D01*
X116722Y51920D01*
X116725Y51929D01*
X116732Y51938D01*
X143732Y98738D01*
X143741Y98764D01*
X143757Y98786D01*
X143772Y98857D01*
X143796Y98927D01*
X143793Y98954D01*
X143799Y98980D01*
X143786Y99052D01*
X143780Y99125D01*
X143767Y99149D01*
X143762Y99176D01*
X143722Y99237D01*
X143688Y99301D01*
X143667Y99319D01*
X143652Y99341D01*
X143566Y99402D01*
X143535Y99428D01*
X143526Y99431D01*
X143516Y99437D01*
X139878Y101188D01*
X139847Y101196D01*
X139809Y101215D01*
X135950Y102404D01*
X135918Y102407D01*
X135877Y102421D01*
X131884Y103021D01*
X131853Y103020D01*
X131810Y103027D01*
X127772Y103026D01*
X127741Y103019D01*
X127698Y103020D01*
X123706Y102417D01*
X123676Y102406D01*
X123633Y102400D01*
X119775Y101209D01*
X119747Y101194D01*
X119706Y101182D01*
X116068Y99429D01*
X116043Y99409D01*
X116004Y99391D01*
X112668Y97116D01*
X112646Y97093D01*
X112610Y97069D01*
X109651Y94322D01*
X109632Y94296D01*
X109600Y94267D01*
X107084Y91110D01*
X107069Y91081D01*
X107042Y91048D01*
X105024Y87551D01*
X105014Y87520D01*
X104992Y87483D01*
X103518Y83724D01*
X103512Y83693D01*
X103496Y83653D01*
X102599Y79716D01*
X102598Y79684D01*
X102588Y79642D01*
X102287Y75616D01*
X102291Y75584D01*
X102287Y75541D01*
X102590Y71515D01*
X102599Y71484D01*
X102601Y71441D01*
X103501Y67505D01*
X103514Y67476D01*
X103523Y67434D01*
X104999Y63676D01*
X105017Y63649D01*
X105032Y63609D01*
X107052Y60113D01*
X107073Y60089D01*
X107094Y60051D01*
X109612Y56895D01*
X109637Y56875D01*
X109663Y56840D01*
X112624Y54095D01*
X112651Y54078D01*
X112682Y54048D01*
X116019Y51775D01*
X116044Y51764D01*
X116065Y51747D01*
X116135Y51726D01*
X116202Y51698D01*
X116230Y51698D01*
X116256Y51690D01*
X116328Y51698D01*
G37*
G36*
X-116496Y51698D02*
X-116496Y51698D01*
X-116423Y51694D01*
X-116397Y51704D01*
X-116370Y51705D01*
X-116274Y51749D01*
X-116236Y51764D01*
X-116229Y51770D01*
X-116219Y51775D01*
X-112882Y54048D01*
X-112860Y54071D01*
X-112824Y54095D01*
X-109863Y56840D01*
X-109844Y56866D01*
X-109812Y56895D01*
X-107294Y60051D01*
X-107279Y60079D01*
X-107252Y60113D01*
X-105232Y63609D01*
X-105222Y63639D01*
X-105199Y63676D01*
X-103723Y67434D01*
X-103718Y67465D01*
X-103701Y67505D01*
X-102801Y71441D01*
X-102801Y71473D01*
X-102790Y71515D01*
X-102487Y75541D01*
X-102491Y75573D01*
X-102487Y75616D01*
X-102788Y79642D01*
X-102796Y79673D01*
X-102799Y79716D01*
X-103696Y83653D01*
X-103709Y83682D01*
X-103718Y83724D01*
X-105192Y87483D01*
X-105209Y87510D01*
X-105224Y87551D01*
X-107242Y91048D01*
X-107263Y91072D01*
X-107284Y91110D01*
X-109800Y94267D01*
X-109825Y94288D01*
X-109851Y94322D01*
X-112810Y97069D01*
X-112837Y97086D01*
X-112868Y97116D01*
X-116204Y99391D01*
X-116233Y99404D01*
X-116268Y99429D01*
X-119906Y101182D01*
X-119936Y101189D01*
X-119975Y101209D01*
X-123833Y102400D01*
X-123865Y102403D01*
X-123906Y102417D01*
X-127898Y103020D01*
X-127930Y103018D01*
X-127972Y103026D01*
X-132010Y103027D01*
X-132041Y103021D01*
X-132084Y103021D01*
X-136077Y102421D01*
X-136107Y102410D01*
X-136150Y102404D01*
X-140009Y101215D01*
X-140037Y101200D01*
X-140078Y101188D01*
X-143716Y99437D01*
X-143738Y99421D01*
X-143764Y99411D01*
X-143817Y99361D01*
X-143875Y99317D01*
X-143888Y99294D01*
X-143908Y99275D01*
X-143938Y99208D01*
X-143974Y99145D01*
X-143977Y99118D01*
X-143988Y99093D01*
X-143989Y99020D01*
X-143998Y98947D01*
X-143990Y98921D01*
X-143990Y98894D01*
X-143954Y98795D01*
X-143942Y98756D01*
X-143936Y98749D01*
X-143932Y98738D01*
X-116932Y51938D01*
X-116914Y51918D01*
X-116903Y51893D01*
X-116849Y51844D01*
X-116801Y51789D01*
X-116776Y51777D01*
X-116756Y51759D01*
X-116687Y51735D01*
X-116621Y51703D01*
X-116594Y51702D01*
X-116569Y51693D01*
X-116496Y51698D01*
G37*
G36*
X26927Y94D02*
X26927Y94D01*
X26954Y91D01*
X27023Y113D01*
X27095Y128D01*
X27117Y143D01*
X27143Y152D01*
X27199Y199D01*
X27259Y240D01*
X27273Y263D01*
X27294Y281D01*
X27327Y346D01*
X27366Y408D01*
X27370Y435D01*
X27382Y459D01*
X27392Y564D01*
X27399Y604D01*
X27397Y613D01*
X27398Y625D01*
X27096Y4649D01*
X27088Y4680D01*
X27085Y4723D01*
X26187Y8657D01*
X26174Y8686D01*
X26165Y8728D01*
X24691Y12485D01*
X24674Y12512D01*
X24659Y12552D01*
X22641Y16047D01*
X22620Y16071D01*
X22599Y16108D01*
X20083Y19263D01*
X20058Y19284D01*
X20032Y19318D01*
X17074Y22063D01*
X17047Y22079D01*
X17015Y22109D01*
X13681Y24383D01*
X13652Y24395D01*
X13617Y24420D01*
X9981Y26171D01*
X9950Y26179D01*
X9911Y26198D01*
X6055Y27388D01*
X6024Y27391D01*
X5982Y27404D01*
X1992Y28006D01*
X1960Y28004D01*
X1918Y28011D01*
X-2118Y28011D01*
X-2149Y28005D01*
X-2192Y28006D01*
X-6182Y27404D01*
X-6212Y27393D01*
X-6255Y27388D01*
X-10111Y26198D01*
X-10139Y26183D01*
X-10181Y26171D01*
X-13817Y24420D01*
X-13842Y24401D01*
X-13881Y24383D01*
X-17215Y22109D01*
X-17238Y22087D01*
X-17274Y22063D01*
X-20232Y19318D01*
X-20251Y19292D01*
X-20283Y19263D01*
X-22799Y16108D01*
X-22813Y16080D01*
X-22841Y16047D01*
X-24859Y12552D01*
X-24869Y12522D01*
X-24891Y12485D01*
X-26365Y8728D01*
X-26371Y8697D01*
X-26387Y8657D01*
X-27285Y4723D01*
X-27286Y4691D01*
X-27296Y4649D01*
X-27598Y625D01*
X-27594Y598D01*
X-27599Y571D01*
X-27582Y500D01*
X-27573Y428D01*
X-27559Y404D01*
X-27553Y378D01*
X-27510Y319D01*
X-27473Y256D01*
X-27451Y239D01*
X-27435Y217D01*
X-27372Y180D01*
X-27314Y136D01*
X-27287Y130D01*
X-27264Y116D01*
X-27160Y98D01*
X-27121Y89D01*
X-27111Y90D01*
X-27100Y88D01*
X26900Y88D01*
X26927Y94D01*
G37*
G36*
X73115Y97679D02*
X73115Y97679D01*
X73206Y97686D01*
X73236Y97698D01*
X73268Y97704D01*
X73348Y97746D01*
X73432Y97782D01*
X73464Y97808D01*
X73485Y97819D01*
X73507Y97842D01*
X73563Y97887D01*
X75151Y99474D01*
X75204Y99548D01*
X75263Y99618D01*
X75276Y99648D01*
X75294Y99674D01*
X75321Y99761D01*
X75355Y99846D01*
X75360Y99887D01*
X75367Y99909D01*
X75366Y99941D01*
X75374Y100013D01*
X75374Y155575D01*
X75371Y155595D01*
X75373Y155614D01*
X75351Y155716D01*
X75334Y155818D01*
X75325Y155835D01*
X75320Y155855D01*
X75267Y155944D01*
X75219Y156035D01*
X75205Y156049D01*
X75194Y156066D01*
X75116Y156133D01*
X75041Y156205D01*
X75023Y156213D01*
X75007Y156226D01*
X74911Y156265D01*
X74818Y156308D01*
X74798Y156310D01*
X74779Y156318D01*
X74613Y156336D01*
X61913Y156336D01*
X61893Y156333D01*
X61873Y156335D01*
X61772Y156313D01*
X61670Y156297D01*
X61652Y156287D01*
X61633Y156283D01*
X61544Y156230D01*
X61452Y156181D01*
X61439Y156167D01*
X61422Y156157D01*
X61354Y156078D01*
X61283Y156003D01*
X61275Y155985D01*
X61262Y155970D01*
X61223Y155874D01*
X61179Y155780D01*
X61177Y155760D01*
X61170Y155742D01*
X61151Y155575D01*
X61151Y100013D01*
X61166Y99922D01*
X61173Y99832D01*
X61186Y99802D01*
X61191Y99770D01*
X61234Y99689D01*
X61269Y99605D01*
X61295Y99573D01*
X61306Y99552D01*
X61329Y99530D01*
X61374Y99474D01*
X62962Y97887D01*
X63036Y97834D01*
X63105Y97774D01*
X63135Y97762D01*
X63161Y97743D01*
X63248Y97716D01*
X63333Y97682D01*
X63374Y97678D01*
X63397Y97671D01*
X63429Y97672D01*
X63500Y97664D01*
X73025Y97664D01*
X73115Y97679D01*
G37*
G36*
X38422Y84979D02*
X38422Y84979D01*
X38513Y84986D01*
X38543Y84998D01*
X38574Y85004D01*
X38655Y85046D01*
X38739Y85082D01*
X38771Y85108D01*
X38792Y85119D01*
X38814Y85142D01*
X38870Y85187D01*
X49863Y96179D01*
X51872Y98188D01*
X55422Y98188D01*
X55512Y98203D01*
X55603Y98210D01*
X55633Y98223D01*
X55665Y98228D01*
X55745Y98271D01*
X55829Y98306D01*
X55861Y98332D01*
X55882Y98343D01*
X55904Y98366D01*
X55960Y98411D01*
X56101Y98552D01*
X56154Y98626D01*
X56213Y98695D01*
X56225Y98725D01*
X56244Y98752D01*
X56271Y98839D01*
X56305Y98923D01*
X56310Y98964D01*
X56317Y98987D01*
X56316Y99019D01*
X56324Y99090D01*
X56324Y144463D01*
X56321Y144482D01*
X56323Y144502D01*
X56301Y144603D01*
X56284Y144705D01*
X56275Y144723D01*
X56270Y144742D01*
X56217Y144831D01*
X56169Y144923D01*
X56155Y144936D01*
X56144Y144953D01*
X56066Y145021D01*
X55991Y145092D01*
X55973Y145100D01*
X55957Y145113D01*
X55861Y145152D01*
X55768Y145196D01*
X55748Y145198D01*
X55729Y145205D01*
X55563Y145224D01*
X44450Y145224D01*
X44430Y145221D01*
X44411Y145223D01*
X44309Y145201D01*
X44207Y145184D01*
X44190Y145175D01*
X44170Y145170D01*
X44081Y145117D01*
X43990Y145069D01*
X43976Y145055D01*
X43959Y145044D01*
X43892Y144966D01*
X43821Y144891D01*
X43812Y144873D01*
X43799Y144857D01*
X43760Y144761D01*
X43717Y144668D01*
X43715Y144648D01*
X43707Y144629D01*
X43689Y144463D01*
X43689Y101915D01*
X37785Y96011D01*
X30163Y96011D01*
X30143Y96008D01*
X30123Y96010D01*
X30022Y95988D01*
X29920Y95972D01*
X29902Y95962D01*
X29883Y95958D01*
X29794Y95905D01*
X29702Y95856D01*
X29689Y95842D01*
X29672Y95832D01*
X29604Y95753D01*
X29533Y95678D01*
X29525Y95660D01*
X29512Y95645D01*
X29473Y95549D01*
X29429Y95455D01*
X29427Y95435D01*
X29420Y95417D01*
X29401Y95250D01*
X29401Y85725D01*
X29404Y85705D01*
X29402Y85686D01*
X29424Y85584D01*
X29441Y85482D01*
X29450Y85465D01*
X29455Y85445D01*
X29508Y85356D01*
X29556Y85265D01*
X29571Y85251D01*
X29581Y85234D01*
X29659Y85167D01*
X29734Y85096D01*
X29752Y85087D01*
X29768Y85074D01*
X29864Y85035D01*
X29958Y84992D01*
X29977Y84990D01*
X29996Y84982D01*
X30163Y84964D01*
X38332Y84964D01*
X38422Y84979D01*
G37*
%LPC*%
G36*
X-19347Y181189D02*
X-19347Y181189D01*
X-22011Y183853D01*
X-22011Y187622D01*
X-19225Y190408D01*
X-19213Y190424D01*
X-19197Y190437D01*
X-19141Y190524D01*
X-19081Y190608D01*
X-19075Y190627D01*
X-19064Y190644D01*
X-19039Y190744D01*
X-19009Y190843D01*
X-19009Y190863D01*
X-19004Y190882D01*
X-19012Y190985D01*
X-19015Y191089D01*
X-19022Y191108D01*
X-19024Y191128D01*
X-19064Y191222D01*
X-19100Y191320D01*
X-19112Y191336D01*
X-19120Y191354D01*
X-19225Y191485D01*
X-20517Y192777D01*
X-20591Y192830D01*
X-20661Y192890D01*
X-20691Y192902D01*
X-20717Y192921D01*
X-20804Y192948D01*
X-20889Y192982D01*
X-20930Y192986D01*
X-20952Y192993D01*
X-20984Y192992D01*
X-21055Y193000D01*
X-32057Y193000D01*
X-32950Y193893D01*
X-32950Y206157D01*
X-32057Y207050D01*
X-20793Y207050D01*
X-19900Y206157D01*
X-19900Y200380D01*
X-19886Y200290D01*
X-19878Y200199D01*
X-19866Y200170D01*
X-19861Y200138D01*
X-19818Y200057D01*
X-19782Y199973D01*
X-19756Y199941D01*
X-19745Y199920D01*
X-19722Y199898D01*
X-19677Y199842D01*
X-13080Y193245D01*
X-13080Y188103D01*
X-13066Y188013D01*
X-13058Y187922D01*
X-13046Y187893D01*
X-13041Y187861D01*
X-12998Y187780D01*
X-12962Y187696D01*
X-12936Y187664D01*
X-12925Y187643D01*
X-12914Y187632D01*
X-12914Y183853D01*
X-15578Y181189D01*
X-19347Y181189D01*
G37*
%LPD*%
%LPC*%
G36*
X-124056Y168655D02*
X-124056Y168655D01*
X-127418Y170047D01*
X-129990Y172620D01*
X-131382Y175981D01*
X-131382Y179619D01*
X-129990Y182980D01*
X-127418Y185553D01*
X-124056Y186945D01*
X-120419Y186945D01*
X-117057Y185553D01*
X-114485Y182980D01*
X-113093Y179619D01*
X-113093Y175981D01*
X-114485Y172620D01*
X-117057Y170047D01*
X-120419Y168655D01*
X-124056Y168655D01*
G37*
%LPD*%
D10*
X67238Y103188D03*
X50238Y103188D03*
D11*
X49238Y123825D03*
X68238Y123825D03*
D12*
X-70413Y47625D03*
X-53413Y47625D03*
D13*
X60325Y86612D03*
X60325Y74613D03*
X60325Y62613D03*
D10*
X85163Y195263D03*
X102163Y195263D03*
X67238Y112713D03*
X50238Y112713D03*
D12*
X-57150Y69288D03*
X-57150Y86288D03*
D14*
X-71438Y88875D03*
X-71438Y69875D03*
D10*
X-66675Y130738D03*
X-66675Y113738D03*
D11*
X49238Y138113D03*
X68238Y138113D03*
D10*
X68263Y167250D03*
X68263Y150250D03*
D15*
X165100Y150588D03*
X82500Y7488D03*
X-82700Y7488D03*
X-165300Y150588D03*
X123800Y222088D03*
X123800Y79088D03*
X-100Y7488D03*
X-124000Y79088D03*
X-124000Y222088D03*
D16*
X32213Y110057D03*
X32213Y105056D03*
X32213Y100054D03*
X32213Y95053D03*
X32213Y90052D03*
X32213Y85051D03*
X32213Y80049D03*
X32213Y75048D03*
X32213Y70047D03*
X32213Y65046D03*
X32213Y60044D03*
X32213Y55043D03*
D17*
X25920Y48750D03*
X20919Y48750D03*
X15917Y48750D03*
X10916Y48750D03*
X5915Y48750D03*
X914Y48750D03*
X-4089Y48750D03*
X-9090Y48750D03*
X-14091Y48750D03*
X-19092Y48750D03*
X-24094Y48750D03*
X-29095Y48750D03*
D16*
X-35388Y55043D03*
X-35388Y60044D03*
X-35388Y65046D03*
X-35388Y70047D03*
X-35388Y75048D03*
X-35388Y80049D03*
X-35388Y85051D03*
X-35388Y90052D03*
X-35388Y95053D03*
X-35388Y100054D03*
X-35388Y105056D03*
X-35388Y110057D03*
D17*
X-29095Y116350D03*
X-24094Y116350D03*
X-19092Y116350D03*
X-14091Y116350D03*
X-9090Y116350D03*
X-4089Y116350D03*
X914Y116350D03*
X5915Y116350D03*
X10916Y116350D03*
X15917Y116350D03*
X20919Y116350D03*
X25920Y116350D03*
D18*
X-1588Y82550D03*
D19*
X103188Y177800D03*
D20*
X-122238Y177800D03*
X-122238Y152400D03*
X-122238Y127000D03*
D10*
X12700Y164075D03*
X12700Y147075D03*
X28575Y164075D03*
X28575Y147075D03*
D12*
X-26425Y200025D03*
X-43425Y200025D03*
D21*
X-26988Y162075D03*
X-26988Y149075D03*
X-1588Y162075D03*
X-1588Y149075D03*
X-14288Y162075D03*
X-14288Y149075D03*
D10*
X-77788Y229163D03*
X-77788Y212163D03*
D22*
X58738Y203088D03*
X58738Y181088D03*
X34925Y203088D03*
X34925Y181088D03*
D12*
X-61350Y198438D03*
X-78350Y198438D03*
D23*
X-73025Y260638D03*
X-73025Y288638D03*
D10*
X-43888Y212725D03*
X-60888Y212725D03*
D24*
X-57150Y69288D02*
X-70850Y69288D01*
X-71438Y69875D01*
D25*
X-57150Y69288D02*
X-46389Y80049D01*
D26*
X-49213Y282575D03*
X-20638Y282575D03*
X-4763Y282575D03*
X12700Y282575D03*
X26988Y282575D03*
X42863Y280988D03*
X-36513Y282575D03*
X-68263Y279400D03*
X71438Y292100D03*
X34925Y261938D03*
X-33338Y263525D03*
X34925Y242888D03*
X-33338Y242888D03*
X-50800Y203200D03*
X-69850Y293688D03*
X-33338Y222250D03*
X-19050Y209550D03*
X0Y209550D03*
X20638Y209550D03*
X34925Y222250D03*
X85725Y263525D03*
X49213Y204788D03*
D25*
X-4089Y80049D02*
X-46389Y80049D01*
X-4089Y80049D02*
X-1588Y82550D01*
D26*
X136525Y184150D03*
X142875Y173038D03*
X84138Y173038D03*
X-47625Y179388D03*
X-55563Y165100D03*
X-4763Y65088D03*
X-79375Y138113D03*
X63500Y173038D03*
X0Y77788D03*
X63500Y79375D03*
X22225Y88900D03*
X-44450Y22225D03*
X84138Y182563D03*
X-79375Y187325D03*
X-79375Y176213D03*
X-90488Y155575D03*
X-87313Y109538D03*
X-95250Y115888D03*
X-84138Y49213D03*
X-84138Y77788D03*
X22225Y103188D03*
X-42863Y44450D03*
X46038Y28575D03*
X53975Y25400D03*
X63500Y69850D03*
D24*
X-70850Y89463D02*
X-71438Y88875D01*
X-70850Y89463D02*
X-60325Y89463D01*
X-57150Y86288D01*
D25*
X-55914Y85051D01*
D27*
X-71438Y88875D02*
X-92071Y88875D01*
X-92075Y88900D01*
D26*
X-92075Y88900D03*
X-103188Y257175D03*
X-93663Y236538D03*
X-92075Y268288D03*
D28*
X-55914Y85051D02*
X-35388Y85051D01*
D26*
X116462Y194638D03*
D28*
X116462Y174087D01*
X93599Y151224D01*
X93599Y59149D01*
X85157Y50707D01*
X46934Y50707D01*
X37596Y60044D02*
X32213Y60044D01*
X37596Y60044D02*
X46934Y50707D01*
X42482Y45518D02*
X88381Y45518D01*
X98425Y55563D01*
X98425Y147638D01*
X123800Y173013D02*
X123800Y222088D01*
X123800Y173013D02*
X98425Y147638D01*
X32957Y55043D02*
X32213Y55043D01*
X32957Y55043D02*
X42482Y45518D01*
D26*
X104435Y53328D03*
D28*
X92772Y40692D02*
X30059Y40692D01*
X104435Y52355D02*
X104435Y53328D01*
X104435Y52355D02*
X92772Y40692D01*
X25920Y44831D02*
X25920Y48750D01*
X25920Y44831D02*
X30059Y40692D01*
X27831Y35624D02*
X20919Y42482D01*
X112688Y52100D02*
X112688Y67975D01*
X123800Y79088D01*
X112688Y52100D02*
X96211Y35624D01*
X27831Y35624D01*
X20919Y42482D02*
X20919Y48750D01*
D26*
X-109047Y51074D03*
D28*
X-47244Y69297D02*
X-41493Y75048D01*
X-53242Y57424D02*
X-102697Y57424D01*
X-109047Y51074D01*
X-47244Y63421D02*
X-47244Y69297D01*
X-47244Y63421D02*
X-53242Y57424D01*
X-41493Y75048D02*
X-35388Y75048D01*
D25*
X-73306Y105056D02*
X-96838Y128588D01*
X-120650Y128588D01*
X-122238Y127000D01*
X-73306Y105056D02*
X-35388Y105056D01*
X-40994Y60044D02*
X-53413Y47625D01*
X-40994Y60044D02*
X-35388Y60044D01*
X-70413Y47625D02*
X-70413Y35488D01*
X-63159Y28234D01*
D26*
X-63159Y28234D03*
D25*
X-26425Y200025D02*
X-23813Y200025D01*
X-15875Y192088D01*
X-15875Y187325D01*
X-17463Y185738D01*
D26*
X-17463Y185738D03*
D29*
X-14288Y142725D02*
X914Y127524D01*
X-14288Y142725D02*
X-14288Y149075D01*
X914Y127524D02*
X914Y116350D01*
D28*
X32213Y75048D02*
X46473Y75048D01*
X58037Y86612D02*
X60325Y86612D01*
X58037Y86612D02*
X46473Y75048D01*
X45841Y70047D02*
X32213Y70047D01*
X53275Y62613D02*
X60325Y62613D01*
X53275Y62613D02*
X45841Y70047D01*
D25*
X-66675Y113738D02*
X-66675Y115888D01*
X-103188Y152400D01*
X-122238Y152400D01*
X-66675Y113738D02*
X-62995Y110057D01*
X-35388Y110057D01*
D26*
X-57172Y122216D03*
X-69985Y211138D03*
D29*
X-56261Y123127D02*
X-27939Y123127D01*
X-56261Y123127D02*
X-57172Y122216D01*
D25*
X-71010Y212163D02*
X-77788Y212163D01*
X-71010Y212163D02*
X-69985Y211138D01*
X-62475Y211138D01*
X-60888Y212725D01*
D29*
X-27939Y123127D02*
X-24094Y119281D01*
X-24094Y116350D01*
X25920Y144420D02*
X28575Y147075D01*
X25920Y144420D02*
X25920Y116350D01*
X21094Y140269D02*
X14288Y147075D01*
X12700Y147075D01*
X21094Y140269D02*
X21094Y116525D01*
X20919Y116350D01*
X-1588Y136158D02*
X-1588Y149075D01*
X-1588Y136158D02*
X5915Y128656D01*
X5915Y116350D01*
X-4089Y126176D02*
X-26988Y149075D01*
X-4089Y126176D02*
X-4089Y116350D01*
D25*
X31750Y123825D02*
X32350Y123226D01*
D26*
X31750Y123825D03*
D25*
X32213Y110057D02*
X32350Y110057D01*
X32350Y123226D01*
D26*
X41379Y91971D03*
D28*
X32681Y80517D02*
X32213Y80049D01*
X65048Y103188D02*
X67238Y103188D01*
X65048Y103188D02*
X57000Y95140D01*
X53134Y95140D01*
X38512Y80517D02*
X32681Y80517D01*
X38512Y80517D02*
X53134Y95140D01*
D26*
X-33689Y117395D03*
D25*
X-29095Y117395D01*
X-29095Y116350D01*
X49239Y56937D02*
X49358Y57057D01*
X83085Y57057D01*
X88773Y62744D01*
X103188Y168275D02*
X103188Y177800D01*
X103188Y168275D02*
X88773Y153861D01*
X88773Y62744D01*
D28*
X103188Y194238D02*
X102163Y195263D01*
X103188Y194238D02*
X103188Y177800D01*
D25*
X41130Y65046D02*
X32213Y65046D01*
X41130Y65046D02*
X49239Y56937D01*
D28*
X-45386Y90052D02*
X-54702Y99369D01*
X-103719Y99369D02*
X-124000Y79088D01*
X-103719Y99369D02*
X-54702Y99369D01*
X-45386Y90052D02*
X-35388Y90052D01*
D26*
X-79375Y201613D03*
D25*
X-78704Y198719D01*
X-78350Y198438D01*
D28*
X-86431Y208126D02*
X-97544Y219238D01*
X-86431Y208126D02*
X-86431Y173798D01*
D26*
X-97544Y219238D03*
D28*
X-54556Y141923D02*
X-25919Y141923D01*
X-9090Y125093D01*
X-9090Y116350D01*
X-54556Y141923D02*
X-86431Y173798D01*
X-92182Y202969D02*
X-111300Y222088D01*
X-124000Y222088D01*
X-57079Y137351D02*
X-27813Y137351D01*
X-57079Y137351D02*
X-92182Y172453D01*
X-27813Y137351D02*
X-14091Y123628D01*
X-92182Y172453D02*
X-92182Y202969D01*
X-14091Y123628D02*
X-14091Y116350D01*
D26*
X15045Y184980D03*
D29*
X8695Y178630D01*
X-908Y178630D01*
X-14288Y165250D02*
X-14288Y162075D01*
X-14288Y165250D02*
X-908Y178630D01*
D26*
X23382Y184732D03*
D29*
X-1588Y166688D02*
X-1588Y162075D01*
X22666Y184732D02*
X23382Y184732D01*
X13008Y175074D02*
X6799Y175074D01*
X13008Y175074D02*
X22666Y184732D01*
X6799Y175074D02*
X-1588Y166688D01*
D26*
X7595Y187907D03*
D29*
X-5919Y184732D02*
X-26988Y163663D01*
X-26988Y162075D01*
X4420Y184732D02*
X7595Y187907D01*
X4420Y184732D02*
X-5919Y184732D01*
D28*
X15917Y32073D02*
X15106Y31262D01*
D26*
X15106Y31262D03*
D28*
X15917Y32073D02*
X15917Y48750D01*
X10916Y38481D02*
X-100Y27466D01*
X-100Y7488D01*
X10916Y38481D02*
X10916Y48750D01*
D26*
X68263Y242888D03*
X48138Y183081D03*
D29*
X34925Y181088D02*
X29713Y181088D01*
X48138Y183081D02*
X61605Y196548D01*
X62290Y196548D01*
X68263Y202520D01*
X68263Y242888D01*
X29713Y181088D02*
X12700Y164075D01*
D28*
X34925Y181088D02*
X46145Y181088D01*
X48138Y183081D01*
D26*
X69850Y252738D03*
X46976Y172099D03*
D29*
X36599Y172099D02*
X28575Y164075D01*
X36599Y172099D02*
X46976Y172099D01*
X69850Y249169D02*
X69850Y252738D01*
X69850Y249169D02*
X73827Y245192D01*
X73827Y196177D01*
X58738Y181088D01*
D28*
X49749Y172099D01*
X46976Y172099D01*
M02*
