G04 EAGLE Gerber RS-274X export*
G75*
%MOMM*%
%FSLAX34Y34*%
%LPD*%
%INBottom Copper*%
%IPPOS*%
%AMOC8*
5,1,8,0,0,1.08239X$1,22.5*%
G01*
%ADD10R,1.100000X1.000000*%
%ADD11R,1.300000X1.500000*%
%ADD12R,1.000000X1.100000*%
%ADD13R,1.399997X0.400000*%
%ADD14C,1.000000*%
%ADD15R,0.812800X0.254000*%
%ADD16R,0.254000X0.812800*%
%ADD17R,5.511800X5.511800*%
%ADD18P,1.649562X8X202.500000*%
%ADD19C,1.524000*%
%ADD20R,1.400000X1.000000*%
%ADD21R,1.500000X1.300000*%
%ADD22R,0.800000X0.500000*%
%ADD23R,2.700000X1.600000*%
%ADD24C,0.254000*%
%ADD25C,1.016000*%
%ADD26C,0.756400*%
%ADD27C,0.406400*%
%ADD28C,0.609600*%
%ADD29C,0.304800*%

G36*
X305178Y219848D02*
X305178Y219848D01*
X305205Y219846D01*
X305379Y219868D01*
X305552Y219885D01*
X305577Y219893D01*
X305604Y219896D01*
X305770Y219952D01*
X305937Y220003D01*
X305960Y220016D01*
X305986Y220025D01*
X306137Y220112D01*
X306291Y220195D01*
X306311Y220212D01*
X306335Y220225D01*
X306588Y220440D01*
X314240Y228093D01*
X319394Y228093D01*
X319411Y228095D01*
X319429Y228093D01*
X319611Y228114D01*
X319794Y228133D01*
X319811Y228138D01*
X319829Y228140D01*
X320003Y228197D01*
X320179Y228251D01*
X320195Y228259D01*
X320212Y228265D01*
X320372Y228355D01*
X320533Y228443D01*
X320547Y228454D01*
X320562Y228463D01*
X320702Y228583D01*
X320842Y228700D01*
X320854Y228714D01*
X320867Y228726D01*
X320980Y228871D01*
X321095Y229014D01*
X321103Y229030D01*
X321114Y229044D01*
X321196Y229209D01*
X321280Y229371D01*
X321285Y229388D01*
X321293Y229404D01*
X321341Y229582D01*
X321392Y229758D01*
X321393Y229776D01*
X321398Y229793D01*
X321425Y230124D01*
X321425Y233657D01*
X321448Y233701D01*
X321456Y233727D01*
X321468Y233751D01*
X321514Y233920D01*
X321563Y234087D01*
X321566Y234114D01*
X321573Y234140D01*
X321600Y234471D01*
X321600Y237167D01*
X322939Y238507D01*
X373825Y238507D01*
X373842Y238509D01*
X373860Y238507D01*
X374042Y238528D01*
X374225Y238547D01*
X374242Y238552D01*
X374260Y238554D01*
X374434Y238611D01*
X374610Y238665D01*
X374626Y238673D01*
X374643Y238679D01*
X374803Y238769D01*
X374964Y238857D01*
X374978Y238868D01*
X374993Y238877D01*
X375133Y238997D01*
X375273Y239114D01*
X375285Y239128D01*
X375298Y239140D01*
X375411Y239285D01*
X375526Y239428D01*
X375534Y239444D01*
X375545Y239458D01*
X375627Y239623D01*
X375711Y239785D01*
X375716Y239802D01*
X375724Y239818D01*
X375772Y239996D01*
X375823Y240172D01*
X375824Y240190D01*
X375829Y240207D01*
X375856Y240538D01*
X375856Y292862D01*
X375854Y292880D01*
X375855Y292898D01*
X375834Y293080D01*
X375816Y293263D01*
X375811Y293280D01*
X375809Y293297D01*
X375752Y293472D01*
X375698Y293648D01*
X375689Y293663D01*
X375684Y293680D01*
X375593Y293840D01*
X375506Y294002D01*
X375495Y294015D01*
X375486Y294031D01*
X375366Y294170D01*
X375248Y294311D01*
X375234Y294322D01*
X375223Y294336D01*
X375078Y294448D01*
X374934Y294563D01*
X374919Y294571D01*
X374905Y294582D01*
X374740Y294664D01*
X374577Y294749D01*
X374560Y294754D01*
X374544Y294762D01*
X374366Y294809D01*
X374190Y294860D01*
X374172Y294862D01*
X374155Y294866D01*
X373825Y294893D01*
X321500Y294893D01*
X321483Y294891D01*
X321465Y294893D01*
X321283Y294872D01*
X321100Y294853D01*
X321083Y294848D01*
X321065Y294846D01*
X320891Y294789D01*
X320715Y294735D01*
X320699Y294727D01*
X320682Y294721D01*
X320522Y294631D01*
X320361Y294543D01*
X320347Y294532D01*
X320332Y294523D01*
X320192Y294403D01*
X320052Y294286D01*
X320040Y294272D01*
X320027Y294260D01*
X319914Y294115D01*
X319799Y293972D01*
X319791Y293956D01*
X319780Y293942D01*
X319698Y293777D01*
X319614Y293615D01*
X319609Y293598D01*
X319601Y293582D01*
X319553Y293403D01*
X319502Y293228D01*
X319501Y293210D01*
X319496Y293193D01*
X319469Y292862D01*
X319469Y266984D01*
X318121Y265636D01*
X318110Y265622D01*
X318096Y265610D01*
X317982Y265466D01*
X317866Y265324D01*
X317858Y265309D01*
X317847Y265295D01*
X317763Y265130D01*
X317678Y264969D01*
X317672Y264952D01*
X317664Y264936D01*
X317615Y264758D01*
X317563Y264583D01*
X317561Y264565D01*
X317556Y264548D01*
X317543Y264365D01*
X317526Y264182D01*
X317528Y264164D01*
X317527Y264146D01*
X317550Y263964D01*
X317570Y263781D01*
X317575Y263764D01*
X317577Y263747D01*
X317636Y263573D01*
X317691Y263398D01*
X317700Y263382D01*
X317706Y263365D01*
X317797Y263206D01*
X317886Y263045D01*
X317898Y263032D01*
X317907Y263016D01*
X318121Y262763D01*
X319469Y261415D01*
X319469Y241977D01*
X318130Y240637D01*
X308330Y240637D01*
X308313Y240635D01*
X308295Y240637D01*
X308113Y240616D01*
X307930Y240597D01*
X307913Y240592D01*
X307895Y240590D01*
X307721Y240533D01*
X307545Y240479D01*
X307529Y240471D01*
X307512Y240465D01*
X307352Y240375D01*
X307191Y240287D01*
X307177Y240276D01*
X307162Y240267D01*
X307022Y240147D01*
X306882Y240030D01*
X306870Y240016D01*
X306857Y240004D01*
X306744Y239859D01*
X306629Y239716D01*
X306621Y239700D01*
X306610Y239686D01*
X306528Y239521D01*
X306444Y239359D01*
X306439Y239342D01*
X306431Y239326D01*
X306383Y239147D01*
X306332Y238972D01*
X306331Y238954D01*
X306326Y238937D01*
X306299Y238606D01*
X306299Y234853D01*
X304960Y233513D01*
X293065Y233513D01*
X291949Y234630D01*
X291935Y234641D01*
X291923Y234655D01*
X291779Y234769D01*
X291637Y234885D01*
X291622Y234893D01*
X291608Y234904D01*
X291443Y234988D01*
X291282Y235073D01*
X291265Y235079D01*
X291249Y235087D01*
X291071Y235136D01*
X290896Y235188D01*
X290878Y235190D01*
X290861Y235195D01*
X290678Y235208D01*
X290495Y235225D01*
X290477Y235223D01*
X290459Y235224D01*
X290277Y235201D01*
X290094Y235181D01*
X290077Y235176D01*
X290060Y235174D01*
X289886Y235115D01*
X289711Y235060D01*
X289695Y235051D01*
X289678Y235045D01*
X289519Y234954D01*
X289358Y234865D01*
X289345Y234853D01*
X289329Y234844D01*
X289076Y234630D01*
X287960Y233513D01*
X276065Y233513D01*
X274557Y235022D01*
X274532Y235042D01*
X274512Y235065D01*
X274377Y235169D01*
X274245Y235277D01*
X274217Y235292D01*
X274193Y235311D01*
X273898Y235462D01*
X272225Y236155D01*
X270518Y237862D01*
X269594Y240093D01*
X269594Y241485D01*
X269592Y241498D01*
X269594Y241512D01*
X269573Y241698D01*
X269554Y241886D01*
X269550Y241898D01*
X269548Y241912D01*
X269491Y242091D01*
X269436Y242271D01*
X269429Y242282D01*
X269425Y242295D01*
X269334Y242459D01*
X269244Y242625D01*
X269235Y242635D01*
X269229Y242647D01*
X269106Y242790D01*
X268986Y242934D01*
X268976Y242942D01*
X268967Y242952D01*
X268818Y243069D01*
X268672Y243186D01*
X268661Y243192D01*
X268650Y243201D01*
X268481Y243286D01*
X268315Y243372D01*
X268302Y243375D01*
X268290Y243381D01*
X268109Y243431D01*
X267928Y243483D01*
X267915Y243484D01*
X267902Y243488D01*
X267715Y243500D01*
X267527Y243516D01*
X267514Y243514D01*
X267500Y243515D01*
X267315Y243491D01*
X267127Y243469D01*
X267114Y243465D01*
X267101Y243463D01*
X266785Y243362D01*
X266320Y243169D01*
X263905Y243169D01*
X261675Y244093D01*
X259968Y245800D01*
X259044Y248030D01*
X259044Y249693D01*
X259041Y249720D01*
X259043Y249747D01*
X259021Y249920D01*
X259004Y250094D01*
X258996Y250120D01*
X258993Y250146D01*
X258937Y250312D01*
X258886Y250479D01*
X258873Y250503D01*
X258864Y250528D01*
X258777Y250680D01*
X258694Y250833D01*
X258677Y250854D01*
X258663Y250877D01*
X258449Y251130D01*
X258351Y251228D01*
X258351Y254905D01*
X258348Y254936D01*
X258350Y254968D01*
X258328Y255137D01*
X258311Y255306D01*
X258302Y255336D01*
X258298Y255367D01*
X258196Y255683D01*
X257771Y256710D01*
X257771Y260754D01*
X257768Y260780D01*
X257770Y260807D01*
X257748Y260981D01*
X257731Y261155D01*
X257723Y261180D01*
X257720Y261207D01*
X257664Y261372D01*
X257613Y261539D01*
X257600Y261563D01*
X257591Y261588D01*
X257504Y261740D01*
X257421Y261893D01*
X257404Y261914D01*
X257391Y261937D01*
X257176Y262190D01*
X256351Y263015D01*
X256351Y279910D01*
X257690Y281249D01*
X260591Y281249D01*
X260617Y281252D01*
X260644Y281250D01*
X260818Y281272D01*
X260992Y281289D01*
X261017Y281297D01*
X261044Y281300D01*
X261209Y281356D01*
X261376Y281407D01*
X261400Y281420D01*
X261425Y281429D01*
X261577Y281516D01*
X261730Y281599D01*
X261751Y281616D01*
X261774Y281630D01*
X262027Y281844D01*
X264259Y284076D01*
X271021Y290838D01*
X295667Y290838D01*
X297750Y288754D01*
X297750Y285816D01*
X297752Y285803D01*
X297750Y285789D01*
X297771Y285603D01*
X297790Y285416D01*
X297794Y285403D01*
X297796Y285389D01*
X297853Y285211D01*
X297908Y285031D01*
X297915Y285019D01*
X297919Y285006D01*
X298011Y284842D01*
X298100Y284677D01*
X298109Y284666D01*
X298115Y284655D01*
X298238Y284511D01*
X298358Y284367D01*
X298368Y284359D01*
X298377Y284349D01*
X298526Y284232D01*
X298672Y284115D01*
X298683Y284109D01*
X298694Y284101D01*
X298863Y284016D01*
X299029Y283930D01*
X299042Y283926D01*
X299054Y283920D01*
X299236Y283870D01*
X299416Y283818D01*
X299429Y283817D01*
X299442Y283814D01*
X299629Y283801D01*
X299817Y283785D01*
X299830Y283787D01*
X299844Y283786D01*
X300030Y283810D01*
X300217Y283832D01*
X300230Y283836D01*
X300243Y283838D01*
X300377Y283881D01*
X303147Y283881D01*
X303156Y283882D01*
X303165Y283881D01*
X303357Y283902D01*
X303548Y283921D01*
X303557Y283924D01*
X303566Y283925D01*
X303748Y283982D01*
X303933Y284039D01*
X303941Y284044D01*
X303949Y284046D01*
X304118Y284139D01*
X304287Y284231D01*
X304294Y284237D01*
X304302Y284241D01*
X304449Y284366D01*
X304596Y284489D01*
X304602Y284496D01*
X304609Y284502D01*
X304728Y284652D01*
X304849Y284803D01*
X304853Y284810D01*
X304858Y284817D01*
X304946Y284990D01*
X305034Y285160D01*
X305037Y285168D01*
X305041Y285176D01*
X305093Y285363D01*
X305146Y285547D01*
X305146Y285556D01*
X305149Y285564D01*
X305163Y285757D01*
X305178Y285948D01*
X305177Y285957D01*
X305178Y285966D01*
X305154Y286158D01*
X305132Y286348D01*
X305129Y286356D01*
X305128Y286365D01*
X305066Y286548D01*
X305007Y286731D01*
X305002Y286739D01*
X304999Y286747D01*
X304903Y286914D01*
X304809Y287081D01*
X304803Y287088D01*
X304798Y287096D01*
X304584Y287349D01*
X301942Y289991D01*
X301942Y292960D01*
X301939Y292987D01*
X301941Y293014D01*
X301919Y293188D01*
X301902Y293361D01*
X301894Y293386D01*
X301891Y293413D01*
X301835Y293579D01*
X301784Y293746D01*
X301771Y293769D01*
X301762Y293795D01*
X301675Y293946D01*
X301592Y294100D01*
X301575Y294120D01*
X301562Y294144D01*
X301347Y294397D01*
X296683Y299061D01*
X296662Y299078D01*
X296644Y299098D01*
X296507Y299205D01*
X296371Y299316D01*
X296348Y299328D01*
X296326Y299345D01*
X296169Y299423D01*
X296015Y299505D01*
X295990Y299512D01*
X295966Y299524D01*
X295796Y299570D01*
X295630Y299619D01*
X295603Y299622D01*
X295577Y299629D01*
X295246Y299656D01*
X235064Y299656D01*
X227235Y307485D01*
X227218Y307499D01*
X227203Y307516D01*
X227063Y307626D01*
X226924Y307740D01*
X226904Y307750D01*
X226886Y307764D01*
X226726Y307845D01*
X226568Y307928D01*
X226547Y307935D01*
X226527Y307945D01*
X226354Y307992D01*
X226182Y308043D01*
X226160Y308045D01*
X226138Y308051D01*
X225960Y308063D01*
X225781Y308080D01*
X225759Y308077D01*
X225737Y308079D01*
X225560Y308056D01*
X225381Y308036D01*
X225360Y308029D01*
X225337Y308027D01*
X225022Y307925D01*
X224221Y307593D01*
X220279Y307593D01*
X216638Y309101D01*
X213851Y311888D01*
X212343Y315529D01*
X212343Y319471D01*
X213851Y323112D01*
X216638Y325899D01*
X219478Y327075D01*
X219490Y327081D01*
X219503Y327085D01*
X219667Y327176D01*
X219833Y327265D01*
X219844Y327274D01*
X219855Y327280D01*
X219999Y327402D01*
X220144Y327522D01*
X220152Y327532D01*
X220162Y327541D01*
X220279Y327688D01*
X220397Y327834D01*
X220404Y327846D01*
X220412Y327857D01*
X220497Y328024D01*
X220584Y328191D01*
X220588Y328204D01*
X220594Y328216D01*
X220645Y328397D01*
X220698Y328577D01*
X220699Y328590D01*
X220702Y328603D01*
X220716Y328792D01*
X220732Y328978D01*
X220731Y328991D01*
X220732Y329005D01*
X220708Y329192D01*
X220687Y329378D01*
X220683Y329391D01*
X220681Y329404D01*
X220622Y329582D01*
X220564Y329762D01*
X220557Y329773D01*
X220553Y329786D01*
X220459Y329949D01*
X220368Y330113D01*
X220359Y330123D01*
X220352Y330135D01*
X220137Y330388D01*
X218693Y331832D01*
X218693Y332293D01*
X218691Y332315D01*
X218693Y332338D01*
X218671Y332515D01*
X218653Y332694D01*
X218647Y332715D01*
X218644Y332737D01*
X218588Y332907D01*
X218535Y333079D01*
X218525Y333098D01*
X218518Y333119D01*
X218429Y333275D01*
X218343Y333433D01*
X218329Y333450D01*
X218318Y333469D01*
X218200Y333604D01*
X218086Y333742D01*
X218068Y333756D01*
X218054Y333773D01*
X217911Y333882D01*
X217772Y333994D01*
X217752Y334004D01*
X217734Y334018D01*
X217439Y334170D01*
X216638Y334501D01*
X213851Y337288D01*
X212343Y340929D01*
X212343Y344871D01*
X213851Y348512D01*
X216638Y351299D01*
X218854Y352216D01*
X218855Y352217D01*
X220279Y352807D01*
X224221Y352807D01*
X227862Y351299D01*
X228377Y350783D01*
X228391Y350772D01*
X228402Y350758D01*
X228546Y350645D01*
X228688Y350528D01*
X228704Y350520D01*
X228718Y350509D01*
X228881Y350426D01*
X229044Y350340D01*
X229061Y350335D01*
X229077Y350327D01*
X229254Y350277D01*
X229430Y350225D01*
X229448Y350223D01*
X229465Y350219D01*
X229648Y350205D01*
X229831Y350189D01*
X229849Y350190D01*
X229866Y350189D01*
X230049Y350212D01*
X230231Y350232D01*
X230248Y350237D01*
X230266Y350240D01*
X230440Y350298D01*
X230615Y350353D01*
X230631Y350362D01*
X230648Y350368D01*
X230807Y350460D01*
X230967Y350548D01*
X230981Y350560D01*
X230996Y350569D01*
X231249Y350783D01*
X231678Y351212D01*
X244572Y351212D01*
X245912Y349872D01*
X245912Y337978D01*
X244572Y336638D01*
X230840Y336638D01*
X230813Y336636D01*
X230787Y336638D01*
X230613Y336616D01*
X230439Y336598D01*
X230414Y336591D01*
X230387Y336587D01*
X230221Y336531D01*
X230054Y336480D01*
X230031Y336468D01*
X230005Y336459D01*
X229854Y336372D01*
X229700Y336288D01*
X229680Y336271D01*
X229657Y336258D01*
X229404Y336043D01*
X228409Y335049D01*
X228398Y335035D01*
X228384Y335024D01*
X228271Y334880D01*
X228154Y334737D01*
X228146Y334722D01*
X228135Y334708D01*
X228051Y334544D01*
X227965Y334382D01*
X227960Y334365D01*
X227952Y334349D01*
X227903Y334172D01*
X227851Y333996D01*
X227849Y333978D01*
X227844Y333961D01*
X227831Y333777D01*
X227814Y333595D01*
X227816Y333577D01*
X227815Y333559D01*
X227838Y333377D01*
X227858Y333195D01*
X227863Y333178D01*
X227865Y333160D01*
X227924Y332985D01*
X227979Y332811D01*
X227988Y332795D01*
X227993Y332778D01*
X228085Y332619D01*
X228174Y332458D01*
X228185Y332445D01*
X228194Y332429D01*
X228409Y332176D01*
X236983Y323603D01*
X236983Y315464D01*
X236985Y315437D01*
X236983Y315410D01*
X237005Y315236D01*
X237023Y315063D01*
X237030Y315038D01*
X237034Y315011D01*
X237089Y314845D01*
X237141Y314678D01*
X237154Y314655D01*
X237162Y314629D01*
X237249Y314478D01*
X237333Y314324D01*
X237350Y314304D01*
X237363Y314280D01*
X237578Y314027D01*
X239344Y312261D01*
X239365Y312244D01*
X239383Y312223D01*
X239520Y312116D01*
X239656Y312006D01*
X239679Y311993D01*
X239701Y311977D01*
X239858Y311899D01*
X240012Y311817D01*
X240037Y311809D01*
X240061Y311797D01*
X240231Y311752D01*
X240397Y311702D01*
X240424Y311700D01*
X240450Y311693D01*
X240781Y311666D01*
X297625Y311666D01*
X297642Y311668D01*
X297660Y311666D01*
X297842Y311687D01*
X298025Y311706D01*
X298042Y311711D01*
X298060Y311713D01*
X298234Y311770D01*
X298410Y311824D01*
X298426Y311832D01*
X298443Y311838D01*
X298603Y311928D01*
X298764Y312016D01*
X298778Y312027D01*
X298793Y312036D01*
X298933Y312156D01*
X299073Y312273D01*
X299085Y312287D01*
X299098Y312299D01*
X299211Y312444D01*
X299326Y312587D01*
X299334Y312603D01*
X299345Y312617D01*
X299427Y312782D01*
X299511Y312944D01*
X299516Y312961D01*
X299524Y312977D01*
X299572Y313155D01*
X299623Y313331D01*
X299624Y313349D01*
X299629Y313366D01*
X299656Y313697D01*
X299656Y313970D01*
X299654Y313987D01*
X299655Y314005D01*
X299634Y314187D01*
X299616Y314370D01*
X299611Y314387D01*
X299609Y314405D01*
X299552Y314579D01*
X299498Y314755D01*
X299489Y314771D01*
X299484Y314788D01*
X299393Y314948D01*
X299306Y315109D01*
X299295Y315123D01*
X299286Y315138D01*
X299166Y315278D01*
X299048Y315418D01*
X299034Y315430D01*
X299023Y315443D01*
X298878Y315556D01*
X298734Y315671D01*
X298719Y315679D01*
X298705Y315690D01*
X298540Y315772D01*
X298377Y315856D01*
X298360Y315861D01*
X298344Y315869D01*
X298166Y315917D01*
X297990Y315968D01*
X297972Y315969D01*
X297955Y315974D01*
X297625Y316001D01*
X296765Y316001D01*
X295426Y317340D01*
X295426Y329235D01*
X296542Y330351D01*
X296554Y330365D01*
X296567Y330377D01*
X296681Y330521D01*
X296797Y330663D01*
X296806Y330678D01*
X296817Y330692D01*
X296900Y330857D01*
X296986Y331018D01*
X296991Y331035D01*
X296999Y331051D01*
X297048Y331228D01*
X297101Y331404D01*
X297102Y331422D01*
X297107Y331439D01*
X297121Y331622D01*
X297137Y331805D01*
X297135Y331823D01*
X297137Y331841D01*
X297114Y332023D01*
X297094Y332206D01*
X297088Y332223D01*
X297086Y332240D01*
X297028Y332414D01*
X296972Y332589D01*
X296964Y332605D01*
X296958Y332622D01*
X296866Y332781D01*
X296777Y332942D01*
X296766Y332955D01*
X296757Y332971D01*
X296542Y333224D01*
X296111Y333655D01*
X296097Y333666D01*
X296086Y333680D01*
X295942Y333794D01*
X295800Y333910D01*
X295784Y333918D01*
X295770Y333929D01*
X295606Y334013D01*
X295444Y334098D01*
X295427Y334104D01*
X295411Y334112D01*
X295234Y334161D01*
X295058Y334213D01*
X295040Y334215D01*
X295023Y334220D01*
X294841Y334233D01*
X294657Y334250D01*
X294639Y334248D01*
X294622Y334249D01*
X294441Y334226D01*
X294257Y334206D01*
X294240Y334201D01*
X294222Y334199D01*
X294048Y334140D01*
X293873Y334085D01*
X293857Y334076D01*
X293840Y334070D01*
X293720Y334001D01*
X277690Y334001D01*
X276392Y335299D01*
X276385Y335305D01*
X276379Y335312D01*
X276230Y335432D01*
X276080Y335554D01*
X276072Y335559D01*
X276065Y335564D01*
X275895Y335653D01*
X275725Y335743D01*
X275716Y335746D01*
X275708Y335750D01*
X275524Y335803D01*
X275339Y335858D01*
X275330Y335859D01*
X275321Y335861D01*
X275130Y335877D01*
X274938Y335894D01*
X274929Y335893D01*
X274920Y335894D01*
X274731Y335872D01*
X274537Y335851D01*
X274529Y335848D01*
X274520Y335847D01*
X274338Y335788D01*
X274154Y335729D01*
X274146Y335725D01*
X274137Y335722D01*
X273970Y335628D01*
X273801Y335534D01*
X273794Y335529D01*
X273787Y335524D01*
X273642Y335399D01*
X273494Y335274D01*
X273489Y335267D01*
X273482Y335261D01*
X273365Y335111D01*
X273245Y334958D01*
X273241Y334950D01*
X273235Y334943D01*
X273150Y334772D01*
X273062Y334599D01*
X273060Y334591D01*
X273056Y334582D01*
X273006Y334397D01*
X272954Y334211D01*
X272954Y334202D01*
X272951Y334194D01*
X272924Y333863D01*
X272924Y325840D01*
X271585Y324501D01*
X255690Y324501D01*
X254351Y325840D01*
X254351Y337735D01*
X255690Y339074D01*
X259162Y339074D01*
X259184Y339076D01*
X259206Y339075D01*
X259384Y339096D01*
X259563Y339114D01*
X259584Y339121D01*
X259606Y339123D01*
X259777Y339180D01*
X259948Y339232D01*
X259967Y339243D01*
X259988Y339250D01*
X260144Y339339D01*
X260302Y339424D01*
X260319Y339438D01*
X260338Y339449D01*
X260473Y339567D01*
X260611Y339682D01*
X260625Y339699D01*
X260642Y339714D01*
X260751Y339856D01*
X260863Y339996D01*
X260873Y340015D01*
X260887Y340033D01*
X261039Y340328D01*
X261555Y341575D01*
X263262Y343282D01*
X265493Y344206D01*
X267907Y344206D01*
X270138Y343282D01*
X271845Y341575D01*
X272443Y340131D01*
X272445Y340127D01*
X272446Y340123D01*
X272541Y339948D01*
X272633Y339776D01*
X272636Y339773D01*
X272638Y339769D01*
X272764Y339618D01*
X272890Y339466D01*
X272893Y339463D01*
X272896Y339460D01*
X273048Y339337D01*
X273202Y339212D01*
X273206Y339210D01*
X273210Y339207D01*
X273385Y339117D01*
X273559Y339025D01*
X273563Y339024D01*
X273567Y339022D01*
X273756Y338967D01*
X273945Y338912D01*
X273949Y338912D01*
X273954Y338911D01*
X274152Y338894D01*
X274346Y338878D01*
X274351Y338878D01*
X274355Y338878D01*
X274553Y338901D01*
X274746Y338923D01*
X274750Y338924D01*
X274755Y338925D01*
X274944Y338986D01*
X275130Y339046D01*
X275133Y339048D01*
X275138Y339049D01*
X275310Y339147D01*
X275481Y339242D01*
X275484Y339245D01*
X275488Y339247D01*
X275637Y339376D01*
X275787Y339504D01*
X275790Y339508D01*
X275793Y339510D01*
X275913Y339665D01*
X276035Y339821D01*
X276037Y339825D01*
X276040Y339829D01*
X276128Y340005D01*
X276216Y340181D01*
X276217Y340185D01*
X276219Y340189D01*
X276271Y340382D01*
X276322Y340569D01*
X276323Y340574D01*
X276324Y340578D01*
X276351Y340909D01*
X276351Y347235D01*
X277690Y348574D01*
X290651Y348574D01*
X290664Y348576D01*
X290678Y348574D01*
X290864Y348595D01*
X291052Y348614D01*
X291064Y348618D01*
X291078Y348620D01*
X291257Y348677D01*
X291436Y348732D01*
X291448Y348739D01*
X291461Y348743D01*
X291625Y348835D01*
X291790Y348924D01*
X291801Y348933D01*
X291812Y348939D01*
X291956Y349062D01*
X292100Y349182D01*
X292108Y349192D01*
X292118Y349201D01*
X292235Y349350D01*
X292352Y349496D01*
X292358Y349507D01*
X292367Y349518D01*
X292451Y349687D01*
X292538Y349853D01*
X292541Y349866D01*
X292547Y349878D01*
X292597Y350059D01*
X292649Y350240D01*
X292650Y350253D01*
X292654Y350266D01*
X292666Y350453D01*
X292682Y350641D01*
X292680Y350654D01*
X292681Y350668D01*
X292657Y350854D01*
X292635Y351041D01*
X292631Y351054D01*
X292629Y351067D01*
X292527Y351383D01*
X292381Y351736D01*
X292381Y354150D01*
X293305Y356381D01*
X295012Y358088D01*
X297243Y359012D01*
X299657Y359012D01*
X301888Y358088D01*
X302881Y357095D01*
X302901Y357078D01*
X302919Y357057D01*
X303057Y356950D01*
X303192Y356840D01*
X303216Y356827D01*
X303237Y356811D01*
X303394Y356733D01*
X303548Y356651D01*
X303574Y356643D01*
X303598Y356631D01*
X303767Y356586D01*
X303934Y356536D01*
X303961Y356534D01*
X303986Y356527D01*
X304317Y356500D01*
X307861Y356500D01*
X316191Y348169D01*
X316212Y348152D01*
X316230Y348132D01*
X316367Y348025D01*
X316503Y347914D01*
X316526Y347902D01*
X316548Y347885D01*
X316705Y347807D01*
X316859Y347725D01*
X316884Y347718D01*
X316908Y347706D01*
X317078Y347660D01*
X317244Y347611D01*
X317271Y347608D01*
X317297Y347601D01*
X317628Y347574D01*
X322436Y347574D01*
X322463Y347577D01*
X322490Y347575D01*
X322664Y347597D01*
X322837Y347614D01*
X322863Y347622D01*
X322889Y347625D01*
X323055Y347681D01*
X323222Y347732D01*
X323246Y347745D01*
X323271Y347754D01*
X323423Y347841D01*
X323576Y347924D01*
X323596Y347941D01*
X323620Y347954D01*
X323873Y348169D01*
X333273Y357569D01*
X367573Y357569D01*
X367599Y357572D01*
X367626Y357570D01*
X367800Y357592D01*
X367973Y357609D01*
X367999Y357617D01*
X368026Y357620D01*
X368191Y357676D01*
X368358Y357727D01*
X368382Y357740D01*
X368407Y357749D01*
X368558Y357836D01*
X368712Y357919D01*
X368733Y357936D01*
X368756Y357949D01*
X369009Y358164D01*
X372086Y361241D01*
X372103Y361262D01*
X372123Y361279D01*
X372230Y361417D01*
X372341Y361552D01*
X372353Y361576D01*
X372370Y361597D01*
X372448Y361754D01*
X372530Y361908D01*
X372537Y361934D01*
X372549Y361958D01*
X372555Y361979D01*
X374067Y363491D01*
X374084Y363512D01*
X374104Y363529D01*
X374211Y363667D01*
X374322Y363803D01*
X374334Y363826D01*
X374351Y363848D01*
X374429Y364004D01*
X374511Y364158D01*
X374518Y364184D01*
X374530Y364208D01*
X374576Y364377D01*
X374625Y364544D01*
X374628Y364571D01*
X374635Y364597D01*
X374662Y364928D01*
X374662Y366332D01*
X375586Y368563D01*
X377293Y370270D01*
X379523Y371194D01*
X381938Y371194D01*
X384168Y370270D01*
X386003Y368435D01*
X386010Y368430D01*
X386015Y368423D01*
X386165Y368302D01*
X386314Y368180D01*
X386322Y368176D01*
X386329Y368170D01*
X386499Y368082D01*
X386670Y367992D01*
X386679Y367989D01*
X386686Y367985D01*
X386871Y367932D01*
X387056Y367877D01*
X387065Y367876D01*
X387073Y367873D01*
X387264Y367858D01*
X387457Y367840D01*
X387466Y367841D01*
X387475Y367841D01*
X387664Y367863D01*
X387857Y367884D01*
X387866Y367886D01*
X387874Y367888D01*
X388056Y367947D01*
X388241Y368005D01*
X388249Y368010D01*
X388257Y368012D01*
X388424Y368107D01*
X388593Y368200D01*
X388600Y368206D01*
X388608Y368210D01*
X388753Y368335D01*
X388900Y368461D01*
X388906Y368468D01*
X388913Y368473D01*
X389028Y368623D01*
X389150Y368777D01*
X389154Y368785D01*
X389159Y368792D01*
X389245Y368964D01*
X389332Y369135D01*
X389335Y369144D01*
X389339Y369152D01*
X389388Y369338D01*
X389440Y369523D01*
X389441Y369532D01*
X389443Y369541D01*
X389470Y369872D01*
X389470Y372816D01*
X396231Y379577D01*
X396248Y379597D01*
X396268Y379615D01*
X396375Y379753D01*
X396486Y379888D01*
X396498Y379912D01*
X396515Y379933D01*
X396593Y380090D01*
X396675Y380244D01*
X396682Y380269D01*
X396694Y380293D01*
X396740Y380463D01*
X396789Y380630D01*
X396792Y380656D01*
X396799Y380682D01*
X396826Y381013D01*
X396826Y381272D01*
X398165Y382612D01*
X401669Y382612D01*
X401695Y382614D01*
X401722Y382612D01*
X401896Y382634D01*
X402069Y382652D01*
X402095Y382659D01*
X402121Y382663D01*
X402287Y382718D01*
X402454Y382770D01*
X402478Y382783D01*
X402503Y382791D01*
X402655Y382878D01*
X402808Y382962D01*
X402829Y382979D01*
X402852Y382992D01*
X403105Y383207D01*
X403122Y383223D01*
X403296Y383223D01*
X403305Y383224D01*
X403314Y383223D01*
X403507Y383244D01*
X403697Y383263D01*
X403705Y383266D01*
X403714Y383267D01*
X403899Y383325D01*
X404082Y383381D01*
X404090Y383386D01*
X404098Y383388D01*
X404266Y383481D01*
X404436Y383573D01*
X404443Y383579D01*
X404450Y383583D01*
X404598Y383708D01*
X404745Y383831D01*
X404751Y383838D01*
X404757Y383844D01*
X404876Y383994D01*
X404997Y384145D01*
X405002Y384152D01*
X405007Y384159D01*
X405095Y384332D01*
X405183Y384502D01*
X405185Y384510D01*
X405189Y384518D01*
X405241Y384705D01*
X405294Y384889D01*
X405295Y384898D01*
X405297Y384906D01*
X405312Y385099D01*
X405327Y385290D01*
X405326Y385299D01*
X405327Y385308D01*
X405303Y385499D01*
X405280Y385690D01*
X405278Y385698D01*
X405276Y385707D01*
X405215Y385889D01*
X405155Y386073D01*
X405151Y386081D01*
X405148Y386089D01*
X405052Y386256D01*
X404958Y386423D01*
X404952Y386430D01*
X404947Y386438D01*
X404733Y386691D01*
X403105Y388318D01*
X403084Y388335D01*
X403067Y388356D01*
X402929Y388463D01*
X402794Y388573D01*
X402770Y388586D01*
X402749Y388602D01*
X402592Y388680D01*
X402438Y388762D01*
X402412Y388770D01*
X402388Y388782D01*
X402219Y388827D01*
X402052Y388877D01*
X402025Y388879D01*
X401999Y388886D01*
X401669Y388913D01*
X398165Y388913D01*
X396826Y390253D01*
X396826Y393538D01*
X396824Y393555D01*
X396825Y393573D01*
X396804Y393755D01*
X396786Y393938D01*
X396781Y393955D01*
X396779Y393973D01*
X396722Y394147D01*
X396668Y394323D01*
X396659Y394339D01*
X396654Y394356D01*
X396563Y394516D01*
X396476Y394677D01*
X396465Y394691D01*
X396456Y394706D01*
X396336Y394846D01*
X396218Y394986D01*
X396204Y394998D01*
X396193Y395011D01*
X396048Y395124D01*
X395904Y395239D01*
X395889Y395247D01*
X395875Y395258D01*
X395710Y395340D01*
X395547Y395424D01*
X395530Y395429D01*
X395514Y395437D01*
X395336Y395485D01*
X395160Y395536D01*
X395142Y395537D01*
X395125Y395542D01*
X394795Y395569D01*
X393327Y395569D01*
X391097Y396493D01*
X390731Y396859D01*
X390716Y396871D01*
X390704Y396885D01*
X390561Y396998D01*
X390419Y397114D01*
X390403Y397123D01*
X390388Y397134D01*
X390225Y397217D01*
X390063Y397303D01*
X390046Y397308D01*
X390029Y397316D01*
X389852Y397365D01*
X389677Y397417D01*
X389659Y397419D01*
X389641Y397424D01*
X389459Y397437D01*
X389276Y397454D01*
X389258Y397452D01*
X389239Y397453D01*
X389059Y397430D01*
X388876Y397410D01*
X388858Y397405D01*
X388840Y397402D01*
X388667Y397344D01*
X388492Y397289D01*
X388476Y397280D01*
X388458Y397274D01*
X388388Y397233D01*
X385892Y396199D01*
X383477Y396199D01*
X381247Y397123D01*
X380979Y397391D01*
X380955Y397411D01*
X380934Y397434D01*
X380799Y397538D01*
X380667Y397646D01*
X380640Y397661D01*
X380615Y397680D01*
X380320Y397831D01*
X378448Y398607D01*
X376948Y400107D01*
X376424Y400631D01*
X376403Y400648D01*
X376386Y400668D01*
X376248Y400775D01*
X376113Y400886D01*
X376089Y400898D01*
X376068Y400915D01*
X375911Y400993D01*
X375757Y401075D01*
X375731Y401082D01*
X375707Y401094D01*
X375539Y401139D01*
X375371Y401189D01*
X375344Y401192D01*
X375318Y401199D01*
X374988Y401226D01*
X368703Y401226D01*
X367363Y402565D01*
X367363Y415460D01*
X368703Y416799D01*
X380597Y416799D01*
X381937Y415460D01*
X381937Y410368D01*
X381939Y410350D01*
X381937Y410332D01*
X381958Y410150D01*
X381977Y409967D01*
X381982Y409950D01*
X381984Y409933D01*
X382041Y409758D01*
X382095Y409582D01*
X382103Y409567D01*
X382109Y409550D01*
X382199Y409390D01*
X382287Y409228D01*
X382298Y409215D01*
X382307Y409199D01*
X382427Y409060D01*
X382544Y408919D01*
X382558Y408908D01*
X382570Y408894D01*
X382715Y408782D01*
X382858Y408667D01*
X382874Y408659D01*
X382888Y408648D01*
X383053Y408566D01*
X383215Y408481D01*
X383232Y408476D01*
X383248Y408468D01*
X383427Y408421D01*
X383602Y408370D01*
X383620Y408368D01*
X383637Y408364D01*
X383968Y408337D01*
X385892Y408337D01*
X388122Y407413D01*
X388488Y407047D01*
X388502Y407035D01*
X388514Y407022D01*
X388658Y406908D01*
X388800Y406791D01*
X388816Y406783D01*
X388830Y406772D01*
X388993Y406689D01*
X389156Y406603D01*
X389173Y406598D01*
X389189Y406590D01*
X389365Y406540D01*
X389541Y406488D01*
X389559Y406486D01*
X389577Y406482D01*
X389759Y406468D01*
X389942Y406452D01*
X389960Y406454D01*
X389978Y406452D01*
X390160Y406475D01*
X390343Y406495D01*
X390360Y406500D01*
X390377Y406503D01*
X390552Y406561D01*
X390727Y406617D01*
X390742Y406625D01*
X390759Y406631D01*
X390831Y406672D01*
X393097Y407611D01*
X393116Y407621D01*
X393138Y407628D01*
X393294Y407716D01*
X393452Y407801D01*
X393469Y407815D01*
X393488Y407826D01*
X393624Y407943D01*
X393762Y408057D01*
X393776Y408075D01*
X393793Y408089D01*
X393903Y408231D01*
X394016Y408370D01*
X394026Y408390D01*
X394040Y408407D01*
X394120Y408568D01*
X394203Y408726D01*
X394209Y408748D01*
X394219Y408768D01*
X394266Y408942D01*
X394316Y409113D01*
X394318Y409135D01*
X394324Y409157D01*
X394351Y409487D01*
X394351Y415460D01*
X395690Y416799D01*
X407585Y416799D01*
X408924Y415460D01*
X408924Y402565D01*
X407889Y401530D01*
X407878Y401516D01*
X407864Y401505D01*
X407750Y401361D01*
X407634Y401219D01*
X407626Y401203D01*
X407614Y401189D01*
X407531Y401025D01*
X407445Y400863D01*
X407440Y400846D01*
X407432Y400830D01*
X407383Y400653D01*
X407331Y400477D01*
X407329Y400459D01*
X407324Y400442D01*
X407311Y400259D01*
X407294Y400076D01*
X407296Y400058D01*
X407295Y400040D01*
X407318Y399858D01*
X407338Y399676D01*
X407343Y399659D01*
X407345Y399641D01*
X407403Y399467D01*
X407459Y399292D01*
X407468Y399276D01*
X407473Y399259D01*
X407565Y399101D01*
X407654Y398940D01*
X407665Y398926D01*
X407674Y398910D01*
X407889Y398657D01*
X409431Y397116D01*
X409439Y397030D01*
X409443Y397017D01*
X409445Y397004D01*
X409502Y396826D01*
X409557Y396645D01*
X409564Y396633D01*
X409568Y396621D01*
X409660Y396456D01*
X409749Y396291D01*
X409758Y396281D01*
X409764Y396269D01*
X409887Y396125D01*
X410007Y395982D01*
X410017Y395973D01*
X410026Y395963D01*
X410175Y395847D01*
X410321Y395729D01*
X410332Y395723D01*
X410343Y395715D01*
X410512Y395630D01*
X410678Y395544D01*
X410691Y395540D01*
X410703Y395534D01*
X410885Y395484D01*
X411065Y395433D01*
X411078Y395431D01*
X411091Y395428D01*
X411278Y395415D01*
X411466Y395400D01*
X411479Y395401D01*
X411493Y395400D01*
X411679Y395425D01*
X411866Y395447D01*
X411879Y395451D01*
X411892Y395452D01*
X412208Y395554D01*
X414718Y396594D01*
X417132Y396594D01*
X419363Y395670D01*
X420102Y394931D01*
X420123Y394914D01*
X420140Y394893D01*
X420278Y394786D01*
X420413Y394676D01*
X420437Y394663D01*
X420458Y394647D01*
X420615Y394569D01*
X420769Y394487D01*
X420795Y394479D01*
X420819Y394467D01*
X420988Y394422D01*
X421155Y394372D01*
X421182Y394370D01*
X421207Y394363D01*
X421538Y394336D01*
X425441Y394336D01*
X427673Y392103D01*
X427673Y373447D01*
X421675Y367449D01*
X419918Y367449D01*
X419900Y367447D01*
X419882Y367449D01*
X419700Y367428D01*
X419517Y367409D01*
X419500Y367404D01*
X419483Y367402D01*
X419308Y367345D01*
X419132Y367291D01*
X419117Y367283D01*
X419100Y367277D01*
X418940Y367187D01*
X418778Y367099D01*
X418765Y367088D01*
X418749Y367079D01*
X418610Y366959D01*
X418469Y366842D01*
X418458Y366828D01*
X418444Y366816D01*
X418332Y366671D01*
X418217Y366528D01*
X418209Y366512D01*
X418198Y366498D01*
X418116Y366333D01*
X418031Y366171D01*
X418026Y366154D01*
X418018Y366138D01*
X417970Y365959D01*
X417920Y365784D01*
X417918Y365766D01*
X417914Y365749D01*
X417887Y365418D01*
X417887Y358494D01*
X417889Y358467D01*
X417887Y358440D01*
X417909Y358267D01*
X417927Y358093D01*
X417934Y358068D01*
X417938Y358041D01*
X417994Y357875D01*
X418045Y357708D01*
X418058Y357685D01*
X418066Y357659D01*
X418153Y357508D01*
X418237Y357354D01*
X418254Y357334D01*
X418267Y357310D01*
X418482Y357057D01*
X420904Y354635D01*
X421192Y353941D01*
X421202Y353921D01*
X421209Y353900D01*
X421298Y353743D01*
X421382Y353586D01*
X421396Y353569D01*
X421407Y353549D01*
X421524Y353414D01*
X421638Y353275D01*
X421656Y353261D01*
X421670Y353244D01*
X421812Y353135D01*
X421951Y353022D01*
X421971Y353011D01*
X421988Y352998D01*
X422149Y352918D01*
X422308Y352835D01*
X422329Y352828D01*
X422349Y352818D01*
X422523Y352772D01*
X422694Y352722D01*
X422716Y352720D01*
X422738Y352714D01*
X423068Y352687D01*
X430945Y352687D01*
X430962Y352689D01*
X430980Y352687D01*
X431162Y352708D01*
X431345Y352727D01*
X431362Y352732D01*
X431380Y352734D01*
X431554Y352791D01*
X431730Y352845D01*
X431746Y352853D01*
X431763Y352859D01*
X431923Y352949D01*
X432084Y353037D01*
X432098Y353048D01*
X432113Y353057D01*
X432253Y353177D01*
X432393Y353294D01*
X432405Y353308D01*
X432418Y353320D01*
X432530Y353465D01*
X432646Y353608D01*
X432654Y353624D01*
X432665Y353638D01*
X432747Y353803D01*
X432831Y353965D01*
X432836Y353982D01*
X432844Y353998D01*
X432892Y354177D01*
X432943Y354352D01*
X432944Y354370D01*
X432949Y354387D01*
X432976Y354718D01*
X432976Y361547D01*
X434315Y362887D01*
X441100Y362887D01*
X441127Y362889D01*
X441154Y362887D01*
X441327Y362909D01*
X441501Y362927D01*
X441526Y362934D01*
X441553Y362938D01*
X441719Y362993D01*
X441886Y363045D01*
X441909Y363058D01*
X441935Y363066D01*
X442086Y363153D01*
X442240Y363237D01*
X442260Y363254D01*
X442284Y363267D01*
X442537Y363482D01*
X451461Y372406D01*
X451478Y372427D01*
X451498Y372444D01*
X451605Y372582D01*
X451716Y372717D01*
X451728Y372741D01*
X451745Y372762D01*
X451823Y372919D01*
X451905Y373073D01*
X451912Y373099D01*
X451924Y373123D01*
X451970Y373292D01*
X452019Y373459D01*
X452022Y373486D01*
X452029Y373512D01*
X452056Y373842D01*
X452056Y375578D01*
X457859Y381382D01*
X466066Y381382D01*
X471869Y375578D01*
X471869Y367372D01*
X466066Y361568D01*
X457859Y361568D01*
X456785Y362642D01*
X456771Y362654D01*
X456760Y362667D01*
X456616Y362781D01*
X456474Y362897D01*
X456458Y362906D01*
X456444Y362917D01*
X456280Y363000D01*
X456118Y363086D01*
X456101Y363091D01*
X456085Y363099D01*
X455908Y363148D01*
X455732Y363201D01*
X455714Y363202D01*
X455697Y363207D01*
X455514Y363221D01*
X455331Y363237D01*
X455313Y363235D01*
X455295Y363237D01*
X455113Y363214D01*
X454931Y363194D01*
X454914Y363188D01*
X454896Y363186D01*
X454722Y363128D01*
X454547Y363072D01*
X454531Y363064D01*
X454514Y363058D01*
X454355Y362966D01*
X454194Y362877D01*
X454181Y362866D01*
X454165Y362857D01*
X453912Y362642D01*
X449144Y357874D01*
X449127Y357853D01*
X449107Y357836D01*
X449000Y357698D01*
X448889Y357563D01*
X448876Y357539D01*
X448860Y357518D01*
X448783Y357362D01*
X448700Y357207D01*
X448693Y357181D01*
X448681Y357157D01*
X448635Y356988D01*
X448586Y356821D01*
X448583Y356794D01*
X448576Y356768D01*
X448549Y356438D01*
X448549Y349653D01*
X447210Y348313D01*
X443738Y348313D01*
X443720Y348311D01*
X443702Y348313D01*
X443520Y348292D01*
X443337Y348273D01*
X443320Y348268D01*
X443303Y348266D01*
X443128Y348209D01*
X442952Y348155D01*
X442937Y348147D01*
X442920Y348141D01*
X442760Y348051D01*
X442598Y347963D01*
X442585Y347952D01*
X442569Y347943D01*
X442430Y347823D01*
X442289Y347706D01*
X442278Y347692D01*
X442264Y347680D01*
X442152Y347535D01*
X442037Y347392D01*
X442029Y347376D01*
X442018Y347362D01*
X441936Y347197D01*
X441851Y347035D01*
X441846Y347018D01*
X441838Y347002D01*
X441791Y346823D01*
X441740Y346648D01*
X441738Y346630D01*
X441734Y346613D01*
X441707Y346282D01*
X441707Y345215D01*
X441709Y345188D01*
X441707Y345161D01*
X441729Y344987D01*
X441747Y344814D01*
X441754Y344789D01*
X441758Y344762D01*
X441800Y344636D01*
X441800Y329497D01*
X441801Y329488D01*
X441800Y329479D01*
X441821Y329285D01*
X441840Y329096D01*
X441843Y329088D01*
X441844Y329079D01*
X441902Y328894D01*
X441958Y328711D01*
X441963Y328703D01*
X441965Y328695D01*
X442058Y328526D01*
X442150Y328357D01*
X442156Y328350D01*
X442160Y328342D01*
X442285Y328195D01*
X442408Y328048D01*
X442415Y328042D01*
X442421Y328035D01*
X442572Y327916D01*
X442722Y327795D01*
X442729Y327791D01*
X442736Y327786D01*
X442909Y327698D01*
X443079Y327610D01*
X443087Y327607D01*
X443095Y327603D01*
X443282Y327551D01*
X443466Y327499D01*
X443475Y327498D01*
X443483Y327495D01*
X443676Y327481D01*
X443867Y327466D01*
X443876Y327467D01*
X443885Y327466D01*
X444077Y327490D01*
X444267Y327513D01*
X444275Y327515D01*
X444284Y327516D01*
X444466Y327578D01*
X444650Y327637D01*
X444658Y327642D01*
X444666Y327645D01*
X444833Y327741D01*
X445000Y327835D01*
X445007Y327841D01*
X445015Y327846D01*
X445268Y328060D01*
X462443Y345235D01*
X462460Y345256D01*
X462480Y345273D01*
X462587Y345411D01*
X462698Y345547D01*
X462710Y345570D01*
X462727Y345591D01*
X462805Y345748D01*
X462886Y345902D01*
X462894Y345928D01*
X462906Y345952D01*
X462951Y346121D01*
X463001Y346288D01*
X463003Y346315D01*
X463010Y346341D01*
X463038Y346671D01*
X463038Y348076D01*
X463961Y350306D01*
X465669Y352014D01*
X467899Y352937D01*
X470313Y352937D01*
X472544Y352014D01*
X474251Y350306D01*
X475175Y348076D01*
X475175Y345662D01*
X474695Y344503D01*
X474691Y344490D01*
X474685Y344478D01*
X474633Y344297D01*
X474579Y344117D01*
X474577Y344104D01*
X474574Y344091D01*
X474558Y343902D01*
X474540Y343717D01*
X474542Y343703D01*
X474541Y343690D01*
X474563Y343503D01*
X474582Y343316D01*
X474586Y343303D01*
X474588Y343290D01*
X474646Y343112D01*
X474702Y342932D01*
X474708Y342920D01*
X474712Y342907D01*
X474805Y342744D01*
X474895Y342579D01*
X474904Y342568D01*
X474910Y342557D01*
X475033Y342414D01*
X475154Y342270D01*
X475165Y342262D01*
X475173Y342252D01*
X475321Y342137D01*
X475469Y342019D01*
X475481Y342013D01*
X475492Y342005D01*
X475659Y341922D01*
X475827Y341836D01*
X475840Y341832D01*
X475852Y341826D01*
X476035Y341777D01*
X476215Y341726D01*
X476228Y341725D01*
X476241Y341721D01*
X476572Y341694D01*
X483460Y341694D01*
X483487Y341697D01*
X483514Y341695D01*
X483688Y341717D01*
X483861Y341734D01*
X483886Y341742D01*
X483913Y341745D01*
X484079Y341801D01*
X484246Y341852D01*
X484269Y341865D01*
X484295Y341874D01*
X484446Y341961D01*
X484600Y342044D01*
X484620Y342061D01*
X484644Y342074D01*
X484897Y342289D01*
X486386Y343778D01*
X486403Y343799D01*
X486423Y343817D01*
X486530Y343954D01*
X486641Y344090D01*
X486653Y344113D01*
X486670Y344135D01*
X486748Y344292D01*
X486830Y344446D01*
X486837Y344471D01*
X486849Y344495D01*
X486895Y344665D01*
X486944Y344831D01*
X486947Y344858D01*
X486954Y344884D01*
X486981Y345215D01*
X486981Y370453D01*
X486964Y370616D01*
X486954Y370780D01*
X486945Y370816D01*
X486941Y370854D01*
X486893Y371011D01*
X486850Y371169D01*
X486832Y371207D01*
X486823Y371238D01*
X486781Y371315D01*
X486708Y371469D01*
X478715Y385302D01*
X478633Y385416D01*
X478558Y385534D01*
X478516Y385579D01*
X478480Y385629D01*
X478377Y385725D01*
X478281Y385826D01*
X478230Y385861D01*
X478185Y385904D01*
X478065Y385977D01*
X477951Y386057D01*
X477894Y386082D01*
X477842Y386114D01*
X477710Y386162D01*
X477582Y386218D01*
X477513Y386235D01*
X477464Y386253D01*
X477384Y386265D01*
X477259Y386295D01*
X476963Y386339D01*
X476896Y386343D01*
X476661Y386362D01*
X475773Y386362D01*
X475730Y386392D01*
X475616Y386443D01*
X475505Y386501D01*
X475432Y386523D01*
X475362Y386554D01*
X475203Y386591D01*
X475119Y386616D01*
X475083Y386619D01*
X475039Y386630D01*
X474182Y386759D01*
X474105Y386763D01*
X474030Y386777D01*
X473904Y386774D01*
X473779Y386780D01*
X473704Y386769D01*
X473627Y386767D01*
X473505Y386739D01*
X473395Y386723D01*
X472553Y386983D01*
X472487Y386996D01*
X472257Y387050D01*
X471380Y387183D01*
X471342Y387219D01*
X471236Y387285D01*
X471135Y387360D01*
X471066Y387393D01*
X471001Y387433D01*
X470850Y387494D01*
X470771Y387531D01*
X470736Y387540D01*
X470693Y387557D01*
X469865Y387813D01*
X469790Y387828D01*
X469717Y387852D01*
X469593Y387868D01*
X469470Y387893D01*
X469394Y387893D01*
X469318Y387902D01*
X469193Y387893D01*
X469081Y387893D01*
X468288Y388276D01*
X468224Y388299D01*
X468005Y388387D01*
X467157Y388649D01*
X467125Y388690D01*
X467030Y388772D01*
X466942Y388861D01*
X466878Y388903D01*
X466820Y388953D01*
X466680Y389036D01*
X466607Y389084D01*
X466574Y389098D01*
X466534Y389121D01*
X465753Y389497D01*
X465682Y389524D01*
X465613Y389559D01*
X465493Y389593D01*
X465375Y389635D01*
X465299Y389647D01*
X465226Y389668D01*
X465101Y389677D01*
X464991Y389694D01*
X464263Y390191D01*
X464203Y390223D01*
X464000Y390343D01*
X463201Y390728D01*
X463175Y390773D01*
X463093Y390869D01*
X463019Y390969D01*
X462963Y391021D01*
X462913Y391079D01*
X462786Y391182D01*
X462721Y391240D01*
X462691Y391259D01*
X462655Y391288D01*
X461939Y391776D01*
X461871Y391813D01*
X461809Y391857D01*
X461696Y391909D01*
X461585Y391969D01*
X461512Y391992D01*
X461443Y392023D01*
X461320Y392051D01*
X461214Y392084D01*
X460568Y392684D01*
X460515Y392724D01*
X460331Y392873D01*
X459598Y393373D01*
X459579Y393422D01*
X459513Y393528D01*
X459455Y393639D01*
X459406Y393698D01*
X459366Y393763D01*
X459255Y393884D01*
X459200Y393951D01*
X459173Y393974D01*
X459142Y394008D01*
X458506Y394598D01*
X458445Y394644D01*
X458391Y394698D01*
X458286Y394766D01*
X458186Y394841D01*
X458117Y394875D01*
X458053Y394916D01*
X457936Y394962D01*
X457836Y395011D01*
X457286Y395700D01*
X457240Y395748D01*
X457080Y395922D01*
X456430Y396526D01*
X456419Y396577D01*
X456369Y396692D01*
X456328Y396811D01*
X456289Y396876D01*
X456258Y396947D01*
X456167Y397082D01*
X456123Y397157D01*
X456099Y397184D01*
X456073Y397222D01*
X455533Y397900D01*
X455480Y397955D01*
X455433Y398016D01*
X455339Y398099D01*
X455252Y398188D01*
X455189Y398232D01*
X455132Y398282D01*
X455023Y398345D01*
X454931Y398408D01*
X454491Y399171D01*
X454452Y399225D01*
X454320Y399422D01*
X453767Y400116D01*
X453764Y400168D01*
X453731Y400289D01*
X453708Y400412D01*
X453680Y400483D01*
X453660Y400557D01*
X453590Y400705D01*
X453558Y400786D01*
X453538Y400816D01*
X453518Y400857D01*
X453085Y401608D01*
X453040Y401670D01*
X453004Y401737D01*
X452923Y401834D01*
X452850Y401935D01*
X452794Y401987D01*
X452745Y402046D01*
X452647Y402124D01*
X452566Y402200D01*
X452244Y403021D01*
X452213Y403080D01*
X452112Y403294D01*
X451669Y404063D01*
X451673Y404115D01*
X451660Y404239D01*
X451655Y404364D01*
X451637Y404439D01*
X451629Y404515D01*
X451582Y404671D01*
X451562Y404756D01*
X451547Y404789D01*
X451533Y404833D01*
X451217Y405640D01*
X451203Y405667D01*
X451196Y405689D01*
X451177Y405723D01*
X451156Y405780D01*
X451091Y405887D01*
X451034Y405998D01*
X450986Y406058D01*
X450946Y406123D01*
X450861Y406215D01*
X450792Y406303D01*
X450596Y407162D01*
X450574Y407226D01*
X450506Y407452D01*
X450182Y408278D01*
X450195Y408329D01*
X450200Y408454D01*
X450214Y408578D01*
X450207Y408655D01*
X450210Y408731D01*
X450187Y408893D01*
X450180Y408980D01*
X450170Y409014D01*
X450163Y409060D01*
X449971Y409905D01*
X449946Y409977D01*
X449931Y410052D01*
X449882Y410168D01*
X449843Y410286D01*
X449805Y410353D01*
X449775Y410423D01*
X449704Y410527D01*
X449649Y410624D01*
X449583Y411502D01*
X449572Y411569D01*
X449538Y411803D01*
X449341Y412668D01*
X449361Y412716D01*
X449384Y412839D01*
X449417Y412960D01*
X449422Y413036D01*
X449436Y413111D01*
X449437Y413275D01*
X449443Y413362D01*
X449438Y413397D01*
X449438Y413443D01*
X449374Y414308D01*
X449361Y414383D01*
X449357Y414460D01*
X449326Y414581D01*
X449304Y414704D01*
X449276Y414776D01*
X449258Y414850D01*
X449204Y414963D01*
X449163Y415067D01*
X449229Y415945D01*
X449227Y416013D01*
X449229Y416249D01*
X449163Y417134D01*
X449190Y417179D01*
X449231Y417297D01*
X449282Y417412D01*
X449298Y417486D01*
X449323Y417558D01*
X449349Y417720D01*
X449367Y417805D01*
X449368Y417841D01*
X449375Y417886D01*
X449440Y418751D01*
X449438Y418827D01*
X449446Y418903D01*
X449434Y419028D01*
X449430Y419153D01*
X449414Y419228D01*
X449406Y419304D01*
X449369Y419424D01*
X449345Y419532D01*
X449541Y420391D01*
X449549Y420458D01*
X449586Y420692D01*
X449653Y421576D01*
X449686Y421617D01*
X449745Y421727D01*
X449811Y421833D01*
X449839Y421905D01*
X449875Y421973D01*
X449924Y422128D01*
X449955Y422210D01*
X449961Y422245D01*
X449975Y422289D01*
X450168Y423134D01*
X450177Y423210D01*
X450196Y423284D01*
X450203Y423409D01*
X450218Y423533D01*
X450213Y423610D01*
X450216Y423686D01*
X450198Y423810D01*
X450190Y423921D01*
X450512Y424742D01*
X450530Y424806D01*
X450602Y425032D01*
X450799Y425897D01*
X450838Y425932D01*
X450913Y426032D01*
X450994Y426127D01*
X451032Y426194D01*
X451078Y426255D01*
X451149Y426402D01*
X451192Y426478D01*
X451203Y426512D01*
X451224Y426553D01*
X451541Y427360D01*
X451561Y427434D01*
X451591Y427504D01*
X451616Y427627D01*
X451650Y427747D01*
X451656Y427824D01*
X451671Y427899D01*
X451671Y428024D01*
X451680Y428135D01*
X452120Y428898D01*
X452148Y428959D01*
X452252Y429172D01*
X452577Y429998D01*
X452620Y430026D01*
X452709Y430115D01*
X452804Y430196D01*
X452851Y430257D01*
X452905Y430311D01*
X452998Y430445D01*
X453052Y430514D01*
X453068Y430546D01*
X453094Y430584D01*
X453528Y431334D01*
X453559Y431404D01*
X453599Y431469D01*
X453642Y431587D01*
X453694Y431701D01*
X453711Y431775D01*
X453737Y431847D01*
X453756Y431971D01*
X453781Y432080D01*
X454331Y432769D01*
X454367Y432825D01*
X454502Y433020D01*
X455044Y433959D01*
X455105Y434092D01*
X455172Y434222D01*
X455188Y434275D01*
X455210Y434326D01*
X455243Y434468D01*
X455284Y434609D01*
X455288Y434664D01*
X455301Y434718D01*
X455305Y434865D01*
X455317Y435011D01*
X455310Y435065D01*
X455312Y435121D01*
X455287Y435265D01*
X455270Y435410D01*
X455253Y435463D01*
X455243Y435517D01*
X455190Y435654D01*
X455145Y435793D01*
X455118Y435841D01*
X455098Y435893D01*
X455019Y436016D01*
X454947Y436144D01*
X454911Y436186D01*
X454881Y436232D01*
X454780Y436338D01*
X454684Y436449D01*
X454640Y436482D01*
X454602Y436522D01*
X454481Y436606D01*
X454366Y436695D01*
X454316Y436720D01*
X454271Y436751D01*
X454136Y436809D01*
X454005Y436875D01*
X453952Y436889D01*
X453901Y436911D01*
X453758Y436941D01*
X453616Y436979D01*
X453554Y436984D01*
X453507Y436994D01*
X453423Y436995D01*
X453286Y437006D01*
X441190Y437006D01*
X441163Y437004D01*
X441136Y437006D01*
X440962Y436984D01*
X440789Y436966D01*
X440763Y436959D01*
X440737Y436955D01*
X440571Y436899D01*
X440404Y436848D01*
X440380Y436835D01*
X440355Y436827D01*
X440204Y436740D01*
X440050Y436656D01*
X440029Y436639D01*
X440006Y436626D01*
X439753Y436411D01*
X438350Y435008D01*
X436672Y434313D01*
X261628Y434313D01*
X259950Y435008D01*
X258547Y436411D01*
X258526Y436428D01*
X258509Y436449D01*
X258371Y436556D01*
X258235Y436666D01*
X258212Y436679D01*
X258190Y436695D01*
X258034Y436773D01*
X257880Y436855D01*
X257854Y436863D01*
X257830Y436875D01*
X257661Y436920D01*
X257494Y436970D01*
X257467Y436972D01*
X257441Y436979D01*
X257110Y437006D01*
X245014Y437006D01*
X244868Y436992D01*
X244722Y436985D01*
X244669Y436972D01*
X244614Y436966D01*
X244474Y436923D01*
X244332Y436888D01*
X244282Y436864D01*
X244229Y436848D01*
X244100Y436778D01*
X243968Y436716D01*
X243923Y436683D01*
X243875Y436656D01*
X243762Y436563D01*
X243645Y436475D01*
X243608Y436434D01*
X243566Y436399D01*
X243474Y436285D01*
X243376Y436176D01*
X243348Y436128D01*
X243313Y436085D01*
X243246Y435955D01*
X243171Y435829D01*
X243153Y435777D01*
X243128Y435728D01*
X243087Y435587D01*
X243039Y435448D01*
X243032Y435394D01*
X243016Y435341D01*
X243004Y435195D01*
X242984Y435050D01*
X242988Y434995D01*
X242983Y434939D01*
X243000Y434794D01*
X243010Y434648D01*
X243024Y434594D01*
X243030Y434540D01*
X243076Y434400D01*
X243114Y434259D01*
X243140Y434202D01*
X243155Y434157D01*
X243197Y434084D01*
X243256Y433959D01*
X243798Y433020D01*
X243837Y432965D01*
X243969Y432769D01*
X244523Y432075D01*
X244526Y432023D01*
X244558Y431902D01*
X244582Y431779D01*
X244610Y431708D01*
X244630Y431634D01*
X244700Y431486D01*
X244733Y431406D01*
X244752Y431376D01*
X244772Y431334D01*
X245206Y430584D01*
X245250Y430521D01*
X245287Y430454D01*
X245368Y430358D01*
X245441Y430257D01*
X245497Y430205D01*
X245546Y430146D01*
X245644Y430068D01*
X245725Y429992D01*
X246048Y429172D01*
X246078Y429112D01*
X246180Y428898D01*
X246623Y428130D01*
X246619Y428078D01*
X246633Y427954D01*
X246637Y427828D01*
X246655Y427754D01*
X246664Y427678D01*
X246711Y427522D01*
X246731Y427437D01*
X246746Y427404D01*
X246759Y427360D01*
X247076Y426553D01*
X247111Y426485D01*
X247137Y426413D01*
X247203Y426306D01*
X247260Y426195D01*
X247308Y426135D01*
X247348Y426070D01*
X247433Y425978D01*
X247502Y425891D01*
X247698Y425032D01*
X247720Y424968D01*
X247788Y424742D01*
X248112Y423916D01*
X248100Y423865D01*
X248095Y423740D01*
X248081Y423615D01*
X248088Y423539D01*
X248085Y423462D01*
X248108Y423301D01*
X248116Y423214D01*
X248126Y423180D01*
X248132Y423134D01*
X248325Y422289D01*
X248350Y422216D01*
X248365Y422141D01*
X248414Y422026D01*
X248454Y421907D01*
X248492Y421841D01*
X248521Y421770D01*
X248592Y421667D01*
X248648Y421570D01*
X248714Y420692D01*
X248725Y420625D01*
X248759Y420391D01*
X248957Y419526D01*
X248937Y419478D01*
X248914Y419355D01*
X248881Y419234D01*
X248876Y419158D01*
X248862Y419082D01*
X248861Y418919D01*
X248855Y418832D01*
X248860Y418797D01*
X248860Y418751D01*
X248925Y417886D01*
X248938Y417811D01*
X248942Y417734D01*
X248973Y417613D01*
X248995Y417490D01*
X249023Y417418D01*
X249042Y417344D01*
X249096Y417231D01*
X249136Y417128D01*
X249071Y416249D01*
X249073Y416182D01*
X249071Y415945D01*
X249138Y415060D01*
X249111Y415016D01*
X249069Y414897D01*
X249019Y414783D01*
X249003Y414708D01*
X248978Y414636D01*
X248952Y414475D01*
X248934Y414389D01*
X248933Y414353D01*
X248926Y414308D01*
X248862Y413443D01*
X248863Y413367D01*
X248856Y413291D01*
X248868Y413166D01*
X248872Y413041D01*
X248888Y412966D01*
X248896Y412890D01*
X248933Y412770D01*
X248958Y412662D01*
X248762Y411803D01*
X248754Y411736D01*
X248717Y411502D01*
X248650Y410602D01*
X248640Y410590D01*
X248586Y410487D01*
X248524Y410388D01*
X248494Y410308D01*
X248455Y410233D01*
X248422Y410121D01*
X248381Y410011D01*
X248367Y409928D01*
X248343Y409846D01*
X248334Y409729D01*
X248314Y409614D01*
X248317Y409529D01*
X248310Y409445D01*
X248324Y409329D01*
X248328Y409212D01*
X248347Y409129D01*
X248357Y409045D01*
X248394Y408934D01*
X248420Y408820D01*
X248456Y408743D01*
X248482Y408662D01*
X248540Y408560D01*
X248589Y408454D01*
X248638Y408385D01*
X248680Y408312D01*
X248756Y408223D01*
X248825Y408128D01*
X248888Y408071D01*
X248943Y408007D01*
X249036Y407935D01*
X249122Y407856D01*
X249194Y407812D01*
X249261Y407760D01*
X249366Y407708D01*
X249466Y407647D01*
X249546Y407619D01*
X249622Y407581D01*
X249735Y407551D01*
X249845Y407511D01*
X249929Y407498D01*
X250011Y407476D01*
X250158Y407464D01*
X250243Y407452D01*
X250286Y407454D01*
X250341Y407449D01*
X274845Y407449D01*
X274862Y407451D01*
X274880Y407450D01*
X275062Y407471D01*
X275245Y407489D01*
X275262Y407494D01*
X275280Y407496D01*
X275454Y407553D01*
X275630Y407607D01*
X275646Y407616D01*
X275663Y407621D01*
X275823Y407712D01*
X275984Y407799D01*
X275998Y407810D01*
X276013Y407819D01*
X276153Y407939D01*
X276293Y408057D01*
X276305Y408071D01*
X276318Y408082D01*
X276431Y408227D01*
X276546Y408371D01*
X276554Y408386D01*
X276565Y408400D01*
X276647Y408565D01*
X276731Y408728D01*
X276736Y408745D01*
X276744Y408761D01*
X276792Y408939D01*
X276843Y409115D01*
X276844Y409133D01*
X276849Y409150D01*
X276876Y409480D01*
X276876Y410697D01*
X278215Y412037D01*
X290110Y412037D01*
X291449Y410697D01*
X291449Y410637D01*
X291451Y410624D01*
X291449Y410611D01*
X291471Y410423D01*
X291489Y410237D01*
X291493Y410224D01*
X291495Y410211D01*
X291552Y410032D01*
X291607Y409852D01*
X291614Y409840D01*
X291618Y409827D01*
X291709Y409663D01*
X291799Y409498D01*
X291808Y409487D01*
X291814Y409476D01*
X291937Y409332D01*
X292057Y409188D01*
X292067Y409180D01*
X292076Y409170D01*
X292225Y409054D01*
X292371Y408936D01*
X292382Y408930D01*
X292393Y408922D01*
X292562Y408837D01*
X292728Y408751D01*
X292741Y408747D01*
X292753Y408741D01*
X292935Y408691D01*
X293115Y408639D01*
X293128Y408638D01*
X293141Y408635D01*
X293329Y408622D01*
X293516Y408606D01*
X293529Y408608D01*
X293543Y408607D01*
X293730Y408631D01*
X293916Y408653D01*
X293929Y408657D01*
X293942Y408659D01*
X294258Y408761D01*
X295759Y409383D01*
X295779Y409393D01*
X295800Y409400D01*
X295956Y409488D01*
X296114Y409573D01*
X296131Y409587D01*
X296151Y409598D01*
X296286Y409715D01*
X296425Y409829D01*
X296439Y409847D01*
X296456Y409861D01*
X296565Y410002D01*
X296678Y410142D01*
X296689Y410162D01*
X296702Y410179D01*
X296782Y410339D01*
X296865Y410498D01*
X296872Y410520D01*
X296882Y410540D01*
X296928Y410713D01*
X296978Y410885D01*
X296980Y410907D01*
X296986Y410929D01*
X297013Y411259D01*
X297013Y412910D01*
X298353Y414249D01*
X311247Y414249D01*
X312095Y413401D01*
X312109Y413390D01*
X312120Y413377D01*
X312265Y413263D01*
X312406Y413146D01*
X312422Y413138D01*
X312436Y413127D01*
X312600Y413044D01*
X312762Y412958D01*
X312779Y412953D01*
X312795Y412945D01*
X312972Y412895D01*
X313148Y412843D01*
X313166Y412841D01*
X313183Y412837D01*
X313366Y412823D01*
X313549Y412807D01*
X313567Y412809D01*
X313585Y412807D01*
X313767Y412830D01*
X313949Y412850D01*
X313966Y412855D01*
X313984Y412858D01*
X314158Y412916D01*
X314333Y412972D01*
X314349Y412980D01*
X314366Y412986D01*
X314525Y413077D01*
X314685Y413166D01*
X314699Y413178D01*
X314715Y413187D01*
X314968Y413402D01*
X315815Y414249D01*
X328710Y414249D01*
X330049Y412910D01*
X330049Y402955D01*
X330051Y402938D01*
X330050Y402920D01*
X330071Y402738D01*
X330089Y402555D01*
X330094Y402538D01*
X330096Y402520D01*
X330153Y402346D01*
X330207Y402170D01*
X330216Y402154D01*
X330221Y402137D01*
X330312Y401977D01*
X330399Y401816D01*
X330410Y401802D01*
X330419Y401787D01*
X330539Y401647D01*
X330657Y401507D01*
X330671Y401495D01*
X330682Y401482D01*
X330827Y401369D01*
X330971Y401254D01*
X330986Y401246D01*
X331000Y401235D01*
X331165Y401153D01*
X331328Y401069D01*
X331345Y401064D01*
X331361Y401056D01*
X331539Y401008D01*
X331715Y400957D01*
X331733Y400956D01*
X331750Y400951D01*
X332080Y400924D01*
X348172Y400924D01*
X349512Y399585D01*
X349512Y396105D01*
X349514Y396088D01*
X349512Y396070D01*
X349533Y395888D01*
X349552Y395705D01*
X349557Y395688D01*
X349559Y395670D01*
X349616Y395496D01*
X349670Y395320D01*
X349678Y395304D01*
X349684Y395287D01*
X349774Y395127D01*
X349862Y394966D01*
X349873Y394952D01*
X349882Y394937D01*
X350002Y394797D01*
X350119Y394657D01*
X350133Y394645D01*
X350145Y394632D01*
X350290Y394519D01*
X350433Y394404D01*
X350449Y394396D01*
X350463Y394385D01*
X350628Y394303D01*
X350790Y394219D01*
X350807Y394214D01*
X350823Y394206D01*
X351002Y394158D01*
X351177Y394107D01*
X351195Y394106D01*
X351212Y394101D01*
X351543Y394074D01*
X365222Y394074D01*
X366562Y392735D01*
X366562Y380840D01*
X365222Y379501D01*
X360494Y379501D01*
X360467Y379498D01*
X360441Y379500D01*
X360267Y379478D01*
X360093Y379461D01*
X360068Y379453D01*
X360041Y379450D01*
X359875Y379394D01*
X359708Y379343D01*
X359685Y379330D01*
X359659Y379321D01*
X359508Y379234D01*
X359354Y379151D01*
X359334Y379134D01*
X359311Y379121D01*
X359058Y378906D01*
X353047Y372896D01*
X351460Y372238D01*
X324369Y372238D01*
X324343Y372236D01*
X324316Y372238D01*
X324142Y372216D01*
X323969Y372198D01*
X323943Y372191D01*
X323917Y372187D01*
X323751Y372132D01*
X323584Y372080D01*
X323560Y372067D01*
X323535Y372059D01*
X323383Y371972D01*
X323230Y371888D01*
X323209Y371871D01*
X323186Y371858D01*
X322933Y371643D01*
X320989Y369699D01*
X320972Y369678D01*
X320951Y369661D01*
X320844Y369523D01*
X320734Y369388D01*
X320721Y369364D01*
X320705Y369343D01*
X320627Y369186D01*
X320545Y369032D01*
X320537Y369006D01*
X320525Y368982D01*
X320480Y368813D01*
X320430Y368646D01*
X320428Y368619D01*
X320421Y368593D01*
X320394Y368263D01*
X320394Y367936D01*
X319470Y365705D01*
X317763Y363998D01*
X315532Y363074D01*
X313118Y363074D01*
X310887Y363998D01*
X309180Y365705D01*
X308256Y367936D01*
X308256Y370440D01*
X308254Y370462D01*
X308256Y370485D01*
X308234Y370663D01*
X308216Y370841D01*
X308210Y370862D01*
X308207Y370884D01*
X308151Y371055D01*
X308098Y371226D01*
X308088Y371245D01*
X308081Y371266D01*
X307992Y371422D01*
X307906Y371580D01*
X307892Y371597D01*
X307881Y371616D01*
X307763Y371751D01*
X307649Y371889D01*
X307631Y371903D01*
X307617Y371920D01*
X307474Y372029D01*
X307335Y372141D01*
X307315Y372151D01*
X307298Y372165D01*
X307002Y372317D01*
X306125Y372680D01*
X304418Y374387D01*
X303494Y376618D01*
X303494Y379032D01*
X303840Y379867D01*
X303844Y379880D01*
X303850Y379892D01*
X303902Y380072D01*
X303956Y380253D01*
X303957Y380266D01*
X303961Y380279D01*
X303977Y380467D01*
X303994Y380653D01*
X303993Y380667D01*
X303994Y380680D01*
X303972Y380866D01*
X303953Y381054D01*
X303949Y381067D01*
X303947Y381080D01*
X303889Y381258D01*
X303833Y381438D01*
X303826Y381450D01*
X303822Y381463D01*
X303730Y381626D01*
X303640Y381791D01*
X303631Y381802D01*
X303624Y381813D01*
X303502Y381956D01*
X303380Y382100D01*
X303370Y382108D01*
X303361Y382118D01*
X303213Y382233D01*
X303066Y382350D01*
X303054Y382357D01*
X303043Y382365D01*
X302875Y382448D01*
X302707Y382534D01*
X302695Y382538D01*
X302683Y382544D01*
X302500Y382593D01*
X302320Y382644D01*
X302307Y382645D01*
X302294Y382649D01*
X301963Y382676D01*
X298284Y382676D01*
X298279Y382680D01*
X298119Y382760D01*
X297961Y382844D01*
X297939Y382851D01*
X297919Y382861D01*
X297747Y382908D01*
X297575Y382959D01*
X297553Y382961D01*
X297531Y382967D01*
X297353Y382979D01*
X297174Y382995D01*
X297152Y382993D01*
X297129Y382994D01*
X296953Y382971D01*
X296774Y382952D01*
X296752Y382945D01*
X296730Y382942D01*
X296502Y382869D01*
X294068Y382869D01*
X291837Y383793D01*
X290130Y385500D01*
X289206Y387730D01*
X289206Y390145D01*
X290130Y392375D01*
X290751Y392996D01*
X290756Y393003D01*
X290763Y393008D01*
X290883Y393157D01*
X291006Y393307D01*
X291010Y393315D01*
X291016Y393322D01*
X291104Y393492D01*
X291194Y393663D01*
X291197Y393672D01*
X291201Y393679D01*
X291254Y393864D01*
X291309Y394049D01*
X291310Y394058D01*
X291313Y394066D01*
X291328Y394257D01*
X291346Y394450D01*
X291345Y394459D01*
X291345Y394468D01*
X291323Y394656D01*
X291302Y394850D01*
X291300Y394859D01*
X291298Y394867D01*
X291239Y395050D01*
X291181Y395234D01*
X291176Y395242D01*
X291174Y395250D01*
X291079Y395418D01*
X290986Y395586D01*
X290980Y395593D01*
X290976Y395601D01*
X290849Y395747D01*
X290725Y395893D01*
X290718Y395899D01*
X290713Y395906D01*
X290560Y396024D01*
X290410Y396143D01*
X290402Y396147D01*
X290394Y396152D01*
X290221Y396239D01*
X290051Y396325D01*
X290042Y396328D01*
X290034Y396332D01*
X289847Y396382D01*
X289663Y396433D01*
X289654Y396434D01*
X289645Y396436D01*
X289314Y396463D01*
X284762Y396463D01*
X284735Y396461D01*
X284708Y396463D01*
X284534Y396441D01*
X284361Y396423D01*
X284335Y396416D01*
X284309Y396412D01*
X284143Y396357D01*
X283976Y396305D01*
X283952Y396292D01*
X283927Y396284D01*
X283776Y396197D01*
X283622Y396113D01*
X283602Y396096D01*
X283578Y396083D01*
X283325Y395868D01*
X279907Y392450D01*
X279890Y392429D01*
X279869Y392412D01*
X279762Y392274D01*
X279652Y392138D01*
X279639Y392115D01*
X279623Y392093D01*
X279545Y391936D01*
X279463Y391782D01*
X279455Y391757D01*
X279443Y391733D01*
X279398Y391563D01*
X279348Y391397D01*
X279346Y391370D01*
X279339Y391344D01*
X279312Y391013D01*
X279312Y388215D01*
X277972Y386876D01*
X261624Y386876D01*
X261598Y386873D01*
X261571Y386875D01*
X261397Y386853D01*
X261223Y386836D01*
X261198Y386828D01*
X261171Y386825D01*
X261006Y386769D01*
X260839Y386718D01*
X260815Y386705D01*
X260790Y386697D01*
X260638Y386609D01*
X260485Y386526D01*
X260464Y386509D01*
X260441Y386496D01*
X260188Y386281D01*
X259874Y385967D01*
X259868Y385960D01*
X259861Y385954D01*
X259741Y385805D01*
X259619Y385655D01*
X259614Y385647D01*
X259609Y385640D01*
X259521Y385470D01*
X259430Y385300D01*
X259428Y385291D01*
X259423Y385283D01*
X259370Y385098D01*
X259315Y384914D01*
X259314Y384905D01*
X259312Y384896D01*
X259296Y384704D01*
X259279Y384513D01*
X259280Y384504D01*
X259279Y384495D01*
X259301Y384305D01*
X259322Y384113D01*
X259325Y384104D01*
X259326Y384095D01*
X259386Y383912D01*
X259444Y383729D01*
X259448Y383721D01*
X259451Y383712D01*
X259546Y383544D01*
X259639Y383376D01*
X259644Y383369D01*
X259649Y383362D01*
X259723Y383276D01*
X259579Y383391D01*
X259572Y383395D01*
X259565Y383401D01*
X259392Y383489D01*
X259222Y383577D01*
X259214Y383579D01*
X259206Y383583D01*
X259019Y383635D01*
X258835Y383688D01*
X258826Y383689D01*
X258818Y383691D01*
X258625Y383705D01*
X258434Y383721D01*
X258425Y383720D01*
X258416Y383721D01*
X258224Y383696D01*
X258034Y383674D01*
X258026Y383671D01*
X258017Y383670D01*
X257834Y383609D01*
X257651Y383549D01*
X257643Y383545D01*
X257635Y383542D01*
X257468Y383446D01*
X257301Y383351D01*
X257294Y383345D01*
X257286Y383341D01*
X257033Y383126D01*
X247016Y373109D01*
X245229Y371322D01*
X243269Y370510D01*
X234188Y370510D01*
X234170Y370509D01*
X234152Y370510D01*
X233970Y370489D01*
X233787Y370470D01*
X233770Y370465D01*
X233753Y370463D01*
X233578Y370406D01*
X233402Y370352D01*
X233387Y370344D01*
X233370Y370338D01*
X233210Y370248D01*
X233048Y370161D01*
X233035Y370149D01*
X233019Y370140D01*
X232880Y370020D01*
X232739Y369903D01*
X232728Y369889D01*
X232714Y369877D01*
X232602Y369732D01*
X232487Y369589D01*
X232479Y369573D01*
X232468Y369559D01*
X232386Y369394D01*
X232301Y369232D01*
X232296Y369215D01*
X232288Y369199D01*
X232241Y369020D01*
X232190Y368845D01*
X232188Y368827D01*
X232184Y368810D01*
X232157Y368479D01*
X232157Y366329D01*
X230649Y362688D01*
X227862Y359901D01*
X224221Y358393D01*
X220279Y358393D01*
X216638Y359901D01*
X213851Y362688D01*
X212343Y366329D01*
X212343Y370271D01*
X213110Y372123D01*
X213114Y372136D01*
X213120Y372147D01*
X213173Y372328D01*
X213227Y372508D01*
X213228Y372521D01*
X213232Y372534D01*
X213247Y372723D01*
X213265Y372909D01*
X213264Y372922D01*
X213265Y372936D01*
X213243Y373122D01*
X213223Y373309D01*
X213219Y373322D01*
X213218Y373335D01*
X213160Y373513D01*
X213104Y373694D01*
X213097Y373705D01*
X213093Y373718D01*
X213001Y373882D01*
X212910Y374047D01*
X212902Y374057D01*
X212895Y374069D01*
X212772Y374211D01*
X212651Y374355D01*
X212641Y374363D01*
X212632Y374374D01*
X212484Y374488D01*
X212336Y374606D01*
X212324Y374612D01*
X212314Y374620D01*
X212146Y374704D01*
X211978Y374790D01*
X211965Y374794D01*
X211953Y374800D01*
X211771Y374849D01*
X211601Y374897D01*
X209287Y375855D01*
X207580Y377562D01*
X206942Y379103D01*
X206905Y379172D01*
X206877Y379244D01*
X206810Y379349D01*
X206752Y379458D01*
X206702Y379518D01*
X206660Y379584D01*
X206574Y379673D01*
X206495Y379768D01*
X206435Y379817D01*
X206381Y379873D01*
X206279Y379944D01*
X206183Y380022D01*
X206114Y380058D01*
X206050Y380103D01*
X205936Y380152D01*
X205826Y380209D01*
X205752Y380231D01*
X205680Y380262D01*
X205559Y380288D01*
X205440Y380322D01*
X205362Y380329D01*
X205286Y380345D01*
X205162Y380346D01*
X205039Y380357D01*
X204962Y380348D01*
X204884Y380349D01*
X204762Y380326D01*
X204639Y380312D01*
X204565Y380288D01*
X204488Y380273D01*
X204373Y380227D01*
X204255Y380189D01*
X204187Y380151D01*
X204115Y380121D01*
X204012Y380053D01*
X203904Y379992D01*
X203845Y379942D01*
X203780Y379899D01*
X203692Y379811D01*
X203598Y379730D01*
X203550Y379669D01*
X203495Y379614D01*
X203403Y379482D01*
X203350Y379413D01*
X203333Y379380D01*
X203306Y379342D01*
X189368Y355199D01*
X188319Y356206D01*
X188291Y356224D01*
X188257Y356257D01*
X185734Y357998D01*
X185707Y358010D01*
X185685Y358028D01*
X185616Y358049D01*
X185551Y358076D01*
X185522Y358077D01*
X185494Y358085D01*
X185423Y358077D01*
X185352Y358077D01*
X185325Y358066D01*
X185296Y358063D01*
X185234Y358028D01*
X185169Y358000D01*
X185148Y357979D01*
X185123Y357965D01*
X185060Y357888D01*
X185030Y357857D01*
X185026Y357847D01*
X185017Y357837D01*
X175517Y341337D01*
X175493Y341264D01*
X175462Y341193D01*
X175462Y341170D01*
X175454Y341148D01*
X175461Y341071D01*
X175460Y340994D01*
X175469Y340970D01*
X175470Y340950D01*
X175491Y340910D01*
X175510Y340858D01*
X175511Y340853D01*
X175513Y340851D01*
X175517Y340838D01*
X185017Y324338D01*
X185036Y324317D01*
X185049Y324290D01*
X185102Y324243D01*
X185149Y324189D01*
X185175Y324177D01*
X185197Y324157D01*
X185264Y324134D01*
X185328Y324103D01*
X185357Y324102D01*
X185384Y324093D01*
X185456Y324097D01*
X185527Y324094D01*
X185554Y324104D01*
X185583Y324106D01*
X185673Y324149D01*
X185713Y324163D01*
X185721Y324171D01*
X185734Y324177D01*
X188257Y325918D01*
X188281Y325943D01*
X188319Y325969D01*
X189368Y326976D01*
X207642Y295323D01*
X207731Y295200D01*
X207813Y295072D01*
X207848Y295036D01*
X207877Y294996D01*
X207988Y294892D01*
X208094Y294784D01*
X208135Y294756D01*
X208172Y294722D01*
X208301Y294642D01*
X208427Y294556D01*
X208478Y294534D01*
X208515Y294511D01*
X208595Y294481D01*
X208730Y294422D01*
X208814Y294392D01*
X208885Y294375D01*
X208893Y294372D01*
X208894Y294372D01*
X208959Y294347D01*
X209083Y294327D01*
X209205Y294298D01*
X209281Y294295D01*
X209356Y294282D01*
X209482Y294287D01*
X209607Y294282D01*
X209683Y294294D01*
X209759Y294297D01*
X209918Y294332D01*
X210005Y294346D01*
X210038Y294358D01*
X210083Y294368D01*
X210911Y294623D01*
X210982Y294653D01*
X211056Y294674D01*
X211167Y294731D01*
X211282Y294780D01*
X211346Y294823D01*
X211414Y294857D01*
X211512Y294935D01*
X211604Y294998D01*
X212476Y295129D01*
X212540Y295146D01*
X212772Y295197D01*
X213620Y295458D01*
X213669Y295442D01*
X213794Y295428D01*
X213917Y295404D01*
X213993Y295405D01*
X214069Y295396D01*
X214232Y295407D01*
X214319Y295408D01*
X214354Y295416D01*
X214400Y295419D01*
X215258Y295548D01*
X215332Y295566D01*
X215408Y295576D01*
X215526Y295616D01*
X215648Y295647D01*
X215717Y295680D01*
X215789Y295704D01*
X215898Y295767D01*
X215998Y295815D01*
X216880Y295814D01*
X216947Y295821D01*
X217182Y295837D01*
X218060Y295969D01*
X218107Y295946D01*
X218227Y295913D01*
X218346Y295872D01*
X218422Y295861D01*
X218495Y295841D01*
X218658Y295828D01*
X218744Y295815D01*
X218780Y295818D01*
X218826Y295814D01*
X219693Y295814D01*
X219769Y295821D01*
X219846Y295819D01*
X219969Y295841D01*
X220094Y295853D01*
X220167Y295876D01*
X220242Y295889D01*
X220359Y295935D01*
X220465Y295967D01*
X221337Y295836D01*
X221404Y295832D01*
X221639Y295813D01*
X222527Y295813D01*
X222569Y295783D01*
X222684Y295732D01*
X222795Y295674D01*
X222868Y295652D01*
X222938Y295621D01*
X223097Y295584D01*
X223181Y295559D01*
X223216Y295556D01*
X223261Y295545D01*
X224118Y295415D01*
X224195Y295412D01*
X224270Y295398D01*
X224396Y295401D01*
X224520Y295395D01*
X224596Y295406D01*
X224673Y295408D01*
X224795Y295436D01*
X224905Y295452D01*
X225747Y295192D01*
X225813Y295179D01*
X226043Y295125D01*
X226920Y294992D01*
X226958Y294956D01*
X227064Y294890D01*
X227165Y294815D01*
X227234Y294782D01*
X227299Y294742D01*
X227450Y294681D01*
X227529Y294644D01*
X227564Y294635D01*
X227607Y294618D01*
X228435Y294362D01*
X228510Y294347D01*
X228583Y294323D01*
X228707Y294307D01*
X228830Y294282D01*
X228906Y294282D01*
X228982Y294273D01*
X229107Y294282D01*
X229219Y294282D01*
X230012Y293899D01*
X230076Y293876D01*
X230295Y293788D01*
X231143Y293526D01*
X231175Y293485D01*
X231270Y293403D01*
X231358Y293314D01*
X231422Y293272D01*
X231480Y293222D01*
X231620Y293139D01*
X231693Y293091D01*
X231726Y293077D01*
X231766Y293054D01*
X232547Y292678D01*
X232618Y292651D01*
X232687Y292616D01*
X232807Y292582D01*
X232925Y292540D01*
X233001Y292528D01*
X233074Y292507D01*
X233199Y292498D01*
X233309Y292481D01*
X234037Y291984D01*
X234097Y291952D01*
X234300Y291832D01*
X235100Y291447D01*
X235125Y291402D01*
X235207Y291307D01*
X235281Y291206D01*
X235337Y291154D01*
X235387Y291096D01*
X235514Y290993D01*
X235579Y290935D01*
X235609Y290916D01*
X235645Y290887D01*
X236361Y290399D01*
X236428Y290362D01*
X236491Y290318D01*
X236605Y290266D01*
X236715Y290206D01*
X236788Y290183D01*
X236857Y290152D01*
X236980Y290124D01*
X237086Y290091D01*
X237732Y289491D01*
X237786Y289450D01*
X237969Y289302D01*
X238702Y288802D01*
X238721Y288753D01*
X238787Y288647D01*
X238845Y288536D01*
X238894Y288477D01*
X238934Y288412D01*
X239045Y288291D01*
X239100Y288224D01*
X239127Y288201D01*
X239158Y288167D01*
X239794Y287577D01*
X239855Y287531D01*
X239909Y287477D01*
X240014Y287409D01*
X240114Y287334D01*
X240183Y287300D01*
X240247Y287259D01*
X240364Y287213D01*
X240464Y287164D01*
X241014Y286475D01*
X241060Y286427D01*
X241220Y286253D01*
X241870Y285649D01*
X241881Y285598D01*
X241931Y285483D01*
X241972Y285364D01*
X242011Y285299D01*
X242042Y285229D01*
X242133Y285093D01*
X242177Y285018D01*
X242201Y284991D01*
X242227Y284953D01*
X242767Y284275D01*
X242820Y284220D01*
X242867Y284159D01*
X242960Y284076D01*
X243048Y283987D01*
X243111Y283943D01*
X243168Y283893D01*
X243277Y283830D01*
X243369Y283767D01*
X243809Y283004D01*
X243848Y282949D01*
X243980Y282753D01*
X244533Y282059D01*
X244536Y282007D01*
X244569Y281886D01*
X244592Y281763D01*
X244620Y281692D01*
X244640Y281618D01*
X244710Y281470D01*
X244742Y281389D01*
X244762Y281359D01*
X244782Y281318D01*
X245215Y280567D01*
X245260Y280505D01*
X245296Y280438D01*
X245377Y280341D01*
X245450Y280240D01*
X245506Y280188D01*
X245555Y280129D01*
X245653Y280051D01*
X245734Y279975D01*
X246056Y279154D01*
X246087Y279095D01*
X246188Y278881D01*
X246631Y278112D01*
X246627Y278060D01*
X246640Y277936D01*
X246645Y277811D01*
X246663Y277736D01*
X246671Y277660D01*
X246718Y277504D01*
X246738Y277419D01*
X246753Y277386D01*
X246767Y277342D01*
X247083Y276535D01*
X247118Y276467D01*
X247144Y276395D01*
X247209Y276289D01*
X247266Y276177D01*
X247314Y276117D01*
X247354Y276052D01*
X247439Y275960D01*
X247508Y275872D01*
X247704Y275013D01*
X247726Y274949D01*
X247794Y274723D01*
X248118Y273897D01*
X248105Y273846D01*
X248100Y273721D01*
X248086Y273597D01*
X248093Y273520D01*
X248090Y273444D01*
X248113Y273282D01*
X248120Y273195D01*
X248130Y273161D01*
X248137Y273115D01*
X248329Y272270D01*
X248354Y272198D01*
X248369Y272123D01*
X248418Y272007D01*
X248457Y271889D01*
X248495Y271822D01*
X248525Y271752D01*
X248596Y271648D01*
X248651Y271551D01*
X248717Y270673D01*
X248728Y270606D01*
X248762Y270372D01*
X248959Y269507D01*
X248939Y269459D01*
X248916Y269336D01*
X248883Y269215D01*
X248878Y269139D01*
X248864Y269063D01*
X248863Y268900D01*
X248857Y268813D01*
X248862Y268778D01*
X248862Y268732D01*
X248926Y267867D01*
X248939Y267792D01*
X248943Y267715D01*
X248974Y267594D01*
X248996Y267471D01*
X249023Y267399D01*
X249042Y267325D01*
X249097Y267212D01*
X249137Y267108D01*
X249071Y266230D01*
X249073Y266162D01*
X249071Y265926D01*
X249137Y265041D01*
X249110Y264996D01*
X249069Y264878D01*
X249018Y264763D01*
X249002Y264689D01*
X248977Y264617D01*
X248951Y264455D01*
X248933Y264370D01*
X248932Y264334D01*
X248925Y264289D01*
X248860Y263424D01*
X248862Y263348D01*
X248854Y263272D01*
X248866Y263147D01*
X248870Y263022D01*
X248886Y262947D01*
X248894Y262871D01*
X248931Y262751D01*
X248955Y262643D01*
X248759Y261784D01*
X248751Y261717D01*
X248714Y261483D01*
X248647Y260598D01*
X248614Y260558D01*
X248555Y260447D01*
X248489Y260341D01*
X248461Y260270D01*
X248426Y260202D01*
X248376Y260047D01*
X248345Y259965D01*
X248339Y259930D01*
X248325Y259886D01*
X248132Y259041D01*
X248128Y259009D01*
X248122Y258987D01*
X248119Y258950D01*
X248104Y258891D01*
X248097Y258766D01*
X248082Y258642D01*
X248087Y258565D01*
X248084Y258489D01*
X248102Y258365D01*
X248110Y258254D01*
X247788Y257433D01*
X247770Y257369D01*
X247698Y257143D01*
X247501Y256278D01*
X247462Y256243D01*
X247387Y256143D01*
X247306Y256048D01*
X247268Y255981D01*
X247222Y255920D01*
X247151Y255773D01*
X247108Y255697D01*
X247097Y255663D01*
X247076Y255622D01*
X246764Y254828D01*
X246763Y254824D01*
X246762Y254821D01*
X246708Y254629D01*
X246655Y254440D01*
X246655Y254437D01*
X246654Y254433D01*
X246639Y254231D01*
X246624Y254039D01*
X246625Y254035D01*
X246624Y254032D01*
X246650Y253831D01*
X246673Y253639D01*
X246674Y253636D01*
X246675Y253632D01*
X246737Y253446D01*
X246800Y253257D01*
X246802Y253254D01*
X246803Y253251D01*
X246902Y253079D01*
X247000Y252908D01*
X247002Y252905D01*
X247004Y252902D01*
X247219Y252649D01*
X279427Y220440D01*
X279448Y220423D01*
X279466Y220403D01*
X279603Y220296D01*
X279739Y220185D01*
X279762Y220173D01*
X279784Y220156D01*
X279941Y220078D01*
X280095Y219996D01*
X280120Y219989D01*
X280144Y219977D01*
X280314Y219931D01*
X280480Y219882D01*
X280507Y219879D01*
X280533Y219872D01*
X280864Y219845D01*
X305151Y219845D01*
X305178Y219848D01*
G37*
G36*
X435826Y190604D02*
X435826Y190604D01*
X435904Y190612D01*
X435923Y190623D01*
X435945Y190628D01*
X436009Y190672D01*
X436077Y190710D01*
X436093Y190729D01*
X436109Y190740D01*
X436133Y190778D01*
X436183Y190838D01*
X445683Y207338D01*
X445692Y207366D01*
X445708Y207389D01*
X445723Y207459D01*
X445746Y207527D01*
X445743Y207556D01*
X445749Y207584D01*
X445736Y207654D01*
X445730Y207725D01*
X445717Y207751D01*
X445711Y207779D01*
X445671Y207838D01*
X445638Y207902D01*
X445616Y207920D01*
X445600Y207944D01*
X445517Y208001D01*
X445485Y208028D01*
X445474Y208031D01*
X445464Y208039D01*
X442698Y209347D01*
X442665Y209355D01*
X442622Y209376D01*
X441264Y209767D01*
X454766Y233155D01*
X454828Y233292D01*
X454897Y233426D01*
X454911Y233475D01*
X454932Y233522D01*
X454966Y233669D01*
X455007Y233814D01*
X455011Y233864D01*
X455022Y233914D01*
X455026Y234065D01*
X455038Y234215D01*
X455032Y234266D01*
X455033Y234317D01*
X455007Y234465D01*
X454989Y234615D01*
X454973Y234663D01*
X454964Y234713D01*
X454910Y234853D01*
X454863Y234997D01*
X454837Y235041D01*
X454819Y235089D01*
X454738Y235216D01*
X454663Y235347D01*
X454630Y235385D01*
X454602Y235428D01*
X454497Y235537D01*
X454399Y235650D01*
X454358Y235681D01*
X454323Y235718D01*
X454199Y235804D01*
X454079Y235896D01*
X454028Y235922D01*
X453992Y235947D01*
X453913Y235981D01*
X453784Y236047D01*
X452031Y236774D01*
X450323Y238481D01*
X449400Y240711D01*
X449400Y243126D01*
X450323Y245356D01*
X452031Y247063D01*
X452670Y247328D01*
X452760Y247376D01*
X452853Y247415D01*
X452936Y247471D01*
X453025Y247518D01*
X453103Y247583D01*
X453187Y247640D01*
X453258Y247711D01*
X453335Y247775D01*
X453399Y247853D01*
X453471Y247926D01*
X453526Y248009D01*
X453589Y248087D01*
X453636Y248177D01*
X453692Y248262D01*
X453729Y248355D01*
X453776Y248444D01*
X453805Y248541D01*
X453843Y248635D01*
X453861Y248734D01*
X453889Y248830D01*
X453898Y248931D01*
X453917Y249031D01*
X453915Y249131D01*
X453924Y249231D01*
X453912Y249332D01*
X453911Y249434D01*
X453890Y249532D01*
X453879Y249631D01*
X453848Y249728D01*
X453826Y249827D01*
X453792Y249907D01*
X453793Y250000D01*
X453779Y250076D01*
X453774Y250152D01*
X453742Y250273D01*
X453718Y250396D01*
X453690Y250467D01*
X453670Y250541D01*
X453600Y250689D01*
X453567Y250769D01*
X453548Y250799D01*
X453528Y250841D01*
X453094Y251591D01*
X453050Y251654D01*
X453013Y251721D01*
X452932Y251817D01*
X452859Y251918D01*
X452803Y251970D01*
X452754Y252029D01*
X452656Y252107D01*
X452575Y252183D01*
X452252Y253003D01*
X452222Y253063D01*
X452120Y253277D01*
X451677Y254045D01*
X451681Y254097D01*
X451667Y254221D01*
X451663Y254347D01*
X451645Y254421D01*
X451636Y254497D01*
X451589Y254653D01*
X451569Y254738D01*
X451554Y254771D01*
X451541Y254815D01*
X451224Y255622D01*
X451189Y255690D01*
X451163Y255762D01*
X451097Y255869D01*
X451040Y255980D01*
X450992Y256040D01*
X450952Y256105D01*
X450867Y256197D01*
X450798Y256284D01*
X450602Y257143D01*
X450580Y257207D01*
X450512Y257433D01*
X450187Y258259D01*
X450200Y258310D01*
X450205Y258435D01*
X450219Y258560D01*
X450212Y258636D01*
X450215Y258713D01*
X450192Y258874D01*
X450184Y258961D01*
X450174Y258996D01*
X450168Y259041D01*
X449975Y259886D01*
X449950Y259959D01*
X449935Y260033D01*
X449886Y260149D01*
X449846Y260268D01*
X449808Y260334D01*
X449779Y260404D01*
X449708Y260508D01*
X449652Y260605D01*
X449586Y261483D01*
X449575Y261550D01*
X449541Y261784D01*
X449343Y262649D01*
X449363Y262697D01*
X449386Y262820D01*
X449419Y262941D01*
X449424Y263017D01*
X449438Y263093D01*
X449439Y263256D01*
X449445Y263343D01*
X449440Y263378D01*
X449440Y263424D01*
X449375Y264289D01*
X449362Y264364D01*
X449358Y264441D01*
X449327Y264562D01*
X449305Y264685D01*
X449277Y264757D01*
X449258Y264831D01*
X449204Y264943D01*
X449164Y265047D01*
X449229Y265926D01*
X449227Y265993D01*
X449229Y266230D01*
X449162Y267115D01*
X449189Y267160D01*
X449231Y267278D01*
X449281Y267392D01*
X449297Y267467D01*
X449322Y267539D01*
X449348Y267701D01*
X449366Y267786D01*
X449367Y267822D01*
X449374Y267867D01*
X449438Y268732D01*
X449437Y268808D01*
X449444Y268884D01*
X449432Y269009D01*
X449428Y269134D01*
X449412Y269209D01*
X449404Y269285D01*
X449367Y269405D01*
X449342Y269513D01*
X449538Y270372D01*
X449543Y270410D01*
X449552Y270443D01*
X449558Y270511D01*
X449583Y270673D01*
X449649Y271558D01*
X449682Y271598D01*
X449741Y271709D01*
X449808Y271815D01*
X449835Y271886D01*
X449871Y271954D01*
X449920Y272110D01*
X449951Y272191D01*
X449957Y272226D01*
X449971Y272270D01*
X450163Y273115D01*
X450173Y273191D01*
X450192Y273266D01*
X450198Y273391D01*
X450213Y273515D01*
X450208Y273591D01*
X450212Y273668D01*
X450193Y273792D01*
X450185Y273903D01*
X450506Y274723D01*
X450525Y274788D01*
X450596Y275013D01*
X450793Y275878D01*
X450832Y275914D01*
X450906Y276014D01*
X450988Y276109D01*
X451026Y276176D01*
X451071Y276237D01*
X451143Y276384D01*
X451186Y276460D01*
X451197Y276494D01*
X451217Y276535D01*
X451533Y277342D01*
X451554Y277416D01*
X451584Y277487D01*
X451609Y277609D01*
X451643Y277730D01*
X451648Y277806D01*
X451663Y277881D01*
X451664Y278007D01*
X451672Y278118D01*
X452112Y278881D01*
X452140Y278942D01*
X452244Y279154D01*
X452568Y279981D01*
X452611Y280009D01*
X452700Y280098D01*
X452795Y280180D01*
X452842Y280240D01*
X452896Y280294D01*
X452989Y280428D01*
X453043Y280497D01*
X453059Y280529D01*
X453085Y280567D01*
X453518Y281318D01*
X453550Y281387D01*
X453589Y281453D01*
X453632Y281571D01*
X453684Y281685D01*
X453701Y281759D01*
X453727Y281831D01*
X453746Y281955D01*
X453771Y282064D01*
X454320Y282753D01*
X454356Y282809D01*
X454491Y283004D01*
X454934Y283772D01*
X454982Y283794D01*
X455083Y283869D01*
X455189Y283935D01*
X455244Y283988D01*
X455306Y284033D01*
X455418Y284152D01*
X455481Y284212D01*
X455502Y284242D01*
X455533Y284275D01*
X456073Y284953D01*
X456115Y285017D01*
X456164Y285076D01*
X456224Y285186D01*
X456292Y285291D01*
X456320Y285362D01*
X456356Y285430D01*
X456393Y285549D01*
X456434Y285653D01*
X457080Y286253D01*
X457125Y286303D01*
X457286Y286475D01*
X457839Y287169D01*
X457889Y287184D01*
X458000Y287242D01*
X458115Y287292D01*
X458178Y287336D01*
X458246Y287372D01*
X458374Y287473D01*
X458445Y287523D01*
X458470Y287548D01*
X458506Y287577D01*
X459142Y288167D01*
X459192Y288224D01*
X459250Y288275D01*
X459325Y288375D01*
X459408Y288469D01*
X459446Y288535D01*
X459493Y288596D01*
X459547Y288709D01*
X459603Y288805D01*
X460331Y289302D01*
X460383Y289345D01*
X460568Y289491D01*
X461218Y290095D01*
X461270Y290102D01*
X461389Y290143D01*
X461509Y290176D01*
X461578Y290210D01*
X461650Y290235D01*
X461792Y290316D01*
X461870Y290354D01*
X461899Y290376D01*
X461939Y290399D01*
X462655Y290887D01*
X462714Y290937D01*
X462778Y290978D01*
X462867Y291066D01*
X462963Y291146D01*
X463011Y291206D01*
X463066Y291259D01*
X463137Y291363D01*
X463206Y291450D01*
X464000Y291832D01*
X464057Y291868D01*
X464263Y291984D01*
X464996Y292484D01*
X465048Y292484D01*
X465171Y292507D01*
X465296Y292521D01*
X465368Y292544D01*
X465444Y292558D01*
X465596Y292617D01*
X465679Y292644D01*
X465710Y292661D01*
X465753Y292678D01*
X466534Y293054D01*
X466599Y293094D01*
X466669Y293125D01*
X466771Y293199D01*
X466878Y293264D01*
X466934Y293316D01*
X466996Y293360D01*
X467081Y293452D01*
X467163Y293528D01*
X468005Y293788D01*
X468067Y293814D01*
X468288Y293899D01*
X469087Y294284D01*
X469138Y294276D01*
X469264Y294280D01*
X469389Y294276D01*
X469464Y294288D01*
X469541Y294291D01*
X469700Y294326D01*
X469786Y294340D01*
X469820Y294352D01*
X469865Y294362D01*
X470693Y294618D01*
X470764Y294648D01*
X470837Y294669D01*
X470949Y294726D01*
X471064Y294774D01*
X471127Y294817D01*
X471196Y294852D01*
X471293Y294930D01*
X471386Y294993D01*
X472257Y295125D01*
X472322Y295141D01*
X472553Y295192D01*
X473401Y295454D01*
X473450Y295438D01*
X473575Y295424D01*
X473698Y295401D01*
X473775Y295402D01*
X473851Y295393D01*
X474013Y295404D01*
X474101Y295405D01*
X474136Y295412D01*
X474182Y295416D01*
X475039Y295545D01*
X475113Y295564D01*
X475189Y295573D01*
X475307Y295613D01*
X475429Y295644D01*
X475498Y295677D01*
X475570Y295702D01*
X475679Y295764D01*
X475779Y295813D01*
X476661Y295813D01*
X476727Y295820D01*
X476963Y295836D01*
X477841Y295968D01*
X477888Y295945D01*
X478008Y295913D01*
X478127Y295871D01*
X478202Y295860D01*
X478276Y295841D01*
X478439Y295827D01*
X478525Y295815D01*
X478561Y295817D01*
X478607Y295814D01*
X479474Y295814D01*
X479550Y295821D01*
X479626Y295820D01*
X479750Y295841D01*
X479875Y295854D01*
X479948Y295876D01*
X480023Y295890D01*
X480139Y295935D01*
X480246Y295968D01*
X481118Y295837D01*
X481185Y295834D01*
X481420Y295814D01*
X482308Y295815D01*
X482350Y295785D01*
X482465Y295735D01*
X482576Y295676D01*
X482649Y295654D01*
X482719Y295624D01*
X482878Y295586D01*
X482962Y295561D01*
X482998Y295558D01*
X483042Y295548D01*
X483900Y295419D01*
X483976Y295415D01*
X484051Y295402D01*
X484177Y295405D01*
X484302Y295398D01*
X484377Y295410D01*
X484454Y295412D01*
X484576Y295440D01*
X484686Y295456D01*
X485528Y295197D01*
X485594Y295183D01*
X485824Y295129D01*
X486702Y294997D01*
X486740Y294961D01*
X486846Y294894D01*
X486946Y294820D01*
X487016Y294787D01*
X487081Y294747D01*
X487232Y294686D01*
X487311Y294649D01*
X487346Y294641D01*
X487389Y294623D01*
X488217Y294368D01*
X488292Y294353D01*
X488364Y294329D01*
X488489Y294313D01*
X488612Y294288D01*
X488688Y294288D01*
X488764Y294279D01*
X488889Y294288D01*
X489014Y294288D01*
X489089Y294303D01*
X489165Y294309D01*
X489324Y294350D01*
X489409Y294367D01*
X489442Y294381D01*
X489486Y294392D01*
X489570Y294422D01*
X489708Y294486D01*
X489849Y294543D01*
X489890Y294571D01*
X489935Y294592D01*
X490057Y294682D01*
X490184Y294766D01*
X490219Y294801D01*
X490259Y294830D01*
X490361Y294943D01*
X490469Y295050D01*
X490501Y295096D01*
X490530Y295128D01*
X490574Y295202D01*
X490658Y295323D01*
X508932Y326976D01*
X509981Y325969D01*
X510009Y325951D01*
X510043Y325918D01*
X512566Y324177D01*
X512593Y324165D01*
X512615Y324147D01*
X512684Y324127D01*
X512749Y324099D01*
X512778Y324098D01*
X512806Y324090D01*
X512877Y324098D01*
X512948Y324098D01*
X512975Y324109D01*
X513004Y324112D01*
X513066Y324148D01*
X513131Y324175D01*
X513152Y324196D01*
X513177Y324210D01*
X513240Y324287D01*
X513270Y324318D01*
X513274Y324328D01*
X513283Y324338D01*
X522783Y340838D01*
X522793Y340870D01*
X522802Y340883D01*
X522806Y340908D01*
X522807Y340911D01*
X522838Y340982D01*
X522838Y341005D01*
X522846Y341027D01*
X522840Y341104D01*
X522841Y341181D01*
X522831Y341205D01*
X522830Y341225D01*
X522809Y341265D01*
X522783Y341337D01*
X513283Y357837D01*
X513264Y357858D01*
X513251Y357885D01*
X513198Y357932D01*
X513151Y357986D01*
X513125Y357998D01*
X513104Y358018D01*
X513036Y358041D01*
X512972Y358072D01*
X512943Y358073D01*
X512916Y358082D01*
X512844Y358078D01*
X512773Y358081D01*
X512746Y358071D01*
X512717Y358069D01*
X512627Y358026D01*
X512587Y358012D01*
X512579Y358004D01*
X512566Y357998D01*
X510043Y356257D01*
X510019Y356232D01*
X509981Y356206D01*
X508932Y355199D01*
X498269Y373669D01*
X498263Y373676D01*
X498260Y373685D01*
X498147Y373839D01*
X498034Y373996D01*
X498027Y374002D01*
X498022Y374010D01*
X497880Y374139D01*
X497739Y374270D01*
X497731Y374275D01*
X497724Y374281D01*
X497560Y374381D01*
X497396Y374481D01*
X497387Y374484D01*
X497379Y374489D01*
X497199Y374553D01*
X497018Y374620D01*
X497009Y374621D01*
X497000Y374624D01*
X496810Y374652D01*
X496620Y374681D01*
X496611Y374681D01*
X496602Y374682D01*
X496409Y374672D01*
X496218Y374663D01*
X496209Y374661D01*
X496200Y374661D01*
X496015Y374613D01*
X495827Y374566D01*
X495819Y374562D01*
X495810Y374560D01*
X495638Y374477D01*
X495464Y374394D01*
X495456Y374389D01*
X495448Y374385D01*
X495295Y374269D01*
X495141Y374154D01*
X495134Y374147D01*
X495127Y374141D01*
X495001Y373998D01*
X494872Y373854D01*
X494867Y373846D01*
X494861Y373839D01*
X494765Y373673D01*
X494667Y373508D01*
X494664Y373499D01*
X494659Y373491D01*
X494548Y373178D01*
X494163Y371742D01*
X494147Y371644D01*
X494121Y371548D01*
X494111Y371424D01*
X494098Y371344D01*
X494100Y371290D01*
X494094Y371217D01*
X494094Y341427D01*
X487248Y334581D01*
X470848Y334581D01*
X470821Y334578D01*
X470794Y334580D01*
X470620Y334558D01*
X470447Y334541D01*
X470422Y334533D01*
X470395Y334530D01*
X470229Y334474D01*
X470062Y334423D01*
X470039Y334410D01*
X470013Y334401D01*
X469862Y334314D01*
X469708Y334231D01*
X469688Y334214D01*
X469664Y334201D01*
X469411Y333986D01*
X452047Y316622D01*
X452030Y316601D01*
X452010Y316583D01*
X451903Y316446D01*
X451792Y316310D01*
X451780Y316287D01*
X451763Y316265D01*
X451685Y316108D01*
X451603Y315954D01*
X451596Y315929D01*
X451584Y315905D01*
X451538Y315735D01*
X451489Y315569D01*
X451486Y315542D01*
X451479Y315516D01*
X451452Y315185D01*
X451452Y301010D01*
X445697Y295255D01*
X445680Y295234D01*
X445660Y295216D01*
X445553Y295079D01*
X445442Y294943D01*
X445430Y294920D01*
X445413Y294898D01*
X445335Y294741D01*
X445253Y294587D01*
X445246Y294562D01*
X445234Y294538D01*
X445188Y294368D01*
X445139Y294202D01*
X445136Y294175D01*
X445129Y294149D01*
X445102Y293818D01*
X445102Y275393D01*
X442424Y272715D01*
X440841Y271132D01*
X440824Y271112D01*
X440804Y271094D01*
X440697Y270956D01*
X440586Y270821D01*
X440574Y270797D01*
X440557Y270776D01*
X440479Y270619D01*
X440397Y270465D01*
X440390Y270440D01*
X440378Y270415D01*
X440332Y270246D01*
X440283Y270079D01*
X440280Y270053D01*
X440273Y270027D01*
X440246Y269696D01*
X440246Y244725D01*
X437568Y242047D01*
X437568Y242046D01*
X420344Y224823D01*
X392275Y224823D01*
X392257Y224821D01*
X392239Y224823D01*
X392057Y224801D01*
X391874Y224783D01*
X391857Y224778D01*
X391840Y224776D01*
X391665Y224719D01*
X391489Y224665D01*
X391474Y224656D01*
X391457Y224651D01*
X391297Y224560D01*
X391135Y224473D01*
X391122Y224462D01*
X391106Y224453D01*
X390967Y224333D01*
X390826Y224215D01*
X390815Y224201D01*
X390801Y224190D01*
X390689Y224045D01*
X390574Y223902D01*
X390566Y223886D01*
X390555Y223872D01*
X390473Y223707D01*
X390388Y223544D01*
X390383Y223527D01*
X390375Y223511D01*
X390328Y223333D01*
X390277Y223157D01*
X390275Y223140D01*
X390271Y223122D01*
X390244Y222792D01*
X390244Y222630D01*
X389320Y220400D01*
X387681Y218761D01*
X387676Y218754D01*
X387669Y218749D01*
X387548Y218599D01*
X387426Y218450D01*
X387422Y218442D01*
X387416Y218435D01*
X387328Y218265D01*
X387238Y218094D01*
X387235Y218085D01*
X387231Y218078D01*
X387178Y217893D01*
X387123Y217708D01*
X387122Y217699D01*
X387119Y217691D01*
X387104Y217500D01*
X387086Y217307D01*
X387087Y217298D01*
X387087Y217289D01*
X387109Y217100D01*
X387130Y216907D01*
X387132Y216898D01*
X387134Y216890D01*
X387193Y216707D01*
X387251Y216523D01*
X387256Y216515D01*
X387258Y216507D01*
X387353Y216340D01*
X387446Y216171D01*
X387452Y216164D01*
X387456Y216156D01*
X387581Y216011D01*
X387707Y215864D01*
X387714Y215858D01*
X387719Y215851D01*
X387870Y215735D01*
X388022Y215614D01*
X388031Y215610D01*
X388038Y215605D01*
X388209Y215519D01*
X388381Y215432D01*
X388390Y215429D01*
X388398Y215425D01*
X388584Y215375D01*
X388769Y215324D01*
X388778Y215323D01*
X388787Y215321D01*
X389118Y215294D01*
X395770Y215294D01*
X395797Y215296D01*
X395824Y215294D01*
X395998Y215316D01*
X396171Y215334D01*
X396197Y215341D01*
X396223Y215345D01*
X396389Y215400D01*
X396556Y215452D01*
X396580Y215465D01*
X396605Y215473D01*
X396756Y215560D01*
X396910Y215644D01*
X396930Y215661D01*
X396954Y215674D01*
X397207Y215889D01*
X398200Y216882D01*
X400430Y217806D01*
X402845Y217806D01*
X405075Y216882D01*
X406782Y215175D01*
X407706Y212944D01*
X407706Y210530D01*
X406782Y208299D01*
X405075Y206592D01*
X402845Y205668D01*
X400430Y205668D01*
X398200Y206592D01*
X397207Y207585D01*
X397186Y207602D01*
X397169Y207623D01*
X397031Y207730D01*
X396895Y207840D01*
X396872Y207853D01*
X396850Y207869D01*
X396693Y207947D01*
X396539Y208029D01*
X396514Y208037D01*
X396490Y208049D01*
X396320Y208094D01*
X396154Y208144D01*
X396127Y208146D01*
X396101Y208153D01*
X395770Y208180D01*
X382837Y208180D01*
X371185Y219832D01*
X371175Y219841D01*
X371166Y219851D01*
X371019Y219969D01*
X370874Y220087D01*
X370862Y220093D01*
X370852Y220102D01*
X370682Y220189D01*
X370518Y220276D01*
X370505Y220280D01*
X370493Y220286D01*
X370312Y220337D01*
X370132Y220391D01*
X370119Y220392D01*
X370106Y220395D01*
X369920Y220410D01*
X369731Y220427D01*
X369718Y220426D01*
X369705Y220427D01*
X369520Y220404D01*
X369331Y220384D01*
X369318Y220379D01*
X369305Y220378D01*
X369128Y220319D01*
X368947Y220262D01*
X368935Y220256D01*
X368923Y220251D01*
X368760Y220158D01*
X368595Y220067D01*
X368585Y220059D01*
X368573Y220052D01*
X368432Y219929D01*
X368288Y219807D01*
X368279Y219796D01*
X368269Y219787D01*
X368155Y219639D01*
X368038Y219491D01*
X368032Y219479D01*
X368024Y219468D01*
X367872Y219173D01*
X367629Y218586D01*
X366986Y217943D01*
X366951Y217900D01*
X366910Y217862D01*
X366824Y217745D01*
X366731Y217632D01*
X366705Y217582D01*
X366672Y217537D01*
X366611Y217405D01*
X366543Y217276D01*
X366527Y217222D01*
X366503Y217172D01*
X366469Y217030D01*
X366428Y216890D01*
X366423Y216834D01*
X366410Y216780D01*
X366405Y216635D01*
X366391Y216489D01*
X366397Y216433D01*
X366395Y216378D01*
X366419Y216234D01*
X366435Y216089D01*
X366452Y216036D01*
X366461Y215980D01*
X366512Y215844D01*
X366556Y215705D01*
X366583Y215656D01*
X366603Y215604D01*
X366681Y215480D01*
X366751Y215353D01*
X366787Y215310D01*
X366817Y215263D01*
X366962Y215105D01*
X367012Y215046D01*
X367026Y215035D01*
X367041Y215018D01*
X367615Y214485D01*
X367668Y214445D01*
X367852Y214296D01*
X368586Y213796D01*
X368604Y213747D01*
X368671Y213641D01*
X368729Y213530D01*
X368777Y213471D01*
X368818Y213406D01*
X368928Y213286D01*
X368983Y213218D01*
X369011Y213195D01*
X369042Y213161D01*
X369676Y212573D01*
X369737Y212527D01*
X369791Y212474D01*
X369897Y212406D01*
X369997Y212330D01*
X370065Y212297D01*
X370130Y212255D01*
X370246Y212209D01*
X370347Y212161D01*
X370896Y211472D01*
X370943Y211424D01*
X371103Y211249D01*
X371753Y210646D01*
X371764Y210595D01*
X371814Y210480D01*
X371855Y210362D01*
X371894Y210296D01*
X371925Y210226D01*
X372015Y210090D01*
X372060Y210015D01*
X372084Y209988D01*
X372110Y209950D01*
X372649Y209274D01*
X372702Y209219D01*
X372748Y209158D01*
X372842Y209075D01*
X372930Y208986D01*
X372993Y208943D01*
X373050Y208892D01*
X373159Y208829D01*
X373251Y208766D01*
X373691Y208003D01*
X373731Y207949D01*
X373862Y207752D01*
X374416Y207059D01*
X374419Y207006D01*
X374451Y206885D01*
X374474Y206762D01*
X374503Y206691D01*
X374523Y206617D01*
X374592Y206470D01*
X374625Y206389D01*
X374645Y206359D01*
X374665Y206318D01*
X375097Y205569D01*
X375141Y205507D01*
X375178Y205439D01*
X375259Y205343D01*
X375332Y205242D01*
X375388Y205190D01*
X375437Y205131D01*
X375535Y205053D01*
X375616Y204977D01*
X375938Y204157D01*
X375969Y204097D01*
X376070Y203883D01*
X376514Y203115D01*
X376509Y203063D01*
X376523Y202938D01*
X376528Y202813D01*
X376545Y202738D01*
X376554Y202662D01*
X376601Y202506D01*
X376621Y202421D01*
X376636Y202389D01*
X376649Y202345D01*
X376965Y201540D01*
X377000Y201472D01*
X377026Y201400D01*
X377092Y201293D01*
X377149Y201181D01*
X377196Y201122D01*
X377236Y201056D01*
X377322Y200964D01*
X377391Y200877D01*
X377587Y200018D01*
X377608Y199954D01*
X377676Y199728D01*
X378001Y198902D01*
X377988Y198851D01*
X377984Y198726D01*
X377969Y198602D01*
X377976Y198525D01*
X377973Y198449D01*
X377996Y198287D01*
X378004Y198200D01*
X378014Y198166D01*
X378020Y198120D01*
X378213Y197277D01*
X378237Y197205D01*
X378252Y197130D01*
X378301Y197014D01*
X378341Y196896D01*
X378379Y196830D01*
X378408Y196759D01*
X378479Y196655D01*
X378541Y196547D01*
X378592Y196489D01*
X378635Y196426D01*
X378749Y196310D01*
X378807Y196244D01*
X378836Y196222D01*
X378868Y196190D01*
X378921Y196144D01*
X379046Y196057D01*
X379166Y195963D01*
X379210Y195941D01*
X379251Y195913D01*
X379390Y195852D01*
X379527Y195784D01*
X379575Y195771D01*
X379620Y195751D01*
X379768Y195719D01*
X379915Y195679D01*
X379971Y195675D01*
X380013Y195666D01*
X380099Y195664D01*
X380246Y195652D01*
X416850Y195652D01*
X416508Y194257D01*
X416506Y194223D01*
X416495Y194177D01*
X416252Y191127D01*
X416256Y191099D01*
X416251Y191071D01*
X416268Y191001D01*
X416276Y190930D01*
X416291Y190905D01*
X416297Y190878D01*
X416340Y190820D01*
X416376Y190757D01*
X416398Y190740D01*
X416415Y190717D01*
X416477Y190681D01*
X416534Y190637D01*
X416562Y190630D01*
X416586Y190616D01*
X416686Y190599D01*
X416727Y190589D01*
X416737Y190590D01*
X416750Y190588D01*
X435750Y190588D01*
X435826Y190604D01*
G37*
G36*
X281578Y190594D02*
X281578Y190594D01*
X281606Y190591D01*
X281674Y190614D01*
X281745Y190628D01*
X281768Y190644D01*
X281795Y190653D01*
X281850Y190700D01*
X281909Y190740D01*
X281924Y190764D01*
X281946Y190783D01*
X281977Y190847D01*
X282016Y190908D01*
X282021Y190936D01*
X282033Y190961D01*
X282042Y191063D01*
X282049Y191104D01*
X282047Y191114D01*
X282048Y191127D01*
X281805Y194177D01*
X281796Y194210D01*
X281792Y194257D01*
X281450Y195652D01*
X318054Y195652D01*
X318205Y195667D01*
X318357Y195675D01*
X318405Y195687D01*
X318454Y195692D01*
X318600Y195737D01*
X318748Y195774D01*
X318792Y195796D01*
X318839Y195810D01*
X318973Y195883D01*
X319110Y195949D01*
X319156Y195982D01*
X319193Y196002D01*
X319259Y196057D01*
X319379Y196144D01*
X319432Y196190D01*
X319484Y196244D01*
X319497Y196255D01*
X319544Y196294D01*
X319624Y196391D01*
X319710Y196481D01*
X319751Y196546D01*
X319799Y196605D01*
X319858Y196716D01*
X319924Y196822D01*
X319952Y196893D01*
X319987Y196961D01*
X320037Y197117D01*
X320068Y197198D01*
X320074Y197234D01*
X320087Y197277D01*
X320280Y198120D01*
X320289Y198196D01*
X320308Y198270D01*
X320314Y198396D01*
X320330Y198520D01*
X320325Y198596D01*
X320328Y198672D01*
X320310Y198796D01*
X320302Y198908D01*
X320624Y199728D01*
X320642Y199793D01*
X320713Y200018D01*
X320910Y200883D01*
X320949Y200918D01*
X321024Y201019D01*
X321106Y201114D01*
X321143Y201180D01*
X321189Y201242D01*
X321260Y201388D01*
X321303Y201464D01*
X321314Y201498D01*
X321335Y201540D01*
X321651Y202345D01*
X321671Y202418D01*
X321701Y202489D01*
X321726Y202611D01*
X321760Y202732D01*
X321766Y202809D01*
X321781Y202883D01*
X321781Y203009D01*
X321789Y203120D01*
X322230Y203883D01*
X322258Y203944D01*
X322362Y204157D01*
X322686Y204983D01*
X322729Y205011D01*
X322818Y205100D01*
X322913Y205182D01*
X322960Y205242D01*
X323014Y205296D01*
X323107Y205430D01*
X323161Y205499D01*
X323177Y205531D01*
X323203Y205569D01*
X323635Y206318D01*
X323667Y206387D01*
X323707Y206453D01*
X323750Y206570D01*
X323801Y206684D01*
X323818Y206759D01*
X323845Y206831D01*
X323863Y206955D01*
X323888Y207063D01*
X324438Y207752D01*
X324474Y207809D01*
X324609Y208003D01*
X325052Y208772D01*
X325100Y208794D01*
X325201Y208868D01*
X325307Y208935D01*
X325362Y208987D01*
X325424Y209033D01*
X325536Y209152D01*
X325599Y209211D01*
X325620Y209241D01*
X325651Y209274D01*
X326190Y209950D01*
X326232Y210014D01*
X326281Y210073D01*
X326341Y210183D01*
X326409Y210288D01*
X326437Y210359D01*
X326474Y210427D01*
X326511Y210546D01*
X326552Y210650D01*
X327197Y211249D01*
X327242Y211300D01*
X327404Y211472D01*
X327957Y212166D01*
X328007Y212180D01*
X328118Y212239D01*
X328233Y212289D01*
X328296Y212333D01*
X328363Y212368D01*
X328492Y212469D01*
X328563Y212519D01*
X328588Y212545D01*
X328624Y212573D01*
X329258Y213161D01*
X329309Y213219D01*
X329366Y213269D01*
X329442Y213369D01*
X329525Y213463D01*
X329563Y213529D01*
X329609Y213590D01*
X329664Y213703D01*
X329726Y213811D01*
X329751Y213884D01*
X329784Y213953D01*
X329828Y214110D01*
X329856Y214193D01*
X329860Y214228D01*
X329872Y214273D01*
X329904Y214441D01*
X329922Y214645D01*
X329939Y214836D01*
X329939Y214839D01*
X329939Y214842D01*
X329917Y215046D01*
X329896Y215236D01*
X329895Y215239D01*
X329895Y215242D01*
X329833Y215434D01*
X329775Y215620D01*
X329773Y215623D01*
X329772Y215626D01*
X329676Y215798D01*
X329580Y215973D01*
X329578Y215975D01*
X329576Y215977D01*
X329449Y216126D01*
X329319Y216280D01*
X329317Y216281D01*
X329315Y216284D01*
X329167Y216400D01*
X329003Y216529D01*
X329001Y216530D01*
X328998Y216532D01*
X328824Y216620D01*
X328644Y216711D01*
X328642Y216712D01*
X328639Y216714D01*
X328449Y216766D01*
X328256Y216819D01*
X328254Y216820D01*
X328251Y216820D01*
X328060Y216834D01*
X327855Y216849D01*
X327852Y216848D01*
X327849Y216849D01*
X327655Y216824D01*
X327455Y216798D01*
X327453Y216797D01*
X327450Y216797D01*
X327259Y216732D01*
X327074Y216670D01*
X327071Y216669D01*
X327069Y216668D01*
X326898Y216569D01*
X326725Y216469D01*
X326723Y216467D01*
X326720Y216466D01*
X326703Y216451D01*
X326472Y216255D01*
X326371Y216153D01*
X320027Y216153D01*
X320001Y216151D01*
X319974Y216153D01*
X319800Y216131D01*
X319627Y216113D01*
X319601Y216106D01*
X319574Y216102D01*
X319409Y216047D01*
X319242Y215995D01*
X319218Y215982D01*
X319193Y215974D01*
X319041Y215887D01*
X318888Y215803D01*
X318867Y215786D01*
X318844Y215773D01*
X318591Y215558D01*
X310938Y207906D01*
X275077Y207906D01*
X247809Y235174D01*
X247792Y235188D01*
X247777Y235205D01*
X247636Y235315D01*
X247497Y235429D01*
X247478Y235439D01*
X247460Y235453D01*
X247299Y235534D01*
X247142Y235617D01*
X247120Y235624D01*
X247100Y235634D01*
X246927Y235681D01*
X246756Y235732D01*
X246734Y235734D01*
X246712Y235740D01*
X246534Y235752D01*
X246355Y235768D01*
X246333Y235766D01*
X246310Y235767D01*
X246134Y235744D01*
X245955Y235725D01*
X245933Y235718D01*
X245911Y235715D01*
X245595Y235614D01*
X244926Y235337D01*
X244793Y235265D01*
X244657Y235201D01*
X244616Y235171D01*
X244571Y235146D01*
X244455Y235050D01*
X244334Y234960D01*
X244300Y234922D01*
X244261Y234890D01*
X244166Y234773D01*
X244065Y234661D01*
X244039Y234617D01*
X244007Y234577D01*
X243937Y234444D01*
X243860Y234314D01*
X243844Y234266D01*
X243820Y234221D01*
X243778Y234076D01*
X243728Y233934D01*
X243721Y233883D01*
X243707Y233834D01*
X243694Y233684D01*
X243673Y233535D01*
X243677Y233484D01*
X243672Y233433D01*
X243689Y233284D01*
X243698Y233133D01*
X243712Y233084D01*
X243717Y233033D01*
X243763Y232890D01*
X243802Y232744D01*
X243827Y232692D01*
X243841Y232650D01*
X243882Y232575D01*
X243944Y232444D01*
X257036Y209767D01*
X255678Y209376D01*
X255648Y209360D01*
X255603Y209347D01*
X252837Y208039D01*
X252814Y208022D01*
X252787Y208012D01*
X252735Y207963D01*
X252677Y207920D01*
X252663Y207895D01*
X252642Y207875D01*
X252613Y207810D01*
X252577Y207748D01*
X252574Y207720D01*
X252562Y207693D01*
X252561Y207621D01*
X252552Y207551D01*
X252560Y207523D01*
X252560Y207494D01*
X252595Y207400D01*
X252606Y207359D01*
X252613Y207351D01*
X252617Y207338D01*
X262117Y190838D01*
X262169Y190780D01*
X262215Y190717D01*
X262234Y190706D01*
X262249Y190689D01*
X262319Y190656D01*
X262386Y190616D01*
X262411Y190612D01*
X262428Y190603D01*
X262473Y190601D01*
X262550Y190588D01*
X281550Y190588D01*
X281578Y190594D01*
G37*
G36*
X481091Y388655D02*
X481091Y388655D01*
X481134Y388654D01*
X485127Y389254D01*
X485157Y389265D01*
X485200Y389271D01*
X489059Y390460D01*
X489087Y390475D01*
X489128Y390487D01*
X492766Y392238D01*
X492788Y392254D01*
X492814Y392264D01*
X492867Y392314D01*
X492925Y392358D01*
X492938Y392381D01*
X492958Y392400D01*
X492988Y392467D01*
X493024Y392530D01*
X493027Y392557D01*
X493038Y392582D01*
X493039Y392655D01*
X493048Y392728D01*
X493040Y392754D01*
X493040Y392781D01*
X493004Y392880D01*
X492992Y392919D01*
X492986Y392926D01*
X492982Y392937D01*
X465982Y439737D01*
X465964Y439757D01*
X465953Y439782D01*
X465899Y439831D01*
X465851Y439886D01*
X465826Y439898D01*
X465806Y439916D01*
X465737Y439940D01*
X465671Y439972D01*
X465644Y439973D01*
X465619Y439982D01*
X465546Y439977D01*
X465473Y439981D01*
X465447Y439971D01*
X465420Y439970D01*
X465324Y439926D01*
X465286Y439911D01*
X465279Y439905D01*
X465269Y439900D01*
X461932Y437627D01*
X461910Y437604D01*
X461874Y437580D01*
X458913Y434835D01*
X458894Y434809D01*
X458862Y434780D01*
X456344Y431624D01*
X456329Y431596D01*
X456302Y431563D01*
X454282Y428066D01*
X454272Y428036D01*
X454249Y427999D01*
X452773Y424241D01*
X452768Y424210D01*
X452751Y424170D01*
X451851Y420234D01*
X451851Y420202D01*
X451840Y420160D01*
X451537Y416134D01*
X451540Y416110D01*
X451537Y416090D01*
X451539Y416081D01*
X451537Y416059D01*
X451838Y412033D01*
X451846Y412002D01*
X451849Y411959D01*
X452746Y408022D01*
X452759Y407993D01*
X452768Y407951D01*
X454242Y404192D01*
X454259Y404165D01*
X454274Y404124D01*
X456292Y400627D01*
X456313Y400603D01*
X456334Y400565D01*
X458850Y397408D01*
X458875Y397387D01*
X458901Y397353D01*
X461860Y394606D01*
X461887Y394589D01*
X461918Y394559D01*
X465254Y392284D01*
X465283Y392271D01*
X465318Y392246D01*
X468956Y390493D01*
X468986Y390486D01*
X469025Y390466D01*
X472883Y389275D01*
X472915Y389272D01*
X472956Y389258D01*
X476948Y388655D01*
X476980Y388657D01*
X477022Y388649D01*
X481060Y388648D01*
X481091Y388655D01*
G37*
G36*
X221278Y388649D02*
X221278Y388649D01*
X221309Y388656D01*
X221352Y388655D01*
X225344Y389258D01*
X225374Y389269D01*
X225417Y389275D01*
X229275Y390466D01*
X229303Y390481D01*
X229345Y390493D01*
X232982Y392246D01*
X233007Y392266D01*
X233046Y392284D01*
X236382Y394559D01*
X236404Y394582D01*
X236440Y394606D01*
X239399Y397353D01*
X239418Y397379D01*
X239450Y397408D01*
X241966Y400565D01*
X241981Y400594D01*
X242008Y400627D01*
X244026Y404124D01*
X244036Y404155D01*
X244058Y404192D01*
X245532Y407951D01*
X245538Y407982D01*
X245554Y408022D01*
X246451Y411959D01*
X246452Y411991D01*
X246462Y412033D01*
X246763Y416059D01*
X246759Y416091D01*
X246760Y416107D01*
X246763Y416123D01*
X246762Y416127D01*
X246763Y416134D01*
X246460Y420160D01*
X246451Y420191D01*
X246449Y420234D01*
X245549Y424170D01*
X245536Y424199D01*
X245527Y424241D01*
X244051Y427999D01*
X244033Y428026D01*
X244018Y428066D01*
X241998Y431563D01*
X241977Y431586D01*
X241956Y431624D01*
X239438Y434780D01*
X239413Y434801D01*
X239387Y434835D01*
X236426Y437580D01*
X236399Y437597D01*
X236368Y437627D01*
X233031Y439900D01*
X233006Y439911D01*
X232985Y439928D01*
X232915Y439949D01*
X232848Y439977D01*
X232820Y439977D01*
X232794Y439985D01*
X232722Y439977D01*
X232649Y439976D01*
X232624Y439966D01*
X232597Y439963D01*
X232533Y439927D01*
X232466Y439898D01*
X232447Y439879D01*
X232424Y439865D01*
X232357Y439784D01*
X232328Y439755D01*
X232325Y439746D01*
X232318Y439737D01*
X205318Y392937D01*
X205309Y392911D01*
X205293Y392889D01*
X205278Y392818D01*
X205254Y392748D01*
X205257Y392721D01*
X205251Y392695D01*
X205264Y392623D01*
X205270Y392550D01*
X205283Y392526D01*
X205288Y392499D01*
X205328Y392439D01*
X205362Y392374D01*
X205383Y392356D01*
X205398Y392334D01*
X205484Y392273D01*
X205515Y392247D01*
X205524Y392244D01*
X205534Y392238D01*
X209172Y390487D01*
X209203Y390479D01*
X209241Y390460D01*
X213100Y389271D01*
X213132Y389268D01*
X213173Y389254D01*
X217166Y388654D01*
X217197Y388655D01*
X217240Y388648D01*
X221278Y388649D01*
G37*
G36*
X465578Y242198D02*
X465578Y242198D01*
X465651Y242199D01*
X465676Y242209D01*
X465703Y242212D01*
X465767Y242248D01*
X465834Y242277D01*
X465853Y242296D01*
X465876Y242310D01*
X465944Y242391D01*
X465972Y242420D01*
X465975Y242429D01*
X465982Y242438D01*
X492982Y289238D01*
X492991Y289264D01*
X493007Y289286D01*
X493022Y289357D01*
X493046Y289427D01*
X493043Y289454D01*
X493049Y289480D01*
X493036Y289552D01*
X493030Y289625D01*
X493017Y289649D01*
X493012Y289676D01*
X492972Y289737D01*
X492938Y289801D01*
X492917Y289819D01*
X492902Y289841D01*
X492816Y289902D01*
X492785Y289928D01*
X492776Y289931D01*
X492766Y289937D01*
X489128Y291688D01*
X489097Y291696D01*
X489059Y291715D01*
X485200Y292904D01*
X485168Y292907D01*
X485127Y292921D01*
X481134Y293521D01*
X481103Y293520D01*
X481060Y293527D01*
X477022Y293526D01*
X476991Y293519D01*
X476948Y293520D01*
X472956Y292917D01*
X472926Y292906D01*
X472883Y292900D01*
X469025Y291709D01*
X468997Y291694D01*
X468956Y291682D01*
X465318Y289929D01*
X465293Y289909D01*
X465254Y289891D01*
X461918Y287616D01*
X461896Y287593D01*
X461860Y287569D01*
X458901Y284822D01*
X458882Y284796D01*
X458850Y284767D01*
X456334Y281610D01*
X456319Y281581D01*
X456292Y281548D01*
X454274Y278051D01*
X454264Y278020D01*
X454242Y277983D01*
X452768Y274224D01*
X452762Y274193D01*
X452746Y274153D01*
X451849Y270216D01*
X451848Y270184D01*
X451838Y270142D01*
X451537Y266116D01*
X451541Y266084D01*
X451537Y266041D01*
X451840Y262015D01*
X451849Y261984D01*
X451851Y261941D01*
X452751Y258005D01*
X452764Y257976D01*
X452773Y257934D01*
X454249Y254176D01*
X454267Y254149D01*
X454282Y254109D01*
X456302Y250613D01*
X456323Y250589D01*
X456344Y250551D01*
X458862Y247395D01*
X458887Y247375D01*
X458913Y247340D01*
X461874Y244595D01*
X461901Y244578D01*
X461932Y244548D01*
X465269Y242275D01*
X465294Y242264D01*
X465315Y242247D01*
X465385Y242226D01*
X465452Y242198D01*
X465480Y242198D01*
X465506Y242190D01*
X465578Y242198D01*
G37*
G36*
X232754Y242198D02*
X232754Y242198D01*
X232827Y242194D01*
X232853Y242204D01*
X232880Y242205D01*
X232976Y242249D01*
X233014Y242264D01*
X233021Y242270D01*
X233031Y242275D01*
X236368Y244548D01*
X236390Y244571D01*
X236426Y244595D01*
X239387Y247340D01*
X239406Y247366D01*
X239438Y247395D01*
X241956Y250551D01*
X241971Y250579D01*
X241998Y250613D01*
X244018Y254109D01*
X244028Y254139D01*
X244051Y254176D01*
X245527Y257934D01*
X245532Y257965D01*
X245549Y258005D01*
X246449Y261941D01*
X246449Y261973D01*
X246460Y262015D01*
X246763Y266041D01*
X246759Y266073D01*
X246763Y266116D01*
X246462Y270142D01*
X246454Y270173D01*
X246451Y270216D01*
X245554Y274153D01*
X245541Y274182D01*
X245532Y274224D01*
X244058Y277983D01*
X244041Y278010D01*
X244026Y278051D01*
X242008Y281548D01*
X241987Y281572D01*
X241966Y281610D01*
X239450Y284767D01*
X239425Y284788D01*
X239399Y284822D01*
X236440Y287569D01*
X236413Y287586D01*
X236382Y287616D01*
X233046Y289891D01*
X233017Y289904D01*
X232982Y289929D01*
X229345Y291682D01*
X229314Y291689D01*
X229275Y291709D01*
X225417Y292900D01*
X225385Y292903D01*
X225344Y292917D01*
X221352Y293520D01*
X221320Y293518D01*
X221278Y293526D01*
X217240Y293527D01*
X217209Y293521D01*
X217166Y293521D01*
X213173Y292921D01*
X213143Y292910D01*
X213100Y292904D01*
X209241Y291715D01*
X209213Y291700D01*
X209172Y291688D01*
X205534Y289937D01*
X205512Y289921D01*
X205486Y289911D01*
X205433Y289861D01*
X205375Y289817D01*
X205362Y289794D01*
X205342Y289775D01*
X205312Y289708D01*
X205276Y289645D01*
X205273Y289618D01*
X205262Y289593D01*
X205261Y289520D01*
X205252Y289447D01*
X205260Y289421D01*
X205260Y289394D01*
X205296Y289295D01*
X205308Y289256D01*
X205314Y289249D01*
X205318Y289238D01*
X232318Y242438D01*
X232336Y242418D01*
X232347Y242393D01*
X232401Y242344D01*
X232449Y242289D01*
X232474Y242277D01*
X232494Y242259D01*
X232563Y242235D01*
X232629Y242203D01*
X232656Y242202D01*
X232681Y242193D01*
X232754Y242198D01*
G37*
G36*
X376177Y190594D02*
X376177Y190594D01*
X376204Y190591D01*
X376273Y190613D01*
X376345Y190628D01*
X376367Y190643D01*
X376393Y190652D01*
X376449Y190699D01*
X376509Y190740D01*
X376523Y190763D01*
X376544Y190781D01*
X376577Y190846D01*
X376616Y190908D01*
X376620Y190935D01*
X376632Y190959D01*
X376642Y191064D01*
X376649Y191104D01*
X376647Y191113D01*
X376648Y191125D01*
X376346Y195149D01*
X376338Y195180D01*
X376335Y195223D01*
X375437Y199157D01*
X375424Y199186D01*
X375415Y199228D01*
X373941Y202985D01*
X373924Y203012D01*
X373909Y203052D01*
X371891Y206547D01*
X371870Y206571D01*
X371849Y206608D01*
X369333Y209763D01*
X369308Y209784D01*
X369282Y209818D01*
X366324Y212563D01*
X366297Y212579D01*
X366265Y212609D01*
X362931Y214883D01*
X362902Y214895D01*
X362867Y214920D01*
X359231Y216671D01*
X359200Y216679D01*
X359161Y216698D01*
X355305Y217888D01*
X355274Y217891D01*
X355232Y217904D01*
X351242Y218506D01*
X351210Y218504D01*
X351168Y218511D01*
X347132Y218511D01*
X347101Y218505D01*
X347058Y218506D01*
X343068Y217904D01*
X343038Y217893D01*
X342995Y217888D01*
X339139Y216698D01*
X339111Y216683D01*
X339069Y216671D01*
X335433Y214920D01*
X335408Y214901D01*
X335369Y214883D01*
X332035Y212609D01*
X332012Y212587D01*
X331976Y212563D01*
X329018Y209818D01*
X329000Y209792D01*
X328967Y209763D01*
X326451Y206608D01*
X326437Y206580D01*
X326409Y206547D01*
X324391Y203052D01*
X324381Y203022D01*
X324359Y202985D01*
X322885Y199228D01*
X322879Y199197D01*
X322863Y199157D01*
X321965Y195223D01*
X321964Y195191D01*
X321954Y195149D01*
X321652Y191125D01*
X321656Y191098D01*
X321651Y191071D01*
X321668Y191000D01*
X321677Y190928D01*
X321691Y190904D01*
X321697Y190878D01*
X321740Y190819D01*
X321777Y190756D01*
X321799Y190739D01*
X321815Y190717D01*
X321878Y190680D01*
X321936Y190636D01*
X321963Y190630D01*
X321986Y190616D01*
X322090Y190598D01*
X322129Y190589D01*
X322139Y190590D01*
X322150Y190588D01*
X376150Y190588D01*
X376177Y190594D01*
G37*
G36*
X290548Y247377D02*
X290548Y247377D01*
X290566Y247376D01*
X290747Y247399D01*
X290931Y247419D01*
X290948Y247424D01*
X290965Y247426D01*
X291139Y247485D01*
X291314Y247540D01*
X291330Y247549D01*
X291347Y247555D01*
X291505Y247646D01*
X291667Y247735D01*
X291680Y247747D01*
X291696Y247756D01*
X291949Y247970D01*
X292487Y248508D01*
X292498Y248522D01*
X292512Y248534D01*
X292626Y248678D01*
X292742Y248820D01*
X292750Y248835D01*
X292761Y248849D01*
X292844Y249013D01*
X292930Y249175D01*
X292936Y249193D01*
X292944Y249208D01*
X292993Y249385D01*
X293045Y249561D01*
X293047Y249579D01*
X293052Y249596D01*
X293065Y249779D01*
X293082Y249962D01*
X293080Y249980D01*
X293081Y249998D01*
X293058Y250179D01*
X293038Y250362D01*
X293033Y250380D01*
X293031Y250397D01*
X292972Y250571D01*
X292917Y250746D01*
X292908Y250762D01*
X292902Y250779D01*
X292811Y250938D01*
X292722Y251099D01*
X292710Y251112D01*
X292701Y251128D01*
X292487Y251381D01*
X291631Y252236D01*
X290708Y254467D01*
X290708Y256881D01*
X291631Y259111D01*
X293339Y260819D01*
X295869Y261867D01*
X295881Y261873D01*
X295894Y261877D01*
X296059Y261968D01*
X296224Y262057D01*
X296234Y262065D01*
X296246Y262072D01*
X296389Y262194D01*
X296534Y262313D01*
X296543Y262324D01*
X296553Y262332D01*
X296669Y262479D01*
X296788Y262626D01*
X296794Y262638D01*
X296802Y262648D01*
X296887Y262816D01*
X296975Y262982D01*
X296979Y262995D01*
X296985Y263007D01*
X297035Y263188D01*
X297088Y263369D01*
X297089Y263382D01*
X297093Y263395D01*
X297107Y263584D01*
X297123Y263770D01*
X297121Y263783D01*
X297122Y263797D01*
X297098Y263985D01*
X297078Y264170D01*
X297073Y264183D01*
X297072Y264196D01*
X297012Y264375D01*
X296954Y264553D01*
X296948Y264565D01*
X296944Y264578D01*
X296849Y264741D01*
X296758Y264905D01*
X296749Y264915D01*
X296743Y264927D01*
X296528Y265180D01*
X290637Y271071D01*
X290637Y281693D01*
X290635Y281711D01*
X290636Y281729D01*
X290615Y281911D01*
X290597Y282094D01*
X290592Y282111D01*
X290590Y282128D01*
X290533Y282303D01*
X290479Y282479D01*
X290470Y282494D01*
X290465Y282511D01*
X290374Y282671D01*
X290287Y282833D01*
X290276Y282846D01*
X290267Y282862D01*
X290147Y283001D01*
X290029Y283142D01*
X290015Y283153D01*
X290004Y283167D01*
X289859Y283279D01*
X289715Y283394D01*
X289700Y283402D01*
X289686Y283413D01*
X289521Y283495D01*
X289358Y283580D01*
X289341Y283585D01*
X289325Y283593D01*
X289147Y283640D01*
X288971Y283691D01*
X288953Y283693D01*
X288936Y283697D01*
X288606Y283724D01*
X275014Y283724D01*
X275005Y283723D01*
X274996Y283724D01*
X274804Y283703D01*
X274613Y283684D01*
X274604Y283682D01*
X274595Y283681D01*
X274413Y283623D01*
X274228Y283566D01*
X274220Y283562D01*
X274212Y283559D01*
X274042Y283466D01*
X273874Y283374D01*
X273867Y283369D01*
X273859Y283364D01*
X273711Y283239D01*
X273565Y283117D01*
X273559Y283110D01*
X273552Y283104D01*
X273432Y282952D01*
X273312Y282803D01*
X273308Y282795D01*
X273303Y282788D01*
X273215Y282615D01*
X273127Y282446D01*
X273124Y282437D01*
X273120Y282429D01*
X273068Y282242D01*
X273015Y282059D01*
X273015Y282050D01*
X273012Y282041D01*
X272998Y281849D01*
X272983Y281657D01*
X272984Y281649D01*
X272983Y281640D01*
X273007Y281448D01*
X273029Y281258D01*
X273032Y281249D01*
X273033Y281240D01*
X273095Y281058D01*
X273154Y280875D01*
X273159Y280867D01*
X273162Y280859D01*
X273258Y280691D01*
X273352Y280524D01*
X273358Y280517D01*
X273363Y280510D01*
X273577Y280257D01*
X273924Y279910D01*
X273924Y251118D01*
X273926Y251100D01*
X273925Y251082D01*
X273946Y250900D01*
X273964Y250717D01*
X273969Y250700D01*
X273971Y250683D01*
X274028Y250508D01*
X274082Y250332D01*
X274091Y250317D01*
X274096Y250300D01*
X274187Y250140D01*
X274274Y249978D01*
X274285Y249965D01*
X274294Y249949D01*
X274414Y249810D01*
X274532Y249669D01*
X274546Y249658D01*
X274557Y249644D01*
X274702Y249532D01*
X274846Y249417D01*
X274861Y249409D01*
X274875Y249398D01*
X275040Y249316D01*
X275203Y249231D01*
X275220Y249226D01*
X275236Y249218D01*
X275414Y249171D01*
X275590Y249120D01*
X275608Y249118D01*
X275625Y249114D01*
X275955Y249087D01*
X287960Y249087D01*
X289076Y247970D01*
X289090Y247959D01*
X289101Y247945D01*
X289246Y247831D01*
X289388Y247715D01*
X289403Y247707D01*
X289417Y247696D01*
X289582Y247612D01*
X289743Y247527D01*
X289760Y247521D01*
X289776Y247513D01*
X289953Y247464D01*
X290129Y247412D01*
X290147Y247410D01*
X290164Y247405D01*
X290347Y247392D01*
X290530Y247375D01*
X290548Y247377D01*
G37*
G36*
X385861Y268618D02*
X385861Y268618D01*
X385960Y268621D01*
X386018Y268638D01*
X386078Y268646D01*
X386170Y268682D01*
X386265Y268710D01*
X386317Y268740D01*
X386374Y268763D01*
X386454Y268821D01*
X386539Y268871D01*
X386615Y268937D01*
X386631Y268949D01*
X386639Y268959D01*
X386660Y268978D01*
X395813Y278131D01*
X395943Y278131D01*
X396042Y278143D01*
X396141Y278146D01*
X396199Y278163D01*
X396259Y278171D01*
X396319Y278194D01*
X409638Y278194D01*
X409737Y278207D01*
X409836Y278210D01*
X409894Y278226D01*
X409954Y278234D01*
X410046Y278271D01*
X410141Y278298D01*
X410193Y278329D01*
X410250Y278351D01*
X410330Y278409D01*
X410415Y278460D01*
X410491Y278526D01*
X410507Y278538D01*
X410515Y278547D01*
X410536Y278566D01*
X412060Y280090D01*
X412121Y280168D01*
X412189Y280240D01*
X412218Y280293D01*
X412255Y280341D01*
X412294Y280432D01*
X412342Y280519D01*
X412357Y280577D01*
X412381Y280633D01*
X412397Y280731D01*
X412422Y280827D01*
X412428Y280927D01*
X412431Y280947D01*
X412430Y280960D01*
X412432Y280988D01*
X412432Y292100D01*
X412417Y292218D01*
X412409Y292337D01*
X412397Y292375D01*
X412392Y292416D01*
X412348Y292526D01*
X412311Y292639D01*
X412290Y292674D01*
X412275Y292711D01*
X412205Y292807D01*
X412141Y292908D01*
X412112Y292936D01*
X412088Y292969D01*
X411996Y293045D01*
X411910Y293126D01*
X411874Y293146D01*
X411843Y293171D01*
X411735Y293222D01*
X411631Y293280D01*
X411592Y293290D01*
X411555Y293307D01*
X411439Y293329D01*
X411323Y293359D01*
X411263Y293363D01*
X411243Y293367D01*
X411223Y293365D01*
X411163Y293369D01*
X400050Y293369D01*
X399952Y293357D01*
X399853Y293354D01*
X399795Y293337D01*
X399734Y293329D01*
X399642Y293293D01*
X399547Y293265D01*
X399495Y293235D01*
X399439Y293212D01*
X399359Y293154D01*
X399273Y293104D01*
X399198Y293038D01*
X399181Y293026D01*
X399174Y293016D01*
X399153Y292998D01*
X388929Y282774D01*
X388868Y282696D01*
X388800Y282624D01*
X388771Y282571D01*
X388734Y282523D01*
X388695Y282432D01*
X388647Y282345D01*
X388632Y282287D01*
X388608Y282231D01*
X388592Y282133D01*
X388567Y282037D01*
X388565Y281994D01*
X387218Y280647D01*
X379413Y280647D01*
X379294Y280632D01*
X379176Y280625D01*
X379137Y280612D01*
X379097Y280607D01*
X378986Y280564D01*
X378873Y280527D01*
X378839Y280505D01*
X378801Y280490D01*
X378705Y280421D01*
X378604Y280357D01*
X378577Y280327D01*
X378544Y280304D01*
X378468Y280212D01*
X378386Y280125D01*
X378367Y280090D01*
X378341Y280059D01*
X378290Y279951D01*
X378233Y279847D01*
X378223Y279807D01*
X378206Y279771D01*
X378183Y279654D01*
X378153Y279539D01*
X378150Y279479D01*
X378146Y279459D01*
X378147Y279438D01*
X378143Y279378D01*
X378143Y269875D01*
X378158Y269757D01*
X378166Y269638D01*
X378178Y269600D01*
X378183Y269559D01*
X378227Y269449D01*
X378264Y269336D01*
X378285Y269301D01*
X378300Y269264D01*
X378370Y269168D01*
X378434Y269067D01*
X378463Y269039D01*
X378487Y269006D01*
X378579Y268931D01*
X378665Y268849D01*
X378701Y268829D01*
X378732Y268804D01*
X378840Y268753D01*
X378944Y268695D01*
X378983Y268685D01*
X379020Y268668D01*
X379136Y268646D01*
X379252Y268616D01*
X379312Y268612D01*
X379332Y268608D01*
X379352Y268610D01*
X379413Y268606D01*
X385763Y268606D01*
X385861Y268618D01*
G37*
G36*
X417052Y246048D02*
X417052Y246048D01*
X417070Y246047D01*
X417252Y246070D01*
X417434Y246090D01*
X417451Y246095D01*
X417469Y246097D01*
X417643Y246156D01*
X417818Y246211D01*
X417834Y246220D01*
X417851Y246226D01*
X418010Y246317D01*
X418171Y246406D01*
X418184Y246418D01*
X418200Y246427D01*
X418453Y246641D01*
X422886Y251074D01*
X422903Y251095D01*
X422923Y251113D01*
X423030Y251251D01*
X423141Y251386D01*
X423153Y251410D01*
X423170Y251431D01*
X423248Y251588D01*
X423330Y251742D01*
X423337Y251767D01*
X423349Y251791D01*
X423395Y251961D01*
X423444Y252128D01*
X423447Y252154D01*
X423454Y252180D01*
X423481Y252511D01*
X423481Y270672D01*
X423480Y270681D01*
X423481Y270690D01*
X423460Y270882D01*
X423441Y271073D01*
X423438Y271081D01*
X423437Y271090D01*
X423380Y271272D01*
X423323Y271457D01*
X423318Y271465D01*
X423316Y271474D01*
X423223Y271642D01*
X423131Y271811D01*
X423125Y271818D01*
X423121Y271826D01*
X422996Y271974D01*
X422873Y272121D01*
X422866Y272126D01*
X422860Y272133D01*
X422709Y272253D01*
X422559Y272373D01*
X422552Y272377D01*
X422545Y272383D01*
X422372Y272470D01*
X422202Y272559D01*
X422194Y272561D01*
X422186Y272565D01*
X422000Y272617D01*
X421815Y272670D01*
X421806Y272671D01*
X421798Y272673D01*
X421605Y272687D01*
X421414Y272703D01*
X421405Y272702D01*
X421396Y272702D01*
X421203Y272678D01*
X421014Y272656D01*
X421006Y272653D01*
X420997Y272652D01*
X420814Y272591D01*
X420631Y272531D01*
X420623Y272527D01*
X420615Y272524D01*
X420450Y272428D01*
X420281Y272333D01*
X420274Y272327D01*
X420266Y272323D01*
X420013Y272108D01*
X418986Y271081D01*
X417718Y271081D01*
X417700Y271079D01*
X417682Y271080D01*
X417500Y271059D01*
X417317Y271041D01*
X417300Y271036D01*
X417283Y271034D01*
X417108Y270977D01*
X416932Y270923D01*
X416917Y270914D01*
X416900Y270909D01*
X416740Y270818D01*
X416578Y270731D01*
X416565Y270720D01*
X416549Y270711D01*
X416410Y270591D01*
X416269Y270473D01*
X416258Y270459D01*
X416244Y270448D01*
X416132Y270303D01*
X416017Y270159D01*
X416009Y270144D01*
X415998Y270130D01*
X415915Y269964D01*
X415831Y269802D01*
X415826Y269785D01*
X415818Y269769D01*
X415770Y269591D01*
X415720Y269415D01*
X415718Y269397D01*
X415714Y269380D01*
X415687Y269050D01*
X415687Y264640D01*
X414347Y263301D01*
X402655Y263301D01*
X402629Y263298D01*
X402602Y263300D01*
X402428Y263278D01*
X402254Y263261D01*
X402229Y263253D01*
X402202Y263250D01*
X402037Y263194D01*
X401870Y263143D01*
X401846Y263130D01*
X401821Y263121D01*
X401669Y263034D01*
X401516Y262951D01*
X401495Y262934D01*
X401472Y262920D01*
X401219Y262706D01*
X396833Y258320D01*
X396600Y258087D01*
X396588Y258073D01*
X396575Y258061D01*
X396461Y257917D01*
X396345Y257775D01*
X396336Y257759D01*
X396325Y257745D01*
X396242Y257581D01*
X396156Y257420D01*
X396151Y257402D01*
X396143Y257386D01*
X396093Y257209D01*
X396041Y257034D01*
X396040Y257016D01*
X396035Y256998D01*
X396021Y256816D01*
X396005Y256633D01*
X396007Y256615D01*
X396005Y256597D01*
X396028Y256415D01*
X396048Y256232D01*
X396054Y256215D01*
X396056Y256197D01*
X396114Y256023D01*
X396170Y255849D01*
X396178Y255833D01*
X396184Y255816D01*
X396275Y255657D01*
X396364Y255496D01*
X396376Y255482D01*
X396385Y255467D01*
X396600Y255214D01*
X396738Y255075D01*
X403344Y248469D01*
X403365Y248452D01*
X403383Y248432D01*
X403521Y248325D01*
X403656Y248214D01*
X403680Y248202D01*
X403701Y248185D01*
X403858Y248107D01*
X404012Y248026D01*
X404037Y248018D01*
X404061Y248006D01*
X404231Y247960D01*
X404398Y247911D01*
X404424Y247908D01*
X404450Y247901D01*
X404781Y247874D01*
X414347Y247874D01*
X415580Y246641D01*
X415594Y246630D01*
X415605Y246616D01*
X415750Y246503D01*
X415892Y246386D01*
X415907Y246378D01*
X415921Y246367D01*
X416085Y246283D01*
X416247Y246198D01*
X416264Y246193D01*
X416280Y246184D01*
X416457Y246135D01*
X416633Y246083D01*
X416651Y246081D01*
X416668Y246076D01*
X416851Y246063D01*
X417034Y246046D01*
X417052Y246048D01*
G37*
%LPC*%
G36*
X259671Y366466D02*
X259671Y366466D01*
X257441Y367389D01*
X255733Y369097D01*
X254809Y371327D01*
X254809Y373741D01*
X255733Y375972D01*
X257441Y377679D01*
X259247Y378427D01*
X259266Y378438D01*
X259288Y378445D01*
X259444Y378533D01*
X259602Y378617D01*
X259619Y378632D01*
X259638Y378643D01*
X259774Y378760D01*
X259912Y378874D01*
X259926Y378891D01*
X259943Y378906D01*
X260053Y379048D01*
X260166Y379187D01*
X260176Y379206D01*
X260190Y379224D01*
X260270Y379384D01*
X260353Y379543D01*
X260359Y379564D01*
X260369Y379584D01*
X260416Y379758D01*
X260466Y379929D01*
X260468Y379952D01*
X260474Y379973D01*
X260501Y380304D01*
X260501Y381690D01*
X260500Y381699D01*
X260501Y381708D01*
X260480Y381901D01*
X260461Y382091D01*
X260458Y382099D01*
X260457Y382108D01*
X260399Y382291D01*
X260343Y382475D01*
X260338Y382483D01*
X260336Y382492D01*
X260243Y382659D01*
X260151Y382830D01*
X260145Y382836D01*
X260141Y382844D01*
X260054Y382947D01*
X260063Y382939D01*
X260215Y382820D01*
X260223Y382816D01*
X260230Y382810D01*
X260402Y382725D01*
X260574Y382637D01*
X260583Y382635D01*
X260591Y382631D01*
X260778Y382581D01*
X260962Y382529D01*
X260971Y382529D01*
X260979Y382526D01*
X261310Y382499D01*
X274735Y382499D01*
X276074Y381160D01*
X276074Y369265D01*
X274735Y367926D01*
X265694Y367926D01*
X265667Y367923D01*
X265640Y367925D01*
X265467Y367903D01*
X265293Y367886D01*
X265267Y367878D01*
X265241Y367875D01*
X265075Y367819D01*
X264908Y367768D01*
X264884Y367755D01*
X264859Y367746D01*
X264708Y367659D01*
X264554Y367576D01*
X264533Y367559D01*
X264510Y367545D01*
X264336Y367398D01*
X262085Y366466D01*
X259671Y366466D01*
G37*
%LPD*%
D10*
X422838Y287338D03*
X405838Y287338D03*
D11*
X406425Y320675D03*
X425425Y320675D03*
D12*
X282013Y241300D03*
X299013Y241300D03*
D13*
X406400Y267587D03*
X406400Y255588D03*
X406400Y243588D03*
D10*
X457763Y355600D03*
X440763Y355600D03*
X422838Y301625D03*
X405838Y301625D03*
X283138Y257175D03*
X266138Y257175D03*
D11*
X265138Y271463D03*
X284138Y271463D03*
D10*
X238125Y360925D03*
X238125Y343925D03*
D11*
X406425Y342900D03*
X425425Y342900D03*
D12*
X427600Y361950D03*
X410600Y361950D03*
D14*
X514350Y341088D03*
X431750Y197988D03*
X266550Y197988D03*
X183950Y341088D03*
X473050Y412588D03*
X473050Y269588D03*
X349150Y197988D03*
X225250Y269588D03*
X225250Y412588D03*
D15*
X382207Y294207D03*
X382207Y289206D03*
X382207Y284204D03*
X382207Y279203D03*
X382207Y274202D03*
X382207Y269201D03*
X382207Y264199D03*
X382207Y259198D03*
X382207Y254197D03*
X382207Y249196D03*
X382207Y244194D03*
X382207Y239193D03*
D16*
X375170Y232156D03*
X370169Y232156D03*
X365167Y232156D03*
X360166Y232156D03*
X355165Y232156D03*
X350164Y232156D03*
X345162Y232156D03*
X340161Y232156D03*
X335160Y232156D03*
X330159Y232156D03*
X325157Y232156D03*
X320156Y232156D03*
D15*
X313119Y239193D03*
X313119Y244194D03*
X313119Y249196D03*
X313119Y254197D03*
X313119Y259198D03*
X313119Y264199D03*
X313119Y269201D03*
X313119Y274202D03*
X313119Y279203D03*
X313119Y284204D03*
X313119Y289206D03*
X313119Y294207D03*
D16*
X320156Y301244D03*
X325157Y301244D03*
X330159Y301244D03*
X335160Y301244D03*
X340161Y301244D03*
X345162Y301244D03*
X350164Y301244D03*
X355165Y301244D03*
X360166Y301244D03*
X365167Y301244D03*
X370169Y301244D03*
X375170Y301244D03*
D17*
X347663Y266700D03*
D18*
X461963Y371475D03*
D19*
X222250Y368300D03*
X222250Y342900D03*
X222250Y317500D03*
D10*
X366713Y340288D03*
X366713Y323288D03*
X381000Y340288D03*
X381000Y323288D03*
X358775Y386788D03*
X358775Y403788D03*
X322263Y340288D03*
X322263Y323288D03*
X350838Y340288D03*
X350838Y323288D03*
X336550Y340288D03*
X336550Y323288D03*
D20*
X263638Y331788D03*
X285638Y322288D03*
X285638Y341288D03*
D10*
X322263Y406963D03*
X322263Y389963D03*
X303213Y323288D03*
X303213Y340288D03*
D21*
X339725Y392138D03*
X339725Y411138D03*
D12*
X401638Y426013D03*
X401638Y409013D03*
X374650Y426013D03*
X374650Y409013D03*
X284163Y421250D03*
X284163Y404250D03*
D22*
X381113Y377825D03*
X403113Y377825D03*
X381113Y393700D03*
X403113Y393700D03*
D10*
X268288Y358213D03*
X268288Y375213D03*
X304800Y389963D03*
X304800Y406963D03*
D23*
X263525Y397163D03*
X263525Y425163D03*
D24*
X283138Y257175D02*
X287900Y257175D01*
D25*
X283138Y257175D02*
X283138Y270463D01*
X284138Y271463D01*
D26*
X293688Y223838D03*
X327025Y254000D03*
D24*
X327025Y258763D01*
X321589Y264199D01*
X313119Y264199D01*
D26*
X285221Y202981D03*
X500063Y361950D03*
X482600Y363538D03*
X277813Y328613D03*
D24*
X290162Y264199D02*
X313119Y264199D01*
X290162Y264199D02*
X283138Y257175D01*
D26*
X358775Y420688D03*
X339725Y420688D03*
X317500Y420688D03*
X295275Y420688D03*
X401638Y255588D03*
D27*
X406400Y255588D01*
D24*
X294194Y287281D02*
X272494Y287281D01*
X265138Y279925D01*
X265138Y271463D01*
X294194Y272544D02*
X294194Y287281D01*
X297537Y269201D02*
X313119Y269201D01*
X297537Y269201D02*
X294194Y272544D01*
D25*
X266138Y257175D02*
X265138Y258175D01*
X265138Y271463D01*
D27*
X302806Y406963D02*
X322263Y406963D01*
X302806Y406963D02*
X299147Y403303D01*
X296941Y403303D01*
D26*
X296941Y403303D03*
D27*
X284163Y404250D02*
X283575Y404838D01*
X284163Y404250D02*
X295994Y404250D01*
X296941Y403303D01*
D28*
X266138Y257175D02*
X266138Y250263D01*
X265113Y249238D01*
D26*
X265113Y249238D03*
D24*
X304800Y406963D02*
X322263Y406963D01*
D28*
X277075Y397163D02*
X263525Y397163D01*
X277075Y397163D02*
X284163Y404250D01*
D26*
X212725Y381000D03*
D28*
X216884Y381254D02*
X227616Y381254D01*
X216884Y381254D02*
X216630Y381000D01*
X212725Y381000D01*
X242208Y375845D02*
X263525Y397163D01*
X242208Y375845D02*
X233025Y375845D01*
X227616Y381254D01*
D24*
X382207Y244194D02*
X382382Y244019D01*
X387743Y244019D01*
X391018Y240744D01*
X391018Y238116D01*
X395928Y233206D01*
D26*
X469106Y346869D03*
D24*
X416872Y233206D02*
X395928Y233206D01*
X416872Y233206D02*
X431864Y248197D01*
X431864Y274010D02*
X436720Y278866D01*
X436720Y298132D02*
X443070Y304482D01*
X443070Y320832D02*
X469106Y346869D01*
X443070Y320832D02*
X443070Y304482D01*
X431864Y274010D02*
X431864Y248197D01*
X436720Y278866D02*
X436720Y298132D01*
X490538Y371951D02*
X473050Y402214D01*
X473050Y412588D01*
X418871Y228380D02*
X393929Y228380D01*
X383116Y239193D02*
X382207Y239193D01*
X383116Y239193D02*
X393929Y228380D01*
X418871Y228380D02*
X436690Y246198D01*
X436690Y272011D02*
X441546Y276867D01*
X441546Y296133D02*
X447896Y302483D01*
X447896Y317500D01*
X468533Y338138D01*
X485775Y338138D01*
X490538Y342900D01*
X436690Y272011D02*
X436690Y246198D01*
X441546Y276867D02*
X441546Y296133D01*
X490538Y342900D02*
X490538Y371951D01*
D26*
X384175Y223838D03*
D24*
X375857Y232156D01*
X375170Y232156D01*
D26*
X455468Y241918D03*
D24*
X473050Y267370D02*
X473050Y269588D01*
X473050Y267370D02*
X462322Y248772D01*
X455468Y241918D01*
D26*
X401638Y211737D03*
D24*
X384311Y211737D01*
X370169Y225879D01*
X370169Y232156D01*
D26*
X243249Y241211D03*
D24*
X246802Y241211D01*
X276550Y211463D01*
X309465Y211463D01*
X329983Y231980D02*
X330159Y232156D01*
X324897Y219710D02*
X317713Y219710D01*
X309465Y211463D01*
X329983Y224795D02*
X329983Y231980D01*
X329983Y224795D02*
X324897Y219710D01*
X324982Y231981D02*
X325157Y232156D01*
X278549Y216289D02*
X225250Y269588D01*
X278549Y216289D02*
X307466Y216289D01*
X322898Y224536D02*
X324982Y226619D01*
X324982Y231981D01*
X315714Y224536D02*
X307466Y216289D01*
X315714Y224536D02*
X322898Y224536D01*
D26*
X296776Y255674D03*
D24*
X300301Y259198D01*
X313119Y259198D01*
X313119Y289206D02*
X312944Y289381D01*
X307582Y289381D01*
X305499Y291464D01*
X305499Y295275D01*
X297561Y303213D01*
X236538Y303213D01*
X222250Y317500D01*
X301907Y244194D02*
X313119Y244194D01*
X301907Y244194D02*
X299013Y241300D01*
D26*
X275663Y241300D03*
D24*
X282013Y241300D01*
D26*
X314325Y369143D03*
D27*
X321739Y376557D02*
X350601Y376557D01*
X321739Y376557D02*
X314325Y369143D01*
X358775Y384731D02*
X358775Y386788D01*
X358775Y384731D02*
X350601Y376557D01*
D24*
X357907Y308864D02*
X359991Y306781D01*
X337249Y308864D02*
X336550Y309563D01*
X337249Y308864D02*
X357907Y308864D01*
X359991Y301419D02*
X360166Y301244D01*
X359991Y301419D02*
X359991Y306781D01*
X336550Y309563D02*
X336550Y323288D01*
D27*
X303213Y340288D02*
X286638Y340288D01*
X285638Y341288D01*
D24*
X401070Y267587D02*
X406400Y267587D01*
X401070Y267587D02*
X392681Y259198D01*
X382207Y259198D01*
X403196Y243588D02*
X406400Y243588D01*
X403196Y243588D02*
X392587Y254197D01*
X382207Y254197D01*
X313119Y294207D02*
X310325Y297001D01*
X310325Y297274D01*
X299490Y308109D01*
X238466Y308109D01*
X233426Y313149D02*
X233426Y322129D01*
X222250Y333305D02*
X222250Y342900D01*
X222250Y333305D02*
X233426Y322129D01*
X233426Y313149D02*
X238466Y308109D01*
D27*
X237100Y342900D02*
X238125Y343925D01*
X237100Y342900D02*
X222250Y342900D01*
D26*
X309563Y377825D03*
D27*
X324587Y387350D02*
X328588Y387350D01*
X319088Y387350D02*
X309563Y377825D01*
X322263Y389963D02*
X324587Y387350D01*
X319088Y387350D01*
X333375Y392138D02*
X339725Y392138D01*
X333375Y392138D02*
X328588Y387350D01*
X263638Y335075D02*
X263638Y331788D01*
X263638Y335075D02*
X266700Y338138D01*
D26*
X266700Y338138D03*
D24*
X316257Y305143D02*
X320156Y301244D01*
X316257Y305143D02*
X313291Y305143D01*
X303213Y315221D02*
X303213Y323288D01*
X303213Y315221D02*
X313291Y305143D01*
D26*
X380731Y365125D03*
D24*
X322263Y341529D02*
X322263Y340288D01*
X334746Y354013D02*
X369888Y354013D01*
X376238Y360363D01*
X376238Y360632D02*
X380731Y365125D01*
X376238Y360632D02*
X376238Y360363D01*
X334746Y354013D02*
X322263Y341529D01*
D26*
X355145Y346075D03*
D24*
X355145Y344595D01*
X350838Y340288D01*
D26*
X339270Y346075D03*
D24*
X339270Y343007D01*
X336550Y340288D01*
D26*
X384685Y402268D03*
D27*
X374650Y408513D02*
X374650Y409013D01*
X374650Y408513D02*
X380895Y402268D01*
X384685Y402268D01*
D26*
X394535Y401638D03*
D27*
X401638Y408741D02*
X401638Y409013D01*
X401638Y408741D02*
X394535Y401638D01*
D26*
X415925Y379413D03*
D29*
X371690Y345265D02*
X366713Y340288D01*
X371690Y345265D02*
X371690Y346866D01*
X373922Y349098D01*
X393281Y371238D02*
X398637Y376594D01*
X375440Y349098D02*
X373922Y349098D01*
X375440Y349098D02*
X393281Y366939D01*
X393281Y371238D01*
X398637Y376594D02*
X401882Y376594D01*
X403113Y377825D01*
X404700Y379413D01*
X415925Y379413D01*
D26*
X415925Y390525D03*
D29*
X398615Y357903D02*
X381000Y340288D01*
X398615Y357903D02*
X398615Y369028D01*
X400847Y371260D01*
X420097Y371260D01*
X423863Y375026D01*
X423863Y390525D01*
X415925Y390525D01*
X406288Y390525D01*
X403113Y393700D01*
D24*
X375170Y311670D02*
X375170Y301244D01*
X381000Y317500D02*
X381000Y323288D01*
X381000Y317500D02*
X375170Y311670D01*
X370169Y319832D02*
X366713Y323288D01*
X370169Y319832D02*
X370169Y301244D01*
X365167Y308959D02*
X350838Y323288D01*
X365167Y308959D02*
X365167Y301244D01*
X330159Y301244D02*
X330159Y310629D01*
X322263Y318525D01*
X322263Y323288D01*
D26*
X393700Y342068D03*
D24*
X382207Y303728D02*
X382207Y294207D01*
X390056Y338424D02*
X393700Y342068D01*
X390056Y311577D02*
X382207Y303728D01*
X390056Y311577D02*
X390056Y338424D01*
X382382Y279378D02*
X382207Y279203D01*
D25*
X405838Y287338D02*
X405838Y301625D01*
X405838Y320088D02*
X406425Y320675D01*
X405838Y320088D02*
X405838Y301625D01*
X406425Y320675D02*
X406425Y342900D01*
D24*
X405838Y287338D02*
X403225Y287338D01*
X403881Y287338D02*
X405838Y287338D01*
D26*
X411270Y287338D03*
D27*
X405838Y287338D01*
D24*
X382383Y264375D02*
X382207Y264199D01*
X398006Y274638D02*
X417513Y274638D01*
X398006Y274638D02*
X387743Y264375D01*
X417513Y274638D02*
X422838Y279963D01*
D25*
X422838Y287338D02*
X422838Y301625D01*
X423258Y318508D02*
X425425Y320675D01*
X423258Y318508D02*
X423258Y302045D01*
X422838Y301625D01*
X425425Y320675D02*
X425425Y342900D01*
D24*
X422838Y287338D02*
X422838Y279963D01*
X387743Y264375D02*
X382383Y264375D01*
D27*
X425425Y342900D02*
X417243Y351082D01*
X417243Y352189D01*
X410600Y358832D02*
X410600Y361950D01*
X410600Y358832D02*
X417243Y352189D01*
D26*
X298450Y352943D03*
D24*
X324982Y301419D02*
X325157Y301244D01*
X324982Y301419D02*
X324982Y306781D01*
X321793Y309969D02*
X315290Y309969D01*
X313207Y312052D01*
X321793Y309969D02*
X324982Y306781D01*
X306388Y352943D02*
X298450Y352943D01*
X306388Y352943D02*
X313207Y346124D01*
X313207Y312052D01*
X382207Y249196D02*
X382383Y249020D01*
X389567Y249020D01*
X395844Y240115D02*
X397927Y238032D01*
X395844Y240115D02*
X395844Y242743D01*
X455613Y371475D02*
X461963Y371475D01*
X389567Y249020D02*
X395844Y242743D01*
X397927Y238032D02*
X414873Y238032D01*
X427038Y276009D02*
X431894Y280865D01*
X431894Y300131D01*
X427038Y250196D02*
X414873Y238032D01*
X427038Y250196D02*
X427038Y276009D01*
X431894Y300131D02*
X438244Y306481D01*
X438244Y342807D01*
X438150Y342900D01*
X438150Y352988D01*
X440763Y355600D01*
D27*
X456638Y371475D01*
X461963Y371475D01*
D24*
X237257Y400580D02*
X225250Y412588D01*
D26*
X237257Y384961D03*
D24*
X237257Y397232D02*
X237257Y400580D01*
X237257Y397232D02*
X235270Y395245D01*
X235270Y390500D02*
X237257Y388514D01*
X235270Y390500D02*
X235270Y395245D01*
X237257Y388514D02*
X237257Y384961D01*
D26*
X301625Y277813D03*
D24*
X305236Y274202D01*
X313119Y274202D01*
D26*
X260878Y372534D03*
D27*
X263556Y375213D02*
X268288Y375213D01*
X263556Y375213D02*
X260878Y372534D01*
D26*
X362485Y222024D03*
D24*
X345338Y225032D02*
X345338Y231980D01*
X345162Y232156D01*
X360897Y223612D02*
X362485Y222024D01*
X360897Y223612D02*
X346758Y223612D01*
X345338Y225032D01*
X340161Y206977D02*
X349150Y197988D01*
X340161Y206977D02*
X340161Y232156D01*
D26*
X295275Y388938D03*
D24*
X296300Y389963D02*
X304800Y389963D01*
X296300Y389963D02*
X295275Y388938D01*
M02*
