G04 EAGLE Gerber RS-274X export*
G75*
%MOMM*%
%FSLAX34Y34*%
%LPD*%
%INTop Copper*%
%IPPOS*%
%AMOC8*
5,1,8,0,0,1.08239X$1,22.5*%
G01*
%ADD10R,0.800000X0.800000*%
%ADD11R,1.000000X1.100000*%
%ADD12C,1.000000*%
%ADD13P,1.649562X8X202.500000*%
%ADD14C,1.524000*%
%ADD15R,0.800000X0.400000*%
%ADD16R,0.400000X0.800000*%
%ADD17R,1.450000X1.450000*%
%ADD18R,0.700000X0.700000*%
%ADD19C,0.499997*%
%ADD20R,1.100000X1.000000*%
%ADD21R,0.500000X0.800000*%
%ADD22C,0.406400*%
%ADD23C,0.756400*%
%ADD24C,0.609600*%
%ADD25C,0.304800*%
%ADD26C,0.254000*%

G36*
X447718Y299622D02*
X447718Y299622D01*
X447753Y299619D01*
X447919Y299640D01*
X448085Y299655D01*
X448118Y299665D01*
X448153Y299670D01*
X448311Y299723D01*
X448471Y299770D01*
X448501Y299787D01*
X448534Y299798D01*
X448679Y299881D01*
X448826Y299959D01*
X448853Y299981D01*
X448883Y299999D01*
X449136Y300214D01*
X506069Y357147D01*
X506167Y357266D01*
X506271Y357382D01*
X506295Y357422D01*
X506324Y357458D01*
X506397Y357595D01*
X506476Y357729D01*
X506491Y357773D01*
X506513Y357814D01*
X506557Y357962D01*
X506608Y358109D01*
X506614Y358155D01*
X506628Y358200D01*
X506642Y358355D01*
X506663Y358508D01*
X506660Y358554D01*
X506664Y358601D01*
X506647Y358755D01*
X506638Y358910D01*
X506626Y358955D01*
X506621Y359001D01*
X506574Y359149D01*
X506534Y359299D01*
X506512Y359346D01*
X506499Y359385D01*
X506457Y359461D01*
X506392Y359599D01*
X490658Y386852D01*
X490569Y386975D01*
X490487Y387103D01*
X490452Y387139D01*
X490423Y387179D01*
X490312Y387283D01*
X490206Y387391D01*
X490165Y387419D01*
X490128Y387453D01*
X489999Y387533D01*
X489873Y387619D01*
X489822Y387641D01*
X489785Y387664D01*
X489705Y387694D01*
X489570Y387753D01*
X489486Y387783D01*
X489415Y387800D01*
X489407Y387803D01*
X489406Y387803D01*
X489341Y387828D01*
X489217Y387848D01*
X489095Y387877D01*
X489019Y387880D01*
X488944Y387893D01*
X488818Y387888D01*
X488693Y387893D01*
X488617Y387881D01*
X488541Y387878D01*
X488382Y387843D01*
X488295Y387829D01*
X488262Y387817D01*
X488217Y387807D01*
X487389Y387552D01*
X487318Y387522D01*
X487244Y387501D01*
X487133Y387444D01*
X487018Y387395D01*
X486954Y387352D01*
X486886Y387318D01*
X486788Y387240D01*
X486696Y387177D01*
X485824Y387046D01*
X485760Y387029D01*
X485528Y386978D01*
X484680Y386717D01*
X484631Y386733D01*
X484506Y386747D01*
X484383Y386771D01*
X484307Y386770D01*
X484231Y386779D01*
X484068Y386768D01*
X483981Y386767D01*
X483946Y386759D01*
X483900Y386756D01*
X483042Y386627D01*
X482968Y386609D01*
X482892Y386599D01*
X482774Y386559D01*
X482652Y386528D01*
X482583Y386495D01*
X482511Y386471D01*
X482402Y386408D01*
X482302Y386360D01*
X481420Y386361D01*
X481353Y386354D01*
X481118Y386338D01*
X480240Y386206D01*
X480193Y386229D01*
X480073Y386262D01*
X479954Y386303D01*
X479878Y386314D01*
X479805Y386334D01*
X479642Y386347D01*
X479556Y386360D01*
X479520Y386357D01*
X479474Y386361D01*
X478607Y386361D01*
X478531Y386354D01*
X478454Y386356D01*
X478331Y386334D01*
X478206Y386322D01*
X478133Y386299D01*
X478058Y386286D01*
X477941Y386240D01*
X477835Y386208D01*
X476963Y386339D01*
X476896Y386343D01*
X476661Y386362D01*
X475773Y386362D01*
X475731Y386392D01*
X475616Y386443D01*
X475505Y386501D01*
X475432Y386523D01*
X475362Y386554D01*
X475203Y386591D01*
X475119Y386616D01*
X475084Y386619D01*
X475039Y386630D01*
X474182Y386760D01*
X474105Y386763D01*
X474030Y386777D01*
X473904Y386774D01*
X473780Y386780D01*
X473704Y386769D01*
X473627Y386767D01*
X473505Y386739D01*
X473395Y386723D01*
X472570Y386977D01*
X472452Y387001D01*
X472336Y387035D01*
X472255Y387041D01*
X472175Y387057D01*
X472055Y387058D01*
X471935Y387067D01*
X471854Y387058D01*
X471773Y387058D01*
X471654Y387035D01*
X471535Y387021D01*
X471458Y386995D01*
X471378Y386979D01*
X471267Y386933D01*
X471152Y386896D01*
X471081Y386856D01*
X471006Y386824D01*
X470907Y386757D01*
X470802Y386698D01*
X470740Y386645D01*
X470673Y386599D01*
X470588Y386513D01*
X470497Y386435D01*
X470447Y386370D01*
X470390Y386312D01*
X470324Y386212D01*
X470250Y386117D01*
X470214Y386044D01*
X470169Y385976D01*
X470125Y385864D01*
X470071Y385756D01*
X470050Y385677D01*
X470019Y385602D01*
X469998Y385484D01*
X469966Y385367D01*
X469959Y385272D01*
X469946Y385206D01*
X469947Y385136D01*
X469939Y385037D01*
X469939Y384009D01*
X469015Y381778D01*
X467308Y380071D01*
X465078Y379147D01*
X462663Y379147D01*
X460433Y380071D01*
X458726Y381778D01*
X457802Y384009D01*
X457802Y386423D01*
X458726Y388654D01*
X459465Y389393D01*
X459482Y389414D01*
X459502Y389431D01*
X459609Y389569D01*
X459720Y389704D01*
X459732Y389728D01*
X459749Y389749D01*
X459827Y389906D01*
X459909Y390060D01*
X459916Y390086D01*
X459928Y390110D01*
X459974Y390279D01*
X460023Y390446D01*
X460026Y390473D01*
X460033Y390498D01*
X460060Y390829D01*
X460060Y391985D01*
X460058Y392000D01*
X460060Y392014D01*
X460038Y392200D01*
X460020Y392386D01*
X460016Y392400D01*
X460014Y392414D01*
X459957Y392592D01*
X459902Y392771D01*
X459895Y392784D01*
X459890Y392797D01*
X459799Y392960D01*
X459710Y393125D01*
X459701Y393136D01*
X459693Y393149D01*
X459675Y393170D01*
X459642Y393283D01*
X459606Y393351D01*
X459579Y393422D01*
X459513Y393528D01*
X459455Y393639D01*
X459406Y393698D01*
X459366Y393763D01*
X459255Y393884D01*
X459200Y393951D01*
X459173Y393974D01*
X459142Y394008D01*
X458506Y394598D01*
X458445Y394644D01*
X458391Y394698D01*
X458286Y394766D01*
X458186Y394841D01*
X458117Y394875D01*
X458053Y394916D01*
X457936Y394962D01*
X457836Y395011D01*
X457286Y395700D01*
X457240Y395748D01*
X457080Y395922D01*
X456430Y396526D01*
X456419Y396577D01*
X456369Y396692D01*
X456328Y396810D01*
X456289Y396876D01*
X456258Y396947D01*
X456167Y397082D01*
X456123Y397157D01*
X456099Y397184D01*
X456073Y397222D01*
X455533Y397900D01*
X455480Y397955D01*
X455433Y398016D01*
X455340Y398099D01*
X455252Y398188D01*
X455189Y398232D01*
X455132Y398282D01*
X455023Y398345D01*
X454931Y398408D01*
X454491Y399171D01*
X454452Y399225D01*
X454320Y399422D01*
X453767Y400116D01*
X453764Y400168D01*
X453731Y400289D01*
X453708Y400412D01*
X453680Y400483D01*
X453660Y400557D01*
X453590Y400705D01*
X453558Y400786D01*
X453538Y400816D01*
X453518Y400857D01*
X453085Y401608D01*
X453040Y401670D01*
X453004Y401737D01*
X452923Y401833D01*
X452850Y401935D01*
X452794Y401987D01*
X452745Y402046D01*
X452647Y402124D01*
X452566Y402200D01*
X452244Y403021D01*
X452213Y403080D01*
X452112Y403294D01*
X451669Y404063D01*
X451673Y404115D01*
X451660Y404239D01*
X451655Y404364D01*
X451637Y404439D01*
X451629Y404515D01*
X451582Y404671D01*
X451562Y404756D01*
X451547Y404789D01*
X451533Y404833D01*
X451217Y405640D01*
X451182Y405708D01*
X451156Y405780D01*
X451091Y405886D01*
X451034Y405998D01*
X450986Y406058D01*
X450946Y406123D01*
X450861Y406215D01*
X450792Y406303D01*
X450596Y407162D01*
X450574Y407226D01*
X450506Y407452D01*
X450182Y408278D01*
X450195Y408329D01*
X450200Y408454D01*
X450214Y408578D01*
X450207Y408655D01*
X450210Y408731D01*
X450187Y408893D01*
X450180Y408980D01*
X450170Y409014D01*
X450163Y409060D01*
X449971Y409905D01*
X449946Y409977D01*
X449931Y410052D01*
X449882Y410168D01*
X449843Y410286D01*
X449805Y410353D01*
X449775Y410423D01*
X449704Y410527D01*
X449649Y410624D01*
X449583Y411502D01*
X449572Y411569D01*
X449544Y411761D01*
X449543Y411773D01*
X449542Y411774D01*
X449538Y411803D01*
X449341Y412668D01*
X449361Y412716D01*
X449384Y412839D01*
X449417Y412960D01*
X449422Y413036D01*
X449436Y413111D01*
X449437Y413275D01*
X449443Y413362D01*
X449438Y413397D01*
X449438Y413443D01*
X449374Y414308D01*
X449361Y414383D01*
X449357Y414460D01*
X449326Y414581D01*
X449304Y414704D01*
X449276Y414776D01*
X449258Y414850D01*
X449204Y414963D01*
X449163Y415067D01*
X449229Y415945D01*
X449227Y416013D01*
X449229Y416249D01*
X449163Y417134D01*
X449190Y417179D01*
X449231Y417297D01*
X449282Y417412D01*
X449298Y417486D01*
X449323Y417558D01*
X449349Y417720D01*
X449367Y417805D01*
X449368Y417841D01*
X449375Y417886D01*
X449440Y418751D01*
X449438Y418827D01*
X449446Y418903D01*
X449434Y419028D01*
X449430Y419153D01*
X449414Y419228D01*
X449406Y419304D01*
X449369Y419424D01*
X449345Y419532D01*
X449541Y420391D01*
X449549Y420458D01*
X449586Y420692D01*
X449653Y421577D01*
X449686Y421617D01*
X449745Y421727D01*
X449811Y421833D01*
X449839Y421905D01*
X449875Y421973D01*
X449924Y422128D01*
X449955Y422210D01*
X449961Y422245D01*
X449975Y422289D01*
X450168Y423134D01*
X450171Y423155D01*
X450172Y423159D01*
X450173Y423172D01*
X450177Y423210D01*
X450196Y423284D01*
X450203Y423409D01*
X450218Y423533D01*
X450213Y423610D01*
X450216Y423686D01*
X450198Y423810D01*
X450190Y423921D01*
X450512Y424742D01*
X450530Y424806D01*
X450602Y425032D01*
X450799Y425897D01*
X450838Y425932D01*
X450913Y426032D01*
X450994Y426127D01*
X451032Y426194D01*
X451078Y426255D01*
X451149Y426402D01*
X451192Y426478D01*
X451203Y426512D01*
X451224Y426553D01*
X451541Y427360D01*
X451561Y427434D01*
X451591Y427504D01*
X451616Y427627D01*
X451650Y427747D01*
X451656Y427824D01*
X451671Y427899D01*
X451671Y428024D01*
X451680Y428135D01*
X452120Y428898D01*
X452148Y428959D01*
X452252Y429172D01*
X452577Y429998D01*
X452620Y430026D01*
X452709Y430115D01*
X452804Y430196D01*
X452851Y430257D01*
X452905Y430311D01*
X452998Y430445D01*
X453052Y430514D01*
X453064Y430538D01*
X453066Y430540D01*
X453070Y430549D01*
X453094Y430584D01*
X453528Y431334D01*
X453559Y431404D01*
X453599Y431469D01*
X453642Y431587D01*
X453694Y431701D01*
X453711Y431775D01*
X453737Y431847D01*
X453756Y431971D01*
X453781Y432080D01*
X454331Y432769D01*
X454367Y432826D01*
X454502Y433020D01*
X454946Y433788D01*
X454993Y433810D01*
X455094Y433884D01*
X455200Y433951D01*
X455256Y434003D01*
X455317Y434049D01*
X455429Y434167D01*
X455493Y434227D01*
X455513Y434257D01*
X455545Y434290D01*
X456085Y434968D01*
X456127Y435032D01*
X456176Y435091D01*
X456236Y435200D01*
X456304Y435306D01*
X456332Y435377D01*
X456369Y435444D01*
X456406Y435564D01*
X456447Y435668D01*
X457093Y436267D01*
X457120Y436297D01*
X457147Y436320D01*
X457188Y436371D01*
X457300Y436489D01*
X457853Y437183D01*
X457903Y437197D01*
X458014Y437256D01*
X458129Y437306D01*
X458191Y437349D01*
X458259Y437385D01*
X458388Y437486D01*
X458459Y437536D01*
X458484Y437562D01*
X458520Y437590D01*
X459156Y438180D01*
X459206Y438237D01*
X459264Y438287D01*
X459339Y438387D01*
X459423Y438481D01*
X459461Y438547D01*
X459507Y438608D01*
X459561Y438721D01*
X459624Y438830D01*
X459649Y438902D01*
X459682Y438970D01*
X459726Y439128D01*
X459754Y439211D01*
X459758Y439244D01*
X459761Y439252D01*
X459761Y439258D01*
X459770Y439290D01*
X459781Y439348D01*
X459795Y439500D01*
X459816Y439651D01*
X459813Y439700D01*
X459817Y439749D01*
X459800Y439901D01*
X459791Y440053D01*
X459778Y440100D01*
X459773Y440150D01*
X459726Y440295D01*
X459687Y440442D01*
X459663Y440492D01*
X459650Y440533D01*
X459641Y440550D01*
X459639Y440556D01*
X459604Y440617D01*
X459545Y440742D01*
X459539Y440752D01*
X459491Y440820D01*
X459455Y440885D01*
X459450Y440891D01*
X459441Y440906D01*
X459369Y440990D01*
X459305Y441079D01*
X459238Y441142D01*
X459178Y441211D01*
X459091Y441278D01*
X459010Y441354D01*
X458932Y441402D01*
X458860Y441458D01*
X458761Y441507D01*
X458667Y441565D01*
X458581Y441596D01*
X458499Y441637D01*
X458393Y441666D01*
X458289Y441704D01*
X458199Y441718D01*
X458110Y441742D01*
X457974Y441753D01*
X457892Y441766D01*
X457843Y441764D01*
X457780Y441769D01*
X442360Y441769D01*
X442342Y441767D01*
X442324Y441768D01*
X442141Y441747D01*
X441960Y441729D01*
X441942Y441724D01*
X441924Y441721D01*
X441750Y441664D01*
X441575Y441611D01*
X441559Y441602D01*
X441541Y441596D01*
X441382Y441506D01*
X441221Y441419D01*
X441207Y441407D01*
X441191Y441398D01*
X441052Y441278D01*
X440911Y441161D01*
X440900Y441147D01*
X440886Y441135D01*
X440774Y440990D01*
X440659Y440847D01*
X440651Y440831D01*
X440639Y440817D01*
X440558Y440652D01*
X440474Y440490D01*
X440469Y440473D01*
X440460Y440456D01*
X440413Y440279D01*
X440362Y440103D01*
X440361Y440085D01*
X440356Y440067D01*
X440329Y439737D01*
X440329Y439617D01*
X440329Y439614D01*
X440329Y439611D01*
X440329Y439603D01*
X440329Y439598D01*
X440329Y437970D01*
X439634Y436292D01*
X438350Y435008D01*
X436672Y434313D01*
X261628Y434313D01*
X259950Y435008D01*
X258666Y436292D01*
X257971Y437970D01*
X257971Y439738D01*
X257969Y439755D01*
X257971Y439773D01*
X257950Y439955D01*
X257931Y440138D01*
X257926Y440155D01*
X257924Y440173D01*
X257867Y440347D01*
X257813Y440523D01*
X257805Y440539D01*
X257799Y440556D01*
X257709Y440716D01*
X257621Y440877D01*
X257610Y440891D01*
X257601Y440906D01*
X257481Y441046D01*
X257364Y441186D01*
X257350Y441198D01*
X257338Y441211D01*
X257193Y441324D01*
X257050Y441439D01*
X257034Y441447D01*
X257020Y441458D01*
X256855Y441540D01*
X256693Y441624D01*
X256676Y441629D01*
X256660Y441637D01*
X256481Y441685D01*
X256306Y441736D01*
X256288Y441737D01*
X256271Y441742D01*
X255940Y441769D01*
X240520Y441769D01*
X240429Y441760D01*
X240337Y441761D01*
X240229Y441740D01*
X240120Y441729D01*
X240032Y441702D01*
X239942Y441685D01*
X239840Y441643D01*
X239735Y441611D01*
X239654Y441567D01*
X239569Y441532D01*
X239478Y441471D01*
X239381Y441419D01*
X239310Y441360D01*
X239234Y441310D01*
X239156Y441232D01*
X239071Y441161D01*
X239014Y441090D01*
X238949Y441025D01*
X238871Y440913D01*
X238819Y440847D01*
X238812Y440833D01*
X238806Y440826D01*
X238790Y440794D01*
X238761Y440752D01*
X238755Y440742D01*
X238692Y440603D01*
X238680Y440579D01*
X238634Y440490D01*
X238633Y440487D01*
X238623Y440467D01*
X238609Y440420D01*
X238589Y440375D01*
X238555Y440226D01*
X238514Y440080D01*
X238510Y440030D01*
X238499Y439982D01*
X238495Y439830D01*
X238484Y439678D01*
X238489Y439623D01*
X238488Y439580D01*
X238503Y439495D01*
X238519Y439348D01*
X238530Y439290D01*
X238551Y439217D01*
X238564Y439142D01*
X238608Y439024D01*
X238644Y438904D01*
X238679Y438837D01*
X238706Y438765D01*
X238773Y438659D01*
X238831Y438548D01*
X238879Y438489D01*
X238920Y438424D01*
X239031Y438303D01*
X239086Y438236D01*
X239113Y438213D01*
X239144Y438180D01*
X239780Y437590D01*
X239841Y437544D01*
X239896Y437490D01*
X240001Y437423D01*
X240101Y437347D01*
X240170Y437314D01*
X240234Y437272D01*
X240350Y437226D01*
X240451Y437178D01*
X241000Y436489D01*
X241047Y436441D01*
X241198Y436276D01*
X241204Y436270D01*
X241205Y436269D01*
X241207Y436267D01*
X241858Y435663D01*
X241869Y435612D01*
X241919Y435497D01*
X241960Y435379D01*
X241999Y435313D01*
X242030Y435243D01*
X242121Y435108D01*
X242165Y435033D01*
X242189Y435006D01*
X242215Y434968D01*
X242755Y434290D01*
X242809Y434235D01*
X242855Y434174D01*
X242949Y434091D01*
X243036Y434002D01*
X243099Y433959D01*
X243157Y433908D01*
X243266Y433845D01*
X243357Y433782D01*
X243798Y433020D01*
X243837Y432965D01*
X243969Y432769D01*
X244523Y432075D01*
X244526Y432023D01*
X244558Y431902D01*
X244582Y431779D01*
X244610Y431708D01*
X244630Y431634D01*
X244700Y431486D01*
X244733Y431406D01*
X244752Y431376D01*
X244772Y431334D01*
X245206Y430584D01*
X245250Y430521D01*
X245287Y430454D01*
X245368Y430358D01*
X245441Y430257D01*
X245497Y430205D01*
X245546Y430146D01*
X245644Y430068D01*
X245725Y429992D01*
X246048Y429172D01*
X246078Y429112D01*
X246180Y428898D01*
X246623Y428130D01*
X246619Y428078D01*
X246633Y427954D01*
X246637Y427828D01*
X246655Y427754D01*
X246664Y427678D01*
X246711Y427522D01*
X246731Y427437D01*
X246746Y427404D01*
X246759Y427360D01*
X247076Y426553D01*
X247111Y426485D01*
X247137Y426413D01*
X247203Y426306D01*
X247260Y426195D01*
X247308Y426135D01*
X247348Y426070D01*
X247433Y425978D01*
X247502Y425891D01*
X247698Y425032D01*
X247720Y424968D01*
X247788Y424742D01*
X248113Y423916D01*
X248100Y423865D01*
X248095Y423740D01*
X248081Y423615D01*
X248088Y423539D01*
X248085Y423462D01*
X248108Y423301D01*
X248116Y423214D01*
X248126Y423179D01*
X248132Y423134D01*
X248325Y422289D01*
X248350Y422216D01*
X248365Y422142D01*
X248414Y422026D01*
X248454Y421907D01*
X248492Y421841D01*
X248521Y421771D01*
X248592Y421667D01*
X248648Y421570D01*
X248714Y420692D01*
X248725Y420625D01*
X248759Y420391D01*
X248957Y419526D01*
X248937Y419478D01*
X248914Y419355D01*
X248881Y419234D01*
X248876Y419158D01*
X248862Y419082D01*
X248861Y418919D01*
X248855Y418832D01*
X248860Y418797D01*
X248860Y418751D01*
X248925Y417886D01*
X248938Y417811D01*
X248942Y417734D01*
X248973Y417613D01*
X248995Y417490D01*
X249023Y417418D01*
X249042Y417344D01*
X249096Y417231D01*
X249136Y417128D01*
X249071Y416249D01*
X249073Y416182D01*
X249071Y415945D01*
X249138Y415060D01*
X249111Y415015D01*
X249069Y414897D01*
X249019Y414783D01*
X249003Y414708D01*
X248978Y414636D01*
X248952Y414474D01*
X248934Y414389D01*
X248933Y414353D01*
X248926Y414308D01*
X248862Y413443D01*
X248863Y413367D01*
X248856Y413291D01*
X248868Y413166D01*
X248872Y413041D01*
X248888Y412966D01*
X248896Y412890D01*
X248933Y412770D01*
X248958Y412662D01*
X248762Y411803D01*
X248754Y411741D01*
X248743Y411703D01*
X248738Y411636D01*
X248717Y411502D01*
X248651Y410617D01*
X248618Y410577D01*
X248559Y410466D01*
X248492Y410360D01*
X248465Y410289D01*
X248429Y410221D01*
X248380Y410065D01*
X248349Y409984D01*
X248343Y409949D01*
X248329Y409905D01*
X248137Y409060D01*
X248127Y408984D01*
X248108Y408909D01*
X248102Y408784D01*
X248087Y408660D01*
X248092Y408584D01*
X248088Y408507D01*
X248107Y408383D01*
X248115Y408272D01*
X247794Y407452D01*
X247775Y407387D01*
X247704Y407162D01*
X247507Y406297D01*
X247468Y406261D01*
X247394Y406161D01*
X247312Y406066D01*
X247274Y405999D01*
X247229Y405938D01*
X247157Y405791D01*
X247114Y405715D01*
X247103Y405681D01*
X247083Y405640D01*
X246767Y404833D01*
X246746Y404759D01*
X246716Y404688D01*
X246691Y404566D01*
X246657Y404445D01*
X246652Y404369D01*
X246637Y404294D01*
X246636Y404168D01*
X246628Y404057D01*
X246188Y403294D01*
X246160Y403233D01*
X246056Y403021D01*
X245732Y402194D01*
X245689Y402166D01*
X245600Y402077D01*
X245505Y401995D01*
X245458Y401935D01*
X245404Y401881D01*
X245311Y401747D01*
X245257Y401678D01*
X245241Y401646D01*
X245215Y401608D01*
X244782Y400857D01*
X244750Y400788D01*
X244711Y400722D01*
X244668Y400604D01*
X244616Y400490D01*
X244599Y400416D01*
X244573Y400344D01*
X244554Y400220D01*
X244529Y400111D01*
X243980Y399422D01*
X243944Y399366D01*
X243809Y399171D01*
X243366Y398403D01*
X243318Y398380D01*
X243217Y398306D01*
X243111Y398240D01*
X243056Y398187D01*
X242994Y398142D01*
X242882Y398023D01*
X242819Y397963D01*
X242798Y397933D01*
X242767Y397900D01*
X242227Y397222D01*
X242185Y397158D01*
X242136Y397099D01*
X242076Y396989D01*
X242008Y396884D01*
X241980Y396813D01*
X241944Y396745D01*
X241907Y396626D01*
X241866Y396522D01*
X241220Y395922D01*
X241175Y395872D01*
X241014Y395700D01*
X240460Y395006D01*
X240410Y394991D01*
X240300Y394933D01*
X240185Y394883D01*
X240122Y394839D01*
X240054Y394803D01*
X239926Y394702D01*
X239855Y394652D01*
X239830Y394626D01*
X239794Y394598D01*
X239428Y394258D01*
X239391Y394217D01*
X239349Y394181D01*
X239258Y394066D01*
X239161Y393957D01*
X239133Y393908D01*
X239099Y393865D01*
X239033Y393735D01*
X238960Y393608D01*
X238942Y393555D01*
X238917Y393506D01*
X238877Y393365D01*
X238831Y393227D01*
X238824Y393172D01*
X238809Y393118D01*
X238798Y392972D01*
X238779Y392827D01*
X238783Y392772D01*
X238779Y392717D01*
X238798Y392571D01*
X238808Y392426D01*
X238823Y392372D01*
X238830Y392317D01*
X238876Y392178D01*
X238915Y392038D01*
X238940Y391988D01*
X238958Y391935D01*
X239031Y391809D01*
X239097Y391678D01*
X239131Y391635D01*
X239159Y391587D01*
X239298Y391422D01*
X239346Y391362D01*
X239359Y391350D01*
X239374Y391334D01*
X240783Y389924D01*
X241707Y387694D01*
X241707Y385279D01*
X240783Y383049D01*
X239076Y381342D01*
X236845Y380418D01*
X234431Y380418D01*
X232201Y381342D01*
X230493Y383049D01*
X229562Y385297D01*
X229553Y385391D01*
X229541Y385560D01*
X229533Y385591D01*
X229530Y385622D01*
X229480Y385785D01*
X229435Y385949D01*
X229421Y385977D01*
X229412Y386007D01*
X229331Y386157D01*
X229254Y386308D01*
X229235Y386334D01*
X229220Y386361D01*
X229111Y386492D01*
X229006Y386626D01*
X228982Y386646D01*
X228962Y386671D01*
X228830Y386777D01*
X228701Y386888D01*
X228673Y386903D01*
X228648Y386923D01*
X228498Y387001D01*
X228349Y387084D01*
X228319Y387094D01*
X228291Y387108D01*
X228128Y387155D01*
X227966Y387208D01*
X227934Y387211D01*
X227904Y387220D01*
X227735Y387234D01*
X227566Y387253D01*
X227531Y387250D01*
X227503Y387253D01*
X227417Y387243D01*
X227235Y387230D01*
X226043Y387050D01*
X225978Y387034D01*
X225747Y386983D01*
X224899Y386721D01*
X224849Y386737D01*
X224725Y386751D01*
X224602Y386774D01*
X224526Y386773D01*
X224449Y386782D01*
X224287Y386771D01*
X224200Y386770D01*
X224164Y386763D01*
X224118Y386760D01*
X223261Y386630D01*
X223187Y386611D01*
X223111Y386602D01*
X222993Y386562D01*
X222871Y386531D01*
X222802Y386498D01*
X222730Y386473D01*
X222621Y386411D01*
X222521Y386362D01*
X221639Y386362D01*
X221573Y386355D01*
X221337Y386339D01*
X220459Y386207D01*
X220413Y386230D01*
X220292Y386262D01*
X220173Y386304D01*
X220098Y386315D01*
X220024Y386334D01*
X219861Y386348D01*
X219775Y386360D01*
X219739Y386358D01*
X219693Y386361D01*
X218826Y386361D01*
X218750Y386354D01*
X218673Y386355D01*
X218550Y386334D01*
X218426Y386321D01*
X218352Y386299D01*
X218277Y386285D01*
X218160Y386240D01*
X218054Y386207D01*
X217182Y386338D01*
X217115Y386341D01*
X216880Y386361D01*
X215992Y386360D01*
X215950Y386390D01*
X215835Y386440D01*
X215724Y386499D01*
X215651Y386521D01*
X215581Y386551D01*
X215422Y386589D01*
X215338Y386614D01*
X215302Y386617D01*
X215258Y386627D01*
X214400Y386756D01*
X214324Y386760D01*
X214249Y386773D01*
X214123Y386770D01*
X213998Y386777D01*
X213923Y386765D01*
X213846Y386763D01*
X213724Y386735D01*
X213614Y386719D01*
X212772Y386978D01*
X212706Y386992D01*
X212476Y387046D01*
X211598Y387178D01*
X211560Y387214D01*
X211454Y387281D01*
X211354Y387355D01*
X211284Y387388D01*
X211219Y387428D01*
X211068Y387489D01*
X210989Y387526D01*
X210954Y387534D01*
X210911Y387552D01*
X210083Y387807D01*
X210008Y387822D01*
X209936Y387846D01*
X209811Y387862D01*
X209688Y387887D01*
X209612Y387887D01*
X209536Y387896D01*
X209411Y387887D01*
X209286Y387887D01*
X209211Y387872D01*
X209135Y387866D01*
X208976Y387825D01*
X208891Y387808D01*
X208858Y387794D01*
X208814Y387783D01*
X208730Y387753D01*
X208592Y387689D01*
X208451Y387632D01*
X208410Y387604D01*
X208365Y387583D01*
X208243Y387493D01*
X208116Y387409D01*
X208081Y387374D01*
X208041Y387345D01*
X207939Y387232D01*
X207831Y387125D01*
X207799Y387079D01*
X207770Y387047D01*
X207726Y386973D01*
X207642Y386852D01*
X192562Y360732D01*
X192498Y360591D01*
X192428Y360452D01*
X192416Y360407D01*
X192396Y360365D01*
X192362Y360214D01*
X192320Y360064D01*
X192317Y360018D01*
X192306Y359972D01*
X192302Y359818D01*
X192291Y359663D01*
X192297Y359616D01*
X192295Y359570D01*
X192322Y359418D01*
X192341Y359263D01*
X192356Y359219D01*
X192364Y359173D01*
X192420Y359029D01*
X192469Y358882D01*
X192493Y358841D01*
X192509Y358798D01*
X192593Y358667D01*
X192670Y358533D01*
X192704Y358493D01*
X192726Y358459D01*
X192786Y358396D01*
X192885Y358280D01*
X208876Y342289D01*
X208883Y342283D01*
X208888Y342277D01*
X209038Y342156D01*
X209187Y342034D01*
X209195Y342030D01*
X209202Y342024D01*
X209373Y341935D01*
X209543Y341845D01*
X209551Y341843D01*
X209559Y341839D01*
X209745Y341786D01*
X209929Y341731D01*
X209938Y341730D01*
X209946Y341727D01*
X210138Y341712D01*
X210330Y341694D01*
X210339Y341695D01*
X210348Y341695D01*
X210537Y341717D01*
X210730Y341738D01*
X210739Y341740D01*
X210747Y341741D01*
X210929Y341801D01*
X211114Y341859D01*
X211122Y341864D01*
X211130Y341866D01*
X211299Y341961D01*
X211466Y342054D01*
X211473Y342060D01*
X211481Y342064D01*
X211627Y342190D01*
X211773Y342315D01*
X211779Y342322D01*
X211786Y342327D01*
X211903Y342479D01*
X212023Y342630D01*
X212027Y342638D01*
X212032Y342645D01*
X212118Y342818D01*
X212205Y342989D01*
X212208Y342998D01*
X212212Y343006D01*
X212262Y343192D01*
X212313Y343377D01*
X212314Y343386D01*
X212316Y343395D01*
X212343Y343725D01*
X212343Y344871D01*
X213851Y348512D01*
X216638Y351299D01*
X216677Y351315D01*
X216697Y351325D01*
X216718Y351332D01*
X216874Y351420D01*
X217032Y351505D01*
X217049Y351519D01*
X217069Y351530D01*
X217204Y351647D01*
X217343Y351761D01*
X217357Y351779D01*
X217374Y351793D01*
X217483Y351934D01*
X217596Y352074D01*
X217607Y352094D01*
X217620Y352111D01*
X217700Y352271D01*
X217783Y352430D01*
X217790Y352452D01*
X217800Y352472D01*
X217846Y352645D01*
X217896Y352817D01*
X217898Y352839D01*
X217904Y352861D01*
X217931Y353191D01*
X217931Y358009D01*
X217929Y358031D01*
X217931Y358053D01*
X217909Y358231D01*
X217891Y358409D01*
X217885Y358431D01*
X217882Y358453D01*
X217826Y358623D01*
X217773Y358794D01*
X217763Y358814D01*
X217756Y358835D01*
X217667Y358991D01*
X217581Y359148D01*
X217567Y359165D01*
X217556Y359185D01*
X217438Y359320D01*
X217324Y359457D01*
X217306Y359472D01*
X217292Y359488D01*
X217150Y359597D01*
X217010Y359710D01*
X216990Y359720D01*
X216972Y359734D01*
X216677Y359885D01*
X216638Y359901D01*
X213851Y362688D01*
X212343Y366329D01*
X212343Y370271D01*
X213851Y373912D01*
X216638Y376699D01*
X220279Y378207D01*
X224221Y378207D01*
X227862Y376699D01*
X230649Y373912D01*
X232157Y370271D01*
X232157Y366329D01*
X230649Y362688D01*
X227862Y359901D01*
X227823Y359885D01*
X227803Y359875D01*
X227782Y359868D01*
X227626Y359780D01*
X227468Y359695D01*
X227451Y359681D01*
X227431Y359670D01*
X227296Y359553D01*
X227157Y359439D01*
X227143Y359421D01*
X227126Y359407D01*
X227017Y359266D01*
X226904Y359126D01*
X226893Y359106D01*
X226880Y359089D01*
X226800Y358929D01*
X226717Y358770D01*
X226710Y358748D01*
X226700Y358728D01*
X226654Y358555D01*
X226604Y358383D01*
X226602Y358361D01*
X226596Y358339D01*
X226569Y358009D01*
X226569Y353191D01*
X226571Y353169D01*
X226569Y353147D01*
X226591Y352969D01*
X226609Y352791D01*
X226615Y352769D01*
X226618Y352747D01*
X226674Y352577D01*
X226727Y352406D01*
X226737Y352386D01*
X226744Y352365D01*
X226833Y352209D01*
X226919Y352052D01*
X226933Y352035D01*
X226944Y352015D01*
X227062Y351880D01*
X227176Y351743D01*
X227194Y351728D01*
X227208Y351712D01*
X227350Y351603D01*
X227490Y351490D01*
X227510Y351480D01*
X227528Y351466D01*
X227823Y351315D01*
X227862Y351299D01*
X230649Y348512D01*
X232157Y344871D01*
X232157Y340929D01*
X230980Y338089D01*
X230976Y338076D01*
X230970Y338065D01*
X230919Y337885D01*
X230864Y337704D01*
X230863Y337691D01*
X230859Y337678D01*
X230844Y337490D01*
X230826Y337303D01*
X230827Y337290D01*
X230826Y337276D01*
X230848Y337089D01*
X230867Y336903D01*
X230871Y336890D01*
X230873Y336877D01*
X230931Y336697D01*
X230987Y336518D01*
X230994Y336507D01*
X230998Y336494D01*
X231091Y336329D01*
X231180Y336165D01*
X231189Y336155D01*
X231196Y336143D01*
X231319Y336001D01*
X231440Y335857D01*
X231450Y335849D01*
X231459Y335838D01*
X231607Y335723D01*
X231754Y335606D01*
X231766Y335600D01*
X231777Y335592D01*
X231946Y335508D01*
X232113Y335422D01*
X232125Y335418D01*
X232137Y335412D01*
X232320Y335363D01*
X232500Y335312D01*
X232513Y335311D01*
X232526Y335308D01*
X232857Y335281D01*
X235677Y335281D01*
X235704Y335283D01*
X235730Y335281D01*
X235904Y335303D01*
X236078Y335321D01*
X236103Y335328D01*
X236130Y335332D01*
X236296Y335387D01*
X236463Y335439D01*
X236486Y335452D01*
X236512Y335460D01*
X236663Y335547D01*
X236817Y335631D01*
X236837Y335648D01*
X236860Y335661D01*
X237113Y335876D01*
X254674Y353437D01*
X254691Y353457D01*
X254712Y353475D01*
X254819Y353613D01*
X254929Y353748D01*
X254942Y353772D01*
X254958Y353793D01*
X255036Y353950D01*
X255118Y354104D01*
X255126Y354129D01*
X255138Y354153D01*
X255183Y354323D01*
X255233Y354490D01*
X255235Y354516D01*
X255242Y354542D01*
X255269Y354873D01*
X255269Y396354D01*
X255927Y397941D01*
X264965Y406979D01*
X266552Y407637D01*
X269713Y407637D01*
X269730Y407639D01*
X269748Y407637D01*
X269930Y407658D01*
X270113Y407677D01*
X270130Y407682D01*
X270148Y407684D01*
X270322Y407741D01*
X270498Y407795D01*
X270514Y407803D01*
X270531Y407809D01*
X270691Y407899D01*
X270852Y407987D01*
X270866Y407998D01*
X270881Y408007D01*
X271021Y408127D01*
X271161Y408244D01*
X271173Y408258D01*
X271186Y408270D01*
X271299Y408415D01*
X271414Y408558D01*
X271422Y408574D01*
X271433Y408588D01*
X271515Y408753D01*
X271599Y408915D01*
X271604Y408932D01*
X271612Y408948D01*
X271660Y409127D01*
X271711Y409302D01*
X271712Y409320D01*
X271717Y409337D01*
X271744Y409668D01*
X271744Y410782D01*
X272668Y413013D01*
X274375Y414720D01*
X276605Y415644D01*
X279020Y415644D01*
X281250Y414720D01*
X282957Y413013D01*
X283981Y410541D01*
X283987Y410529D01*
X283991Y410519D01*
X283995Y410512D01*
X283999Y410500D01*
X284087Y410343D01*
X284171Y410186D01*
X284186Y410169D01*
X284197Y410149D01*
X284314Y410013D01*
X284428Y409875D01*
X284445Y409861D01*
X284460Y409844D01*
X284601Y409735D01*
X284741Y409622D01*
X284760Y409611D01*
X284778Y409598D01*
X284938Y409518D01*
X285097Y409435D01*
X285118Y409428D01*
X285138Y409418D01*
X285312Y409372D01*
X285483Y409322D01*
X285506Y409320D01*
X285527Y409314D01*
X285858Y409287D01*
X287322Y409287D01*
X287353Y409290D01*
X287384Y409288D01*
X287553Y409310D01*
X287643Y409319D01*
X289654Y409319D01*
X289672Y409314D01*
X290003Y409287D01*
X293610Y409287D01*
X294949Y407947D01*
X294949Y401883D01*
X294889Y401769D01*
X294884Y401752D01*
X294876Y401736D01*
X294826Y401558D01*
X294774Y401383D01*
X294773Y401366D01*
X294768Y401348D01*
X294754Y401165D01*
X294738Y400982D01*
X294740Y400965D01*
X294738Y400947D01*
X294761Y400765D01*
X294781Y400582D01*
X294787Y400565D01*
X294789Y400547D01*
X294847Y400373D01*
X294903Y400198D01*
X294911Y400183D01*
X294917Y400166D01*
X294949Y400110D01*
X294949Y397048D01*
X294951Y397026D01*
X294950Y397004D01*
X294971Y396826D01*
X294989Y396647D01*
X294996Y396626D01*
X294998Y396604D01*
X295055Y396434D01*
X295107Y396263D01*
X295118Y396243D01*
X295125Y396222D01*
X295214Y396066D01*
X295299Y395908D01*
X295313Y395891D01*
X295324Y395872D01*
X295442Y395737D01*
X295557Y395599D01*
X295574Y395585D01*
X295589Y395568D01*
X295731Y395459D01*
X295871Y395347D01*
X295890Y395337D01*
X295908Y395323D01*
X296203Y395171D01*
X298682Y394145D01*
X300389Y392438D01*
X301313Y390207D01*
X301313Y387793D01*
X300389Y385562D01*
X298682Y383855D01*
X296203Y382829D01*
X296184Y382818D01*
X296162Y382811D01*
X296006Y382723D01*
X295848Y382638D01*
X295831Y382624D01*
X295812Y382613D01*
X295676Y382496D01*
X295538Y382382D01*
X295524Y382365D01*
X295507Y382350D01*
X295397Y382209D01*
X295284Y382069D01*
X295274Y382050D01*
X295260Y382032D01*
X295181Y381872D01*
X295097Y381713D01*
X295091Y381691D01*
X295081Y381671D01*
X295034Y381498D01*
X294984Y381326D01*
X294982Y381304D01*
X294976Y381283D01*
X294949Y380952D01*
X294949Y377883D01*
X294889Y377769D01*
X294884Y377752D01*
X294876Y377736D01*
X294826Y377559D01*
X294774Y377383D01*
X294773Y377366D01*
X294768Y377348D01*
X294754Y377165D01*
X294738Y376982D01*
X294740Y376965D01*
X294738Y376947D01*
X294761Y376765D01*
X294781Y376582D01*
X294787Y376565D01*
X294789Y376547D01*
X294847Y376373D01*
X294903Y376198D01*
X294911Y376183D01*
X294917Y376166D01*
X294949Y376110D01*
X294949Y369883D01*
X294889Y369769D01*
X294884Y369752D01*
X294876Y369736D01*
X294826Y369558D01*
X294774Y369383D01*
X294773Y369366D01*
X294768Y369348D01*
X294754Y369165D01*
X294738Y368982D01*
X294740Y368965D01*
X294738Y368947D01*
X294761Y368765D01*
X294781Y368582D01*
X294787Y368565D01*
X294789Y368547D01*
X294847Y368373D01*
X294903Y368198D01*
X294911Y368183D01*
X294917Y368166D01*
X294949Y368110D01*
X294949Y361883D01*
X294889Y361769D01*
X294884Y361752D01*
X294876Y361736D01*
X294826Y361558D01*
X294774Y361383D01*
X294773Y361366D01*
X294768Y361348D01*
X294754Y361165D01*
X294738Y360982D01*
X294740Y360965D01*
X294738Y360947D01*
X294761Y360765D01*
X294781Y360582D01*
X294787Y360565D01*
X294789Y360547D01*
X294847Y360373D01*
X294903Y360198D01*
X294911Y360183D01*
X294917Y360166D01*
X294949Y360110D01*
X294949Y353883D01*
X294889Y353769D01*
X294884Y353752D01*
X294876Y353736D01*
X294826Y353558D01*
X294774Y353383D01*
X294773Y353366D01*
X294768Y353348D01*
X294754Y353165D01*
X294738Y352982D01*
X294740Y352965D01*
X294738Y352947D01*
X294761Y352765D01*
X294781Y352582D01*
X294787Y352565D01*
X294789Y352547D01*
X294847Y352373D01*
X294903Y352198D01*
X294911Y352183D01*
X294917Y352166D01*
X294949Y352110D01*
X294949Y346053D01*
X293610Y344713D01*
X283654Y344713D01*
X283637Y344711D01*
X283619Y344713D01*
X283437Y344692D01*
X283254Y344673D01*
X283237Y344668D01*
X283219Y344666D01*
X283045Y344609D01*
X282869Y344555D01*
X282853Y344547D01*
X282836Y344541D01*
X282676Y344451D01*
X282515Y344363D01*
X282501Y344352D01*
X282486Y344343D01*
X282346Y344223D01*
X282206Y344106D01*
X282194Y344092D01*
X282181Y344080D01*
X282068Y343935D01*
X281953Y343792D01*
X281945Y343776D01*
X281934Y343762D01*
X281852Y343597D01*
X281768Y343435D01*
X281763Y343418D01*
X281755Y343402D01*
X281707Y343223D01*
X281656Y343048D01*
X281655Y343030D01*
X281650Y343013D01*
X281623Y342682D01*
X281623Y324929D01*
X281625Y324912D01*
X281624Y324894D01*
X281645Y324712D01*
X281663Y324529D01*
X281668Y324512D01*
X281670Y324494D01*
X281727Y324320D01*
X281781Y324144D01*
X281790Y324128D01*
X281795Y324111D01*
X281886Y323951D01*
X281973Y323790D01*
X281984Y323776D01*
X281993Y323761D01*
X282113Y323621D01*
X282231Y323481D01*
X282245Y323469D01*
X282256Y323456D01*
X282401Y323343D01*
X282545Y323228D01*
X282560Y323220D01*
X282574Y323209D01*
X282739Y323127D01*
X282902Y323043D01*
X282919Y323038D01*
X282935Y323030D01*
X283113Y322982D01*
X283289Y322931D01*
X283307Y322930D01*
X283324Y322925D01*
X283654Y322898D01*
X292091Y322898D01*
X294918Y320071D01*
X298439Y316550D01*
X298446Y316545D01*
X298451Y316538D01*
X298601Y316418D01*
X298750Y316295D01*
X298758Y316291D01*
X298765Y316286D01*
X298935Y316197D01*
X299106Y316107D01*
X299115Y316104D01*
X299122Y316100D01*
X299307Y316047D01*
X299492Y315992D01*
X299501Y315991D01*
X299509Y315989D01*
X299700Y315973D01*
X299893Y315956D01*
X299902Y315957D01*
X299911Y315956D01*
X300100Y315978D01*
X300293Y315999D01*
X300302Y316002D01*
X300310Y316003D01*
X300492Y316062D01*
X300677Y316120D01*
X300685Y316125D01*
X300693Y316128D01*
X300862Y316223D01*
X301029Y316315D01*
X301036Y316321D01*
X301044Y316325D01*
X301190Y316451D01*
X301336Y316576D01*
X301342Y316583D01*
X301349Y316589D01*
X301466Y316740D01*
X301586Y316892D01*
X301590Y316900D01*
X301595Y316907D01*
X301681Y317079D01*
X301768Y317251D01*
X301771Y317259D01*
X301775Y317267D01*
X301825Y317453D01*
X301876Y317639D01*
X301877Y317647D01*
X301879Y317656D01*
X301906Y317987D01*
X301906Y320295D01*
X302976Y322877D01*
X302993Y322908D01*
X302996Y322919D01*
X303001Y322929D01*
X303054Y323112D01*
X303108Y323294D01*
X303109Y323305D01*
X303113Y323316D01*
X303128Y323506D01*
X303146Y323695D01*
X303144Y323706D01*
X303145Y323718D01*
X303123Y323905D01*
X303103Y324095D01*
X303100Y324106D01*
X303098Y324117D01*
X303040Y324298D01*
X302983Y324479D01*
X302977Y324489D01*
X302974Y324500D01*
X302880Y324667D01*
X302789Y324832D01*
X302781Y324841D01*
X302776Y324851D01*
X302651Y324995D01*
X302529Y325140D01*
X302520Y325147D01*
X302513Y325156D01*
X302363Y325272D01*
X302214Y325390D01*
X302204Y325395D01*
X302194Y325402D01*
X302024Y325487D01*
X301855Y325573D01*
X301844Y325576D01*
X301834Y325582D01*
X301650Y325631D01*
X301468Y325682D01*
X301456Y325683D01*
X301445Y325686D01*
X301114Y325713D01*
X296715Y325713D01*
X295376Y327053D01*
X295376Y336947D01*
X296715Y338287D01*
X302780Y338287D01*
X302893Y338227D01*
X302910Y338221D01*
X302926Y338213D01*
X303103Y338164D01*
X303279Y338112D01*
X303297Y338110D01*
X303314Y338105D01*
X303497Y338092D01*
X303680Y338075D01*
X303698Y338077D01*
X303716Y338076D01*
X303898Y338099D01*
X304080Y338119D01*
X304098Y338124D01*
X304115Y338126D01*
X304289Y338185D01*
X304464Y338240D01*
X304480Y338249D01*
X304497Y338255D01*
X304553Y338287D01*
X310610Y338287D01*
X311949Y336947D01*
X311949Y327053D01*
X311814Y326918D01*
X311797Y326897D01*
X311777Y326880D01*
X311670Y326742D01*
X311559Y326606D01*
X311547Y326583D01*
X311530Y326561D01*
X311452Y326405D01*
X311370Y326251D01*
X311363Y326225D01*
X311351Y326201D01*
X311305Y326032D01*
X311256Y325865D01*
X311253Y325838D01*
X311246Y325812D01*
X311219Y325481D01*
X311219Y325267D01*
X311222Y325241D01*
X311220Y325214D01*
X311242Y325040D01*
X311259Y324866D01*
X311267Y324841D01*
X311270Y324814D01*
X311326Y324649D01*
X311377Y324482D01*
X311390Y324458D01*
X311399Y324433D01*
X311486Y324281D01*
X311569Y324128D01*
X311586Y324107D01*
X311599Y324084D01*
X311814Y323831D01*
X313120Y322525D01*
X314063Y320249D01*
X314069Y320237D01*
X314073Y320224D01*
X314164Y320060D01*
X314253Y319894D01*
X314261Y319884D01*
X314268Y319872D01*
X314390Y319728D01*
X314509Y319584D01*
X314520Y319575D01*
X314528Y319565D01*
X314676Y319448D01*
X314822Y319330D01*
X314834Y319324D01*
X314844Y319315D01*
X315011Y319231D01*
X315178Y319143D01*
X315191Y319139D01*
X315203Y319133D01*
X315384Y319083D01*
X315565Y319030D01*
X315578Y319029D01*
X315591Y319025D01*
X315780Y319011D01*
X315966Y318995D01*
X315979Y318997D01*
X315993Y318996D01*
X316181Y319019D01*
X316366Y319040D01*
X316379Y319044D01*
X316392Y319046D01*
X316570Y319106D01*
X316749Y319163D01*
X316761Y319170D01*
X316774Y319174D01*
X316936Y319268D01*
X317101Y319360D01*
X317111Y319369D01*
X317123Y319375D01*
X317376Y319590D01*
X318460Y320674D01*
X319188Y320674D01*
X319215Y320677D01*
X319241Y320675D01*
X319415Y320697D01*
X319589Y320714D01*
X319614Y320722D01*
X319641Y320726D01*
X319807Y320781D01*
X319974Y320832D01*
X319997Y320845D01*
X320023Y320854D01*
X320174Y320941D01*
X320328Y321024D01*
X320348Y321041D01*
X320371Y321055D01*
X320624Y321269D01*
X321601Y322246D01*
X321606Y322253D01*
X321613Y322258D01*
X321733Y322407D01*
X321856Y322557D01*
X321860Y322565D01*
X321866Y322572D01*
X321953Y322741D01*
X322044Y322913D01*
X322047Y322922D01*
X322051Y322929D01*
X322104Y323112D01*
X322159Y323299D01*
X322160Y323308D01*
X322163Y323316D01*
X322178Y323507D01*
X322196Y323700D01*
X322195Y323709D01*
X322195Y323718D01*
X322173Y323907D01*
X322152Y324100D01*
X322150Y324109D01*
X322148Y324117D01*
X322089Y324300D01*
X322031Y324484D01*
X322026Y324492D01*
X322024Y324500D01*
X321929Y324667D01*
X321836Y324836D01*
X321830Y324843D01*
X321826Y324851D01*
X321700Y324997D01*
X321575Y325143D01*
X321568Y325149D01*
X321563Y325156D01*
X321410Y325274D01*
X321260Y325393D01*
X321252Y325397D01*
X321244Y325402D01*
X321072Y325488D01*
X320901Y325575D01*
X320892Y325578D01*
X320884Y325582D01*
X320833Y325595D01*
X319376Y327053D01*
X319376Y336947D01*
X320715Y338287D01*
X326780Y338287D01*
X326893Y338227D01*
X326910Y338221D01*
X326926Y338213D01*
X327103Y338164D01*
X327279Y338112D01*
X327297Y338110D01*
X327314Y338105D01*
X327497Y338092D01*
X327680Y338075D01*
X327698Y338077D01*
X327716Y338076D01*
X327898Y338099D01*
X328080Y338119D01*
X328098Y338124D01*
X328115Y338126D01*
X328289Y338185D01*
X328464Y338240D01*
X328480Y338249D01*
X328497Y338255D01*
X328553Y338287D01*
X334780Y338287D01*
X334893Y338227D01*
X334910Y338221D01*
X334926Y338213D01*
X335103Y338164D01*
X335279Y338112D01*
X335297Y338110D01*
X335314Y338105D01*
X335497Y338092D01*
X335680Y338075D01*
X335698Y338077D01*
X335716Y338076D01*
X335898Y338099D01*
X336080Y338119D01*
X336098Y338124D01*
X336115Y338126D01*
X336289Y338185D01*
X336464Y338240D01*
X336480Y338249D01*
X336497Y338255D01*
X336553Y338287D01*
X342780Y338287D01*
X342893Y338227D01*
X342910Y338221D01*
X342926Y338213D01*
X343103Y338164D01*
X343279Y338112D01*
X343297Y338110D01*
X343314Y338105D01*
X343497Y338092D01*
X343680Y338075D01*
X343698Y338077D01*
X343716Y338076D01*
X343898Y338099D01*
X344080Y338119D01*
X344098Y338124D01*
X344115Y338126D01*
X344289Y338185D01*
X344464Y338240D01*
X344480Y338249D01*
X344497Y338255D01*
X344553Y338287D01*
X345913Y338287D01*
X345930Y338289D01*
X345948Y338287D01*
X346130Y338308D01*
X346313Y338327D01*
X346330Y338332D01*
X346348Y338334D01*
X346522Y338391D01*
X346698Y338445D01*
X346714Y338453D01*
X346731Y338459D01*
X346891Y338549D01*
X347052Y338637D01*
X347066Y338648D01*
X347081Y338657D01*
X347221Y338777D01*
X347361Y338894D01*
X347373Y338908D01*
X347386Y338920D01*
X347499Y339065D01*
X347614Y339208D01*
X347622Y339224D01*
X347633Y339238D01*
X347715Y339403D01*
X347799Y339565D01*
X347804Y339582D01*
X347812Y339598D01*
X347860Y339777D01*
X347911Y339952D01*
X347912Y339970D01*
X347917Y339987D01*
X347944Y340318D01*
X347944Y342520D01*
X348868Y344750D01*
X350575Y346457D01*
X352805Y347381D01*
X355220Y347381D01*
X357450Y346457D01*
X359157Y344750D01*
X360081Y342520D01*
X360081Y340318D01*
X360083Y340300D01*
X360082Y340282D01*
X360103Y340100D01*
X360121Y339917D01*
X360126Y339900D01*
X360128Y339883D01*
X360185Y339708D01*
X360239Y339532D01*
X360248Y339517D01*
X360253Y339500D01*
X360344Y339340D01*
X360431Y339178D01*
X360442Y339165D01*
X360451Y339149D01*
X360571Y339010D01*
X360689Y338869D01*
X360703Y338858D01*
X360714Y338844D01*
X360859Y338732D01*
X361003Y338617D01*
X361018Y338609D01*
X361032Y338598D01*
X361197Y338516D01*
X361360Y338431D01*
X361377Y338426D01*
X361393Y338418D01*
X361571Y338371D01*
X361747Y338320D01*
X361765Y338318D01*
X361782Y338314D01*
X362112Y338287D01*
X366780Y338287D01*
X366893Y338227D01*
X366910Y338221D01*
X366926Y338213D01*
X367103Y338164D01*
X367279Y338112D01*
X367297Y338110D01*
X367314Y338105D01*
X367497Y338092D01*
X367680Y338075D01*
X367698Y338077D01*
X367716Y338076D01*
X367898Y338099D01*
X368080Y338119D01*
X368098Y338124D01*
X368115Y338126D01*
X368289Y338185D01*
X368464Y338240D01*
X368480Y338249D01*
X368497Y338255D01*
X368553Y338287D01*
X374780Y338287D01*
X374893Y338227D01*
X374910Y338221D01*
X374926Y338213D01*
X375103Y338164D01*
X375279Y338112D01*
X375297Y338110D01*
X375314Y338105D01*
X375497Y338092D01*
X375680Y338075D01*
X375698Y338077D01*
X375716Y338076D01*
X375898Y338099D01*
X376080Y338119D01*
X376098Y338124D01*
X376115Y338126D01*
X376289Y338185D01*
X376464Y338240D01*
X376480Y338249D01*
X376497Y338255D01*
X376553Y338287D01*
X382780Y338287D01*
X382893Y338227D01*
X382910Y338221D01*
X382926Y338213D01*
X383103Y338164D01*
X383279Y338112D01*
X383297Y338110D01*
X383314Y338105D01*
X383497Y338092D01*
X383680Y338075D01*
X383698Y338077D01*
X383716Y338076D01*
X383898Y338099D01*
X384080Y338119D01*
X384098Y338124D01*
X384115Y338126D01*
X384289Y338185D01*
X384464Y338240D01*
X384480Y338249D01*
X384497Y338255D01*
X384553Y338287D01*
X390780Y338287D01*
X390893Y338227D01*
X390910Y338221D01*
X390926Y338213D01*
X391103Y338164D01*
X391279Y338112D01*
X391297Y338110D01*
X391314Y338105D01*
X391497Y338092D01*
X391680Y338075D01*
X391698Y338077D01*
X391716Y338076D01*
X391898Y338099D01*
X392080Y338119D01*
X392098Y338124D01*
X392115Y338126D01*
X392289Y338185D01*
X392464Y338240D01*
X392480Y338249D01*
X392497Y338255D01*
X392553Y338287D01*
X398345Y338287D01*
X398362Y338289D01*
X398380Y338287D01*
X398562Y338308D01*
X398745Y338327D01*
X398762Y338332D01*
X398780Y338334D01*
X398954Y338391D01*
X399130Y338445D01*
X399146Y338453D01*
X399163Y338459D01*
X399323Y338549D01*
X399484Y338637D01*
X399498Y338648D01*
X399513Y338657D01*
X399653Y338777D01*
X399793Y338894D01*
X399805Y338908D01*
X399818Y338920D01*
X399931Y339065D01*
X400046Y339208D01*
X400054Y339224D01*
X400065Y339238D01*
X400147Y339403D01*
X400231Y339565D01*
X400236Y339582D01*
X400244Y339598D01*
X400292Y339777D01*
X400343Y339952D01*
X400344Y339970D01*
X400349Y339987D01*
X400376Y340318D01*
X400376Y344117D01*
X400436Y344231D01*
X400441Y344248D01*
X400449Y344264D01*
X400499Y344442D01*
X400551Y344617D01*
X400552Y344635D01*
X400557Y344652D01*
X400571Y344835D01*
X400587Y345018D01*
X400585Y345036D01*
X400586Y345053D01*
X400564Y345235D01*
X400544Y345418D01*
X400538Y345435D01*
X400536Y345453D01*
X400478Y345626D01*
X400422Y345802D01*
X400414Y345818D01*
X400408Y345835D01*
X400376Y345890D01*
X400376Y352117D01*
X400436Y352231D01*
X400441Y352248D01*
X400449Y352264D01*
X400498Y352440D01*
X400551Y352617D01*
X400552Y352634D01*
X400557Y352652D01*
X400571Y352835D01*
X400587Y353018D01*
X400585Y353035D01*
X400587Y353053D01*
X400564Y353235D01*
X400544Y353418D01*
X400538Y353435D01*
X400536Y353453D01*
X400478Y353627D01*
X400422Y353802D01*
X400414Y353817D01*
X400408Y353834D01*
X400376Y353890D01*
X400376Y360117D01*
X400436Y360231D01*
X400441Y360248D01*
X400449Y360264D01*
X400498Y360440D01*
X400551Y360617D01*
X400552Y360634D01*
X400557Y360652D01*
X400571Y360835D01*
X400587Y361018D01*
X400585Y361035D01*
X400587Y361053D01*
X400564Y361235D01*
X400544Y361418D01*
X400538Y361435D01*
X400536Y361453D01*
X400478Y361627D01*
X400422Y361802D01*
X400414Y361817D01*
X400408Y361834D01*
X400376Y361890D01*
X400376Y368117D01*
X400436Y368231D01*
X400441Y368248D01*
X400449Y368264D01*
X400498Y368440D01*
X400551Y368617D01*
X400552Y368634D01*
X400557Y368652D01*
X400571Y368835D01*
X400587Y369018D01*
X400585Y369035D01*
X400587Y369053D01*
X400564Y369235D01*
X400544Y369418D01*
X400538Y369435D01*
X400536Y369453D01*
X400478Y369627D01*
X400422Y369802D01*
X400414Y369817D01*
X400408Y369834D01*
X400376Y369890D01*
X400376Y372900D01*
X400374Y372918D01*
X400375Y372936D01*
X400354Y373118D01*
X400336Y373301D01*
X400331Y373318D01*
X400329Y373335D01*
X400272Y373510D01*
X400218Y373686D01*
X400209Y373701D01*
X400204Y373718D01*
X400113Y373878D01*
X400026Y374040D01*
X400015Y374053D01*
X400006Y374069D01*
X399886Y374208D01*
X399768Y374349D01*
X399754Y374360D01*
X399743Y374374D01*
X399598Y374486D01*
X399454Y374601D01*
X399439Y374609D01*
X399425Y374620D01*
X399260Y374702D01*
X399097Y374787D01*
X399080Y374792D01*
X399064Y374800D01*
X398886Y374847D01*
X398710Y374898D01*
X398692Y374900D01*
X398675Y374904D01*
X398345Y374931D01*
X397255Y374931D01*
X395025Y375855D01*
X393318Y377562D01*
X392394Y379793D01*
X392394Y382207D01*
X393318Y384438D01*
X395025Y386145D01*
X397255Y387069D01*
X398345Y387069D01*
X398362Y387071D01*
X398380Y387069D01*
X398562Y387090D01*
X398745Y387109D01*
X398762Y387114D01*
X398780Y387116D01*
X398954Y387173D01*
X399130Y387227D01*
X399146Y387235D01*
X399163Y387241D01*
X399323Y387331D01*
X399484Y387419D01*
X399498Y387430D01*
X399513Y387439D01*
X399653Y387559D01*
X399793Y387676D01*
X399805Y387690D01*
X399818Y387702D01*
X399930Y387846D01*
X400046Y387990D01*
X400054Y388006D01*
X400065Y388020D01*
X400147Y388185D01*
X400231Y388347D01*
X400236Y388364D01*
X400244Y388380D01*
X400292Y388559D01*
X400343Y388734D01*
X400344Y388752D01*
X400349Y388769D01*
X400376Y389100D01*
X400376Y392117D01*
X400436Y392231D01*
X400441Y392248D01*
X400449Y392264D01*
X400498Y392441D01*
X400551Y392617D01*
X400552Y392634D01*
X400557Y392652D01*
X400571Y392835D01*
X400587Y393018D01*
X400585Y393035D01*
X400587Y393053D01*
X400564Y393235D01*
X400544Y393418D01*
X400538Y393435D01*
X400536Y393453D01*
X400478Y393627D01*
X400422Y393802D01*
X400414Y393817D01*
X400408Y393834D01*
X400376Y393890D01*
X400376Y400117D01*
X400436Y400231D01*
X400441Y400248D01*
X400449Y400264D01*
X400498Y400440D01*
X400551Y400617D01*
X400552Y400634D01*
X400557Y400652D01*
X400571Y400835D01*
X400587Y401018D01*
X400585Y401035D01*
X400587Y401053D01*
X400564Y401235D01*
X400544Y401418D01*
X400538Y401435D01*
X400536Y401453D01*
X400478Y401627D01*
X400422Y401802D01*
X400414Y401817D01*
X400408Y401834D01*
X400376Y401890D01*
X400376Y408117D01*
X400436Y408231D01*
X400441Y408248D01*
X400449Y408264D01*
X400498Y408440D01*
X400551Y408617D01*
X400552Y408634D01*
X400557Y408652D01*
X400571Y408835D01*
X400587Y409018D01*
X400585Y409035D01*
X400587Y409053D01*
X400564Y409235D01*
X400544Y409418D01*
X400538Y409435D01*
X400536Y409453D01*
X400478Y409627D01*
X400422Y409802D01*
X400414Y409817D01*
X400408Y409834D01*
X400376Y409890D01*
X400376Y416117D01*
X400436Y416231D01*
X400441Y416248D01*
X400449Y416264D01*
X400498Y416440D01*
X400551Y416617D01*
X400552Y416634D01*
X400557Y416652D01*
X400571Y416835D01*
X400587Y417018D01*
X400585Y417035D01*
X400587Y417053D01*
X400564Y417235D01*
X400544Y417418D01*
X400538Y417435D01*
X400536Y417453D01*
X400478Y417627D01*
X400422Y417802D01*
X400414Y417817D01*
X400408Y417834D01*
X400376Y417890D01*
X400376Y423947D01*
X401715Y425287D01*
X411610Y425287D01*
X412949Y423947D01*
X412949Y417883D01*
X412889Y417769D01*
X412884Y417752D01*
X412876Y417736D01*
X412826Y417558D01*
X412774Y417383D01*
X412773Y417365D01*
X412768Y417348D01*
X412754Y417165D01*
X412738Y416982D01*
X412740Y416964D01*
X412739Y416947D01*
X412761Y416765D01*
X412781Y416582D01*
X412787Y416565D01*
X412789Y416547D01*
X412847Y416374D01*
X412903Y416198D01*
X412911Y416182D01*
X412917Y416165D01*
X412949Y416110D01*
X412949Y409883D01*
X412889Y409769D01*
X412884Y409752D01*
X412876Y409736D01*
X412826Y409558D01*
X412774Y409383D01*
X412773Y409365D01*
X412768Y409348D01*
X412754Y409165D01*
X412738Y408982D01*
X412740Y408964D01*
X412739Y408947D01*
X412761Y408765D01*
X412781Y408582D01*
X412787Y408565D01*
X412789Y408547D01*
X412847Y408374D01*
X412903Y408198D01*
X412911Y408182D01*
X412917Y408165D01*
X412949Y408110D01*
X412949Y401883D01*
X412889Y401769D01*
X412884Y401752D01*
X412876Y401736D01*
X412826Y401558D01*
X412774Y401383D01*
X412773Y401365D01*
X412768Y401348D01*
X412754Y401165D01*
X412738Y400982D01*
X412740Y400964D01*
X412739Y400947D01*
X412761Y400765D01*
X412781Y400582D01*
X412787Y400565D01*
X412789Y400547D01*
X412847Y400374D01*
X412903Y400198D01*
X412911Y400182D01*
X412917Y400165D01*
X412949Y400110D01*
X412949Y398244D01*
X412951Y398230D01*
X412949Y398217D01*
X412970Y398030D01*
X412989Y397843D01*
X412993Y397830D01*
X412995Y397817D01*
X413052Y397638D01*
X413107Y397458D01*
X413114Y397446D01*
X413118Y397433D01*
X413209Y397270D01*
X413299Y397104D01*
X413308Y397094D01*
X413314Y397082D01*
X413437Y396939D01*
X413557Y396795D01*
X413567Y396786D01*
X413576Y396776D01*
X413725Y396660D01*
X413871Y396542D01*
X413882Y396536D01*
X413893Y396528D01*
X414062Y396443D01*
X414228Y396357D01*
X414241Y396353D01*
X414253Y396347D01*
X414434Y396297D01*
X414615Y396245D01*
X414628Y396244D01*
X414641Y396241D01*
X414828Y396228D01*
X415016Y396213D01*
X415029Y396214D01*
X415043Y396213D01*
X415228Y396238D01*
X415416Y396260D01*
X415429Y396264D01*
X415442Y396265D01*
X415758Y396367D01*
X416305Y396594D01*
X417720Y396594D01*
X417737Y396596D01*
X417755Y396594D01*
X417937Y396615D01*
X418120Y396634D01*
X418137Y396639D01*
X418155Y396641D01*
X418330Y396698D01*
X418505Y396752D01*
X418521Y396760D01*
X418538Y396766D01*
X418698Y396856D01*
X418859Y396944D01*
X418873Y396955D01*
X418888Y396964D01*
X419028Y397084D01*
X419168Y397201D01*
X419180Y397215D01*
X419193Y397227D01*
X419306Y397372D01*
X419421Y397515D01*
X419429Y397531D01*
X419440Y397545D01*
X419522Y397710D01*
X419606Y397872D01*
X419611Y397889D01*
X419619Y397905D01*
X419667Y398084D01*
X419718Y398259D01*
X419719Y398277D01*
X419724Y398294D01*
X419751Y398625D01*
X419751Y400152D01*
X420480Y401911D01*
X421826Y403258D01*
X423585Y403987D01*
X430490Y403987D01*
X432249Y403258D01*
X433595Y401911D01*
X434324Y400152D01*
X434324Y387248D01*
X433573Y385434D01*
X433463Y385300D01*
X433455Y385284D01*
X433444Y385270D01*
X433360Y385105D01*
X433275Y384944D01*
X433269Y384927D01*
X433261Y384911D01*
X433212Y384734D01*
X433160Y384558D01*
X433158Y384540D01*
X433153Y384523D01*
X433140Y384341D01*
X433123Y384157D01*
X433125Y384139D01*
X433124Y384121D01*
X433147Y383941D01*
X433167Y383757D01*
X433172Y383740D01*
X433174Y383722D01*
X433233Y383549D01*
X433288Y383373D01*
X433297Y383357D01*
X433303Y383340D01*
X433394Y383181D01*
X433483Y383021D01*
X433495Y383007D01*
X433504Y382992D01*
X433578Y382904D01*
X434324Y381102D01*
X434324Y368198D01*
X433595Y366439D01*
X432249Y365092D01*
X430725Y364461D01*
X430724Y364461D01*
X430490Y364363D01*
X423585Y364363D01*
X421826Y365092D01*
X420480Y366439D01*
X419751Y368198D01*
X419751Y374650D01*
X419749Y374668D01*
X419750Y374686D01*
X419729Y374868D01*
X419711Y375051D01*
X419706Y375068D01*
X419704Y375085D01*
X419647Y375260D01*
X419593Y375436D01*
X419584Y375451D01*
X419579Y375468D01*
X419488Y375628D01*
X419401Y375790D01*
X419390Y375803D01*
X419381Y375819D01*
X419261Y375958D01*
X419143Y376099D01*
X419129Y376110D01*
X419118Y376124D01*
X418973Y376236D01*
X418830Y376351D01*
X418814Y376359D01*
X418800Y376370D01*
X418635Y376452D01*
X418472Y376537D01*
X418455Y376542D01*
X418439Y376550D01*
X418261Y376597D01*
X418085Y376648D01*
X418068Y376650D01*
X418050Y376654D01*
X417720Y376681D01*
X414980Y376681D01*
X414963Y376679D01*
X414945Y376681D01*
X414763Y376660D01*
X414580Y376641D01*
X414563Y376636D01*
X414545Y376634D01*
X414371Y376577D01*
X414195Y376523D01*
X414179Y376515D01*
X414162Y376509D01*
X414002Y376419D01*
X413841Y376331D01*
X413827Y376320D01*
X413812Y376311D01*
X413672Y376191D01*
X413532Y376074D01*
X413520Y376060D01*
X413507Y376048D01*
X413394Y375903D01*
X413279Y375760D01*
X413271Y375744D01*
X413260Y375730D01*
X413178Y375565D01*
X413094Y375403D01*
X413089Y375386D01*
X413081Y375370D01*
X413033Y375191D01*
X412982Y375016D01*
X412981Y374998D01*
X412976Y374981D01*
X412949Y374650D01*
X412949Y369883D01*
X412889Y369769D01*
X412884Y369752D01*
X412876Y369736D01*
X412826Y369558D01*
X412774Y369383D01*
X412773Y369365D01*
X412768Y369348D01*
X412754Y369165D01*
X412738Y368982D01*
X412740Y368964D01*
X412739Y368947D01*
X412761Y368765D01*
X412781Y368582D01*
X412787Y368565D01*
X412789Y368547D01*
X412847Y368374D01*
X412903Y368198D01*
X412911Y368182D01*
X412917Y368165D01*
X412949Y368110D01*
X412949Y362535D01*
X412951Y362513D01*
X412950Y362490D01*
X412971Y362313D01*
X412989Y362134D01*
X412996Y362113D01*
X412998Y362091D01*
X413055Y361921D01*
X413107Y361749D01*
X413118Y361730D01*
X413125Y361709D01*
X413214Y361553D01*
X413299Y361395D01*
X413313Y361378D01*
X413324Y361359D01*
X413442Y361224D01*
X413557Y361086D01*
X413574Y361072D01*
X413589Y361055D01*
X413731Y360946D01*
X413871Y360834D01*
X413890Y360824D01*
X413908Y360810D01*
X414195Y360663D01*
X434899Y339959D01*
X435556Y338371D01*
X435556Y323643D01*
X435558Y323625D01*
X435557Y323607D01*
X435578Y323425D01*
X435596Y323242D01*
X435601Y323225D01*
X435603Y323208D01*
X435660Y323033D01*
X435714Y322857D01*
X435723Y322842D01*
X435728Y322825D01*
X435819Y322665D01*
X435906Y322503D01*
X435917Y322490D01*
X435926Y322474D01*
X436046Y322335D01*
X436164Y322194D01*
X436178Y322183D01*
X436189Y322169D01*
X436334Y322057D01*
X436478Y321942D01*
X436493Y321934D01*
X436507Y321923D01*
X436672Y321841D01*
X436835Y321756D01*
X436852Y321751D01*
X436868Y321743D01*
X437046Y321696D01*
X437222Y321645D01*
X437240Y321643D01*
X437257Y321639D01*
X437587Y321612D01*
X437685Y321612D01*
X439024Y320272D01*
X439024Y307951D01*
X439027Y307925D01*
X439025Y307898D01*
X439047Y307724D01*
X439064Y307550D01*
X439072Y307525D01*
X439075Y307498D01*
X439131Y307333D01*
X439182Y307166D01*
X439195Y307142D01*
X439204Y307117D01*
X439291Y306965D01*
X439374Y306812D01*
X439391Y306791D01*
X439404Y306768D01*
X439587Y306553D01*
X439587Y301698D01*
X439588Y301688D01*
X439587Y301678D01*
X439608Y301487D01*
X439627Y301297D01*
X439630Y301288D01*
X439631Y301278D01*
X439689Y301095D01*
X439745Y300912D01*
X439749Y300904D01*
X439752Y300894D01*
X439845Y300726D01*
X439937Y300558D01*
X439943Y300551D01*
X439948Y300542D01*
X440072Y300396D01*
X440194Y300249D01*
X440202Y300243D01*
X440208Y300235D01*
X440359Y300116D01*
X440508Y299997D01*
X440517Y299992D01*
X440524Y299986D01*
X440697Y299898D01*
X440865Y299811D01*
X440875Y299808D01*
X440884Y299804D01*
X441069Y299752D01*
X441252Y299700D01*
X441262Y299699D01*
X441272Y299696D01*
X441602Y299667D01*
X447684Y299619D01*
X447718Y299622D01*
G37*
G36*
X281578Y190594D02*
X281578Y190594D01*
X281606Y190591D01*
X281674Y190614D01*
X281745Y190628D01*
X281768Y190644D01*
X281795Y190653D01*
X281850Y190700D01*
X281909Y190740D01*
X281924Y190764D01*
X281946Y190783D01*
X281977Y190847D01*
X282016Y190908D01*
X282021Y190936D01*
X282033Y190961D01*
X282042Y191063D01*
X282049Y191104D01*
X282047Y191114D01*
X282048Y191127D01*
X281805Y194177D01*
X281796Y194210D01*
X281792Y194257D01*
X281450Y195652D01*
X286957Y195652D01*
X286975Y195654D01*
X286993Y195653D01*
X287175Y195674D01*
X287358Y195692D01*
X287375Y195697D01*
X287392Y195699D01*
X287567Y195756D01*
X287743Y195810D01*
X287758Y195819D01*
X287775Y195824D01*
X287935Y195915D01*
X288097Y196002D01*
X288110Y196013D01*
X288126Y196022D01*
X288265Y196142D01*
X288406Y196260D01*
X288417Y196274D01*
X288431Y196285D01*
X288543Y196430D01*
X288658Y196574D01*
X288666Y196589D01*
X288677Y196603D01*
X288759Y196768D01*
X288844Y196931D01*
X288849Y196948D01*
X288857Y196964D01*
X288904Y197142D01*
X288955Y197318D01*
X288957Y197336D01*
X288961Y197353D01*
X288988Y197683D01*
X288988Y205410D01*
X289942Y206364D01*
X289948Y206371D01*
X289955Y206376D01*
X290076Y206527D01*
X290197Y206675D01*
X290202Y206683D01*
X290207Y206690D01*
X290296Y206860D01*
X290386Y207031D01*
X290389Y207040D01*
X290393Y207047D01*
X290445Y207229D01*
X290501Y207417D01*
X290502Y207426D01*
X290504Y207434D01*
X290520Y207625D01*
X290537Y207818D01*
X290536Y207827D01*
X290537Y207836D01*
X290515Y208025D01*
X290494Y208218D01*
X290491Y208227D01*
X290490Y208235D01*
X290431Y208417D01*
X290372Y208602D01*
X290368Y208610D01*
X290365Y208618D01*
X290271Y208785D01*
X290177Y208954D01*
X290172Y208961D01*
X290167Y208969D01*
X290042Y209114D01*
X289917Y209261D01*
X289910Y209267D01*
X289904Y209274D01*
X289754Y209390D01*
X289601Y209511D01*
X289593Y209515D01*
X289586Y209520D01*
X289415Y209605D01*
X289242Y209693D01*
X289233Y209696D01*
X289225Y209700D01*
X289040Y209749D01*
X288854Y209801D01*
X288845Y209802D01*
X288837Y209804D01*
X288506Y209831D01*
X287730Y209831D01*
X285500Y210755D01*
X283793Y212462D01*
X282869Y214693D01*
X282869Y217107D01*
X283251Y218030D01*
X283255Y218043D01*
X283261Y218054D01*
X283313Y218235D01*
X283367Y218415D01*
X283369Y218428D01*
X283372Y218441D01*
X283388Y218630D01*
X283406Y218816D01*
X283404Y218829D01*
X283405Y218843D01*
X283383Y219029D01*
X283364Y219216D01*
X283360Y219229D01*
X283358Y219242D01*
X283300Y219421D01*
X283244Y219601D01*
X283238Y219612D01*
X283233Y219625D01*
X283141Y219789D01*
X283051Y219954D01*
X283042Y219964D01*
X283036Y219976D01*
X282913Y220118D01*
X282792Y220262D01*
X282781Y220270D01*
X282772Y220281D01*
X282624Y220395D01*
X282477Y220513D01*
X282465Y220519D01*
X282454Y220527D01*
X282286Y220611D01*
X282119Y220697D01*
X282106Y220701D01*
X282094Y220707D01*
X281912Y220756D01*
X281731Y220807D01*
X281718Y220808D01*
X281705Y220811D01*
X281374Y220838D01*
X275953Y220838D01*
X274613Y222178D01*
X274613Y232072D01*
X275953Y233412D01*
X282847Y233412D01*
X284728Y231531D01*
X284749Y231514D01*
X284766Y231493D01*
X284904Y231386D01*
X285040Y231276D01*
X285063Y231263D01*
X285085Y231247D01*
X285241Y231169D01*
X285395Y231087D01*
X285421Y231079D01*
X285445Y231067D01*
X285614Y231022D01*
X285781Y230972D01*
X285808Y230970D01*
X285834Y230963D01*
X286165Y230936D01*
X288510Y230936D01*
X288537Y230938D01*
X288564Y230936D01*
X288738Y230958D01*
X288911Y230976D01*
X288937Y230983D01*
X288963Y230987D01*
X289129Y231042D01*
X289296Y231094D01*
X289320Y231107D01*
X289345Y231115D01*
X289497Y231202D01*
X289650Y231286D01*
X289670Y231303D01*
X289694Y231316D01*
X289947Y231531D01*
X291828Y233412D01*
X298722Y233412D01*
X300603Y231531D01*
X300624Y231514D01*
X300641Y231493D01*
X300779Y231386D01*
X300915Y231276D01*
X300938Y231263D01*
X300960Y231247D01*
X301116Y231169D01*
X301270Y231087D01*
X301296Y231079D01*
X301320Y231067D01*
X301489Y231022D01*
X301656Y230972D01*
X301683Y230970D01*
X301709Y230963D01*
X302040Y230936D01*
X304385Y230936D01*
X304412Y230938D01*
X304439Y230936D01*
X304613Y230958D01*
X304786Y230976D01*
X304812Y230983D01*
X304838Y230987D01*
X305004Y231042D01*
X305171Y231094D01*
X305195Y231107D01*
X305220Y231115D01*
X305372Y231202D01*
X305525Y231286D01*
X305545Y231303D01*
X305569Y231316D01*
X305822Y231531D01*
X307703Y233412D01*
X314597Y233412D01*
X316478Y231531D01*
X316499Y231514D01*
X316516Y231493D01*
X316654Y231386D01*
X316790Y231276D01*
X316813Y231263D01*
X316835Y231247D01*
X316991Y231169D01*
X317145Y231087D01*
X317171Y231079D01*
X317195Y231067D01*
X317364Y231022D01*
X317531Y230972D01*
X317558Y230970D01*
X317584Y230963D01*
X317915Y230936D01*
X320260Y230936D01*
X320287Y230938D01*
X320314Y230936D01*
X320488Y230958D01*
X320661Y230976D01*
X320687Y230983D01*
X320713Y230987D01*
X320879Y231042D01*
X321046Y231094D01*
X321070Y231107D01*
X321095Y231115D01*
X321247Y231202D01*
X321400Y231286D01*
X321420Y231303D01*
X321444Y231316D01*
X321697Y231531D01*
X323578Y233412D01*
X330472Y233412D01*
X331812Y232072D01*
X331812Y222178D01*
X330472Y220838D01*
X323578Y220838D01*
X321697Y222719D01*
X321676Y222736D01*
X321659Y222757D01*
X321521Y222864D01*
X321385Y222974D01*
X321362Y222987D01*
X321340Y223003D01*
X321184Y223081D01*
X321030Y223163D01*
X321004Y223171D01*
X320980Y223183D01*
X320811Y223228D01*
X320644Y223278D01*
X320617Y223280D01*
X320591Y223287D01*
X320260Y223314D01*
X319003Y223314D01*
X318989Y223313D01*
X318976Y223314D01*
X318790Y223293D01*
X318602Y223274D01*
X318589Y223270D01*
X318576Y223269D01*
X318398Y223212D01*
X318217Y223156D01*
X318205Y223150D01*
X318193Y223146D01*
X318028Y223054D01*
X317863Y222964D01*
X317853Y222956D01*
X317841Y222949D01*
X317697Y222826D01*
X317554Y222707D01*
X317546Y222696D01*
X317535Y222688D01*
X317419Y222539D01*
X317302Y222393D01*
X317295Y222381D01*
X317287Y222371D01*
X317202Y222202D01*
X317116Y222036D01*
X317112Y222023D01*
X317106Y222011D01*
X317057Y221829D01*
X317005Y221649D01*
X317004Y221635D01*
X317000Y221622D01*
X316987Y221436D01*
X316972Y221247D01*
X316973Y221234D01*
X316972Y221221D01*
X316997Y221035D01*
X317019Y220848D01*
X317023Y220835D01*
X317025Y220822D01*
X317126Y220506D01*
X317219Y220282D01*
X317219Y217868D01*
X316295Y215637D01*
X314588Y213930D01*
X312357Y213006D01*
X311975Y213006D01*
X311958Y213004D01*
X311940Y213006D01*
X311758Y212985D01*
X311575Y212966D01*
X311558Y212961D01*
X311540Y212959D01*
X311366Y212902D01*
X311190Y212848D01*
X311174Y212840D01*
X311157Y212834D01*
X310997Y212744D01*
X310836Y212656D01*
X310822Y212645D01*
X310807Y212636D01*
X310667Y212516D01*
X310527Y212399D01*
X310515Y212385D01*
X310502Y212373D01*
X310389Y212228D01*
X310274Y212085D01*
X310266Y212069D01*
X310255Y212055D01*
X310173Y211890D01*
X310089Y211728D01*
X310084Y211711D01*
X310076Y211695D01*
X310028Y211516D01*
X309977Y211341D01*
X309976Y211323D01*
X309971Y211306D01*
X309944Y210975D01*
X309944Y210102D01*
X302157Y202314D01*
X302140Y202293D01*
X302119Y202276D01*
X302012Y202138D01*
X301902Y202003D01*
X301889Y201979D01*
X301873Y201958D01*
X301795Y201801D01*
X301713Y201647D01*
X301705Y201621D01*
X301693Y201597D01*
X301648Y201428D01*
X301598Y201261D01*
X301596Y201234D01*
X301589Y201209D01*
X301562Y200878D01*
X301562Y197683D01*
X301564Y197666D01*
X301562Y197648D01*
X301583Y197466D01*
X301602Y197283D01*
X301607Y197266D01*
X301609Y197248D01*
X301666Y197074D01*
X301720Y196898D01*
X301728Y196882D01*
X301734Y196865D01*
X301824Y196705D01*
X301912Y196544D01*
X301923Y196530D01*
X301932Y196515D01*
X302052Y196375D01*
X302169Y196235D01*
X302183Y196223D01*
X302195Y196210D01*
X302340Y196097D01*
X302483Y195982D01*
X302499Y195974D01*
X302513Y195963D01*
X302678Y195881D01*
X302840Y195797D01*
X302857Y195792D01*
X302873Y195784D01*
X303052Y195736D01*
X303227Y195685D01*
X303245Y195684D01*
X303262Y195679D01*
X303593Y195652D01*
X318054Y195652D01*
X318205Y195667D01*
X318357Y195675D01*
X318405Y195687D01*
X318454Y195692D01*
X318600Y195737D01*
X318748Y195774D01*
X318792Y195796D01*
X318839Y195810D01*
X318973Y195883D01*
X319110Y195949D01*
X319156Y195982D01*
X319193Y196002D01*
X319259Y196057D01*
X319379Y196144D01*
X319432Y196190D01*
X319484Y196244D01*
X319498Y196256D01*
X319544Y196294D01*
X319623Y196391D01*
X319710Y196481D01*
X319751Y196546D01*
X319799Y196605D01*
X319858Y196716D01*
X319924Y196822D01*
X319952Y196893D01*
X319987Y196961D01*
X320037Y197117D01*
X320068Y197198D01*
X320074Y197234D01*
X320087Y197277D01*
X320280Y198120D01*
X320289Y198196D01*
X320308Y198270D01*
X320315Y198395D01*
X320330Y198520D01*
X320325Y198596D01*
X320328Y198673D01*
X320310Y198796D01*
X320302Y198908D01*
X320624Y199728D01*
X320642Y199792D01*
X320713Y200018D01*
X320910Y200883D01*
X320949Y200918D01*
X321024Y201019D01*
X321106Y201114D01*
X321143Y201180D01*
X321189Y201242D01*
X321260Y201388D01*
X321303Y201464D01*
X321314Y201498D01*
X321335Y201540D01*
X321651Y202345D01*
X321671Y202418D01*
X321701Y202489D01*
X321726Y202611D01*
X321760Y202732D01*
X321766Y202809D01*
X321781Y202883D01*
X321781Y203009D01*
X321789Y203120D01*
X322230Y203883D01*
X322258Y203944D01*
X322362Y204157D01*
X322686Y204983D01*
X322729Y205011D01*
X322818Y205100D01*
X322913Y205181D01*
X322960Y205242D01*
X323014Y205296D01*
X323107Y205430D01*
X323161Y205499D01*
X323177Y205531D01*
X323203Y205569D01*
X323635Y206318D01*
X323667Y206387D01*
X323707Y206453D01*
X323750Y206570D01*
X323801Y206684D01*
X323818Y206759D01*
X323845Y206831D01*
X323863Y206955D01*
X323888Y207063D01*
X324438Y207752D01*
X324474Y207809D01*
X324609Y208003D01*
X325052Y208772D01*
X325100Y208794D01*
X325201Y208868D01*
X325307Y208934D01*
X325362Y208987D01*
X325424Y209032D01*
X325536Y209151D01*
X325599Y209211D01*
X325620Y209241D01*
X325651Y209274D01*
X326190Y209950D01*
X326232Y210015D01*
X326281Y210073D01*
X326341Y210183D01*
X326409Y210288D01*
X326437Y210360D01*
X326474Y210427D01*
X326511Y210546D01*
X326552Y210650D01*
X327197Y211249D01*
X327242Y211300D01*
X327404Y211472D01*
X327957Y212166D01*
X328007Y212180D01*
X328118Y212239D01*
X328233Y212289D01*
X328296Y212333D01*
X328363Y212368D01*
X328492Y212469D01*
X328563Y212519D01*
X328588Y212545D01*
X328624Y212573D01*
X329258Y213161D01*
X329309Y213219D01*
X329366Y213269D01*
X329442Y213369D01*
X329525Y213463D01*
X329563Y213529D01*
X329609Y213590D01*
X329664Y213703D01*
X329720Y213800D01*
X330448Y214296D01*
X330499Y214339D01*
X330685Y214485D01*
X331336Y215089D01*
X331387Y215096D01*
X331505Y215137D01*
X331627Y215170D01*
X331695Y215203D01*
X331767Y215229D01*
X331909Y215309D01*
X331988Y215348D01*
X332016Y215370D01*
X332056Y215393D01*
X332770Y215880D01*
X332829Y215929D01*
X332893Y215970D01*
X332983Y216058D01*
X333079Y216138D01*
X333127Y216198D01*
X333181Y216251D01*
X333252Y216355D01*
X333322Y216442D01*
X334116Y216824D01*
X334173Y216859D01*
X334378Y216976D01*
X335112Y217476D01*
X335164Y217475D01*
X335287Y217498D01*
X335412Y217512D01*
X335484Y217536D01*
X335560Y217550D01*
X335712Y217608D01*
X335795Y217635D01*
X335826Y217652D01*
X335869Y217669D01*
X336648Y218044D01*
X336713Y218084D01*
X336783Y218115D01*
X336885Y218188D01*
X336992Y218254D01*
X337048Y218306D01*
X337110Y218350D01*
X337196Y218442D01*
X337277Y218518D01*
X338119Y218778D01*
X338181Y218804D01*
X338402Y218889D01*
X339201Y219274D01*
X339253Y219265D01*
X339378Y219270D01*
X339503Y219265D01*
X339579Y219277D01*
X339655Y219280D01*
X339815Y219315D01*
X339901Y219329D01*
X339935Y219341D01*
X339979Y219351D01*
X340806Y219606D01*
X340876Y219636D01*
X340950Y219657D01*
X341061Y219714D01*
X341177Y219762D01*
X341240Y219805D01*
X341308Y219840D01*
X341406Y219918D01*
X341498Y219981D01*
X342369Y220112D01*
X342435Y220129D01*
X342665Y220180D01*
X343514Y220441D01*
X343563Y220425D01*
X343688Y220411D01*
X343811Y220388D01*
X343887Y220389D01*
X343963Y220380D01*
X344126Y220391D01*
X344213Y220392D01*
X344248Y220399D01*
X344294Y220402D01*
X345149Y220531D01*
X345223Y220550D01*
X345299Y220560D01*
X345418Y220600D01*
X345539Y220631D01*
X345608Y220664D01*
X345681Y220688D01*
X345790Y220751D01*
X345902Y220805D01*
X345963Y220851D01*
X346030Y220889D01*
X346034Y220893D01*
X346057Y220900D01*
X346242Y220957D01*
X346250Y220961D01*
X346259Y220964D01*
X346427Y221057D01*
X346596Y221149D01*
X346603Y221154D01*
X346611Y221159D01*
X346759Y221284D01*
X346906Y221406D01*
X346911Y221413D01*
X346918Y221419D01*
X347038Y221571D01*
X347158Y221720D01*
X347162Y221728D01*
X347168Y221735D01*
X347255Y221908D01*
X347344Y222077D01*
X347346Y222086D01*
X347350Y222094D01*
X347402Y222279D01*
X347455Y222464D01*
X347456Y222473D01*
X347458Y222482D01*
X347472Y222674D01*
X347488Y222866D01*
X347487Y222874D01*
X347487Y222883D01*
X347463Y223074D01*
X347441Y223265D01*
X347438Y223274D01*
X347437Y223283D01*
X347376Y223464D01*
X347316Y223648D01*
X347312Y223656D01*
X347309Y223664D01*
X347213Y223832D01*
X347118Y223999D01*
X347112Y224006D01*
X347108Y224013D01*
X346893Y224266D01*
X346223Y224936D01*
X345299Y227167D01*
X345299Y229581D01*
X346223Y231812D01*
X347930Y233519D01*
X350161Y234443D01*
X352575Y234443D01*
X353974Y233863D01*
X354004Y233854D01*
X354032Y233840D01*
X354196Y233796D01*
X354359Y233747D01*
X354390Y233744D01*
X354420Y233736D01*
X354751Y233709D01*
X368163Y233709D01*
X370124Y232897D01*
X371911Y231110D01*
X383532Y219489D01*
X383556Y219469D01*
X383576Y219446D01*
X383711Y219342D01*
X383843Y219234D01*
X383871Y219219D01*
X383896Y219200D01*
X384191Y219049D01*
X385589Y218469D01*
X387297Y216762D01*
X388220Y214532D01*
X388220Y212117D01*
X387297Y209887D01*
X385394Y207985D01*
X385383Y207971D01*
X385369Y207959D01*
X385255Y207815D01*
X385139Y207673D01*
X385131Y207657D01*
X385120Y207643D01*
X385036Y207479D01*
X384951Y207317D01*
X384945Y207300D01*
X384937Y207284D01*
X384888Y207108D01*
X384836Y206931D01*
X384834Y206914D01*
X384829Y206896D01*
X384816Y206712D01*
X384799Y206530D01*
X384801Y206513D01*
X384800Y206495D01*
X384823Y206313D01*
X384843Y206130D01*
X384848Y206113D01*
X384850Y206095D01*
X384909Y205922D01*
X384964Y205746D01*
X384973Y205731D01*
X384979Y205714D01*
X385070Y205555D01*
X385159Y205394D01*
X385171Y205380D01*
X385180Y205365D01*
X385394Y205112D01*
X386588Y203918D01*
X387512Y201688D01*
X387512Y199273D01*
X387175Y198461D01*
X387171Y198448D01*
X387165Y198436D01*
X387113Y198256D01*
X387059Y198075D01*
X387058Y198062D01*
X387054Y198049D01*
X387038Y197861D01*
X387021Y197675D01*
X387022Y197661D01*
X387021Y197648D01*
X387043Y197461D01*
X387062Y197274D01*
X387066Y197261D01*
X387068Y197248D01*
X387126Y197070D01*
X387182Y196890D01*
X387189Y196878D01*
X387193Y196865D01*
X387285Y196702D01*
X387375Y196537D01*
X387384Y196526D01*
X387391Y196515D01*
X387513Y196372D01*
X387634Y196228D01*
X387645Y196220D01*
X387654Y196210D01*
X387802Y196095D01*
X387949Y195978D01*
X387961Y195971D01*
X387972Y195963D01*
X388140Y195880D01*
X388307Y195794D01*
X388320Y195790D01*
X388332Y195784D01*
X388514Y195735D01*
X388695Y195684D01*
X388708Y195683D01*
X388721Y195679D01*
X389052Y195652D01*
X416850Y195652D01*
X416508Y194257D01*
X416506Y194223D01*
X416495Y194177D01*
X416252Y191127D01*
X416256Y191099D01*
X416251Y191071D01*
X416268Y191001D01*
X416276Y190930D01*
X416291Y190905D01*
X416297Y190878D01*
X416340Y190820D01*
X416376Y190757D01*
X416398Y190740D01*
X416415Y190717D01*
X416477Y190681D01*
X416534Y190637D01*
X416562Y190630D01*
X416586Y190616D01*
X416686Y190599D01*
X416727Y190589D01*
X416737Y190590D01*
X416750Y190588D01*
X435750Y190588D01*
X435826Y190604D01*
X435904Y190612D01*
X435923Y190623D01*
X435945Y190628D01*
X436009Y190672D01*
X436077Y190710D01*
X436093Y190729D01*
X436109Y190740D01*
X436133Y190778D01*
X436183Y190838D01*
X445683Y207338D01*
X445692Y207366D01*
X445708Y207389D01*
X445723Y207459D01*
X445746Y207527D01*
X445743Y207556D01*
X445749Y207584D01*
X445736Y207654D01*
X445730Y207725D01*
X445717Y207751D01*
X445711Y207779D01*
X445671Y207838D01*
X445638Y207902D01*
X445616Y207920D01*
X445600Y207944D01*
X445517Y208001D01*
X445485Y208028D01*
X445474Y208031D01*
X445464Y208039D01*
X442698Y209347D01*
X442665Y209355D01*
X442622Y209376D01*
X441264Y209767D01*
X459545Y241432D01*
X459608Y241571D01*
X459677Y241708D01*
X459691Y241755D01*
X459711Y241799D01*
X459745Y241948D01*
X459786Y242095D01*
X459790Y242144D01*
X459801Y242192D01*
X459805Y242344D01*
X459816Y242497D01*
X459811Y242552D01*
X459812Y242594D01*
X459797Y242679D01*
X459781Y242827D01*
X459770Y242885D01*
X459749Y242958D01*
X459748Y242960D01*
X459736Y243033D01*
X459692Y243151D01*
X459656Y243271D01*
X459621Y243338D01*
X459594Y243410D01*
X459527Y243516D01*
X459469Y243627D01*
X459421Y243686D01*
X459380Y243751D01*
X459269Y243872D01*
X459214Y243939D01*
X459187Y243962D01*
X459156Y243995D01*
X458520Y244585D01*
X458459Y244631D01*
X458404Y244685D01*
X458299Y244752D01*
X458199Y244828D01*
X458130Y244861D01*
X458066Y244903D01*
X457950Y244949D01*
X457849Y244997D01*
X457497Y245438D01*
X457466Y245470D01*
X457440Y245507D01*
X457326Y245614D01*
X457216Y245726D01*
X457179Y245752D01*
X457146Y245783D01*
X457013Y245865D01*
X456884Y245954D01*
X456842Y245971D01*
X456804Y245995D01*
X456657Y246050D01*
X456513Y246111D01*
X456469Y246120D01*
X456427Y246136D01*
X456272Y246160D01*
X456119Y246192D01*
X456074Y246192D01*
X456029Y246199D01*
X455873Y246193D01*
X455716Y246193D01*
X455672Y246185D01*
X455627Y246183D01*
X455475Y246146D01*
X455321Y246115D01*
X455279Y246098D01*
X455236Y246087D01*
X455094Y246021D01*
X454949Y245961D01*
X454912Y245936D01*
X454871Y245917D01*
X454745Y245824D01*
X454615Y245737D01*
X454583Y245704D01*
X454547Y245678D01*
X454370Y245489D01*
X454332Y245450D01*
X454327Y245443D01*
X454320Y245436D01*
X453527Y244439D01*
X453452Y244414D01*
X453375Y244370D01*
X453294Y244335D01*
X453281Y244325D01*
X451930Y244325D01*
X451845Y244317D01*
X451700Y244312D01*
X450348Y244158D01*
X450277Y244194D01*
X450192Y244217D01*
X450110Y244249D01*
X449998Y244269D01*
X449889Y244298D01*
X449784Y244307D01*
X449713Y244319D01*
X449648Y244318D01*
X449603Y244322D01*
X449498Y244353D01*
X449471Y244355D01*
X449445Y244362D01*
X449115Y244389D01*
X447473Y244389D01*
X445242Y245313D01*
X443535Y247021D01*
X442611Y249251D01*
X442611Y251665D01*
X443535Y253896D01*
X445242Y255603D01*
X447473Y256527D01*
X448174Y256527D01*
X448179Y256527D01*
X448183Y256527D01*
X448378Y256547D01*
X448575Y256567D01*
X448579Y256568D01*
X448583Y256568D01*
X448772Y256627D01*
X448960Y256685D01*
X448964Y256687D01*
X448967Y256688D01*
X449143Y256784D01*
X449314Y256877D01*
X449317Y256879D01*
X449321Y256881D01*
X449474Y257010D01*
X449623Y257134D01*
X449626Y257138D01*
X449629Y257140D01*
X449751Y257293D01*
X449876Y257448D01*
X449878Y257452D01*
X449880Y257455D01*
X449926Y257540D01*
X449936Y257554D01*
X449953Y257590D01*
X450037Y257747D01*
X450050Y257778D01*
X450056Y257795D01*
X450061Y257806D01*
X450075Y257853D01*
X450105Y257919D01*
X450135Y258041D01*
X450173Y258161D01*
X450182Y258236D01*
X450200Y258310D01*
X450205Y258436D01*
X450219Y258561D01*
X450212Y258637D01*
X450215Y258713D01*
X450192Y258875D01*
X450184Y258962D01*
X450174Y258996D01*
X450168Y259041D01*
X449975Y259886D01*
X449950Y259959D01*
X449935Y260034D01*
X449886Y260149D01*
X449847Y260268D01*
X449808Y260334D01*
X449778Y260405D01*
X449708Y260508D01*
X449652Y260605D01*
X449586Y261483D01*
X449575Y261550D01*
X449541Y261784D01*
X449343Y262649D01*
X449363Y262697D01*
X449386Y262820D01*
X449419Y262941D01*
X449424Y263017D01*
X449438Y263093D01*
X449439Y263256D01*
X449445Y263343D01*
X449440Y263378D01*
X449440Y263424D01*
X449375Y264289D01*
X449362Y264364D01*
X449358Y264441D01*
X449327Y264562D01*
X449305Y264685D01*
X449277Y264757D01*
X449258Y264831D01*
X449204Y264943D01*
X449164Y265047D01*
X449229Y265926D01*
X449227Y265993D01*
X449229Y266230D01*
X449162Y267115D01*
X449189Y267159D01*
X449231Y267278D01*
X449281Y267392D01*
X449297Y267467D01*
X449322Y267539D01*
X449348Y267700D01*
X449366Y267786D01*
X449367Y267822D01*
X449374Y267867D01*
X449438Y268732D01*
X449437Y268808D01*
X449444Y268884D01*
X449432Y269009D01*
X449428Y269134D01*
X449412Y269209D01*
X449404Y269285D01*
X449367Y269405D01*
X449342Y269513D01*
X449538Y270372D01*
X449543Y270410D01*
X449552Y270443D01*
X449558Y270511D01*
X449583Y270673D01*
X449649Y271558D01*
X449682Y271598D01*
X449741Y271709D01*
X449808Y271815D01*
X449835Y271886D01*
X449871Y271954D01*
X449920Y272110D01*
X449951Y272191D01*
X449957Y272226D01*
X449971Y272270D01*
X450163Y273115D01*
X450173Y273191D01*
X450192Y273266D01*
X450198Y273391D01*
X450213Y273515D01*
X450208Y273591D01*
X450212Y273668D01*
X450193Y273792D01*
X450185Y273903D01*
X450506Y274723D01*
X450525Y274788D01*
X450596Y275013D01*
X450793Y275878D01*
X450832Y275914D01*
X450906Y276014D01*
X450988Y276109D01*
X451026Y276176D01*
X451071Y276237D01*
X451143Y276384D01*
X451186Y276460D01*
X451197Y276494D01*
X451217Y276535D01*
X451533Y277342D01*
X451554Y277416D01*
X451584Y277487D01*
X451609Y277609D01*
X451643Y277730D01*
X451648Y277806D01*
X451663Y277881D01*
X451664Y278007D01*
X451672Y278118D01*
X452112Y278881D01*
X452140Y278942D01*
X452244Y279154D01*
X452568Y279981D01*
X452611Y280009D01*
X452700Y280098D01*
X452795Y280180D01*
X452842Y280240D01*
X452896Y280294D01*
X452989Y280428D01*
X453043Y280497D01*
X453059Y280529D01*
X453085Y280567D01*
X453518Y281318D01*
X453550Y281387D01*
X453590Y281453D01*
X453632Y281571D01*
X453684Y281685D01*
X453701Y281759D01*
X453727Y281831D01*
X453746Y281955D01*
X453771Y282064D01*
X454320Y282753D01*
X454356Y282809D01*
X454491Y283004D01*
X454934Y283772D01*
X454982Y283794D01*
X455083Y283869D01*
X455189Y283935D01*
X455244Y283988D01*
X455306Y284033D01*
X455418Y284152D01*
X455481Y284212D01*
X455502Y284242D01*
X455533Y284275D01*
X456073Y284953D01*
X456115Y285017D01*
X456164Y285076D01*
X456224Y285186D01*
X456292Y285291D01*
X456320Y285362D01*
X456356Y285430D01*
X456393Y285549D01*
X456434Y285653D01*
X457080Y286253D01*
X457125Y286303D01*
X457286Y286475D01*
X457839Y287169D01*
X457889Y287184D01*
X458000Y287242D01*
X458115Y287292D01*
X458178Y287336D01*
X458246Y287372D01*
X458374Y287473D01*
X458445Y287523D01*
X458470Y287548D01*
X458506Y287577D01*
X459142Y288167D01*
X459192Y288224D01*
X459250Y288275D01*
X459325Y288375D01*
X459408Y288469D01*
X459446Y288535D01*
X459493Y288596D01*
X459547Y288709D01*
X459603Y288805D01*
X460331Y289302D01*
X460383Y289345D01*
X460568Y289491D01*
X461218Y290095D01*
X461270Y290102D01*
X461389Y290143D01*
X461509Y290176D01*
X461578Y290210D01*
X461650Y290235D01*
X461792Y290316D01*
X461870Y290354D01*
X461899Y290376D01*
X461939Y290399D01*
X462655Y290887D01*
X462714Y290937D01*
X462778Y290978D01*
X462867Y291066D01*
X462963Y291146D01*
X463011Y291206D01*
X463066Y291259D01*
X463137Y291363D01*
X463206Y291450D01*
X464000Y291832D01*
X464057Y291868D01*
X464263Y291984D01*
X464996Y292484D01*
X465048Y292484D01*
X465171Y292507D01*
X465296Y292521D01*
X465368Y292544D01*
X465444Y292558D01*
X465596Y292617D01*
X465679Y292644D01*
X465710Y292661D01*
X465753Y292678D01*
X466534Y293054D01*
X466599Y293094D01*
X466669Y293125D01*
X466771Y293199D01*
X466878Y293264D01*
X466934Y293316D01*
X466996Y293360D01*
X467081Y293452D01*
X467163Y293528D01*
X468005Y293788D01*
X468067Y293814D01*
X468288Y293899D01*
X469087Y294284D01*
X469138Y294276D01*
X469264Y294280D01*
X469389Y294276D01*
X469464Y294288D01*
X469541Y294291D01*
X469700Y294326D01*
X469786Y294340D01*
X469820Y294352D01*
X469865Y294362D01*
X470693Y294618D01*
X470764Y294648D01*
X470837Y294669D01*
X470949Y294726D01*
X471064Y294774D01*
X471127Y294817D01*
X471196Y294852D01*
X471293Y294930D01*
X471386Y294993D01*
X472257Y295125D01*
X472322Y295141D01*
X472553Y295192D01*
X473401Y295454D01*
X473451Y295438D01*
X473575Y295424D01*
X473698Y295401D01*
X473774Y295402D01*
X473851Y295393D01*
X474013Y295404D01*
X474100Y295405D01*
X474136Y295412D01*
X474182Y295415D01*
X475039Y295545D01*
X475113Y295564D01*
X475189Y295573D01*
X475307Y295613D01*
X475429Y295644D01*
X475498Y295677D01*
X475570Y295702D01*
X475679Y295764D01*
X475779Y295813D01*
X476661Y295813D01*
X476727Y295820D01*
X476963Y295836D01*
X477841Y295968D01*
X477887Y295945D01*
X478008Y295913D01*
X478127Y295871D01*
X478202Y295860D01*
X478276Y295841D01*
X478439Y295827D01*
X478525Y295815D01*
X478561Y295817D01*
X478607Y295814D01*
X479474Y295814D01*
X479550Y295821D01*
X479627Y295820D01*
X479750Y295841D01*
X479874Y295854D01*
X479948Y295876D01*
X480023Y295890D01*
X480140Y295935D01*
X480246Y295968D01*
X481118Y295837D01*
X481185Y295834D01*
X481420Y295814D01*
X482308Y295815D01*
X482350Y295785D01*
X482465Y295735D01*
X482576Y295676D01*
X482649Y295654D01*
X482719Y295624D01*
X482878Y295586D01*
X482962Y295561D01*
X482998Y295558D01*
X483042Y295548D01*
X483900Y295419D01*
X483976Y295415D01*
X484051Y295402D01*
X484177Y295405D01*
X484302Y295398D01*
X484377Y295410D01*
X484454Y295412D01*
X484576Y295440D01*
X484686Y295456D01*
X485528Y295197D01*
X485594Y295183D01*
X485824Y295129D01*
X486702Y294997D01*
X486740Y294961D01*
X486846Y294895D01*
X486946Y294820D01*
X487016Y294787D01*
X487081Y294747D01*
X487232Y294686D01*
X487311Y294649D01*
X487346Y294641D01*
X487389Y294623D01*
X488217Y294368D01*
X488292Y294353D01*
X488364Y294329D01*
X488489Y294313D01*
X488612Y294288D01*
X488688Y294288D01*
X488764Y294279D01*
X488889Y294288D01*
X489014Y294288D01*
X489089Y294303D01*
X489165Y294309D01*
X489324Y294350D01*
X489409Y294367D01*
X489442Y294381D01*
X489486Y294392D01*
X489570Y294421D01*
X489708Y294486D01*
X489849Y294543D01*
X489890Y294571D01*
X489935Y294592D01*
X490057Y294681D01*
X490184Y294766D01*
X490219Y294801D01*
X490259Y294830D01*
X490361Y294942D01*
X490469Y295050D01*
X490501Y295096D01*
X490530Y295128D01*
X490574Y295202D01*
X490658Y295323D01*
X508932Y326976D01*
X509981Y325969D01*
X510009Y325951D01*
X510043Y325918D01*
X512566Y324177D01*
X512593Y324165D01*
X512615Y324147D01*
X512684Y324127D01*
X512749Y324099D01*
X512778Y324098D01*
X512806Y324090D01*
X512877Y324098D01*
X512948Y324098D01*
X512975Y324109D01*
X513004Y324112D01*
X513066Y324148D01*
X513131Y324175D01*
X513152Y324196D01*
X513177Y324210D01*
X513240Y324287D01*
X513270Y324318D01*
X513274Y324328D01*
X513283Y324338D01*
X522783Y340838D01*
X522793Y340870D01*
X522802Y340883D01*
X522806Y340908D01*
X522807Y340911D01*
X522838Y340982D01*
X522838Y341005D01*
X522846Y341027D01*
X522840Y341104D01*
X522841Y341181D01*
X522831Y341205D01*
X522830Y341225D01*
X522809Y341265D01*
X522783Y341337D01*
X513283Y357837D01*
X513264Y357858D01*
X513251Y357885D01*
X513198Y357932D01*
X513151Y357986D01*
X513125Y357998D01*
X513104Y358018D01*
X513036Y358041D01*
X512972Y358072D01*
X512943Y358073D01*
X512916Y358082D01*
X512844Y358078D01*
X512773Y358081D01*
X512746Y358071D01*
X512717Y358069D01*
X512627Y358026D01*
X512587Y358012D01*
X512579Y358004D01*
X512566Y357998D01*
X510043Y356257D01*
X510019Y356232D01*
X509981Y356206D01*
X507769Y354082D01*
X507750Y354054D01*
X507716Y354022D01*
X505874Y351570D01*
X505860Y351540D01*
X505831Y351502D01*
X504406Y348787D01*
X504397Y348756D01*
X504381Y348731D01*
X504380Y348723D01*
X504375Y348714D01*
X504191Y348164D01*
X454672Y297306D01*
X441618Y297306D01*
X441600Y297304D01*
X441582Y297306D01*
X441400Y297285D01*
X441217Y297266D01*
X441200Y297261D01*
X441183Y297259D01*
X441008Y297202D01*
X440832Y297148D01*
X440817Y297140D01*
X440800Y297134D01*
X440640Y297044D01*
X440478Y296956D01*
X440465Y296945D01*
X440449Y296936D01*
X440310Y296816D01*
X440169Y296699D01*
X440158Y296685D01*
X440144Y296673D01*
X440032Y296528D01*
X439917Y296385D01*
X439909Y296369D01*
X439898Y296355D01*
X439816Y296190D01*
X439731Y296028D01*
X439726Y296011D01*
X439718Y295995D01*
X439671Y295816D01*
X439620Y295641D01*
X439618Y295623D01*
X439614Y295606D01*
X439587Y295275D01*
X439587Y294653D01*
X438470Y293536D01*
X438459Y293523D01*
X438445Y293511D01*
X438331Y293367D01*
X438215Y293225D01*
X438207Y293209D01*
X438196Y293195D01*
X438112Y293031D01*
X438027Y292869D01*
X438021Y292852D01*
X438013Y292836D01*
X437964Y292659D01*
X437912Y292483D01*
X437910Y292465D01*
X437905Y292448D01*
X437892Y292265D01*
X437875Y292082D01*
X437877Y292064D01*
X437876Y292047D01*
X437899Y291865D01*
X437919Y291682D01*
X437924Y291665D01*
X437926Y291647D01*
X437985Y291473D01*
X438040Y291298D01*
X438049Y291282D01*
X438055Y291266D01*
X438146Y291107D01*
X438235Y290946D01*
X438247Y290932D01*
X438256Y290917D01*
X438470Y290664D01*
X439587Y289547D01*
X439587Y277653D01*
X438247Y276313D01*
X438150Y276313D01*
X438132Y276311D01*
X438114Y276313D01*
X437932Y276292D01*
X437749Y276273D01*
X437732Y276268D01*
X437715Y276266D01*
X437540Y276209D01*
X437364Y276155D01*
X437349Y276147D01*
X437332Y276141D01*
X437172Y276051D01*
X437010Y275963D01*
X436997Y275952D01*
X436981Y275943D01*
X436842Y275823D01*
X436701Y275706D01*
X436690Y275692D01*
X436676Y275680D01*
X436564Y275535D01*
X436449Y275392D01*
X436441Y275376D01*
X436430Y275362D01*
X436348Y275197D01*
X436263Y275035D01*
X436258Y275018D01*
X436250Y275002D01*
X436203Y274823D01*
X436152Y274648D01*
X436150Y274630D01*
X436146Y274613D01*
X436119Y274282D01*
X436119Y263705D01*
X436121Y263678D01*
X436119Y263651D01*
X436141Y263477D01*
X436159Y263304D01*
X436166Y263278D01*
X436170Y263252D01*
X436225Y263086D01*
X436277Y262919D01*
X436290Y262895D01*
X436298Y262870D01*
X436385Y262718D01*
X436469Y262565D01*
X436486Y262545D01*
X436499Y262521D01*
X436578Y262428D01*
X437324Y260627D01*
X437324Y253723D01*
X436595Y251964D01*
X435249Y250617D01*
X434575Y250338D01*
X433217Y249776D01*
X433070Y249730D01*
X433054Y249722D01*
X433037Y249716D01*
X432877Y249626D01*
X432716Y249539D01*
X432702Y249527D01*
X432687Y249518D01*
X432547Y249398D01*
X432407Y249281D01*
X432395Y249267D01*
X432382Y249255D01*
X432269Y249110D01*
X432154Y248967D01*
X432146Y248951D01*
X432135Y248937D01*
X432053Y248772D01*
X431969Y248610D01*
X431964Y248593D01*
X431956Y248577D01*
X431908Y248398D01*
X431857Y248223D01*
X431856Y248205D01*
X431851Y248188D01*
X431824Y247857D01*
X431824Y239415D01*
X430485Y238076D01*
X423590Y238076D01*
X422251Y239415D01*
X422251Y247857D01*
X422249Y247875D01*
X422250Y247893D01*
X422229Y248075D01*
X422211Y248258D01*
X422206Y248275D01*
X422204Y248292D01*
X422147Y248467D01*
X422093Y248643D01*
X422084Y248658D01*
X422079Y248675D01*
X421988Y248835D01*
X421901Y248997D01*
X421890Y249010D01*
X421881Y249026D01*
X421761Y249165D01*
X421643Y249306D01*
X421629Y249317D01*
X421618Y249331D01*
X421473Y249443D01*
X421329Y249558D01*
X421314Y249566D01*
X421300Y249577D01*
X421135Y249659D01*
X420972Y249744D01*
X420955Y249749D01*
X420939Y249757D01*
X420837Y249784D01*
X418771Y250640D01*
X418637Y250749D01*
X418621Y250758D01*
X418607Y250769D01*
X418443Y250852D01*
X418282Y250938D01*
X418264Y250943D01*
X418248Y250951D01*
X418071Y251001D01*
X417896Y251053D01*
X417878Y251054D01*
X417861Y251059D01*
X417678Y251072D01*
X417495Y251089D01*
X417477Y251087D01*
X417459Y251088D01*
X417278Y251066D01*
X417094Y251046D01*
X417077Y251040D01*
X417060Y251038D01*
X416886Y250980D01*
X416711Y250924D01*
X416695Y250916D01*
X416678Y250910D01*
X416519Y250818D01*
X416358Y250729D01*
X416345Y250718D01*
X416329Y250709D01*
X416242Y250635D01*
X415525Y250338D01*
X414167Y249776D01*
X414020Y249730D01*
X414004Y249722D01*
X413987Y249716D01*
X413827Y249626D01*
X413666Y249539D01*
X413652Y249527D01*
X413637Y249518D01*
X413497Y249398D01*
X413357Y249281D01*
X413345Y249267D01*
X413332Y249255D01*
X413219Y249110D01*
X413104Y248967D01*
X413096Y248951D01*
X413085Y248937D01*
X413003Y248772D01*
X412919Y248610D01*
X412914Y248593D01*
X412906Y248577D01*
X412858Y248398D01*
X412807Y248223D01*
X412806Y248205D01*
X412801Y248188D01*
X412774Y247857D01*
X412774Y239415D01*
X411435Y238076D01*
X404540Y238076D01*
X403201Y239415D01*
X403201Y247857D01*
X403199Y247875D01*
X403200Y247893D01*
X403179Y248075D01*
X403161Y248258D01*
X403156Y248275D01*
X403154Y248292D01*
X403097Y248467D01*
X403043Y248643D01*
X403034Y248658D01*
X403029Y248675D01*
X402938Y248835D01*
X402851Y248997D01*
X402840Y249010D01*
X402831Y249026D01*
X402711Y249165D01*
X402593Y249306D01*
X402579Y249317D01*
X402568Y249331D01*
X402423Y249443D01*
X402279Y249558D01*
X402264Y249566D01*
X402250Y249577D01*
X402085Y249659D01*
X401922Y249744D01*
X401905Y249749D01*
X401889Y249757D01*
X401787Y249784D01*
X399776Y250617D01*
X398430Y251964D01*
X397701Y253723D01*
X397701Y260627D01*
X398458Y262455D01*
X398462Y262468D01*
X398468Y262479D01*
X398520Y262659D01*
X398574Y262840D01*
X398576Y262853D01*
X398579Y262866D01*
X398595Y263054D01*
X398612Y263241D01*
X398611Y263254D01*
X398612Y263268D01*
X398590Y263454D01*
X398571Y263641D01*
X398567Y263654D01*
X398565Y263667D01*
X398507Y263846D01*
X398451Y264026D01*
X398445Y264037D01*
X398440Y264050D01*
X398348Y264214D01*
X398258Y264379D01*
X398249Y264389D01*
X398242Y264401D01*
X398120Y264543D01*
X397999Y264687D01*
X397988Y264695D01*
X397979Y264706D01*
X397831Y264820D01*
X397684Y264938D01*
X397672Y264944D01*
X397661Y264952D01*
X397493Y265036D01*
X397326Y265122D01*
X397313Y265126D01*
X397301Y265132D01*
X397118Y265181D01*
X396938Y265232D01*
X396925Y265233D01*
X396912Y265236D01*
X396581Y265263D01*
X385140Y265263D01*
X383801Y266603D01*
X383801Y277270D01*
X383798Y277296D01*
X383800Y277323D01*
X383778Y277497D01*
X383761Y277671D01*
X383753Y277696D01*
X383750Y277723D01*
X383694Y277888D01*
X383643Y278055D01*
X383630Y278079D01*
X383621Y278104D01*
X383534Y278256D01*
X383451Y278409D01*
X383434Y278430D01*
X383421Y278453D01*
X383206Y278706D01*
X382775Y279137D01*
X381851Y281368D01*
X381851Y283782D01*
X382775Y286013D01*
X384482Y287720D01*
X386712Y288644D01*
X389127Y288644D01*
X391357Y287720D01*
X393064Y286013D01*
X393988Y283782D01*
X393988Y282868D01*
X393990Y282850D01*
X393989Y282832D01*
X394010Y282650D01*
X394028Y282467D01*
X394033Y282450D01*
X394035Y282433D01*
X394092Y282258D01*
X394146Y282082D01*
X394155Y282067D01*
X394160Y282050D01*
X394251Y281890D01*
X394338Y281728D01*
X394349Y281715D01*
X394358Y281699D01*
X394478Y281560D01*
X394596Y281419D01*
X394610Y281408D01*
X394621Y281394D01*
X394766Y281282D01*
X394910Y281167D01*
X394925Y281159D01*
X394939Y281148D01*
X395104Y281066D01*
X395267Y280981D01*
X395284Y280976D01*
X395300Y280968D01*
X395478Y280921D01*
X395654Y280870D01*
X395672Y280868D01*
X395689Y280864D01*
X396019Y280837D01*
X396582Y280837D01*
X396600Y280839D01*
X396618Y280837D01*
X396800Y280858D01*
X396983Y280877D01*
X397000Y280882D01*
X397017Y280884D01*
X397192Y280941D01*
X397368Y280995D01*
X397383Y281003D01*
X397400Y281009D01*
X397560Y281099D01*
X397722Y281187D01*
X397735Y281198D01*
X397751Y281207D01*
X397890Y281327D01*
X398031Y281444D01*
X398042Y281458D01*
X398056Y281470D01*
X398168Y281615D01*
X398283Y281758D01*
X398291Y281774D01*
X398302Y281788D01*
X398384Y281953D01*
X398469Y282115D01*
X398474Y282132D01*
X398482Y282148D01*
X398529Y282327D01*
X398580Y282502D01*
X398582Y282520D01*
X398586Y282537D01*
X398613Y282868D01*
X398613Y289547D01*
X399730Y290664D01*
X399741Y290678D01*
X399755Y290689D01*
X399869Y290833D01*
X399985Y290975D01*
X399993Y290991D01*
X400004Y291005D01*
X400088Y291169D01*
X400173Y291331D01*
X400179Y291348D01*
X400187Y291364D01*
X400236Y291541D01*
X400288Y291717D01*
X400290Y291735D01*
X400295Y291752D01*
X400308Y291935D01*
X400325Y292118D01*
X400323Y292136D01*
X400324Y292153D01*
X400301Y292334D01*
X400281Y292518D01*
X400276Y292535D01*
X400274Y292553D01*
X400215Y292727D01*
X400160Y292902D01*
X400151Y292918D01*
X400145Y292934D01*
X400054Y293093D01*
X399965Y293254D01*
X399953Y293268D01*
X399944Y293283D01*
X399730Y293536D01*
X398613Y294653D01*
X398613Y295275D01*
X398611Y295293D01*
X398613Y295311D01*
X398592Y295493D01*
X398573Y295676D01*
X398568Y295693D01*
X398566Y295710D01*
X398509Y295885D01*
X398455Y296061D01*
X398447Y296076D01*
X398441Y296093D01*
X398351Y296253D01*
X398263Y296415D01*
X398252Y296428D01*
X398243Y296444D01*
X398123Y296583D01*
X398006Y296724D01*
X397992Y296735D01*
X397980Y296749D01*
X397835Y296861D01*
X397692Y296976D01*
X397676Y296984D01*
X397662Y296995D01*
X397497Y297077D01*
X397335Y297162D01*
X397318Y297167D01*
X397302Y297175D01*
X397123Y297222D01*
X396948Y297273D01*
X396930Y297275D01*
X396913Y297279D01*
X396582Y297306D01*
X384344Y297306D01*
X384317Y297304D01*
X384291Y297306D01*
X384117Y297284D01*
X383943Y297266D01*
X383918Y297259D01*
X383891Y297255D01*
X383725Y297199D01*
X383559Y297148D01*
X383535Y297135D01*
X383510Y297127D01*
X383358Y297040D01*
X383204Y296956D01*
X383184Y296939D01*
X383161Y296926D01*
X382908Y296711D01*
X381097Y294901D01*
X371119Y294901D01*
X371102Y294899D01*
X371084Y294900D01*
X370902Y294879D01*
X370719Y294861D01*
X370702Y294856D01*
X370684Y294854D01*
X370510Y294797D01*
X370334Y294743D01*
X370318Y294734D01*
X370301Y294729D01*
X370141Y294638D01*
X369980Y294551D01*
X369966Y294540D01*
X369951Y294531D01*
X369811Y294411D01*
X369671Y294293D01*
X369659Y294279D01*
X369646Y294268D01*
X369533Y294123D01*
X369418Y293979D01*
X369410Y293964D01*
X369399Y293950D01*
X369317Y293785D01*
X369233Y293622D01*
X369228Y293605D01*
X369220Y293589D01*
X369172Y293411D01*
X369121Y293235D01*
X369120Y293217D01*
X369115Y293200D01*
X369088Y292870D01*
X369088Y271624D01*
X366261Y268797D01*
X363248Y265784D01*
X363234Y265767D01*
X363217Y265752D01*
X363106Y265611D01*
X362993Y265472D01*
X362982Y265453D01*
X362969Y265435D01*
X362888Y265275D01*
X362804Y265117D01*
X362798Y265095D01*
X362788Y265075D01*
X362741Y264903D01*
X362690Y264731D01*
X362688Y264708D01*
X362682Y264687D01*
X362669Y264508D01*
X362653Y264330D01*
X362656Y264307D01*
X362654Y264285D01*
X362677Y264107D01*
X362697Y263930D01*
X362703Y263908D01*
X362706Y263886D01*
X362712Y263869D01*
X362712Y256898D01*
X361983Y255139D01*
X360636Y253792D01*
X358877Y253063D01*
X354544Y253063D01*
X354517Y253061D01*
X354491Y253063D01*
X354317Y253041D01*
X354143Y253023D01*
X354118Y253016D01*
X354091Y253012D01*
X353925Y252957D01*
X353758Y252905D01*
X353735Y252892D01*
X353709Y252884D01*
X353558Y252797D01*
X353404Y252714D01*
X353384Y252696D01*
X353361Y252683D01*
X353108Y252468D01*
X349241Y248602D01*
X333843Y248602D01*
X333825Y248600D01*
X333807Y248601D01*
X333625Y248580D01*
X333442Y248562D01*
X333425Y248557D01*
X333408Y248555D01*
X333233Y248498D01*
X333057Y248444D01*
X333042Y248435D01*
X333025Y248430D01*
X332865Y248339D01*
X332703Y248252D01*
X332690Y248241D01*
X332674Y248232D01*
X332535Y248112D01*
X332394Y247994D01*
X332383Y247980D01*
X332369Y247969D01*
X332257Y247824D01*
X332142Y247680D01*
X332134Y247665D01*
X332123Y247651D01*
X332041Y247486D01*
X331956Y247323D01*
X331951Y247306D01*
X331943Y247290D01*
X331896Y247112D01*
X331845Y246936D01*
X331843Y246918D01*
X331839Y246901D01*
X331812Y246571D01*
X331812Y244178D01*
X330472Y242838D01*
X323578Y242838D01*
X322238Y244178D01*
X322238Y246858D01*
X322237Y246867D01*
X322238Y246876D01*
X322218Y247066D01*
X322198Y247258D01*
X322196Y247267D01*
X322195Y247276D01*
X322137Y247459D01*
X322080Y247643D01*
X322076Y247651D01*
X322073Y247660D01*
X321980Y247828D01*
X321888Y247997D01*
X321883Y248004D01*
X321878Y248012D01*
X321754Y248159D01*
X321631Y248307D01*
X321624Y248312D01*
X321618Y248319D01*
X321466Y248439D01*
X321317Y248559D01*
X321309Y248563D01*
X321302Y248569D01*
X321129Y248656D01*
X320960Y248744D01*
X320951Y248747D01*
X320943Y248751D01*
X320757Y248803D01*
X320573Y248856D01*
X320564Y248857D01*
X320555Y248859D01*
X320364Y248873D01*
X320171Y248889D01*
X320162Y248888D01*
X320153Y248888D01*
X319963Y248864D01*
X319772Y248842D01*
X319763Y248839D01*
X319754Y248838D01*
X319571Y248776D01*
X319389Y248717D01*
X319381Y248712D01*
X319372Y248710D01*
X319205Y248613D01*
X319038Y248519D01*
X319031Y248513D01*
X319024Y248509D01*
X318771Y248294D01*
X318618Y248141D01*
X316532Y246055D01*
X316515Y246034D01*
X316494Y246017D01*
X316387Y245879D01*
X316277Y245744D01*
X316264Y245720D01*
X316248Y245699D01*
X316170Y245542D01*
X316088Y245388D01*
X316080Y245362D01*
X316068Y245338D01*
X316023Y245169D01*
X315973Y245002D01*
X315971Y244975D01*
X315964Y244949D01*
X315937Y244619D01*
X315937Y244178D01*
X314597Y242838D01*
X307703Y242838D01*
X306363Y244178D01*
X306363Y252620D01*
X306361Y252637D01*
X306363Y252655D01*
X306342Y252837D01*
X306323Y253020D01*
X306318Y253037D01*
X306316Y253055D01*
X306259Y253230D01*
X306205Y253405D01*
X306197Y253421D01*
X306191Y253438D01*
X306101Y253598D01*
X306013Y253759D01*
X306002Y253773D01*
X305993Y253788D01*
X305873Y253928D01*
X305756Y254068D01*
X305742Y254080D01*
X305730Y254093D01*
X305585Y254206D01*
X305442Y254321D01*
X305426Y254329D01*
X305412Y254340D01*
X305247Y254422D01*
X305085Y254506D01*
X305068Y254511D01*
X305052Y254519D01*
X304873Y254567D01*
X304698Y254618D01*
X304680Y254619D01*
X304663Y254624D01*
X304332Y254651D01*
X302093Y254651D01*
X302075Y254649D01*
X302057Y254650D01*
X301875Y254629D01*
X301692Y254611D01*
X301675Y254606D01*
X301658Y254604D01*
X301483Y254547D01*
X301307Y254493D01*
X301292Y254484D01*
X301275Y254479D01*
X301115Y254388D01*
X300953Y254301D01*
X300940Y254290D01*
X300924Y254281D01*
X300785Y254161D01*
X300644Y254043D01*
X300633Y254029D01*
X300619Y254018D01*
X300507Y253873D01*
X300392Y253730D01*
X300384Y253714D01*
X300373Y253700D01*
X300291Y253535D01*
X300206Y253372D01*
X300201Y253355D01*
X300193Y253339D01*
X300146Y253161D01*
X300095Y252985D01*
X300093Y252968D01*
X300089Y252950D01*
X300062Y252620D01*
X300062Y244178D01*
X298722Y242838D01*
X291828Y242838D01*
X290488Y244178D01*
X290488Y254072D01*
X290869Y254453D01*
X290886Y254474D01*
X290907Y254491D01*
X291014Y254629D01*
X291124Y254765D01*
X291137Y254788D01*
X291153Y254810D01*
X291231Y254966D01*
X291313Y255120D01*
X291321Y255146D01*
X291333Y255170D01*
X291378Y255339D01*
X291428Y255506D01*
X291430Y255533D01*
X291437Y255559D01*
X291464Y255890D01*
X291464Y256398D01*
X291464Y256402D01*
X291464Y256407D01*
X291444Y256601D01*
X291424Y256798D01*
X291423Y256802D01*
X291423Y256807D01*
X291364Y256995D01*
X291306Y257183D01*
X291304Y257187D01*
X291303Y257191D01*
X291207Y257366D01*
X291114Y257537D01*
X291112Y257541D01*
X291109Y257545D01*
X290981Y257697D01*
X290857Y257846D01*
X290853Y257849D01*
X290850Y257853D01*
X290695Y257976D01*
X290543Y258099D01*
X290539Y258101D01*
X290535Y258104D01*
X290357Y258195D01*
X290186Y258284D01*
X290181Y258285D01*
X290177Y258288D01*
X289984Y258342D01*
X289799Y258396D01*
X289794Y258396D01*
X289790Y258397D01*
X289594Y258412D01*
X289397Y258429D01*
X289393Y258428D01*
X289389Y258428D01*
X289195Y258405D01*
X288998Y258382D01*
X288993Y258380D01*
X288989Y258380D01*
X288804Y258318D01*
X288615Y258257D01*
X288611Y258255D01*
X288607Y258253D01*
X288438Y258157D01*
X288264Y258059D01*
X288261Y258056D01*
X288257Y258054D01*
X288108Y257924D01*
X287960Y257796D01*
X287957Y257792D01*
X287953Y257789D01*
X287831Y257630D01*
X287713Y257478D01*
X287711Y257474D01*
X287708Y257470D01*
X287556Y257175D01*
X287370Y256726D01*
X286024Y255380D01*
X285441Y255138D01*
X285421Y255127D01*
X285400Y255120D01*
X285244Y255032D01*
X285086Y254948D01*
X285069Y254934D01*
X285049Y254923D01*
X284913Y254805D01*
X284775Y254691D01*
X284761Y254674D01*
X284744Y254659D01*
X284635Y254518D01*
X284522Y254379D01*
X284511Y254359D01*
X284498Y254341D01*
X284418Y254181D01*
X284335Y254022D01*
X284328Y254001D01*
X284318Y253981D01*
X284272Y253807D01*
X284222Y253636D01*
X284220Y253614D01*
X284214Y253592D01*
X284187Y253261D01*
X284187Y244178D01*
X282847Y242838D01*
X275953Y242838D01*
X274613Y244178D01*
X274613Y252620D01*
X274611Y252637D01*
X274613Y252655D01*
X274592Y252837D01*
X274573Y253020D01*
X274568Y253037D01*
X274566Y253055D01*
X274509Y253230D01*
X274455Y253405D01*
X274447Y253421D01*
X274441Y253438D01*
X274351Y253598D01*
X274263Y253759D01*
X274252Y253773D01*
X274243Y253788D01*
X274123Y253928D01*
X274006Y254068D01*
X273992Y254080D01*
X273980Y254093D01*
X273835Y254206D01*
X273692Y254321D01*
X273676Y254329D01*
X273662Y254340D01*
X273497Y254422D01*
X273335Y254506D01*
X273318Y254511D01*
X273302Y254519D01*
X273123Y254567D01*
X272948Y254618D01*
X272930Y254619D01*
X272913Y254624D01*
X272582Y254651D01*
X271360Y254651D01*
X269601Y255380D01*
X268255Y256726D01*
X267526Y258485D01*
X267526Y265390D01*
X268255Y267149D01*
X269601Y268495D01*
X271360Y269224D01*
X278869Y269224D01*
X278895Y269227D01*
X278922Y269225D01*
X279096Y269247D01*
X279269Y269264D01*
X279295Y269272D01*
X279321Y269275D01*
X279487Y269331D01*
X279654Y269382D01*
X279678Y269395D01*
X279703Y269404D01*
X279855Y269491D01*
X280008Y269574D01*
X280029Y269591D01*
X280052Y269604D01*
X280305Y269819D01*
X290674Y280188D01*
X315620Y280188D01*
X315637Y280190D01*
X315655Y280189D01*
X315837Y280210D01*
X316020Y280228D01*
X316037Y280233D01*
X316055Y280235D01*
X316229Y280292D01*
X316405Y280346D01*
X316421Y280355D01*
X316438Y280360D01*
X316598Y280451D01*
X316759Y280538D01*
X316773Y280549D01*
X316788Y280558D01*
X316928Y280678D01*
X317068Y280796D01*
X317080Y280810D01*
X317093Y280821D01*
X317206Y280966D01*
X317321Y281110D01*
X317329Y281125D01*
X317340Y281139D01*
X317422Y281304D01*
X317506Y281467D01*
X317511Y281484D01*
X317519Y281500D01*
X317567Y281678D01*
X317618Y281854D01*
X317619Y281872D01*
X317624Y281889D01*
X317651Y282219D01*
X317651Y294594D01*
X317683Y294708D01*
X317738Y294892D01*
X317739Y294901D01*
X317742Y294909D01*
X317757Y295101D01*
X317775Y295293D01*
X317774Y295302D01*
X317774Y295311D01*
X317752Y295500D01*
X317731Y295693D01*
X317729Y295702D01*
X317727Y295710D01*
X317668Y295892D01*
X317610Y296077D01*
X317605Y296085D01*
X317603Y296093D01*
X317508Y296261D01*
X317415Y296429D01*
X317409Y296436D01*
X317405Y296444D01*
X317279Y296590D01*
X317154Y296736D01*
X317147Y296742D01*
X317142Y296749D01*
X316990Y296866D01*
X316838Y296986D01*
X316830Y296990D01*
X316823Y296995D01*
X316651Y297081D01*
X316480Y297168D01*
X316471Y297171D01*
X316463Y297175D01*
X316276Y297225D01*
X316092Y297276D01*
X316083Y297277D01*
X316074Y297279D01*
X315743Y297306D01*
X248491Y297306D01*
X233715Y312082D01*
X233701Y312094D01*
X233690Y312107D01*
X233546Y312221D01*
X233404Y312337D01*
X233388Y312346D01*
X233374Y312357D01*
X233209Y312440D01*
X233048Y312526D01*
X233031Y312531D01*
X233015Y312539D01*
X232837Y312589D01*
X232662Y312641D01*
X232644Y312642D01*
X232627Y312647D01*
X232444Y312661D01*
X232261Y312677D01*
X232243Y312675D01*
X232226Y312677D01*
X232044Y312654D01*
X231861Y312634D01*
X231844Y312628D01*
X231826Y312626D01*
X231652Y312568D01*
X231477Y312512D01*
X231461Y312504D01*
X231444Y312498D01*
X231285Y312406D01*
X231125Y312318D01*
X231111Y312306D01*
X231096Y312297D01*
X230843Y312082D01*
X227862Y309101D01*
X224221Y307593D01*
X220279Y307593D01*
X216638Y309101D01*
X213851Y311888D01*
X212343Y315529D01*
X212343Y319471D01*
X213851Y323112D01*
X216832Y326093D01*
X216844Y326106D01*
X216857Y326118D01*
X216971Y326262D01*
X217087Y326404D01*
X217096Y326420D01*
X217107Y326434D01*
X217190Y326598D01*
X217276Y326760D01*
X217281Y326777D01*
X217289Y326793D01*
X217339Y326970D01*
X217391Y327146D01*
X217392Y327163D01*
X217397Y327181D01*
X217411Y327364D01*
X217427Y327547D01*
X217425Y327564D01*
X217427Y327582D01*
X217404Y327764D01*
X217384Y327947D01*
X217378Y327964D01*
X217376Y327982D01*
X217318Y328155D01*
X217262Y328331D01*
X217254Y328346D01*
X217248Y328363D01*
X217156Y328523D01*
X217068Y328683D01*
X217056Y328697D01*
X217047Y328712D01*
X216832Y328965D01*
X191690Y354107D01*
X191627Y354159D01*
X191570Y354219D01*
X191471Y354287D01*
X191379Y354362D01*
X191306Y354401D01*
X191239Y354448D01*
X191129Y354495D01*
X191023Y354551D01*
X190944Y354575D01*
X190869Y354607D01*
X190752Y354632D01*
X190637Y354666D01*
X190555Y354673D01*
X190475Y354690D01*
X190355Y354691D01*
X190236Y354702D01*
X190154Y354693D01*
X190072Y354694D01*
X189955Y354672D01*
X189920Y354668D01*
X188319Y356206D01*
X188291Y356224D01*
X188257Y356257D01*
X185734Y357998D01*
X185707Y358010D01*
X185685Y358028D01*
X185616Y358049D01*
X185551Y358076D01*
X185522Y358077D01*
X185494Y358085D01*
X185423Y358077D01*
X185352Y358077D01*
X185325Y358066D01*
X185296Y358063D01*
X185234Y358028D01*
X185169Y358000D01*
X185148Y357979D01*
X185123Y357965D01*
X185060Y357888D01*
X185030Y357857D01*
X185026Y357847D01*
X185017Y357837D01*
X175517Y341337D01*
X175493Y341264D01*
X175462Y341193D01*
X175462Y341170D01*
X175454Y341148D01*
X175461Y341071D01*
X175460Y340994D01*
X175469Y340970D01*
X175470Y340950D01*
X175491Y340910D01*
X175510Y340858D01*
X175511Y340853D01*
X175513Y340851D01*
X175517Y340838D01*
X185017Y324338D01*
X185036Y324317D01*
X185049Y324290D01*
X185102Y324243D01*
X185149Y324189D01*
X185175Y324177D01*
X185197Y324157D01*
X185264Y324134D01*
X185328Y324103D01*
X185357Y324102D01*
X185384Y324093D01*
X185456Y324097D01*
X185527Y324094D01*
X185554Y324104D01*
X185583Y324106D01*
X185673Y324149D01*
X185713Y324163D01*
X185721Y324171D01*
X185734Y324177D01*
X188257Y325918D01*
X188281Y325943D01*
X188319Y325969D01*
X189368Y326976D01*
X207642Y295323D01*
X207731Y295200D01*
X207813Y295072D01*
X207848Y295036D01*
X207877Y294996D01*
X207988Y294892D01*
X208094Y294784D01*
X208135Y294756D01*
X208172Y294722D01*
X208301Y294642D01*
X208427Y294556D01*
X208478Y294534D01*
X208515Y294511D01*
X208595Y294481D01*
X208730Y294422D01*
X208814Y294392D01*
X208885Y294375D01*
X208893Y294372D01*
X208894Y294372D01*
X208959Y294347D01*
X209083Y294327D01*
X209205Y294298D01*
X209281Y294295D01*
X209356Y294282D01*
X209482Y294287D01*
X209607Y294282D01*
X209683Y294294D01*
X209759Y294297D01*
X209918Y294332D01*
X210005Y294346D01*
X210038Y294358D01*
X210083Y294368D01*
X210911Y294623D01*
X210982Y294653D01*
X211056Y294674D01*
X211167Y294731D01*
X211282Y294780D01*
X211346Y294823D01*
X211414Y294857D01*
X211512Y294935D01*
X211604Y294998D01*
X212476Y295129D01*
X212540Y295146D01*
X212772Y295197D01*
X213620Y295458D01*
X213669Y295442D01*
X213794Y295428D01*
X213917Y295404D01*
X213993Y295405D01*
X214069Y295396D01*
X214232Y295407D01*
X214319Y295408D01*
X214355Y295416D01*
X214400Y295419D01*
X215258Y295548D01*
X215332Y295566D01*
X215408Y295576D01*
X215527Y295616D01*
X215648Y295647D01*
X215717Y295680D01*
X215789Y295704D01*
X215898Y295767D01*
X215998Y295815D01*
X216880Y295814D01*
X216947Y295821D01*
X217182Y295837D01*
X218060Y295969D01*
X218107Y295946D01*
X218227Y295913D01*
X218346Y295872D01*
X218422Y295861D01*
X218495Y295841D01*
X218658Y295828D01*
X218744Y295815D01*
X218780Y295818D01*
X218826Y295814D01*
X219693Y295814D01*
X219769Y295821D01*
X219846Y295819D01*
X219969Y295841D01*
X220094Y295853D01*
X220167Y295876D01*
X220242Y295889D01*
X220359Y295935D01*
X220465Y295967D01*
X221337Y295836D01*
X221404Y295832D01*
X221639Y295813D01*
X222527Y295813D01*
X222570Y295783D01*
X222684Y295732D01*
X222795Y295674D01*
X222868Y295652D01*
X222938Y295621D01*
X223097Y295584D01*
X223181Y295559D01*
X223217Y295556D01*
X223261Y295545D01*
X224118Y295416D01*
X224195Y295412D01*
X224270Y295398D01*
X224396Y295401D01*
X224521Y295395D01*
X224596Y295406D01*
X224673Y295408D01*
X224795Y295436D01*
X224905Y295452D01*
X225747Y295192D01*
X225813Y295179D01*
X226043Y295125D01*
X226920Y294992D01*
X226958Y294956D01*
X227064Y294890D01*
X227165Y294815D01*
X227234Y294782D01*
X227299Y294742D01*
X227450Y294681D01*
X227529Y294644D01*
X227564Y294635D01*
X227607Y294618D01*
X228435Y294362D01*
X228510Y294347D01*
X228583Y294323D01*
X228707Y294307D01*
X228830Y294282D01*
X228906Y294282D01*
X228982Y294273D01*
X229107Y294282D01*
X229219Y294282D01*
X230012Y293899D01*
X230076Y293876D01*
X230295Y293788D01*
X231143Y293526D01*
X231175Y293485D01*
X231270Y293403D01*
X231358Y293314D01*
X231422Y293272D01*
X231480Y293222D01*
X231620Y293139D01*
X231693Y293091D01*
X231726Y293077D01*
X231766Y293054D01*
X232547Y292678D01*
X232618Y292651D01*
X232687Y292616D01*
X232807Y292582D01*
X232925Y292540D01*
X233001Y292528D01*
X233074Y292507D01*
X233199Y292498D01*
X233309Y292481D01*
X234037Y291984D01*
X234097Y291952D01*
X234300Y291832D01*
X235099Y291447D01*
X235125Y291402D01*
X235207Y291306D01*
X235281Y291206D01*
X235337Y291154D01*
X235387Y291096D01*
X235514Y290993D01*
X235579Y290935D01*
X235609Y290916D01*
X235645Y290887D01*
X236361Y290399D01*
X236429Y290362D01*
X236491Y290318D01*
X236604Y290266D01*
X236715Y290206D01*
X236788Y290183D01*
X236857Y290152D01*
X236980Y290124D01*
X237086Y290091D01*
X237732Y289491D01*
X237786Y289450D01*
X237969Y289302D01*
X238702Y288802D01*
X238721Y288753D01*
X238787Y288647D01*
X238845Y288536D01*
X238894Y288477D01*
X238934Y288412D01*
X239045Y288291D01*
X239100Y288224D01*
X239127Y288201D01*
X239158Y288167D01*
X239794Y287577D01*
X239855Y287531D01*
X239909Y287477D01*
X240014Y287409D01*
X240114Y287334D01*
X240183Y287300D01*
X240247Y287259D01*
X240364Y287213D01*
X240464Y287164D01*
X241014Y286475D01*
X241060Y286427D01*
X241220Y286253D01*
X241870Y285649D01*
X241881Y285598D01*
X241931Y285483D01*
X241972Y285365D01*
X242011Y285299D01*
X242042Y285228D01*
X242133Y285093D01*
X242177Y285018D01*
X242201Y284991D01*
X242227Y284953D01*
X242767Y284275D01*
X242820Y284220D01*
X242867Y284159D01*
X242960Y284076D01*
X243048Y283987D01*
X243111Y283943D01*
X243168Y283893D01*
X243277Y283830D01*
X243369Y283767D01*
X243809Y283004D01*
X243848Y282950D01*
X243980Y282753D01*
X244533Y282059D01*
X244536Y282007D01*
X244569Y281886D01*
X244592Y281763D01*
X244620Y281692D01*
X244640Y281618D01*
X244710Y281470D01*
X244742Y281389D01*
X244762Y281359D01*
X244782Y281318D01*
X245215Y280567D01*
X245260Y280505D01*
X245296Y280438D01*
X245377Y280342D01*
X245450Y280240D01*
X245506Y280188D01*
X245555Y280129D01*
X245653Y280051D01*
X245734Y279975D01*
X246056Y279154D01*
X246087Y279095D01*
X246188Y278881D01*
X246631Y278112D01*
X246627Y278060D01*
X246640Y277936D01*
X246645Y277811D01*
X246663Y277736D01*
X246671Y277660D01*
X246718Y277504D01*
X246738Y277419D01*
X246753Y277386D01*
X246767Y277342D01*
X247083Y276535D01*
X247118Y276467D01*
X247144Y276395D01*
X247209Y276289D01*
X247266Y276177D01*
X247314Y276117D01*
X247354Y276052D01*
X247439Y275960D01*
X247508Y275872D01*
X247704Y275013D01*
X247726Y274949D01*
X247794Y274723D01*
X248118Y273897D01*
X248105Y273846D01*
X248100Y273721D01*
X248086Y273597D01*
X248093Y273520D01*
X248090Y273444D01*
X248113Y273282D01*
X248120Y273195D01*
X248130Y273161D01*
X248137Y273115D01*
X248329Y272270D01*
X248354Y272198D01*
X248369Y272123D01*
X248418Y272007D01*
X248457Y271889D01*
X248495Y271822D01*
X248525Y271752D01*
X248596Y271648D01*
X248651Y271551D01*
X248717Y270673D01*
X248728Y270606D01*
X248762Y270373D01*
X248966Y269478D01*
X249026Y269300D01*
X249083Y269119D01*
X249090Y269108D01*
X249094Y269096D01*
X249188Y268933D01*
X249280Y268768D01*
X249288Y268758D01*
X249294Y268747D01*
X249420Y268604D01*
X249542Y268462D01*
X249552Y268454D01*
X249560Y268445D01*
X249711Y268329D01*
X249859Y268214D01*
X249870Y268208D01*
X249880Y268200D01*
X250051Y268117D01*
X250218Y268033D01*
X250231Y268030D01*
X250242Y268024D01*
X250426Y267976D01*
X250607Y267927D01*
X250619Y267926D01*
X250632Y267923D01*
X250820Y267912D01*
X251008Y267899D01*
X251021Y267901D01*
X251034Y267900D01*
X251220Y267927D01*
X251408Y267951D01*
X251421Y267955D01*
X251432Y267957D01*
X251492Y267978D01*
X251724Y268053D01*
X252928Y268552D01*
X255343Y268552D01*
X257573Y267628D01*
X259280Y265921D01*
X260204Y263690D01*
X260204Y261205D01*
X260167Y261081D01*
X260164Y261050D01*
X260156Y261020D01*
X260128Y260689D01*
X260128Y246364D01*
X260132Y246333D01*
X260129Y246302D01*
X260152Y246132D01*
X260168Y245964D01*
X260178Y245934D01*
X260182Y245903D01*
X260283Y245587D01*
X260862Y244188D01*
X260862Y241774D01*
X259939Y239543D01*
X258231Y237836D01*
X256001Y236912D01*
X253587Y236912D01*
X251356Y237836D01*
X250921Y238271D01*
X250908Y238282D01*
X250896Y238296D01*
X250752Y238410D01*
X250610Y238526D01*
X250594Y238534D01*
X250580Y238545D01*
X250416Y238629D01*
X250254Y238715D01*
X250237Y238720D01*
X250221Y238728D01*
X250044Y238777D01*
X249868Y238829D01*
X249851Y238831D01*
X249833Y238836D01*
X249650Y238849D01*
X249467Y238866D01*
X249450Y238864D01*
X249432Y238865D01*
X249250Y238842D01*
X249067Y238822D01*
X249050Y238817D01*
X249032Y238815D01*
X248859Y238756D01*
X248683Y238701D01*
X248668Y238692D01*
X248651Y238686D01*
X248492Y238595D01*
X248331Y238506D01*
X248317Y238494D01*
X248302Y238486D01*
X248049Y238271D01*
X246607Y236829D01*
X244894Y236119D01*
X244555Y235979D01*
X244422Y235908D01*
X244286Y235843D01*
X244245Y235813D01*
X244200Y235789D01*
X244084Y235693D01*
X243963Y235603D01*
X243929Y235565D01*
X243890Y235532D01*
X243795Y235416D01*
X243694Y235303D01*
X243668Y235259D01*
X243636Y235220D01*
X243566Y235087D01*
X243490Y234957D01*
X243473Y234908D01*
X243449Y234863D01*
X243407Y234719D01*
X243357Y234576D01*
X243350Y234526D01*
X243336Y234477D01*
X243323Y234327D01*
X243303Y234177D01*
X243306Y234127D01*
X243301Y234076D01*
X243318Y233926D01*
X243328Y233776D01*
X243341Y233726D01*
X243347Y233676D01*
X243393Y233532D01*
X243431Y233387D01*
X243456Y233334D01*
X243470Y233292D01*
X243511Y233218D01*
X243573Y233087D01*
X257036Y209767D01*
X255678Y209376D01*
X255648Y209360D01*
X255603Y209347D01*
X252837Y208039D01*
X252814Y208022D01*
X252787Y208012D01*
X252735Y207963D01*
X252677Y207920D01*
X252663Y207895D01*
X252642Y207875D01*
X252613Y207810D01*
X252577Y207748D01*
X252574Y207720D01*
X252562Y207693D01*
X252561Y207621D01*
X252552Y207551D01*
X252560Y207523D01*
X252560Y207494D01*
X252595Y207400D01*
X252606Y207359D01*
X252613Y207351D01*
X252617Y207338D01*
X262117Y190838D01*
X262169Y190780D01*
X262215Y190717D01*
X262234Y190706D01*
X262249Y190689D01*
X262319Y190656D01*
X262386Y190616D01*
X262411Y190612D01*
X262428Y190603D01*
X262473Y190601D01*
X262550Y190588D01*
X281550Y190588D01*
X281578Y190594D01*
G37*
G36*
X301342Y300773D02*
X301342Y300773D01*
X301368Y300771D01*
X301542Y300792D01*
X301717Y300808D01*
X301742Y300815D01*
X301767Y300818D01*
X301934Y300873D01*
X302103Y300923D01*
X302126Y300935D01*
X302150Y300943D01*
X302303Y301029D01*
X302458Y301112D01*
X302478Y301128D01*
X302501Y301141D01*
X302634Y301256D01*
X302770Y301367D01*
X302786Y301387D01*
X302806Y301404D01*
X302913Y301543D01*
X303024Y301679D01*
X303036Y301702D01*
X303052Y301722D01*
X303130Y301879D01*
X303213Y302035D01*
X303220Y302060D01*
X303232Y302083D01*
X303277Y302253D01*
X303327Y302421D01*
X303329Y302447D01*
X303336Y302472D01*
X303363Y302802D01*
X303363Y305308D01*
X303361Y305326D01*
X303363Y305344D01*
X303342Y305526D01*
X303323Y305709D01*
X303318Y305726D01*
X303316Y305743D01*
X303259Y305918D01*
X303205Y306094D01*
X303197Y306109D01*
X303191Y306126D01*
X303101Y306286D01*
X303013Y306448D01*
X303002Y306461D01*
X302993Y306477D01*
X302873Y306616D01*
X302756Y306757D01*
X302742Y306768D01*
X302730Y306782D01*
X302585Y306894D01*
X302442Y307009D01*
X302426Y307017D01*
X302412Y307028D01*
X302247Y307110D01*
X302085Y307195D01*
X302068Y307200D01*
X302052Y307208D01*
X301873Y307255D01*
X301698Y307306D01*
X301680Y307308D01*
X301663Y307312D01*
X301332Y307339D01*
X296872Y307339D01*
X289529Y314682D01*
X289508Y314699D01*
X289491Y314719D01*
X289353Y314826D01*
X289217Y314937D01*
X289194Y314949D01*
X289173Y314966D01*
X289016Y315044D01*
X288862Y315126D01*
X288836Y315133D01*
X288812Y315145D01*
X288643Y315191D01*
X288476Y315240D01*
X288449Y315243D01*
X288423Y315250D01*
X288093Y315277D01*
X279409Y315277D01*
X274002Y320684D01*
X274002Y361941D01*
X276829Y364768D01*
X277174Y365114D01*
X277180Y365121D01*
X277187Y365126D01*
X277307Y365276D01*
X277430Y365425D01*
X277434Y365433D01*
X277439Y365440D01*
X277528Y365610D01*
X277618Y365781D01*
X277621Y365789D01*
X277625Y365797D01*
X277678Y365983D01*
X277733Y366167D01*
X277734Y366176D01*
X277736Y366184D01*
X277752Y366376D01*
X277769Y366568D01*
X277768Y366577D01*
X277769Y366586D01*
X277747Y366776D01*
X277726Y366968D01*
X277723Y366977D01*
X277722Y366985D01*
X277663Y367168D01*
X277605Y367352D01*
X277600Y367360D01*
X277597Y367368D01*
X277503Y367535D01*
X277410Y367704D01*
X277404Y367711D01*
X277400Y367719D01*
X277275Y367863D01*
X277149Y368011D01*
X277142Y368017D01*
X277136Y368024D01*
X276985Y368141D01*
X276833Y368261D01*
X276825Y368265D01*
X276818Y368270D01*
X276646Y368356D01*
X276474Y368443D01*
X276466Y368446D01*
X276458Y368450D01*
X276271Y368500D01*
X276087Y368551D01*
X276078Y368552D01*
X276069Y368554D01*
X275738Y368581D01*
X275444Y368581D01*
X275417Y368579D01*
X275391Y368581D01*
X275217Y368559D01*
X275043Y368541D01*
X275018Y368534D01*
X274991Y368530D01*
X274825Y368474D01*
X274659Y368423D01*
X274635Y368410D01*
X274610Y368402D01*
X274458Y368315D01*
X274304Y368231D01*
X274284Y368214D01*
X274261Y368201D01*
X274008Y367986D01*
X273235Y367213D01*
X265938Y367213D01*
X265920Y367211D01*
X265902Y367213D01*
X265720Y367192D01*
X265537Y367173D01*
X265520Y367168D01*
X265503Y367166D01*
X265328Y367109D01*
X265152Y367055D01*
X265137Y367047D01*
X265120Y367041D01*
X264960Y366951D01*
X264798Y366863D01*
X264785Y366852D01*
X264769Y366843D01*
X264630Y366723D01*
X264489Y366606D01*
X264478Y366592D01*
X264464Y366580D01*
X264352Y366435D01*
X264237Y366292D01*
X264229Y366276D01*
X264218Y366262D01*
X264136Y366097D01*
X264051Y365935D01*
X264046Y365918D01*
X264038Y365902D01*
X263991Y365723D01*
X263940Y365548D01*
X263938Y365530D01*
X263934Y365513D01*
X263907Y365182D01*
X263907Y351383D01*
X263249Y349796D01*
X240754Y327301D01*
X239167Y326643D01*
X232021Y326643D01*
X232012Y326642D01*
X232003Y326643D01*
X231812Y326622D01*
X231620Y326603D01*
X231612Y326601D01*
X231603Y326600D01*
X231420Y326542D01*
X231235Y326485D01*
X231227Y326481D01*
X231219Y326478D01*
X231050Y326385D01*
X230881Y326293D01*
X230874Y326288D01*
X230867Y326283D01*
X230718Y326158D01*
X230572Y326036D01*
X230566Y326029D01*
X230560Y326023D01*
X230439Y325870D01*
X230320Y325722D01*
X230316Y325714D01*
X230310Y325707D01*
X230222Y325534D01*
X230134Y325365D01*
X230132Y325356D01*
X230128Y325348D01*
X230076Y325163D01*
X230023Y324978D01*
X230022Y324969D01*
X230020Y324960D01*
X230006Y324768D01*
X229990Y324576D01*
X229991Y324568D01*
X229990Y324559D01*
X230015Y324367D01*
X230037Y324177D01*
X230040Y324168D01*
X230041Y324159D01*
X230102Y323978D01*
X230162Y323794D01*
X230166Y323786D01*
X230169Y323778D01*
X230264Y323612D01*
X230360Y323443D01*
X230365Y323436D01*
X230370Y323429D01*
X230585Y323176D01*
X230649Y323112D01*
X232285Y319161D01*
X232315Y319064D01*
X232328Y319040D01*
X232336Y319015D01*
X232423Y318863D01*
X232507Y318710D01*
X232524Y318689D01*
X232537Y318666D01*
X232752Y318413D01*
X249401Y301764D01*
X249416Y301752D01*
X249428Y301737D01*
X249572Y301624D01*
X249713Y301509D01*
X249729Y301500D01*
X249744Y301488D01*
X249908Y301405D01*
X250069Y301320D01*
X250086Y301315D01*
X250103Y301306D01*
X250280Y301257D01*
X250454Y301205D01*
X250473Y301203D01*
X250491Y301198D01*
X250822Y301169D01*
X301316Y300771D01*
X301342Y300773D01*
G37*
G36*
X481091Y388655D02*
X481091Y388655D01*
X481134Y388654D01*
X485127Y389254D01*
X485157Y389265D01*
X485200Y389271D01*
X489059Y390460D01*
X489087Y390475D01*
X489128Y390487D01*
X492766Y392238D01*
X492788Y392254D01*
X492814Y392264D01*
X492867Y392314D01*
X492925Y392358D01*
X492938Y392381D01*
X492958Y392400D01*
X492988Y392467D01*
X493024Y392530D01*
X493027Y392557D01*
X493038Y392582D01*
X493039Y392655D01*
X493048Y392728D01*
X493040Y392754D01*
X493040Y392781D01*
X493004Y392880D01*
X492992Y392919D01*
X492986Y392926D01*
X492982Y392937D01*
X465982Y439737D01*
X465964Y439757D01*
X465953Y439782D01*
X465899Y439831D01*
X465851Y439886D01*
X465826Y439898D01*
X465806Y439916D01*
X465737Y439940D01*
X465671Y439972D01*
X465644Y439973D01*
X465619Y439982D01*
X465546Y439977D01*
X465473Y439981D01*
X465447Y439971D01*
X465420Y439970D01*
X465324Y439926D01*
X465286Y439911D01*
X465279Y439905D01*
X465269Y439900D01*
X461932Y437627D01*
X461910Y437604D01*
X461874Y437580D01*
X458913Y434835D01*
X458894Y434809D01*
X458862Y434780D01*
X456344Y431624D01*
X456329Y431596D01*
X456302Y431563D01*
X454282Y428066D01*
X454272Y428036D01*
X454249Y427999D01*
X452773Y424241D01*
X452768Y424210D01*
X452751Y424170D01*
X451851Y420234D01*
X451851Y420202D01*
X451840Y420160D01*
X451537Y416134D01*
X451540Y416110D01*
X451537Y416090D01*
X451539Y416081D01*
X451537Y416059D01*
X451838Y412033D01*
X451846Y412002D01*
X451849Y411959D01*
X452746Y408022D01*
X452759Y407993D01*
X452768Y407951D01*
X454242Y404192D01*
X454259Y404165D01*
X454274Y404124D01*
X456292Y400627D01*
X456313Y400603D01*
X456334Y400565D01*
X458850Y397408D01*
X458875Y397387D01*
X458901Y397353D01*
X461860Y394606D01*
X461887Y394589D01*
X461918Y394559D01*
X465254Y392284D01*
X465283Y392271D01*
X465318Y392246D01*
X468956Y390493D01*
X468986Y390486D01*
X469025Y390466D01*
X472883Y389275D01*
X472915Y389272D01*
X472956Y389258D01*
X476948Y388655D01*
X476980Y388657D01*
X477022Y388649D01*
X481060Y388648D01*
X481091Y388655D01*
G37*
G36*
X221278Y388649D02*
X221278Y388649D01*
X221309Y388656D01*
X221352Y388655D01*
X225344Y389258D01*
X225374Y389269D01*
X225417Y389275D01*
X229275Y390466D01*
X229303Y390481D01*
X229345Y390493D01*
X232982Y392246D01*
X233007Y392266D01*
X233046Y392284D01*
X236382Y394559D01*
X236404Y394582D01*
X236440Y394606D01*
X239399Y397353D01*
X239418Y397379D01*
X239450Y397408D01*
X241966Y400565D01*
X241981Y400594D01*
X242008Y400627D01*
X244026Y404124D01*
X244036Y404155D01*
X244058Y404192D01*
X245532Y407951D01*
X245538Y407982D01*
X245554Y408022D01*
X246451Y411959D01*
X246452Y411991D01*
X246462Y412033D01*
X246763Y416059D01*
X246759Y416091D01*
X246760Y416107D01*
X246763Y416123D01*
X246762Y416127D01*
X246763Y416134D01*
X246460Y420160D01*
X246451Y420191D01*
X246449Y420234D01*
X245549Y424170D01*
X245536Y424199D01*
X245527Y424241D01*
X244051Y427999D01*
X244033Y428026D01*
X244018Y428066D01*
X241998Y431563D01*
X241977Y431586D01*
X241956Y431624D01*
X239438Y434780D01*
X239413Y434801D01*
X239387Y434835D01*
X236426Y437580D01*
X236399Y437597D01*
X236368Y437627D01*
X233031Y439900D01*
X233006Y439911D01*
X232985Y439928D01*
X232915Y439949D01*
X232848Y439977D01*
X232820Y439977D01*
X232794Y439985D01*
X232722Y439977D01*
X232649Y439976D01*
X232624Y439966D01*
X232597Y439963D01*
X232533Y439927D01*
X232466Y439898D01*
X232447Y439879D01*
X232424Y439865D01*
X232357Y439784D01*
X232328Y439755D01*
X232325Y439746D01*
X232318Y439737D01*
X205318Y392937D01*
X205309Y392911D01*
X205293Y392889D01*
X205278Y392818D01*
X205254Y392748D01*
X205257Y392721D01*
X205251Y392695D01*
X205264Y392623D01*
X205270Y392550D01*
X205283Y392526D01*
X205288Y392499D01*
X205328Y392439D01*
X205362Y392374D01*
X205383Y392356D01*
X205398Y392334D01*
X205484Y392273D01*
X205515Y392247D01*
X205524Y392244D01*
X205534Y392238D01*
X209172Y390487D01*
X209203Y390479D01*
X209241Y390460D01*
X213100Y389271D01*
X213132Y389268D01*
X213173Y389254D01*
X217166Y388654D01*
X217197Y388655D01*
X217240Y388648D01*
X221278Y388649D01*
G37*
G36*
X465578Y242198D02*
X465578Y242198D01*
X465651Y242199D01*
X465676Y242209D01*
X465703Y242212D01*
X465767Y242248D01*
X465834Y242277D01*
X465853Y242296D01*
X465876Y242310D01*
X465944Y242391D01*
X465972Y242420D01*
X465975Y242429D01*
X465982Y242438D01*
X492982Y289238D01*
X492991Y289264D01*
X493007Y289286D01*
X493022Y289357D01*
X493046Y289427D01*
X493043Y289454D01*
X493049Y289480D01*
X493036Y289552D01*
X493030Y289625D01*
X493017Y289649D01*
X493012Y289676D01*
X492972Y289737D01*
X492938Y289801D01*
X492917Y289819D01*
X492902Y289841D01*
X492816Y289902D01*
X492785Y289928D01*
X492776Y289931D01*
X492766Y289937D01*
X489128Y291688D01*
X489097Y291696D01*
X489059Y291715D01*
X485200Y292904D01*
X485168Y292907D01*
X485127Y292921D01*
X481134Y293521D01*
X481103Y293520D01*
X481060Y293527D01*
X477022Y293526D01*
X476991Y293519D01*
X476948Y293520D01*
X472956Y292917D01*
X472926Y292906D01*
X472883Y292900D01*
X469025Y291709D01*
X468997Y291694D01*
X468956Y291682D01*
X465318Y289929D01*
X465293Y289909D01*
X465254Y289891D01*
X461918Y287616D01*
X461896Y287593D01*
X461860Y287569D01*
X458901Y284822D01*
X458882Y284796D01*
X458850Y284767D01*
X456334Y281610D01*
X456319Y281581D01*
X456292Y281548D01*
X454274Y278051D01*
X454264Y278020D01*
X454242Y277983D01*
X452768Y274224D01*
X452762Y274193D01*
X452746Y274153D01*
X451849Y270216D01*
X451848Y270184D01*
X451838Y270142D01*
X451537Y266116D01*
X451541Y266084D01*
X451537Y266041D01*
X451840Y262015D01*
X451849Y261984D01*
X451851Y261941D01*
X452751Y258005D01*
X452764Y257976D01*
X452773Y257934D01*
X454249Y254176D01*
X454267Y254149D01*
X454282Y254109D01*
X456302Y250613D01*
X456323Y250589D01*
X456344Y250551D01*
X458862Y247395D01*
X458887Y247375D01*
X458913Y247340D01*
X461874Y244595D01*
X461901Y244578D01*
X461932Y244548D01*
X465269Y242275D01*
X465294Y242264D01*
X465315Y242247D01*
X465385Y242226D01*
X465452Y242198D01*
X465480Y242198D01*
X465506Y242190D01*
X465578Y242198D01*
G37*
G36*
X232754Y242198D02*
X232754Y242198D01*
X232827Y242194D01*
X232853Y242204D01*
X232880Y242205D01*
X232976Y242249D01*
X233014Y242264D01*
X233021Y242270D01*
X233031Y242275D01*
X236368Y244548D01*
X236390Y244571D01*
X236426Y244595D01*
X239387Y247340D01*
X239406Y247366D01*
X239438Y247395D01*
X241956Y250551D01*
X241971Y250579D01*
X241998Y250613D01*
X244018Y254109D01*
X244028Y254139D01*
X244051Y254176D01*
X245527Y257934D01*
X245532Y257965D01*
X245549Y258005D01*
X246449Y261941D01*
X246449Y261973D01*
X246460Y262015D01*
X246763Y266041D01*
X246759Y266073D01*
X246763Y266116D01*
X246462Y270142D01*
X246454Y270173D01*
X246451Y270216D01*
X245554Y274153D01*
X245541Y274182D01*
X245532Y274224D01*
X244058Y277983D01*
X244041Y278010D01*
X244026Y278051D01*
X242008Y281548D01*
X241987Y281572D01*
X241966Y281610D01*
X239450Y284767D01*
X239425Y284788D01*
X239399Y284822D01*
X236440Y287569D01*
X236413Y287586D01*
X236382Y287616D01*
X233046Y289891D01*
X233017Y289904D01*
X232982Y289929D01*
X229345Y291682D01*
X229314Y291689D01*
X229275Y291709D01*
X225417Y292900D01*
X225385Y292903D01*
X225344Y292917D01*
X221352Y293520D01*
X221320Y293518D01*
X221278Y293526D01*
X217240Y293527D01*
X217209Y293521D01*
X217166Y293521D01*
X213173Y292921D01*
X213143Y292910D01*
X213100Y292904D01*
X209241Y291715D01*
X209213Y291700D01*
X209172Y291688D01*
X205534Y289937D01*
X205512Y289921D01*
X205486Y289911D01*
X205433Y289861D01*
X205375Y289817D01*
X205362Y289794D01*
X205342Y289775D01*
X205312Y289708D01*
X205276Y289645D01*
X205273Y289618D01*
X205262Y289593D01*
X205261Y289520D01*
X205252Y289447D01*
X205260Y289421D01*
X205260Y289394D01*
X205296Y289295D01*
X205308Y289256D01*
X205314Y289249D01*
X205318Y289238D01*
X232318Y242438D01*
X232336Y242418D01*
X232347Y242393D01*
X232401Y242344D01*
X232449Y242289D01*
X232474Y242277D01*
X232494Y242259D01*
X232563Y242235D01*
X232629Y242203D01*
X232656Y242202D01*
X232681Y242193D01*
X232754Y242198D01*
G37*
G36*
X376177Y190594D02*
X376177Y190594D01*
X376204Y190591D01*
X376273Y190613D01*
X376345Y190628D01*
X376367Y190643D01*
X376393Y190652D01*
X376449Y190699D01*
X376509Y190740D01*
X376523Y190763D01*
X376544Y190781D01*
X376577Y190846D01*
X376616Y190908D01*
X376620Y190935D01*
X376632Y190959D01*
X376642Y191064D01*
X376649Y191104D01*
X376647Y191113D01*
X376648Y191125D01*
X376346Y195149D01*
X376338Y195180D01*
X376335Y195223D01*
X375437Y199157D01*
X375424Y199186D01*
X375415Y199228D01*
X373941Y202985D01*
X373924Y203012D01*
X373909Y203052D01*
X371891Y206547D01*
X371870Y206571D01*
X371849Y206608D01*
X369333Y209763D01*
X369308Y209784D01*
X369282Y209818D01*
X366324Y212563D01*
X366297Y212579D01*
X366265Y212609D01*
X362931Y214883D01*
X362902Y214895D01*
X362867Y214920D01*
X359231Y216671D01*
X359200Y216679D01*
X359161Y216698D01*
X355305Y217888D01*
X355274Y217891D01*
X355232Y217904D01*
X351242Y218506D01*
X351210Y218504D01*
X351168Y218511D01*
X347132Y218511D01*
X347101Y218505D01*
X347058Y218506D01*
X343068Y217904D01*
X343038Y217893D01*
X342995Y217888D01*
X339139Y216698D01*
X339111Y216683D01*
X339069Y216671D01*
X335433Y214920D01*
X335408Y214901D01*
X335369Y214883D01*
X332035Y212609D01*
X332012Y212587D01*
X331976Y212563D01*
X329018Y209818D01*
X329000Y209792D01*
X328967Y209763D01*
X326451Y206608D01*
X326437Y206580D01*
X326409Y206547D01*
X324391Y203052D01*
X324381Y203022D01*
X324359Y202985D01*
X322885Y199228D01*
X322879Y199197D01*
X322863Y199157D01*
X321965Y195223D01*
X321964Y195191D01*
X321954Y195149D01*
X321652Y191125D01*
X321656Y191098D01*
X321651Y191071D01*
X321668Y191000D01*
X321677Y190928D01*
X321691Y190904D01*
X321697Y190878D01*
X321740Y190819D01*
X321777Y190756D01*
X321799Y190739D01*
X321815Y190717D01*
X321878Y190680D01*
X321936Y190636D01*
X321963Y190630D01*
X321986Y190616D01*
X322090Y190598D01*
X322129Y190589D01*
X322139Y190590D01*
X322150Y190588D01*
X376150Y190588D01*
X376177Y190594D01*
G37*
G36*
X396592Y300023D02*
X396592Y300023D01*
X396618Y300021D01*
X396792Y300042D01*
X396967Y300058D01*
X396992Y300065D01*
X397017Y300068D01*
X397184Y300123D01*
X397353Y300173D01*
X397376Y300185D01*
X397400Y300193D01*
X397553Y300279D01*
X397708Y300362D01*
X397728Y300378D01*
X397751Y300391D01*
X397884Y300506D01*
X398020Y300617D01*
X398036Y300637D01*
X398056Y300654D01*
X398163Y300793D01*
X398274Y300929D01*
X398286Y300952D01*
X398302Y300972D01*
X398380Y301129D01*
X398463Y301285D01*
X398470Y301310D01*
X398482Y301333D01*
X398527Y301503D01*
X398577Y301671D01*
X398579Y301697D01*
X398586Y301722D01*
X398613Y302052D01*
X398613Y306547D01*
X399953Y307887D01*
X406670Y307887D01*
X406687Y307889D01*
X406705Y307887D01*
X406887Y307908D01*
X407070Y307927D01*
X407087Y307932D01*
X407105Y307934D01*
X407279Y307991D01*
X407455Y308045D01*
X407471Y308053D01*
X407488Y308059D01*
X407648Y308149D01*
X407809Y308237D01*
X407823Y308248D01*
X407838Y308257D01*
X407978Y308377D01*
X408118Y308494D01*
X408130Y308508D01*
X408143Y308520D01*
X408256Y308665D01*
X408371Y308808D01*
X408379Y308824D01*
X408390Y308838D01*
X408472Y309003D01*
X408556Y309165D01*
X408561Y309182D01*
X408569Y309198D01*
X408617Y309377D01*
X408668Y309552D01*
X408669Y309570D01*
X408674Y309587D01*
X408701Y309918D01*
X408701Y320272D01*
X410040Y321612D01*
X410138Y321612D01*
X410155Y321614D01*
X410173Y321612D01*
X410355Y321633D01*
X410538Y321652D01*
X410555Y321657D01*
X410573Y321659D01*
X410747Y321716D01*
X410923Y321770D01*
X410939Y321778D01*
X410956Y321784D01*
X411116Y321874D01*
X411277Y321962D01*
X411291Y321973D01*
X411306Y321982D01*
X411446Y322102D01*
X411586Y322219D01*
X411598Y322233D01*
X411611Y322245D01*
X411724Y322390D01*
X411839Y322533D01*
X411847Y322549D01*
X411858Y322563D01*
X411940Y322728D01*
X412024Y322890D01*
X412029Y322907D01*
X412037Y322923D01*
X412085Y323102D01*
X412136Y323277D01*
X412137Y323295D01*
X412142Y323312D01*
X412169Y323643D01*
X412169Y334682D01*
X412167Y334700D01*
X412168Y334718D01*
X412147Y334900D01*
X412129Y335083D01*
X412124Y335100D01*
X412122Y335117D01*
X412065Y335292D01*
X412011Y335468D01*
X412002Y335483D01*
X411997Y335500D01*
X411906Y335660D01*
X411819Y335822D01*
X411808Y335835D01*
X411799Y335851D01*
X411679Y335990D01*
X411561Y336131D01*
X411547Y336142D01*
X411536Y336156D01*
X411391Y336268D01*
X411247Y336383D01*
X411232Y336391D01*
X411218Y336402D01*
X411053Y336484D01*
X410890Y336569D01*
X410873Y336574D01*
X410857Y336582D01*
X410679Y336629D01*
X410503Y336680D01*
X410485Y336682D01*
X410468Y336686D01*
X410138Y336713D01*
X401980Y336713D01*
X401963Y336711D01*
X401945Y336713D01*
X401763Y336692D01*
X401580Y336673D01*
X401563Y336668D01*
X401545Y336666D01*
X401371Y336609D01*
X401195Y336555D01*
X401179Y336547D01*
X401162Y336541D01*
X401002Y336451D01*
X400841Y336363D01*
X400827Y336352D01*
X400812Y336343D01*
X400672Y336223D01*
X400532Y336106D01*
X400520Y336092D01*
X400507Y336080D01*
X400394Y335935D01*
X400279Y335792D01*
X400271Y335776D01*
X400260Y335762D01*
X400178Y335597D01*
X400094Y335435D01*
X400089Y335418D01*
X400081Y335402D01*
X400033Y335223D01*
X399982Y335048D01*
X399981Y335030D01*
X399976Y335013D01*
X399949Y334682D01*
X399949Y327053D01*
X398610Y325713D01*
X392938Y325713D01*
X392920Y325711D01*
X392902Y325713D01*
X392720Y325692D01*
X392537Y325673D01*
X392520Y325668D01*
X392503Y325666D01*
X392328Y325609D01*
X392152Y325555D01*
X392137Y325547D01*
X392120Y325541D01*
X391960Y325451D01*
X391798Y325363D01*
X391785Y325352D01*
X391769Y325343D01*
X391630Y325223D01*
X391489Y325106D01*
X391478Y325092D01*
X391464Y325080D01*
X391352Y324935D01*
X391237Y324792D01*
X391229Y324776D01*
X391218Y324762D01*
X391136Y324597D01*
X391051Y324435D01*
X391046Y324418D01*
X391038Y324402D01*
X390991Y324223D01*
X390940Y324048D01*
X390938Y324030D01*
X390934Y324013D01*
X390907Y323682D01*
X390907Y313762D01*
X390909Y313736D01*
X390907Y313709D01*
X390929Y313535D01*
X390947Y313361D01*
X390954Y313336D01*
X390958Y313309D01*
X391013Y313144D01*
X391065Y312977D01*
X391078Y312953D01*
X391086Y312928D01*
X391173Y312776D01*
X391257Y312623D01*
X391274Y312602D01*
X391287Y312579D01*
X391502Y312326D01*
X392495Y311333D01*
X393419Y309102D01*
X393419Y306688D01*
X392495Y304457D01*
X391554Y303517D01*
X391554Y303516D01*
X391553Y303516D01*
X391425Y303358D01*
X391299Y303205D01*
X391298Y303204D01*
X391201Y303020D01*
X391111Y302850D01*
X391110Y302849D01*
X391110Y302848D01*
X391051Y302651D01*
X390996Y302464D01*
X390996Y302463D01*
X390996Y302462D01*
X390978Y302269D01*
X390959Y302063D01*
X390960Y302062D01*
X390959Y302061D01*
X390982Y301852D01*
X391003Y301663D01*
X391003Y301662D01*
X391003Y301661D01*
X391062Y301477D01*
X391124Y301279D01*
X391125Y301278D01*
X391125Y301277D01*
X391223Y301101D01*
X391319Y300926D01*
X391320Y300926D01*
X391320Y300925D01*
X391451Y300771D01*
X391580Y300619D01*
X391581Y300618D01*
X391738Y300494D01*
X391896Y300370D01*
X391896Y300369D01*
X391897Y300369D01*
X392059Y300287D01*
X392255Y300187D01*
X392256Y300187D01*
X392419Y300142D01*
X392642Y300079D01*
X392643Y300079D01*
X392644Y300079D01*
X392975Y300049D01*
X396566Y300021D01*
X396592Y300023D01*
G37*
%LPC*%
G36*
X404936Y207256D02*
X404936Y207256D01*
X402706Y208180D01*
X400998Y209887D01*
X400074Y212117D01*
X400074Y214532D01*
X400998Y216762D01*
X402606Y218370D01*
X402623Y218390D01*
X402643Y218408D01*
X402750Y218546D01*
X402861Y218681D01*
X402873Y218705D01*
X402890Y218726D01*
X402968Y218883D01*
X403050Y219037D01*
X403057Y219062D01*
X403069Y219086D01*
X403115Y219256D01*
X403164Y219423D01*
X403167Y219449D01*
X403174Y219475D01*
X403201Y219806D01*
X403201Y227310D01*
X404540Y228649D01*
X411435Y228649D01*
X412808Y227276D01*
X412828Y227259D01*
X412846Y227239D01*
X412984Y227132D01*
X413119Y227021D01*
X413143Y227009D01*
X413164Y226992D01*
X413321Y226914D01*
X413475Y226832D01*
X413501Y226825D01*
X413525Y226813D01*
X413694Y226767D01*
X413861Y226718D01*
X413887Y226715D01*
X413913Y226708D01*
X414244Y226681D01*
X420781Y226681D01*
X420808Y226684D01*
X420834Y226682D01*
X421008Y226704D01*
X421182Y226721D01*
X421207Y226729D01*
X421234Y226732D01*
X421400Y226788D01*
X421566Y226839D01*
X421590Y226852D01*
X421615Y226861D01*
X421767Y226948D01*
X421921Y227031D01*
X421941Y227048D01*
X421964Y227062D01*
X422217Y227276D01*
X423590Y228649D01*
X430485Y228649D01*
X431824Y227310D01*
X431824Y217415D01*
X430485Y216076D01*
X423590Y216076D01*
X422217Y217449D01*
X422197Y217466D01*
X422179Y217486D01*
X422041Y217593D01*
X421906Y217704D01*
X421882Y217716D01*
X421861Y217733D01*
X421704Y217811D01*
X421550Y217893D01*
X421524Y217900D01*
X421500Y217912D01*
X421331Y217958D01*
X421164Y218007D01*
X421138Y218010D01*
X421112Y218017D01*
X420781Y218044D01*
X420143Y218044D01*
X420116Y218041D01*
X420089Y218043D01*
X419916Y218021D01*
X419742Y218004D01*
X419717Y217996D01*
X419690Y217993D01*
X419524Y217937D01*
X419357Y217886D01*
X419334Y217873D01*
X419308Y217864D01*
X419157Y217777D01*
X419003Y217694D01*
X418983Y217677D01*
X418959Y217664D01*
X418706Y217449D01*
X412421Y211164D01*
X411675Y210418D01*
X411655Y210393D01*
X411632Y210373D01*
X411528Y210238D01*
X411420Y210106D01*
X411405Y210078D01*
X411386Y210054D01*
X411314Y209913D01*
X409581Y208180D01*
X407350Y207256D01*
X404936Y207256D01*
G37*
%LPD*%
%LPC*%
G36*
X448334Y358393D02*
X448334Y358393D01*
X442531Y364197D01*
X442531Y372403D01*
X448334Y378207D01*
X456541Y378207D01*
X462344Y372403D01*
X462344Y364197D01*
X456541Y358393D01*
X448334Y358393D01*
G37*
%LPD*%
D10*
X295275Y215463D03*
X295275Y200463D03*
D11*
X374088Y273050D03*
X391088Y273050D03*
D12*
X514350Y341088D03*
X431750Y197988D03*
X266550Y197988D03*
X183950Y341088D03*
X473050Y412588D03*
X473050Y269588D03*
X349150Y197988D03*
X225250Y269588D03*
X225250Y412588D03*
D13*
X452438Y368300D03*
D14*
X222250Y368300D03*
X222250Y342900D03*
X222250Y317500D03*
D15*
X288663Y421000D03*
X288663Y413000D03*
X288663Y405000D03*
X288663Y397000D03*
X288663Y389000D03*
X288663Y381000D03*
X288663Y373000D03*
X288663Y365000D03*
X288663Y357000D03*
X288663Y349000D03*
X288663Y341000D03*
D16*
X299663Y332000D03*
X307663Y332000D03*
X315663Y332000D03*
X323663Y332000D03*
X331663Y332000D03*
X339663Y332000D03*
X347663Y332000D03*
X355663Y332000D03*
X363663Y332000D03*
X371663Y332000D03*
X379663Y332000D03*
X387663Y332000D03*
X395663Y332000D03*
D15*
X406663Y341000D03*
X406663Y349000D03*
X406663Y357000D03*
X406663Y365000D03*
X406663Y373000D03*
X406663Y381000D03*
X406663Y389000D03*
X406663Y397000D03*
X406663Y405000D03*
X406663Y413000D03*
X406663Y421000D03*
D16*
X395663Y430000D03*
X387663Y430000D03*
X379663Y430000D03*
X371663Y430000D03*
X363663Y430000D03*
X355663Y430000D03*
X347663Y430000D03*
X339663Y430000D03*
X331663Y430000D03*
X323663Y430000D03*
X315663Y430000D03*
X307663Y430000D03*
X299663Y430000D03*
D17*
X347663Y381000D03*
X367413Y400750D03*
X347663Y400750D03*
X327913Y400750D03*
X327913Y381000D03*
X327913Y361250D03*
X347663Y361250D03*
X367413Y361250D03*
X367413Y381000D03*
D18*
X288163Y430500D03*
X288163Y331500D03*
X407163Y331500D03*
X407163Y430500D03*
D19*
X283313Y259438D02*
X272313Y259438D01*
X272313Y264438D01*
X283313Y264438D01*
X283313Y259438D01*
X283313Y264188D02*
X272313Y264188D01*
X296125Y264438D02*
X307125Y264438D01*
X307125Y259438D01*
X296125Y259438D01*
X296125Y264438D01*
X296125Y264188D02*
X307125Y264188D01*
X321525Y259438D02*
X332525Y259438D01*
X321525Y259438D02*
X321525Y264438D01*
X332525Y264438D01*
X332525Y259438D01*
X332525Y264188D02*
X321525Y264188D01*
X346925Y257850D02*
X357925Y257850D01*
X346925Y257850D02*
X346925Y262850D01*
X357925Y262850D01*
X357925Y257850D01*
X357925Y262600D02*
X346925Y262600D01*
D20*
X374650Y302188D03*
X374650Y285188D03*
X325438Y305363D03*
X325438Y288363D03*
D19*
X429538Y369150D02*
X429538Y380150D01*
X429538Y369150D02*
X424538Y369150D01*
X424538Y380150D01*
X429538Y380150D01*
X429538Y373900D02*
X424538Y373900D01*
X424538Y378650D02*
X429538Y378650D01*
X429538Y388200D02*
X429538Y399200D01*
X429538Y388200D02*
X424538Y388200D01*
X424538Y399200D01*
X429538Y399200D01*
X429538Y392950D02*
X424538Y392950D01*
X424538Y397700D02*
X429538Y397700D01*
X413488Y254675D02*
X402488Y254675D01*
X402488Y259675D01*
X413488Y259675D01*
X413488Y254675D01*
X413488Y259425D02*
X402488Y259425D01*
X421538Y254675D02*
X432538Y254675D01*
X421538Y254675D02*
X421538Y259675D01*
X432538Y259675D01*
X432538Y254675D01*
X432538Y259425D02*
X421538Y259425D01*
D20*
X311150Y288363D03*
X311150Y305363D03*
D21*
X311150Y227125D03*
X311150Y249125D03*
X327025Y227125D03*
X327025Y249125D03*
X279400Y227125D03*
X279400Y249125D03*
X295275Y227125D03*
X295275Y249125D03*
D20*
X406400Y300600D03*
X406400Y283600D03*
X431800Y300600D03*
X431800Y283600D03*
X448238Y314325D03*
X431238Y314325D03*
X399488Y314325D03*
X416488Y314325D03*
D21*
X407988Y222363D03*
X407988Y244363D03*
X427038Y222363D03*
X427038Y244363D03*
D10*
X268288Y388500D03*
X268288Y373500D03*
D22*
X399488Y314325D02*
X407163Y322000D01*
X407163Y331500D01*
X417513Y222363D02*
X427038Y222363D01*
X417513Y222363D02*
X407988Y222363D01*
X408475Y213325D02*
X417513Y222363D01*
X408475Y213325D02*
X406143Y213325D01*
D23*
X406143Y213325D03*
X382152Y213325D03*
D24*
X367102Y228374D01*
X351368Y228374D01*
D23*
X351368Y228374D03*
D25*
X295275Y227125D02*
X279400Y227125D01*
X295275Y227125D02*
X306388Y227125D01*
X311150Y227125D01*
X327025Y227125D01*
X311150Y227125D02*
X311150Y219075D01*
D23*
X311150Y219075D03*
X254794Y242981D03*
D24*
X254794Y261825D02*
X254136Y262483D01*
X254794Y261825D02*
X254794Y242981D01*
D23*
X254136Y262483D03*
X478801Y341313D03*
D24*
X453037Y341313D01*
D23*
X453037Y341313D03*
X395288Y419100D03*
D22*
X395288Y429625D01*
X395663Y430000D01*
D23*
X382588Y419100D03*
X366713Y419100D03*
X352425Y419100D03*
X338138Y419100D03*
X323850Y419100D03*
X300038Y377825D03*
X300038Y350838D03*
X382588Y406400D03*
X393700Y406400D03*
X428625Y430213D03*
X446088Y404813D03*
X263525Y333375D03*
X203200Y366713D03*
X330200Y293688D03*
D22*
X325438Y288363D01*
D26*
X306388Y211575D02*
X295275Y200463D01*
X306388Y211575D02*
X306388Y227125D01*
D23*
X247650Y385763D03*
X398463Y320675D03*
X366713Y409575D03*
X352425Y409575D03*
X338138Y409575D03*
X323850Y409575D03*
X312738Y419100D03*
X357188Y400050D03*
X338138Y400050D03*
X369888Y390525D03*
X300038Y365125D03*
D22*
X398463Y320675D02*
X399488Y319650D01*
X399488Y314325D01*
D25*
X374088Y284625D02*
X374088Y273050D01*
X374088Y284625D02*
X374650Y285188D01*
D22*
X266550Y230038D02*
X266550Y197988D01*
X266550Y230038D02*
X276225Y239713D01*
X368300Y239713D01*
X410025Y197988D02*
X431750Y197988D01*
X410025Y197988D02*
X368300Y239713D01*
X507775Y341088D02*
X514350Y341088D01*
X206375Y319088D02*
X205950Y319088D01*
X210312Y312555D02*
X217305Y305562D01*
X210312Y315151D02*
X206375Y319088D01*
X210312Y315151D02*
X210312Y312555D01*
X217305Y305562D02*
X227838Y305562D01*
X265495Y256613D02*
X266550Y255558D01*
X266550Y230038D01*
X265495Y256613D02*
X265495Y267906D01*
X227838Y305562D01*
X431750Y214468D02*
X431750Y197988D01*
X440031Y222749D02*
X440031Y273343D01*
X440031Y222749D02*
X431750Y214468D01*
X440031Y273343D02*
X507775Y341088D01*
X259588Y352243D02*
X238307Y330962D01*
X286981Y403318D02*
X288663Y405000D01*
X238307Y330962D02*
X194076Y330962D01*
X259588Y352243D02*
X259588Y395495D01*
X277813Y403318D02*
X286981Y403318D01*
X277813Y403318D02*
X267411Y403318D01*
X259588Y395495D01*
D23*
X287338Y282489D03*
X277813Y409575D03*
D22*
X277813Y403318D01*
D25*
X463871Y403408D02*
X473050Y412588D01*
X463871Y403408D02*
X463871Y385216D01*
D23*
X463871Y385216D03*
D25*
X473050Y269588D02*
X451599Y248136D01*
X448680Y250458D01*
D23*
X448680Y250458D03*
D26*
X243169Y251499D02*
X243169Y241974D01*
X243169Y251499D02*
X231600Y263068D01*
X231600Y263238D02*
X225250Y269588D01*
X231600Y263238D02*
X231600Y263068D01*
D23*
X243169Y241974D03*
X288938Y215900D03*
D26*
X294838Y215900D02*
X295275Y215463D01*
X294838Y215900D02*
X288938Y215900D01*
X332139Y331523D02*
X331663Y332000D01*
X332139Y312064D02*
X325438Y305363D01*
X332139Y312064D02*
X332139Y331523D01*
D22*
X222250Y342900D02*
X222250Y368300D01*
D25*
X282450Y365000D02*
X288663Y365000D01*
X282450Y365000D02*
X277813Y360363D01*
X277813Y322263D01*
X280988Y319088D01*
X290513Y319088D02*
X298450Y311150D01*
X309563Y311150D01*
X314325Y311150D01*
X320039Y316864D01*
X324801Y316864D01*
D23*
X324801Y316864D03*
D25*
X290513Y319088D02*
X280988Y319088D01*
D26*
X309563Y311150D02*
X311150Y309563D01*
X311150Y305363D01*
D25*
X347663Y321474D02*
X347663Y332000D01*
X347663Y321474D02*
X346520Y320331D01*
X346520Y290563D01*
X332334Y276378D01*
X292253Y276378D02*
X277813Y261938D01*
X292253Y276378D02*
X332334Y276378D01*
X279400Y260350D02*
X279400Y249125D01*
X279400Y260350D02*
X277813Y261938D01*
D22*
X416488Y314325D02*
X416488Y343282D01*
X410769Y349000D01*
X406663Y349000D01*
X406900Y300600D02*
X406400Y300600D01*
X406900Y300600D02*
X416488Y310188D01*
X416488Y314325D01*
X406400Y258763D02*
X407988Y257175D01*
X406400Y258763D02*
X406400Y283600D01*
X407988Y257175D02*
X407988Y244363D01*
X427038Y257175D02*
X431800Y261938D01*
X431800Y283600D01*
X427038Y257175D02*
X427038Y244363D01*
X431238Y314325D02*
X431238Y337512D01*
X411750Y357000D01*
X406663Y357000D01*
X431800Y313763D02*
X431800Y300600D01*
X431800Y313763D02*
X431238Y314325D01*
D26*
X378813Y306351D02*
X378813Y331151D01*
X378813Y306351D02*
X374650Y302188D01*
X378813Y331151D02*
X379663Y332000D01*
D23*
X387350Y307895D03*
D26*
X388616Y331047D02*
X387663Y332000D01*
X387350Y330790D02*
X388616Y331047D01*
X387350Y330790D02*
X387350Y307895D01*
D25*
X387920Y276218D02*
X391088Y273050D01*
X387920Y276218D02*
X387920Y282575D01*
D23*
X387920Y282575D03*
D26*
X307663Y319088D02*
X307663Y332000D01*
X307663Y319088D02*
X307975Y319088D01*
D23*
X307975Y319088D03*
X274638Y374650D03*
D25*
X273488Y373500D01*
X268288Y373500D01*
X268288Y388500D02*
X275075Y388500D01*
X282575Y381000D01*
X288663Y381000D01*
D23*
X235638Y386486D03*
D25*
X225250Y396875D01*
X225250Y412588D01*
X288663Y389000D02*
X295244Y389000D01*
D23*
X295244Y389000D03*
X363538Y319088D03*
D25*
X358775Y314325D01*
X358775Y286762D01*
X333951Y261938D01*
X327025Y261938D01*
X314213Y249125D01*
X311150Y249125D01*
D22*
X363538Y319088D02*
X363538Y321920D01*
X363375Y322082D01*
X363375Y331713D01*
X363663Y332000D01*
D23*
X371475Y325438D03*
D25*
X365278Y273203D02*
X352425Y260350D01*
X371475Y314901D02*
X371475Y325438D01*
X371475Y314901D02*
X365278Y308703D01*
X365278Y273203D01*
X330313Y252413D02*
X327025Y249125D01*
X330313Y252413D02*
X347663Y252413D01*
X352425Y257175D01*
X352425Y260350D01*
D22*
X371475Y325438D02*
X371475Y331813D01*
X371663Y332000D01*
D23*
X354013Y341313D03*
D25*
X355663Y332000D02*
X355663Y321931D01*
X351854Y318122D01*
X300831Y262731D02*
X301625Y261938D01*
X300831Y262731D02*
X299244Y262731D01*
X307260Y270748D01*
X355663Y332000D02*
X354013Y333650D01*
X354013Y341313D01*
X295275Y255588D02*
X295275Y249125D01*
X295275Y255588D02*
X301625Y261938D01*
D26*
X351854Y288713D02*
X351854Y318122D01*
X351854Y288713D02*
X333888Y270748D01*
X307260Y270748D01*
X351643Y200481D02*
X349150Y197988D01*
X351643Y200481D02*
X381443Y200481D01*
D23*
X381443Y200481D03*
X398463Y381000D03*
D26*
X406663Y381000D01*
D22*
X420688Y381000D01*
X427038Y374650D01*
D23*
X417513Y390525D03*
D22*
X417513Y389000D02*
X406663Y389000D01*
X417513Y389000D02*
X422338Y389000D01*
X427038Y393700D01*
X417513Y390525D02*
X417513Y389000D01*
M02*
