G04 EAGLE Gerber RS-274X export*
G75*
%MOMM*%
%FSLAX34Y34*%
%LPD*%
%INBottom Copper*%
%IPPOS*%
%AMOC8*
5,1,8,0,0,1.08239X$1,22.5*%
G01*
%ADD10R,1.000000X1.100000*%
%ADD11R,1.500000X1.300000*%
%ADD12R,1.100000X1.000000*%
%ADD13C,0.124994*%
%ADD14R,5.699988X5.699988*%
%ADD15R,1.399997X0.400000*%
%ADD16C,0.499997*%
%ADD17C,1.000000*%
%ADD18C,0.254000*%
%ADD19C,0.756400*%
%ADD20C,0.203200*%

G36*
X-67634Y-150688D02*
X-67634Y-150688D01*
X-67606Y-150691D01*
X-67538Y-150669D01*
X-67467Y-150654D01*
X-67444Y-150638D01*
X-67417Y-150629D01*
X-67362Y-150582D01*
X-67303Y-150542D01*
X-67288Y-150518D01*
X-67266Y-150499D01*
X-67235Y-150435D01*
X-67196Y-150374D01*
X-67191Y-150346D01*
X-67179Y-150321D01*
X-67170Y-150219D01*
X-67163Y-150178D01*
X-67165Y-150168D01*
X-67164Y-150155D01*
X-67221Y-149440D01*
X-28816Y-149440D01*
X-28812Y-149436D01*
X-28808Y-149436D01*
X-28782Y-149410D01*
X-28781Y-149406D01*
X-28780Y-149405D01*
X-28781Y-149405D01*
X-28778Y-149403D01*
X-28570Y-146623D01*
X-28573Y-146619D01*
X-28572Y-146616D01*
X-28650Y-146491D01*
X-28516Y-145907D01*
X-28517Y-145906D01*
X-28516Y-145905D01*
X-28471Y-145307D01*
X-28360Y-145211D01*
X-28359Y-145206D01*
X-28356Y-145204D01*
X-27719Y-142414D01*
X-27721Y-142410D01*
X-27720Y-142407D01*
X-27779Y-142272D01*
X-27560Y-141714D01*
X-27560Y-141713D01*
X-27559Y-141712D01*
X-27425Y-141127D01*
X-27301Y-141049D01*
X-27300Y-141044D01*
X-27296Y-141043D01*
X-26251Y-138379D01*
X-26252Y-138374D01*
X-26250Y-138371D01*
X-26288Y-138229D01*
X-25988Y-137710D01*
X-25989Y-137709D01*
X-25988Y-137708D01*
X-25768Y-137150D01*
X-25634Y-137091D01*
X-25632Y-137087D01*
X-25628Y-137086D01*
X-24197Y-134608D01*
X-24198Y-134603D01*
X-24196Y-134600D01*
X-24212Y-134454D01*
X-23838Y-133985D01*
X-23838Y-133984D01*
X-23837Y-133984D01*
X-23537Y-133464D01*
X-23395Y-133426D01*
X-23393Y-133422D01*
X-23389Y-133422D01*
X-21604Y-131184D01*
X-21605Y-131180D01*
X-21602Y-131177D01*
X-21596Y-131031D01*
X-21157Y-130623D01*
X-21157Y-130621D01*
X-21155Y-130621D01*
X-20781Y-130152D01*
X-20635Y-130136D01*
X-20632Y-130132D01*
X-20629Y-130133D01*
X-18531Y-128186D01*
X-18530Y-128181D01*
X-18527Y-128180D01*
X-18500Y-128035D01*
X-18004Y-127697D01*
X-18004Y-127696D01*
X-18003Y-127696D01*
X-17563Y-127288D01*
X-17416Y-127294D01*
X-17412Y-127291D01*
X-17409Y-127292D01*
X-15044Y-125679D01*
X-15043Y-125675D01*
X-15040Y-125673D01*
X-14991Y-125535D01*
X-14450Y-125274D01*
X-14450Y-125273D01*
X-14449Y-125273D01*
X-13953Y-124936D01*
X-13809Y-124963D01*
X-13805Y-124961D01*
X-13802Y-124962D01*
X-11223Y-123720D01*
X-11221Y-123716D01*
X-11218Y-123715D01*
X-11149Y-123585D01*
X-10576Y-123408D01*
X-10575Y-123407D01*
X-10574Y-123408D01*
X-10034Y-123147D01*
X-9895Y-123196D01*
X-9891Y-123194D01*
X-9887Y-123196D01*
X-7152Y-122352D01*
X-7150Y-122348D01*
X-7146Y-122348D01*
X-7059Y-122230D01*
X-6466Y-122140D01*
X-6465Y-122139D01*
X-6464Y-122140D01*
X-5891Y-121963D01*
X-5761Y-122032D01*
X-5759Y-122031D01*
X-5756Y-122031D01*
X-5754Y-122033D01*
X-2924Y-121607D01*
X-2921Y-121603D01*
X-2917Y-121603D01*
X-2813Y-121499D01*
X-2213Y-121499D01*
X-2212Y-121498D01*
X-2212Y-121499D01*
X-1618Y-121410D01*
X-1500Y-121497D01*
X-1495Y-121497D01*
X-1493Y-121499D01*
X1369Y-121499D01*
X1373Y-121496D01*
X1376Y-121497D01*
X1494Y-121410D01*
X2088Y-121499D01*
X2089Y-121498D01*
X2089Y-121499D01*
X2689Y-121499D01*
X2793Y-121603D01*
X2798Y-121603D01*
X2800Y-121607D01*
X5630Y-122033D01*
X5633Y-122031D01*
X5635Y-122031D01*
X5636Y-122031D01*
X5637Y-122032D01*
X5767Y-121963D01*
X6340Y-122140D01*
X6342Y-122140D01*
X6935Y-122230D01*
X7023Y-122348D01*
X7027Y-122349D01*
X7029Y-122352D01*
X9764Y-123196D01*
X9768Y-123194D01*
X9771Y-123196D01*
X9910Y-123147D01*
X10450Y-123408D01*
X10451Y-123407D01*
X10452Y-123408D01*
X11025Y-123585D01*
X11094Y-123715D01*
X11098Y-123717D01*
X11099Y-123720D01*
X13678Y-124962D01*
X13682Y-124961D01*
X13685Y-124963D01*
X13830Y-124936D01*
X14325Y-125273D01*
X14326Y-125273D01*
X14327Y-125274D01*
X14345Y-125283D01*
X14354Y-125281D01*
X14359Y-125281D01*
X18429Y-121211D01*
X18429Y-121207D01*
X18429Y-121205D01*
X18432Y-121203D01*
X18432Y-114010D01*
X18429Y-114007D01*
X18430Y-114003D01*
X18425Y-114003D01*
X18422Y-113998D01*
X18419Y-114000D01*
X18418Y-114000D01*
X18416Y-114002D01*
X18412Y-114002D01*
X16744Y-115670D01*
X12558Y-115670D01*
X9598Y-112710D01*
X9598Y-108524D01*
X11576Y-106546D01*
X11577Y-106540D01*
X11580Y-106537D01*
X11580Y-106359D01*
X11577Y-106356D01*
X11577Y-106352D01*
X11573Y-106352D01*
X11569Y-106347D01*
X11565Y-106351D01*
X11559Y-106351D01*
X9660Y-108250D01*
X5474Y-108250D01*
X2514Y-105291D01*
X2514Y-101105D01*
X5474Y-98145D01*
X6568Y-98145D01*
X6580Y-98135D01*
X6579Y-98134D01*
X6580Y-98133D01*
X6580Y-96521D01*
X6577Y-96518D01*
X6577Y-96513D01*
X6573Y-96513D01*
X6569Y-96509D01*
X6565Y-96513D01*
X6559Y-96512D01*
X5531Y-97541D01*
X2710Y-97541D01*
X1629Y-96460D01*
X1613Y-96459D01*
X1613Y-96460D01*
X1612Y-96460D01*
X531Y-97541D01*
X-2290Y-97541D01*
X-3371Y-96460D01*
X-3387Y-96459D01*
X-3387Y-96460D01*
X-3388Y-96460D01*
X-4286Y-97357D01*
X-4286Y-97361D01*
X-4287Y-97362D01*
X-4289Y-97364D01*
X-4286Y-97368D01*
X-4287Y-97373D01*
X-4281Y-97374D01*
X-4277Y-97378D01*
X-3365Y-97378D01*
X-406Y-100338D01*
X-406Y-104524D01*
X-3366Y-107483D01*
X-5777Y-107483D01*
X-5780Y-107486D01*
X-5785Y-107486D01*
X-5785Y-107490D01*
X-5789Y-107494D01*
X-5785Y-107498D01*
X-5786Y-107504D01*
X-5123Y-108166D01*
X-5123Y-112352D01*
X-8083Y-115312D01*
X-12269Y-115312D01*
X-15228Y-112352D01*
X-15228Y-108166D01*
X-14559Y-107497D01*
X-14559Y-107493D01*
X-14557Y-107491D01*
X-14557Y-107490D01*
X-14555Y-107488D01*
X-14555Y-105060D01*
X-14559Y-105056D01*
X-14559Y-105051D01*
X-18420Y-101190D01*
X-18420Y-91718D01*
X-18404Y-91701D01*
X-18403Y-91696D01*
X-18400Y-91693D01*
X-18400Y-89110D01*
X-17290Y-88000D01*
X-14469Y-88000D01*
X-13388Y-89081D01*
X-13383Y-89081D01*
X-13382Y-89081D01*
X-13380Y-89081D01*
X-13372Y-89082D01*
X-13372Y-89081D01*
X-13371Y-89081D01*
X-12290Y-88000D01*
X-9469Y-88000D01*
X-8388Y-89081D01*
X-8383Y-89081D01*
X-8382Y-89081D01*
X-8380Y-89081D01*
X-8372Y-89082D01*
X-8372Y-89081D01*
X-8371Y-89081D01*
X-7290Y-88000D01*
X-4469Y-88000D01*
X-3388Y-89081D01*
X-3383Y-89081D01*
X-3382Y-89081D01*
X-3380Y-89081D01*
X-3372Y-89082D01*
X-3372Y-89081D01*
X-3371Y-89081D01*
X-2290Y-88000D01*
X531Y-88000D01*
X1612Y-89081D01*
X1617Y-89081D01*
X1618Y-89081D01*
X1620Y-89081D01*
X1628Y-89082D01*
X1628Y-89081D01*
X1629Y-89081D01*
X2710Y-88000D01*
X5531Y-88000D01*
X6612Y-89081D01*
X6617Y-89081D01*
X6618Y-89081D01*
X6620Y-89081D01*
X6628Y-89082D01*
X6628Y-89081D01*
X6629Y-89081D01*
X7710Y-88000D01*
X10531Y-88000D01*
X11612Y-89081D01*
X11617Y-89081D01*
X11618Y-89081D01*
X11620Y-89081D01*
X11628Y-89082D01*
X11628Y-89081D01*
X11629Y-89081D01*
X12710Y-88000D01*
X15531Y-88000D01*
X16612Y-89081D01*
X16617Y-89081D01*
X16618Y-89081D01*
X16620Y-89081D01*
X16628Y-89082D01*
X16628Y-89081D01*
X16629Y-89081D01*
X17710Y-88000D01*
X20531Y-88000D01*
X21612Y-89081D01*
X21617Y-89081D01*
X21618Y-89081D01*
X21620Y-89081D01*
X21628Y-89082D01*
X21628Y-89081D01*
X21629Y-89081D01*
X22710Y-88000D01*
X25531Y-88000D01*
X26612Y-89081D01*
X26617Y-89081D01*
X26618Y-89081D01*
X26620Y-89081D01*
X26628Y-89082D01*
X26628Y-89081D01*
X26629Y-89081D01*
X27710Y-88000D01*
X30531Y-88000D01*
X31641Y-89110D01*
X31641Y-91693D01*
X31645Y-91697D01*
X31645Y-91701D01*
X31661Y-91718D01*
X31661Y-99082D01*
X31665Y-99086D01*
X31665Y-99090D01*
X44391Y-111817D01*
X44397Y-111817D01*
X44400Y-111820D01*
X91285Y-111820D01*
X91290Y-111816D01*
X91294Y-111817D01*
X103709Y-99402D01*
X103709Y-99398D01*
X103712Y-99395D01*
X103709Y-99392D01*
X103710Y-99386D01*
X103704Y-99386D01*
X103700Y-99381D01*
X101620Y-99381D01*
X101616Y-99385D01*
X101612Y-99385D01*
X89719Y-111278D01*
X46329Y-111278D01*
X33580Y-98529D01*
X33580Y-88303D01*
X33569Y-88291D01*
X33569Y-88292D01*
X33568Y-88291D01*
X32460Y-88291D01*
X31350Y-87180D01*
X31350Y-84360D01*
X32431Y-83279D01*
X32432Y-83263D01*
X32431Y-83263D01*
X32431Y-83262D01*
X31350Y-82180D01*
X31350Y-79360D01*
X32431Y-78279D01*
X32432Y-78263D01*
X32431Y-78263D01*
X32431Y-78262D01*
X31350Y-77180D01*
X31350Y-74360D01*
X32431Y-73279D01*
X32431Y-73274D01*
X32434Y-73272D01*
X32432Y-73270D01*
X32432Y-73263D01*
X32431Y-73263D01*
X32431Y-73262D01*
X31350Y-72180D01*
X31350Y-69360D01*
X32431Y-68279D01*
X32432Y-68270D01*
X32432Y-68269D01*
X32432Y-68263D01*
X32431Y-68263D01*
X32431Y-68262D01*
X31350Y-67180D01*
X31350Y-64360D01*
X32431Y-63279D01*
X32432Y-63263D01*
X32431Y-63263D01*
X32431Y-63262D01*
X31350Y-62180D01*
X31350Y-59360D01*
X32431Y-58279D01*
X32432Y-58263D01*
X32431Y-58263D01*
X32431Y-58262D01*
X31350Y-57180D01*
X31350Y-54360D01*
X32431Y-53279D01*
X32431Y-53275D01*
X32434Y-53272D01*
X32432Y-53270D01*
X32432Y-53263D01*
X32431Y-53263D01*
X32431Y-53262D01*
X31350Y-52180D01*
X31350Y-49360D01*
X32431Y-48279D01*
X32432Y-48270D01*
X32432Y-48269D01*
X32432Y-48263D01*
X32431Y-48263D01*
X32431Y-48262D01*
X31350Y-47180D01*
X31350Y-44360D01*
X32431Y-43279D01*
X32432Y-43263D01*
X32431Y-43263D01*
X32431Y-43262D01*
X31350Y-42180D01*
X31350Y-39360D01*
X32431Y-38279D01*
X32432Y-38263D01*
X32431Y-38263D01*
X32431Y-38262D01*
X31350Y-37180D01*
X31350Y-34360D01*
X32431Y-33279D01*
X32431Y-33275D01*
X32434Y-33273D01*
X32432Y-33270D01*
X32432Y-33263D01*
X32431Y-33263D01*
X32431Y-33262D01*
X31350Y-32180D01*
X31350Y-29598D01*
X31346Y-29593D01*
X31346Y-29589D01*
X30302Y-28544D01*
X30296Y-28544D01*
X30296Y-28543D01*
X30295Y-28543D01*
X30293Y-28541D01*
X27710Y-28541D01*
X26600Y-27430D01*
X26600Y-24848D01*
X26596Y-24843D01*
X26596Y-24839D01*
X26523Y-24766D01*
X26523Y-13608D01*
X26513Y-13596D01*
X26512Y-13597D01*
X26511Y-13596D01*
X23037Y-13596D01*
X22293Y-12852D01*
X22293Y-1799D01*
X23037Y-1055D01*
X26443Y-1055D01*
X26454Y-1044D01*
X26454Y-1043D01*
X26455Y-1043D01*
X26455Y7969D01*
X26444Y7981D01*
X26443Y7980D01*
X26443Y7981D01*
X22969Y7981D01*
X22225Y8726D01*
X22225Y19778D01*
X22969Y20523D01*
X35022Y20523D01*
X35766Y19778D01*
X35766Y8726D01*
X35022Y7981D01*
X31548Y7981D01*
X31536Y7971D01*
X31537Y7970D01*
X31536Y7969D01*
X31536Y-1043D01*
X31546Y-1055D01*
X31547Y-1054D01*
X31548Y-1055D01*
X35090Y-1055D01*
X35835Y-1799D01*
X35835Y-12852D01*
X35090Y-13596D01*
X31616Y-13596D01*
X31605Y-13607D01*
X31605Y-13608D01*
X31605Y-20068D01*
X31608Y-20073D01*
X31608Y-20077D01*
X31641Y-20110D01*
X31641Y-22693D01*
X31645Y-22697D01*
X31645Y-22701D01*
X31665Y-22721D01*
X37169Y-28226D01*
X37175Y-28226D01*
X37178Y-28229D01*
X40285Y-28229D01*
X40290Y-28226D01*
X40294Y-28226D01*
X41976Y-26544D01*
X41976Y-26538D01*
X41980Y-26535D01*
X41980Y-18074D01*
X48308Y-11746D01*
X74973Y-11746D01*
X88250Y-25023D01*
X88255Y-25023D01*
X88256Y-25025D01*
X88258Y-25027D01*
X93931Y-25027D01*
X93943Y-25016D01*
X93942Y-25015D01*
X93943Y-25015D01*
X93943Y-22041D01*
X94687Y-21297D01*
X106740Y-21297D01*
X107484Y-22041D01*
X107484Y-25015D01*
X107495Y-25026D01*
X107496Y-25027D01*
X139758Y-25027D01*
X139763Y-25023D01*
X139767Y-25023D01*
X148088Y-16701D01*
X148089Y-16697D01*
X148091Y-16696D01*
X148090Y-16695D01*
X148092Y-16693D01*
X148092Y-13145D01*
X151052Y-10186D01*
X155238Y-10186D01*
X158197Y-13145D01*
X158197Y-17331D01*
X155238Y-20291D01*
X151690Y-20291D01*
X151686Y-20295D01*
X151682Y-20295D01*
X141868Y-30108D01*
X107496Y-30108D01*
X107484Y-30118D01*
X107485Y-30119D01*
X107484Y-30120D01*
X107484Y-33094D01*
X106740Y-33838D01*
X94687Y-33838D01*
X93943Y-33094D01*
X93943Y-30120D01*
X93932Y-30108D01*
X93932Y-30109D01*
X93931Y-30108D01*
X87414Y-30108D01*
X87411Y-30111D01*
X87407Y-30111D01*
X87407Y-30115D01*
X87403Y-30118D01*
X87406Y-30123D01*
X87406Y-30128D01*
X89962Y-32684D01*
X91453Y-34176D01*
X91453Y-76282D01*
X91166Y-76570D01*
X91166Y-76576D01*
X91162Y-76578D01*
X91162Y-84665D01*
X91165Y-84668D01*
X91165Y-84673D01*
X91169Y-84673D01*
X91173Y-84677D01*
X91174Y-84676D01*
X91174Y-84677D01*
X91175Y-84677D01*
X91179Y-84673D01*
X91183Y-84674D01*
X91822Y-84035D01*
X91822Y-84029D01*
X91825Y-84026D01*
X91825Y-49862D01*
X93939Y-47748D01*
X93940Y-47744D01*
X93941Y-47743D01*
X93941Y-47742D01*
X93943Y-47740D01*
X93943Y-39041D01*
X94687Y-38297D01*
X106740Y-38297D01*
X107484Y-39041D01*
X107484Y-50094D01*
X106740Y-50838D01*
X98041Y-50838D01*
X98037Y-50842D01*
X98032Y-50842D01*
X96910Y-51964D01*
X96910Y-51969D01*
X96907Y-51972D01*
X96907Y-86136D01*
X91166Y-91877D01*
X91166Y-91881D01*
X91166Y-91882D01*
X91162Y-91885D01*
X91162Y-102619D01*
X91165Y-102622D01*
X91165Y-102627D01*
X91169Y-102627D01*
X91173Y-102631D01*
X91174Y-102630D01*
X91176Y-102630D01*
X91179Y-102627D01*
X91183Y-102628D01*
X98019Y-95792D01*
X98019Y-95788D01*
X98022Y-95785D01*
X98021Y-95785D01*
X98022Y-95783D01*
X98022Y-92236D01*
X100982Y-89276D01*
X104795Y-89276D01*
X104798Y-89274D01*
X104800Y-89275D01*
X104802Y-89270D01*
X104807Y-89265D01*
X104805Y-89263D01*
X104806Y-89262D01*
X104805Y-89261D01*
X104806Y-89258D01*
X104262Y-88317D01*
X104258Y-88316D01*
X104257Y-88312D01*
X104122Y-88254D01*
X103903Y-87695D01*
X103902Y-87695D01*
X103902Y-87694D01*
X103602Y-87174D01*
X103640Y-87033D01*
X103638Y-87028D01*
X103640Y-87025D01*
X102592Y-84359D01*
X102588Y-84357D01*
X102587Y-84353D01*
X102463Y-84275D01*
X102329Y-83691D01*
X102328Y-83690D01*
X102329Y-83689D01*
X102110Y-83130D01*
X102168Y-82996D01*
X102167Y-82992D01*
X102169Y-82991D01*
X102168Y-82990D01*
X102169Y-82988D01*
X101531Y-80196D01*
X101527Y-80193D01*
X101527Y-80189D01*
X101415Y-80094D01*
X101370Y-79496D01*
X101370Y-79495D01*
X101370Y-79494D01*
X101236Y-78909D01*
X101315Y-78785D01*
X101314Y-78780D01*
X101315Y-78779D01*
X101316Y-78778D01*
X101316Y-78777D01*
X101101Y-75921D01*
X101098Y-75918D01*
X101099Y-75914D01*
X101003Y-75803D01*
X101047Y-75204D01*
X101047Y-75203D01*
X101002Y-74605D01*
X101098Y-74493D01*
X101098Y-74489D01*
X101101Y-74486D01*
X101314Y-71630D01*
X101311Y-71626D01*
X101312Y-71623D01*
X101234Y-71498D01*
X101367Y-70914D01*
X101367Y-70913D01*
X101368Y-70912D01*
X101412Y-70314D01*
X101524Y-70218D01*
X101524Y-70213D01*
X101527Y-70211D01*
X102164Y-67418D01*
X102162Y-67414D01*
X102163Y-67411D01*
X102104Y-67276D01*
X102323Y-66718D01*
X102323Y-66717D01*
X102324Y-66716D01*
X102457Y-66131D01*
X102582Y-66053D01*
X102583Y-66049D01*
X102586Y-66048D01*
X103632Y-63381D01*
X103630Y-63376D01*
X103632Y-63373D01*
X103594Y-63231D01*
X103894Y-62712D01*
X103894Y-62711D01*
X103895Y-62710D01*
X104114Y-62152D01*
X104248Y-62093D01*
X104250Y-62089D01*
X104254Y-62088D01*
X105685Y-59607D01*
X105685Y-59605D01*
X105686Y-59604D01*
X105685Y-59602D01*
X105687Y-59599D01*
X105671Y-59454D01*
X106044Y-58985D01*
X106044Y-58983D01*
X106045Y-58983D01*
X106345Y-58463D01*
X106487Y-58425D01*
X106490Y-58421D01*
X106493Y-58421D01*
X108278Y-56181D01*
X108278Y-56176D01*
X108281Y-56174D01*
X108286Y-56027D01*
X108726Y-55619D01*
X108726Y-55618D01*
X108727Y-55618D01*
X109101Y-55149D01*
X109247Y-55132D01*
X109250Y-55129D01*
X109254Y-55129D01*
X111353Y-53180D01*
X111354Y-53176D01*
X111357Y-53174D01*
X111384Y-53029D01*
X111879Y-52691D01*
X111880Y-52690D01*
X111881Y-52690D01*
X112320Y-52282D01*
X112467Y-52287D01*
X112471Y-52285D01*
X112474Y-52285D01*
X114841Y-50671D01*
X114842Y-50667D01*
X114845Y-50665D01*
X114894Y-50527D01*
X115434Y-50266D01*
X115435Y-50265D01*
X115436Y-50265D01*
X115931Y-49927D01*
X116075Y-49954D01*
X116079Y-49952D01*
X116083Y-49953D01*
X118663Y-48710D01*
X118665Y-48705D01*
X118668Y-48705D01*
X118737Y-48575D01*
X119310Y-48398D01*
X119311Y-48397D01*
X119312Y-48397D01*
X119852Y-48137D01*
X119991Y-48185D01*
X119993Y-48184D01*
X119997Y-48184D01*
X119998Y-48185D01*
X122735Y-47340D01*
X122738Y-47336D01*
X122741Y-47336D01*
X122829Y-47217D01*
X123422Y-47128D01*
X123423Y-47127D01*
X123997Y-46950D01*
X124126Y-47019D01*
X124131Y-47018D01*
X124134Y-47020D01*
X126966Y-46592D01*
X126969Y-46589D01*
X126973Y-46589D01*
X127077Y-46485D01*
X127676Y-46485D01*
X127677Y-46485D01*
X127678Y-46485D01*
X128271Y-46395D01*
X128390Y-46483D01*
X128394Y-46482D01*
X128396Y-46485D01*
X128397Y-46485D01*
X129088Y-46485D01*
X129187Y-46485D01*
X131261Y-46484D01*
X131265Y-46481D01*
X131268Y-46482D01*
X131386Y-46394D01*
X131980Y-46484D01*
X131981Y-46483D01*
X131981Y-46484D01*
X132581Y-46483D01*
X132685Y-46587D01*
X132690Y-46588D01*
X132692Y-46591D01*
X135524Y-47017D01*
X135528Y-47014D01*
X135532Y-47015D01*
X135661Y-46947D01*
X136235Y-47123D01*
X136236Y-47123D01*
X136237Y-47124D01*
X136830Y-47213D01*
X136917Y-47331D01*
X136922Y-47332D01*
X136923Y-47335D01*
X139661Y-48179D01*
X139665Y-48177D01*
X139668Y-48179D01*
X139807Y-48130D01*
X140347Y-48390D01*
X140348Y-48390D01*
X140349Y-48391D01*
X140922Y-48568D01*
X140991Y-48697D01*
X140995Y-48699D01*
X140996Y-48703D01*
X143510Y-49912D01*
X143515Y-49911D01*
X143518Y-49913D01*
X143566Y-49900D01*
X143569Y-49895D01*
X143573Y-49895D01*
X162746Y-16685D01*
X163355Y-17105D01*
X163381Y-17117D01*
X163403Y-17135D01*
X163472Y-17156D01*
X163537Y-17184D01*
X163566Y-17184D01*
X163594Y-17192D01*
X163665Y-17184D01*
X163736Y-17184D01*
X163763Y-17173D01*
X163792Y-17170D01*
X163854Y-17135D01*
X163919Y-17107D01*
X163940Y-17086D01*
X163965Y-17072D01*
X164029Y-16995D01*
X164058Y-16964D01*
X164062Y-16954D01*
X164071Y-16944D01*
X173571Y-444D01*
X173581Y-412D01*
X173590Y-399D01*
X173594Y-375D01*
X173595Y-371D01*
X173626Y-300D01*
X173626Y-277D01*
X173634Y-255D01*
X173628Y-178D01*
X173629Y-101D01*
X173620Y-77D01*
X173618Y-57D01*
X173597Y-17D01*
X173571Y55D01*
X164071Y16555D01*
X164052Y16576D01*
X164039Y16603D01*
X163986Y16650D01*
X163939Y16704D01*
X163913Y16716D01*
X163892Y16736D01*
X163824Y16759D01*
X163760Y16790D01*
X163731Y16791D01*
X163704Y16800D01*
X163633Y16796D01*
X163561Y16799D01*
X163534Y16789D01*
X163505Y16787D01*
X163415Y16744D01*
X163375Y16730D01*
X163367Y16722D01*
X163355Y16716D01*
X162746Y16296D01*
X143573Y49505D01*
X143568Y49507D01*
X143566Y49511D01*
X143518Y49524D01*
X143513Y49522D01*
X143510Y49523D01*
X140996Y48314D01*
X140994Y48309D01*
X140991Y48308D01*
X140922Y48179D01*
X140349Y48002D01*
X140348Y48001D01*
X140347Y48001D01*
X139807Y47741D01*
X139668Y47790D01*
X139664Y47788D01*
X139660Y47790D01*
X136923Y46946D01*
X136921Y46942D01*
X136917Y46942D01*
X136830Y46824D01*
X136237Y46735D01*
X136236Y46734D01*
X136235Y46734D01*
X135661Y46558D01*
X135532Y46626D01*
X135527Y46625D01*
X135524Y46628D01*
X132692Y46202D01*
X132689Y46198D01*
X132685Y46198D01*
X132581Y46094D01*
X131981Y46095D01*
X131981Y46094D01*
X131980Y46095D01*
X131386Y46005D01*
X131268Y46093D01*
X131264Y46092D01*
X131264Y46093D01*
X131263Y46093D01*
X131261Y46095D01*
X128397Y46096D01*
X128393Y46093D01*
X128390Y46093D01*
X128271Y46006D01*
X127678Y46096D01*
X127677Y46095D01*
X127676Y46096D01*
X127077Y46096D01*
X126973Y46200D01*
X126968Y46200D01*
X126966Y46203D01*
X124134Y46631D01*
X124132Y46630D01*
X124129Y46630D01*
X124128Y46629D01*
X124126Y46630D01*
X123997Y46561D01*
X123991Y46563D01*
X123984Y46560D01*
X123979Y46560D01*
X122318Y44900D01*
X122318Y44894D01*
X122315Y44891D01*
X122315Y41344D01*
X119355Y38384D01*
X115169Y38384D01*
X112209Y41344D01*
X112209Y45529D01*
X115169Y48489D01*
X118261Y48489D01*
X118265Y48493D01*
X118271Y48495D01*
X118270Y48497D01*
X118273Y48500D01*
X118268Y48505D01*
X118266Y48512D01*
X116083Y49564D01*
X116078Y49563D01*
X116075Y49565D01*
X115931Y49538D01*
X115436Y49876D01*
X115434Y49876D01*
X115434Y49877D01*
X114894Y50137D01*
X114845Y50276D01*
X114841Y50278D01*
X114841Y50282D01*
X112474Y51896D01*
X112470Y51896D01*
X112467Y51898D01*
X112357Y51894D01*
X112320Y51893D01*
X111881Y52301D01*
X111880Y52301D01*
X111879Y52302D01*
X111384Y52640D01*
X111357Y52785D01*
X111353Y52788D01*
X111353Y52791D01*
X109254Y54740D01*
X109249Y54740D01*
X109247Y54743D01*
X109101Y54760D01*
X108727Y55229D01*
X108726Y55229D01*
X108726Y55230D01*
X108286Y55638D01*
X108281Y55785D01*
X108278Y55789D01*
X108278Y55792D01*
X106493Y58032D01*
X106489Y58033D01*
X106487Y58036D01*
X106345Y58074D01*
X106045Y58594D01*
X106044Y58594D01*
X106044Y58596D01*
X105671Y59065D01*
X105682Y59163D01*
X105687Y59210D01*
X105684Y59214D01*
X105685Y59218D01*
X104254Y61699D01*
X104250Y61700D01*
X104248Y61704D01*
X104114Y61763D01*
X103895Y62321D01*
X103894Y62322D01*
X103894Y62323D01*
X103594Y62842D01*
X103632Y62984D01*
X103630Y62988D01*
X103632Y62992D01*
X102586Y65658D01*
X102582Y65661D01*
X102582Y65664D01*
X102457Y65742D01*
X102324Y66327D01*
X102323Y66328D01*
X102323Y66329D01*
X102104Y66887D01*
X102163Y67022D01*
X102162Y67026D01*
X102164Y67029D01*
X101527Y69822D01*
X101524Y69825D01*
X101524Y69829D01*
X101412Y69924D01*
X101368Y70523D01*
X101367Y70524D01*
X101367Y70525D01*
X101234Y71109D01*
X101312Y71234D01*
X101312Y71238D01*
X101314Y71241D01*
X101101Y74097D01*
X101098Y74101D01*
X101098Y74104D01*
X101002Y74216D01*
X101047Y74814D01*
X101047Y74815D01*
X101003Y75414D01*
X101099Y75525D01*
X101099Y75528D01*
X101099Y75529D01*
X101099Y75530D01*
X101101Y75532D01*
X101316Y78388D01*
X101314Y78392D01*
X101315Y78396D01*
X101236Y78520D01*
X101370Y79105D01*
X101370Y79106D01*
X101415Y79705D01*
X101527Y79800D01*
X101527Y79805D01*
X101531Y79807D01*
X102169Y82599D01*
X102167Y82603D01*
X102168Y82607D01*
X102110Y82741D01*
X102329Y83300D01*
X102329Y83301D01*
X102329Y83302D01*
X102463Y83886D01*
X102587Y83964D01*
X102589Y83969D01*
X102592Y83970D01*
X103640Y86636D01*
X103638Y86641D01*
X103640Y86644D01*
X103602Y86785D01*
X103902Y87305D01*
X103902Y87306D01*
X103903Y87306D01*
X104122Y87865D01*
X104257Y87923D01*
X104259Y87928D01*
X104262Y87928D01*
X105695Y90409D01*
X105695Y90413D01*
X105697Y90415D01*
X105696Y90415D01*
X105697Y90416D01*
X105681Y90562D01*
X106055Y91031D01*
X106055Y91032D01*
X106056Y91032D01*
X106356Y91552D01*
X106498Y91590D01*
X106500Y91593D01*
X106504Y91594D01*
X108291Y93833D01*
X108290Y93837D01*
X108293Y93840D01*
X108299Y93986D01*
X108739Y94394D01*
X108739Y94395D01*
X108740Y94396D01*
X109114Y94864D01*
X109260Y94881D01*
X109263Y94884D01*
X109267Y94884D01*
X111367Y96832D01*
X111368Y96836D01*
X111369Y96837D01*
X111371Y96838D01*
X111398Y96982D01*
X111894Y97320D01*
X111894Y97321D01*
X111895Y97321D01*
X112335Y97729D01*
X112482Y97724D01*
X112486Y97727D01*
X112489Y97726D01*
X114794Y99296D01*
X114796Y99301D01*
X114799Y99303D01*
X114806Y99327D01*
X114803Y99332D01*
X114804Y99332D01*
X114803Y99333D01*
X114804Y99336D01*
X95624Y132557D01*
X96252Y132854D01*
X96275Y132871D01*
X96301Y132881D01*
X96353Y132930D01*
X96411Y132973D01*
X96425Y132998D01*
X96446Y133018D01*
X96475Y133083D01*
X96511Y133145D01*
X96514Y133173D01*
X96526Y133200D01*
X96527Y133272D01*
X96536Y133342D01*
X96528Y133370D01*
X96529Y133399D01*
X96494Y133493D01*
X96482Y133534D01*
X96475Y133542D01*
X96471Y133555D01*
X86971Y150055D01*
X86919Y150113D01*
X86873Y150176D01*
X86854Y150187D01*
X86839Y150204D01*
X86769Y150237D01*
X86702Y150277D01*
X86678Y150281D01*
X86660Y150290D01*
X86615Y150292D01*
X86538Y150305D01*
X67538Y150305D01*
X67510Y150299D01*
X67482Y150302D01*
X67414Y150279D01*
X67343Y150265D01*
X67320Y150249D01*
X67293Y150240D01*
X67239Y150193D01*
X67179Y150153D01*
X67164Y150129D01*
X67143Y150110D01*
X67111Y150046D01*
X67072Y149985D01*
X67068Y149957D01*
X67055Y149932D01*
X67046Y149830D01*
X67039Y149789D01*
X67042Y149779D01*
X67040Y149766D01*
X67097Y149051D01*
X-67221Y149051D01*
X-67164Y149766D01*
X-67168Y149794D01*
X-67163Y149822D01*
X-67180Y149892D01*
X-67188Y149963D01*
X-67202Y149988D01*
X-67209Y150015D01*
X-67252Y150073D01*
X-67287Y150136D01*
X-67310Y150153D01*
X-67327Y150176D01*
X-67389Y150212D01*
X-67446Y150256D01*
X-67474Y150263D01*
X-67498Y150277D01*
X-67598Y150294D01*
X-67639Y150304D01*
X-67649Y150303D01*
X-67662Y150305D01*
X-86662Y150305D01*
X-86738Y150289D01*
X-86815Y150281D01*
X-86835Y150270D01*
X-86857Y150265D01*
X-86921Y150221D01*
X-86989Y150183D01*
X-87005Y150164D01*
X-87021Y150153D01*
X-87045Y150115D01*
X-87095Y150055D01*
X-96595Y133555D01*
X-96604Y133527D01*
X-96620Y133504D01*
X-96635Y133434D01*
X-96657Y133366D01*
X-96655Y133337D01*
X-96661Y133309D01*
X-96647Y133239D01*
X-96642Y133168D01*
X-96629Y133142D01*
X-96623Y133114D01*
X-96583Y133055D01*
X-96550Y132991D01*
X-96528Y132973D01*
X-96512Y132949D01*
X-96429Y132892D01*
X-96397Y132865D01*
X-96386Y132862D01*
X-96375Y132854D01*
X-95748Y132557D01*
X-114928Y99336D01*
X-114927Y99330D01*
X-114929Y99327D01*
X-114923Y99303D01*
X-114919Y99300D01*
X-114918Y99296D01*
X-112613Y97726D01*
X-112608Y97726D01*
X-112606Y97724D01*
X-112459Y97729D01*
X-112019Y97321D01*
X-112018Y97321D01*
X-112018Y97320D01*
X-111522Y96982D01*
X-111495Y96838D01*
X-111491Y96835D01*
X-111491Y96832D01*
X-109391Y94884D01*
X-109386Y94884D01*
X-109384Y94881D01*
X-109238Y94864D01*
X-108864Y94396D01*
X-108862Y94395D01*
X-108862Y94394D01*
X-108423Y93986D01*
X-108417Y93840D01*
X-108414Y93836D01*
X-108414Y93833D01*
X-106628Y91594D01*
X-106623Y91593D01*
X-106622Y91590D01*
X-106480Y91552D01*
X-106180Y91032D01*
X-106178Y91032D01*
X-106179Y91031D01*
X-105804Y90562D01*
X-105808Y90526D01*
X-105809Y90526D01*
X-105810Y90514D01*
X-105821Y90416D01*
X-105818Y90412D01*
X-105819Y90409D01*
X-104386Y87928D01*
X-104382Y87927D01*
X-104381Y87923D01*
X-104246Y87865D01*
X-104027Y87306D01*
X-104026Y87306D01*
X-104026Y87305D01*
X-103726Y86785D01*
X-103764Y86644D01*
X-103762Y86639D01*
X-103763Y86636D01*
X-102716Y83970D01*
X-102712Y83968D01*
X-102711Y83964D01*
X-102587Y83886D01*
X-102453Y83302D01*
X-102452Y83301D01*
X-102453Y83300D01*
X-102233Y82741D01*
X-102292Y82607D01*
X-102291Y82602D01*
X-102293Y82599D01*
X-102005Y81342D01*
X-102000Y81338D01*
X-101995Y81333D01*
X-101994Y81334D01*
X-101992Y81332D01*
X-101988Y81339D01*
X-101982Y81344D01*
X-101982Y113447D01*
X-99798Y115631D01*
X-99798Y115636D01*
X-99795Y115639D01*
X-99795Y119187D01*
X-96835Y122147D01*
X-92649Y122147D01*
X-89689Y119187D01*
X-89689Y115001D01*
X-92649Y112041D01*
X-96197Y112041D01*
X-96201Y112038D01*
X-96205Y112038D01*
X-96897Y111346D01*
X-96897Y111340D01*
X-96900Y111338D01*
X-96900Y52365D01*
X-96897Y52361D01*
X-96897Y52357D01*
X-91534Y46994D01*
X-91528Y46994D01*
X-91526Y46991D01*
X-76799Y46991D01*
X-69976Y40168D01*
X-69976Y21173D01*
X-85721Y5428D01*
X-85721Y5424D01*
X-85722Y5423D01*
X-85721Y5422D01*
X-85724Y5420D01*
X-85724Y-7963D01*
X-85721Y-7967D01*
X-85721Y-7972D01*
X-83212Y-10480D01*
X-83212Y-14666D01*
X-85721Y-17174D01*
X-85721Y-17180D01*
X-85724Y-17183D01*
X-85724Y-22438D01*
X-85721Y-22442D01*
X-85721Y-22446D01*
X-83696Y-24471D01*
X-83691Y-24471D01*
X-83689Y-24475D01*
X-83688Y-24474D01*
X-83687Y-24474D01*
X-83685Y-24472D01*
X-83680Y-24472D01*
X-83680Y-24467D01*
X-83675Y-24464D01*
X-83676Y-24463D01*
X-83675Y-24463D01*
X-83675Y-23701D01*
X-82931Y-22956D01*
X-66878Y-22956D01*
X-66134Y-23701D01*
X-66134Y-28111D01*
X-66123Y-28123D01*
X-66122Y-28123D01*
X-58919Y-28123D01*
X-58907Y-28113D01*
X-58908Y-28112D01*
X-58907Y-28111D01*
X-58907Y-24638D01*
X-58163Y-23893D01*
X-47110Y-23893D01*
X-46366Y-24638D01*
X-46366Y-28111D01*
X-46355Y-28123D01*
X-46354Y-28123D01*
X-31933Y-28123D01*
X-31811Y-28246D01*
X-31805Y-28246D01*
X-31802Y-28250D01*
X-29219Y-28250D01*
X-28109Y-29360D01*
X-28109Y-32180D01*
X-29219Y-33291D01*
X-31802Y-33291D01*
X-31806Y-33295D01*
X-31811Y-33294D01*
X-31827Y-33311D01*
X-33932Y-33311D01*
X-33949Y-33294D01*
X-33954Y-33294D01*
X-33957Y-33291D01*
X-36540Y-33291D01*
X-36622Y-33208D01*
X-36628Y-33208D01*
X-36631Y-33205D01*
X-46354Y-33205D01*
X-46366Y-33215D01*
X-46365Y-33216D01*
X-46366Y-33217D01*
X-46366Y-36690D01*
X-47110Y-37435D01*
X-58163Y-37435D01*
X-58907Y-36690D01*
X-58907Y-33217D01*
X-58918Y-33205D01*
X-58918Y-33206D01*
X-58919Y-33205D01*
X-66122Y-33205D01*
X-66134Y-33215D01*
X-66133Y-33216D01*
X-66134Y-33217D01*
X-66134Y-37754D01*
X-66589Y-38209D01*
X-66590Y-38213D01*
X-66593Y-38216D01*
X-66590Y-38219D01*
X-66590Y-38225D01*
X-66585Y-38225D01*
X-66581Y-38229D01*
X-31827Y-38229D01*
X-31811Y-38246D01*
X-31805Y-38246D01*
X-31802Y-38250D01*
X-29219Y-38250D01*
X-28109Y-39360D01*
X-28109Y-42180D01*
X-29190Y-43262D01*
X-29191Y-43277D01*
X-29190Y-43278D01*
X-29190Y-43279D01*
X-28109Y-44360D01*
X-28109Y-47180D01*
X-29190Y-48262D01*
X-29190Y-48266D01*
X-29191Y-48266D01*
X-29191Y-48267D01*
X-29191Y-48278D01*
X-29190Y-48278D01*
X-29190Y-48279D01*
X-28109Y-49360D01*
X-28109Y-52180D01*
X-29190Y-53262D01*
X-29191Y-53267D01*
X-29193Y-53269D01*
X-29191Y-53272D01*
X-29191Y-53278D01*
X-29190Y-53278D01*
X-29190Y-53279D01*
X-28109Y-54360D01*
X-28109Y-57180D01*
X-29190Y-58262D01*
X-29191Y-58278D01*
X-29190Y-58278D01*
X-29190Y-58279D01*
X-28109Y-59360D01*
X-28109Y-62180D01*
X-29190Y-63262D01*
X-29191Y-63278D01*
X-29190Y-63278D01*
X-29190Y-63279D01*
X-28109Y-64360D01*
X-28109Y-67180D01*
X-29190Y-68262D01*
X-29190Y-68266D01*
X-29191Y-68266D01*
X-29191Y-68267D01*
X-29191Y-68278D01*
X-29190Y-68278D01*
X-29190Y-68279D01*
X-28109Y-69360D01*
X-28109Y-72180D01*
X-29190Y-73262D01*
X-29191Y-73267D01*
X-29193Y-73269D01*
X-29191Y-73272D01*
X-29191Y-73278D01*
X-29190Y-73278D01*
X-29190Y-73279D01*
X-28109Y-74360D01*
X-28109Y-77180D01*
X-29190Y-78262D01*
X-29191Y-78278D01*
X-29190Y-78278D01*
X-29190Y-78279D01*
X-28109Y-79360D01*
X-28109Y-82180D01*
X-29190Y-83262D01*
X-29191Y-83278D01*
X-29190Y-83278D01*
X-29190Y-83279D01*
X-28109Y-84360D01*
X-28109Y-87180D01*
X-29219Y-88291D01*
X-36540Y-88291D01*
X-37650Y-87180D01*
X-37650Y-84360D01*
X-36569Y-83279D01*
X-36568Y-83263D01*
X-36569Y-83263D01*
X-36569Y-83262D01*
X-37650Y-82180D01*
X-37650Y-79360D01*
X-36569Y-78279D01*
X-36568Y-78263D01*
X-36569Y-78263D01*
X-36569Y-78262D01*
X-37650Y-77180D01*
X-37650Y-74360D01*
X-36569Y-73279D01*
X-36569Y-73275D01*
X-36566Y-73272D01*
X-36568Y-73270D01*
X-36568Y-73263D01*
X-36569Y-73263D01*
X-36569Y-73262D01*
X-37650Y-72180D01*
X-37650Y-69360D01*
X-36622Y-68331D01*
X-36621Y-68327D01*
X-36618Y-68324D01*
X-36621Y-68321D01*
X-36621Y-68315D01*
X-36626Y-68315D01*
X-36630Y-68311D01*
X-51831Y-68311D01*
X-51843Y-68321D01*
X-51842Y-68322D01*
X-51843Y-68323D01*
X-51843Y-69451D01*
X-54803Y-72410D01*
X-58989Y-72410D01*
X-61949Y-69450D01*
X-61949Y-65265D01*
X-60027Y-63343D01*
X-60026Y-63339D01*
X-60026Y-63338D01*
X-60023Y-63336D01*
X-60026Y-63333D01*
X-60026Y-63327D01*
X-60031Y-63327D01*
X-60035Y-63322D01*
X-97956Y-63322D01*
X-133821Y-27458D01*
X-133821Y35321D01*
X-133824Y35326D01*
X-133824Y35330D01*
X-136333Y37838D01*
X-136333Y42024D01*
X-133373Y44984D01*
X-129187Y44984D01*
X-126523Y42320D01*
X-126519Y42320D01*
X-126516Y42317D01*
X-126513Y42319D01*
X-126507Y42319D01*
X-126507Y42325D01*
X-126503Y42329D01*
X-126503Y46278D01*
X-126503Y46279D01*
X-126504Y46279D01*
X-126513Y46290D01*
X-126515Y46289D01*
X-126516Y46290D01*
X-127090Y46203D01*
X-127093Y46200D01*
X-127097Y46200D01*
X-127200Y46096D01*
X-127800Y46096D01*
X-127801Y46095D01*
X-127802Y46096D01*
X-128395Y46006D01*
X-128513Y46093D01*
X-128518Y46093D01*
X-128521Y46096D01*
X-131385Y46095D01*
X-131387Y46093D01*
X-131388Y46093D01*
X-131389Y46092D01*
X-131392Y46093D01*
X-131510Y46005D01*
X-132103Y46095D01*
X-132105Y46094D01*
X-132105Y46095D01*
X-132705Y46094D01*
X-132809Y46198D01*
X-132814Y46199D01*
X-132816Y46202D01*
X-135648Y46628D01*
X-135652Y46625D01*
X-135655Y46626D01*
X-135785Y46558D01*
X-136359Y46734D01*
X-136360Y46734D01*
X-136360Y46735D01*
X-136954Y46824D01*
X-137041Y46942D01*
X-137045Y46943D01*
X-137047Y46946D01*
X-139784Y47790D01*
X-139789Y47788D01*
X-139792Y47790D01*
X-139930Y47741D01*
X-140471Y48001D01*
X-140472Y48001D01*
X-140472Y48002D01*
X-141046Y48179D01*
X-141115Y48308D01*
X-141119Y48310D01*
X-141120Y48314D01*
X-143634Y49523D01*
X-143639Y49522D01*
X-143642Y49524D01*
X-143690Y49511D01*
X-143693Y49506D01*
X-143697Y49505D01*
X-162870Y16296D01*
X-163478Y16716D01*
X-163505Y16728D01*
X-163527Y16746D01*
X-163596Y16766D01*
X-163661Y16794D01*
X-163690Y16795D01*
X-163718Y16803D01*
X-163789Y16795D01*
X-163860Y16795D01*
X-163887Y16784D01*
X-163915Y16781D01*
X-163978Y16745D01*
X-164043Y16718D01*
X-164063Y16697D01*
X-164089Y16683D01*
X-164152Y16606D01*
X-164182Y16575D01*
X-164186Y16565D01*
X-164195Y16555D01*
X-173695Y55D01*
X-173719Y-18D01*
X-173750Y-89D01*
X-173750Y-112D01*
X-173757Y-134D01*
X-173751Y-211D01*
X-173752Y-288D01*
X-173743Y-312D01*
X-173742Y-332D01*
X-173721Y-372D01*
X-173702Y-424D01*
X-173701Y-429D01*
X-173699Y-431D01*
X-173695Y-444D01*
X-164195Y-16944D01*
X-164175Y-16965D01*
X-164163Y-16992D01*
X-164110Y-17039D01*
X-164063Y-17093D01*
X-164037Y-17105D01*
X-164015Y-17125D01*
X-163948Y-17148D01*
X-163884Y-17179D01*
X-163855Y-17180D01*
X-163827Y-17189D01*
X-163756Y-17185D01*
X-163685Y-17188D01*
X-163658Y-17178D01*
X-163629Y-17176D01*
X-163539Y-17134D01*
X-163499Y-17119D01*
X-163491Y-17111D01*
X-163478Y-17105D01*
X-162870Y-16685D01*
X-143697Y-49895D01*
X-143692Y-49896D01*
X-143690Y-49900D01*
X-143642Y-49913D01*
X-143637Y-49911D01*
X-143634Y-49912D01*
X-141120Y-48703D01*
X-141118Y-48698D01*
X-141115Y-48697D01*
X-141046Y-48568D01*
X-140472Y-48391D01*
X-140472Y-48390D01*
X-140471Y-48390D01*
X-139930Y-48130D01*
X-139792Y-48179D01*
X-139787Y-48177D01*
X-139784Y-48179D01*
X-137047Y-47335D01*
X-137044Y-47331D01*
X-137041Y-47331D01*
X-136954Y-47213D01*
X-136360Y-47124D01*
X-136360Y-47123D01*
X-136359Y-47123D01*
X-135785Y-46947D01*
X-135655Y-47015D01*
X-135651Y-47014D01*
X-135648Y-47017D01*
X-132816Y-46591D01*
X-132813Y-46587D01*
X-132809Y-46587D01*
X-132705Y-46483D01*
X-132105Y-46484D01*
X-132104Y-46483D01*
X-132103Y-46484D01*
X-131510Y-46394D01*
X-131392Y-46482D01*
X-131387Y-46481D01*
X-131385Y-46484D01*
X-129311Y-46485D01*
X-129212Y-46485D01*
X-128520Y-46485D01*
X-128517Y-46482D01*
X-128513Y-46483D01*
X-128395Y-46395D01*
X-127802Y-46485D01*
X-127801Y-46485D01*
X-127800Y-46485D01*
X-127200Y-46485D01*
X-127097Y-46589D01*
X-127092Y-46589D01*
X-127090Y-46592D01*
X-124258Y-47020D01*
X-124254Y-47018D01*
X-124250Y-47019D01*
X-124120Y-46950D01*
X-123547Y-47127D01*
X-123546Y-47127D01*
X-123546Y-47128D01*
X-122952Y-47217D01*
X-122865Y-47336D01*
X-122861Y-47337D01*
X-122859Y-47340D01*
X-120122Y-48185D01*
X-120120Y-48184D01*
X-120116Y-48184D01*
X-120115Y-48185D01*
X-119976Y-48137D01*
X-119436Y-48397D01*
X-119434Y-48397D01*
X-119434Y-48398D01*
X-118861Y-48575D01*
X-118792Y-48705D01*
X-118788Y-48706D01*
X-118787Y-48710D01*
X-116207Y-49953D01*
X-116202Y-49952D01*
X-116199Y-49954D01*
X-116055Y-49927D01*
X-115559Y-50265D01*
X-115558Y-50265D01*
X-115558Y-50266D01*
X-115017Y-50527D01*
X-114969Y-50665D01*
X-114965Y-50667D01*
X-114964Y-50671D01*
X-112598Y-52285D01*
X-112594Y-52285D01*
X-112591Y-52288D01*
X-112444Y-52282D01*
X-112005Y-52690D01*
X-112003Y-52690D01*
X-112003Y-52691D01*
X-111508Y-53029D01*
X-111481Y-53174D01*
X-111477Y-53177D01*
X-111477Y-53180D01*
X-109378Y-55129D01*
X-109373Y-55129D01*
X-109371Y-55132D01*
X-109225Y-55149D01*
X-108851Y-55618D01*
X-108850Y-55618D01*
X-108850Y-55619D01*
X-108410Y-56027D01*
X-108405Y-56174D01*
X-108402Y-56178D01*
X-108402Y-56181D01*
X-106617Y-58421D01*
X-106612Y-58422D01*
X-106611Y-58425D01*
X-106469Y-58463D01*
X-106169Y-58983D01*
X-106168Y-58984D01*
X-106168Y-58985D01*
X-105794Y-59454D01*
X-105811Y-59599D01*
X-105810Y-59601D01*
X-105808Y-59603D01*
X-105809Y-59607D01*
X-104378Y-62088D01*
X-104373Y-62089D01*
X-104372Y-62093D01*
X-104238Y-62152D01*
X-104019Y-62710D01*
X-104018Y-62711D01*
X-104018Y-62712D01*
X-103718Y-63231D01*
X-103756Y-63373D01*
X-103754Y-63377D01*
X-103756Y-63381D01*
X-102710Y-66048D01*
X-102706Y-66050D01*
X-102705Y-66053D01*
X-102581Y-66131D01*
X-102448Y-66716D01*
X-102447Y-66717D01*
X-102447Y-66718D01*
X-102228Y-67276D01*
X-102287Y-67411D01*
X-102286Y-67415D01*
X-102287Y-67416D01*
X-102287Y-67417D01*
X-102288Y-67418D01*
X-101651Y-70211D01*
X-101647Y-70214D01*
X-101647Y-70218D01*
X-101536Y-70314D01*
X-101491Y-70912D01*
X-101491Y-70913D01*
X-101491Y-70914D01*
X-101358Y-71498D01*
X-101436Y-71623D01*
X-101435Y-71627D01*
X-101436Y-71628D01*
X-101438Y-71629D01*
X-101438Y-71630D01*
X-101225Y-74486D01*
X-101221Y-74490D01*
X-101222Y-74493D01*
X-101126Y-74605D01*
X-101171Y-75203D01*
X-101170Y-75204D01*
X-101171Y-75205D01*
X-101127Y-75803D01*
X-101222Y-75914D01*
X-101222Y-75919D01*
X-101225Y-75921D01*
X-101440Y-78777D01*
X-101437Y-78781D01*
X-101438Y-78785D01*
X-101360Y-78909D01*
X-101494Y-79494D01*
X-101493Y-79495D01*
X-101494Y-79496D01*
X-101495Y-79505D01*
X-101492Y-79509D01*
X-101492Y-79513D01*
X-101489Y-79513D01*
X-101485Y-79518D01*
X-101481Y-79514D01*
X-101475Y-79514D01*
X-99200Y-77240D01*
X-95014Y-77240D01*
X-92054Y-80199D01*
X-92054Y-84385D01*
X-95014Y-87345D01*
X-99200Y-87345D01*
X-101709Y-84837D01*
X-101714Y-84836D01*
X-101717Y-84833D01*
X-102894Y-84833D01*
X-102901Y-84839D01*
X-102905Y-84841D01*
X-103763Y-87025D01*
X-103762Y-87030D01*
X-103764Y-87033D01*
X-103726Y-87174D01*
X-104026Y-87694D01*
X-104026Y-87695D01*
X-104027Y-87696D01*
X-104246Y-88254D01*
X-104381Y-88312D01*
X-104383Y-88317D01*
X-104386Y-88317D01*
X-105819Y-90798D01*
X-105819Y-90802D01*
X-105821Y-90803D01*
X-105820Y-90804D01*
X-105821Y-90805D01*
X-105804Y-90951D01*
X-106178Y-91420D01*
X-106178Y-91421D01*
X-106179Y-91421D01*
X-106480Y-91941D01*
X-106622Y-91979D01*
X-106624Y-91983D01*
X-106628Y-91983D01*
X-108414Y-94222D01*
X-108414Y-94225D01*
X-108416Y-94226D01*
X-108415Y-94227D01*
X-108417Y-94229D01*
X-108423Y-94375D01*
X-108862Y-94783D01*
X-108863Y-94785D01*
X-108864Y-94785D01*
X-109238Y-95254D01*
X-109384Y-95270D01*
X-109387Y-95273D01*
X-109391Y-95273D01*
X-111491Y-97221D01*
X-111491Y-97225D01*
X-111495Y-97227D01*
X-111522Y-97372D01*
X-112018Y-97709D01*
X-112018Y-97710D01*
X-112019Y-97710D01*
X-112459Y-98118D01*
X-112606Y-98113D01*
X-112609Y-98116D01*
X-112613Y-98115D01*
X-114918Y-99685D01*
X-114920Y-99690D01*
X-114923Y-99692D01*
X-114929Y-99716D01*
X-114928Y-99720D01*
X-114927Y-99721D01*
X-114928Y-99725D01*
X-95748Y-132947D01*
X-96375Y-133243D01*
X-96398Y-133260D01*
X-96425Y-133270D01*
X-96477Y-133319D01*
X-96535Y-133362D01*
X-96549Y-133387D01*
X-96570Y-133407D01*
X-96599Y-133472D01*
X-96635Y-133534D01*
X-96638Y-133563D01*
X-96650Y-133589D01*
X-96651Y-133661D01*
X-96660Y-133731D01*
X-96652Y-133759D01*
X-96652Y-133788D01*
X-96617Y-133882D01*
X-96606Y-133923D01*
X-96599Y-133931D01*
X-96595Y-133944D01*
X-87095Y-150444D01*
X-87043Y-150502D01*
X-86997Y-150565D01*
X-86978Y-150576D01*
X-86963Y-150593D01*
X-86893Y-150626D01*
X-86826Y-150666D01*
X-86801Y-150670D01*
X-86784Y-150679D01*
X-86739Y-150681D01*
X-86662Y-150694D01*
X-67662Y-150694D01*
X-67634Y-150688D01*
G37*
%LPC*%
G36*
X-27290Y-28541D02*
X-27290Y-28541D01*
X-28400Y-27430D01*
X-28400Y-24848D01*
X-28404Y-24843D01*
X-28404Y-24839D01*
X-28420Y-24823D01*
X-28420Y-21254D01*
X-28424Y-21249D01*
X-28424Y-21245D01*
X-50658Y989D01*
X-50658Y49633D01*
X-50662Y49638D01*
X-50662Y49642D01*
X-55136Y54116D01*
X-55141Y54116D01*
X-55144Y54119D01*
X-68908Y54119D01*
X-68912Y54115D01*
X-68916Y54116D01*
X-71425Y51607D01*
X-75611Y51607D01*
X-77785Y53782D01*
X-77789Y53782D01*
X-77792Y53785D01*
X-77795Y53782D01*
X-77801Y53783D01*
X-77801Y53777D01*
X-77806Y53773D01*
X-77806Y53139D01*
X-80014Y50930D01*
X-94138Y50930D01*
X-96347Y53139D01*
X-96347Y61263D01*
X-94138Y63471D01*
X-80014Y63471D01*
X-77806Y61263D01*
X-77806Y59546D01*
X-77803Y59543D01*
X-77803Y59539D01*
X-77799Y59539D01*
X-77795Y59535D01*
X-77791Y59538D01*
X-77785Y59538D01*
X-75611Y61713D01*
X-71425Y61713D01*
X-68916Y59204D01*
X-68911Y59204D01*
X-68908Y59201D01*
X-53034Y59201D01*
X-45577Y51743D01*
X-45577Y3099D01*
X-45573Y3095D01*
X-45573Y3091D01*
X-24831Y-17652D01*
X-23339Y-19144D01*
X-23339Y-20020D01*
X-23336Y-20023D01*
X-23336Y-20027D01*
X-23332Y-20027D01*
X-23328Y-20031D01*
X-23324Y-20028D01*
X-23318Y-20028D01*
X-22290Y-18999D01*
X-20802Y-18999D01*
X-20799Y-18997D01*
X-20795Y-18997D01*
X-20795Y-18993D01*
X-20791Y-18989D01*
X-20794Y-18985D01*
X-20794Y-18979D01*
X-40691Y918D01*
X-42182Y2409D01*
X-42182Y12507D01*
X-42186Y12511D01*
X-42186Y12516D01*
X-44694Y15024D01*
X-44694Y19210D01*
X-41735Y22170D01*
X-37549Y22170D01*
X-35462Y20083D01*
X-35458Y20083D01*
X-35455Y20079D01*
X-35452Y20082D01*
X-35446Y20082D01*
X-35446Y20087D01*
X-35441Y20091D01*
X-35441Y22195D01*
X-35445Y22199D01*
X-35445Y22203D01*
X-37953Y24712D01*
X-37953Y28898D01*
X-34993Y31857D01*
X-30808Y31857D01*
X-27848Y28898D01*
X-27848Y24712D01*
X-30356Y22203D01*
X-30357Y22198D01*
X-30360Y22195D01*
X-30360Y5162D01*
X-30356Y5158D01*
X-30356Y5154D01*
X-8339Y-16864D01*
X-8339Y-20020D01*
X-8336Y-20023D01*
X-8336Y-20027D01*
X-8332Y-20027D01*
X-8328Y-20031D01*
X-8324Y-20028D01*
X-8318Y-20028D01*
X-7290Y-18999D01*
X-4469Y-18999D01*
X-3388Y-20081D01*
X-3383Y-20081D01*
X-3382Y-20082D01*
X-3377Y-20082D01*
X-3377Y-20081D01*
X-3372Y-20082D01*
X-3372Y-20081D01*
X-3371Y-20081D01*
X-2290Y-18999D01*
X531Y-18999D01*
X1612Y-20081D01*
X1617Y-20081D01*
X1618Y-20082D01*
X1623Y-20082D01*
X1623Y-20081D01*
X1628Y-20082D01*
X1628Y-20081D01*
X1629Y-20081D01*
X2710Y-18999D01*
X4935Y-18999D01*
X4939Y-18997D01*
X4943Y-18997D01*
X4943Y-18993D01*
X4947Y-18989D01*
X4944Y-18985D01*
X4944Y-18979D01*
X4763Y-18798D01*
X4757Y-18797D01*
X4754Y-18794D01*
X1030Y-18794D01*
X-8096Y-9668D01*
X-8096Y-9482D01*
X-8106Y-9470D01*
X-8107Y-9470D01*
X-8108Y-9470D01*
X-11581Y-9470D01*
X-12326Y-8725D01*
X-12326Y-5752D01*
X-12336Y-5740D01*
X-12337Y-5740D01*
X-12338Y-5740D01*
X-12449Y-5740D01*
X-18416Y227D01*
X-18416Y24166D01*
X-10220Y32362D01*
X65450Y32362D01*
X65453Y32365D01*
X65457Y32364D01*
X65457Y32368D01*
X65461Y32372D01*
X65458Y32377D01*
X65458Y32382D01*
X63466Y34374D01*
X63466Y38560D01*
X66426Y41520D01*
X66480Y41520D01*
X66483Y41522D01*
X66487Y41522D01*
X66487Y41526D01*
X66492Y41530D01*
X66488Y41534D01*
X66488Y41540D01*
X63557Y44472D01*
X63557Y48657D01*
X66516Y51617D01*
X70423Y51617D01*
X70427Y51621D01*
X70432Y51621D01*
X71646Y52835D01*
X73140Y52835D01*
X73152Y52846D01*
X73152Y52847D01*
X73152Y54610D01*
X75361Y56819D01*
X89485Y56819D01*
X91694Y54610D01*
X91694Y46487D01*
X89485Y44278D01*
X75361Y44278D01*
X73682Y45957D01*
X73678Y45957D01*
X73675Y45960D01*
X73672Y45957D01*
X73667Y45958D01*
X73666Y45952D01*
X73662Y45948D01*
X73662Y44472D01*
X70702Y41512D01*
X70648Y41512D01*
X70645Y41509D01*
X70641Y41509D01*
X70641Y41505D01*
X70637Y41501D01*
X70640Y41497D01*
X70640Y41491D01*
X73374Y38757D01*
X73380Y38757D01*
X73383Y38754D01*
X74260Y38754D01*
X74264Y38757D01*
X74269Y38757D01*
X75348Y39837D01*
X89472Y39837D01*
X91681Y37628D01*
X91681Y29504D01*
X89472Y27295D01*
X76479Y27295D01*
X76476Y27293D01*
X76471Y27293D01*
X76471Y27289D01*
X76467Y27285D01*
X76471Y27281D01*
X76470Y27275D01*
X84402Y19343D01*
X84402Y17820D01*
X84406Y17816D01*
X84406Y17812D01*
X86914Y15303D01*
X86914Y11118D01*
X84566Y8769D01*
X84566Y8763D01*
X84562Y8761D01*
X84562Y4233D01*
X84573Y4221D01*
X84574Y4222D01*
X84574Y4221D01*
X89084Y4221D01*
X91292Y2012D01*
X91292Y-6112D01*
X89084Y-8321D01*
X74960Y-8321D01*
X72751Y-6112D01*
X72751Y2012D01*
X74960Y4221D01*
X79469Y4221D01*
X79481Y4231D01*
X79480Y4232D01*
X79481Y4233D01*
X79481Y6926D01*
X79477Y6930D01*
X79477Y6934D01*
X79321Y7091D01*
X79321Y8601D01*
X79317Y8605D01*
X79317Y8609D01*
X76809Y11118D01*
X76809Y15303D01*
X79024Y17518D01*
X79024Y17522D01*
X79027Y17525D01*
X79024Y17527D01*
X79025Y17534D01*
X79024Y17534D01*
X79024Y17535D01*
X69282Y27277D01*
X69277Y27277D01*
X69275Y27279D01*
X69274Y27280D01*
X-8111Y27280D01*
X-8115Y27277D01*
X-8119Y27277D01*
X-13331Y22065D01*
X-13331Y22059D01*
X-13334Y22057D01*
X-13334Y2336D01*
X-13331Y2332D01*
X-13331Y2328D01*
X-12346Y1343D01*
X-12342Y1343D01*
X-12339Y1340D01*
X-12336Y1343D01*
X-12330Y1342D01*
X-12330Y1348D01*
X-12326Y1352D01*
X-12326Y2327D01*
X-11581Y3072D01*
X471Y3072D01*
X1216Y2327D01*
X1216Y-8725D01*
X471Y-9470D01*
X-1079Y-9470D01*
X-1082Y-9472D01*
X-1086Y-9472D01*
X-1087Y-9476D01*
X-1091Y-9480D01*
X-1087Y-9484D01*
X-1087Y-9490D01*
X3132Y-13709D01*
X3137Y-13710D01*
X3140Y-13713D01*
X6864Y-13713D01*
X11661Y-18510D01*
X11661Y-20020D01*
X11664Y-20023D01*
X11664Y-20027D01*
X11668Y-20027D01*
X11672Y-20031D01*
X11676Y-20028D01*
X11682Y-20028D01*
X12710Y-18999D01*
X15531Y-18999D01*
X16612Y-20081D01*
X16617Y-20081D01*
X16618Y-20082D01*
X16623Y-20082D01*
X16623Y-20081D01*
X16628Y-20082D01*
X16628Y-20081D01*
X16629Y-20081D01*
X17710Y-18999D01*
X20531Y-18999D01*
X21641Y-20110D01*
X21641Y-27430D01*
X20531Y-28541D01*
X17710Y-28541D01*
X16629Y-27459D01*
X16613Y-27458D01*
X16613Y-27460D01*
X16612Y-27459D01*
X15531Y-28541D01*
X12710Y-28541D01*
X11629Y-27459D01*
X11613Y-27458D01*
X11613Y-27460D01*
X11612Y-27459D01*
X10531Y-28541D01*
X7710Y-28541D01*
X6629Y-27459D01*
X6613Y-27458D01*
X6613Y-27460D01*
X6612Y-27459D01*
X5531Y-28541D01*
X2710Y-28541D01*
X1629Y-27459D01*
X1613Y-27458D01*
X1613Y-27460D01*
X1612Y-27459D01*
X531Y-28541D01*
X-2290Y-28541D01*
X-3371Y-27459D01*
X-3387Y-27458D01*
X-3387Y-27460D01*
X-3388Y-27459D01*
X-4469Y-28541D01*
X-7290Y-28541D01*
X-8371Y-27459D01*
X-8387Y-27458D01*
X-8387Y-27460D01*
X-8388Y-27459D01*
X-9469Y-28541D01*
X-12290Y-28541D01*
X-13371Y-27459D01*
X-13387Y-27458D01*
X-13387Y-27460D01*
X-13388Y-27459D01*
X-14469Y-28541D01*
X-17290Y-28541D01*
X-18371Y-27459D01*
X-18387Y-27458D01*
X-18387Y-27460D01*
X-18388Y-27459D01*
X-19469Y-28541D01*
X-22290Y-28541D01*
X-23371Y-27459D01*
X-23387Y-27458D01*
X-23387Y-27460D01*
X-23388Y-27459D01*
X-24469Y-28541D01*
X-27290Y-28541D01*
G37*
%LPD*%
G36*
X86614Y-150678D02*
X86614Y-150678D01*
X86692Y-150670D01*
X86711Y-150659D01*
X86733Y-150654D01*
X86797Y-150610D01*
X86865Y-150572D01*
X86881Y-150553D01*
X86897Y-150542D01*
X86921Y-150504D01*
X86971Y-150444D01*
X96471Y-133944D01*
X96480Y-133917D01*
X96496Y-133893D01*
X96511Y-133823D01*
X96534Y-133755D01*
X96531Y-133727D01*
X96537Y-133698D01*
X96524Y-133628D01*
X96518Y-133557D01*
X96505Y-133531D01*
X96499Y-133503D01*
X96459Y-133444D01*
X96426Y-133380D01*
X96404Y-133362D01*
X96388Y-133338D01*
X96305Y-133281D01*
X96273Y-133254D01*
X96263Y-133251D01*
X96252Y-133243D01*
X95624Y-132947D01*
X114804Y-99725D01*
X114804Y-99723D01*
X114803Y-99719D01*
X114806Y-99716D01*
X114799Y-99692D01*
X114795Y-99689D01*
X114794Y-99685D01*
X112489Y-98115D01*
X112484Y-98115D01*
X112482Y-98113D01*
X112335Y-98118D01*
X112262Y-98051D01*
X112246Y-98050D01*
X112246Y-98051D01*
X93395Y-116902D01*
X42290Y-116902D01*
X40798Y-115410D01*
X27598Y-102209D01*
X27594Y-102209D01*
X27591Y-102206D01*
X27588Y-102209D01*
X27582Y-102208D01*
X27582Y-102214D01*
X27577Y-102218D01*
X27577Y-124260D01*
X27581Y-124264D01*
X27581Y-124268D01*
X29403Y-126090D01*
X29403Y-130276D01*
X26443Y-133235D01*
X23141Y-133235D01*
X23138Y-133238D01*
X23135Y-133237D01*
X23134Y-133242D01*
X23129Y-133246D01*
X23132Y-133250D01*
X23132Y-133255D01*
X23265Y-133422D01*
X23270Y-133423D01*
X23271Y-133426D01*
X23413Y-133464D01*
X23713Y-133984D01*
X23714Y-133984D01*
X23714Y-133985D01*
X24088Y-134454D01*
X24082Y-134513D01*
X24074Y-134585D01*
X24073Y-134585D01*
X24072Y-134600D01*
X24074Y-134604D01*
X24073Y-134608D01*
X25504Y-137086D01*
X25509Y-137088D01*
X25510Y-137091D01*
X25645Y-137150D01*
X25864Y-137708D01*
X25865Y-137709D01*
X25865Y-137710D01*
X26164Y-138229D01*
X26126Y-138371D01*
X26129Y-138376D01*
X26127Y-138379D01*
X27173Y-141043D01*
X27177Y-141045D01*
X27177Y-141049D01*
X27302Y-141127D01*
X27435Y-141712D01*
X27436Y-141713D01*
X27436Y-141714D01*
X27655Y-142272D01*
X27596Y-142407D01*
X27598Y-142411D01*
X27597Y-142411D01*
X27596Y-142413D01*
X27595Y-142414D01*
X28232Y-145204D01*
X28236Y-145207D01*
X28236Y-145211D01*
X28348Y-145307D01*
X28392Y-145905D01*
X28393Y-145906D01*
X28393Y-145907D01*
X28526Y-146491D01*
X28448Y-146616D01*
X28449Y-146620D01*
X28446Y-146623D01*
X28654Y-149403D01*
X28658Y-149406D01*
X28658Y-149410D01*
X28684Y-149436D01*
X28690Y-149437D01*
X28692Y-149440D01*
X28693Y-149440D01*
X67097Y-149440D01*
X67040Y-150155D01*
X67044Y-150183D01*
X67039Y-150211D01*
X67056Y-150281D01*
X67064Y-150352D01*
X67079Y-150377D01*
X67085Y-150405D01*
X67128Y-150462D01*
X67164Y-150525D01*
X67186Y-150542D01*
X67203Y-150565D01*
X67265Y-150601D01*
X67322Y-150645D01*
X67350Y-150652D01*
X67374Y-150666D01*
X67474Y-150683D01*
X67515Y-150693D01*
X67525Y-150692D01*
X67538Y-150694D01*
X86538Y-150694D01*
X86614Y-150678D01*
G37*
G36*
X131879Y47372D02*
X131879Y47372D01*
X131923Y47372D01*
X135915Y47972D01*
X135945Y47983D01*
X135988Y47989D01*
X139847Y49178D01*
X139875Y49193D01*
X139916Y49205D01*
X143555Y50956D01*
X143576Y50972D01*
X143602Y50982D01*
X143655Y51032D01*
X143713Y51076D01*
X143727Y51099D01*
X143746Y51118D01*
X143776Y51185D01*
X143812Y51248D01*
X143815Y51275D01*
X143826Y51300D01*
X143827Y51373D01*
X143836Y51446D01*
X143828Y51472D01*
X143829Y51499D01*
X143792Y51598D01*
X143781Y51637D01*
X143775Y51644D01*
X143771Y51655D01*
X116771Y98455D01*
X116753Y98475D01*
X116741Y98500D01*
X116687Y98549D01*
X116639Y98604D01*
X116614Y98616D01*
X116594Y98634D01*
X116525Y98658D01*
X116459Y98690D01*
X116432Y98691D01*
X116407Y98700D01*
X116334Y98695D01*
X116261Y98699D01*
X116235Y98689D01*
X116208Y98688D01*
X116112Y98644D01*
X116074Y98629D01*
X116068Y98623D01*
X116057Y98618D01*
X112720Y96345D01*
X112698Y96322D01*
X112662Y96298D01*
X109701Y93553D01*
X109683Y93527D01*
X109650Y93498D01*
X107132Y90342D01*
X107117Y90314D01*
X107090Y90280D01*
X105070Y86784D01*
X105060Y86754D01*
X105038Y86717D01*
X103561Y82959D01*
X103556Y82928D01*
X103539Y82888D01*
X102639Y78952D01*
X102639Y78920D01*
X102628Y78878D01*
X102325Y74852D01*
X102328Y74828D01*
X102325Y74808D01*
X102327Y74799D01*
X102325Y74777D01*
X102626Y70751D01*
X102634Y70720D01*
X102637Y70677D01*
X103534Y66740D01*
X103547Y66711D01*
X103556Y66669D01*
X105030Y62910D01*
X105047Y62883D01*
X105062Y62842D01*
X107080Y59345D01*
X107101Y59321D01*
X107122Y59283D01*
X109638Y56126D01*
X109663Y56105D01*
X109689Y56071D01*
X112648Y53324D01*
X112675Y53307D01*
X112706Y53277D01*
X116042Y51002D01*
X116071Y50989D01*
X116106Y50964D01*
X119744Y49211D01*
X119774Y49204D01*
X119813Y49184D01*
X123671Y47993D01*
X123703Y47990D01*
X123744Y47976D01*
X127736Y47373D01*
X127768Y47375D01*
X127810Y47367D01*
X131848Y47366D01*
X131879Y47372D01*
G37*
G36*
X-127934Y47367D02*
X-127934Y47367D01*
X-127903Y47374D01*
X-127860Y47373D01*
X-123868Y47976D01*
X-123838Y47987D01*
X-123795Y47993D01*
X-119937Y49184D01*
X-119909Y49199D01*
X-119867Y49211D01*
X-116230Y50964D01*
X-116205Y50984D01*
X-116166Y51002D01*
X-112830Y53277D01*
X-112808Y53300D01*
X-112772Y53324D01*
X-109813Y56071D01*
X-109794Y56097D01*
X-109762Y56126D01*
X-107246Y59283D01*
X-107231Y59312D01*
X-107204Y59345D01*
X-105186Y62842D01*
X-105176Y62873D01*
X-105154Y62910D01*
X-103680Y66669D01*
X-103674Y66700D01*
X-103658Y66740D01*
X-102761Y70677D01*
X-102760Y70709D01*
X-102749Y70751D01*
X-102449Y74777D01*
X-102453Y74809D01*
X-102452Y74825D01*
X-102449Y74841D01*
X-102450Y74845D01*
X-102449Y74852D01*
X-102752Y78878D01*
X-102761Y78909D01*
X-102763Y78952D01*
X-103663Y82888D01*
X-103676Y82917D01*
X-103685Y82959D01*
X-105161Y86717D01*
X-105179Y86744D01*
X-105194Y86784D01*
X-107214Y90280D01*
X-107235Y90304D01*
X-107256Y90342D01*
X-109774Y93498D01*
X-109799Y93518D01*
X-109825Y93553D01*
X-112786Y96298D01*
X-112813Y96315D01*
X-112844Y96345D01*
X-116181Y98618D01*
X-116206Y98629D01*
X-116227Y98646D01*
X-116297Y98667D01*
X-116364Y98695D01*
X-116391Y98695D01*
X-116417Y98703D01*
X-116490Y98695D01*
X-116563Y98694D01*
X-116588Y98684D01*
X-116615Y98681D01*
X-116679Y98645D01*
X-116746Y98616D01*
X-116765Y98597D01*
X-116788Y98583D01*
X-116855Y98502D01*
X-116884Y98473D01*
X-116887Y98464D01*
X-116894Y98455D01*
X-143894Y51655D01*
X-143903Y51629D01*
X-143919Y51607D01*
X-143934Y51536D01*
X-143957Y51466D01*
X-143955Y51439D01*
X-143961Y51413D01*
X-143948Y51341D01*
X-143942Y51268D01*
X-143929Y51244D01*
X-143924Y51217D01*
X-143884Y51156D01*
X-143850Y51092D01*
X-143829Y51074D01*
X-143814Y51052D01*
X-143728Y50991D01*
X-143697Y50965D01*
X-143688Y50962D01*
X-143678Y50956D01*
X-140040Y49205D01*
X-140009Y49197D01*
X-139971Y49178D01*
X-136112Y47989D01*
X-136080Y47986D01*
X-136039Y47972D01*
X-132046Y47372D01*
X-132015Y47373D01*
X-131972Y47366D01*
X-127934Y47367D01*
G37*
G36*
X116366Y-99084D02*
X116366Y-99084D01*
X116439Y-99083D01*
X116464Y-99073D01*
X116491Y-99070D01*
X116555Y-99034D01*
X116622Y-99005D01*
X116641Y-98986D01*
X116665Y-98972D01*
X116732Y-98891D01*
X116760Y-98862D01*
X116763Y-98853D01*
X116771Y-98844D01*
X143771Y-52044D01*
X143779Y-52018D01*
X143795Y-51996D01*
X143810Y-51925D01*
X143834Y-51855D01*
X143832Y-51828D01*
X143837Y-51802D01*
X143824Y-51730D01*
X143818Y-51657D01*
X143806Y-51633D01*
X143801Y-51606D01*
X143760Y-51546D01*
X143726Y-51481D01*
X143705Y-51463D01*
X143690Y-51441D01*
X143604Y-51380D01*
X143573Y-51354D01*
X143564Y-51351D01*
X143555Y-51345D01*
X139916Y-49594D01*
X139885Y-49586D01*
X139847Y-49567D01*
X135988Y-48378D01*
X135956Y-48375D01*
X135915Y-48361D01*
X131923Y-47761D01*
X131891Y-47762D01*
X131848Y-47755D01*
X127810Y-47756D01*
X127779Y-47763D01*
X127736Y-47762D01*
X123744Y-48365D01*
X123714Y-48376D01*
X123671Y-48382D01*
X119813Y-49573D01*
X119785Y-49588D01*
X119744Y-49600D01*
X116106Y-51353D01*
X116081Y-51373D01*
X116042Y-51391D01*
X112706Y-53666D01*
X112684Y-53689D01*
X112648Y-53713D01*
X109689Y-56460D01*
X109671Y-56486D01*
X109638Y-56515D01*
X107122Y-59672D01*
X107107Y-59701D01*
X107080Y-59734D01*
X105062Y-63231D01*
X105052Y-63262D01*
X105030Y-63299D01*
X103556Y-67058D01*
X103550Y-67089D01*
X103534Y-67129D01*
X102637Y-71066D01*
X102636Y-71098D01*
X102626Y-71140D01*
X102325Y-75166D01*
X102329Y-75198D01*
X102325Y-75241D01*
X102628Y-79267D01*
X102637Y-79298D01*
X102639Y-79341D01*
X103539Y-83277D01*
X103552Y-83306D01*
X103561Y-83348D01*
X105038Y-87106D01*
X105055Y-87133D01*
X105070Y-87173D01*
X107090Y-90670D01*
X107111Y-90693D01*
X107132Y-90731D01*
X109650Y-93887D01*
X109675Y-93908D01*
X109701Y-93942D01*
X112662Y-96687D01*
X112689Y-96704D01*
X112720Y-96734D01*
X116057Y-99007D01*
X116082Y-99018D01*
X116103Y-99035D01*
X116173Y-99056D01*
X116240Y-99084D01*
X116268Y-99084D01*
X116294Y-99092D01*
X116366Y-99084D01*
G37*
G36*
X-116458Y-99084D02*
X-116458Y-99084D01*
X-116385Y-99088D01*
X-116359Y-99078D01*
X-116332Y-99077D01*
X-116236Y-99033D01*
X-116198Y-99018D01*
X-116191Y-99012D01*
X-116181Y-99007D01*
X-112844Y-96734D01*
X-112822Y-96711D01*
X-112786Y-96687D01*
X-109825Y-93942D01*
X-109806Y-93916D01*
X-109774Y-93887D01*
X-107256Y-90731D01*
X-107241Y-90703D01*
X-107214Y-90670D01*
X-105194Y-87173D01*
X-105184Y-87143D01*
X-105161Y-87106D01*
X-103685Y-83348D01*
X-103679Y-83317D01*
X-103663Y-83277D01*
X-102763Y-79341D01*
X-102762Y-79309D01*
X-102752Y-79267D01*
X-102449Y-75241D01*
X-102453Y-75209D01*
X-102449Y-75166D01*
X-102749Y-71140D01*
X-102758Y-71109D01*
X-102761Y-71066D01*
X-103658Y-67129D01*
X-103671Y-67100D01*
X-103680Y-67058D01*
X-105154Y-63299D01*
X-105171Y-63272D01*
X-105186Y-63231D01*
X-107204Y-59734D01*
X-107225Y-59710D01*
X-107246Y-59672D01*
X-109762Y-56515D01*
X-109787Y-56494D01*
X-109813Y-56460D01*
X-112772Y-53713D01*
X-112799Y-53696D01*
X-112830Y-53666D01*
X-116166Y-51391D01*
X-116195Y-51378D01*
X-116230Y-51353D01*
X-119867Y-49600D01*
X-119898Y-49593D01*
X-119937Y-49573D01*
X-123795Y-48382D01*
X-123826Y-48379D01*
X-123868Y-48365D01*
X-127860Y-47762D01*
X-127892Y-47764D01*
X-127934Y-47756D01*
X-131972Y-47755D01*
X-132003Y-47762D01*
X-132046Y-47761D01*
X-136039Y-48361D01*
X-136069Y-48372D01*
X-136112Y-48378D01*
X-139971Y-49567D01*
X-139999Y-49582D01*
X-140040Y-49594D01*
X-143678Y-51345D01*
X-143700Y-51361D01*
X-143726Y-51371D01*
X-143779Y-51421D01*
X-143837Y-51465D01*
X-143850Y-51488D01*
X-143870Y-51507D01*
X-143899Y-51574D01*
X-143936Y-51637D01*
X-143939Y-51664D01*
X-143950Y-51689D01*
X-143951Y-51762D01*
X-143960Y-51835D01*
X-143952Y-51861D01*
X-143952Y-51888D01*
X-143916Y-51987D01*
X-143904Y-52026D01*
X-143898Y-52033D01*
X-143894Y-52044D01*
X-116894Y-98844D01*
X-116876Y-98864D01*
X-116865Y-98889D01*
X-116811Y-98938D01*
X-116763Y-98993D01*
X-116738Y-99005D01*
X-116718Y-99023D01*
X-116649Y-99047D01*
X-116583Y-99079D01*
X-116556Y-99080D01*
X-116530Y-99089D01*
X-116458Y-99084D01*
G37*
G36*
X26965Y-150688D02*
X26965Y-150688D01*
X26992Y-150691D01*
X27061Y-150669D01*
X27133Y-150654D01*
X27155Y-150639D01*
X27181Y-150631D01*
X27237Y-150583D01*
X27297Y-150542D01*
X27312Y-150519D01*
X27332Y-150501D01*
X27365Y-150436D01*
X27404Y-150374D01*
X27408Y-150347D01*
X27421Y-150323D01*
X27430Y-150218D01*
X27437Y-150178D01*
X27435Y-150169D01*
X27436Y-150157D01*
X27134Y-146133D01*
X27126Y-146102D01*
X27123Y-146059D01*
X26225Y-142125D01*
X26212Y-142096D01*
X26203Y-142054D01*
X24729Y-138297D01*
X24712Y-138271D01*
X24697Y-138230D01*
X22679Y-134735D01*
X22658Y-134711D01*
X22637Y-134674D01*
X20121Y-131519D01*
X20096Y-131498D01*
X20070Y-131464D01*
X17112Y-128719D01*
X17085Y-128703D01*
X17054Y-128673D01*
X13719Y-126399D01*
X13690Y-126387D01*
X13655Y-126362D01*
X10019Y-124611D01*
X9988Y-124603D01*
X9949Y-124584D01*
X6093Y-123394D01*
X6062Y-123391D01*
X6021Y-123378D01*
X2030Y-122776D01*
X1998Y-122778D01*
X1956Y-122771D01*
X-2080Y-122771D01*
X-2111Y-122777D01*
X-2154Y-122776D01*
X-6144Y-123378D01*
X-6174Y-123389D01*
X-6217Y-123394D01*
X-10073Y-124584D01*
X-10101Y-124599D01*
X-10143Y-124611D01*
X-13779Y-126362D01*
X-13804Y-126381D01*
X-13843Y-126399D01*
X-17177Y-128673D01*
X-17200Y-128696D01*
X-17236Y-128719D01*
X-20194Y-131464D01*
X-20212Y-131490D01*
X-20245Y-131519D01*
X-22761Y-134674D01*
X-22775Y-134702D01*
X-22803Y-134735D01*
X-24820Y-138230D01*
X-24831Y-138260D01*
X-24853Y-138297D01*
X-26327Y-142054D01*
X-26333Y-142085D01*
X-26349Y-142125D01*
X-27247Y-146059D01*
X-27248Y-146091D01*
X-27258Y-146133D01*
X-27560Y-150157D01*
X-27556Y-150184D01*
X-27561Y-150211D01*
X-27544Y-150282D01*
X-27535Y-150355D01*
X-27521Y-150378D01*
X-27515Y-150405D01*
X-27472Y-150463D01*
X-27435Y-150526D01*
X-27413Y-150543D01*
X-27397Y-150565D01*
X-27334Y-150602D01*
X-27276Y-150646D01*
X-27249Y-150652D01*
X-27226Y-150666D01*
X-27122Y-150684D01*
X-27083Y-150693D01*
X-27073Y-150692D01*
X-27062Y-150694D01*
X26938Y-150694D01*
X26965Y-150688D01*
G37*
G36*
X73621Y-75507D02*
X73621Y-75507D01*
X73620Y-75506D01*
X73621Y-75505D01*
X73621Y-71031D01*
X74365Y-70287D01*
X86360Y-70287D01*
X86372Y-70277D01*
X86371Y-70276D01*
X86372Y-70275D01*
X86372Y-36286D01*
X86368Y-36281D01*
X86368Y-36277D01*
X75034Y-24943D01*
X75029Y-24943D01*
X75027Y-24941D01*
X75026Y-24940D01*
X64248Y-24940D01*
X64236Y-24950D01*
X64236Y-24951D01*
X64236Y-27925D01*
X63491Y-28670D01*
X51439Y-28670D01*
X50694Y-27925D01*
X50694Y-16872D01*
X50719Y-16848D01*
X50719Y-16844D01*
X50722Y-16841D01*
X50719Y-16838D01*
X50720Y-16832D01*
X50714Y-16832D01*
X50710Y-16828D01*
X50418Y-16828D01*
X50413Y-16831D01*
X50409Y-16831D01*
X47064Y-20176D01*
X47064Y-20181D01*
X47061Y-20184D01*
X47061Y-28645D01*
X42395Y-33311D01*
X39871Y-33311D01*
X39868Y-33314D01*
X39864Y-33313D01*
X39863Y-33318D01*
X39859Y-33321D01*
X39863Y-33326D01*
X39863Y-33331D01*
X40891Y-34360D01*
X40891Y-37180D01*
X39810Y-38262D01*
X39809Y-38277D01*
X39810Y-38278D01*
X39810Y-38279D01*
X40891Y-39360D01*
X40891Y-42180D01*
X39810Y-43262D01*
X39809Y-43277D01*
X39810Y-43278D01*
X39810Y-43279D01*
X40891Y-44360D01*
X40891Y-45824D01*
X40894Y-45828D01*
X40894Y-45832D01*
X40898Y-45832D01*
X40902Y-45836D01*
X40906Y-45833D01*
X40912Y-45833D01*
X49176Y-37569D01*
X49176Y-37563D01*
X49179Y-37560D01*
X49179Y-34198D01*
X49924Y-33454D01*
X64976Y-33454D01*
X65721Y-34199D01*
X65721Y-39251D01*
X64976Y-39996D01*
X53940Y-39996D01*
X53936Y-39999D01*
X53932Y-39999D01*
X40722Y-53209D01*
X40722Y-53213D01*
X40718Y-53216D01*
X40721Y-53219D01*
X40721Y-53225D01*
X40726Y-53225D01*
X40730Y-53229D01*
X47666Y-53229D01*
X51887Y-57451D01*
X51893Y-57451D01*
X51896Y-57454D01*
X64976Y-57454D01*
X65168Y-57646D01*
X65172Y-57646D01*
X65175Y-57649D01*
X65178Y-57646D01*
X65184Y-57647D01*
X65184Y-57641D01*
X65188Y-57637D01*
X65188Y-57622D01*
X68148Y-54663D01*
X72334Y-54663D01*
X73224Y-55553D01*
X73228Y-55553D01*
X73231Y-55556D01*
X73234Y-55553D01*
X73240Y-55554D01*
X73240Y-55548D01*
X73245Y-55544D01*
X73245Y-54445D01*
X73989Y-53700D01*
X85042Y-53700D01*
X85786Y-54445D01*
X85786Y-66497D01*
X85042Y-67242D01*
X78403Y-67242D01*
X78398Y-67245D01*
X78394Y-67245D01*
X77839Y-67800D01*
X76347Y-69292D01*
X49541Y-69292D01*
X49538Y-69295D01*
X49533Y-69294D01*
X49533Y-69299D01*
X49529Y-69302D01*
X49533Y-69307D01*
X49532Y-69312D01*
X54043Y-73823D01*
X54048Y-73823D01*
X54051Y-73826D01*
X55216Y-73826D01*
X55228Y-73816D01*
X55227Y-73815D01*
X55228Y-73814D01*
X55228Y-70341D01*
X55972Y-69596D01*
X67025Y-69596D01*
X67769Y-70341D01*
X67769Y-75505D01*
X67780Y-75517D01*
X67780Y-75516D01*
X67781Y-75517D01*
X73609Y-75517D01*
X73621Y-75507D01*
G37*
%LPC*%
G36*
X-40066Y-128370D02*
X-40066Y-128370D01*
X-43026Y-125410D01*
X-43026Y-121224D01*
X-40587Y-118785D01*
X-40587Y-118780D01*
X-40584Y-118777D01*
X-40583Y-118777D01*
X-40583Y-116216D01*
X-40594Y-116205D01*
X-40595Y-116205D01*
X-40595Y-116204D01*
X-44069Y-116204D01*
X-44813Y-115460D01*
X-44813Y-112590D01*
X-44824Y-112578D01*
X-44825Y-112579D01*
X-44825Y-112578D01*
X-48075Y-112578D01*
X-48087Y-112589D01*
X-48086Y-112589D01*
X-48087Y-112590D01*
X-48087Y-117064D01*
X-48832Y-117808D01*
X-64884Y-117808D01*
X-65629Y-117064D01*
X-65629Y-103011D01*
X-64884Y-102267D01*
X-48831Y-102267D01*
X-48087Y-103011D01*
X-48087Y-107485D01*
X-48077Y-107497D01*
X-48076Y-107496D01*
X-48075Y-107497D01*
X-44825Y-107497D01*
X-44814Y-107486D01*
X-44813Y-107485D01*
X-44813Y-104407D01*
X-44069Y-103663D01*
X-35370Y-103663D01*
X-35366Y-103659D01*
X-35362Y-103659D01*
X-28424Y-96722D01*
X-28423Y-96716D01*
X-28420Y-96713D01*
X-28420Y-91718D01*
X-28404Y-91701D01*
X-28403Y-91696D01*
X-28400Y-91693D01*
X-28400Y-89110D01*
X-27290Y-88000D01*
X-24469Y-88000D01*
X-23359Y-89110D01*
X-23359Y-91693D01*
X-23355Y-91697D01*
X-23355Y-91701D01*
X-23339Y-91718D01*
X-23339Y-98823D01*
X-24831Y-100315D01*
X-31269Y-106753D01*
X-31269Y-106757D01*
X-31270Y-106758D01*
X-31269Y-106759D01*
X-31272Y-106761D01*
X-31272Y-115460D01*
X-32016Y-116204D01*
X-35490Y-116204D01*
X-35502Y-116215D01*
X-35501Y-116216D01*
X-35502Y-116216D01*
X-35502Y-118637D01*
X-35498Y-118642D01*
X-35499Y-118646D01*
X-32920Y-121224D01*
X-32920Y-125410D01*
X-35880Y-128370D01*
X-40066Y-128370D01*
G37*
%LPD*%
%LPC*%
G36*
X102768Y-16744D02*
X102768Y-16744D01*
X99809Y-13785D01*
X99809Y-9599D01*
X101105Y-8303D01*
X101105Y-8299D01*
X101108Y-8296D01*
X101105Y-8293D01*
X101106Y-8287D01*
X101100Y-8287D01*
X101096Y-8282D01*
X97545Y-8282D01*
X95337Y-6074D01*
X95337Y2050D01*
X97545Y4259D01*
X111669Y4259D01*
X113878Y2050D01*
X113878Y-6074D01*
X111669Y-8282D01*
X108627Y-8282D01*
X108623Y-8285D01*
X108619Y-8285D01*
X108619Y-8289D01*
X108615Y-8293D01*
X108618Y-8297D01*
X108618Y-8303D01*
X109914Y-9599D01*
X109914Y-13785D01*
X106954Y-16744D01*
X102768Y-16744D01*
G37*
%LPD*%
D10*
X79515Y-60471D03*
X79515Y-43471D03*
D11*
X82392Y-97058D03*
X82392Y-78058D03*
D12*
X100714Y-44567D03*
X100714Y-27567D03*
D13*
X33246Y-30145D02*
X33246Y-31395D01*
X33246Y-30145D02*
X38996Y-30145D01*
X38996Y-31395D01*
X33246Y-31395D01*
X33246Y-30208D02*
X38996Y-30208D01*
X33246Y-35145D02*
X33246Y-36395D01*
X33246Y-35145D02*
X38996Y-35145D01*
X38996Y-36395D01*
X33246Y-36395D01*
X33246Y-35208D02*
X38996Y-35208D01*
X33246Y-40145D02*
X33246Y-41395D01*
X33246Y-40145D02*
X38996Y-40145D01*
X38996Y-41395D01*
X33246Y-41395D01*
X33246Y-40208D02*
X38996Y-40208D01*
X33246Y-45145D02*
X33246Y-46395D01*
X33246Y-45145D02*
X38996Y-45145D01*
X38996Y-46395D01*
X33246Y-46395D01*
X33246Y-45208D02*
X38996Y-45208D01*
X33246Y-50145D02*
X33246Y-51395D01*
X33246Y-50145D02*
X38996Y-50145D01*
X38996Y-51395D01*
X33246Y-51395D01*
X33246Y-50208D02*
X38996Y-50208D01*
X33246Y-55145D02*
X33246Y-56395D01*
X33246Y-55145D02*
X38996Y-55145D01*
X38996Y-56395D01*
X33246Y-56395D01*
X33246Y-55208D02*
X38996Y-55208D01*
X33246Y-60145D02*
X33246Y-61395D01*
X33246Y-60145D02*
X38996Y-60145D01*
X38996Y-61395D01*
X33246Y-61395D01*
X33246Y-60208D02*
X38996Y-60208D01*
X33246Y-65145D02*
X33246Y-66395D01*
X33246Y-65145D02*
X38996Y-65145D01*
X38996Y-66395D01*
X33246Y-66395D01*
X33246Y-65208D02*
X38996Y-65208D01*
X33246Y-70145D02*
X33246Y-71395D01*
X33246Y-70145D02*
X38996Y-70145D01*
X38996Y-71395D01*
X33246Y-71395D01*
X33246Y-70208D02*
X38996Y-70208D01*
X33246Y-75145D02*
X33246Y-76395D01*
X33246Y-75145D02*
X38996Y-75145D01*
X38996Y-76395D01*
X33246Y-76395D01*
X33246Y-75208D02*
X38996Y-75208D01*
X33246Y-80145D02*
X33246Y-81395D01*
X33246Y-80145D02*
X38996Y-80145D01*
X38996Y-81395D01*
X33246Y-81395D01*
X33246Y-80208D02*
X38996Y-80208D01*
X33246Y-85145D02*
X33246Y-86395D01*
X33246Y-85145D02*
X38996Y-85145D01*
X38996Y-86395D01*
X33246Y-86395D01*
X33246Y-85208D02*
X38996Y-85208D01*
X29746Y-89895D02*
X28496Y-89895D01*
X29746Y-89895D02*
X29746Y-95645D01*
X28496Y-95645D01*
X28496Y-89895D01*
X28496Y-94458D02*
X29746Y-94458D01*
X29746Y-93271D02*
X28496Y-93271D01*
X28496Y-92084D02*
X29746Y-92084D01*
X29746Y-90897D02*
X28496Y-90897D01*
X24746Y-89895D02*
X23496Y-89895D01*
X24746Y-89895D02*
X24746Y-95645D01*
X23496Y-95645D01*
X23496Y-89895D01*
X23496Y-94458D02*
X24746Y-94458D01*
X24746Y-93271D02*
X23496Y-93271D01*
X23496Y-92084D02*
X24746Y-92084D01*
X24746Y-90897D02*
X23496Y-90897D01*
X19746Y-89895D02*
X18496Y-89895D01*
X19746Y-89895D02*
X19746Y-95645D01*
X18496Y-95645D01*
X18496Y-89895D01*
X18496Y-94458D02*
X19746Y-94458D01*
X19746Y-93271D02*
X18496Y-93271D01*
X18496Y-92084D02*
X19746Y-92084D01*
X19746Y-90897D02*
X18496Y-90897D01*
X14746Y-89895D02*
X13496Y-89895D01*
X14746Y-89895D02*
X14746Y-95645D01*
X13496Y-95645D01*
X13496Y-89895D01*
X13496Y-94458D02*
X14746Y-94458D01*
X14746Y-93271D02*
X13496Y-93271D01*
X13496Y-92084D02*
X14746Y-92084D01*
X14746Y-90897D02*
X13496Y-90897D01*
X9746Y-89895D02*
X8496Y-89895D01*
X9746Y-89895D02*
X9746Y-95645D01*
X8496Y-95645D01*
X8496Y-89895D01*
X8496Y-94458D02*
X9746Y-94458D01*
X9746Y-93271D02*
X8496Y-93271D01*
X8496Y-92084D02*
X9746Y-92084D01*
X9746Y-90897D02*
X8496Y-90897D01*
X4746Y-89895D02*
X3496Y-89895D01*
X4746Y-89895D02*
X4746Y-95645D01*
X3496Y-95645D01*
X3496Y-89895D01*
X3496Y-94458D02*
X4746Y-94458D01*
X4746Y-93271D02*
X3496Y-93271D01*
X3496Y-92084D02*
X4746Y-92084D01*
X4746Y-90897D02*
X3496Y-90897D01*
X-255Y-89895D02*
X-1505Y-89895D01*
X-255Y-89895D02*
X-255Y-95645D01*
X-1505Y-95645D01*
X-1505Y-89895D01*
X-1505Y-94458D02*
X-255Y-94458D01*
X-255Y-93271D02*
X-1505Y-93271D01*
X-1505Y-92084D02*
X-255Y-92084D01*
X-255Y-90897D02*
X-1505Y-90897D01*
X-5255Y-89895D02*
X-6505Y-89895D01*
X-5255Y-89895D02*
X-5255Y-95645D01*
X-6505Y-95645D01*
X-6505Y-89895D01*
X-6505Y-94458D02*
X-5255Y-94458D01*
X-5255Y-93271D02*
X-6505Y-93271D01*
X-6505Y-92084D02*
X-5255Y-92084D01*
X-5255Y-90897D02*
X-6505Y-90897D01*
X-10255Y-89895D02*
X-11505Y-89895D01*
X-10255Y-89895D02*
X-10255Y-95645D01*
X-11505Y-95645D01*
X-11505Y-89895D01*
X-11505Y-94458D02*
X-10255Y-94458D01*
X-10255Y-93271D02*
X-11505Y-93271D01*
X-11505Y-92084D02*
X-10255Y-92084D01*
X-10255Y-90897D02*
X-11505Y-90897D01*
X-15255Y-89895D02*
X-16505Y-89895D01*
X-15255Y-89895D02*
X-15255Y-95645D01*
X-16505Y-95645D01*
X-16505Y-89895D01*
X-16505Y-94458D02*
X-15255Y-94458D01*
X-15255Y-93271D02*
X-16505Y-93271D01*
X-16505Y-92084D02*
X-15255Y-92084D01*
X-15255Y-90897D02*
X-16505Y-90897D01*
X-20255Y-89895D02*
X-21505Y-89895D01*
X-20255Y-89895D02*
X-20255Y-95645D01*
X-21505Y-95645D01*
X-21505Y-89895D01*
X-21505Y-94458D02*
X-20255Y-94458D01*
X-20255Y-93271D02*
X-21505Y-93271D01*
X-21505Y-92084D02*
X-20255Y-92084D01*
X-20255Y-90897D02*
X-21505Y-90897D01*
X-25255Y-89895D02*
X-26505Y-89895D01*
X-25255Y-89895D02*
X-25255Y-95645D01*
X-26505Y-95645D01*
X-26505Y-89895D01*
X-26505Y-94458D02*
X-25255Y-94458D01*
X-25255Y-93271D02*
X-26505Y-93271D01*
X-26505Y-92084D02*
X-25255Y-92084D01*
X-25255Y-90897D02*
X-26505Y-90897D01*
X-30005Y-86395D02*
X-30005Y-85145D01*
X-30005Y-86395D02*
X-35755Y-86395D01*
X-35755Y-85145D01*
X-30005Y-85145D01*
X-30005Y-85208D02*
X-35755Y-85208D01*
X-30005Y-81395D02*
X-30005Y-80145D01*
X-30005Y-81395D02*
X-35755Y-81395D01*
X-35755Y-80145D01*
X-30005Y-80145D01*
X-30005Y-80208D02*
X-35755Y-80208D01*
X-30005Y-76395D02*
X-30005Y-75145D01*
X-30005Y-76395D02*
X-35755Y-76395D01*
X-35755Y-75145D01*
X-30005Y-75145D01*
X-30005Y-75208D02*
X-35755Y-75208D01*
X-30005Y-71395D02*
X-30005Y-70145D01*
X-30005Y-71395D02*
X-35755Y-71395D01*
X-35755Y-70145D01*
X-30005Y-70145D01*
X-30005Y-70208D02*
X-35755Y-70208D01*
X-30005Y-66395D02*
X-30005Y-65145D01*
X-30005Y-66395D02*
X-35755Y-66395D01*
X-35755Y-65145D01*
X-30005Y-65145D01*
X-30005Y-65208D02*
X-35755Y-65208D01*
X-30005Y-61395D02*
X-30005Y-60145D01*
X-30005Y-61395D02*
X-35755Y-61395D01*
X-35755Y-60145D01*
X-30005Y-60145D01*
X-30005Y-60208D02*
X-35755Y-60208D01*
X-30005Y-56395D02*
X-30005Y-55145D01*
X-30005Y-56395D02*
X-35755Y-56395D01*
X-35755Y-55145D01*
X-30005Y-55145D01*
X-30005Y-55208D02*
X-35755Y-55208D01*
X-30005Y-51395D02*
X-30005Y-50145D01*
X-30005Y-51395D02*
X-35755Y-51395D01*
X-35755Y-50145D01*
X-30005Y-50145D01*
X-30005Y-50208D02*
X-35755Y-50208D01*
X-30005Y-46395D02*
X-30005Y-45145D01*
X-30005Y-46395D02*
X-35755Y-46395D01*
X-35755Y-45145D01*
X-30005Y-45145D01*
X-30005Y-45208D02*
X-35755Y-45208D01*
X-30005Y-41395D02*
X-30005Y-40145D01*
X-30005Y-41395D02*
X-35755Y-41395D01*
X-35755Y-40145D01*
X-30005Y-40145D01*
X-30005Y-40208D02*
X-35755Y-40208D01*
X-30005Y-36395D02*
X-30005Y-35145D01*
X-30005Y-36395D02*
X-35755Y-36395D01*
X-35755Y-35145D01*
X-30005Y-35145D01*
X-30005Y-35208D02*
X-35755Y-35208D01*
X-30005Y-31395D02*
X-30005Y-30145D01*
X-30005Y-31395D02*
X-35755Y-31395D01*
X-35755Y-30145D01*
X-30005Y-30145D01*
X-30005Y-30208D02*
X-35755Y-30208D01*
X-26505Y-26645D02*
X-25255Y-26645D01*
X-26505Y-26645D02*
X-26505Y-20895D01*
X-25255Y-20895D01*
X-25255Y-26645D01*
X-25255Y-25458D02*
X-26505Y-25458D01*
X-26505Y-24271D02*
X-25255Y-24271D01*
X-25255Y-23084D02*
X-26505Y-23084D01*
X-26505Y-21897D02*
X-25255Y-21897D01*
X-21505Y-26645D02*
X-20255Y-26645D01*
X-21505Y-26645D02*
X-21505Y-20895D01*
X-20255Y-20895D01*
X-20255Y-26645D01*
X-20255Y-25458D02*
X-21505Y-25458D01*
X-21505Y-24271D02*
X-20255Y-24271D01*
X-20255Y-23084D02*
X-21505Y-23084D01*
X-21505Y-21897D02*
X-20255Y-21897D01*
X-16505Y-26645D02*
X-15255Y-26645D01*
X-16505Y-26645D02*
X-16505Y-20895D01*
X-15255Y-20895D01*
X-15255Y-26645D01*
X-15255Y-25458D02*
X-16505Y-25458D01*
X-16505Y-24271D02*
X-15255Y-24271D01*
X-15255Y-23084D02*
X-16505Y-23084D01*
X-16505Y-21897D02*
X-15255Y-21897D01*
X-11505Y-26645D02*
X-10255Y-26645D01*
X-11505Y-26645D02*
X-11505Y-20895D01*
X-10255Y-20895D01*
X-10255Y-26645D01*
X-10255Y-25458D02*
X-11505Y-25458D01*
X-11505Y-24271D02*
X-10255Y-24271D01*
X-10255Y-23084D02*
X-11505Y-23084D01*
X-11505Y-21897D02*
X-10255Y-21897D01*
X-6505Y-26645D02*
X-5255Y-26645D01*
X-6505Y-26645D02*
X-6505Y-20895D01*
X-5255Y-20895D01*
X-5255Y-26645D01*
X-5255Y-25458D02*
X-6505Y-25458D01*
X-6505Y-24271D02*
X-5255Y-24271D01*
X-5255Y-23084D02*
X-6505Y-23084D01*
X-6505Y-21897D02*
X-5255Y-21897D01*
X-1505Y-26645D02*
X-255Y-26645D01*
X-1505Y-26645D02*
X-1505Y-20895D01*
X-255Y-20895D01*
X-255Y-26645D01*
X-255Y-25458D02*
X-1505Y-25458D01*
X-1505Y-24271D02*
X-255Y-24271D01*
X-255Y-23084D02*
X-1505Y-23084D01*
X-1505Y-21897D02*
X-255Y-21897D01*
X3496Y-26645D02*
X4746Y-26645D01*
X3496Y-26645D02*
X3496Y-20895D01*
X4746Y-20895D01*
X4746Y-26645D01*
X4746Y-25458D02*
X3496Y-25458D01*
X3496Y-24271D02*
X4746Y-24271D01*
X4746Y-23084D02*
X3496Y-23084D01*
X3496Y-21897D02*
X4746Y-21897D01*
X8496Y-26645D02*
X9746Y-26645D01*
X8496Y-26645D02*
X8496Y-20895D01*
X9746Y-20895D01*
X9746Y-26645D01*
X9746Y-25458D02*
X8496Y-25458D01*
X8496Y-24271D02*
X9746Y-24271D01*
X9746Y-23084D02*
X8496Y-23084D01*
X8496Y-21897D02*
X9746Y-21897D01*
X13496Y-26645D02*
X14746Y-26645D01*
X13496Y-26645D02*
X13496Y-20895D01*
X14746Y-20895D01*
X14746Y-26645D01*
X14746Y-25458D02*
X13496Y-25458D01*
X13496Y-24271D02*
X14746Y-24271D01*
X14746Y-23084D02*
X13496Y-23084D01*
X13496Y-21897D02*
X14746Y-21897D01*
X18496Y-26645D02*
X19746Y-26645D01*
X18496Y-26645D02*
X18496Y-20895D01*
X19746Y-20895D01*
X19746Y-26645D01*
X19746Y-25458D02*
X18496Y-25458D01*
X18496Y-24271D02*
X19746Y-24271D01*
X19746Y-23084D02*
X18496Y-23084D01*
X18496Y-21897D02*
X19746Y-21897D01*
X23496Y-26645D02*
X24746Y-26645D01*
X23496Y-26645D02*
X23496Y-20895D01*
X24746Y-20895D01*
X24746Y-26645D01*
X24746Y-25458D02*
X23496Y-25458D01*
X23496Y-24271D02*
X24746Y-24271D01*
X24746Y-23084D02*
X23496Y-23084D01*
X23496Y-21897D02*
X24746Y-21897D01*
X28496Y-26645D02*
X29746Y-26645D01*
X28496Y-26645D02*
X28496Y-20895D01*
X29746Y-20895D01*
X29746Y-26645D01*
X29746Y-25458D02*
X28496Y-25458D01*
X28496Y-24271D02*
X29746Y-24271D01*
X29746Y-23084D02*
X28496Y-23084D01*
X28496Y-21897D02*
X29746Y-21897D01*
D14*
X1621Y-58270D03*
D15*
X57450Y-36725D03*
X57450Y-48725D03*
X57450Y-60725D03*
D12*
X-5555Y13801D03*
X-5555Y-3199D03*
D11*
X-74905Y-30727D03*
X-74905Y-11727D03*
X-56858Y-110038D03*
X-56858Y-129038D03*
D10*
X61498Y-93367D03*
X61498Y-76367D03*
X-52636Y-30664D03*
X-52636Y-13664D03*
D12*
X-38043Y-109934D03*
X-21043Y-109934D03*
X28995Y14252D03*
X11995Y14252D03*
X29064Y-7325D03*
X12064Y-7325D03*
X57465Y-5399D03*
X57465Y-22399D03*
D16*
X-81576Y59701D02*
X-92576Y59701D01*
X-81576Y59701D02*
X-81576Y54701D01*
X-92576Y54701D01*
X-92576Y59701D01*
X-92576Y59451D02*
X-81576Y59451D01*
X-81576Y29301D02*
X-92576Y29301D01*
X-92576Y34301D01*
X-81576Y34301D01*
X-81576Y29301D01*
X-81576Y34051D02*
X-92576Y34051D01*
X76522Y450D02*
X87522Y450D01*
X87522Y-4550D01*
X76522Y-4550D01*
X76522Y450D01*
X76522Y200D02*
X87522Y200D01*
X99107Y488D02*
X110107Y488D01*
X110107Y-4512D01*
X99107Y-4512D01*
X99107Y488D01*
X99107Y238D02*
X110107Y238D01*
D17*
X82538Y142905D03*
X165138Y-195D03*
X82538Y-143295D03*
X-82662Y-143295D03*
X-165262Y-195D03*
X-82662Y142905D03*
X123838Y71305D03*
X123838Y-71695D03*
X-62Y-143295D03*
X-123962Y-71695D03*
X-123962Y71305D03*
D16*
X76923Y53049D02*
X87923Y53049D01*
X87923Y48049D01*
X76923Y48049D01*
X76923Y53049D01*
X76923Y52799D02*
X87923Y52799D01*
X87910Y36066D02*
X76910Y36066D01*
X87910Y36066D02*
X87910Y31066D01*
X76910Y31066D01*
X76910Y36066D01*
X76910Y35816D02*
X87910Y35816D01*
D18*
X-20880Y-92770D02*
X-20880Y-109770D01*
X-21043Y-109934D01*
X-20880Y-92770D02*
X-20880Y-80770D01*
X1621Y-58270D01*
X68923Y-43471D02*
X79515Y-43471D01*
X68923Y-43471D02*
X63670Y-48725D01*
X57450Y-48725D01*
X12064Y-7325D02*
X12064Y14183D01*
X11995Y14252D01*
X24121Y-18406D02*
X24121Y-23770D01*
X13040Y-7325D02*
X12064Y-7325D01*
X13040Y-7325D02*
X24121Y-18406D01*
X24121Y-23770D02*
X24121Y-35770D01*
X1621Y-58270D01*
D19*
X43307Y5461D03*
D18*
X54167Y-5399D01*
X57465Y-5399D01*
X-5104Y14252D02*
X-5555Y13801D01*
X-5104Y14252D02*
X11995Y14252D01*
X-19066Y-37583D02*
X1621Y-58270D01*
X-19066Y-37583D02*
X-22245Y-37583D01*
D19*
X-22245Y-37583D03*
D18*
X1621Y-58270D02*
X-3810Y-63701D01*
X-3810Y-75195D01*
D19*
X-3810Y-75195D03*
D18*
X69165Y-129921D02*
X82538Y-143295D01*
X69165Y-129921D02*
X68199Y-129921D01*
D19*
X68199Y-129921D03*
D18*
X79515Y-43471D02*
X79515Y-35131D01*
X76618Y-32234D01*
D19*
X76618Y-32234D03*
D18*
X-82662Y119873D02*
X-82662Y142905D01*
X-82662Y119873D02*
X-82423Y119634D01*
D19*
X-82423Y119634D03*
D18*
X-149225Y14986D02*
X-150081Y14986D01*
X-165262Y-195D01*
D19*
X-149225Y14986D03*
D18*
X-74905Y-11727D02*
X-54573Y-11727D01*
X-52636Y-13664D01*
D19*
X82296Y119761D03*
D18*
X82284Y119773D02*
X82284Y142651D01*
X82284Y119773D02*
X82296Y119761D01*
X82284Y142651D02*
X82538Y142905D01*
D19*
X86233Y-16002D03*
D18*
X80075Y-9844D02*
X74329Y-9844D01*
X80075Y-9844D02*
X86233Y-16002D01*
X69884Y-5399D02*
X57465Y-5399D01*
X69884Y-5399D02*
X74329Y-9844D01*
D19*
X-21209Y-120396D03*
D18*
X-21043Y-120230D01*
X-21043Y-109934D01*
X-25880Y-97770D02*
X-38043Y-109934D01*
X-25880Y-97770D02*
X-25880Y-92770D01*
X-38147Y-110038D02*
X-56858Y-110038D01*
X-38147Y-110038D02*
X-38043Y-109934D01*
X36121Y-30770D02*
X29121Y-23770D01*
X49360Y-14287D02*
X73920Y-14287D01*
X87201Y-27567D02*
X100714Y-27567D01*
X87201Y-27567D02*
X73920Y-14287D01*
X28995Y-7257D02*
X28995Y14252D01*
X28995Y-7257D02*
X29064Y-7325D01*
X29064Y-23713D01*
X29121Y-23770D01*
X-52636Y-30664D02*
X-52700Y-30727D01*
X-52636Y-30664D02*
X-32986Y-30664D01*
X-32880Y-30770D01*
X44520Y-19127D02*
X49360Y-14287D01*
X44520Y-27593D02*
X41343Y-30770D01*
X36121Y-30770D01*
X44520Y-27593D02*
X44520Y-19127D01*
X-38043Y-109934D02*
X-38043Y-123247D01*
X-37973Y-123317D01*
D19*
X-37973Y-123317D03*
D18*
X-52636Y-30664D02*
X-74842Y-30664D01*
X-74905Y-30727D01*
X-81033Y-30727D01*
X-88265Y-23495D02*
X-88265Y-12573D01*
D19*
X-88265Y-12573D03*
D18*
X-88265Y-23495D02*
X-81033Y-30727D01*
X100714Y-27567D02*
X140816Y-27567D01*
X153145Y-15238D01*
D19*
X153145Y-15238D03*
D18*
X-88265Y-12573D02*
X-88265Y6477D01*
X-72517Y22225D01*
X-72517Y39116D01*
X-77851Y44450D02*
X-92583Y44450D01*
X-99441Y51308D01*
D19*
X-94742Y117094D03*
D18*
X-99441Y112395D01*
X-77851Y44450D02*
X-72517Y39116D01*
X-99441Y51308D02*
X-99441Y112395D01*
D19*
X-131280Y39931D03*
D18*
X-32880Y-60770D02*
X-32891Y-60782D01*
X-96904Y-60782D01*
X-131280Y-26405D01*
X-131280Y39931D01*
X-45940Y-50770D02*
X-32880Y-50770D01*
X-45940Y-50770D02*
X-48334Y-48377D01*
X-50432Y-48377D01*
D19*
X-50432Y-48377D03*
D18*
X36121Y-70770D02*
X41283Y-70770D01*
X61498Y-90985D02*
X61498Y-93367D01*
X61498Y-90985D02*
X41283Y-70770D01*
X78701Y-93367D02*
X82392Y-97058D01*
X78701Y-93367D02*
X61498Y-93367D01*
X82392Y-97058D02*
X94366Y-85084D01*
X94366Y-50915D02*
X100714Y-44567D01*
X94366Y-50915D02*
X94366Y-85084D01*
D19*
X-39642Y17117D03*
D18*
X-15822Y-20358D02*
X-15822Y-23713D01*
X-15880Y-23770D01*
X-15822Y-20358D02*
X-39642Y3462D01*
X-39642Y17117D01*
D20*
X72593Y50549D02*
X82423Y50549D01*
X72593Y50549D02*
X68609Y46565D01*
D19*
X68609Y46565D03*
D18*
X-10880Y-17916D02*
X-10880Y-23770D01*
X-10880Y-17916D02*
X-32901Y4105D01*
X-32901Y26805D01*
D19*
X-32901Y26805D03*
D20*
X82220Y33757D02*
X82410Y33566D01*
X82220Y33757D02*
X78481Y33757D01*
X75771Y36467D01*
X68519Y36467D01*
D19*
X68519Y36467D03*
D18*
X39568Y-50770D02*
X36121Y-50770D01*
X53613Y-36725D02*
X57450Y-36725D01*
X53613Y-36725D02*
X39568Y-50770D01*
X51569Y-60725D02*
X57450Y-60725D01*
X51569Y-60725D02*
X46614Y-55770D01*
X36121Y-55770D01*
X9121Y-23770D02*
X9121Y-19562D01*
X-5555Y-8616D02*
X-5555Y-3199D01*
X5812Y-16253D02*
X9121Y-19562D01*
X5812Y-16253D02*
X2083Y-16253D01*
X-5555Y-8616D01*
D19*
X81862Y13211D03*
D18*
X81862Y8143D02*
X82022Y7983D01*
X81862Y8143D02*
X81862Y13211D01*
X82022Y7983D02*
X82022Y-2050D01*
X81862Y13211D02*
X81862Y18291D01*
X70331Y29821D01*
X-15875Y23114D02*
X-15875Y1279D01*
X-11397Y-3199D02*
X-5555Y-3199D01*
X-11397Y-3199D02*
X-15875Y1279D01*
X-15875Y23114D02*
X-9168Y29821D01*
X70331Y29821D01*
X44065Y-60770D02*
X36121Y-60770D01*
X44065Y-60770D02*
X50046Y-66751D01*
X75295Y-66751D01*
X79515Y-62531D02*
X79515Y-60471D01*
X79515Y-62531D02*
X75295Y-66751D01*
X79515Y-60471D02*
X79515Y-59715D01*
X70241Y-59715D01*
D19*
X70241Y-59715D03*
D18*
X104861Y-2266D02*
X104607Y-2012D01*
X104861Y-2266D02*
X104861Y-11692D01*
D19*
X104861Y-11692D03*
D18*
X42397Y-65770D02*
X36121Y-65770D01*
X52994Y-76367D02*
X61498Y-76367D01*
X52994Y-76367D02*
X42397Y-65770D01*
X61498Y-76367D02*
X63189Y-78058D01*
X82392Y-78058D01*
X88913Y-35228D02*
X76083Y-22399D01*
X57465Y-22399D01*
X88913Y-35228D02*
X88913Y-75230D01*
X86085Y-78058D02*
X82392Y-78058D01*
X86085Y-78058D02*
X88913Y-75230D01*
X36121Y-85770D02*
X36121Y-97477D01*
X88666Y-108737D02*
X103075Y-94329D01*
D19*
X103075Y-94329D03*
D18*
X47381Y-108737D02*
X36121Y-97477D01*
X47381Y-108737D02*
X88666Y-108737D01*
D19*
X24350Y-128183D03*
D18*
X24121Y-96950D02*
X24121Y-92770D01*
X24121Y-96950D02*
X25037Y-97866D01*
X25037Y-127496D02*
X24350Y-128183D01*
X25037Y-127496D02*
X25037Y-97866D01*
X29121Y-100139D02*
X29121Y-92770D01*
X29121Y-100139D02*
X43343Y-114361D01*
X92343Y-114361D01*
X122026Y-84677D01*
X123838Y-81539D01*
X123838Y-71695D01*
X19121Y-92770D02*
X19121Y-97697D01*
X20973Y-99549D01*
X20973Y-122260D01*
X-62Y-143295D01*
X-32880Y-40770D02*
X-95595Y-40770D01*
X-100759Y31272D02*
X-87076Y31272D01*
X-87076Y31801D01*
X-102664Y-33701D02*
X-95595Y-40770D01*
D19*
X-100759Y31272D03*
D18*
X-102664Y29367D02*
X-102664Y-33701D01*
X-102664Y29367D02*
X-100759Y31272D01*
X-86439Y56660D02*
X-73518Y56660D01*
X-86439Y56660D02*
X-86980Y57201D01*
X-87076Y57201D02*
X-87076Y57201D01*
X-86980Y57201D01*
D19*
X-73518Y56660D03*
D18*
X-54087Y56660D02*
X-48118Y50691D01*
X-54087Y56660D02*
X-73518Y56660D01*
X-48118Y50691D02*
X-48118Y2042D01*
X-25880Y-20196D01*
X-25880Y-23770D01*
X-10880Y-92770D02*
X-10880Y-96573D01*
X-5458Y-101994D02*
X-5458Y-102431D01*
X-5458Y-101994D02*
X-10880Y-96573D01*
D19*
X-5458Y-102431D03*
X-10176Y-110259D03*
D18*
X-12015Y-108420D02*
X-12015Y-104002D01*
X-12015Y-108420D02*
X-10176Y-110259D01*
X-15880Y-100138D02*
X-15880Y-92770D01*
X-15880Y-100138D02*
X-12015Y-104002D01*
D19*
X-97107Y-82292D03*
D18*
X-113364Y-82292D01*
X-123962Y-71695D01*
X36121Y-75770D02*
X40508Y-75770D01*
D19*
X51507Y-101267D03*
D18*
X51850Y-100924D02*
X51850Y-87112D01*
X51850Y-100924D02*
X51507Y-101267D01*
X51850Y-87112D02*
X40508Y-75770D01*
D19*
X44856Y-91681D03*
D18*
X36121Y-80770D02*
X36122Y-80769D01*
X39454Y-80769D01*
X44856Y-86171D01*
X44856Y-91681D01*
D19*
X117262Y43437D03*
D18*
X123838Y50013D01*
X123838Y71305D01*
X-32880Y-55770D02*
X-95660Y-55770D01*
X-123962Y-27468D02*
X-123962Y71305D01*
X-123962Y-27468D02*
X-95660Y-55770D01*
D19*
X-56896Y-67358D03*
D18*
X-55309Y-65770D01*
X-32880Y-65770D01*
D19*
X7567Y-103198D03*
D18*
X9121Y-101644D02*
X9121Y-92770D01*
X9121Y-101644D02*
X7567Y-103198D01*
D19*
X14651Y-110617D03*
D18*
X14121Y-110087D01*
X14121Y-92770D01*
M02*
