G04 EAGLE Gerber RS-274X export*
G75*
%MOMM*%
%FSLAX34Y34*%
%LPD*%
%INTop Copper*%
%IPPOS*%
%AMOC8*
5,1,8,0,0,1.08239X$1,22.5*%
G01*
%ADD10R,0.800000X0.800000*%
%ADD11R,1.000000X1.100000*%
%ADD12C,0.499997*%
%ADD13C,1.000000*%
%ADD14R,0.800000X0.400000*%
%ADD15R,0.400000X0.800000*%
%ADD16R,1.450000X1.450000*%
%ADD17R,0.700000X0.700000*%
%ADD18R,0.250000X0.360000*%
%ADD19R,0.900000X0.700000*%
%ADD20R,1.500000X1.300000*%
%ADD21R,0.700000X0.900000*%
%ADD22R,0.210000X0.270000*%
%ADD23C,0.254000*%
%ADD24C,0.756400*%
%ADD25C,0.203200*%
%ADD26C,0.177800*%

G36*
X-67634Y-150688D02*
X-67634Y-150688D01*
X-67606Y-150691D01*
X-67538Y-150669D01*
X-67467Y-150654D01*
X-67444Y-150638D01*
X-67417Y-150629D01*
X-67362Y-150582D01*
X-67303Y-150542D01*
X-67288Y-150518D01*
X-67266Y-150499D01*
X-67235Y-150435D01*
X-67196Y-150374D01*
X-67191Y-150346D01*
X-67179Y-150321D01*
X-67170Y-150219D01*
X-67163Y-150178D01*
X-67165Y-150168D01*
X-67164Y-150155D01*
X-67221Y-149440D01*
X-28816Y-149440D01*
X-28812Y-149436D01*
X-28808Y-149436D01*
X-28782Y-149410D01*
X-28781Y-149406D01*
X-28780Y-149405D01*
X-28781Y-149405D01*
X-28778Y-149403D01*
X-28570Y-146623D01*
X-28573Y-146619D01*
X-28572Y-146616D01*
X-28650Y-146491D01*
X-28516Y-145907D01*
X-28517Y-145906D01*
X-28516Y-145905D01*
X-28471Y-145307D01*
X-28360Y-145211D01*
X-28359Y-145206D01*
X-28356Y-145204D01*
X-27719Y-142414D01*
X-27721Y-142410D01*
X-27720Y-142407D01*
X-27779Y-142272D01*
X-27560Y-141714D01*
X-27560Y-141713D01*
X-27559Y-141712D01*
X-27425Y-141127D01*
X-27301Y-141049D01*
X-27300Y-141044D01*
X-27296Y-141043D01*
X-26251Y-138379D01*
X-26252Y-138374D01*
X-26250Y-138371D01*
X-26288Y-138229D01*
X-25988Y-137710D01*
X-25989Y-137709D01*
X-25988Y-137708D01*
X-25768Y-137150D01*
X-25634Y-137091D01*
X-25632Y-137087D01*
X-25628Y-137086D01*
X-24197Y-134608D01*
X-24198Y-134603D01*
X-24196Y-134600D01*
X-24212Y-134454D01*
X-23838Y-133985D01*
X-23838Y-133984D01*
X-23837Y-133984D01*
X-23537Y-133464D01*
X-23395Y-133426D01*
X-23393Y-133422D01*
X-23389Y-133422D01*
X-21604Y-131184D01*
X-21605Y-131180D01*
X-21602Y-131177D01*
X-21596Y-131031D01*
X-21157Y-130623D01*
X-21157Y-130621D01*
X-21155Y-130621D01*
X-20781Y-130152D01*
X-20635Y-130136D01*
X-20632Y-130132D01*
X-20629Y-130133D01*
X-18531Y-128186D01*
X-18530Y-128181D01*
X-18527Y-128180D01*
X-18500Y-128035D01*
X-18004Y-127697D01*
X-18004Y-127696D01*
X-18003Y-127696D01*
X-17563Y-127288D01*
X-17416Y-127294D01*
X-17412Y-127291D01*
X-17409Y-127292D01*
X-15044Y-125679D01*
X-15043Y-125675D01*
X-15040Y-125673D01*
X-14991Y-125535D01*
X-14450Y-125274D01*
X-14450Y-125273D01*
X-14449Y-125274D01*
X-13953Y-124936D01*
X-13809Y-124963D01*
X-13805Y-124961D01*
X-13802Y-124962D01*
X-11223Y-123720D01*
X-11221Y-123716D01*
X-11218Y-123715D01*
X-11149Y-123585D01*
X-10576Y-123408D01*
X-10575Y-123407D01*
X-10574Y-123408D01*
X-10034Y-123147D01*
X-9895Y-123196D01*
X-9891Y-123194D01*
X-9888Y-123196D01*
X-7152Y-122352D01*
X-7150Y-122348D01*
X-7146Y-122348D01*
X-7059Y-122230D01*
X-6466Y-122140D01*
X-6465Y-122139D01*
X-6464Y-122140D01*
X-5891Y-121963D01*
X-5761Y-122032D01*
X-5759Y-122031D01*
X-5756Y-122031D01*
X-5754Y-122033D01*
X-2924Y-121607D01*
X-2921Y-121603D01*
X-2917Y-121603D01*
X-2813Y-121499D01*
X-2213Y-121499D01*
X-2212Y-121498D01*
X-2212Y-121499D01*
X-1618Y-121410D01*
X-1500Y-121497D01*
X-1495Y-121497D01*
X-1493Y-121499D01*
X1369Y-121499D01*
X1373Y-121496D01*
X1376Y-121497D01*
X1494Y-121410D01*
X2088Y-121499D01*
X2089Y-121498D01*
X2089Y-121499D01*
X2689Y-121499D01*
X2793Y-121603D01*
X2798Y-121603D01*
X2800Y-121607D01*
X5630Y-122033D01*
X5633Y-122031D01*
X5635Y-122031D01*
X5636Y-122031D01*
X5637Y-122032D01*
X5767Y-121963D01*
X6340Y-122140D01*
X6342Y-122140D01*
X6935Y-122230D01*
X7023Y-122348D01*
X7027Y-122349D01*
X7029Y-122352D01*
X9764Y-123196D01*
X9768Y-123194D01*
X9771Y-123196D01*
X9910Y-123147D01*
X10450Y-123408D01*
X10451Y-123407D01*
X10452Y-123408D01*
X11025Y-123585D01*
X11094Y-123715D01*
X11098Y-123717D01*
X11099Y-123720D01*
X13678Y-124962D01*
X13682Y-124961D01*
X13685Y-124963D01*
X13830Y-124936D01*
X14325Y-125273D01*
X14326Y-125273D01*
X14327Y-125274D01*
X14867Y-125535D01*
X14916Y-125673D01*
X14920Y-125676D01*
X14920Y-125679D01*
X17285Y-127292D01*
X17290Y-127291D01*
X17292Y-127294D01*
X17439Y-127288D01*
X17879Y-127696D01*
X17880Y-127696D01*
X17880Y-127697D01*
X18376Y-128035D01*
X18403Y-128180D01*
X18407Y-128182D01*
X18407Y-128186D01*
X19277Y-128994D01*
X19281Y-128994D01*
X19284Y-128997D01*
X19287Y-128994D01*
X19293Y-128994D01*
X19293Y-128989D01*
X19297Y-128985D01*
X19297Y-126090D01*
X22257Y-123130D01*
X26443Y-123130D01*
X29403Y-126090D01*
X29403Y-130276D01*
X26443Y-133235D01*
X23141Y-133235D01*
X23138Y-133238D01*
X23135Y-133237D01*
X23134Y-133242D01*
X23129Y-133246D01*
X23132Y-133250D01*
X23132Y-133255D01*
X23265Y-133422D01*
X23270Y-133423D01*
X23271Y-133426D01*
X23413Y-133464D01*
X23713Y-133984D01*
X23714Y-133984D01*
X23714Y-133985D01*
X24088Y-134454D01*
X24082Y-134513D01*
X24074Y-134585D01*
X24073Y-134585D01*
X24072Y-134600D01*
X24074Y-134604D01*
X24073Y-134608D01*
X25504Y-137086D01*
X25509Y-137088D01*
X25510Y-137091D01*
X25645Y-137150D01*
X25864Y-137708D01*
X25865Y-137709D01*
X25865Y-137710D01*
X26164Y-138229D01*
X26126Y-138371D01*
X26129Y-138376D01*
X26127Y-138379D01*
X27173Y-141043D01*
X27177Y-141045D01*
X27177Y-141049D01*
X27302Y-141127D01*
X27435Y-141712D01*
X27436Y-141713D01*
X27436Y-141714D01*
X27655Y-142272D01*
X27596Y-142407D01*
X27598Y-142411D01*
X27597Y-142411D01*
X27596Y-142413D01*
X27595Y-142414D01*
X28232Y-145204D01*
X28236Y-145207D01*
X28236Y-145211D01*
X28348Y-145307D01*
X28392Y-145905D01*
X28393Y-145906D01*
X28393Y-145907D01*
X28526Y-146491D01*
X28448Y-146616D01*
X28449Y-146620D01*
X28446Y-146623D01*
X28654Y-149403D01*
X28658Y-149406D01*
X28658Y-149410D01*
X28684Y-149436D01*
X28690Y-149437D01*
X28692Y-149440D01*
X28693Y-149440D01*
X67097Y-149440D01*
X67040Y-150155D01*
X67044Y-150183D01*
X67039Y-150211D01*
X67056Y-150281D01*
X67064Y-150352D01*
X67079Y-150377D01*
X67085Y-150405D01*
X67128Y-150462D01*
X67164Y-150525D01*
X67186Y-150542D01*
X67203Y-150565D01*
X67265Y-150601D01*
X67322Y-150645D01*
X67350Y-150652D01*
X67374Y-150666D01*
X67474Y-150683D01*
X67515Y-150693D01*
X67525Y-150692D01*
X67538Y-150694D01*
X86538Y-150694D01*
X86614Y-150678D01*
X86692Y-150670D01*
X86711Y-150659D01*
X86733Y-150654D01*
X86797Y-150610D01*
X86865Y-150572D01*
X86881Y-150553D01*
X86897Y-150542D01*
X86921Y-150504D01*
X86971Y-150444D01*
X96471Y-133944D01*
X96480Y-133917D01*
X96496Y-133893D01*
X96511Y-133823D01*
X96534Y-133755D01*
X96531Y-133727D01*
X96537Y-133698D01*
X96524Y-133628D01*
X96518Y-133557D01*
X96505Y-133531D01*
X96499Y-133503D01*
X96459Y-133444D01*
X96426Y-133380D01*
X96404Y-133362D01*
X96388Y-133338D01*
X96305Y-133281D01*
X96273Y-133254D01*
X96263Y-133251D01*
X96252Y-133243D01*
X95624Y-132947D01*
X114804Y-99725D01*
X114804Y-99723D01*
X114803Y-99719D01*
X114806Y-99716D01*
X114799Y-99692D01*
X114795Y-99689D01*
X114794Y-99685D01*
X112489Y-98115D01*
X112484Y-98115D01*
X112482Y-98113D01*
X112335Y-98118D01*
X111895Y-97710D01*
X111894Y-97710D01*
X111894Y-97709D01*
X111398Y-97372D01*
X111371Y-97227D01*
X111367Y-97224D01*
X111367Y-97221D01*
X109267Y-95273D01*
X109262Y-95273D01*
X109260Y-95270D01*
X109114Y-95254D01*
X108740Y-94785D01*
X108739Y-94784D01*
X108739Y-94783D01*
X108299Y-94375D01*
X108293Y-94229D01*
X108290Y-94225D01*
X108291Y-94222D01*
X108149Y-94044D01*
X108144Y-94044D01*
X108141Y-94040D01*
X108138Y-94042D01*
X108134Y-94042D01*
X108132Y-94048D01*
X108128Y-94052D01*
X108128Y-96421D01*
X105168Y-99381D01*
X100982Y-99381D01*
X98022Y-96422D01*
X98022Y-92236D01*
X100982Y-89276D01*
X104530Y-89276D01*
X104534Y-89272D01*
X104538Y-89272D01*
X104707Y-89104D01*
X104707Y-89096D01*
X104709Y-89095D01*
X104707Y-89093D01*
X104709Y-89090D01*
X104262Y-88317D01*
X104258Y-88316D01*
X104257Y-88312D01*
X104122Y-88254D01*
X103903Y-87695D01*
X103902Y-87695D01*
X103902Y-87694D01*
X103602Y-87174D01*
X103640Y-87033D01*
X103638Y-87028D01*
X103640Y-87025D01*
X102592Y-84359D01*
X102588Y-84357D01*
X102587Y-84353D01*
X102463Y-84275D01*
X102329Y-83691D01*
X102328Y-83690D01*
X102329Y-83689D01*
X102110Y-83130D01*
X102168Y-82996D01*
X102167Y-82992D01*
X102169Y-82991D01*
X102168Y-82990D01*
X102169Y-82988D01*
X101531Y-80196D01*
X101527Y-80193D01*
X101527Y-80189D01*
X101415Y-80094D01*
X101370Y-79496D01*
X101370Y-79495D01*
X101370Y-79494D01*
X101236Y-78909D01*
X101315Y-78785D01*
X101314Y-78780D01*
X101315Y-78779D01*
X101316Y-78778D01*
X101316Y-78777D01*
X101101Y-75921D01*
X101098Y-75918D01*
X101099Y-75914D01*
X101003Y-75803D01*
X101047Y-75205D01*
X101047Y-75204D01*
X101047Y-75203D01*
X101002Y-74605D01*
X101098Y-74493D01*
X101098Y-74489D01*
X101101Y-74486D01*
X101314Y-71630D01*
X101311Y-71626D01*
X101312Y-71623D01*
X101234Y-71498D01*
X101367Y-70914D01*
X101367Y-70913D01*
X101368Y-70912D01*
X101412Y-70314D01*
X101524Y-70218D01*
X101524Y-70213D01*
X101527Y-70211D01*
X102164Y-67418D01*
X102162Y-67414D01*
X102163Y-67411D01*
X102104Y-67276D01*
X102323Y-66718D01*
X102323Y-66717D01*
X102324Y-66716D01*
X102457Y-66131D01*
X102582Y-66053D01*
X102583Y-66049D01*
X102586Y-66048D01*
X103632Y-63381D01*
X103630Y-63376D01*
X103632Y-63373D01*
X103594Y-63231D01*
X103894Y-62712D01*
X103894Y-62711D01*
X103895Y-62710D01*
X104114Y-62152D01*
X104248Y-62093D01*
X104250Y-62089D01*
X104254Y-62088D01*
X105685Y-59607D01*
X105685Y-59605D01*
X105686Y-59604D01*
X105685Y-59602D01*
X105687Y-59599D01*
X105671Y-59454D01*
X106044Y-58985D01*
X106044Y-58983D01*
X106045Y-58983D01*
X106345Y-58463D01*
X106487Y-58425D01*
X106490Y-58421D01*
X106493Y-58421D01*
X108278Y-56181D01*
X108278Y-56176D01*
X108281Y-56174D01*
X108286Y-56027D01*
X108726Y-55619D01*
X108726Y-55618D01*
X108727Y-55618D01*
X109101Y-55149D01*
X109247Y-55132D01*
X109250Y-55129D01*
X109254Y-55129D01*
X111353Y-53180D01*
X111354Y-53176D01*
X111357Y-53174D01*
X111384Y-53029D01*
X111879Y-52691D01*
X111880Y-52690D01*
X111881Y-52690D01*
X112320Y-52282D01*
X112467Y-52288D01*
X112471Y-52285D01*
X112474Y-52285D01*
X114841Y-50671D01*
X114842Y-50667D01*
X114845Y-50665D01*
X114894Y-50527D01*
X115434Y-50266D01*
X115435Y-50265D01*
X115436Y-50265D01*
X115931Y-49927D01*
X116075Y-49954D01*
X116079Y-49952D01*
X116083Y-49953D01*
X118663Y-48710D01*
X118665Y-48705D01*
X118668Y-48705D01*
X118737Y-48575D01*
X119310Y-48398D01*
X119311Y-48397D01*
X119312Y-48397D01*
X119852Y-48137D01*
X119991Y-48185D01*
X119993Y-48184D01*
X119997Y-48184D01*
X119998Y-48185D01*
X122735Y-47340D01*
X122738Y-47336D01*
X122741Y-47336D01*
X122829Y-47217D01*
X123422Y-47128D01*
X123423Y-47127D01*
X123997Y-46950D01*
X124126Y-47019D01*
X124131Y-47018D01*
X124134Y-47020D01*
X126966Y-46592D01*
X126969Y-46589D01*
X126973Y-46589D01*
X127077Y-46485D01*
X127676Y-46485D01*
X127677Y-46485D01*
X127678Y-46485D01*
X128271Y-46395D01*
X128390Y-46483D01*
X128394Y-46482D01*
X128396Y-46485D01*
X128397Y-46485D01*
X129088Y-46485D01*
X129187Y-46485D01*
X131261Y-46484D01*
X131265Y-46481D01*
X131268Y-46482D01*
X131386Y-46394D01*
X131980Y-46484D01*
X131981Y-46483D01*
X131981Y-46484D01*
X132581Y-46483D01*
X132685Y-46587D01*
X132690Y-46588D01*
X132692Y-46591D01*
X135524Y-47017D01*
X135528Y-47014D01*
X135532Y-47015D01*
X135661Y-46947D01*
X136235Y-47123D01*
X136236Y-47123D01*
X136237Y-47124D01*
X136830Y-47213D01*
X136917Y-47331D01*
X136922Y-47332D01*
X136923Y-47335D01*
X139661Y-48179D01*
X139665Y-48177D01*
X139668Y-48179D01*
X139807Y-48130D01*
X140347Y-48390D01*
X140348Y-48390D01*
X140349Y-48391D01*
X140922Y-48568D01*
X140991Y-48697D01*
X140995Y-48699D01*
X140996Y-48703D01*
X143510Y-49912D01*
X143515Y-49911D01*
X143518Y-49913D01*
X143566Y-49900D01*
X143569Y-49895D01*
X143573Y-49895D01*
X162746Y-16685D01*
X163355Y-17105D01*
X163381Y-17117D01*
X163403Y-17135D01*
X163472Y-17156D01*
X163537Y-17184D01*
X163566Y-17184D01*
X163594Y-17192D01*
X163665Y-17184D01*
X163736Y-17184D01*
X163763Y-17173D01*
X163792Y-17170D01*
X163854Y-17135D01*
X163919Y-17107D01*
X163940Y-17086D01*
X163965Y-17072D01*
X164029Y-16995D01*
X164058Y-16964D01*
X164062Y-16954D01*
X164071Y-16944D01*
X173571Y-444D01*
X173581Y-412D01*
X173590Y-399D01*
X173594Y-375D01*
X173595Y-371D01*
X173626Y-300D01*
X173626Y-277D01*
X173634Y-255D01*
X173628Y-178D01*
X173629Y-101D01*
X173620Y-77D01*
X173618Y-57D01*
X173597Y-17D01*
X173571Y55D01*
X164071Y16555D01*
X164052Y16576D01*
X164039Y16603D01*
X163986Y16650D01*
X163939Y16704D01*
X163913Y16716D01*
X163892Y16736D01*
X163824Y16759D01*
X163760Y16790D01*
X163731Y16791D01*
X163704Y16800D01*
X163633Y16796D01*
X163561Y16799D01*
X163534Y16789D01*
X163505Y16787D01*
X163415Y16744D01*
X163375Y16730D01*
X163367Y16722D01*
X163355Y16716D01*
X162746Y16296D01*
X143573Y49505D01*
X143568Y49507D01*
X143566Y49511D01*
X143518Y49524D01*
X143513Y49522D01*
X143510Y49523D01*
X140996Y48314D01*
X140994Y48309D01*
X140991Y48308D01*
X140922Y48179D01*
X140349Y48002D01*
X140348Y48001D01*
X140347Y48001D01*
X139807Y47741D01*
X139668Y47790D01*
X139664Y47788D01*
X139661Y47790D01*
X136923Y46946D01*
X136921Y46942D01*
X136917Y46942D01*
X136830Y46824D01*
X136237Y46735D01*
X136236Y46734D01*
X136235Y46734D01*
X135661Y46558D01*
X135532Y46626D01*
X135527Y46625D01*
X135524Y46628D01*
X132692Y46202D01*
X132689Y46198D01*
X132685Y46198D01*
X132581Y46094D01*
X131981Y46095D01*
X131981Y46094D01*
X131980Y46094D01*
X131386Y46005D01*
X131268Y46093D01*
X131264Y46092D01*
X131264Y46093D01*
X131263Y46093D01*
X131261Y46095D01*
X128397Y46096D01*
X128393Y46093D01*
X128390Y46093D01*
X128271Y46006D01*
X127678Y46096D01*
X127677Y46095D01*
X127676Y46096D01*
X127077Y46096D01*
X126973Y46200D01*
X126968Y46200D01*
X126966Y46203D01*
X126393Y46290D01*
X126392Y46290D01*
X126391Y46289D01*
X126379Y46282D01*
X126380Y46280D01*
X126379Y46278D01*
X126379Y-33760D01*
X56330Y-103808D01*
X56117Y-103808D01*
X56113Y-103812D01*
X56109Y-103812D01*
X53600Y-106320D01*
X49414Y-106320D01*
X46455Y-103360D01*
X46455Y-99174D01*
X49414Y-96215D01*
X53600Y-96215D01*
X55160Y-97775D01*
X55176Y-97776D01*
X55176Y-97775D01*
X55177Y-97775D01*
X58710Y-94242D01*
X58710Y-94238D01*
X58713Y-94235D01*
X58710Y-94232D01*
X58711Y-94227D01*
X58705Y-94226D01*
X58701Y-94222D01*
X49466Y-94222D01*
X49462Y-94226D01*
X49458Y-94226D01*
X46949Y-96734D01*
X42763Y-96734D01*
X40842Y-94812D01*
X40837Y-94812D01*
X40835Y-94809D01*
X40831Y-94811D01*
X40826Y-94811D01*
X40825Y-94817D01*
X40821Y-94821D01*
X40821Y-108343D01*
X40825Y-108347D01*
X40825Y-108352D01*
X59850Y-127377D01*
X59856Y-127377D01*
X59858Y-127380D01*
X63589Y-127380D01*
X63593Y-127377D01*
X63598Y-127377D01*
X66106Y-124868D01*
X70292Y-124868D01*
X73252Y-127828D01*
X73252Y-132014D01*
X70292Y-134974D01*
X66106Y-134974D01*
X63598Y-132465D01*
X63592Y-132465D01*
X63589Y-132462D01*
X57749Y-132462D01*
X35740Y-110453D01*
X35740Y-81197D01*
X37232Y-79705D01*
X74074Y-42862D01*
X74074Y-42857D01*
X74078Y-42854D01*
X74078Y-36844D01*
X74074Y-36839D01*
X74074Y-36835D01*
X72017Y-34778D01*
X72011Y-34778D01*
X72008Y-34775D01*
X70232Y-34775D01*
X57815Y-22358D01*
X57815Y-17816D01*
X57805Y-17804D01*
X57804Y-17805D01*
X57803Y-17804D01*
X56330Y-17804D01*
X55585Y-17060D01*
X55585Y-9007D01*
X56330Y-8263D01*
X64382Y-8263D01*
X65127Y-9007D01*
X65127Y-17060D01*
X64382Y-17804D01*
X62909Y-17804D01*
X62897Y-17814D01*
X62897Y-17815D01*
X62897Y-17816D01*
X62897Y-20248D01*
X62900Y-20252D01*
X62900Y-20257D01*
X72167Y-29523D01*
X72172Y-29523D01*
X72173Y-29525D01*
X72177Y-29525D01*
X72178Y-29524D01*
X72182Y-29524D01*
X72183Y-29523D01*
X72184Y-29523D01*
X74525Y-27181D01*
X78711Y-27181D01*
X80475Y-28945D01*
X80491Y-28946D01*
X80491Y-28945D01*
X80492Y-28945D01*
X83689Y-25748D01*
X83689Y-25744D01*
X83689Y-25742D01*
X83692Y-25740D01*
X83692Y-20612D01*
X83689Y-20608D01*
X83689Y-20603D01*
X81180Y-18095D01*
X81180Y-13909D01*
X84140Y-10949D01*
X88326Y-10949D01*
X91286Y-13909D01*
X91286Y-18095D01*
X88777Y-20603D01*
X88777Y-20609D01*
X88774Y-20612D01*
X88774Y-27849D01*
X81849Y-34775D01*
X81228Y-34775D01*
X81224Y-34778D01*
X81220Y-34778D01*
X79163Y-36835D01*
X79162Y-36841D01*
X79159Y-36844D01*
X79159Y-44964D01*
X69481Y-54642D01*
X69480Y-54646D01*
X69477Y-54649D01*
X69480Y-54652D01*
X69480Y-54658D01*
X69485Y-54658D01*
X69489Y-54663D01*
X72334Y-54663D01*
X74843Y-57171D01*
X74848Y-57172D01*
X74849Y-57173D01*
X74851Y-57175D01*
X83276Y-57175D01*
X83280Y-57171D01*
X83284Y-57171D01*
X102317Y-38138D01*
X102317Y-38134D01*
X102320Y-38132D01*
X102319Y-38131D01*
X102321Y-38130D01*
X102321Y-16301D01*
X102317Y-16297D01*
X102317Y-16293D01*
X99809Y-13785D01*
X99809Y-9599D01*
X101105Y-8303D01*
X101105Y-8299D01*
X101108Y-8296D01*
X101105Y-8293D01*
X101106Y-8287D01*
X101100Y-8287D01*
X101096Y-8282D01*
X97545Y-8282D01*
X95337Y-6074D01*
X95337Y2050D01*
X97545Y4259D01*
X111669Y4259D01*
X113878Y2050D01*
X113878Y-6074D01*
X111669Y-8282D01*
X108627Y-8282D01*
X108623Y-8285D01*
X108619Y-8285D01*
X108619Y-8289D01*
X108615Y-8293D01*
X108618Y-8297D01*
X108618Y-8303D01*
X109914Y-9599D01*
X109914Y-13785D01*
X107406Y-16293D01*
X107405Y-16297D01*
X107404Y-16298D01*
X107405Y-16299D01*
X107402Y-16301D01*
X107402Y-39266D01*
X107405Y-39269D01*
X107405Y-39273D01*
X107409Y-39274D01*
X107413Y-39278D01*
X107417Y-39274D01*
X107422Y-39274D01*
X114718Y-31979D01*
X114718Y-31973D01*
X114721Y-31970D01*
X114721Y38827D01*
X114718Y38831D01*
X114718Y38835D01*
X112209Y41344D01*
X112209Y45529D01*
X115169Y48489D01*
X118261Y48489D01*
X118265Y48493D01*
X118271Y48495D01*
X118270Y48497D01*
X118273Y48500D01*
X118268Y48505D01*
X118266Y48512D01*
X116083Y49564D01*
X116078Y49563D01*
X116075Y49565D01*
X115931Y49538D01*
X115436Y49876D01*
X115434Y49876D01*
X115434Y49877D01*
X114894Y50137D01*
X114845Y50276D01*
X114841Y50278D01*
X114841Y50282D01*
X112474Y51896D01*
X112470Y51896D01*
X112467Y51898D01*
X112358Y51894D01*
X112357Y51894D01*
X112320Y51893D01*
X111881Y52301D01*
X111880Y52301D01*
X111879Y52302D01*
X111384Y52640D01*
X111357Y52785D01*
X111353Y52788D01*
X111353Y52791D01*
X109254Y54740D01*
X109249Y54740D01*
X109247Y54743D01*
X109101Y54760D01*
X108727Y55229D01*
X108726Y55229D01*
X108726Y55230D01*
X108286Y55638D01*
X108281Y55785D01*
X108278Y55788D01*
X108278Y55792D01*
X106493Y58032D01*
X106489Y58033D01*
X106487Y58036D01*
X106345Y58074D01*
X106045Y58594D01*
X106044Y58594D01*
X106044Y58596D01*
X105671Y59065D01*
X105682Y59163D01*
X105687Y59210D01*
X105684Y59214D01*
X105685Y59218D01*
X104254Y61699D01*
X104250Y61700D01*
X104248Y61704D01*
X104114Y61763D01*
X103895Y62321D01*
X103894Y62322D01*
X103894Y62323D01*
X103594Y62842D01*
X103632Y62984D01*
X103630Y62988D01*
X103632Y62992D01*
X102586Y65658D01*
X102582Y65661D01*
X102582Y65664D01*
X102457Y65742D01*
X102324Y66327D01*
X102323Y66328D01*
X102323Y66329D01*
X102104Y66887D01*
X102163Y67022D01*
X102162Y67026D01*
X102164Y67029D01*
X101527Y69822D01*
X101524Y69825D01*
X101524Y69829D01*
X101412Y69924D01*
X101368Y70523D01*
X101367Y70524D01*
X101367Y70525D01*
X101234Y71109D01*
X101312Y71234D01*
X101312Y71238D01*
X101314Y71241D01*
X101101Y74097D01*
X101098Y74101D01*
X101098Y74104D01*
X101002Y74216D01*
X101047Y74814D01*
X101047Y74815D01*
X101003Y75414D01*
X101099Y75525D01*
X101099Y75528D01*
X101099Y75529D01*
X101099Y75530D01*
X101101Y75532D01*
X101316Y78388D01*
X101314Y78392D01*
X101315Y78396D01*
X101236Y78520D01*
X101370Y79105D01*
X101370Y79106D01*
X101415Y79705D01*
X101527Y79800D01*
X101527Y79805D01*
X101531Y79807D01*
X102169Y82599D01*
X102167Y82603D01*
X102168Y82607D01*
X102110Y82741D01*
X102329Y83300D01*
X102329Y83301D01*
X102329Y83302D01*
X102463Y83886D01*
X102587Y83964D01*
X102589Y83969D01*
X102592Y83970D01*
X103640Y86636D01*
X103638Y86641D01*
X103640Y86644D01*
X103602Y86785D01*
X103902Y87305D01*
X103902Y87306D01*
X103903Y87306D01*
X104122Y87865D01*
X104257Y87923D01*
X104259Y87928D01*
X104262Y87928D01*
X105695Y90409D01*
X105695Y90413D01*
X105697Y90415D01*
X105696Y90415D01*
X105697Y90416D01*
X105681Y90562D01*
X106055Y91031D01*
X106055Y91032D01*
X106056Y91032D01*
X106356Y91552D01*
X106498Y91590D01*
X106500Y91593D01*
X106504Y91594D01*
X108291Y93833D01*
X108290Y93837D01*
X108293Y93840D01*
X108299Y93986D01*
X108739Y94394D01*
X108739Y94395D01*
X108740Y94396D01*
X109114Y94864D01*
X109260Y94881D01*
X109263Y94884D01*
X109267Y94884D01*
X111367Y96832D01*
X111368Y96836D01*
X111369Y96837D01*
X111371Y96838D01*
X111398Y96982D01*
X111894Y97320D01*
X111894Y97321D01*
X111895Y97321D01*
X112335Y97729D01*
X112482Y97724D01*
X112486Y97727D01*
X112489Y97726D01*
X114794Y99296D01*
X114796Y99301D01*
X114799Y99303D01*
X114806Y99327D01*
X114803Y99332D01*
X114804Y99332D01*
X114803Y99333D01*
X114804Y99336D01*
X95624Y132557D01*
X96252Y132854D01*
X96275Y132871D01*
X96301Y132881D01*
X96353Y132930D01*
X96411Y132973D01*
X96425Y132998D01*
X96446Y133018D01*
X96475Y133083D01*
X96511Y133145D01*
X96514Y133173D01*
X96526Y133200D01*
X96527Y133272D01*
X96536Y133342D01*
X96528Y133370D01*
X96529Y133399D01*
X96494Y133493D01*
X96482Y133534D01*
X96475Y133542D01*
X96471Y133555D01*
X86971Y150055D01*
X86919Y150113D01*
X86873Y150176D01*
X86854Y150187D01*
X86839Y150204D01*
X86769Y150237D01*
X86702Y150277D01*
X86678Y150281D01*
X86660Y150290D01*
X86615Y150292D01*
X86538Y150305D01*
X67538Y150305D01*
X67510Y150299D01*
X67482Y150302D01*
X67414Y150279D01*
X67343Y150265D01*
X67320Y150249D01*
X67293Y150240D01*
X67239Y150193D01*
X67179Y150153D01*
X67164Y150129D01*
X67143Y150110D01*
X67111Y150046D01*
X67072Y149985D01*
X67068Y149957D01*
X67055Y149932D01*
X67046Y149830D01*
X67039Y149789D01*
X67042Y149779D01*
X67040Y149766D01*
X67097Y149051D01*
X-67221Y149051D01*
X-67164Y149766D01*
X-67168Y149794D01*
X-67163Y149822D01*
X-67180Y149892D01*
X-67188Y149963D01*
X-67202Y149988D01*
X-67209Y150015D01*
X-67252Y150073D01*
X-67287Y150136D01*
X-67310Y150153D01*
X-67327Y150176D01*
X-67389Y150212D01*
X-67446Y150256D01*
X-67474Y150263D01*
X-67498Y150277D01*
X-67598Y150294D01*
X-67639Y150304D01*
X-67649Y150303D01*
X-67662Y150305D01*
X-86662Y150305D01*
X-86738Y150289D01*
X-86815Y150281D01*
X-86835Y150270D01*
X-86857Y150265D01*
X-86921Y150221D01*
X-86989Y150183D01*
X-87005Y150164D01*
X-87021Y150153D01*
X-87045Y150115D01*
X-87095Y150055D01*
X-96595Y133555D01*
X-96604Y133527D01*
X-96620Y133504D01*
X-96635Y133434D01*
X-96657Y133366D01*
X-96655Y133337D01*
X-96661Y133309D01*
X-96647Y133239D01*
X-96642Y133168D01*
X-96629Y133142D01*
X-96623Y133114D01*
X-96583Y133055D01*
X-96550Y132991D01*
X-96528Y132973D01*
X-96512Y132949D01*
X-96429Y132892D01*
X-96397Y132865D01*
X-96386Y132862D01*
X-96375Y132854D01*
X-95748Y132557D01*
X-114928Y99336D01*
X-114927Y99330D01*
X-114929Y99327D01*
X-114923Y99303D01*
X-114919Y99300D01*
X-114918Y99296D01*
X-112613Y97726D01*
X-112608Y97726D01*
X-112606Y97724D01*
X-112459Y97729D01*
X-112019Y97321D01*
X-112018Y97321D01*
X-112018Y97320D01*
X-111522Y96982D01*
X-111495Y96838D01*
X-111491Y96835D01*
X-111491Y96832D01*
X-109391Y94884D01*
X-109386Y94884D01*
X-109384Y94881D01*
X-109238Y94864D01*
X-108864Y94396D01*
X-108862Y94395D01*
X-108862Y94394D01*
X-108423Y93986D01*
X-108417Y93840D01*
X-108414Y93836D01*
X-108414Y93833D01*
X-106628Y91594D01*
X-106623Y91593D01*
X-106622Y91590D01*
X-106480Y91552D01*
X-106180Y91032D01*
X-106178Y91032D01*
X-106179Y91031D01*
X-105804Y90562D01*
X-105817Y90454D01*
X-105821Y90416D01*
X-105818Y90412D01*
X-105819Y90409D01*
X-104386Y87928D01*
X-104382Y87927D01*
X-104381Y87923D01*
X-104246Y87865D01*
X-104027Y87306D01*
X-104026Y87306D01*
X-104026Y87305D01*
X-103726Y86785D01*
X-103764Y86644D01*
X-103762Y86639D01*
X-103763Y86636D01*
X-102716Y83970D01*
X-102712Y83968D01*
X-102711Y83964D01*
X-102587Y83886D01*
X-102453Y83302D01*
X-102452Y83301D01*
X-102453Y83300D01*
X-102233Y82741D01*
X-102292Y82607D01*
X-102291Y82602D01*
X-102293Y82599D01*
X-101654Y79807D01*
X-101651Y79804D01*
X-101651Y79800D01*
X-101539Y79705D01*
X-101494Y79106D01*
X-101493Y79106D01*
X-101494Y79105D01*
X-101360Y78520D01*
X-101438Y78396D01*
X-101438Y78391D01*
X-101440Y78388D01*
X-101225Y75532D01*
X-101222Y75529D01*
X-101222Y75525D01*
X-101127Y75414D01*
X-101171Y74815D01*
X-101170Y74814D01*
X-101171Y74814D01*
X-101126Y74216D01*
X-101222Y74104D01*
X-101222Y74101D01*
X-101223Y74100D01*
X-101223Y74099D01*
X-101225Y74097D01*
X-101438Y71241D01*
X-101435Y71237D01*
X-101436Y71234D01*
X-101358Y71109D01*
X-101491Y70525D01*
X-101491Y70523D01*
X-101536Y69924D01*
X-101647Y69829D01*
X-101648Y69824D01*
X-101651Y69822D01*
X-102288Y67029D01*
X-102286Y67025D01*
X-102287Y67022D01*
X-102228Y66887D01*
X-102447Y66329D01*
X-102447Y66328D01*
X-102448Y66327D01*
X-102581Y65742D01*
X-102705Y65664D01*
X-102707Y65660D01*
X-102710Y65658D01*
X-103756Y62992D01*
X-103754Y62987D01*
X-103756Y62986D01*
X-103755Y62985D01*
X-103756Y62984D01*
X-103718Y62842D01*
X-104018Y62323D01*
X-104018Y62322D01*
X-104019Y62321D01*
X-104238Y61763D01*
X-104372Y61704D01*
X-104374Y61700D01*
X-104378Y61699D01*
X-105809Y59218D01*
X-105809Y59215D01*
X-105811Y59214D01*
X-105809Y59212D01*
X-105811Y59210D01*
X-105794Y59065D01*
X-106168Y58596D01*
X-106168Y58594D01*
X-106169Y58594D01*
X-106469Y58074D01*
X-106611Y58036D01*
X-106613Y58032D01*
X-106617Y58032D01*
X-108402Y55792D01*
X-108402Y55789D01*
X-108404Y55787D01*
X-108403Y55787D01*
X-108405Y55785D01*
X-108410Y55638D01*
X-108850Y55230D01*
X-108850Y55229D01*
X-108851Y55229D01*
X-109225Y54760D01*
X-109371Y54743D01*
X-109374Y54740D01*
X-109378Y54740D01*
X-111477Y52791D01*
X-111477Y52786D01*
X-111481Y52785D01*
X-111508Y52640D01*
X-112003Y52302D01*
X-112004Y52301D01*
X-112005Y52301D01*
X-112444Y51893D01*
X-112481Y51894D01*
X-112591Y51898D01*
X-112595Y51895D01*
X-112598Y51896D01*
X-114964Y50282D01*
X-114966Y50277D01*
X-114969Y50276D01*
X-115017Y50137D01*
X-115558Y49877D01*
X-115558Y49876D01*
X-115559Y49876D01*
X-116055Y49538D01*
X-116199Y49565D01*
X-116203Y49563D01*
X-116207Y49564D01*
X-118787Y48321D01*
X-118789Y48316D01*
X-118792Y48315D01*
X-118861Y48186D01*
X-119434Y48009D01*
X-119435Y48008D01*
X-119436Y48008D01*
X-119976Y47748D01*
X-120115Y47796D01*
X-120119Y47794D01*
X-120122Y47796D01*
X-121413Y47398D01*
X-121418Y47389D01*
X-121421Y47386D01*
X-121421Y46197D01*
X-126224Y41394D01*
X-126224Y41389D01*
X-126227Y41386D01*
X-126227Y37838D01*
X-129187Y34879D01*
X-133373Y34879D01*
X-136333Y37838D01*
X-136333Y42024D01*
X-133373Y44984D01*
X-129825Y44984D01*
X-129821Y44988D01*
X-129817Y44988D01*
X-128729Y46075D01*
X-128729Y46079D01*
X-128726Y46082D01*
X-128728Y46085D01*
X-128728Y46091D01*
X-128734Y46091D01*
X-128738Y46096D01*
X-131385Y46095D01*
X-131387Y46093D01*
X-131388Y46093D01*
X-131389Y46092D01*
X-131392Y46093D01*
X-131510Y46005D01*
X-132103Y46094D01*
X-132105Y46094D01*
X-132105Y46095D01*
X-132705Y46094D01*
X-132809Y46198D01*
X-132814Y46199D01*
X-132816Y46202D01*
X-135648Y46628D01*
X-135652Y46625D01*
X-135655Y46626D01*
X-135785Y46558D01*
X-136359Y46734D01*
X-136360Y46734D01*
X-136360Y46735D01*
X-136954Y46824D01*
X-137041Y46942D01*
X-137045Y46943D01*
X-137047Y46946D01*
X-139784Y47790D01*
X-139789Y47788D01*
X-139792Y47790D01*
X-139930Y47741D01*
X-140471Y48001D01*
X-140472Y48001D01*
X-140472Y48002D01*
X-141046Y48179D01*
X-141115Y48308D01*
X-141119Y48310D01*
X-141120Y48314D01*
X-143634Y49523D01*
X-143639Y49522D01*
X-143642Y49524D01*
X-143690Y49511D01*
X-143693Y49506D01*
X-143697Y49505D01*
X-162870Y16296D01*
X-163478Y16716D01*
X-163505Y16728D01*
X-163527Y16746D01*
X-163596Y16766D01*
X-163661Y16794D01*
X-163690Y16795D01*
X-163718Y16803D01*
X-163789Y16795D01*
X-163860Y16795D01*
X-163887Y16784D01*
X-163915Y16781D01*
X-163978Y16745D01*
X-164043Y16718D01*
X-164063Y16697D01*
X-164089Y16683D01*
X-164152Y16606D01*
X-164182Y16575D01*
X-164186Y16565D01*
X-164195Y16555D01*
X-173695Y55D01*
X-173719Y-18D01*
X-173750Y-89D01*
X-173750Y-112D01*
X-173757Y-134D01*
X-173751Y-211D01*
X-173752Y-288D01*
X-173743Y-312D01*
X-173742Y-332D01*
X-173721Y-372D01*
X-173702Y-424D01*
X-173701Y-429D01*
X-173699Y-431D01*
X-173695Y-444D01*
X-164195Y-16944D01*
X-164175Y-16965D01*
X-164163Y-16992D01*
X-164110Y-17039D01*
X-164063Y-17093D01*
X-164037Y-17105D01*
X-164015Y-17125D01*
X-163948Y-17148D01*
X-163884Y-17179D01*
X-163855Y-17180D01*
X-163827Y-17189D01*
X-163756Y-17185D01*
X-163685Y-17188D01*
X-163658Y-17178D01*
X-163629Y-17176D01*
X-163539Y-17134D01*
X-163499Y-17119D01*
X-163491Y-17111D01*
X-163478Y-17105D01*
X-162870Y-16685D01*
X-143697Y-49895D01*
X-143692Y-49896D01*
X-143690Y-49900D01*
X-143642Y-49913D01*
X-143637Y-49911D01*
X-143634Y-49912D01*
X-141120Y-48703D01*
X-141118Y-48698D01*
X-141115Y-48697D01*
X-141046Y-48568D01*
X-140472Y-48391D01*
X-140472Y-48390D01*
X-140471Y-48390D01*
X-139930Y-48130D01*
X-139792Y-48179D01*
X-139787Y-48177D01*
X-139784Y-48179D01*
X-137047Y-47335D01*
X-137044Y-47331D01*
X-137041Y-47331D01*
X-136954Y-47213D01*
X-136360Y-47124D01*
X-136360Y-47123D01*
X-136359Y-47123D01*
X-135785Y-46947D01*
X-135655Y-47015D01*
X-135651Y-47014D01*
X-135648Y-47017D01*
X-132816Y-46591D01*
X-132813Y-46587D01*
X-132809Y-46587D01*
X-132705Y-46483D01*
X-132105Y-46484D01*
X-132104Y-46483D01*
X-132103Y-46484D01*
X-131510Y-46394D01*
X-131392Y-46482D01*
X-131387Y-46481D01*
X-131385Y-46484D01*
X-129311Y-46485D01*
X-129212Y-46485D01*
X-128520Y-46485D01*
X-128517Y-46482D01*
X-128513Y-46483D01*
X-128395Y-46395D01*
X-127802Y-46485D01*
X-127801Y-46485D01*
X-127800Y-46485D01*
X-127200Y-46485D01*
X-127097Y-46589D01*
X-127092Y-46589D01*
X-127090Y-46592D01*
X-124258Y-47020D01*
X-124254Y-47018D01*
X-124250Y-47019D01*
X-124120Y-46950D01*
X-123547Y-47127D01*
X-123546Y-47127D01*
X-123546Y-47128D01*
X-122952Y-47217D01*
X-122865Y-47336D01*
X-122861Y-47337D01*
X-122859Y-47340D01*
X-120122Y-48185D01*
X-120120Y-48184D01*
X-120116Y-48184D01*
X-120115Y-48185D01*
X-119976Y-48137D01*
X-119436Y-48397D01*
X-119434Y-48397D01*
X-119434Y-48398D01*
X-118861Y-48575D01*
X-118792Y-48705D01*
X-118788Y-48706D01*
X-118787Y-48710D01*
X-116207Y-49953D01*
X-116202Y-49952D01*
X-116199Y-49954D01*
X-116055Y-49927D01*
X-115559Y-50265D01*
X-115558Y-50265D01*
X-115558Y-50266D01*
X-115017Y-50527D01*
X-114969Y-50665D01*
X-114965Y-50667D01*
X-114964Y-50671D01*
X-112598Y-52285D01*
X-112594Y-52285D01*
X-112591Y-52287D01*
X-112444Y-52282D01*
X-112005Y-52690D01*
X-112003Y-52690D01*
X-112003Y-52691D01*
X-111508Y-53029D01*
X-111481Y-53174D01*
X-111477Y-53177D01*
X-111477Y-53180D01*
X-109378Y-55129D01*
X-109373Y-55129D01*
X-109371Y-55132D01*
X-109225Y-55149D01*
X-108851Y-55618D01*
X-108850Y-55618D01*
X-108850Y-55619D01*
X-108410Y-56027D01*
X-108405Y-56174D01*
X-108402Y-56178D01*
X-108402Y-56181D01*
X-106617Y-58421D01*
X-106612Y-58422D01*
X-106611Y-58425D01*
X-106469Y-58463D01*
X-106169Y-58983D01*
X-106168Y-58984D01*
X-106168Y-58985D01*
X-105794Y-59454D01*
X-105811Y-59599D01*
X-105810Y-59601D01*
X-105808Y-59603D01*
X-105809Y-59607D01*
X-104378Y-62088D01*
X-104373Y-62089D01*
X-104372Y-62093D01*
X-104238Y-62152D01*
X-104019Y-62710D01*
X-104018Y-62711D01*
X-104018Y-62712D01*
X-103718Y-63231D01*
X-103756Y-63373D01*
X-103754Y-63377D01*
X-103756Y-63381D01*
X-102710Y-66048D01*
X-102706Y-66050D01*
X-102705Y-66053D01*
X-102581Y-66131D01*
X-102448Y-66716D01*
X-102447Y-66717D01*
X-102447Y-66718D01*
X-102228Y-67276D01*
X-102287Y-67411D01*
X-102286Y-67415D01*
X-102287Y-67416D01*
X-102287Y-67417D01*
X-102288Y-67418D01*
X-101651Y-70211D01*
X-101647Y-70214D01*
X-101647Y-70218D01*
X-101536Y-70314D01*
X-101491Y-70912D01*
X-101491Y-70913D01*
X-101491Y-70914D01*
X-101358Y-71498D01*
X-101436Y-71623D01*
X-101435Y-71627D01*
X-101436Y-71628D01*
X-101438Y-71629D01*
X-101438Y-71630D01*
X-101314Y-73288D01*
X-101303Y-73299D01*
X-101302Y-73299D01*
X-19569Y-73299D01*
X-5712Y-87157D01*
X-5712Y-97366D01*
X-5701Y-97378D01*
X-5700Y-97377D01*
X-5700Y-97378D01*
X-3365Y-97378D01*
X-406Y-100338D01*
X-406Y-104524D01*
X-3366Y-107483D01*
X-5777Y-107483D01*
X-5780Y-107486D01*
X-5785Y-107486D01*
X-5785Y-107490D01*
X-5789Y-107494D01*
X-5785Y-107498D01*
X-5786Y-107504D01*
X-5123Y-108166D01*
X-5123Y-112352D01*
X-8083Y-115312D01*
X-12269Y-115312D01*
X-15228Y-112352D01*
X-15228Y-108166D01*
X-14752Y-107690D01*
X-14752Y-107685D01*
X-14749Y-107682D01*
X-14748Y-107681D01*
X-14748Y-91632D01*
X-14752Y-91627D01*
X-14752Y-91623D01*
X-22112Y-84263D01*
X-22118Y-84262D01*
X-22121Y-84259D01*
X-92042Y-84259D01*
X-92054Y-84270D01*
X-92054Y-84271D01*
X-92054Y-84385D01*
X-95014Y-87345D01*
X-99200Y-87345D01*
X-102160Y-84385D01*
X-102160Y-82513D01*
X-102164Y-82507D01*
X-102168Y-82501D01*
X-102169Y-82502D01*
X-102170Y-82501D01*
X-102176Y-82506D01*
X-102183Y-82510D01*
X-102293Y-82988D01*
X-102291Y-82992D01*
X-102292Y-82996D01*
X-102233Y-83130D01*
X-102453Y-83689D01*
X-102452Y-83690D01*
X-102453Y-83691D01*
X-102587Y-84275D01*
X-102711Y-84353D01*
X-102713Y-84358D01*
X-102716Y-84359D01*
X-103763Y-87025D01*
X-103762Y-87030D01*
X-103764Y-87033D01*
X-103726Y-87174D01*
X-104026Y-87694D01*
X-104026Y-87695D01*
X-104027Y-87695D01*
X-104246Y-88254D01*
X-104381Y-88312D01*
X-104383Y-88317D01*
X-104386Y-88317D01*
X-105819Y-90798D01*
X-105819Y-90802D01*
X-105821Y-90803D01*
X-105820Y-90804D01*
X-105821Y-90805D01*
X-105804Y-90951D01*
X-106179Y-91420D01*
X-106178Y-91421D01*
X-106180Y-91421D01*
X-106480Y-91941D01*
X-106622Y-91979D01*
X-106624Y-91983D01*
X-106628Y-91983D01*
X-108414Y-94222D01*
X-108414Y-94225D01*
X-108416Y-94226D01*
X-108415Y-94227D01*
X-108417Y-94229D01*
X-108423Y-94375D01*
X-108862Y-94783D01*
X-108863Y-94785D01*
X-108864Y-94785D01*
X-109238Y-95254D01*
X-109384Y-95270D01*
X-109387Y-95273D01*
X-109391Y-95273D01*
X-111491Y-97221D01*
X-111491Y-97225D01*
X-111495Y-97227D01*
X-111522Y-97372D01*
X-112018Y-97709D01*
X-112018Y-97710D01*
X-112019Y-97710D01*
X-112459Y-98118D01*
X-112606Y-98113D01*
X-112609Y-98116D01*
X-112613Y-98115D01*
X-114918Y-99685D01*
X-114920Y-99690D01*
X-114923Y-99692D01*
X-114929Y-99716D01*
X-114928Y-99720D01*
X-114927Y-99721D01*
X-114928Y-99725D01*
X-95748Y-132947D01*
X-96375Y-133243D01*
X-96398Y-133260D01*
X-96425Y-133270D01*
X-96477Y-133319D01*
X-96535Y-133362D01*
X-96549Y-133387D01*
X-96570Y-133407D01*
X-96599Y-133472D01*
X-96635Y-133534D01*
X-96638Y-133563D01*
X-96650Y-133589D01*
X-96651Y-133661D01*
X-96660Y-133731D01*
X-96652Y-133759D01*
X-96652Y-133788D01*
X-96617Y-133882D01*
X-96606Y-133923D01*
X-96599Y-133931D01*
X-96595Y-133944D01*
X-87095Y-150444D01*
X-87043Y-150502D01*
X-86997Y-150565D01*
X-86978Y-150576D01*
X-86963Y-150593D01*
X-86893Y-150626D01*
X-86826Y-150666D01*
X-86801Y-150670D01*
X-86784Y-150679D01*
X-86739Y-150681D01*
X-86662Y-150694D01*
X-67662Y-150694D01*
X-67634Y-150688D01*
G37*
%LPC*%
G36*
X12558Y-115670D02*
X12558Y-115670D01*
X9598Y-112710D01*
X9598Y-108524D01*
X12107Y-106016D01*
X12107Y-106010D01*
X12110Y-106007D01*
X12110Y-105829D01*
X12107Y-105826D01*
X12108Y-105821D01*
X12103Y-105821D01*
X12100Y-105817D01*
X12095Y-105821D01*
X12090Y-105820D01*
X9660Y-108250D01*
X5474Y-108250D01*
X2514Y-105291D01*
X2514Y-101105D01*
X5022Y-98596D01*
X5023Y-98591D01*
X5026Y-98588D01*
X5026Y-90207D01*
X6518Y-88715D01*
X26125Y-69108D01*
X26125Y-69104D01*
X26129Y-69101D01*
X26126Y-69098D01*
X26126Y-69092D01*
X26121Y-69092D01*
X26117Y-69088D01*
X19052Y-69088D01*
X17420Y-67456D01*
X17416Y-67455D01*
X17413Y-67452D01*
X17410Y-67455D01*
X17404Y-67455D01*
X17404Y-67460D01*
X17400Y-67464D01*
X17400Y-69886D01*
X9551Y-77735D01*
X800Y-77735D01*
X796Y-77739D01*
X791Y-77739D01*
X-1717Y-80247D01*
X-5903Y-80247D01*
X-8411Y-77739D01*
X-8417Y-77739D01*
X-8420Y-77735D01*
X-14123Y-77735D01*
X-23750Y-68108D01*
X-23750Y-51777D01*
X-23753Y-51774D01*
X-23752Y-51770D01*
X-23756Y-51770D01*
X-23760Y-51766D01*
X-23764Y-51769D01*
X-23770Y-51769D01*
X-24347Y-52346D01*
X-24348Y-52362D01*
X-24347Y-52362D01*
X-24347Y-52363D01*
X-23955Y-52755D01*
X-23955Y-66879D01*
X-26164Y-69088D01*
X-34288Y-69088D01*
X-36497Y-66879D01*
X-36497Y-52755D01*
X-34288Y-50546D01*
X-29020Y-50546D01*
X-29016Y-50543D01*
X-29012Y-50543D01*
X-21125Y-42657D01*
X-21125Y-42652D01*
X-21122Y-42650D01*
X-21125Y-42646D01*
X-21124Y-42641D01*
X-21130Y-42640D01*
X-21134Y-42636D01*
X-24338Y-42636D01*
X-26847Y-40128D01*
X-26852Y-40127D01*
X-26855Y-40124D01*
X-31488Y-40124D01*
X-37829Y-33783D01*
X-37829Y-33560D01*
X-37840Y-33548D01*
X-37840Y-33549D01*
X-37841Y-33548D01*
X-39315Y-33548D01*
X-40059Y-32804D01*
X-40059Y-22751D01*
X-39315Y-22007D01*
X-33533Y-22007D01*
X-33521Y-21996D01*
X-33522Y-21995D01*
X-33521Y-21995D01*
X-33521Y-17816D01*
X-33532Y-17804D01*
X-33533Y-17805D01*
X-33533Y-17804D01*
X-33670Y-17804D01*
X-34415Y-17060D01*
X-34415Y-8007D01*
X-33688Y-7280D01*
X-33688Y-7277D01*
X-33688Y-7276D01*
X-33688Y-7275D01*
X-33685Y-7272D01*
X-33685Y-4946D01*
X-21438Y7301D01*
X-21438Y7305D01*
X-21436Y7306D01*
X-21437Y7307D01*
X-21435Y7309D01*
X-21435Y8184D01*
X-21445Y8196D01*
X-21446Y8195D01*
X-21447Y8196D01*
X-26670Y8196D01*
X-27415Y8940D01*
X-27415Y24493D01*
X-26670Y25238D01*
X-21447Y25238D01*
X-21435Y25248D01*
X-21435Y25249D01*
X-21435Y27934D01*
X-21445Y27946D01*
X-21446Y27945D01*
X-21447Y27946D01*
X-26670Y27946D01*
X-27415Y28690D01*
X-27415Y44243D01*
X-26670Y44988D01*
X-21447Y44988D01*
X-21435Y44998D01*
X-21436Y44999D01*
X-21435Y44999D01*
X-21435Y47684D01*
X-21445Y47696D01*
X-21446Y47695D01*
X-21447Y47696D01*
X-26670Y47696D01*
X-27415Y48440D01*
X-27415Y63993D01*
X-26670Y64738D01*
X-11118Y64738D01*
X-10373Y63993D01*
X-10373Y48440D01*
X-11118Y47696D01*
X-16341Y47696D01*
X-16353Y47686D01*
X-16353Y47685D01*
X-16353Y47684D01*
X-16353Y44999D01*
X-16343Y44988D01*
X-16342Y44988D01*
X-16341Y44988D01*
X-11118Y44988D01*
X-10373Y44243D01*
X-10373Y28690D01*
X-11118Y27946D01*
X-16341Y27946D01*
X-16353Y27936D01*
X-16353Y27935D01*
X-16353Y27934D01*
X-16353Y25249D01*
X-16343Y25238D01*
X-16342Y25238D01*
X-16341Y25238D01*
X-11118Y25238D01*
X-10373Y24493D01*
X-10373Y19269D01*
X-10363Y19258D01*
X-10362Y19258D01*
X-10361Y19258D01*
X-7677Y19258D01*
X-7665Y19268D01*
X-7666Y19269D01*
X-7665Y19269D01*
X-7665Y24493D01*
X-6920Y25238D01*
X-1697Y25238D01*
X-1685Y25248D01*
X-1685Y25249D01*
X-1685Y27934D01*
X-1695Y27946D01*
X-1696Y27945D01*
X-1697Y27946D01*
X-6920Y27946D01*
X-7665Y28690D01*
X-7665Y44243D01*
X-6920Y44988D01*
X-1697Y44988D01*
X-1685Y44998D01*
X-1686Y44999D01*
X-1685Y44999D01*
X-1685Y47684D01*
X-1695Y47696D01*
X-1696Y47695D01*
X-1697Y47696D01*
X-6920Y47696D01*
X-7665Y48440D01*
X-7665Y63993D01*
X-6920Y64738D01*
X8632Y64738D01*
X9377Y63993D01*
X9377Y48440D01*
X8632Y47696D01*
X3409Y47696D01*
X3397Y47686D01*
X3397Y47685D01*
X3397Y47684D01*
X3397Y44999D01*
X3407Y44988D01*
X3408Y44988D01*
X3409Y44988D01*
X8632Y44988D01*
X9377Y44243D01*
X9377Y28690D01*
X8632Y27946D01*
X3409Y27946D01*
X3397Y27936D01*
X3397Y27935D01*
X3397Y27934D01*
X3397Y25249D01*
X3407Y25238D01*
X3408Y25238D01*
X3409Y25238D01*
X8632Y25238D01*
X9377Y24493D01*
X9377Y19269D01*
X9387Y19258D01*
X9388Y19258D01*
X9389Y19258D01*
X12073Y19258D01*
X12085Y19268D01*
X12084Y19269D01*
X12085Y19269D01*
X12085Y24493D01*
X12830Y25238D01*
X18053Y25238D01*
X18065Y25248D01*
X18065Y25249D01*
X18065Y27934D01*
X18055Y27946D01*
X18054Y27945D01*
X18053Y27946D01*
X12830Y27946D01*
X12085Y28690D01*
X12085Y44243D01*
X12830Y44988D01*
X18053Y44988D01*
X18065Y44998D01*
X18064Y44999D01*
X18065Y44999D01*
X18065Y47684D01*
X18055Y47696D01*
X18054Y47695D01*
X18053Y47696D01*
X12830Y47696D01*
X12085Y48440D01*
X12085Y63993D01*
X12830Y64738D01*
X28382Y64738D01*
X29127Y63993D01*
X29127Y48440D01*
X28382Y47696D01*
X23159Y47696D01*
X23147Y47686D01*
X23147Y47685D01*
X23147Y47684D01*
X23147Y44999D01*
X23157Y44988D01*
X23158Y44988D01*
X23159Y44988D01*
X28382Y44988D01*
X29127Y44243D01*
X29127Y28690D01*
X28382Y27946D01*
X23159Y27946D01*
X23147Y27936D01*
X23147Y27935D01*
X23147Y27934D01*
X23147Y25249D01*
X23157Y25238D01*
X23158Y25238D01*
X23159Y25238D01*
X28382Y25238D01*
X29127Y24493D01*
X29127Y19269D01*
X29137Y19258D01*
X29138Y19258D01*
X29139Y19258D01*
X33104Y19258D01*
X41844Y10517D01*
X41850Y10517D01*
X41852Y10514D01*
X45400Y10514D01*
X48360Y7554D01*
X48360Y3368D01*
X45400Y408D01*
X41214Y408D01*
X38254Y3368D01*
X38254Y6916D01*
X38251Y6920D01*
X38251Y6924D01*
X31002Y14173D01*
X30997Y14173D01*
X30994Y14176D01*
X29139Y14176D01*
X29127Y14166D01*
X29127Y14165D01*
X29127Y14164D01*
X29127Y8940D01*
X28382Y8196D01*
X12830Y8196D01*
X12085Y8940D01*
X12085Y14164D01*
X12075Y14176D01*
X12074Y14175D01*
X12073Y14176D01*
X9389Y14176D01*
X9377Y14166D01*
X9377Y14165D01*
X9377Y14164D01*
X9377Y8940D01*
X8632Y8196D01*
X-6920Y8196D01*
X-7665Y8940D01*
X-7665Y14164D01*
X-7675Y14176D01*
X-7676Y14175D01*
X-7677Y14176D01*
X-10361Y14176D01*
X-10373Y14166D01*
X-10373Y14165D01*
X-10373Y14164D01*
X-10373Y8940D01*
X-11118Y8196D01*
X-16341Y8196D01*
X-16353Y8186D01*
X-16353Y8185D01*
X-16353Y8184D01*
X-16353Y5200D01*
X-28600Y-7047D01*
X-28600Y-7053D01*
X-28603Y-7055D01*
X-28603Y-7272D01*
X-28600Y-7276D01*
X-28600Y-7280D01*
X-27873Y-8007D01*
X-27873Y-17060D01*
X-28436Y-17623D01*
X-28437Y-17626D01*
X-28437Y-17627D01*
X-28437Y-17628D01*
X-28440Y-17631D01*
X-28440Y-26239D01*
X-30514Y-28313D01*
X-30514Y-28319D01*
X-30518Y-28322D01*
X-30518Y-32804D01*
X-31061Y-33348D01*
X-31062Y-33352D01*
X-31064Y-33353D01*
X-31062Y-33355D01*
X-31062Y-33363D01*
X-31061Y-33363D01*
X-31061Y-33364D01*
X-29386Y-35039D01*
X-29381Y-35040D01*
X-29378Y-35042D01*
X-29378Y-35043D01*
X-26855Y-35043D01*
X-26855Y-35042D01*
X-26851Y-35039D01*
X-26847Y-35039D01*
X-25376Y-33569D01*
X-25376Y-33564D01*
X-25373Y-33562D01*
X-25375Y-33559D01*
X-25375Y-33553D01*
X-25381Y-33552D01*
X-25385Y-33548D01*
X-26315Y-33548D01*
X-27059Y-32804D01*
X-27059Y-22751D01*
X-26315Y-22007D01*
X-24841Y-22007D01*
X-24829Y-21996D01*
X-24830Y-21995D01*
X-24829Y-21995D01*
X-24829Y-20916D01*
X-23337Y-19424D01*
X-21737Y-17824D01*
X-21737Y-17820D01*
X-21734Y-17817D01*
X-21737Y-17814D01*
X-21736Y-17809D01*
X-21742Y-17808D01*
X-21746Y-17804D01*
X-25670Y-17804D01*
X-26415Y-17060D01*
X-26415Y-8007D01*
X-25670Y-7263D01*
X-20618Y-7263D01*
X-19873Y-8007D01*
X-19873Y-15932D01*
X-19871Y-15935D01*
X-19871Y-15939D01*
X-19867Y-15939D01*
X-19863Y-15944D01*
X-19859Y-15940D01*
X-19858Y-15940D01*
X-19857Y-15940D01*
X-19853Y-15940D01*
X-18418Y-14505D01*
X-18418Y-14500D01*
X-18415Y-14497D01*
X-18415Y-8007D01*
X-17670Y-7263D01*
X-12618Y-7263D01*
X-11873Y-8007D01*
X-11873Y-17060D01*
X-12618Y-17804D01*
X-14526Y-17804D01*
X-14530Y-17808D01*
X-14534Y-17807D01*
X-18713Y-21986D01*
X-18713Y-21991D01*
X-18716Y-21993D01*
X-18714Y-21996D01*
X-18714Y-22002D01*
X-18708Y-22002D01*
X-18704Y-22007D01*
X-18262Y-22007D01*
X-17518Y-22751D01*
X-17518Y-32236D01*
X-17515Y-32239D01*
X-17515Y-32243D01*
X-17511Y-32244D01*
X-17507Y-32248D01*
X-17503Y-32244D01*
X-17497Y-32244D01*
X-12227Y-26974D01*
X-12227Y-26969D01*
X-12224Y-26966D01*
X-12224Y-25429D01*
X-11479Y-24684D01*
X-8634Y-24684D01*
X-8622Y-24674D01*
X-8623Y-24673D01*
X-8622Y-24672D01*
X-8622Y-23836D01*
X-2139Y-17352D01*
X-2138Y-17337D01*
X-2139Y-17337D01*
X-2139Y-17336D01*
X-2415Y-17060D01*
X-2415Y-8007D01*
X-1670Y-7263D01*
X3382Y-7263D01*
X4127Y-8007D01*
X4127Y-17060D01*
X3382Y-17804D01*
X3155Y-17804D01*
X3143Y-17814D01*
X3143Y-17815D01*
X3143Y-17816D01*
X3143Y-18539D01*
X-4029Y-25710D01*
X-4029Y-25715D01*
X-4032Y-25717D01*
X-4032Y-25718D01*
X-4032Y-25719D01*
X-4032Y-29181D01*
X-4045Y-29194D01*
X-4045Y-29198D01*
X-4048Y-29200D01*
X-4047Y-29201D01*
X-4049Y-29203D01*
X-4049Y-31627D01*
X-4046Y-31630D01*
X-4046Y-31634D01*
X-4042Y-31635D01*
X-4038Y-31639D01*
X-4034Y-31635D01*
X-4028Y-31635D01*
X-1051Y-28658D01*
X-1051Y-28654D01*
X-1049Y-28653D01*
X-1050Y-28652D01*
X-1048Y-28650D01*
X-1048Y-25048D01*
X-303Y-24303D01*
X2524Y-24303D01*
X2536Y-24293D01*
X2535Y-24292D01*
X2536Y-24291D01*
X2536Y-22426D01*
X6566Y-18397D01*
X6566Y-18391D01*
X6569Y-18388D01*
X6569Y-17816D01*
X6559Y-17804D01*
X6558Y-17805D01*
X6557Y-17804D01*
X6330Y-17804D01*
X5585Y-17060D01*
X5585Y-8007D01*
X6330Y-7263D01*
X11382Y-7263D01*
X12127Y-8007D01*
X12127Y-17060D01*
X11382Y-17804D01*
X11155Y-17804D01*
X11143Y-17814D01*
X11143Y-17815D01*
X11143Y-17816D01*
X11143Y-20288D01*
X7113Y-24317D01*
X7113Y-24323D01*
X7110Y-24326D01*
X7110Y-25009D01*
X7113Y-25013D01*
X7113Y-25017D01*
X7144Y-25048D01*
X7144Y-28800D01*
X7128Y-28816D01*
X7128Y-28821D01*
X7125Y-28824D01*
X7125Y-33955D01*
X-4714Y-45794D01*
X-4714Y-45798D01*
X-4717Y-45800D01*
X-4714Y-45804D01*
X-4715Y-45809D01*
X-4709Y-45810D01*
X-4705Y-45814D01*
X-4508Y-45814D01*
X-4504Y-45810D01*
X-4500Y-45810D01*
X9490Y-31821D01*
X9490Y-31815D01*
X9493Y-31812D01*
X9493Y-28805D01*
X9493Y-25048D01*
X10238Y-24303D01*
X13065Y-24303D01*
X13077Y-24293D01*
X13076Y-24292D01*
X13077Y-24291D01*
X13077Y-22980D01*
X14566Y-21492D01*
X14566Y-21486D01*
X14569Y-21483D01*
X14569Y-17816D01*
X14559Y-17804D01*
X14558Y-17805D01*
X14557Y-17804D01*
X14330Y-17804D01*
X13585Y-17060D01*
X13585Y-8007D01*
X14330Y-7263D01*
X19382Y-7263D01*
X20127Y-8007D01*
X20127Y-17060D01*
X19382Y-17804D01*
X19155Y-17804D01*
X19143Y-17814D01*
X19143Y-17815D01*
X19143Y-17816D01*
X19143Y-23382D01*
X17800Y-24726D01*
X17654Y-24871D01*
X17654Y-24877D01*
X17651Y-24879D01*
X17651Y-25009D01*
X17654Y-25013D01*
X17654Y-25017D01*
X17685Y-25048D01*
X17685Y-28800D01*
X17654Y-28831D01*
X17654Y-28837D01*
X17651Y-28839D01*
X17651Y-37272D01*
X7878Y-47045D01*
X7878Y-47050D01*
X7875Y-47053D01*
X7875Y-50534D01*
X7885Y-50546D01*
X7886Y-50546D01*
X7887Y-50546D01*
X9396Y-50546D01*
X11605Y-52755D01*
X11605Y-66879D01*
X9396Y-69088D01*
X1272Y-69088D01*
X-937Y-66879D01*
X-937Y-52755D01*
X1272Y-50546D01*
X2781Y-50546D01*
X2793Y-50536D01*
X2792Y-50535D01*
X2793Y-50534D01*
X2793Y-45303D01*
X4282Y-43814D01*
X4636Y-43814D01*
X4640Y-43811D01*
X4644Y-43811D01*
X13074Y-35381D01*
X13074Y-35376D01*
X13077Y-35373D01*
X13077Y-34730D01*
X13075Y-34727D01*
X13075Y-34723D01*
X13071Y-34722D01*
X13067Y-34718D01*
X13065Y-34719D01*
X13064Y-34719D01*
X13061Y-34722D01*
X13057Y-34722D01*
X12724Y-35055D01*
X-1266Y-49044D01*
X-1266Y-49050D01*
X-1269Y-49053D01*
X-1269Y-70585D01*
X-1266Y-70589D01*
X-1266Y-70593D01*
X791Y-72650D01*
X797Y-72651D01*
X800Y-72654D01*
X7441Y-72654D01*
X7445Y-72650D01*
X7449Y-72650D01*
X12315Y-67785D01*
X12315Y-67781D01*
X12318Y-67779D01*
X12317Y-67778D01*
X12318Y-67777D01*
X12318Y-44033D01*
X13807Y-42544D01*
X14161Y-42544D01*
X14165Y-42541D01*
X14169Y-42541D01*
X20794Y-35916D01*
X20794Y-35911D01*
X20797Y-35908D01*
X20797Y-28933D01*
X20793Y-28929D01*
X20794Y-28925D01*
X20669Y-28800D01*
X20669Y-25048D01*
X21414Y-24303D01*
X24087Y-24303D01*
X24099Y-24293D01*
X24098Y-24292D01*
X24099Y-24291D01*
X24099Y-23030D01*
X24096Y-23026D01*
X24096Y-23022D01*
X22504Y-21430D01*
X22504Y-17816D01*
X22493Y-17804D01*
X22492Y-17805D01*
X22492Y-17804D01*
X22330Y-17804D01*
X21585Y-17060D01*
X21585Y-8007D01*
X22330Y-7263D01*
X27382Y-7263D01*
X28127Y-8007D01*
X28127Y-17060D01*
X27382Y-17804D01*
X27089Y-17804D01*
X27077Y-17814D01*
X27078Y-17815D01*
X27077Y-17816D01*
X27077Y-19530D01*
X27081Y-19535D01*
X27081Y-19539D01*
X28673Y-21131D01*
X28673Y-24855D01*
X28676Y-24859D01*
X28676Y-24863D01*
X28861Y-25048D01*
X28861Y-28800D01*
X28830Y-28831D01*
X28830Y-28837D01*
X28827Y-28839D01*
X28827Y-41336D01*
X25658Y-44505D01*
X25658Y-44510D01*
X25655Y-44513D01*
X25655Y-50534D01*
X25665Y-50546D01*
X25666Y-50546D01*
X25667Y-50546D01*
X27176Y-50546D01*
X29385Y-52755D01*
X29385Y-65820D01*
X29387Y-65823D01*
X29387Y-65827D01*
X29391Y-65827D01*
X29395Y-65832D01*
X29399Y-65828D01*
X29405Y-65828D01*
X30312Y-64922D01*
X30312Y-64916D01*
X30315Y-64913D01*
X30315Y-17794D01*
X30311Y-17790D01*
X30312Y-17786D01*
X29585Y-17060D01*
X29585Y-8007D01*
X30330Y-7263D01*
X35382Y-7263D01*
X36127Y-8007D01*
X36127Y-17060D01*
X35400Y-17786D01*
X35400Y-17791D01*
X35397Y-17794D01*
X35397Y-66645D01*
X35399Y-66648D01*
X35399Y-66653D01*
X35403Y-66653D01*
X35407Y-66657D01*
X35411Y-66653D01*
X35417Y-66654D01*
X38312Y-63759D01*
X38312Y-63753D01*
X38315Y-63751D01*
X38315Y-17794D01*
X38311Y-17790D01*
X38312Y-17786D01*
X37585Y-17060D01*
X37585Y-8007D01*
X38330Y-7263D01*
X43382Y-7263D01*
X44127Y-8007D01*
X44127Y-17060D01*
X43400Y-17786D01*
X43400Y-17791D01*
X43397Y-17794D01*
X43397Y-65860D01*
X17195Y-92062D01*
X17195Y-92068D01*
X17192Y-92071D01*
X17192Y-106007D01*
X17195Y-106011D01*
X17195Y-106016D01*
X19704Y-108524D01*
X19704Y-112710D01*
X16744Y-115670D01*
X12558Y-115670D01*
G37*
%LPD*%
%LPC*%
G36*
X-58989Y-72410D02*
X-58989Y-72410D01*
X-61497Y-69902D01*
X-61503Y-69901D01*
X-61506Y-69898D01*
X-80761Y-69898D01*
X-99858Y-50801D01*
X-99858Y7113D01*
X-91486Y15485D01*
X-89864Y15485D01*
X-89852Y15495D01*
X-89853Y15495D01*
X-89852Y15495D01*
X-89853Y15496D01*
X-89852Y15497D01*
X-89852Y16970D01*
X-89108Y17715D01*
X-79055Y17715D01*
X-78766Y17425D01*
X-78750Y17424D01*
X-78750Y17425D01*
X-78749Y17425D01*
X-78197Y17977D01*
X-78197Y17982D01*
X-78194Y17985D01*
X-78194Y24524D01*
X-77449Y25269D01*
X-67397Y25269D01*
X-66652Y24524D01*
X-66652Y23051D01*
X-66642Y23039D01*
X-66641Y23039D01*
X-66640Y23039D01*
X-63374Y23039D01*
X-63370Y23042D01*
X-63366Y23042D01*
X-62670Y23738D01*
X-53618Y23738D01*
X-52873Y22993D01*
X-52873Y17940D01*
X-53618Y17196D01*
X-62670Y17196D01*
X-63415Y17940D01*
X-63415Y17945D01*
X-63425Y17957D01*
X-63426Y17956D01*
X-63427Y17957D01*
X-66640Y17957D01*
X-66652Y17947D01*
X-66652Y17946D01*
X-66652Y17945D01*
X-66652Y16472D01*
X-67397Y15727D01*
X-73255Y15727D01*
X-73260Y15723D01*
X-73264Y15724D01*
X-76698Y12289D01*
X-76699Y12285D01*
X-76702Y12282D01*
X-76699Y12279D01*
X-76699Y12273D01*
X-76694Y12273D01*
X-76690Y12269D01*
X-67397Y12269D01*
X-66652Y11524D01*
X-66652Y3472D01*
X-67397Y2727D01*
X-69967Y2727D01*
X-69979Y2717D01*
X-69978Y2716D01*
X-69979Y2715D01*
X-69979Y-307D01*
X-69975Y-311D01*
X-69975Y-315D01*
X-69301Y-989D01*
X-69296Y-989D01*
X-69294Y-991D01*
X-69293Y-993D01*
X-63405Y-993D01*
X-63401Y-989D01*
X-63397Y-989D01*
X-62670Y-263D01*
X-53618Y-263D01*
X-52873Y-1007D01*
X-52873Y-1130D01*
X-52863Y-1142D01*
X-52862Y-1141D01*
X-52861Y-1142D01*
X-51222Y-1142D01*
X-51218Y-1139D01*
X-51214Y-1139D01*
X-49661Y414D01*
X-49661Y418D01*
X-49660Y418D01*
X-49661Y419D01*
X-49661Y420D01*
X-49658Y422D01*
X-49658Y59649D01*
X-49661Y59653D01*
X-49661Y59657D01*
X-55197Y65193D01*
X-55202Y65193D01*
X-55205Y65196D01*
X-62670Y65196D01*
X-63415Y65940D01*
X-63415Y70993D01*
X-62670Y71738D01*
X-60697Y71738D01*
X-60685Y71748D01*
X-60686Y71749D01*
X-60685Y71749D01*
X-60685Y73184D01*
X-60695Y73196D01*
X-60696Y73195D01*
X-60697Y73196D01*
X-62670Y73196D01*
X-63415Y73940D01*
X-63415Y78993D01*
X-62670Y79738D01*
X-61197Y79738D01*
X-61185Y79748D01*
X-61186Y79749D01*
X-61185Y79749D01*
X-61185Y81184D01*
X-61195Y81196D01*
X-61196Y81195D01*
X-61197Y81196D01*
X-62670Y81196D01*
X-63415Y81940D01*
X-63415Y87139D01*
X-63419Y87144D01*
X-63418Y87148D01*
X-84964Y108693D01*
X-84964Y115024D01*
X-84967Y115028D01*
X-84967Y115033D01*
X-87476Y117541D01*
X-87476Y121727D01*
X-84516Y124687D01*
X-80330Y124687D01*
X-77370Y121727D01*
X-77370Y117541D01*
X-79879Y115033D01*
X-79879Y115027D01*
X-79882Y115024D01*
X-79882Y110803D01*
X-79879Y110799D01*
X-79879Y110795D01*
X-59825Y90741D01*
X-59820Y90741D01*
X-59818Y90739D01*
X-59817Y90738D01*
X-54618Y90738D01*
X-53873Y89993D01*
X-53873Y88019D01*
X-53863Y88008D01*
X-53862Y88008D01*
X-53861Y88008D01*
X-50427Y88008D01*
X-50415Y88018D01*
X-50416Y88019D01*
X-50415Y88019D01*
X-50415Y89993D01*
X-49670Y90738D01*
X-44618Y90738D01*
X-43873Y89993D01*
X-43873Y88019D01*
X-43863Y88008D01*
X-43862Y88008D01*
X-43861Y88008D01*
X-42427Y88008D01*
X-42415Y88018D01*
X-42416Y88019D01*
X-42415Y88019D01*
X-42415Y89993D01*
X-41670Y90738D01*
X-36618Y90738D01*
X-35873Y89993D01*
X-35873Y88019D01*
X-35863Y88008D01*
X-35862Y88008D01*
X-35861Y88008D01*
X-34427Y88008D01*
X-34415Y88018D01*
X-34416Y88019D01*
X-34415Y88019D01*
X-34415Y89993D01*
X-33670Y90738D01*
X-28618Y90738D01*
X-27873Y89993D01*
X-27873Y88019D01*
X-27863Y88008D01*
X-27862Y88008D01*
X-27861Y88008D01*
X-26427Y88008D01*
X-26415Y88018D01*
X-26416Y88019D01*
X-26415Y88019D01*
X-26415Y89993D01*
X-25670Y90738D01*
X-20618Y90738D01*
X-19873Y89993D01*
X-19873Y88019D01*
X-19863Y88008D01*
X-19862Y88008D01*
X-19861Y88008D01*
X-18427Y88008D01*
X-18415Y88018D01*
X-18416Y88019D01*
X-18415Y88019D01*
X-18415Y89993D01*
X-17670Y90738D01*
X-12618Y90738D01*
X-11873Y89993D01*
X-11873Y88019D01*
X-11863Y88008D01*
X-11862Y88008D01*
X-11861Y88008D01*
X-10427Y88008D01*
X-10415Y88018D01*
X-10416Y88019D01*
X-10415Y88019D01*
X-10415Y89993D01*
X-9670Y90738D01*
X-4618Y90738D01*
X-3873Y89993D01*
X-3873Y88019D01*
X-3863Y88008D01*
X-3862Y88008D01*
X-3861Y88008D01*
X-2427Y88008D01*
X-2415Y88018D01*
X-2416Y88019D01*
X-2415Y88019D01*
X-2415Y89993D01*
X-1670Y90738D01*
X3382Y90738D01*
X4127Y89993D01*
X4127Y88019D01*
X4137Y88008D01*
X4138Y88008D01*
X4139Y88008D01*
X5573Y88008D01*
X5585Y88018D01*
X5584Y88019D01*
X5585Y88019D01*
X5585Y89993D01*
X6330Y90738D01*
X11382Y90738D01*
X12127Y89993D01*
X12127Y88019D01*
X12137Y88008D01*
X12138Y88008D01*
X12139Y88008D01*
X13573Y88008D01*
X13585Y88018D01*
X13584Y88019D01*
X13585Y88019D01*
X13585Y89993D01*
X14330Y90738D01*
X19382Y90738D01*
X20127Y89993D01*
X20127Y88019D01*
X20137Y88008D01*
X20138Y88008D01*
X20139Y88008D01*
X21573Y88008D01*
X21585Y88018D01*
X21584Y88019D01*
X21585Y88019D01*
X21585Y89993D01*
X22330Y90738D01*
X27382Y90738D01*
X28127Y89993D01*
X28127Y88019D01*
X28137Y88008D01*
X28138Y88008D01*
X28139Y88008D01*
X29573Y88008D01*
X29585Y88018D01*
X29584Y88019D01*
X29585Y88019D01*
X29585Y89993D01*
X30330Y90738D01*
X35382Y90738D01*
X36127Y89993D01*
X36127Y88019D01*
X36137Y88008D01*
X36138Y88008D01*
X36139Y88008D01*
X37573Y88008D01*
X37585Y88018D01*
X37584Y88019D01*
X37585Y88019D01*
X37585Y89993D01*
X38330Y90738D01*
X43382Y90738D01*
X44127Y89993D01*
X44127Y88019D01*
X44137Y88008D01*
X44138Y88008D01*
X44139Y88008D01*
X45573Y88008D01*
X45585Y88018D01*
X45584Y88019D01*
X45585Y88019D01*
X45585Y89993D01*
X46330Y90738D01*
X51382Y90738D01*
X52127Y89993D01*
X52127Y88019D01*
X52137Y88008D01*
X52138Y88008D01*
X52139Y88008D01*
X55573Y88008D01*
X55585Y88018D01*
X55584Y88019D01*
X55585Y88019D01*
X55585Y89993D01*
X56330Y90738D01*
X61612Y90738D01*
X61617Y90741D01*
X61621Y90741D01*
X79752Y108872D01*
X79752Y108878D01*
X79755Y108880D01*
X79755Y115151D01*
X79752Y115155D01*
X79752Y115160D01*
X77243Y117668D01*
X77243Y121854D01*
X80203Y124814D01*
X84389Y124814D01*
X87349Y121854D01*
X87349Y117668D01*
X84840Y115160D01*
X84840Y115155D01*
X84837Y115153D01*
X84838Y115152D01*
X84837Y115151D01*
X84837Y106771D01*
X65130Y87064D01*
X65130Y87058D01*
X65127Y87056D01*
X65127Y81940D01*
X64382Y81196D01*
X56330Y81196D01*
X55585Y81940D01*
X55585Y82914D01*
X55575Y82926D01*
X55574Y82925D01*
X55573Y82926D01*
X52139Y82926D01*
X52127Y82916D01*
X52127Y82915D01*
X52127Y82914D01*
X52127Y80940D01*
X51382Y80196D01*
X46330Y80196D01*
X45585Y80940D01*
X45585Y82914D01*
X45575Y82926D01*
X45574Y82925D01*
X45573Y82926D01*
X44139Y82926D01*
X44127Y82916D01*
X44127Y82915D01*
X44127Y82914D01*
X44127Y80940D01*
X43382Y80196D01*
X38330Y80196D01*
X37585Y80940D01*
X37585Y82914D01*
X37575Y82926D01*
X37574Y82925D01*
X37573Y82926D01*
X36139Y82926D01*
X36127Y82916D01*
X36127Y82915D01*
X36127Y82914D01*
X36127Y80940D01*
X35382Y80196D01*
X30330Y80196D01*
X29585Y80940D01*
X29585Y82914D01*
X29575Y82926D01*
X29574Y82925D01*
X29573Y82926D01*
X28139Y82926D01*
X28127Y82916D01*
X28127Y82915D01*
X28127Y82914D01*
X28127Y80940D01*
X27382Y80196D01*
X22330Y80196D01*
X21585Y80940D01*
X21585Y82914D01*
X21575Y82926D01*
X21574Y82925D01*
X21573Y82926D01*
X20139Y82926D01*
X20127Y82916D01*
X20127Y82915D01*
X20127Y82914D01*
X20127Y80940D01*
X19382Y80196D01*
X14330Y80196D01*
X13585Y80940D01*
X13585Y82914D01*
X13575Y82926D01*
X13574Y82925D01*
X13573Y82926D01*
X12139Y82926D01*
X12127Y82916D01*
X12127Y82915D01*
X12127Y82914D01*
X12127Y80940D01*
X11382Y80196D01*
X6330Y80196D01*
X5585Y80940D01*
X5585Y82914D01*
X5575Y82926D01*
X5574Y82925D01*
X5573Y82926D01*
X4139Y82926D01*
X4127Y82916D01*
X4127Y82915D01*
X4127Y82914D01*
X4127Y80940D01*
X3382Y80196D01*
X-1670Y80196D01*
X-2415Y80940D01*
X-2415Y82914D01*
X-2425Y82926D01*
X-2426Y82925D01*
X-2427Y82926D01*
X-3861Y82926D01*
X-3873Y82916D01*
X-3873Y82915D01*
X-3873Y82914D01*
X-3873Y80940D01*
X-4618Y80196D01*
X-9670Y80196D01*
X-10415Y80940D01*
X-10415Y82914D01*
X-10425Y82926D01*
X-10426Y82925D01*
X-10427Y82926D01*
X-11861Y82926D01*
X-11873Y82916D01*
X-11873Y82915D01*
X-11873Y82914D01*
X-11873Y80940D01*
X-12618Y80196D01*
X-17670Y80196D01*
X-18415Y80940D01*
X-18415Y82914D01*
X-18425Y82926D01*
X-18426Y82925D01*
X-18427Y82926D01*
X-19861Y82926D01*
X-19873Y82916D01*
X-19873Y82915D01*
X-19873Y82914D01*
X-19873Y80940D01*
X-20618Y80196D01*
X-25670Y80196D01*
X-26415Y80940D01*
X-26415Y82914D01*
X-26425Y82926D01*
X-26426Y82925D01*
X-26427Y82926D01*
X-27861Y82926D01*
X-27873Y82916D01*
X-27873Y82915D01*
X-27873Y82914D01*
X-27873Y80940D01*
X-28618Y80196D01*
X-33670Y80196D01*
X-34415Y80940D01*
X-34415Y82914D01*
X-34425Y82926D01*
X-34426Y82925D01*
X-34427Y82926D01*
X-35861Y82926D01*
X-35873Y82916D01*
X-35873Y82915D01*
X-35873Y82914D01*
X-35873Y80940D01*
X-36618Y80196D01*
X-41670Y80196D01*
X-42415Y80940D01*
X-42415Y82914D01*
X-42425Y82926D01*
X-42426Y82925D01*
X-42427Y82926D01*
X-43861Y82926D01*
X-43873Y82916D01*
X-43873Y82915D01*
X-43873Y82914D01*
X-43873Y80940D01*
X-44618Y80196D01*
X-49670Y80196D01*
X-50415Y80940D01*
X-50415Y82914D01*
X-50425Y82926D01*
X-50426Y82925D01*
X-50427Y82926D01*
X-53861Y82926D01*
X-53873Y82916D01*
X-53873Y82915D01*
X-53873Y82914D01*
X-53873Y81940D01*
X-54618Y81196D01*
X-56091Y81196D01*
X-56103Y81186D01*
X-56103Y81185D01*
X-56103Y81184D01*
X-56103Y79749D01*
X-56093Y79738D01*
X-56092Y79738D01*
X-56091Y79738D01*
X-53618Y79738D01*
X-52873Y78993D01*
X-52873Y73940D01*
X-53618Y73196D01*
X-55591Y73196D01*
X-55603Y73186D01*
X-55603Y73185D01*
X-55603Y73184D01*
X-55603Y71749D01*
X-55593Y71738D01*
X-55592Y71738D01*
X-55591Y71738D01*
X-53618Y71738D01*
X-52873Y70993D01*
X-52873Y70060D01*
X-52870Y70056D01*
X-52870Y70052D01*
X-44576Y61758D01*
X-44576Y19357D01*
X-44574Y19354D01*
X-44574Y19350D01*
X-44570Y19349D01*
X-44566Y19345D01*
X-44562Y19349D01*
X-44556Y19348D01*
X-42186Y21718D01*
X-42186Y21724D01*
X-42182Y21727D01*
X-42182Y67837D01*
X-31405Y78614D01*
X44486Y78614D01*
X53214Y69886D01*
X53214Y48936D01*
X53217Y48932D01*
X53217Y48928D01*
X54860Y47285D01*
X54876Y47284D01*
X54876Y47285D01*
X54877Y47285D01*
X55330Y47738D01*
X63545Y47738D01*
X63556Y47748D01*
X63556Y47749D01*
X63557Y47749D01*
X63557Y48657D01*
X64075Y49176D01*
X64075Y49180D01*
X64078Y49183D01*
X64075Y49186D01*
X64076Y49191D01*
X64070Y49192D01*
X64066Y49196D01*
X55330Y49196D01*
X54585Y49940D01*
X54585Y54993D01*
X55330Y55738D01*
X64382Y55738D01*
X65127Y54993D01*
X65127Y50256D01*
X65129Y50253D01*
X65129Y50249D01*
X65133Y50249D01*
X65137Y50245D01*
X65140Y50247D01*
X65141Y50247D01*
X65143Y50248D01*
X65147Y50248D01*
X66516Y51617D01*
X70423Y51617D01*
X70427Y51621D01*
X70432Y51621D01*
X71646Y52835D01*
X73140Y52835D01*
X73152Y52846D01*
X73152Y52847D01*
X73152Y54610D01*
X75361Y56819D01*
X89485Y56819D01*
X91694Y54610D01*
X91694Y46487D01*
X89485Y44278D01*
X75361Y44278D01*
X73682Y45957D01*
X73678Y45957D01*
X73675Y45960D01*
X73672Y45957D01*
X73667Y45958D01*
X73666Y45952D01*
X73662Y45948D01*
X73662Y44472D01*
X70702Y41512D01*
X70648Y41512D01*
X70645Y41509D01*
X70641Y41509D01*
X70641Y41505D01*
X70637Y41501D01*
X70640Y41497D01*
X70640Y41491D01*
X73374Y38757D01*
X73380Y38757D01*
X73383Y38754D01*
X74260Y38754D01*
X74264Y38757D01*
X74269Y38757D01*
X75348Y39837D01*
X89472Y39837D01*
X91681Y37628D01*
X91681Y29504D01*
X89472Y27295D01*
X75348Y27295D01*
X73140Y29504D01*
X73140Y33913D01*
X73137Y33916D01*
X73137Y33920D01*
X73133Y33921D01*
X73129Y33925D01*
X73125Y33921D01*
X73119Y33921D01*
X70612Y31414D01*
X66426Y31414D01*
X64522Y33319D01*
X64516Y33319D01*
X64516Y33320D01*
X64511Y33320D01*
X64510Y33319D01*
X64506Y33320D01*
X64506Y33318D01*
X64505Y33319D01*
X64382Y33196D01*
X55330Y33196D01*
X54603Y33923D01*
X54597Y33923D01*
X54595Y33926D01*
X53032Y33926D01*
X43179Y43779D01*
X43179Y63713D01*
X43176Y63717D01*
X43176Y63721D01*
X38956Y67941D01*
X38950Y67941D01*
X38948Y67944D01*
X-25740Y67944D01*
X-25744Y67941D01*
X-25748Y67941D01*
X-30356Y63333D01*
X-30357Y63327D01*
X-30360Y63324D01*
X-30360Y31414D01*
X-30356Y31410D01*
X-30356Y31406D01*
X-27848Y28898D01*
X-27848Y24712D01*
X-30808Y21752D01*
X-34994Y21752D01*
X-37081Y23839D01*
X-37085Y23839D01*
X-37087Y23842D01*
X-37089Y23841D01*
X-37091Y23840D01*
X-37096Y23840D01*
X-37097Y23834D01*
X-37101Y23831D01*
X-37101Y21727D01*
X-37097Y21723D01*
X-37097Y21718D01*
X-34589Y19210D01*
X-34589Y15024D01*
X-37549Y12064D01*
X-41735Y12064D01*
X-44556Y14886D01*
X-44560Y14886D01*
X-44563Y14889D01*
X-44564Y14888D01*
X-44566Y14886D01*
X-44572Y14887D01*
X-44572Y14881D01*
X-44576Y14878D01*
X-44576Y14877D01*
X-44576Y-1687D01*
X-46068Y-3179D01*
X-47621Y-4732D01*
X-49113Y-6224D01*
X-53033Y-6224D01*
X-53037Y-6227D01*
X-53041Y-6227D01*
X-53618Y-6804D01*
X-56091Y-6804D01*
X-56103Y-6814D01*
X-56103Y-6815D01*
X-56103Y-6816D01*
X-56103Y-8251D01*
X-56093Y-8262D01*
X-56092Y-8262D01*
X-56091Y-8263D01*
X-54618Y-8263D01*
X-53873Y-9007D01*
X-53873Y-17060D01*
X-54618Y-17804D01*
X-56091Y-17804D01*
X-56103Y-17814D01*
X-56103Y-17815D01*
X-56103Y-17816D01*
X-56103Y-28721D01*
X-57734Y-30351D01*
X-57734Y-30357D01*
X-57737Y-30359D01*
X-57737Y-36558D01*
X-58481Y-37303D01*
X-67534Y-37303D01*
X-68279Y-36558D01*
X-68279Y-27506D01*
X-67534Y-26761D01*
X-61335Y-26761D01*
X-61331Y-26758D01*
X-61327Y-26758D01*
X-61188Y-26619D01*
X-61188Y-26614D01*
X-61185Y-26611D01*
X-61185Y-17816D01*
X-61195Y-17804D01*
X-61196Y-17805D01*
X-61197Y-17804D01*
X-62670Y-17804D01*
X-63415Y-17060D01*
X-63415Y-9007D01*
X-62670Y-8263D01*
X-61197Y-8263D01*
X-61185Y-8252D01*
X-61186Y-8251D01*
X-61185Y-8251D01*
X-61185Y-6816D01*
X-61195Y-6804D01*
X-61196Y-6805D01*
X-61197Y-6804D01*
X-62670Y-6804D01*
X-63397Y-6077D01*
X-63403Y-6077D01*
X-63405Y-6074D01*
X-71403Y-6074D01*
X-75060Y-2417D01*
X-75060Y2715D01*
X-75071Y2727D01*
X-75071Y2726D01*
X-75072Y2727D01*
X-77449Y2727D01*
X-78194Y3472D01*
X-78194Y10765D01*
X-78196Y10768D01*
X-78196Y10772D01*
X-78200Y10773D01*
X-78204Y10777D01*
X-78208Y10773D01*
X-78214Y10773D01*
X-78307Y10680D01*
X-78308Y10676D01*
X-78308Y10675D01*
X-78308Y10674D01*
X-78311Y10672D01*
X-78311Y8918D01*
X-79055Y8173D01*
X-89108Y8173D01*
X-89852Y8918D01*
X-89852Y9904D01*
X-89855Y9907D01*
X-89855Y9911D01*
X-89859Y9911D01*
X-89863Y9916D01*
X-89867Y9912D01*
X-89873Y9912D01*
X-94773Y5012D01*
X-94774Y5008D01*
X-94776Y5005D01*
X-94775Y5004D01*
X-94777Y5003D01*
X-94777Y-48691D01*
X-94773Y-48695D01*
X-94773Y-48700D01*
X-78660Y-64813D01*
X-78654Y-64814D01*
X-78651Y-64817D01*
X-61506Y-64817D01*
X-61502Y-64813D01*
X-61497Y-64813D01*
X-58989Y-62305D01*
X-54803Y-62305D01*
X-51843Y-65265D01*
X-51843Y-69451D01*
X-54803Y-72410D01*
X-58989Y-72410D01*
G37*
%LPD*%
G36*
X131879Y47372D02*
X131879Y47372D01*
X131923Y47372D01*
X135915Y47972D01*
X135945Y47983D01*
X135988Y47989D01*
X139847Y49178D01*
X139875Y49193D01*
X139916Y49205D01*
X143555Y50956D01*
X143576Y50972D01*
X143602Y50982D01*
X143655Y51032D01*
X143713Y51076D01*
X143727Y51099D01*
X143746Y51118D01*
X143776Y51185D01*
X143812Y51248D01*
X143815Y51275D01*
X143826Y51300D01*
X143827Y51373D01*
X143836Y51446D01*
X143828Y51472D01*
X143829Y51499D01*
X143792Y51598D01*
X143781Y51637D01*
X143775Y51644D01*
X143771Y51655D01*
X116771Y98455D01*
X116753Y98475D01*
X116741Y98500D01*
X116687Y98549D01*
X116639Y98604D01*
X116614Y98616D01*
X116594Y98634D01*
X116525Y98658D01*
X116459Y98690D01*
X116432Y98691D01*
X116407Y98700D01*
X116334Y98695D01*
X116261Y98699D01*
X116235Y98689D01*
X116208Y98688D01*
X116112Y98644D01*
X116074Y98629D01*
X116068Y98623D01*
X116057Y98618D01*
X112720Y96345D01*
X112698Y96322D01*
X112662Y96298D01*
X109701Y93553D01*
X109683Y93527D01*
X109650Y93498D01*
X107132Y90342D01*
X107117Y90314D01*
X107090Y90280D01*
X105070Y86784D01*
X105060Y86754D01*
X105038Y86717D01*
X103561Y82959D01*
X103556Y82928D01*
X103539Y82888D01*
X102639Y78952D01*
X102639Y78920D01*
X102628Y78878D01*
X102325Y74852D01*
X102328Y74828D01*
X102325Y74808D01*
X102327Y74799D01*
X102325Y74777D01*
X102626Y70751D01*
X102634Y70720D01*
X102637Y70677D01*
X103534Y66740D01*
X103547Y66711D01*
X103556Y66669D01*
X105030Y62910D01*
X105047Y62883D01*
X105062Y62842D01*
X107080Y59345D01*
X107101Y59321D01*
X107122Y59283D01*
X109638Y56126D01*
X109663Y56105D01*
X109689Y56071D01*
X112648Y53324D01*
X112675Y53307D01*
X112706Y53277D01*
X116042Y51002D01*
X116071Y50989D01*
X116106Y50964D01*
X119744Y49211D01*
X119774Y49204D01*
X119813Y49184D01*
X123671Y47993D01*
X123703Y47990D01*
X123744Y47976D01*
X127736Y47373D01*
X127768Y47375D01*
X127810Y47367D01*
X131848Y47366D01*
X131879Y47372D01*
G37*
G36*
X-127934Y47367D02*
X-127934Y47367D01*
X-127903Y47374D01*
X-127860Y47373D01*
X-123868Y47976D01*
X-123838Y47987D01*
X-123795Y47993D01*
X-119937Y49184D01*
X-119909Y49199D01*
X-119867Y49211D01*
X-116230Y50964D01*
X-116205Y50984D01*
X-116166Y51002D01*
X-112830Y53277D01*
X-112808Y53300D01*
X-112772Y53324D01*
X-109813Y56071D01*
X-109794Y56097D01*
X-109762Y56126D01*
X-107246Y59283D01*
X-107231Y59312D01*
X-107204Y59345D01*
X-105186Y62842D01*
X-105176Y62873D01*
X-105154Y62910D01*
X-103680Y66669D01*
X-103674Y66700D01*
X-103658Y66740D01*
X-102761Y70677D01*
X-102760Y70709D01*
X-102749Y70751D01*
X-102449Y74777D01*
X-102453Y74809D01*
X-102452Y74825D01*
X-102449Y74841D01*
X-102450Y74845D01*
X-102449Y74852D01*
X-102752Y78878D01*
X-102761Y78909D01*
X-102763Y78952D01*
X-103663Y82888D01*
X-103676Y82917D01*
X-103685Y82959D01*
X-105161Y86717D01*
X-105179Y86744D01*
X-105194Y86784D01*
X-107214Y90280D01*
X-107235Y90304D01*
X-107256Y90342D01*
X-109774Y93498D01*
X-109799Y93518D01*
X-109825Y93553D01*
X-112786Y96298D01*
X-112813Y96315D01*
X-112844Y96345D01*
X-116181Y98618D01*
X-116206Y98629D01*
X-116227Y98646D01*
X-116297Y98667D01*
X-116364Y98695D01*
X-116391Y98695D01*
X-116417Y98703D01*
X-116490Y98695D01*
X-116563Y98694D01*
X-116588Y98684D01*
X-116615Y98681D01*
X-116679Y98645D01*
X-116746Y98616D01*
X-116765Y98597D01*
X-116788Y98583D01*
X-116855Y98502D01*
X-116884Y98473D01*
X-116887Y98464D01*
X-116894Y98455D01*
X-143894Y51655D01*
X-143903Y51629D01*
X-143919Y51607D01*
X-143934Y51536D01*
X-143957Y51466D01*
X-143955Y51439D01*
X-143961Y51413D01*
X-143948Y51341D01*
X-143942Y51268D01*
X-143929Y51244D01*
X-143924Y51217D01*
X-143884Y51156D01*
X-143850Y51092D01*
X-143829Y51074D01*
X-143814Y51052D01*
X-143728Y50991D01*
X-143697Y50965D01*
X-143688Y50962D01*
X-143678Y50956D01*
X-140040Y49205D01*
X-140009Y49197D01*
X-139971Y49178D01*
X-136112Y47989D01*
X-136080Y47986D01*
X-136039Y47972D01*
X-132046Y47372D01*
X-132015Y47373D01*
X-131972Y47366D01*
X-127934Y47367D01*
G37*
G36*
X116366Y-99084D02*
X116366Y-99084D01*
X116439Y-99083D01*
X116464Y-99073D01*
X116491Y-99070D01*
X116555Y-99034D01*
X116622Y-99005D01*
X116641Y-98986D01*
X116665Y-98972D01*
X116732Y-98891D01*
X116760Y-98862D01*
X116763Y-98853D01*
X116771Y-98844D01*
X143771Y-52044D01*
X143779Y-52018D01*
X143795Y-51996D01*
X143810Y-51925D01*
X143834Y-51855D01*
X143832Y-51828D01*
X143837Y-51802D01*
X143824Y-51730D01*
X143818Y-51657D01*
X143806Y-51633D01*
X143801Y-51606D01*
X143760Y-51546D01*
X143726Y-51481D01*
X143705Y-51463D01*
X143690Y-51441D01*
X143604Y-51380D01*
X143573Y-51354D01*
X143564Y-51351D01*
X143555Y-51345D01*
X139916Y-49594D01*
X139885Y-49586D01*
X139847Y-49567D01*
X135988Y-48378D01*
X135956Y-48375D01*
X135915Y-48361D01*
X131923Y-47761D01*
X131891Y-47762D01*
X131848Y-47755D01*
X127810Y-47756D01*
X127779Y-47763D01*
X127736Y-47762D01*
X123744Y-48365D01*
X123714Y-48376D01*
X123671Y-48382D01*
X119813Y-49573D01*
X119785Y-49588D01*
X119744Y-49600D01*
X116106Y-51353D01*
X116081Y-51373D01*
X116042Y-51391D01*
X112706Y-53666D01*
X112684Y-53689D01*
X112648Y-53713D01*
X109689Y-56460D01*
X109671Y-56486D01*
X109638Y-56515D01*
X107122Y-59672D01*
X107107Y-59701D01*
X107080Y-59734D01*
X105062Y-63231D01*
X105052Y-63262D01*
X105030Y-63299D01*
X103556Y-67058D01*
X103550Y-67089D01*
X103534Y-67129D01*
X102637Y-71066D01*
X102636Y-71098D01*
X102626Y-71140D01*
X102325Y-75166D01*
X102329Y-75198D01*
X102325Y-75241D01*
X102628Y-79267D01*
X102637Y-79298D01*
X102639Y-79341D01*
X103539Y-83277D01*
X103552Y-83306D01*
X103561Y-83348D01*
X105038Y-87106D01*
X105055Y-87133D01*
X105070Y-87173D01*
X107090Y-90670D01*
X107111Y-90693D01*
X107132Y-90731D01*
X109650Y-93887D01*
X109675Y-93908D01*
X109701Y-93942D01*
X112662Y-96687D01*
X112689Y-96704D01*
X112720Y-96734D01*
X116057Y-99007D01*
X116082Y-99018D01*
X116103Y-99035D01*
X116173Y-99056D01*
X116240Y-99084D01*
X116268Y-99084D01*
X116294Y-99092D01*
X116366Y-99084D01*
G37*
G36*
X-116458Y-99084D02*
X-116458Y-99084D01*
X-116385Y-99088D01*
X-116359Y-99078D01*
X-116332Y-99077D01*
X-116236Y-99033D01*
X-116198Y-99018D01*
X-116191Y-99012D01*
X-116181Y-99007D01*
X-112844Y-96734D01*
X-112822Y-96711D01*
X-112786Y-96687D01*
X-109825Y-93942D01*
X-109806Y-93916D01*
X-109774Y-93887D01*
X-107256Y-90731D01*
X-107241Y-90703D01*
X-107214Y-90670D01*
X-105194Y-87173D01*
X-105184Y-87143D01*
X-105161Y-87106D01*
X-103685Y-83348D01*
X-103679Y-83317D01*
X-103663Y-83277D01*
X-102763Y-79341D01*
X-102762Y-79309D01*
X-102752Y-79267D01*
X-102449Y-75241D01*
X-102453Y-75209D01*
X-102449Y-75166D01*
X-102749Y-71140D01*
X-102758Y-71109D01*
X-102761Y-71066D01*
X-103658Y-67129D01*
X-103671Y-67100D01*
X-103680Y-67058D01*
X-105154Y-63299D01*
X-105171Y-63272D01*
X-105186Y-63231D01*
X-107204Y-59734D01*
X-107225Y-59710D01*
X-107246Y-59672D01*
X-109762Y-56515D01*
X-109787Y-56494D01*
X-109813Y-56460D01*
X-112772Y-53713D01*
X-112799Y-53696D01*
X-112830Y-53666D01*
X-116166Y-51391D01*
X-116195Y-51378D01*
X-116230Y-51353D01*
X-119867Y-49600D01*
X-119898Y-49593D01*
X-119937Y-49573D01*
X-123795Y-48382D01*
X-123826Y-48379D01*
X-123868Y-48365D01*
X-127860Y-47762D01*
X-127892Y-47764D01*
X-127934Y-47756D01*
X-131972Y-47755D01*
X-132003Y-47762D01*
X-132046Y-47761D01*
X-136039Y-48361D01*
X-136069Y-48372D01*
X-136112Y-48378D01*
X-139971Y-49567D01*
X-139999Y-49582D01*
X-140040Y-49594D01*
X-143678Y-51345D01*
X-143700Y-51361D01*
X-143726Y-51371D01*
X-143779Y-51421D01*
X-143837Y-51465D01*
X-143850Y-51488D01*
X-143870Y-51507D01*
X-143899Y-51574D01*
X-143936Y-51637D01*
X-143939Y-51664D01*
X-143950Y-51689D01*
X-143951Y-51762D01*
X-143960Y-51835D01*
X-143952Y-51861D01*
X-143952Y-51888D01*
X-143916Y-51987D01*
X-143904Y-52026D01*
X-143898Y-52033D01*
X-143894Y-52044D01*
X-116894Y-98844D01*
X-116876Y-98864D01*
X-116865Y-98889D01*
X-116811Y-98938D01*
X-116763Y-98993D01*
X-116738Y-99005D01*
X-116718Y-99023D01*
X-116649Y-99047D01*
X-116583Y-99079D01*
X-116556Y-99080D01*
X-116530Y-99089D01*
X-116458Y-99084D01*
G37*
G36*
X26965Y-150688D02*
X26965Y-150688D01*
X26992Y-150691D01*
X27061Y-150669D01*
X27133Y-150654D01*
X27155Y-150639D01*
X27181Y-150631D01*
X27237Y-150583D01*
X27297Y-150542D01*
X27312Y-150519D01*
X27332Y-150501D01*
X27365Y-150436D01*
X27404Y-150374D01*
X27408Y-150347D01*
X27421Y-150323D01*
X27430Y-150218D01*
X27437Y-150178D01*
X27435Y-150169D01*
X27436Y-150157D01*
X27134Y-146133D01*
X27126Y-146102D01*
X27123Y-146059D01*
X26225Y-142125D01*
X26212Y-142096D01*
X26203Y-142054D01*
X24729Y-138297D01*
X24712Y-138271D01*
X24697Y-138230D01*
X22679Y-134735D01*
X22658Y-134711D01*
X22637Y-134674D01*
X20121Y-131519D01*
X20096Y-131498D01*
X20070Y-131464D01*
X17112Y-128719D01*
X17085Y-128703D01*
X17054Y-128673D01*
X13719Y-126399D01*
X13690Y-126387D01*
X13655Y-126362D01*
X10019Y-124611D01*
X9988Y-124603D01*
X9949Y-124584D01*
X6093Y-123394D01*
X6062Y-123391D01*
X6021Y-123378D01*
X2030Y-122776D01*
X1998Y-122778D01*
X1956Y-122771D01*
X-2080Y-122771D01*
X-2111Y-122777D01*
X-2154Y-122776D01*
X-6144Y-123378D01*
X-6174Y-123389D01*
X-6217Y-123394D01*
X-10073Y-124584D01*
X-10101Y-124599D01*
X-10143Y-124611D01*
X-13779Y-126362D01*
X-13804Y-126381D01*
X-13843Y-126399D01*
X-17177Y-128673D01*
X-17200Y-128696D01*
X-17236Y-128719D01*
X-20194Y-131464D01*
X-20212Y-131490D01*
X-20245Y-131519D01*
X-22761Y-134674D01*
X-22775Y-134702D01*
X-22803Y-134735D01*
X-24820Y-138230D01*
X-24831Y-138260D01*
X-24853Y-138297D01*
X-26327Y-142054D01*
X-26333Y-142085D01*
X-26349Y-142125D01*
X-27247Y-146059D01*
X-27248Y-146091D01*
X-27258Y-146133D01*
X-27560Y-150157D01*
X-27556Y-150184D01*
X-27561Y-150211D01*
X-27544Y-150282D01*
X-27535Y-150355D01*
X-27521Y-150378D01*
X-27515Y-150405D01*
X-27472Y-150463D01*
X-27435Y-150526D01*
X-27413Y-150543D01*
X-27397Y-150565D01*
X-27334Y-150602D01*
X-27276Y-150646D01*
X-27249Y-150652D01*
X-27226Y-150666D01*
X-27122Y-150684D01*
X-27083Y-150693D01*
X-27073Y-150692D01*
X-27062Y-150694D01*
X26938Y-150694D01*
X26965Y-150688D01*
G37*
%LPC*%
G36*
X-23302Y-125449D02*
X-23302Y-125449D01*
X-25810Y-122940D01*
X-25816Y-122940D01*
X-25819Y-122937D01*
X-27461Y-122937D01*
X-32420Y-117978D01*
X-32426Y-117977D01*
X-32429Y-117974D01*
X-44628Y-117974D01*
X-45372Y-117230D01*
X-45372Y-108402D01*
X-45383Y-108390D01*
X-45383Y-108391D01*
X-45384Y-108390D01*
X-46577Y-108390D01*
X-46589Y-108401D01*
X-46588Y-108401D01*
X-46589Y-108402D01*
X-46589Y-109876D01*
X-47333Y-110620D01*
X-57386Y-110620D01*
X-58130Y-109876D01*
X-58130Y-108402D01*
X-58141Y-108390D01*
X-58142Y-108391D01*
X-58142Y-108390D01*
X-59297Y-108390D01*
X-59309Y-108401D01*
X-59309Y-108402D01*
X-59309Y-110742D01*
X-61518Y-112951D01*
X-75642Y-112951D01*
X-77851Y-110742D01*
X-77851Y-102618D01*
X-75642Y-100409D01*
X-61518Y-100409D01*
X-59309Y-102618D01*
X-59309Y-103297D01*
X-59299Y-103309D01*
X-59298Y-103308D01*
X-59297Y-103309D01*
X-58142Y-103309D01*
X-58130Y-103298D01*
X-58131Y-103298D01*
X-58130Y-103297D01*
X-58130Y-101823D01*
X-57386Y-101079D01*
X-47333Y-101079D01*
X-46589Y-101823D01*
X-46589Y-103297D01*
X-46578Y-103309D01*
X-46578Y-103308D01*
X-46577Y-103309D01*
X-45384Y-103309D01*
X-45372Y-103298D01*
X-45373Y-103298D01*
X-45372Y-103297D01*
X-45372Y-103177D01*
X-44628Y-102433D01*
X-28575Y-102433D01*
X-27831Y-103177D01*
X-27831Y-107283D01*
X-27828Y-107287D01*
X-27828Y-107291D01*
X-27824Y-107291D01*
X-27820Y-107295D01*
X-27816Y-107291D01*
X-27810Y-107292D01*
X-25496Y-104977D01*
X-24004Y-103485D01*
X-22723Y-103485D01*
X-22718Y-103482D01*
X-22714Y-103482D01*
X-22188Y-102955D01*
X-18635Y-102955D01*
X-17891Y-103700D01*
X-17891Y-104949D01*
X-17887Y-104953D01*
X-17887Y-104957D01*
X-17871Y-104974D01*
X-17871Y-107079D01*
X-17887Y-107095D01*
X-17888Y-107101D01*
X-17891Y-107103D01*
X-17891Y-108352D01*
X-18635Y-109097D01*
X-22188Y-109097D01*
X-22300Y-108985D01*
X-22316Y-108984D01*
X-22316Y-108985D01*
X-22317Y-108985D01*
X-24584Y-111252D01*
X-26076Y-112744D01*
X-27819Y-112744D01*
X-27831Y-112755D01*
X-27830Y-112755D01*
X-27831Y-112756D01*
X-27831Y-115376D01*
X-27827Y-115380D01*
X-27827Y-115384D01*
X-25594Y-117618D01*
X-25578Y-117619D01*
X-25578Y-117618D01*
X-25577Y-117618D01*
X-23302Y-115343D01*
X-19116Y-115343D01*
X-16156Y-118303D01*
X-16156Y-122489D01*
X-19116Y-125449D01*
X-23302Y-125449D01*
G37*
%LPD*%
%LPC*%
G36*
X74960Y-8321D02*
X74960Y-8321D01*
X72751Y-6112D01*
X72751Y2012D01*
X74960Y4221D01*
X79469Y4221D01*
X79481Y4231D01*
X79480Y4232D01*
X79481Y4233D01*
X79481Y6799D01*
X79477Y6803D01*
X79477Y6807D01*
X79321Y6964D01*
X79321Y8601D01*
X79317Y8605D01*
X79317Y8609D01*
X76809Y11118D01*
X76809Y15303D01*
X79769Y18263D01*
X83955Y18263D01*
X86914Y15303D01*
X86914Y11118D01*
X84566Y8769D01*
X84566Y8763D01*
X84562Y8761D01*
X84562Y4233D01*
X84573Y4221D01*
X84574Y4222D01*
X84574Y4221D01*
X89084Y4221D01*
X91292Y2012D01*
X91292Y-6112D01*
X89084Y-8321D01*
X74960Y-8321D01*
G37*
%LPD*%
%LPC*%
G36*
X-94138Y25530D02*
X-94138Y25530D01*
X-96347Y27739D01*
X-96347Y28510D01*
X-96350Y28513D01*
X-96349Y28518D01*
X-96354Y28518D01*
X-96357Y28522D01*
X-96359Y28521D01*
X-96360Y28521D01*
X-96363Y28518D01*
X-96367Y28519D01*
X-98666Y26220D01*
X-102852Y26220D01*
X-105812Y29180D01*
X-105812Y33365D01*
X-102852Y36325D01*
X-98666Y36325D01*
X-96367Y34026D01*
X-96363Y34026D01*
X-96360Y34023D01*
X-96359Y34024D01*
X-96357Y34026D01*
X-96352Y34025D01*
X-96351Y34031D01*
X-96347Y34034D01*
X-96347Y34035D01*
X-96347Y35863D01*
X-94138Y38071D01*
X-80014Y38071D01*
X-77806Y35863D01*
X-77806Y27739D01*
X-80014Y25530D01*
X-94138Y25530D01*
G37*
%LPD*%
%LPC*%
G36*
X-94138Y50930D02*
X-94138Y50930D01*
X-96347Y53139D01*
X-96347Y61263D01*
X-94138Y63471D01*
X-80014Y63471D01*
X-77806Y61263D01*
X-77806Y59753D01*
X-77795Y59742D01*
X-77794Y59742D01*
X-77587Y59742D01*
X-77582Y59745D01*
X-77578Y59745D01*
X-75611Y61713D01*
X-71425Y61713D01*
X-68465Y58753D01*
X-68465Y54567D01*
X-71425Y51607D01*
X-75611Y51607D01*
X-77785Y53782D01*
X-77789Y53782D01*
X-77792Y53785D01*
X-77795Y53782D01*
X-77801Y53783D01*
X-77801Y53777D01*
X-77806Y53773D01*
X-77806Y53139D01*
X-80014Y50930D01*
X-94138Y50930D01*
G37*
%LPD*%
%LPC*%
G36*
X-83528Y-55492D02*
X-83528Y-55492D01*
X-84273Y-54747D01*
X-84273Y-42694D01*
X-83528Y-41950D01*
X-80561Y-41950D01*
X-80549Y-41940D01*
X-80549Y-41939D01*
X-80549Y-41938D01*
X-80549Y-37315D01*
X-80559Y-37303D01*
X-80560Y-37304D01*
X-80561Y-37303D01*
X-82534Y-37303D01*
X-83279Y-36558D01*
X-83279Y-27506D01*
X-82534Y-26761D01*
X-73481Y-26761D01*
X-72737Y-27506D01*
X-72737Y-36558D01*
X-73481Y-37303D01*
X-75455Y-37303D01*
X-75467Y-37313D01*
X-75466Y-37314D01*
X-75467Y-37315D01*
X-75467Y-41938D01*
X-75457Y-41950D01*
X-75456Y-41949D01*
X-75455Y-41950D01*
X-72476Y-41950D01*
X-71731Y-42694D01*
X-71731Y-54747D01*
X-72476Y-55492D01*
X-83528Y-55492D01*
G37*
%LPD*%
%LPC*%
G36*
X-66528Y-55492D02*
X-66528Y-55492D01*
X-67273Y-54747D01*
X-67273Y-42694D01*
X-66528Y-41950D01*
X-55476Y-41950D01*
X-54731Y-42694D01*
X-54731Y-45502D01*
X-54729Y-45505D01*
X-54729Y-45509D01*
X-54725Y-45510D01*
X-54721Y-45514D01*
X-54717Y-45510D01*
X-54711Y-45510D01*
X-52525Y-43324D01*
X-48339Y-43324D01*
X-45379Y-46284D01*
X-45379Y-50470D01*
X-48339Y-53430D01*
X-52525Y-53430D01*
X-54711Y-51243D01*
X-54715Y-51243D01*
X-54718Y-51240D01*
X-54721Y-51243D01*
X-54727Y-51242D01*
X-54727Y-51248D01*
X-54731Y-51252D01*
X-54731Y-54747D01*
X-55476Y-55492D01*
X-66528Y-55492D01*
G37*
%LPD*%
%LPC*%
G36*
X-151318Y9933D02*
X-151318Y9933D01*
X-154278Y12893D01*
X-154278Y17079D01*
X-151318Y20039D01*
X-147132Y20039D01*
X-144172Y17079D01*
X-144172Y12893D01*
X-147132Y9933D01*
X-151318Y9933D01*
G37*
%LPD*%
%LPC*%
G36*
X55330Y73196D02*
X55330Y73196D01*
X54585Y73940D01*
X54585Y78993D01*
X55330Y79738D01*
X64382Y79738D01*
X65127Y78993D01*
X65127Y73940D01*
X64382Y73196D01*
X55330Y73196D01*
G37*
%LPD*%
%LPC*%
G36*
X55330Y65196D02*
X55330Y65196D01*
X54585Y65940D01*
X54585Y70993D01*
X55330Y71738D01*
X64382Y71738D01*
X65127Y70993D01*
X65127Y65940D01*
X64382Y65196D01*
X55330Y65196D01*
G37*
%LPD*%
%LPC*%
G36*
X55330Y57196D02*
X55330Y57196D01*
X54585Y57940D01*
X54585Y62993D01*
X55330Y63738D01*
X64382Y63738D01*
X65127Y62993D01*
X65127Y57940D01*
X64382Y57196D01*
X55330Y57196D01*
G37*
%LPD*%
%LPC*%
G36*
X-62670Y49196D02*
X-62670Y49196D01*
X-63415Y49940D01*
X-63415Y54993D01*
X-62670Y55738D01*
X-53618Y55738D01*
X-52873Y54993D01*
X-52873Y49940D01*
X-53618Y49196D01*
X-62670Y49196D01*
G37*
%LPD*%
%LPC*%
G36*
X-62670Y41196D02*
X-62670Y41196D01*
X-63415Y41940D01*
X-63415Y46993D01*
X-62670Y47738D01*
X-53618Y47738D01*
X-52873Y46993D01*
X-52873Y41940D01*
X-53618Y41196D01*
X-62670Y41196D01*
G37*
%LPD*%
%LPC*%
G36*
X-62670Y33196D02*
X-62670Y33196D01*
X-63415Y33940D01*
X-63415Y38993D01*
X-62670Y39738D01*
X-53618Y39738D01*
X-52873Y38993D01*
X-52873Y33940D01*
X-53618Y33196D01*
X-62670Y33196D01*
G37*
%LPD*%
%LPC*%
G36*
X-62670Y25196D02*
X-62670Y25196D01*
X-63415Y25940D01*
X-63415Y30993D01*
X-62670Y31738D01*
X-53618Y31738D01*
X-52873Y30993D01*
X-52873Y25940D01*
X-53618Y25196D01*
X-62670Y25196D01*
G37*
%LPD*%
%LPC*%
G36*
X-62670Y9196D02*
X-62670Y9196D01*
X-63415Y9940D01*
X-63415Y14993D01*
X-62670Y15738D01*
X-53618Y15738D01*
X-52873Y14993D01*
X-52873Y9940D01*
X-53618Y9196D01*
X-62670Y9196D01*
G37*
%LPD*%
%LPC*%
G36*
X55330Y9196D02*
X55330Y9196D01*
X54585Y9940D01*
X54585Y14993D01*
X55330Y15738D01*
X64382Y15738D01*
X65127Y14993D01*
X65127Y9940D01*
X64382Y9196D01*
X55330Y9196D01*
G37*
%LPD*%
%LPC*%
G36*
X-62670Y1196D02*
X-62670Y1196D01*
X-63415Y1940D01*
X-63415Y6993D01*
X-62670Y7738D01*
X-53618Y7738D01*
X-52873Y6993D01*
X-52873Y1940D01*
X-53618Y1196D01*
X-62670Y1196D01*
G37*
%LPD*%
%LPC*%
G36*
X55330Y1196D02*
X55330Y1196D01*
X54585Y1940D01*
X54585Y6993D01*
X55330Y7738D01*
X64382Y7738D01*
X65127Y6993D01*
X65127Y1940D01*
X64382Y1196D01*
X55330Y1196D01*
G37*
%LPD*%
%LPC*%
G36*
X55330Y-6804D02*
X55330Y-6804D01*
X54585Y-6060D01*
X54585Y-1007D01*
X55330Y-263D01*
X64382Y-263D01*
X65127Y-1007D01*
X65127Y-6060D01*
X64382Y-6804D01*
X55330Y-6804D01*
G37*
%LPD*%
%LPC*%
G36*
X-49670Y-17804D02*
X-49670Y-17804D01*
X-50415Y-17060D01*
X-50415Y-8007D01*
X-49670Y-7263D01*
X-44618Y-7263D01*
X-43873Y-8007D01*
X-43873Y-17060D01*
X-44618Y-17804D01*
X-49670Y-17804D01*
G37*
%LPD*%
%LPC*%
G36*
X-41670Y-17804D02*
X-41670Y-17804D01*
X-42415Y-17060D01*
X-42415Y-8007D01*
X-41670Y-7263D01*
X-36618Y-7263D01*
X-35873Y-8007D01*
X-35873Y-17060D01*
X-36618Y-17804D01*
X-41670Y-17804D01*
G37*
%LPD*%
%LPC*%
G36*
X46330Y-17804D02*
X46330Y-17804D01*
X45585Y-17060D01*
X45585Y-8007D01*
X46330Y-7263D01*
X51382Y-7263D01*
X52127Y-8007D01*
X52127Y-17060D01*
X51382Y-17804D01*
X46330Y-17804D01*
G37*
%LPD*%
%LPC*%
G36*
X-9670Y-17804D02*
X-9670Y-17804D01*
X-10415Y-17060D01*
X-10415Y-8007D01*
X-9670Y-7263D01*
X-4618Y-7263D01*
X-3873Y-8007D01*
X-3873Y-17060D01*
X-4618Y-17804D01*
X-9670Y-17804D01*
G37*
%LPD*%
%LPC*%
G36*
X55330Y17196D02*
X55330Y17196D01*
X54585Y17940D01*
X54585Y22993D01*
X55330Y23738D01*
X64382Y23738D01*
X65127Y22993D01*
X65127Y17940D01*
X64382Y17196D01*
X55330Y17196D01*
G37*
%LPD*%
%LPC*%
G36*
X55330Y25196D02*
X55330Y25196D01*
X54585Y25940D01*
X54585Y30993D01*
X55330Y31738D01*
X64382Y31738D01*
X65127Y30993D01*
X65127Y25940D01*
X64382Y25196D01*
X55330Y25196D01*
G37*
%LPD*%
D10*
X-78008Y-32032D03*
X-63008Y-32032D03*
D11*
X-78002Y-48721D03*
X-61002Y-48721D03*
D12*
X-81576Y54701D02*
X-92576Y54701D01*
X-92576Y59701D01*
X-81576Y59701D01*
X-81576Y54701D01*
X-81576Y59451D02*
X-92576Y59451D01*
X-92576Y34301D02*
X-81576Y34301D01*
X-81576Y29301D01*
X-92576Y29301D01*
X-92576Y34301D01*
X-92576Y34051D02*
X-81576Y34051D01*
X76522Y-4550D02*
X87522Y-4550D01*
X76522Y-4550D02*
X76522Y450D01*
X87522Y450D01*
X87522Y-4550D01*
X87522Y200D02*
X76522Y200D01*
X99107Y-4512D02*
X110107Y-4512D01*
X99107Y-4512D02*
X99107Y488D01*
X110107Y488D01*
X110107Y-4512D01*
X110107Y238D02*
X99107Y238D01*
D13*
X82538Y142905D03*
X165138Y-195D03*
X82538Y-143295D03*
X-82662Y-143295D03*
X-165262Y-195D03*
X-82662Y142905D03*
X123838Y71305D03*
X123838Y-71695D03*
X-62Y-143295D03*
X-123962Y-71695D03*
X-123962Y71305D03*
D14*
X-58144Y76467D03*
X-58144Y68467D03*
X-58144Y60467D03*
X-58144Y52467D03*
X-58144Y44467D03*
X-58144Y36467D03*
X-58144Y28467D03*
X-58144Y20467D03*
X-58144Y12467D03*
X-58144Y4467D03*
X-58144Y-3533D03*
D15*
X-47144Y-12533D03*
X-39144Y-12533D03*
X-31144Y-12533D03*
X-23144Y-12533D03*
X-15144Y-12533D03*
X-7144Y-12533D03*
X856Y-12533D03*
X8856Y-12533D03*
X16856Y-12533D03*
X24856Y-12533D03*
X32856Y-12533D03*
X40856Y-12533D03*
X48856Y-12533D03*
D14*
X59856Y-3533D03*
X59856Y4467D03*
X59856Y12467D03*
X59856Y20467D03*
X59856Y28467D03*
X59856Y36467D03*
X59856Y44467D03*
X59856Y52467D03*
X59856Y60467D03*
X59856Y68467D03*
X59856Y76467D03*
D15*
X48856Y85467D03*
X40856Y85467D03*
X32856Y85467D03*
X24856Y85467D03*
X16856Y85467D03*
X8856Y85467D03*
X856Y85467D03*
X-7144Y85467D03*
X-15144Y85467D03*
X-23144Y85467D03*
X-31144Y85467D03*
X-39144Y85467D03*
X-47144Y85467D03*
D16*
X856Y36467D03*
X20606Y56217D03*
X856Y56217D03*
X-18894Y56217D03*
X-18894Y36467D03*
X-18894Y16717D03*
X856Y16717D03*
X20606Y16717D03*
X20606Y36467D03*
D17*
X-58644Y85967D03*
X-58644Y-13033D03*
X60356Y-13033D03*
X60356Y85967D03*
D18*
X-20411Y-97626D03*
X-20411Y-106026D03*
D12*
X76923Y48049D02*
X87923Y48049D01*
X76923Y48049D02*
X76923Y53049D01*
X87923Y53049D01*
X87923Y48049D01*
X87923Y52799D02*
X76923Y52799D01*
X76910Y31066D02*
X87910Y31066D01*
X76910Y31066D02*
X76910Y36066D01*
X87910Y36066D01*
X87910Y31066D01*
X87910Y35816D02*
X76910Y35816D01*
D19*
X-72423Y20498D03*
X-72423Y7498D03*
X-84082Y12944D03*
X-84082Y-56D03*
D20*
X-36601Y-91203D03*
X-36601Y-110203D03*
D19*
X-52360Y-92850D03*
X-52360Y-105850D03*
D21*
X-35288Y-27777D03*
X-22288Y-27777D03*
D12*
X-63080Y-88686D02*
X-74080Y-88686D01*
X-63080Y-88686D02*
X-63080Y-93686D01*
X-74080Y-93686D01*
X-74080Y-88686D01*
X-74080Y-88936D02*
X-63080Y-88936D01*
X-63080Y-104180D02*
X-74080Y-104180D01*
X-63080Y-104180D02*
X-63080Y-109180D01*
X-74080Y-109180D01*
X-74080Y-104180D01*
X-74080Y-104430D02*
X-63080Y-104430D01*
X-27726Y-65317D02*
X-27726Y-54317D01*
X-27726Y-65317D02*
X-32726Y-65317D01*
X-32726Y-54317D01*
X-27726Y-54317D01*
X-27726Y-60567D02*
X-32726Y-60567D01*
X-32726Y-55817D02*
X-27726Y-55817D01*
X-9946Y-54317D02*
X-9946Y-65317D01*
X-14946Y-65317D01*
X-14946Y-54317D01*
X-9946Y-54317D01*
X-9946Y-60567D02*
X-14946Y-60567D01*
X-14946Y-55817D02*
X-9946Y-55817D01*
X7834Y-54317D02*
X7834Y-65317D01*
X2834Y-65317D01*
X2834Y-54317D01*
X7834Y-54317D01*
X7834Y-60567D02*
X2834Y-60567D01*
X2834Y-55817D02*
X7834Y-55817D01*
X25614Y-54317D02*
X25614Y-65317D01*
X20614Y-65317D01*
X20614Y-54317D01*
X25614Y-54317D01*
X25614Y-60567D02*
X20614Y-60567D01*
X20614Y-55817D02*
X25614Y-55817D01*
D22*
X-9903Y-27305D03*
X-6353Y-27305D03*
X1273Y-26924D03*
X4823Y-26924D03*
X11814Y-26924D03*
X15364Y-26924D03*
X22990Y-26924D03*
X26540Y-26924D03*
D23*
X-58144Y68467D02*
X-58144Y76467D01*
X-58644Y76967D01*
X-58644Y85967D01*
X-58144Y85467D01*
X-47144Y85467D01*
X-39144Y85467D01*
X-31144Y85467D01*
X-23144Y85467D01*
X-15144Y85467D01*
X-7144Y85467D01*
X856Y85467D01*
X8856Y85467D01*
X16856Y85467D01*
X24856Y85467D01*
X32856Y85467D01*
X40856Y85467D01*
X48856Y85467D01*
X59856Y85467D01*
X60356Y85967D01*
X-18894Y56217D02*
X-18894Y36467D01*
X-18894Y16717D01*
X856Y36467D02*
X856Y56217D01*
X856Y36467D02*
X856Y16717D01*
X20606Y36467D02*
X20606Y56217D01*
X20606Y36467D02*
X20606Y16717D01*
X856Y16717D01*
X-18894Y16717D01*
X-72423Y7498D02*
X-72519Y7402D01*
X-58644Y-4033D02*
X-58644Y-13033D01*
X-58644Y-4033D02*
X-58144Y-3533D01*
X-70350Y-3533D01*
X-72519Y-1364D02*
X-72519Y7402D01*
X-72519Y-1364D02*
X-70350Y-3533D01*
X-31144Y-12533D02*
X-30981Y-12697D01*
X-30981Y-25187D01*
X-33571Y-27777D01*
X-35288Y-27777D01*
X-31144Y-12533D02*
X-31144Y-10582D01*
X-58644Y-27668D02*
X-63008Y-32032D01*
X-58644Y-27668D02*
X-58644Y-13033D01*
X-22951Y-106026D02*
X-20411Y-106026D01*
X-22951Y-106026D02*
X-27129Y-110203D01*
X-36601Y-110203D01*
X-40955Y-105850D02*
X-52360Y-105850D01*
X-40955Y-105850D02*
X-36601Y-110203D01*
X-52360Y-105850D02*
X-67750Y-105850D01*
X-68580Y-106680D01*
X20606Y16717D02*
X32051Y16717D01*
X43307Y5461D01*
D24*
X43307Y5461D03*
X-22245Y-37583D03*
D23*
X-35288Y-32730D02*
X-35288Y-27777D01*
X-35288Y-32730D02*
X-30435Y-37583D01*
X-22245Y-37583D01*
D24*
X-3810Y-75195D03*
D23*
X-3810Y-48355D01*
D25*
X11780Y-32765D01*
D23*
X-21209Y-52050D02*
X-21209Y-67056D01*
X-13070Y-75195D01*
X-3810Y-75195D01*
X14859Y-68834D02*
X14859Y-45085D01*
X14859Y-68834D02*
X8498Y-75195D01*
X-3810Y-75195D01*
D25*
X14859Y-45085D02*
X23084Y-36860D01*
D24*
X68199Y-129921D03*
D23*
X58801Y-129921D01*
X38280Y-109400D02*
X38280Y-82249D01*
X38280Y-109400D02*
X58801Y-129921D01*
D24*
X76618Y-32234D03*
D23*
X71284Y-32234D01*
X60356Y-21305D01*
X-31144Y-12533D02*
X-31144Y-5998D01*
X-18894Y6252D02*
X-18894Y16717D01*
X-18894Y6252D02*
X-31144Y-5998D01*
X-54878Y68467D02*
X-58144Y68467D01*
X-54878Y68467D02*
X-47117Y60706D01*
X-47117Y-635D01*
X-50165Y-3683D01*
X-57994Y-3683D01*
X-58144Y-3533D01*
D24*
X-82423Y119634D03*
X-149225Y14986D03*
D23*
X60356Y85967D02*
X60440Y85967D01*
X82296Y107823D02*
X82296Y119761D01*
D24*
X82296Y119761D03*
D23*
X82296Y107823D02*
X60440Y85967D01*
X-82423Y109746D02*
X-82423Y119634D01*
X-82423Y109746D02*
X-58644Y85967D01*
D24*
X86233Y-16002D03*
D23*
X80796Y-32234D02*
X76618Y-32234D01*
X86233Y-26797D02*
X86233Y-16002D01*
X86233Y-26797D02*
X80796Y-32234D01*
X60356Y-21305D02*
X60356Y-13033D01*
X76618Y-32234D02*
X76618Y-43911D01*
X38280Y-82249D01*
X-26409Y-120396D02*
X-36601Y-110203D01*
X-26409Y-120396D02*
X-21209Y-120396D01*
D24*
X-21209Y-120396D03*
D25*
X-22245Y-37583D02*
X-19602Y-37583D01*
X-9903Y-27884D02*
X-9903Y-27305D01*
X-9903Y-27884D02*
X-19602Y-37583D01*
X1273Y-29568D02*
X1273Y-26924D01*
X1273Y-29568D02*
X-21209Y-52050D01*
X11780Y-26958D02*
X11814Y-26924D01*
X11780Y-26958D02*
X11780Y-32765D01*
X22990Y-26924D02*
X23084Y-27018D01*
X23084Y-36860D01*
D23*
X-20411Y-97626D02*
X-23332Y-97626D01*
X-29755Y-91203D01*
X-36601Y-91203D01*
X-38248Y-92850D02*
X-52360Y-92850D01*
X-38248Y-92850D02*
X-36601Y-91203D01*
X-52360Y-92850D02*
X-66916Y-92850D01*
X-68580Y-91186D01*
D24*
X-37973Y-123317D03*
X-88265Y-12573D03*
D23*
X-88265Y-4239D01*
X-84082Y-56D01*
D24*
X153145Y-15238D03*
D23*
X165138Y-3245D01*
X165138Y-195D01*
D24*
X-94742Y117094D03*
D23*
X-94742Y130825D01*
X-82662Y142905D01*
D24*
X-131280Y39931D03*
D23*
X-123962Y47249D01*
X-123962Y71305D01*
D24*
X-50432Y-48377D03*
D23*
X-50432Y-48556D01*
X-60837Y-48556D01*
X-61002Y-48721D01*
X-78002Y-48721D02*
X-78008Y-48715D01*
X-78008Y-32032D01*
D24*
X-39642Y17117D03*
D25*
X59856Y44467D02*
X66512Y44467D01*
X72593Y50549D02*
X82423Y50549D01*
X72593Y50549D02*
X68609Y46565D01*
X66512Y44467D01*
D24*
X68609Y46565D03*
D23*
X59856Y44467D02*
X54085Y44467D01*
X50673Y47879D02*
X50673Y68834D01*
X43434Y76073D01*
X-30353Y76073D01*
X-39642Y66784D01*
X-39642Y17117D01*
X50673Y47879D02*
X54085Y44467D01*
D24*
X-32901Y26805D03*
D25*
X68519Y36467D02*
X79510Y36467D01*
X82410Y33566D01*
D24*
X68519Y36467D03*
D23*
X59856Y36467D01*
X54084Y36467D01*
X45720Y44831D02*
X45720Y64770D01*
X40005Y70485D01*
X-26797Y70485D01*
X-32901Y64381D01*
X-32901Y26805D01*
X45720Y44831D02*
X54084Y36467D01*
D24*
X81862Y13211D03*
D23*
X82022Y7856D02*
X82022Y-2050D01*
X82022Y7856D02*
X81862Y8016D01*
X81862Y13211D01*
D24*
X70241Y-59715D03*
D23*
X84333Y-59715D01*
X104861Y-39187D01*
X104861Y-11692D01*
X104861Y-2266D02*
X104607Y-2012D01*
X104861Y-2266D02*
X104861Y-11692D01*
D24*
X104861Y-11692D03*
X103075Y-94329D03*
D23*
X123838Y-73566D01*
X123838Y-71695D01*
D24*
X24350Y-128183D03*
D23*
X9359Y-143174D01*
X59Y-143174D01*
X-62Y-143295D01*
X-87076Y31272D02*
X-87076Y31801D01*
X-87076Y31272D02*
X-100759Y31272D01*
D24*
X-100759Y31272D03*
D23*
X-74059Y57201D02*
X-73518Y56660D01*
X-74059Y57201D02*
X-87076Y57201D01*
D24*
X-73518Y56660D03*
X-5458Y-102431D03*
D23*
X-8252Y-99637D01*
X-8252Y-88209D01*
X-20622Y-75840D01*
X-119817Y-75840D01*
X-123962Y-71695D01*
D24*
X-10176Y-110259D03*
D23*
X-12208Y-108227D02*
X-12208Y-90574D01*
X-12208Y-108227D02*
X-10176Y-110259D01*
X-12208Y-90574D02*
X-21064Y-81718D01*
X-96533Y-81718D01*
X-97107Y-82292D01*
D24*
X-97107Y-82292D03*
X51507Y-101267D03*
D23*
X55278Y-101267D01*
X123838Y-32707D02*
X123838Y71305D01*
X123838Y-32707D02*
X55278Y-101267D01*
D24*
X44856Y-91681D03*
D23*
X58609Y-91681D01*
D24*
X117262Y43437D03*
D23*
X117262Y-33028D01*
X58609Y-91681D01*
X-97318Y-49748D02*
X-97318Y6060D01*
X-79708Y-67358D02*
X-56896Y-67358D01*
X-79708Y-67358D02*
X-97318Y-49748D01*
D24*
X-56896Y-67358D03*
D23*
X-84082Y12944D02*
X-90434Y12944D01*
X-97318Y6060D01*
X-72423Y20158D02*
X-72423Y20498D01*
X-72423Y20158D02*
X-79637Y12944D01*
X-84082Y12944D01*
X-72423Y20498D02*
X-58175Y20498D01*
X-58144Y20467D01*
X32856Y-12533D02*
X32856Y-65970D01*
D24*
X7567Y-103198D03*
D23*
X7567Y-91260D02*
X32856Y-65970D01*
X7567Y-91260D02*
X7567Y-103198D01*
X40856Y-64808D02*
X40856Y-12533D01*
D24*
X14651Y-110617D03*
D23*
X14651Y-91013D02*
X40856Y-64808D01*
X14651Y-91013D02*
X14651Y-110617D01*
D25*
X-30226Y-54991D02*
X-6335Y-31100D01*
D23*
X-30226Y-54991D02*
X-30226Y-59817D01*
D25*
X-6335Y-31100D02*
X-6335Y-27323D01*
X-6335Y-24783D01*
D26*
X-6353Y-27305D02*
X-6335Y-27323D01*
D25*
X856Y-17592D02*
X856Y-12533D01*
X856Y-17592D02*
X-6335Y-24783D01*
X8856Y-19341D02*
X8856Y-12533D01*
X4838Y-33008D02*
X-12446Y-50292D01*
D23*
X-12446Y-59817D01*
D25*
X4838Y-33008D02*
X4838Y-26939D01*
X4823Y-26924D01*
X4823Y-23374D01*
X8856Y-19341D01*
X16856Y-22435D02*
X16856Y-12533D01*
D23*
X5334Y-46355D02*
X5334Y-59817D01*
D25*
X15364Y-36325D02*
X15364Y-26924D01*
X15364Y-36325D02*
X5334Y-46355D01*
X15364Y-26924D02*
X15364Y-23927D01*
X16856Y-22435D01*
D23*
X24790Y-12599D02*
X24856Y-12533D01*
D25*
X24790Y-12599D02*
X24790Y-20483D01*
D23*
X23114Y-43815D02*
X23114Y-59817D01*
D25*
X26540Y-40389D02*
X26540Y-26924D01*
X26540Y-40389D02*
X23114Y-43815D01*
X26540Y-26924D02*
X26386Y-26770D01*
X26386Y-22078D01*
X24790Y-20483D01*
D23*
X-15144Y-14824D02*
X-22288Y-21969D01*
X-22288Y-27777D01*
X-15144Y-14824D02*
X-15144Y-12533D01*
M02*
