G04 EAGLE Gerber RS-274X export*
G75*
%MOMM*%
%FSLAX34Y34*%
%LPD*%
%INSilkscreen Top*%
%IPPOS*%
%AMOC8*
5,1,8,0,0,1.08239X$1,22.5*%
G01*
%ADD10C,0.101600*%
%ADD11C,0.152400*%
%ADD12R,0.014731X0.014731*%
%ADD13R,0.147319X0.014731*%
%ADD14R,0.265175X0.014731*%
%ADD15R,0.383031X0.014731*%
%ADD16R,0.515619X0.014731*%
%ADD17R,0.633475X0.014731*%
%ADD18R,0.751331X0.014731*%
%ADD19R,0.883919X0.014731*%
%ADD20R,1.001775X0.014731*%
%ADD21R,1.119631X0.014731*%
%ADD22R,1.134363X0.014731*%
%ADD23R,1.149094X0.014731*%
%ADD24R,1.163825X0.014731*%
%ADD25R,1.178556X0.014731*%
%ADD26R,1.193288X0.014731*%
%ADD27R,1.222756X0.014731*%
%ADD28R,1.237488X0.014731*%
%ADD29R,1.266950X0.014731*%
%ADD30R,1.281681X0.014731*%
%ADD31R,1.311144X0.014731*%
%ADD32R,1.325881X0.014731*%
%ADD33R,1.355344X0.014731*%
%ADD34R,1.370075X0.014731*%
%ADD35R,1.384806X0.014731*%
%ADD36R,1.399538X0.014731*%
%ADD37R,1.414275X0.014731*%
%ADD38R,1.443738X0.014731*%
%ADD39R,1.458469X0.014731*%
%ADD40R,1.487931X0.014731*%
%ADD41R,1.502663X0.014731*%
%ADD42R,1.517394X0.014731*%
%ADD43R,1.532125X0.014731*%
%ADD44R,1.546856X0.014731*%
%ADD45R,1.576319X0.014731*%
%ADD46R,1.605788X0.014731*%
%ADD47R,1.620519X0.014731*%
%ADD48R,1.649981X0.014731*%
%ADD49R,1.664713X0.014731*%
%ADD50R,1.694175X0.014731*%
%ADD51R,1.708913X0.014731*%
%ADD52R,1.738375X0.014731*%
%ADD53R,1.753106X0.014731*%
%ADD54R,1.767838X0.014731*%
%ADD55R,1.782569X0.014731*%
%ADD56R,1.797306X0.014731*%
%ADD57R,0.117856X0.014731*%
%ADD58R,1.826769X0.014731*%
%ADD59R,0.235713X0.014731*%
%ADD60R,0.353569X0.014731*%
%ADD61R,1.856231X0.014731*%
%ADD62R,0.486156X0.014731*%
%ADD63R,1.870963X0.014731*%
%ADD64R,0.604013X0.014731*%
%ADD65R,0.721869X0.014731*%
%ADD66R,1.885694X0.014731*%
%ADD67R,0.839719X0.014731*%
%ADD68R,0.972306X0.014731*%
%ADD69R,1.090169X0.014731*%
%ADD70R,1.208025X0.014731*%
%ADD71R,1.252219X0.014731*%
%ADD72R,1.296412X0.014731*%
%ADD73R,1.340612X0.014731*%
%ADD74R,1.826763X0.014731*%
%ADD75R,1.414269X0.014731*%
%ADD76R,1.812031X0.014731*%
%ADD77R,1.429000X0.014731*%
%ADD78R,1.458462X0.014731*%
%ADD79R,1.473200X0.014731*%
%ADD80R,1.723644X0.014731*%
%ADD81R,1.694181X0.014731*%
%ADD82R,1.679450X0.014731*%
%ADD83R,1.561594X0.014731*%
%ADD84R,1.576325X0.014731*%
%ADD85R,1.591056X0.014731*%
%ADD86R,1.635250X0.014731*%
%ADD87R,1.561588X0.014731*%
%ADD88R,1.443731X0.014731*%
%ADD89R,1.797300X0.014731*%
%ADD90R,1.841500X0.014731*%
%ADD91R,1.311150X0.014731*%
%ADD92R,1.296419X0.014731*%
%ADD93R,1.193294X0.014731*%
%ADD94R,0.957575X0.014731*%
%ADD95R,0.589281X0.014731*%
%ADD96R,0.471425X0.014731*%
%ADD97R,0.220975X0.014731*%
%ADD98R,1.812038X0.014731*%
%ADD99R,0.103119X0.014731*%
%ADD100R,0.029463X0.014731*%
%ADD101R,0.162050X0.014731*%
%ADD102R,0.397763X0.014731*%
%ADD103R,0.648206X0.014731*%
%ADD104R,1.679444X0.014731*%
%ADD105R,1.016506X0.014731*%
%ADD106R,1.104900X0.014731*%
%ADD107R,1.222750X0.014731*%
%ADD108R,1.429006X0.014731*%
%ADD109R,1.208019X0.014731*%
%ADD110R,0.987044X0.014731*%
%ADD111R,0.854456X0.014731*%
%ADD112R,0.618744X0.014731*%
%ADD113R,0.500888X0.014731*%
%ADD114R,0.368300X0.014731*%
%ADD115R,0.132587X0.014731*%
%ADD116R,1.664719X0.014731*%
%ADD117R,1.075438X0.014731*%
%ADD118R,0.942844X0.014731*%
%ADD119R,0.707131X0.014731*%
%ADD120R,0.456694X0.014731*%
%ADD121R,0.088388X0.014731*%
%ADD122C,0.127000*%
%ADD123C,0.076200*%
%ADD124C,0.200000*%
%ADD125C,0.200000*%
%ADD126C,0.150000*%


D10*
X151167Y136262D02*
X151167Y139508D01*
X151165Y139621D01*
X151159Y139734D01*
X151149Y139847D01*
X151135Y139960D01*
X151118Y140072D01*
X151096Y140183D01*
X151071Y140293D01*
X151041Y140403D01*
X151008Y140511D01*
X150971Y140618D01*
X150931Y140724D01*
X150886Y140828D01*
X150838Y140931D01*
X150787Y141032D01*
X150732Y141131D01*
X150674Y141228D01*
X150612Y141323D01*
X150547Y141416D01*
X150479Y141506D01*
X150408Y141594D01*
X150333Y141680D01*
X150256Y141763D01*
X150176Y141843D01*
X150093Y141920D01*
X150007Y141995D01*
X149919Y142066D01*
X149829Y142134D01*
X149736Y142199D01*
X149641Y142261D01*
X149544Y142319D01*
X149445Y142374D01*
X149344Y142425D01*
X149241Y142473D01*
X149137Y142518D01*
X149031Y142558D01*
X148924Y142595D01*
X148816Y142628D01*
X148706Y142658D01*
X148596Y142683D01*
X148485Y142705D01*
X148373Y142722D01*
X148260Y142736D01*
X148147Y142746D01*
X148034Y142752D01*
X147921Y142754D01*
X147808Y142752D01*
X147695Y142746D01*
X147582Y142736D01*
X147469Y142722D01*
X147357Y142705D01*
X147246Y142683D01*
X147136Y142658D01*
X147026Y142628D01*
X146918Y142595D01*
X146811Y142558D01*
X146705Y142518D01*
X146601Y142473D01*
X146498Y142425D01*
X146397Y142374D01*
X146298Y142319D01*
X146201Y142261D01*
X146106Y142199D01*
X146013Y142134D01*
X145923Y142066D01*
X145835Y141995D01*
X145749Y141920D01*
X145666Y141843D01*
X145586Y141763D01*
X145509Y141680D01*
X145434Y141594D01*
X145363Y141506D01*
X145295Y141416D01*
X145230Y141323D01*
X145168Y141228D01*
X145110Y141131D01*
X145055Y141032D01*
X145004Y140931D01*
X144956Y140828D01*
X144911Y140724D01*
X144871Y140618D01*
X144834Y140511D01*
X144801Y140403D01*
X144771Y140293D01*
X144746Y140183D01*
X144724Y140072D01*
X144707Y139960D01*
X144693Y139847D01*
X144683Y139734D01*
X144677Y139621D01*
X144675Y139508D01*
X139483Y140157D02*
X139483Y136262D01*
X139483Y140157D02*
X139485Y140258D01*
X139491Y140358D01*
X139501Y140458D01*
X139514Y140558D01*
X139532Y140657D01*
X139553Y140756D01*
X139578Y140853D01*
X139607Y140950D01*
X139640Y141045D01*
X139676Y141139D01*
X139716Y141231D01*
X139759Y141322D01*
X139806Y141411D01*
X139856Y141498D01*
X139910Y141584D01*
X139967Y141667D01*
X140027Y141747D01*
X140090Y141826D01*
X140157Y141902D01*
X140226Y141975D01*
X140298Y142045D01*
X140372Y142113D01*
X140449Y142178D01*
X140529Y142239D01*
X140611Y142298D01*
X140695Y142353D01*
X140781Y142405D01*
X140869Y142454D01*
X140959Y142499D01*
X141051Y142541D01*
X141144Y142579D01*
X141239Y142613D01*
X141334Y142644D01*
X141431Y142671D01*
X141529Y142694D01*
X141628Y142714D01*
X141728Y142729D01*
X141828Y142741D01*
X141928Y142749D01*
X142029Y142753D01*
X142129Y142753D01*
X142230Y142749D01*
X142330Y142741D01*
X142430Y142729D01*
X142530Y142714D01*
X142629Y142694D01*
X142727Y142671D01*
X142824Y142644D01*
X142919Y142613D01*
X143014Y142579D01*
X143107Y142541D01*
X143199Y142499D01*
X143289Y142454D01*
X143377Y142405D01*
X143463Y142353D01*
X143547Y142298D01*
X143629Y142239D01*
X143709Y142178D01*
X143786Y142113D01*
X143860Y142045D01*
X143932Y141975D01*
X144001Y141902D01*
X144068Y141826D01*
X144131Y141747D01*
X144191Y141667D01*
X144248Y141584D01*
X144302Y141498D01*
X144352Y141411D01*
X144399Y141322D01*
X144442Y141231D01*
X144482Y141139D01*
X144518Y141045D01*
X144551Y140950D01*
X144580Y140853D01*
X144605Y140756D01*
X144626Y140657D01*
X144644Y140558D01*
X144657Y140458D01*
X144667Y140358D01*
X144673Y140258D01*
X144675Y140157D01*
X144676Y140157D02*
X144676Y137560D01*
X139483Y147043D02*
X151167Y150938D01*
X139483Y154832D01*
X151167Y159122D02*
X151167Y162367D01*
X151165Y162480D01*
X151159Y162593D01*
X151149Y162706D01*
X151135Y162819D01*
X151118Y162931D01*
X151096Y163042D01*
X151071Y163152D01*
X151041Y163262D01*
X151008Y163370D01*
X150971Y163477D01*
X150931Y163583D01*
X150886Y163687D01*
X150838Y163790D01*
X150787Y163891D01*
X150732Y163990D01*
X150674Y164087D01*
X150612Y164182D01*
X150547Y164275D01*
X150479Y164365D01*
X150408Y164453D01*
X150333Y164539D01*
X150256Y164622D01*
X150176Y164702D01*
X150093Y164779D01*
X150007Y164854D01*
X149919Y164925D01*
X149829Y164993D01*
X149736Y165058D01*
X149641Y165120D01*
X149544Y165178D01*
X149445Y165233D01*
X149344Y165284D01*
X149241Y165332D01*
X149137Y165377D01*
X149031Y165417D01*
X148924Y165454D01*
X148816Y165487D01*
X148706Y165517D01*
X148596Y165542D01*
X148485Y165564D01*
X148373Y165581D01*
X148260Y165595D01*
X148147Y165605D01*
X148034Y165611D01*
X147921Y165613D01*
X147808Y165611D01*
X147695Y165605D01*
X147582Y165595D01*
X147469Y165581D01*
X147357Y165564D01*
X147246Y165542D01*
X147136Y165517D01*
X147026Y165487D01*
X146918Y165454D01*
X146811Y165417D01*
X146705Y165377D01*
X146601Y165332D01*
X146498Y165284D01*
X146397Y165233D01*
X146298Y165178D01*
X146201Y165120D01*
X146106Y165058D01*
X146013Y164993D01*
X145923Y164925D01*
X145835Y164854D01*
X145749Y164779D01*
X145666Y164702D01*
X145586Y164622D01*
X145509Y164539D01*
X145434Y164453D01*
X145363Y164365D01*
X145295Y164275D01*
X145230Y164182D01*
X145168Y164087D01*
X145110Y163990D01*
X145055Y163891D01*
X145004Y163790D01*
X144956Y163687D01*
X144911Y163583D01*
X144871Y163477D01*
X144834Y163370D01*
X144801Y163262D01*
X144771Y163152D01*
X144746Y163042D01*
X144724Y162931D01*
X144707Y162819D01*
X144693Y162706D01*
X144683Y162593D01*
X144677Y162480D01*
X144675Y162367D01*
X139483Y163017D02*
X139483Y159122D01*
X139483Y163017D02*
X139485Y163118D01*
X139491Y163218D01*
X139501Y163318D01*
X139514Y163418D01*
X139532Y163517D01*
X139553Y163616D01*
X139578Y163713D01*
X139607Y163810D01*
X139640Y163905D01*
X139676Y163999D01*
X139716Y164091D01*
X139759Y164182D01*
X139806Y164271D01*
X139856Y164358D01*
X139910Y164444D01*
X139967Y164527D01*
X140027Y164607D01*
X140090Y164686D01*
X140157Y164762D01*
X140226Y164835D01*
X140298Y164905D01*
X140372Y164973D01*
X140449Y165038D01*
X140529Y165099D01*
X140611Y165158D01*
X140695Y165213D01*
X140781Y165265D01*
X140869Y165314D01*
X140959Y165359D01*
X141051Y165401D01*
X141144Y165439D01*
X141239Y165473D01*
X141334Y165504D01*
X141431Y165531D01*
X141529Y165554D01*
X141628Y165574D01*
X141728Y165589D01*
X141828Y165601D01*
X141928Y165609D01*
X142029Y165613D01*
X142129Y165613D01*
X142230Y165609D01*
X142330Y165601D01*
X142430Y165589D01*
X142530Y165574D01*
X142629Y165554D01*
X142727Y165531D01*
X142824Y165504D01*
X142919Y165473D01*
X143014Y165439D01*
X143107Y165401D01*
X143199Y165359D01*
X143289Y165314D01*
X143377Y165265D01*
X143463Y165213D01*
X143547Y165158D01*
X143629Y165099D01*
X143709Y165038D01*
X143786Y164973D01*
X143860Y164905D01*
X143932Y164835D01*
X144001Y164762D01*
X144068Y164686D01*
X144131Y164607D01*
X144191Y164527D01*
X144248Y164444D01*
X144302Y164358D01*
X144352Y164271D01*
X144399Y164182D01*
X144442Y164091D01*
X144482Y163999D01*
X144518Y163905D01*
X144551Y163810D01*
X144580Y163713D01*
X144605Y163616D01*
X144626Y163517D01*
X144644Y163418D01*
X144657Y163318D01*
X144667Y163218D01*
X144673Y163118D01*
X144675Y163017D01*
X144676Y163017D02*
X144676Y160420D01*
X54613Y3108D02*
X51954Y1247D01*
X54613Y3108D02*
X54704Y3175D01*
X54794Y3244D01*
X54881Y3317D01*
X54965Y3393D01*
X55046Y3472D01*
X55125Y3553D01*
X55201Y3637D01*
X55274Y3724D01*
X55343Y3814D01*
X55410Y3905D01*
X55473Y3999D01*
X55533Y4095D01*
X55590Y4193D01*
X55643Y4293D01*
X55693Y4395D01*
X55739Y4499D01*
X55781Y4604D01*
X55820Y4710D01*
X55855Y4818D01*
X55886Y4927D01*
X55914Y5037D01*
X55937Y5148D01*
X55957Y5259D01*
X55973Y5371D01*
X55985Y5484D01*
X55993Y5597D01*
X55997Y5710D01*
X55997Y5824D01*
X55993Y5937D01*
X55985Y6050D01*
X55973Y6163D01*
X55957Y6275D01*
X55937Y6386D01*
X55914Y6497D01*
X55886Y6607D01*
X55855Y6716D01*
X55820Y6824D01*
X55781Y6930D01*
X55739Y7035D01*
X55693Y7139D01*
X55643Y7241D01*
X55590Y7341D01*
X55533Y7439D01*
X55473Y7535D01*
X55410Y7629D01*
X55343Y7720D01*
X55274Y7810D01*
X55201Y7897D01*
X55125Y7981D01*
X55046Y8062D01*
X54965Y8141D01*
X54881Y8217D01*
X54794Y8290D01*
X54705Y8359D01*
X54613Y8426D01*
X54519Y8489D01*
X54423Y8549D01*
X54325Y8606D01*
X54225Y8659D01*
X54123Y8709D01*
X54019Y8755D01*
X53914Y8797D01*
X53808Y8836D01*
X53700Y8871D01*
X53591Y8902D01*
X53481Y8930D01*
X53370Y8953D01*
X53259Y8973D01*
X53147Y8989D01*
X53034Y9001D01*
X52921Y9009D01*
X52808Y9013D01*
X52694Y9013D01*
X52581Y9009D01*
X52468Y9001D01*
X52355Y8989D01*
X52243Y8973D01*
X52132Y8953D01*
X52021Y8930D01*
X51911Y8902D01*
X51802Y8871D01*
X51694Y8836D01*
X51588Y8797D01*
X51483Y8755D01*
X51379Y8709D01*
X51277Y8659D01*
X51177Y8606D01*
X51079Y8549D01*
X50983Y8489D01*
X50889Y8426D01*
X48443Y13052D02*
X45253Y10818D01*
X48443Y13052D02*
X48527Y13108D01*
X48612Y13161D01*
X48700Y13210D01*
X48789Y13256D01*
X48881Y13299D01*
X48974Y13338D01*
X49068Y13373D01*
X49163Y13405D01*
X49260Y13433D01*
X49358Y13457D01*
X49456Y13477D01*
X49556Y13494D01*
X49656Y13506D01*
X49756Y13515D01*
X49857Y13520D01*
X49957Y13521D01*
X50058Y13518D01*
X50158Y13511D01*
X50258Y13500D01*
X50358Y13486D01*
X50457Y13467D01*
X50555Y13445D01*
X50652Y13419D01*
X50749Y13389D01*
X50844Y13356D01*
X50937Y13319D01*
X51029Y13278D01*
X51120Y13233D01*
X51208Y13186D01*
X51295Y13134D01*
X51379Y13080D01*
X51462Y13022D01*
X51542Y12961D01*
X51620Y12897D01*
X51695Y12830D01*
X51768Y12761D01*
X51837Y12688D01*
X51904Y12613D01*
X51968Y12535D01*
X52029Y12455D01*
X52087Y12372D01*
X52141Y12288D01*
X52193Y12201D01*
X52240Y12113D01*
X52285Y12022D01*
X52326Y11930D01*
X52363Y11836D01*
X52396Y11742D01*
X52426Y11645D01*
X52452Y11548D01*
X52474Y11450D01*
X52493Y11351D01*
X52507Y11251D01*
X52518Y11151D01*
X52525Y11051D01*
X52528Y10950D01*
X52527Y10850D01*
X52522Y10749D01*
X52513Y10649D01*
X52501Y10549D01*
X52484Y10449D01*
X52464Y10351D01*
X52440Y10253D01*
X52412Y10156D01*
X52380Y10061D01*
X52345Y9967D01*
X52306Y9874D01*
X52263Y9782D01*
X52217Y9693D01*
X52168Y9605D01*
X52115Y9520D01*
X52059Y9436D01*
X51999Y9355D01*
X51937Y9276D01*
X51871Y9199D01*
X51803Y9125D01*
X51732Y9054D01*
X51658Y8986D01*
X51581Y8920D01*
X51502Y8858D01*
X51421Y8798D01*
X49295Y7309D01*
X54084Y17002D02*
X63976Y9664D01*
X60464Y21469D01*
X70680Y14359D02*
X73339Y16220D01*
X73430Y16287D01*
X73520Y16356D01*
X73607Y16429D01*
X73691Y16505D01*
X73772Y16584D01*
X73851Y16665D01*
X73927Y16749D01*
X74000Y16836D01*
X74069Y16926D01*
X74136Y17017D01*
X74199Y17111D01*
X74259Y17207D01*
X74316Y17305D01*
X74369Y17405D01*
X74419Y17507D01*
X74465Y17611D01*
X74507Y17716D01*
X74546Y17822D01*
X74581Y17930D01*
X74612Y18039D01*
X74640Y18149D01*
X74663Y18260D01*
X74683Y18371D01*
X74699Y18483D01*
X74711Y18596D01*
X74719Y18709D01*
X74723Y18822D01*
X74723Y18936D01*
X74719Y19049D01*
X74711Y19162D01*
X74699Y19275D01*
X74683Y19387D01*
X74663Y19498D01*
X74640Y19609D01*
X74612Y19719D01*
X74581Y19828D01*
X74546Y19936D01*
X74507Y20042D01*
X74465Y20147D01*
X74419Y20251D01*
X74369Y20353D01*
X74316Y20453D01*
X74259Y20551D01*
X74199Y20647D01*
X74136Y20741D01*
X74069Y20832D01*
X74000Y20922D01*
X73927Y21009D01*
X73851Y21093D01*
X73772Y21174D01*
X73691Y21253D01*
X73607Y21329D01*
X73520Y21402D01*
X73431Y21471D01*
X73339Y21538D01*
X73245Y21601D01*
X73149Y21661D01*
X73051Y21718D01*
X72951Y21771D01*
X72849Y21821D01*
X72745Y21867D01*
X72640Y21909D01*
X72534Y21948D01*
X72426Y21983D01*
X72317Y22014D01*
X72207Y22042D01*
X72096Y22065D01*
X71985Y22085D01*
X71873Y22101D01*
X71760Y22113D01*
X71647Y22121D01*
X71534Y22125D01*
X71420Y22125D01*
X71307Y22121D01*
X71194Y22113D01*
X71081Y22101D01*
X70969Y22085D01*
X70858Y22065D01*
X70747Y22042D01*
X70637Y22014D01*
X70528Y21983D01*
X70420Y21948D01*
X70314Y21909D01*
X70209Y21867D01*
X70105Y21821D01*
X70003Y21771D01*
X69903Y21718D01*
X69805Y21661D01*
X69709Y21601D01*
X69615Y21538D01*
X67169Y26164D02*
X63978Y23930D01*
X67169Y26164D02*
X67253Y26220D01*
X67338Y26273D01*
X67426Y26322D01*
X67515Y26368D01*
X67607Y26411D01*
X67700Y26450D01*
X67794Y26485D01*
X67889Y26517D01*
X67986Y26545D01*
X68084Y26569D01*
X68182Y26589D01*
X68282Y26606D01*
X68382Y26618D01*
X68482Y26627D01*
X68583Y26632D01*
X68683Y26633D01*
X68784Y26630D01*
X68884Y26623D01*
X68984Y26612D01*
X69084Y26598D01*
X69183Y26579D01*
X69281Y26557D01*
X69378Y26531D01*
X69475Y26501D01*
X69570Y26468D01*
X69663Y26431D01*
X69755Y26390D01*
X69846Y26345D01*
X69934Y26298D01*
X70021Y26246D01*
X70105Y26192D01*
X70188Y26134D01*
X70268Y26073D01*
X70346Y26009D01*
X70421Y25942D01*
X70494Y25873D01*
X70563Y25800D01*
X70630Y25725D01*
X70694Y25647D01*
X70755Y25567D01*
X70813Y25484D01*
X70867Y25400D01*
X70919Y25313D01*
X70966Y25225D01*
X71011Y25134D01*
X71052Y25042D01*
X71089Y24948D01*
X71122Y24854D01*
X71152Y24757D01*
X71178Y24660D01*
X71200Y24562D01*
X71219Y24463D01*
X71233Y24363D01*
X71244Y24263D01*
X71251Y24163D01*
X71254Y24062D01*
X71253Y23962D01*
X71248Y23861D01*
X71239Y23761D01*
X71227Y23661D01*
X71210Y23561D01*
X71190Y23463D01*
X71166Y23365D01*
X71138Y23268D01*
X71106Y23173D01*
X71071Y23079D01*
X71032Y22986D01*
X70989Y22894D01*
X70943Y22805D01*
X70894Y22717D01*
X70841Y22632D01*
X70785Y22548D01*
X70725Y22467D01*
X70663Y22388D01*
X70597Y22311D01*
X70529Y22237D01*
X70458Y22166D01*
X70384Y22098D01*
X70307Y22032D01*
X70228Y21970D01*
X70147Y21910D01*
X68020Y20421D01*
X-89951Y28595D02*
X-92610Y30457D01*
X-89952Y28595D02*
X-89858Y28532D01*
X-89762Y28472D01*
X-89664Y28415D01*
X-89564Y28362D01*
X-89462Y28312D01*
X-89358Y28266D01*
X-89253Y28224D01*
X-89147Y28185D01*
X-89039Y28150D01*
X-88930Y28119D01*
X-88820Y28091D01*
X-88709Y28068D01*
X-88598Y28048D01*
X-88486Y28032D01*
X-88373Y28020D01*
X-88260Y28012D01*
X-88147Y28008D01*
X-88033Y28008D01*
X-87920Y28012D01*
X-87807Y28020D01*
X-87694Y28032D01*
X-87582Y28048D01*
X-87471Y28068D01*
X-87360Y28091D01*
X-87250Y28119D01*
X-87141Y28150D01*
X-87033Y28185D01*
X-86927Y28224D01*
X-86822Y28266D01*
X-86718Y28312D01*
X-86616Y28362D01*
X-86516Y28415D01*
X-86418Y28472D01*
X-86322Y28532D01*
X-86228Y28595D01*
X-86137Y28662D01*
X-86047Y28731D01*
X-85960Y28804D01*
X-85876Y28880D01*
X-85795Y28959D01*
X-85716Y29040D01*
X-85640Y29124D01*
X-85567Y29211D01*
X-85498Y29301D01*
X-85431Y29392D01*
X-85368Y29486D01*
X-85308Y29582D01*
X-85251Y29680D01*
X-85198Y29780D01*
X-85148Y29882D01*
X-85102Y29986D01*
X-85060Y30091D01*
X-85021Y30197D01*
X-84986Y30305D01*
X-84955Y30414D01*
X-84927Y30524D01*
X-84904Y30635D01*
X-84884Y30746D01*
X-84868Y30858D01*
X-84856Y30971D01*
X-84848Y31084D01*
X-84844Y31197D01*
X-84844Y31311D01*
X-84848Y31424D01*
X-84856Y31537D01*
X-84868Y31650D01*
X-84884Y31762D01*
X-84904Y31873D01*
X-84927Y31984D01*
X-84955Y32094D01*
X-84986Y32203D01*
X-85021Y32311D01*
X-85060Y32417D01*
X-85102Y32522D01*
X-85148Y32626D01*
X-85198Y32728D01*
X-85251Y32828D01*
X-85308Y32926D01*
X-85368Y33022D01*
X-85431Y33116D01*
X-85498Y33207D01*
X-85567Y33297D01*
X-85640Y33384D01*
X-85716Y33468D01*
X-85795Y33549D01*
X-85876Y33628D01*
X-85960Y33704D01*
X-86047Y33777D01*
X-86136Y33846D01*
X-86228Y33913D01*
X-82718Y37794D02*
X-85908Y40028D01*
X-82718Y37794D02*
X-82637Y37734D01*
X-82558Y37672D01*
X-82481Y37606D01*
X-82407Y37538D01*
X-82336Y37467D01*
X-82268Y37393D01*
X-82202Y37316D01*
X-82140Y37237D01*
X-82080Y37156D01*
X-82024Y37072D01*
X-81971Y36987D01*
X-81922Y36899D01*
X-81876Y36810D01*
X-81833Y36718D01*
X-81794Y36625D01*
X-81759Y36531D01*
X-81727Y36436D01*
X-81699Y36339D01*
X-81675Y36241D01*
X-81655Y36143D01*
X-81638Y36043D01*
X-81626Y35943D01*
X-81617Y35843D01*
X-81612Y35742D01*
X-81611Y35642D01*
X-81614Y35541D01*
X-81621Y35441D01*
X-81632Y35341D01*
X-81646Y35241D01*
X-81665Y35142D01*
X-81687Y35044D01*
X-81713Y34947D01*
X-81743Y34850D01*
X-81776Y34756D01*
X-81813Y34662D01*
X-81854Y34570D01*
X-81899Y34479D01*
X-81946Y34391D01*
X-81998Y34304D01*
X-82052Y34220D01*
X-82110Y34137D01*
X-82171Y34057D01*
X-82235Y33979D01*
X-82302Y33904D01*
X-82371Y33831D01*
X-82444Y33762D01*
X-82519Y33695D01*
X-82597Y33631D01*
X-82677Y33570D01*
X-82760Y33512D01*
X-82844Y33458D01*
X-82931Y33406D01*
X-83019Y33359D01*
X-83110Y33314D01*
X-83202Y33273D01*
X-83295Y33236D01*
X-83390Y33203D01*
X-83487Y33173D01*
X-83584Y33147D01*
X-83682Y33125D01*
X-83781Y33106D01*
X-83881Y33092D01*
X-83981Y33081D01*
X-84081Y33074D01*
X-84182Y33071D01*
X-84282Y33072D01*
X-84383Y33077D01*
X-84483Y33086D01*
X-84583Y33098D01*
X-84683Y33115D01*
X-84781Y33135D01*
X-84879Y33159D01*
X-84976Y33187D01*
X-85071Y33219D01*
X-85165Y33254D01*
X-85258Y33293D01*
X-85350Y33336D01*
X-85439Y33382D01*
X-85527Y33431D01*
X-85612Y33484D01*
X-85696Y33540D01*
X-87823Y35030D01*
X-77077Y33844D02*
X-80588Y22039D01*
X-70696Y29377D01*
X-73884Y17345D02*
X-71225Y15483D01*
X-71226Y15483D02*
X-71132Y15420D01*
X-71036Y15360D01*
X-70938Y15303D01*
X-70838Y15250D01*
X-70736Y15200D01*
X-70632Y15154D01*
X-70527Y15112D01*
X-70421Y15073D01*
X-70313Y15038D01*
X-70204Y15007D01*
X-70094Y14979D01*
X-69983Y14956D01*
X-69872Y14936D01*
X-69760Y14920D01*
X-69647Y14908D01*
X-69534Y14900D01*
X-69421Y14896D01*
X-69307Y14896D01*
X-69194Y14900D01*
X-69081Y14908D01*
X-68968Y14920D01*
X-68856Y14936D01*
X-68745Y14956D01*
X-68634Y14979D01*
X-68524Y15007D01*
X-68415Y15038D01*
X-68307Y15073D01*
X-68201Y15112D01*
X-68096Y15154D01*
X-67992Y15200D01*
X-67890Y15250D01*
X-67790Y15303D01*
X-67692Y15360D01*
X-67596Y15420D01*
X-67502Y15483D01*
X-67411Y15550D01*
X-67321Y15619D01*
X-67234Y15692D01*
X-67150Y15768D01*
X-67069Y15847D01*
X-66990Y15928D01*
X-66914Y16012D01*
X-66841Y16099D01*
X-66772Y16189D01*
X-66705Y16280D01*
X-66642Y16374D01*
X-66582Y16470D01*
X-66525Y16568D01*
X-66472Y16668D01*
X-66422Y16770D01*
X-66376Y16874D01*
X-66334Y16979D01*
X-66295Y17085D01*
X-66260Y17193D01*
X-66229Y17302D01*
X-66201Y17412D01*
X-66178Y17523D01*
X-66158Y17634D01*
X-66142Y17746D01*
X-66130Y17859D01*
X-66122Y17972D01*
X-66118Y18085D01*
X-66118Y18199D01*
X-66122Y18312D01*
X-66130Y18425D01*
X-66142Y18538D01*
X-66158Y18650D01*
X-66178Y18761D01*
X-66201Y18872D01*
X-66229Y18982D01*
X-66260Y19091D01*
X-66295Y19199D01*
X-66334Y19305D01*
X-66376Y19410D01*
X-66422Y19514D01*
X-66472Y19616D01*
X-66525Y19716D01*
X-66582Y19814D01*
X-66642Y19910D01*
X-66705Y20004D01*
X-66772Y20095D01*
X-66841Y20185D01*
X-66914Y20272D01*
X-66990Y20356D01*
X-67069Y20437D01*
X-67150Y20516D01*
X-67234Y20592D01*
X-67321Y20665D01*
X-67410Y20734D01*
X-67502Y20801D01*
X-63992Y24682D02*
X-67182Y26916D01*
X-63992Y24682D02*
X-63911Y24622D01*
X-63832Y24560D01*
X-63755Y24494D01*
X-63681Y24426D01*
X-63610Y24355D01*
X-63542Y24281D01*
X-63476Y24204D01*
X-63414Y24125D01*
X-63354Y24044D01*
X-63298Y23960D01*
X-63245Y23875D01*
X-63196Y23787D01*
X-63150Y23698D01*
X-63107Y23606D01*
X-63068Y23513D01*
X-63033Y23419D01*
X-63001Y23324D01*
X-62973Y23227D01*
X-62949Y23129D01*
X-62929Y23031D01*
X-62912Y22931D01*
X-62900Y22831D01*
X-62891Y22731D01*
X-62886Y22630D01*
X-62885Y22530D01*
X-62888Y22429D01*
X-62895Y22329D01*
X-62906Y22229D01*
X-62920Y22129D01*
X-62939Y22030D01*
X-62961Y21932D01*
X-62987Y21835D01*
X-63017Y21738D01*
X-63050Y21644D01*
X-63087Y21550D01*
X-63128Y21458D01*
X-63173Y21367D01*
X-63220Y21279D01*
X-63272Y21192D01*
X-63326Y21108D01*
X-63384Y21025D01*
X-63445Y20945D01*
X-63509Y20867D01*
X-63576Y20792D01*
X-63645Y20719D01*
X-63718Y20650D01*
X-63793Y20583D01*
X-63871Y20519D01*
X-63951Y20458D01*
X-64034Y20400D01*
X-64118Y20346D01*
X-64205Y20294D01*
X-64293Y20247D01*
X-64384Y20202D01*
X-64476Y20161D01*
X-64569Y20124D01*
X-64664Y20091D01*
X-64761Y20061D01*
X-64858Y20035D01*
X-64956Y20013D01*
X-65055Y19994D01*
X-65155Y19980D01*
X-65255Y19969D01*
X-65355Y19962D01*
X-65456Y19959D01*
X-65556Y19960D01*
X-65657Y19965D01*
X-65757Y19974D01*
X-65857Y19986D01*
X-65957Y20003D01*
X-66055Y20023D01*
X-66153Y20047D01*
X-66250Y20075D01*
X-66345Y20107D01*
X-66439Y20142D01*
X-66532Y20181D01*
X-66624Y20224D01*
X-66713Y20270D01*
X-66801Y20319D01*
X-66886Y20372D01*
X-66970Y20428D01*
X-69097Y21918D01*
X-142408Y141024D02*
X-142408Y144270D01*
X-142410Y144383D01*
X-142416Y144496D01*
X-142426Y144609D01*
X-142440Y144722D01*
X-142457Y144834D01*
X-142479Y144945D01*
X-142504Y145055D01*
X-142534Y145165D01*
X-142567Y145273D01*
X-142604Y145380D01*
X-142644Y145486D01*
X-142689Y145590D01*
X-142737Y145693D01*
X-142788Y145794D01*
X-142843Y145893D01*
X-142901Y145990D01*
X-142963Y146085D01*
X-143028Y146178D01*
X-143096Y146268D01*
X-143167Y146356D01*
X-143242Y146442D01*
X-143319Y146525D01*
X-143399Y146605D01*
X-143482Y146682D01*
X-143568Y146757D01*
X-143656Y146828D01*
X-143746Y146896D01*
X-143839Y146961D01*
X-143934Y147023D01*
X-144031Y147081D01*
X-144130Y147136D01*
X-144231Y147187D01*
X-144334Y147235D01*
X-144438Y147280D01*
X-144544Y147320D01*
X-144651Y147357D01*
X-144759Y147390D01*
X-144869Y147420D01*
X-144979Y147445D01*
X-145090Y147467D01*
X-145202Y147484D01*
X-145315Y147498D01*
X-145428Y147508D01*
X-145541Y147514D01*
X-145654Y147516D01*
X-145767Y147514D01*
X-145880Y147508D01*
X-145993Y147498D01*
X-146106Y147484D01*
X-146218Y147467D01*
X-146329Y147445D01*
X-146439Y147420D01*
X-146549Y147390D01*
X-146657Y147357D01*
X-146764Y147320D01*
X-146870Y147280D01*
X-146974Y147235D01*
X-147077Y147187D01*
X-147178Y147136D01*
X-147277Y147081D01*
X-147374Y147023D01*
X-147469Y146961D01*
X-147562Y146896D01*
X-147652Y146828D01*
X-147740Y146757D01*
X-147826Y146682D01*
X-147909Y146605D01*
X-147989Y146525D01*
X-148066Y146442D01*
X-148141Y146356D01*
X-148212Y146268D01*
X-148280Y146178D01*
X-148345Y146085D01*
X-148407Y145990D01*
X-148465Y145893D01*
X-148520Y145794D01*
X-148571Y145693D01*
X-148619Y145590D01*
X-148664Y145486D01*
X-148704Y145380D01*
X-148741Y145273D01*
X-148774Y145165D01*
X-148804Y145055D01*
X-148829Y144945D01*
X-148851Y144834D01*
X-148868Y144722D01*
X-148882Y144609D01*
X-148892Y144496D01*
X-148898Y144383D01*
X-148900Y144270D01*
X-154092Y144919D02*
X-154092Y141024D01*
X-154092Y144919D02*
X-154090Y145020D01*
X-154084Y145120D01*
X-154074Y145220D01*
X-154061Y145320D01*
X-154043Y145419D01*
X-154022Y145518D01*
X-153997Y145615D01*
X-153968Y145712D01*
X-153935Y145807D01*
X-153899Y145901D01*
X-153859Y145993D01*
X-153816Y146084D01*
X-153769Y146173D01*
X-153719Y146260D01*
X-153665Y146346D01*
X-153608Y146429D01*
X-153548Y146509D01*
X-153485Y146588D01*
X-153418Y146664D01*
X-153349Y146737D01*
X-153277Y146807D01*
X-153203Y146875D01*
X-153126Y146940D01*
X-153046Y147001D01*
X-152964Y147060D01*
X-152880Y147115D01*
X-152794Y147167D01*
X-152706Y147216D01*
X-152616Y147261D01*
X-152524Y147303D01*
X-152431Y147341D01*
X-152336Y147375D01*
X-152241Y147406D01*
X-152144Y147433D01*
X-152046Y147456D01*
X-151947Y147476D01*
X-151847Y147491D01*
X-151747Y147503D01*
X-151647Y147511D01*
X-151546Y147515D01*
X-151446Y147515D01*
X-151345Y147511D01*
X-151245Y147503D01*
X-151145Y147491D01*
X-151045Y147476D01*
X-150946Y147456D01*
X-150848Y147433D01*
X-150751Y147406D01*
X-150656Y147375D01*
X-150561Y147341D01*
X-150468Y147303D01*
X-150376Y147261D01*
X-150286Y147216D01*
X-150198Y147167D01*
X-150112Y147115D01*
X-150028Y147060D01*
X-149946Y147001D01*
X-149866Y146940D01*
X-149789Y146875D01*
X-149715Y146807D01*
X-149643Y146737D01*
X-149574Y146664D01*
X-149507Y146588D01*
X-149444Y146509D01*
X-149384Y146429D01*
X-149327Y146346D01*
X-149273Y146260D01*
X-149223Y146173D01*
X-149176Y146084D01*
X-149133Y145993D01*
X-149093Y145901D01*
X-149057Y145807D01*
X-149024Y145712D01*
X-148995Y145615D01*
X-148970Y145518D01*
X-148949Y145419D01*
X-148931Y145320D01*
X-148918Y145220D01*
X-148908Y145120D01*
X-148902Y145020D01*
X-148900Y144919D01*
X-148899Y144919D02*
X-148899Y142323D01*
X-154092Y151805D02*
X-142408Y155700D01*
X-154092Y159595D01*
X-142408Y163884D02*
X-142408Y167130D01*
X-142410Y167243D01*
X-142416Y167356D01*
X-142426Y167469D01*
X-142440Y167582D01*
X-142457Y167694D01*
X-142479Y167805D01*
X-142504Y167915D01*
X-142534Y168025D01*
X-142567Y168133D01*
X-142604Y168240D01*
X-142644Y168346D01*
X-142689Y168450D01*
X-142737Y168553D01*
X-142788Y168654D01*
X-142843Y168753D01*
X-142901Y168850D01*
X-142963Y168945D01*
X-143028Y169038D01*
X-143096Y169128D01*
X-143167Y169216D01*
X-143242Y169302D01*
X-143319Y169385D01*
X-143399Y169465D01*
X-143482Y169542D01*
X-143568Y169617D01*
X-143656Y169688D01*
X-143746Y169756D01*
X-143839Y169821D01*
X-143934Y169883D01*
X-144031Y169941D01*
X-144130Y169996D01*
X-144231Y170047D01*
X-144334Y170095D01*
X-144438Y170140D01*
X-144544Y170180D01*
X-144651Y170217D01*
X-144759Y170250D01*
X-144869Y170280D01*
X-144979Y170305D01*
X-145090Y170327D01*
X-145202Y170344D01*
X-145315Y170358D01*
X-145428Y170368D01*
X-145541Y170374D01*
X-145654Y170376D01*
X-145767Y170374D01*
X-145880Y170368D01*
X-145993Y170358D01*
X-146106Y170344D01*
X-146218Y170327D01*
X-146329Y170305D01*
X-146439Y170280D01*
X-146549Y170250D01*
X-146657Y170217D01*
X-146764Y170180D01*
X-146870Y170140D01*
X-146974Y170095D01*
X-147077Y170047D01*
X-147178Y169996D01*
X-147277Y169941D01*
X-147374Y169883D01*
X-147469Y169821D01*
X-147562Y169756D01*
X-147652Y169688D01*
X-147740Y169617D01*
X-147826Y169542D01*
X-147909Y169465D01*
X-147989Y169385D01*
X-148066Y169302D01*
X-148141Y169216D01*
X-148212Y169128D01*
X-148280Y169038D01*
X-148345Y168945D01*
X-148407Y168850D01*
X-148465Y168753D01*
X-148520Y168654D01*
X-148571Y168553D01*
X-148619Y168450D01*
X-148664Y168346D01*
X-148704Y168240D01*
X-148741Y168133D01*
X-148774Y168025D01*
X-148804Y167915D01*
X-148829Y167805D01*
X-148851Y167694D01*
X-148868Y167582D01*
X-148882Y167469D01*
X-148892Y167356D01*
X-148898Y167243D01*
X-148900Y167130D01*
X-154092Y167779D02*
X-154092Y163884D01*
X-154092Y167779D02*
X-154090Y167880D01*
X-154084Y167980D01*
X-154074Y168080D01*
X-154061Y168180D01*
X-154043Y168279D01*
X-154022Y168378D01*
X-153997Y168475D01*
X-153968Y168572D01*
X-153935Y168667D01*
X-153899Y168761D01*
X-153859Y168853D01*
X-153816Y168944D01*
X-153769Y169033D01*
X-153719Y169120D01*
X-153665Y169206D01*
X-153608Y169289D01*
X-153548Y169369D01*
X-153485Y169448D01*
X-153418Y169524D01*
X-153349Y169597D01*
X-153277Y169667D01*
X-153203Y169735D01*
X-153126Y169800D01*
X-153046Y169861D01*
X-152964Y169920D01*
X-152880Y169975D01*
X-152794Y170027D01*
X-152706Y170076D01*
X-152616Y170121D01*
X-152524Y170163D01*
X-152431Y170201D01*
X-152336Y170235D01*
X-152241Y170266D01*
X-152144Y170293D01*
X-152046Y170316D01*
X-151947Y170336D01*
X-151847Y170351D01*
X-151747Y170363D01*
X-151647Y170371D01*
X-151546Y170375D01*
X-151446Y170375D01*
X-151345Y170371D01*
X-151245Y170363D01*
X-151145Y170351D01*
X-151045Y170336D01*
X-150946Y170316D01*
X-150848Y170293D01*
X-150751Y170266D01*
X-150656Y170235D01*
X-150561Y170201D01*
X-150468Y170163D01*
X-150376Y170121D01*
X-150286Y170076D01*
X-150198Y170027D01*
X-150112Y169975D01*
X-150028Y169920D01*
X-149946Y169861D01*
X-149866Y169800D01*
X-149789Y169735D01*
X-149715Y169667D01*
X-149643Y169597D01*
X-149574Y169524D01*
X-149507Y169448D01*
X-149444Y169369D01*
X-149384Y169289D01*
X-149327Y169206D01*
X-149273Y169120D01*
X-149223Y169033D01*
X-149176Y168944D01*
X-149133Y168853D01*
X-149093Y168761D01*
X-149057Y168667D01*
X-149024Y168572D01*
X-148995Y168475D01*
X-148970Y168378D01*
X-148949Y168279D01*
X-148931Y168180D01*
X-148918Y168080D01*
X-148908Y167980D01*
X-148902Y167880D01*
X-148900Y167779D01*
X-148899Y167779D02*
X-148899Y165183D01*
D11*
X88764Y202340D02*
X88764Y220120D01*
X93703Y220120D01*
X93843Y220118D01*
X93982Y220112D01*
X94122Y220102D01*
X94261Y220088D01*
X94400Y220071D01*
X94538Y220049D01*
X94675Y220023D01*
X94812Y219994D01*
X94948Y219961D01*
X95082Y219924D01*
X95216Y219883D01*
X95348Y219838D01*
X95480Y219789D01*
X95609Y219737D01*
X95737Y219682D01*
X95864Y219622D01*
X95989Y219559D01*
X96112Y219493D01*
X96233Y219423D01*
X96352Y219350D01*
X96469Y219273D01*
X96583Y219193D01*
X96696Y219110D01*
X96806Y219024D01*
X96913Y218934D01*
X97018Y218842D01*
X97120Y218747D01*
X97220Y218649D01*
X97317Y218548D01*
X97411Y218444D01*
X97501Y218338D01*
X97589Y218229D01*
X97674Y218118D01*
X97755Y218004D01*
X97834Y217889D01*
X97909Y217771D01*
X97980Y217651D01*
X98048Y217528D01*
X98113Y217405D01*
X98174Y217279D01*
X98232Y217151D01*
X98286Y217023D01*
X98336Y216892D01*
X98383Y216760D01*
X98426Y216627D01*
X98465Y216493D01*
X98500Y216358D01*
X98531Y216222D01*
X98559Y216084D01*
X98582Y215947D01*
X98602Y215808D01*
X98618Y215669D01*
X98630Y215530D01*
X98638Y215391D01*
X98642Y215251D01*
X98642Y215111D01*
X98638Y214971D01*
X98630Y214832D01*
X98618Y214693D01*
X98602Y214554D01*
X98582Y214415D01*
X98559Y214278D01*
X98531Y214140D01*
X98500Y214004D01*
X98465Y213869D01*
X98426Y213735D01*
X98383Y213602D01*
X98336Y213470D01*
X98286Y213339D01*
X98232Y213211D01*
X98174Y213083D01*
X98113Y212957D01*
X98048Y212834D01*
X97980Y212712D01*
X97909Y212591D01*
X97834Y212473D01*
X97755Y212358D01*
X97674Y212244D01*
X97589Y212133D01*
X97501Y212024D01*
X97411Y211918D01*
X97317Y211814D01*
X97220Y211713D01*
X97120Y211615D01*
X97018Y211520D01*
X96913Y211428D01*
X96806Y211338D01*
X96696Y211252D01*
X96583Y211169D01*
X96469Y211089D01*
X96352Y211012D01*
X96233Y210939D01*
X96112Y210869D01*
X95989Y210803D01*
X95864Y210740D01*
X95737Y210680D01*
X95609Y210625D01*
X95480Y210573D01*
X95348Y210524D01*
X95216Y210479D01*
X95082Y210438D01*
X94948Y210401D01*
X94812Y210368D01*
X94675Y210339D01*
X94538Y210313D01*
X94400Y210291D01*
X94261Y210274D01*
X94122Y210260D01*
X93982Y210250D01*
X93843Y210244D01*
X93703Y210242D01*
X88764Y210242D01*
X104759Y216169D02*
X109698Y220120D01*
X109698Y202340D01*
X114636Y202340D02*
X104759Y202340D01*
X88480Y78423D02*
X103878Y69533D01*
X88480Y78423D02*
X90950Y82700D01*
X91021Y82820D01*
X91096Y82938D01*
X91175Y83053D01*
X91256Y83167D01*
X91341Y83278D01*
X91429Y83387D01*
X91519Y83493D01*
X91613Y83597D01*
X91710Y83698D01*
X91810Y83796D01*
X91912Y83891D01*
X92017Y83983D01*
X92124Y84073D01*
X92234Y84159D01*
X92347Y84242D01*
X92461Y84322D01*
X92578Y84399D01*
X92697Y84472D01*
X92818Y84542D01*
X92941Y84608D01*
X93066Y84671D01*
X93193Y84731D01*
X93321Y84786D01*
X93451Y84838D01*
X93582Y84887D01*
X93714Y84932D01*
X93848Y84973D01*
X93982Y85010D01*
X94118Y85043D01*
X94255Y85072D01*
X94392Y85098D01*
X94530Y85120D01*
X94669Y85137D01*
X94808Y85151D01*
X94948Y85161D01*
X95087Y85167D01*
X95227Y85169D01*
X95367Y85167D01*
X95506Y85161D01*
X95646Y85151D01*
X95785Y85137D01*
X95924Y85120D01*
X96062Y85098D01*
X96199Y85072D01*
X96336Y85043D01*
X96472Y85010D01*
X96606Y84972D01*
X96740Y84932D01*
X96872Y84887D01*
X97004Y84838D01*
X97133Y84786D01*
X97261Y84731D01*
X97388Y84671D01*
X97513Y84608D01*
X97636Y84542D01*
X97757Y84472D01*
X97876Y84399D01*
X97993Y84322D01*
X98107Y84242D01*
X98220Y84159D01*
X98330Y84073D01*
X98437Y83983D01*
X98542Y83891D01*
X98644Y83796D01*
X98744Y83698D01*
X98841Y83597D01*
X98935Y83493D01*
X99025Y83387D01*
X99113Y83278D01*
X99198Y83167D01*
X99279Y83053D01*
X99358Y82938D01*
X99433Y82820D01*
X99504Y82699D01*
X99572Y82577D01*
X99637Y82454D01*
X99698Y82328D01*
X99756Y82200D01*
X99810Y82072D01*
X99860Y81941D01*
X99907Y81809D01*
X99950Y81676D01*
X99989Y81542D01*
X100024Y81407D01*
X100055Y81271D01*
X100083Y81133D01*
X100106Y80996D01*
X100126Y80857D01*
X100142Y80718D01*
X100154Y80579D01*
X100162Y80440D01*
X100166Y80300D01*
X100166Y80160D01*
X100162Y80020D01*
X100154Y79881D01*
X100142Y79742D01*
X100126Y79603D01*
X100106Y79464D01*
X100083Y79326D01*
X100055Y79189D01*
X100024Y79053D01*
X99989Y78918D01*
X99950Y78784D01*
X99907Y78651D01*
X99860Y78519D01*
X99810Y78388D01*
X99756Y78259D01*
X99698Y78132D01*
X99637Y78006D01*
X99572Y77883D01*
X99504Y77760D01*
X99504Y77761D02*
X97035Y73484D01*
X99195Y96980D02*
X99262Y97093D01*
X99333Y97204D01*
X99407Y97313D01*
X99484Y97419D01*
X99565Y97524D01*
X99648Y97625D01*
X99735Y97725D01*
X99824Y97822D01*
X99916Y97916D01*
X100011Y98007D01*
X100109Y98095D01*
X100209Y98181D01*
X100312Y98263D01*
X100417Y98343D01*
X100525Y98419D01*
X100634Y98492D01*
X100746Y98562D01*
X100860Y98628D01*
X100975Y98691D01*
X101093Y98751D01*
X101212Y98807D01*
X101333Y98859D01*
X101455Y98908D01*
X101579Y98954D01*
X101704Y98995D01*
X101830Y99033D01*
X101957Y99067D01*
X102085Y99097D01*
X102215Y99124D01*
X102344Y99147D01*
X102475Y99165D01*
X102606Y99180D01*
X102737Y99191D01*
X102868Y99199D01*
X103000Y99202D01*
X103132Y99201D01*
X103263Y99197D01*
X103395Y99188D01*
X103526Y99176D01*
X103657Y99160D01*
X103787Y99139D01*
X103917Y99116D01*
X104045Y99088D01*
X104173Y99056D01*
X104300Y99021D01*
X104426Y98982D01*
X104551Y98939D01*
X104674Y98892D01*
X104796Y98842D01*
X104916Y98789D01*
X105035Y98731D01*
X105151Y98671D01*
X105266Y98606D01*
X99194Y96980D02*
X99121Y96849D01*
X99051Y96717D01*
X98985Y96582D01*
X98923Y96446D01*
X98864Y96309D01*
X98808Y96170D01*
X98756Y96030D01*
X98708Y95888D01*
X98664Y95745D01*
X98623Y95601D01*
X98587Y95456D01*
X98554Y95310D01*
X98524Y95163D01*
X98499Y95016D01*
X98478Y94868D01*
X98460Y94719D01*
X98446Y94570D01*
X98437Y94421D01*
X98431Y94271D01*
X98429Y94122D01*
X98431Y93972D01*
X98437Y93823D01*
X98447Y93673D01*
X98461Y93524D01*
X98478Y93376D01*
X98500Y93228D01*
X98525Y93080D01*
X98554Y92934D01*
X98588Y92788D01*
X98624Y92643D01*
X98665Y92499D01*
X98710Y92356D01*
X98758Y92214D01*
X98810Y92074D01*
X98865Y91935D01*
X98924Y91797D01*
X98987Y91662D01*
X99053Y91527D01*
X99123Y91395D01*
X99196Y91265D01*
X99273Y91136D01*
X99353Y91010D01*
X99436Y90885D01*
X99523Y90763D01*
X99612Y90643D01*
X99705Y90526D01*
X99801Y90411D01*
X99900Y90299D01*
X107519Y95595D02*
X107486Y95724D01*
X107449Y95852D01*
X107409Y95979D01*
X107365Y96105D01*
X107318Y96230D01*
X107267Y96353D01*
X107213Y96475D01*
X107155Y96595D01*
X107094Y96713D01*
X107030Y96830D01*
X106962Y96945D01*
X106892Y97058D01*
X106818Y97169D01*
X106741Y97278D01*
X106661Y97385D01*
X106578Y97489D01*
X106493Y97592D01*
X106404Y97691D01*
X106313Y97788D01*
X106219Y97883D01*
X106123Y97975D01*
X106024Y98064D01*
X105922Y98150D01*
X105818Y98234D01*
X105712Y98315D01*
X105604Y98392D01*
X105493Y98467D01*
X105381Y98538D01*
X105266Y98606D01*
X107519Y95595D02*
X111876Y83385D01*
X116815Y91939D01*
X117011Y106109D02*
X111879Y109072D01*
X117011Y106109D02*
X122590Y106881D01*
X117011Y106109D02*
X119132Y100892D01*
X117011Y106109D02*
X118017Y111802D01*
X117011Y106109D02*
X112584Y102392D01*
X-12811Y37275D02*
X-12811Y19495D01*
X-12811Y37275D02*
X-7873Y37275D01*
X-7733Y37273D01*
X-7594Y37267D01*
X-7454Y37257D01*
X-7315Y37243D01*
X-7176Y37226D01*
X-7038Y37204D01*
X-6901Y37178D01*
X-6764Y37149D01*
X-6628Y37116D01*
X-6494Y37079D01*
X-6360Y37038D01*
X-6228Y36993D01*
X-6096Y36944D01*
X-5967Y36892D01*
X-5839Y36837D01*
X-5712Y36777D01*
X-5587Y36714D01*
X-5464Y36648D01*
X-5343Y36578D01*
X-5224Y36505D01*
X-5107Y36428D01*
X-4993Y36348D01*
X-4880Y36265D01*
X-4770Y36179D01*
X-4663Y36089D01*
X-4558Y35997D01*
X-4456Y35902D01*
X-4356Y35804D01*
X-4259Y35703D01*
X-4165Y35599D01*
X-4075Y35493D01*
X-3987Y35384D01*
X-3902Y35273D01*
X-3821Y35159D01*
X-3742Y35044D01*
X-3667Y34926D01*
X-3596Y34806D01*
X-3528Y34683D01*
X-3463Y34560D01*
X-3402Y34434D01*
X-3344Y34306D01*
X-3290Y34178D01*
X-3240Y34047D01*
X-3193Y33915D01*
X-3150Y33782D01*
X-3111Y33648D01*
X-3076Y33513D01*
X-3045Y33377D01*
X-3017Y33239D01*
X-2994Y33102D01*
X-2974Y32963D01*
X-2958Y32824D01*
X-2946Y32685D01*
X-2938Y32546D01*
X-2934Y32406D01*
X-2934Y32266D01*
X-2938Y32126D01*
X-2946Y31987D01*
X-2958Y31848D01*
X-2974Y31709D01*
X-2994Y31570D01*
X-3017Y31433D01*
X-3045Y31295D01*
X-3076Y31159D01*
X-3111Y31024D01*
X-3150Y30890D01*
X-3193Y30757D01*
X-3240Y30625D01*
X-3290Y30494D01*
X-3344Y30366D01*
X-3402Y30238D01*
X-3463Y30112D01*
X-3528Y29989D01*
X-3596Y29867D01*
X-3667Y29746D01*
X-3742Y29628D01*
X-3821Y29513D01*
X-3902Y29399D01*
X-3987Y29288D01*
X-4075Y29179D01*
X-4165Y29073D01*
X-4259Y28969D01*
X-4356Y28868D01*
X-4456Y28770D01*
X-4558Y28675D01*
X-4663Y28583D01*
X-4770Y28493D01*
X-4880Y28407D01*
X-4993Y28324D01*
X-5107Y28244D01*
X-5224Y28167D01*
X-5343Y28094D01*
X-5464Y28024D01*
X-5587Y27958D01*
X-5712Y27895D01*
X-5839Y27835D01*
X-5967Y27780D01*
X-6096Y27728D01*
X-6228Y27679D01*
X-6360Y27634D01*
X-6494Y27593D01*
X-6628Y27556D01*
X-6764Y27523D01*
X-6901Y27494D01*
X-7038Y27468D01*
X-7176Y27446D01*
X-7315Y27429D01*
X-7454Y27415D01*
X-7594Y27405D01*
X-7733Y27399D01*
X-7873Y27397D01*
X-12811Y27397D01*
X3184Y19495D02*
X8123Y19495D01*
X8263Y19497D01*
X8402Y19503D01*
X8542Y19513D01*
X8681Y19527D01*
X8820Y19544D01*
X8958Y19566D01*
X9095Y19592D01*
X9232Y19621D01*
X9368Y19654D01*
X9502Y19691D01*
X9636Y19732D01*
X9768Y19777D01*
X9900Y19826D01*
X10029Y19878D01*
X10157Y19933D01*
X10284Y19993D01*
X10409Y20056D01*
X10532Y20122D01*
X10653Y20192D01*
X10772Y20265D01*
X10889Y20342D01*
X11003Y20422D01*
X11116Y20505D01*
X11226Y20591D01*
X11333Y20681D01*
X11438Y20773D01*
X11540Y20868D01*
X11640Y20966D01*
X11737Y21067D01*
X11831Y21171D01*
X11921Y21277D01*
X12009Y21386D01*
X12094Y21497D01*
X12175Y21611D01*
X12254Y21726D01*
X12329Y21844D01*
X12400Y21965D01*
X12468Y22087D01*
X12533Y22210D01*
X12594Y22336D01*
X12652Y22464D01*
X12706Y22592D01*
X12756Y22723D01*
X12803Y22855D01*
X12846Y22988D01*
X12885Y23122D01*
X12920Y23257D01*
X12951Y23393D01*
X12979Y23531D01*
X13002Y23668D01*
X13022Y23807D01*
X13038Y23946D01*
X13050Y24085D01*
X13058Y24224D01*
X13062Y24364D01*
X13062Y24504D01*
X13058Y24644D01*
X13050Y24783D01*
X13038Y24922D01*
X13022Y25061D01*
X13002Y25200D01*
X12979Y25337D01*
X12951Y25475D01*
X12920Y25611D01*
X12885Y25746D01*
X12846Y25880D01*
X12803Y26013D01*
X12756Y26145D01*
X12706Y26276D01*
X12652Y26404D01*
X12594Y26532D01*
X12533Y26658D01*
X12468Y26781D01*
X12400Y26904D01*
X12329Y27024D01*
X12254Y27142D01*
X12175Y27257D01*
X12094Y27371D01*
X12009Y27482D01*
X11921Y27591D01*
X11831Y27697D01*
X11737Y27801D01*
X11640Y27902D01*
X11540Y28000D01*
X11438Y28095D01*
X11333Y28187D01*
X11226Y28277D01*
X11116Y28363D01*
X11003Y28446D01*
X10889Y28526D01*
X10772Y28603D01*
X10653Y28676D01*
X10532Y28746D01*
X10409Y28812D01*
X10284Y28875D01*
X10157Y28935D01*
X10029Y28990D01*
X9900Y29042D01*
X9768Y29091D01*
X9636Y29136D01*
X9502Y29177D01*
X9368Y29214D01*
X9232Y29247D01*
X9095Y29276D01*
X8958Y29302D01*
X8820Y29324D01*
X8681Y29341D01*
X8542Y29355D01*
X8402Y29365D01*
X8263Y29371D01*
X8123Y29373D01*
X9110Y37275D02*
X3184Y37275D01*
X9110Y37275D02*
X9234Y37273D01*
X9358Y37267D01*
X9482Y37257D01*
X9605Y37244D01*
X9728Y37226D01*
X9850Y37205D01*
X9972Y37180D01*
X10093Y37151D01*
X10212Y37118D01*
X10331Y37082D01*
X10448Y37041D01*
X10564Y36998D01*
X10679Y36950D01*
X10792Y36899D01*
X10904Y36844D01*
X11013Y36786D01*
X11121Y36725D01*
X11227Y36660D01*
X11331Y36592D01*
X11432Y36520D01*
X11532Y36446D01*
X11628Y36368D01*
X11723Y36288D01*
X11815Y36204D01*
X11904Y36118D01*
X11990Y36029D01*
X12074Y35937D01*
X12154Y35842D01*
X12232Y35746D01*
X12306Y35646D01*
X12378Y35545D01*
X12446Y35441D01*
X12511Y35335D01*
X12572Y35227D01*
X12630Y35118D01*
X12685Y35006D01*
X12736Y34893D01*
X12784Y34778D01*
X12827Y34662D01*
X12868Y34545D01*
X12904Y34426D01*
X12937Y34307D01*
X12966Y34186D01*
X12991Y34064D01*
X13012Y33942D01*
X13030Y33819D01*
X13043Y33696D01*
X13053Y33572D01*
X13059Y33448D01*
X13061Y33324D01*
X13059Y33200D01*
X13053Y33076D01*
X13043Y32952D01*
X13030Y32829D01*
X13012Y32706D01*
X12991Y32584D01*
X12966Y32462D01*
X12937Y32341D01*
X12904Y32222D01*
X12868Y32103D01*
X12827Y31986D01*
X12784Y31870D01*
X12736Y31755D01*
X12685Y31642D01*
X12630Y31530D01*
X12572Y31421D01*
X12511Y31313D01*
X12446Y31207D01*
X12378Y31103D01*
X12306Y31002D01*
X12232Y30902D01*
X12154Y30806D01*
X12074Y30711D01*
X11990Y30619D01*
X11904Y30530D01*
X11815Y30444D01*
X11723Y30360D01*
X11628Y30280D01*
X11532Y30202D01*
X11432Y30128D01*
X11331Y30056D01*
X11227Y29988D01*
X11121Y29923D01*
X11013Y29862D01*
X10904Y29804D01*
X10792Y29749D01*
X10679Y29698D01*
X10564Y29650D01*
X10448Y29607D01*
X10331Y29566D01*
X10212Y29530D01*
X10093Y29497D01*
X9972Y29468D01*
X9850Y29443D01*
X9728Y29422D01*
X9605Y29404D01*
X9482Y29391D01*
X9358Y29381D01*
X9234Y29375D01*
X9110Y29373D01*
X5159Y29373D01*
X-117456Y112324D02*
X-128885Y98703D01*
X-117456Y112324D02*
X-113673Y109149D01*
X-113567Y109058D01*
X-113464Y108964D01*
X-113364Y108867D01*
X-113266Y108767D01*
X-113171Y108664D01*
X-113080Y108559D01*
X-112991Y108451D01*
X-112905Y108340D01*
X-112822Y108227D01*
X-112743Y108112D01*
X-112667Y107995D01*
X-112594Y107876D01*
X-112525Y107754D01*
X-112459Y107631D01*
X-112397Y107506D01*
X-112338Y107379D01*
X-112283Y107251D01*
X-112231Y107121D01*
X-112183Y106989D01*
X-112139Y106857D01*
X-112099Y106723D01*
X-112063Y106588D01*
X-112030Y106452D01*
X-112001Y106315D01*
X-111976Y106178D01*
X-111955Y106040D01*
X-111938Y105901D01*
X-111925Y105762D01*
X-111916Y105622D01*
X-111910Y105482D01*
X-111909Y105343D01*
X-111912Y105203D01*
X-111918Y105063D01*
X-111929Y104924D01*
X-111943Y104785D01*
X-111962Y104646D01*
X-111984Y104508D01*
X-112010Y104371D01*
X-112040Y104235D01*
X-112074Y104099D01*
X-112112Y103964D01*
X-112154Y103831D01*
X-112199Y103699D01*
X-112248Y103568D01*
X-112301Y103438D01*
X-112357Y103310D01*
X-112417Y103184D01*
X-112481Y103060D01*
X-112548Y102937D01*
X-112618Y102816D01*
X-112692Y102698D01*
X-112769Y102581D01*
X-112850Y102467D01*
X-112933Y102355D01*
X-113020Y102245D01*
X-113110Y102138D01*
X-113203Y102034D01*
X-113298Y101932D01*
X-113397Y101833D01*
X-113498Y101736D01*
X-113602Y101643D01*
X-113709Y101553D01*
X-113818Y101465D01*
X-113930Y101381D01*
X-114044Y101300D01*
X-114160Y101223D01*
X-114278Y101148D01*
X-114399Y101077D01*
X-114521Y101010D01*
X-114645Y100945D01*
X-114771Y100885D01*
X-114899Y100828D01*
X-115028Y100775D01*
X-115159Y100725D01*
X-115291Y100679D01*
X-115424Y100637D01*
X-115558Y100598D01*
X-115694Y100564D01*
X-115830Y100533D01*
X-115967Y100506D01*
X-116105Y100483D01*
X-116244Y100464D01*
X-116383Y100449D01*
X-116522Y100438D01*
X-116662Y100431D01*
X-116801Y100427D01*
X-116941Y100428D01*
X-117081Y100432D01*
X-117220Y100441D01*
X-117360Y100454D01*
X-117498Y100470D01*
X-117637Y100490D01*
X-117774Y100515D01*
X-117911Y100543D01*
X-118047Y100575D01*
X-118182Y100611D01*
X-118317Y100650D01*
X-118449Y100694D01*
X-118581Y100741D01*
X-118711Y100792D01*
X-118840Y100846D01*
X-118967Y100905D01*
X-119092Y100966D01*
X-119216Y101032D01*
X-119338Y101100D01*
X-119457Y101173D01*
X-119575Y101248D01*
X-119690Y101327D01*
X-119804Y101409D01*
X-119914Y101494D01*
X-120023Y101583D01*
X-120022Y101582D02*
X-123806Y104757D01*
X-114093Y91449D02*
X-102177Y99503D01*
X-114093Y91449D02*
X-106526Y85099D01*
X-111335Y83977D02*
X-106256Y90031D01*
X-113434Y203928D02*
X-113434Y221708D01*
X-108495Y221708D01*
X-108355Y221706D01*
X-108216Y221700D01*
X-108076Y221690D01*
X-107937Y221676D01*
X-107798Y221659D01*
X-107660Y221637D01*
X-107523Y221611D01*
X-107386Y221582D01*
X-107250Y221549D01*
X-107116Y221512D01*
X-106982Y221471D01*
X-106850Y221426D01*
X-106718Y221377D01*
X-106589Y221325D01*
X-106461Y221270D01*
X-106334Y221210D01*
X-106209Y221147D01*
X-106086Y221081D01*
X-105965Y221011D01*
X-105846Y220938D01*
X-105729Y220861D01*
X-105615Y220781D01*
X-105502Y220698D01*
X-105392Y220612D01*
X-105285Y220522D01*
X-105180Y220430D01*
X-105078Y220335D01*
X-104978Y220237D01*
X-104881Y220136D01*
X-104787Y220032D01*
X-104697Y219926D01*
X-104609Y219817D01*
X-104524Y219706D01*
X-104443Y219592D01*
X-104364Y219477D01*
X-104289Y219359D01*
X-104218Y219239D01*
X-104150Y219116D01*
X-104085Y218993D01*
X-104024Y218867D01*
X-103966Y218739D01*
X-103912Y218611D01*
X-103862Y218480D01*
X-103815Y218348D01*
X-103772Y218215D01*
X-103733Y218081D01*
X-103698Y217946D01*
X-103667Y217810D01*
X-103639Y217672D01*
X-103616Y217535D01*
X-103596Y217396D01*
X-103580Y217257D01*
X-103568Y217118D01*
X-103560Y216979D01*
X-103556Y216839D01*
X-103556Y216699D01*
X-103560Y216559D01*
X-103568Y216420D01*
X-103580Y216281D01*
X-103596Y216142D01*
X-103616Y216003D01*
X-103639Y215866D01*
X-103667Y215728D01*
X-103698Y215592D01*
X-103733Y215457D01*
X-103772Y215323D01*
X-103815Y215190D01*
X-103862Y215058D01*
X-103912Y214927D01*
X-103966Y214799D01*
X-104024Y214671D01*
X-104085Y214545D01*
X-104150Y214422D01*
X-104218Y214300D01*
X-104289Y214179D01*
X-104364Y214061D01*
X-104443Y213946D01*
X-104524Y213832D01*
X-104609Y213721D01*
X-104697Y213612D01*
X-104787Y213506D01*
X-104881Y213402D01*
X-104978Y213301D01*
X-105078Y213203D01*
X-105180Y213108D01*
X-105285Y213016D01*
X-105392Y212926D01*
X-105502Y212840D01*
X-105615Y212757D01*
X-105729Y212677D01*
X-105846Y212600D01*
X-105965Y212527D01*
X-106086Y212457D01*
X-106209Y212391D01*
X-106334Y212328D01*
X-106461Y212268D01*
X-106589Y212213D01*
X-106718Y212161D01*
X-106850Y212112D01*
X-106982Y212067D01*
X-107116Y212026D01*
X-107250Y211989D01*
X-107386Y211956D01*
X-107523Y211927D01*
X-107660Y211901D01*
X-107798Y211879D01*
X-107937Y211862D01*
X-108076Y211848D01*
X-108216Y211838D01*
X-108355Y211832D01*
X-108495Y211830D01*
X-113434Y211830D01*
X-97439Y203928D02*
X-91512Y203928D01*
X-91388Y203930D01*
X-91264Y203936D01*
X-91140Y203946D01*
X-91017Y203959D01*
X-90894Y203977D01*
X-90772Y203998D01*
X-90650Y204023D01*
X-90529Y204052D01*
X-90410Y204085D01*
X-90291Y204121D01*
X-90174Y204162D01*
X-90058Y204205D01*
X-89943Y204253D01*
X-89830Y204304D01*
X-89718Y204359D01*
X-89609Y204417D01*
X-89501Y204478D01*
X-89395Y204543D01*
X-89291Y204611D01*
X-89190Y204683D01*
X-89090Y204757D01*
X-88994Y204835D01*
X-88899Y204915D01*
X-88807Y204999D01*
X-88718Y205085D01*
X-88632Y205174D01*
X-88548Y205266D01*
X-88468Y205361D01*
X-88390Y205457D01*
X-88316Y205557D01*
X-88244Y205658D01*
X-88176Y205762D01*
X-88111Y205868D01*
X-88050Y205976D01*
X-87992Y206085D01*
X-87937Y206197D01*
X-87886Y206310D01*
X-87838Y206425D01*
X-87795Y206541D01*
X-87754Y206658D01*
X-87718Y206777D01*
X-87685Y206896D01*
X-87656Y207017D01*
X-87631Y207139D01*
X-87610Y207261D01*
X-87592Y207384D01*
X-87579Y207507D01*
X-87569Y207631D01*
X-87563Y207755D01*
X-87561Y207879D01*
X-87561Y209854D01*
X-87563Y209978D01*
X-87569Y210102D01*
X-87579Y210226D01*
X-87592Y210349D01*
X-87610Y210472D01*
X-87631Y210594D01*
X-87656Y210716D01*
X-87685Y210837D01*
X-87718Y210956D01*
X-87754Y211075D01*
X-87795Y211192D01*
X-87838Y211308D01*
X-87886Y211423D01*
X-87937Y211536D01*
X-87992Y211648D01*
X-88050Y211757D01*
X-88111Y211865D01*
X-88176Y211971D01*
X-88244Y212075D01*
X-88316Y212176D01*
X-88390Y212276D01*
X-88468Y212372D01*
X-88548Y212467D01*
X-88632Y212559D01*
X-88718Y212648D01*
X-88807Y212734D01*
X-88899Y212818D01*
X-88994Y212898D01*
X-89090Y212976D01*
X-89190Y213050D01*
X-89291Y213122D01*
X-89395Y213190D01*
X-89501Y213255D01*
X-89609Y213316D01*
X-89718Y213374D01*
X-89830Y213429D01*
X-89943Y213480D01*
X-90058Y213528D01*
X-90174Y213571D01*
X-90291Y213612D01*
X-90410Y213648D01*
X-90529Y213681D01*
X-90650Y213710D01*
X-90772Y213735D01*
X-90894Y213756D01*
X-91017Y213774D01*
X-91140Y213787D01*
X-91264Y213797D01*
X-91388Y213803D01*
X-91512Y213805D01*
X-97439Y213805D01*
X-97439Y221708D01*
X-87561Y221708D01*
D12*
X-62741Y120757D03*
D13*
X-63256Y120904D03*
D14*
X-63845Y121051D03*
D15*
X-64287Y121199D03*
D16*
X-64803Y121346D03*
D17*
X-65245Y121493D03*
D18*
X-65834Y121641D03*
D19*
X-66350Y121788D03*
D20*
X-66792Y121935D03*
D21*
X-67234Y122083D03*
D22*
X-67307Y122230D03*
D23*
X-67234Y122377D03*
D24*
X-67160Y122525D03*
D25*
X-67234Y122672D03*
D26*
X-67160Y122819D03*
D27*
X-67160Y122966D03*
D28*
X-67086Y123114D03*
X-67086Y123261D03*
D29*
X-67086Y123408D03*
D30*
X-67013Y123556D03*
D31*
X-67013Y123703D03*
X-67013Y123850D03*
D32*
X-66939Y123998D03*
D33*
X-66939Y124145D03*
D34*
X-66865Y124292D03*
D35*
X-66939Y124440D03*
D36*
X-66865Y124587D03*
D37*
X-66792Y124734D03*
D38*
X-66792Y124882D03*
X-66792Y125029D03*
D39*
X-66718Y125176D03*
D40*
X-66718Y125324D03*
D41*
X-66644Y125471D03*
D42*
X-66718Y125618D03*
D43*
X-66644Y125766D03*
D44*
X-66571Y125913D03*
D45*
X-66571Y126060D03*
X-66571Y126208D03*
D46*
X-66571Y126355D03*
D47*
X-66497Y126502D03*
X-66497Y126649D03*
D48*
X-66497Y126797D03*
D49*
X-66424Y126944D03*
D50*
X-66424Y127091D03*
X-66424Y127239D03*
D51*
X-66350Y127386D03*
D52*
X-66350Y127533D03*
D53*
X-66276Y127681D03*
D54*
X-66350Y127828D03*
D55*
X-66276Y127975D03*
D56*
X-66203Y128123D03*
D57*
X-45725Y128123D03*
D58*
X-66203Y128270D03*
D59*
X-46314Y128270D03*
D58*
X-66203Y128417D03*
D60*
X-46756Y128417D03*
D61*
X-66203Y128565D03*
D62*
X-47272Y128565D03*
D63*
X-66129Y128712D03*
D64*
X-47714Y128712D03*
D63*
X-66129Y128859D03*
D65*
X-48303Y128859D03*
D66*
X-66203Y129007D03*
D67*
X-48745Y129007D03*
D66*
X-66203Y129154D03*
D68*
X-49261Y129154D03*
D63*
X-66276Y129301D03*
D69*
X-49703Y129301D03*
D66*
X-66350Y129449D03*
D21*
X-49850Y129449D03*
D66*
X-66350Y129596D03*
D23*
X-49850Y129596D03*
D66*
X-66497Y129743D03*
D24*
X-49776Y129743D03*
D66*
X-66497Y129891D03*
D25*
X-49703Y129891D03*
D63*
X-66571Y130038D03*
D26*
X-49776Y130038D03*
D66*
X-66644Y130185D03*
D70*
X-49703Y130185D03*
D66*
X-66644Y130332D03*
D28*
X-49703Y130332D03*
D66*
X-66792Y130480D03*
D71*
X-49629Y130480D03*
D66*
X-66792Y130627D03*
D71*
X-49629Y130627D03*
D63*
X-66865Y130774D03*
D30*
X-49629Y130774D03*
D66*
X-66939Y130922D03*
D72*
X-49555Y130922D03*
D66*
X-66939Y131069D03*
D32*
X-49555Y131069D03*
D66*
X-67086Y131216D03*
D32*
X-49555Y131216D03*
D66*
X-67086Y131364D03*
D73*
X-49482Y131364D03*
D63*
X-67160Y131511D03*
D34*
X-49482Y131511D03*
D61*
X-67086Y131658D03*
D35*
X-49408Y131658D03*
D61*
X-67086Y131806D03*
D36*
X-49482Y131806D03*
D74*
X-67086Y131953D03*
D75*
X-49408Y131953D03*
D76*
X-67013Y132100D03*
D77*
X-49334Y132100D03*
D55*
X-67013Y132248D03*
D78*
X-49334Y132248D03*
D55*
X-67013Y132395D03*
D78*
X-49334Y132395D03*
D54*
X-66939Y132542D03*
D79*
X-49261Y132542D03*
D52*
X-66939Y132690D03*
D41*
X-49261Y132690D03*
D80*
X-66865Y132837D03*
D41*
X-49261Y132837D03*
D51*
X-66939Y132984D03*
D43*
X-49261Y132984D03*
D81*
X-66865Y133132D03*
D44*
X-49187Y133132D03*
D82*
X-66792Y133279D03*
D83*
X-49113Y133279D03*
D48*
X-66792Y133426D03*
D84*
X-49187Y133426D03*
D48*
X-66792Y133574D03*
D85*
X-49113Y133574D03*
D86*
X-66718Y133721D03*
D47*
X-49113Y133721D03*
D46*
X-66718Y133868D03*
D86*
X-49040Y133868D03*
D46*
X-66718Y134015D03*
D86*
X-49040Y134015D03*
D84*
X-66718Y134163D03*
D49*
X-49040Y134163D03*
D87*
X-66644Y134310D03*
D82*
X-48966Y134310D03*
D44*
X-66571Y134457D03*
D51*
X-48966Y134457D03*
D43*
X-66644Y134605D03*
D51*
X-48966Y134605D03*
D42*
X-66571Y134752D03*
D80*
X-48892Y134752D03*
D40*
X-66571Y134899D03*
D53*
X-48892Y134899D03*
D79*
X-66497Y135047D03*
D54*
X-48819Y135047D03*
D79*
X-66497Y135194D03*
D55*
X-48892Y135194D03*
D88*
X-66497Y135341D03*
D89*
X-48819Y135341D03*
D77*
X-66424Y135489D03*
D76*
X-48745Y135489D03*
D36*
X-66424Y135636D03*
D90*
X-48745Y135636D03*
D36*
X-66424Y135783D03*
D90*
X-48745Y135783D03*
D35*
X-66350Y135931D03*
D63*
X-48745Y135931D03*
D33*
X-66350Y136078D03*
D66*
X-48671Y136078D03*
D73*
X-66276Y136225D03*
D63*
X-48745Y136225D03*
D32*
X-66350Y136373D03*
D66*
X-48819Y136373D03*
D91*
X-66276Y136520D03*
D66*
X-48819Y136520D03*
D92*
X-66203Y136667D03*
D63*
X-48892Y136667D03*
D29*
X-66203Y136815D03*
D66*
X-48966Y136815D03*
D29*
X-66203Y136962D03*
D66*
X-48966Y136962D03*
D71*
X-66129Y137109D03*
D66*
X-49113Y137109D03*
D27*
X-66129Y137257D03*
D66*
X-49113Y137257D03*
D70*
X-66055Y137404D03*
D63*
X-49187Y137404D03*
D93*
X-66129Y137551D03*
D66*
X-49261Y137551D03*
D25*
X-66055Y137698D03*
D66*
X-49261Y137698D03*
D24*
X-65982Y137846D03*
D66*
X-49408Y137846D03*
D23*
X-66055Y137993D03*
D66*
X-49408Y137993D03*
D22*
X-65982Y138140D03*
D63*
X-49482Y138140D03*
D69*
X-66055Y138288D03*
D66*
X-49555Y138288D03*
D94*
X-66571Y138435D03*
D66*
X-49555Y138435D03*
D67*
X-67160Y138582D03*
D66*
X-49703Y138582D03*
D65*
X-67602Y138730D03*
D66*
X-49703Y138730D03*
D95*
X-68118Y138877D03*
D61*
X-49703Y138877D03*
D96*
X-68560Y139024D03*
D90*
X-49629Y139024D03*
D60*
X-69149Y139172D03*
D90*
X-49629Y139172D03*
D97*
X-69665Y139319D03*
D98*
X-49629Y139319D03*
D99*
X-70107Y139466D03*
D56*
X-49555Y139466D03*
D100*
X-60310Y139614D03*
D55*
X-49629Y139614D03*
D101*
X-60825Y139761D03*
D54*
X-49555Y139761D03*
D14*
X-61341Y139908D03*
D53*
X-49482Y139908D03*
D102*
X-61857Y140056D03*
D80*
X-49482Y140056D03*
D16*
X-62299Y140203D03*
D80*
X-49482Y140203D03*
D103*
X-62814Y140350D03*
D81*
X-49482Y140350D03*
D18*
X-63330Y140498D03*
D104*
X-49408Y140498D03*
D19*
X-63845Y140645D03*
D49*
X-49334Y140645D03*
D105*
X-64361Y140792D03*
D48*
X-49408Y140792D03*
D106*
X-64803Y140940D03*
D86*
X-49334Y140940D03*
D22*
X-64803Y141087D03*
D47*
X-49261Y141087D03*
D23*
X-64729Y141234D03*
D85*
X-49261Y141234D03*
D24*
X-64656Y141381D03*
D85*
X-49261Y141381D03*
D25*
X-64729Y141529D03*
D87*
X-49261Y141529D03*
D26*
X-64656Y141676D03*
D44*
X-49187Y141676D03*
D107*
X-64656Y141823D03*
D43*
X-49113Y141823D03*
D28*
X-64582Y141971D03*
D42*
X-49187Y141971D03*
D28*
X-64582Y142118D03*
D41*
X-49113Y142118D03*
D29*
X-64582Y142265D03*
D79*
X-49113Y142265D03*
D30*
X-64508Y142413D03*
D39*
X-49040Y142413D03*
D31*
X-64508Y142560D03*
D39*
X-49040Y142560D03*
D31*
X-64508Y142707D03*
D108*
X-49040Y142707D03*
D32*
X-64435Y142855D03*
D75*
X-48966Y142855D03*
D33*
X-64435Y143002D03*
D35*
X-48966Y143002D03*
D34*
X-64361Y143149D03*
D35*
X-48966Y143149D03*
X-64435Y143297D03*
D34*
X-48892Y143297D03*
D36*
X-64361Y143444D03*
D73*
X-48892Y143444D03*
D75*
X-64287Y143591D03*
D73*
X-48892Y143591D03*
D38*
X-64287Y143739D03*
D91*
X-48892Y143739D03*
D38*
X-64287Y143886D03*
D72*
X-48819Y143886D03*
D79*
X-64287Y144033D03*
D30*
X-48745Y144033D03*
D40*
X-64214Y144181D03*
D29*
X-48819Y144181D03*
D41*
X-64140Y144328D03*
D71*
X-48745Y144328D03*
D42*
X-64214Y144475D03*
D27*
X-48745Y144475D03*
D43*
X-64140Y144623D03*
D109*
X-48671Y144623D03*
D87*
X-64140Y144770D03*
D109*
X-48671Y144770D03*
D45*
X-64066Y144917D03*
D25*
X-48671Y144917D03*
D45*
X-64066Y145064D03*
D24*
X-48598Y145064D03*
D46*
X-64066Y145212D03*
D23*
X-48524Y145212D03*
D47*
X-63993Y145359D03*
D22*
X-48598Y145359D03*
D47*
X-63993Y145506D03*
D106*
X-48598Y145506D03*
D48*
X-63993Y145654D03*
D110*
X-49040Y145654D03*
D49*
X-63919Y145801D03*
D111*
X-49555Y145801D03*
D50*
X-63919Y145948D03*
D18*
X-50071Y145948D03*
D50*
X-63919Y146096D03*
D112*
X-50587Y146096D03*
D51*
X-63845Y146243D03*
D113*
X-51029Y146243D03*
D52*
X-63845Y146390D03*
D114*
X-51544Y146390D03*
D53*
X-63772Y146538D03*
D14*
X-52060Y146538D03*
D54*
X-63845Y146685D03*
D115*
X-52575Y146685D03*
D55*
X-63772Y146832D03*
D12*
X-53017Y146832D03*
D56*
X-63698Y146980D03*
D58*
X-63698Y147127D03*
X-63698Y147274D03*
D61*
X-63698Y147422D03*
D63*
X-63624Y147569D03*
X-63624Y147716D03*
D66*
X-63698Y147864D03*
X-63698Y148011D03*
X-63845Y148158D03*
X-63845Y148306D03*
D63*
X-63919Y148453D03*
D66*
X-63993Y148600D03*
X-63993Y148747D03*
X-64140Y148895D03*
X-64140Y149042D03*
D63*
X-64214Y149189D03*
D66*
X-64287Y149337D03*
X-64287Y149484D03*
D63*
X-64361Y149631D03*
D66*
X-64435Y149779D03*
X-64435Y149926D03*
X-64582Y150073D03*
X-64582Y150221D03*
D63*
X-64656Y150368D03*
D61*
X-64582Y150515D03*
X-64582Y150663D03*
D74*
X-64582Y150810D03*
D76*
X-64508Y150957D03*
D55*
X-64508Y151105D03*
X-64508Y151252D03*
D54*
X-64435Y151399D03*
D52*
X-64435Y151547D03*
D80*
X-64361Y151694D03*
D51*
X-64435Y151841D03*
D81*
X-64361Y151989D03*
D82*
X-64287Y152136D03*
D116*
X-64361Y152283D03*
D48*
X-64287Y152430D03*
D47*
X-64287Y152578D03*
D46*
X-64214Y152725D03*
X-64214Y152872D03*
D84*
X-64214Y153020D03*
D87*
X-64140Y153167D03*
D43*
X-64140Y153314D03*
X-64140Y153462D03*
D42*
X-64066Y153609D03*
D40*
X-64066Y153756D03*
D79*
X-63993Y153904D03*
X-63993Y154051D03*
D88*
X-63993Y154198D03*
D77*
X-63919Y154346D03*
D36*
X-63919Y154493D03*
X-63919Y154640D03*
D35*
X-63845Y154788D03*
D33*
X-63845Y154935D03*
D73*
X-63772Y155082D03*
D32*
X-63845Y155230D03*
D91*
X-63772Y155377D03*
D92*
X-63698Y155524D03*
D29*
X-63698Y155672D03*
X-63698Y155819D03*
D28*
X-63698Y155966D03*
D27*
X-63624Y156113D03*
D70*
X-63551Y156261D03*
D93*
X-63624Y156408D03*
D25*
X-63551Y156555D03*
D23*
X-63551Y156703D03*
X-63551Y156850D03*
D22*
X-63477Y156997D03*
D117*
X-63624Y157145D03*
D118*
X-64140Y157292D03*
D67*
X-64656Y157439D03*
D119*
X-65171Y157587D03*
D95*
X-65613Y157734D03*
D120*
X-66129Y157881D03*
D60*
X-66644Y158029D03*
D97*
X-67160Y158176D03*
D121*
X-67676Y158323D03*
D11*
X-100119Y144165D02*
X-104070Y144165D01*
X-104194Y144167D01*
X-104318Y144173D01*
X-104442Y144183D01*
X-104565Y144196D01*
X-104688Y144214D01*
X-104810Y144235D01*
X-104932Y144260D01*
X-105053Y144289D01*
X-105172Y144322D01*
X-105291Y144358D01*
X-105408Y144399D01*
X-105524Y144442D01*
X-105639Y144490D01*
X-105752Y144541D01*
X-105864Y144596D01*
X-105973Y144654D01*
X-106081Y144715D01*
X-106187Y144780D01*
X-106291Y144848D01*
X-106392Y144920D01*
X-106492Y144994D01*
X-106588Y145072D01*
X-106683Y145152D01*
X-106775Y145236D01*
X-106864Y145322D01*
X-106950Y145411D01*
X-107034Y145503D01*
X-107114Y145598D01*
X-107192Y145694D01*
X-107266Y145794D01*
X-107338Y145895D01*
X-107406Y145999D01*
X-107471Y146105D01*
X-107532Y146213D01*
X-107590Y146322D01*
X-107645Y146434D01*
X-107696Y146547D01*
X-107744Y146662D01*
X-107787Y146778D01*
X-107828Y146895D01*
X-107864Y147014D01*
X-107897Y147133D01*
X-107926Y147254D01*
X-107951Y147376D01*
X-107972Y147498D01*
X-107990Y147621D01*
X-108003Y147744D01*
X-108013Y147868D01*
X-108019Y147992D01*
X-108021Y148116D01*
X-108021Y157994D01*
X-108019Y158118D01*
X-108013Y158242D01*
X-108003Y158366D01*
X-107990Y158489D01*
X-107972Y158612D01*
X-107951Y158734D01*
X-107926Y158856D01*
X-107897Y158977D01*
X-107864Y159096D01*
X-107828Y159215D01*
X-107787Y159332D01*
X-107744Y159448D01*
X-107696Y159563D01*
X-107645Y159676D01*
X-107590Y159788D01*
X-107532Y159897D01*
X-107471Y160005D01*
X-107406Y160111D01*
X-107338Y160215D01*
X-107266Y160316D01*
X-107192Y160416D01*
X-107114Y160512D01*
X-107034Y160607D01*
X-106950Y160699D01*
X-106864Y160788D01*
X-106775Y160874D01*
X-106683Y160958D01*
X-106588Y161038D01*
X-106492Y161116D01*
X-106392Y161190D01*
X-106291Y161262D01*
X-106187Y161330D01*
X-106081Y161395D01*
X-105973Y161456D01*
X-105864Y161514D01*
X-105752Y161569D01*
X-105639Y161620D01*
X-105525Y161668D01*
X-105408Y161711D01*
X-105291Y161752D01*
X-105172Y161788D01*
X-105053Y161821D01*
X-104932Y161850D01*
X-104810Y161875D01*
X-104688Y161896D01*
X-104565Y161914D01*
X-104442Y161927D01*
X-104318Y161937D01*
X-104194Y161943D01*
X-104070Y161945D01*
X-100119Y161945D01*
X-108303Y136068D02*
X-108303Y118288D01*
X-108303Y136068D02*
X-103364Y136068D01*
X-103225Y136066D01*
X-103087Y136060D01*
X-102949Y136051D01*
X-102811Y136037D01*
X-102674Y136020D01*
X-102537Y135998D01*
X-102400Y135973D01*
X-102265Y135944D01*
X-102130Y135911D01*
X-101997Y135875D01*
X-101864Y135835D01*
X-101733Y135791D01*
X-101603Y135743D01*
X-101474Y135692D01*
X-101347Y135637D01*
X-101221Y135579D01*
X-101097Y135517D01*
X-100975Y135452D01*
X-100855Y135383D01*
X-100736Y135311D01*
X-100620Y135236D01*
X-100506Y135157D01*
X-100394Y135075D01*
X-100285Y134990D01*
X-100177Y134903D01*
X-100073Y134812D01*
X-99971Y134718D01*
X-99872Y134621D01*
X-99775Y134522D01*
X-99681Y134420D01*
X-99590Y134316D01*
X-99503Y134208D01*
X-99418Y134099D01*
X-99336Y133987D01*
X-99257Y133873D01*
X-99182Y133757D01*
X-99110Y133638D01*
X-99041Y133518D01*
X-98976Y133396D01*
X-98914Y133272D01*
X-98856Y133146D01*
X-98801Y133019D01*
X-98750Y132890D01*
X-98702Y132760D01*
X-98658Y132629D01*
X-98618Y132496D01*
X-98582Y132363D01*
X-98549Y132228D01*
X-98520Y132093D01*
X-98495Y131956D01*
X-98473Y131819D01*
X-98456Y131682D01*
X-98442Y131544D01*
X-98433Y131406D01*
X-98427Y131268D01*
X-98425Y131129D01*
X-98425Y123227D01*
X-98427Y123088D01*
X-98433Y122950D01*
X-98442Y122812D01*
X-98456Y122674D01*
X-98473Y122537D01*
X-98495Y122400D01*
X-98520Y122263D01*
X-98549Y122128D01*
X-98582Y121993D01*
X-98618Y121860D01*
X-98658Y121727D01*
X-98702Y121596D01*
X-98750Y121466D01*
X-98801Y121337D01*
X-98856Y121210D01*
X-98914Y121084D01*
X-98976Y120960D01*
X-99041Y120838D01*
X-99110Y120718D01*
X-99182Y120599D01*
X-99257Y120483D01*
X-99336Y120369D01*
X-99418Y120257D01*
X-99503Y120148D01*
X-99590Y120040D01*
X-99681Y119936D01*
X-99775Y119834D01*
X-99872Y119735D01*
X-99971Y119638D01*
X-100073Y119544D01*
X-100177Y119453D01*
X-100285Y119366D01*
X-100394Y119281D01*
X-100506Y119199D01*
X-100620Y119120D01*
X-100736Y119045D01*
X-100855Y118973D01*
X-100975Y118904D01*
X-101097Y118839D01*
X-101221Y118777D01*
X-101347Y118719D01*
X-101474Y118664D01*
X-101603Y118613D01*
X-101733Y118565D01*
X-101864Y118521D01*
X-101997Y118481D01*
X-102130Y118445D01*
X-102265Y118412D01*
X-102400Y118383D01*
X-102537Y118358D01*
X-102674Y118336D01*
X-102811Y118319D01*
X-102949Y118305D01*
X-103087Y118296D01*
X-103225Y118290D01*
X-103364Y118288D01*
X-108303Y118288D01*
X-107958Y179585D02*
X-103019Y179585D01*
X-102879Y179583D01*
X-102740Y179577D01*
X-102600Y179567D01*
X-102461Y179553D01*
X-102322Y179536D01*
X-102184Y179514D01*
X-102047Y179488D01*
X-101910Y179459D01*
X-101774Y179426D01*
X-101640Y179389D01*
X-101506Y179348D01*
X-101374Y179303D01*
X-101242Y179254D01*
X-101113Y179202D01*
X-100985Y179147D01*
X-100858Y179087D01*
X-100733Y179024D01*
X-100610Y178958D01*
X-100489Y178888D01*
X-100370Y178815D01*
X-100253Y178738D01*
X-100139Y178658D01*
X-100026Y178575D01*
X-99916Y178489D01*
X-99809Y178399D01*
X-99704Y178307D01*
X-99602Y178212D01*
X-99502Y178114D01*
X-99405Y178013D01*
X-99311Y177909D01*
X-99221Y177803D01*
X-99133Y177694D01*
X-99048Y177583D01*
X-98967Y177469D01*
X-98888Y177354D01*
X-98813Y177236D01*
X-98742Y177116D01*
X-98674Y176993D01*
X-98609Y176870D01*
X-98548Y176744D01*
X-98490Y176616D01*
X-98436Y176488D01*
X-98386Y176357D01*
X-98339Y176225D01*
X-98296Y176092D01*
X-98257Y175958D01*
X-98222Y175823D01*
X-98191Y175687D01*
X-98163Y175549D01*
X-98140Y175412D01*
X-98120Y175273D01*
X-98104Y175134D01*
X-98092Y174995D01*
X-98084Y174856D01*
X-98080Y174716D01*
X-98080Y174576D01*
X-98084Y174436D01*
X-98092Y174297D01*
X-98104Y174158D01*
X-98120Y174019D01*
X-98140Y173880D01*
X-98163Y173743D01*
X-98191Y173605D01*
X-98222Y173469D01*
X-98257Y173334D01*
X-98296Y173200D01*
X-98339Y173067D01*
X-98386Y172935D01*
X-98436Y172804D01*
X-98490Y172676D01*
X-98548Y172548D01*
X-98609Y172422D01*
X-98674Y172299D01*
X-98742Y172177D01*
X-98813Y172056D01*
X-98888Y171938D01*
X-98967Y171823D01*
X-99048Y171709D01*
X-99133Y171598D01*
X-99221Y171489D01*
X-99311Y171383D01*
X-99405Y171279D01*
X-99502Y171178D01*
X-99602Y171080D01*
X-99704Y170985D01*
X-99809Y170893D01*
X-99916Y170803D01*
X-100026Y170717D01*
X-100139Y170634D01*
X-100253Y170554D01*
X-100370Y170477D01*
X-100489Y170404D01*
X-100610Y170334D01*
X-100733Y170268D01*
X-100858Y170205D01*
X-100985Y170145D01*
X-101113Y170090D01*
X-101242Y170038D01*
X-101374Y169989D01*
X-101506Y169944D01*
X-101640Y169903D01*
X-101774Y169866D01*
X-101910Y169833D01*
X-102047Y169804D01*
X-102184Y169778D01*
X-102322Y169756D01*
X-102461Y169739D01*
X-102600Y169725D01*
X-102740Y169715D01*
X-102879Y169709D01*
X-103019Y169707D01*
X-103019Y169708D02*
X-107958Y169708D01*
X-107958Y187488D01*
X-103019Y187488D01*
X-103019Y187487D02*
X-102895Y187485D01*
X-102771Y187479D01*
X-102647Y187469D01*
X-102524Y187456D01*
X-102401Y187438D01*
X-102279Y187417D01*
X-102157Y187392D01*
X-102036Y187363D01*
X-101917Y187330D01*
X-101798Y187294D01*
X-101681Y187253D01*
X-101565Y187210D01*
X-101450Y187162D01*
X-101337Y187111D01*
X-101225Y187056D01*
X-101116Y186998D01*
X-101008Y186937D01*
X-100902Y186872D01*
X-100798Y186804D01*
X-100697Y186732D01*
X-100597Y186658D01*
X-100501Y186580D01*
X-100406Y186500D01*
X-100314Y186416D01*
X-100225Y186330D01*
X-100139Y186241D01*
X-100055Y186149D01*
X-99975Y186054D01*
X-99897Y185958D01*
X-99823Y185858D01*
X-99751Y185757D01*
X-99683Y185653D01*
X-99618Y185547D01*
X-99557Y185439D01*
X-99499Y185330D01*
X-99444Y185218D01*
X-99393Y185105D01*
X-99345Y184990D01*
X-99302Y184874D01*
X-99261Y184757D01*
X-99225Y184638D01*
X-99192Y184519D01*
X-99163Y184398D01*
X-99138Y184276D01*
X-99117Y184154D01*
X-99099Y184031D01*
X-99086Y183908D01*
X-99076Y183784D01*
X-99070Y183660D01*
X-99068Y183536D01*
X-99070Y183412D01*
X-99076Y183288D01*
X-99086Y183164D01*
X-99099Y183041D01*
X-99117Y182918D01*
X-99138Y182796D01*
X-99163Y182674D01*
X-99192Y182553D01*
X-99225Y182434D01*
X-99261Y182315D01*
X-99302Y182198D01*
X-99345Y182082D01*
X-99393Y181967D01*
X-99444Y181854D01*
X-99499Y181742D01*
X-99557Y181633D01*
X-99618Y181525D01*
X-99683Y181419D01*
X-99751Y181315D01*
X-99823Y181214D01*
X-99897Y181114D01*
X-99975Y181018D01*
X-100055Y180923D01*
X-100139Y180831D01*
X-100225Y180742D01*
X-100314Y180656D01*
X-100406Y180572D01*
X-100501Y180492D01*
X-100597Y180414D01*
X-100697Y180340D01*
X-100798Y180268D01*
X-100902Y180200D01*
X-101008Y180135D01*
X-101116Y180074D01*
X-101225Y180016D01*
X-101337Y179961D01*
X-101450Y179910D01*
X-101565Y179862D01*
X-101681Y179819D01*
X-101798Y179778D01*
X-101917Y179742D01*
X-102036Y179709D01*
X-102157Y179680D01*
X-102279Y179655D01*
X-102401Y179634D01*
X-102524Y179616D01*
X-102647Y179603D01*
X-102771Y179593D01*
X-102895Y179587D01*
X-103019Y179585D01*
X121283Y185758D02*
X121283Y167978D01*
X121283Y185758D02*
X126222Y185758D01*
X126362Y185756D01*
X126501Y185750D01*
X126641Y185740D01*
X126780Y185726D01*
X126919Y185709D01*
X127057Y185687D01*
X127194Y185661D01*
X127331Y185632D01*
X127467Y185599D01*
X127601Y185562D01*
X127735Y185521D01*
X127867Y185476D01*
X127999Y185427D01*
X128128Y185375D01*
X128256Y185320D01*
X128383Y185260D01*
X128508Y185197D01*
X128631Y185131D01*
X128752Y185061D01*
X128871Y184988D01*
X128988Y184911D01*
X129102Y184831D01*
X129215Y184748D01*
X129325Y184662D01*
X129432Y184572D01*
X129537Y184480D01*
X129639Y184385D01*
X129739Y184287D01*
X129836Y184186D01*
X129930Y184082D01*
X130020Y183976D01*
X130108Y183867D01*
X130193Y183756D01*
X130274Y183642D01*
X130353Y183527D01*
X130428Y183409D01*
X130499Y183289D01*
X130567Y183166D01*
X130632Y183043D01*
X130693Y182917D01*
X130751Y182789D01*
X130805Y182661D01*
X130855Y182530D01*
X130902Y182398D01*
X130945Y182265D01*
X130984Y182131D01*
X131019Y181996D01*
X131050Y181860D01*
X131078Y181722D01*
X131101Y181585D01*
X131121Y181446D01*
X131137Y181307D01*
X131149Y181168D01*
X131157Y181029D01*
X131161Y180889D01*
X131161Y180749D01*
X131157Y180609D01*
X131149Y180470D01*
X131137Y180331D01*
X131121Y180192D01*
X131101Y180053D01*
X131078Y179916D01*
X131050Y179778D01*
X131019Y179642D01*
X130984Y179507D01*
X130945Y179373D01*
X130902Y179240D01*
X130855Y179108D01*
X130805Y178977D01*
X130751Y178849D01*
X130693Y178721D01*
X130632Y178595D01*
X130567Y178472D01*
X130499Y178350D01*
X130428Y178229D01*
X130353Y178111D01*
X130274Y177996D01*
X130193Y177882D01*
X130108Y177771D01*
X130020Y177662D01*
X129930Y177556D01*
X129836Y177452D01*
X129739Y177351D01*
X129639Y177253D01*
X129537Y177158D01*
X129432Y177066D01*
X129325Y176976D01*
X129215Y176890D01*
X129102Y176807D01*
X128988Y176727D01*
X128871Y176650D01*
X128752Y176577D01*
X128631Y176507D01*
X128508Y176441D01*
X128383Y176378D01*
X128256Y176318D01*
X128128Y176263D01*
X127999Y176211D01*
X127867Y176162D01*
X127735Y176117D01*
X127601Y176076D01*
X127467Y176039D01*
X127331Y176006D01*
X127194Y175977D01*
X127057Y175951D01*
X126919Y175929D01*
X126780Y175912D01*
X126641Y175898D01*
X126501Y175888D01*
X126362Y175882D01*
X126222Y175880D01*
X121283Y175880D01*
X127209Y175880D02*
X131161Y167978D01*
D122*
X-45125Y14288D02*
X-45125Y11788D01*
X-45125Y14288D02*
X-45125Y16788D01*
X-45125Y14288D02*
X-50125Y11788D01*
X-50125Y16788D02*
X-45125Y14288D01*
X-50125Y16788D02*
X-50125Y11788D01*
X-60125Y9288D02*
X-60125Y19288D01*
X-35125Y19288D01*
X-35125Y9288D01*
X-60125Y9288D01*
D123*
X-53788Y21259D02*
X-53788Y30657D01*
X-51178Y30657D01*
X-51078Y30655D01*
X-50978Y30649D01*
X-50879Y30640D01*
X-50779Y30626D01*
X-50681Y30609D01*
X-50583Y30588D01*
X-50486Y30564D01*
X-50390Y30535D01*
X-50295Y30503D01*
X-50202Y30468D01*
X-50110Y30429D01*
X-50019Y30386D01*
X-49931Y30340D01*
X-49844Y30290D01*
X-49759Y30238D01*
X-49676Y30182D01*
X-49595Y30123D01*
X-49517Y30060D01*
X-49441Y29995D01*
X-49367Y29927D01*
X-49297Y29857D01*
X-49229Y29783D01*
X-49164Y29707D01*
X-49101Y29629D01*
X-49042Y29548D01*
X-48986Y29465D01*
X-48934Y29380D01*
X-48884Y29293D01*
X-48838Y29205D01*
X-48795Y29114D01*
X-48756Y29022D01*
X-48721Y28929D01*
X-48689Y28834D01*
X-48660Y28738D01*
X-48636Y28641D01*
X-48615Y28543D01*
X-48598Y28445D01*
X-48584Y28345D01*
X-48575Y28246D01*
X-48569Y28146D01*
X-48567Y28046D01*
X-48567Y23869D01*
X-48569Y23769D01*
X-48575Y23669D01*
X-48584Y23570D01*
X-48598Y23470D01*
X-48615Y23372D01*
X-48636Y23274D01*
X-48660Y23177D01*
X-48689Y23081D01*
X-48721Y22986D01*
X-48756Y22893D01*
X-48795Y22801D01*
X-48838Y22710D01*
X-48884Y22622D01*
X-48934Y22535D01*
X-48986Y22450D01*
X-49042Y22367D01*
X-49101Y22286D01*
X-49164Y22208D01*
X-49229Y22132D01*
X-49297Y22058D01*
X-49367Y21988D01*
X-49441Y21920D01*
X-49517Y21855D01*
X-49595Y21792D01*
X-49676Y21733D01*
X-49759Y21677D01*
X-49844Y21625D01*
X-49931Y21575D01*
X-50019Y21529D01*
X-50110Y21486D01*
X-50202Y21447D01*
X-50295Y21412D01*
X-50390Y21380D01*
X-50486Y21351D01*
X-50583Y21327D01*
X-50681Y21306D01*
X-50779Y21289D01*
X-50879Y21275D01*
X-50978Y21266D01*
X-51078Y21260D01*
X-51178Y21258D01*
X-51178Y21259D02*
X-53788Y21259D01*
X-44340Y28568D02*
X-41729Y30657D01*
X-41729Y21259D01*
X-39119Y21259D02*
X-44340Y21259D01*
X11494Y95126D02*
X20892Y95126D01*
X11494Y95126D02*
X11494Y99303D01*
X15670Y99303D02*
X15670Y95126D01*
X15670Y103165D02*
X15670Y105776D01*
X15672Y105877D01*
X15678Y105978D01*
X15688Y106079D01*
X15701Y106179D01*
X15719Y106279D01*
X15740Y106378D01*
X15766Y106476D01*
X15795Y106573D01*
X15827Y106669D01*
X15864Y106763D01*
X15904Y106856D01*
X15948Y106948D01*
X15995Y107037D01*
X16046Y107125D01*
X16100Y107211D01*
X16157Y107294D01*
X16217Y107376D01*
X16281Y107454D01*
X16347Y107531D01*
X16417Y107604D01*
X16489Y107675D01*
X16564Y107743D01*
X16642Y107808D01*
X16722Y107870D01*
X16804Y107929D01*
X16889Y107985D01*
X16976Y108037D01*
X17064Y108086D01*
X17155Y108132D01*
X17247Y108173D01*
X17341Y108212D01*
X17436Y108246D01*
X17532Y108277D01*
X17630Y108304D01*
X17728Y108328D01*
X17828Y108347D01*
X17928Y108363D01*
X18028Y108375D01*
X18129Y108383D01*
X18230Y108387D01*
X18332Y108387D01*
X18433Y108383D01*
X18534Y108375D01*
X18634Y108363D01*
X18734Y108347D01*
X18834Y108328D01*
X18932Y108304D01*
X19030Y108277D01*
X19126Y108246D01*
X19221Y108212D01*
X19315Y108173D01*
X19407Y108132D01*
X19498Y108086D01*
X19587Y108037D01*
X19673Y107985D01*
X19758Y107929D01*
X19840Y107870D01*
X19920Y107808D01*
X19998Y107743D01*
X20073Y107675D01*
X20145Y107604D01*
X20215Y107531D01*
X20281Y107454D01*
X20345Y107376D01*
X20405Y107294D01*
X20462Y107211D01*
X20516Y107125D01*
X20567Y107037D01*
X20614Y106948D01*
X20658Y106856D01*
X20698Y106763D01*
X20735Y106669D01*
X20767Y106573D01*
X20796Y106476D01*
X20822Y106378D01*
X20843Y106279D01*
X20861Y106179D01*
X20874Y106079D01*
X20884Y105978D01*
X20890Y105877D01*
X20892Y105776D01*
X20892Y103165D01*
X11494Y103165D01*
X11494Y105776D01*
X11496Y105866D01*
X11502Y105955D01*
X11511Y106045D01*
X11525Y106134D01*
X11542Y106222D01*
X11563Y106309D01*
X11588Y106396D01*
X11617Y106481D01*
X11649Y106565D01*
X11684Y106647D01*
X11724Y106728D01*
X11766Y106807D01*
X11812Y106884D01*
X11862Y106959D01*
X11914Y107032D01*
X11970Y107103D01*
X12028Y107171D01*
X12090Y107236D01*
X12154Y107299D01*
X12221Y107359D01*
X12290Y107416D01*
X12362Y107470D01*
X12436Y107521D01*
X12512Y107569D01*
X12590Y107613D01*
X12670Y107654D01*
X12752Y107692D01*
X12835Y107726D01*
X12920Y107756D01*
X13006Y107783D01*
X13092Y107806D01*
X13180Y107825D01*
X13269Y107840D01*
X13358Y107852D01*
X13447Y107860D01*
X13537Y107864D01*
X13627Y107864D01*
X13717Y107860D01*
X13806Y107852D01*
X13895Y107840D01*
X13984Y107825D01*
X14072Y107806D01*
X14158Y107783D01*
X14244Y107756D01*
X14329Y107726D01*
X14412Y107692D01*
X14494Y107654D01*
X14574Y107613D01*
X14652Y107569D01*
X14728Y107521D01*
X14802Y107470D01*
X14874Y107416D01*
X14943Y107359D01*
X15010Y107299D01*
X15074Y107236D01*
X15136Y107171D01*
X15194Y107103D01*
X15250Y107032D01*
X15302Y106959D01*
X15352Y106884D01*
X15398Y106807D01*
X15440Y106728D01*
X15480Y106647D01*
X15515Y106565D01*
X15547Y106481D01*
X15576Y106396D01*
X15601Y106309D01*
X15622Y106222D01*
X15639Y106134D01*
X15653Y106045D01*
X15662Y105955D01*
X15668Y105866D01*
X15670Y105776D01*
X13582Y111873D02*
X11494Y114483D01*
X20892Y114483D01*
X20892Y111873D02*
X20892Y117094D01*
D11*
X96838Y165100D02*
X109538Y165100D01*
X96838Y165100D02*
X90488Y171450D01*
X90488Y184150D01*
X96838Y190500D01*
X115888Y184150D02*
X115888Y171450D01*
X109538Y165100D01*
X115888Y184150D02*
X109538Y190500D01*
X96838Y190500D01*
X-114300Y184150D02*
X-114300Y171450D01*
X-120650Y165100D01*
X-133350Y165100D01*
X-139700Y171450D01*
X-120650Y165100D02*
X-114300Y158750D01*
X-114300Y146050D01*
X-120650Y139700D01*
X-133350Y139700D01*
X-139700Y146050D01*
X-139700Y158750D01*
X-133350Y165100D01*
X-133350Y190500D02*
X-120650Y190500D01*
X-114300Y184150D01*
X-133350Y190500D02*
X-139700Y184150D01*
X-139700Y171450D01*
X-120650Y139700D02*
X-114300Y133350D01*
X-114300Y120650D01*
X-120650Y114300D01*
X-133350Y114300D01*
X-139700Y120650D01*
X-139700Y133350D01*
X-133350Y139700D01*
D124*
X-66000Y299888D02*
X-66000Y352888D01*
X66000Y352888D01*
X66000Y299888D01*
D125*
X-70000Y282888D03*
D124*
X-70002Y282950D01*
X-70008Y283011D01*
X-70017Y283072D01*
X-70030Y283132D01*
X-70047Y283191D01*
X-70068Y283249D01*
X-70092Y283306D01*
X-70119Y283361D01*
X-70150Y283414D01*
X-70184Y283466D01*
X-70221Y283515D01*
X-70261Y283562D01*
X-70304Y283606D01*
X-70349Y283647D01*
X-70397Y283686D01*
X-70448Y283722D01*
X-70500Y283754D01*
X-70554Y283783D01*
X-70610Y283809D01*
X-70668Y283831D01*
X-70726Y283850D01*
X-70786Y283865D01*
X-70847Y283876D01*
X-70908Y283884D01*
X-70969Y283888D01*
X-71031Y283888D01*
X-71092Y283884D01*
X-71153Y283876D01*
X-71214Y283865D01*
X-71274Y283850D01*
X-71332Y283831D01*
X-71390Y283809D01*
X-71446Y283783D01*
X-71500Y283754D01*
X-71552Y283722D01*
X-71603Y283686D01*
X-71651Y283647D01*
X-71696Y283606D01*
X-71739Y283562D01*
X-71779Y283515D01*
X-71816Y283466D01*
X-71850Y283414D01*
X-71881Y283361D01*
X-71908Y283306D01*
X-71932Y283249D01*
X-71953Y283191D01*
X-71970Y283132D01*
X-71983Y283072D01*
X-71992Y283011D01*
X-71998Y282950D01*
X-72000Y282888D01*
D125*
X-72000Y282888D03*
D124*
X-71998Y282826D01*
X-71992Y282765D01*
X-71983Y282704D01*
X-71970Y282644D01*
X-71953Y282585D01*
X-71932Y282527D01*
X-71908Y282470D01*
X-71881Y282415D01*
X-71850Y282362D01*
X-71816Y282310D01*
X-71779Y282261D01*
X-71739Y282214D01*
X-71696Y282170D01*
X-71651Y282129D01*
X-71603Y282090D01*
X-71552Y282054D01*
X-71500Y282022D01*
X-71446Y281993D01*
X-71390Y281967D01*
X-71332Y281945D01*
X-71274Y281926D01*
X-71214Y281911D01*
X-71153Y281900D01*
X-71092Y281892D01*
X-71031Y281888D01*
X-70969Y281888D01*
X-70908Y281892D01*
X-70847Y281900D01*
X-70786Y281911D01*
X-70726Y281926D01*
X-70668Y281945D01*
X-70610Y281967D01*
X-70554Y281993D01*
X-70500Y282022D01*
X-70448Y282054D01*
X-70397Y282090D01*
X-70349Y282129D01*
X-70304Y282170D01*
X-70261Y282214D01*
X-70221Y282261D01*
X-70184Y282310D01*
X-70150Y282362D01*
X-70119Y282415D01*
X-70092Y282470D01*
X-70068Y282527D01*
X-70047Y282585D01*
X-70030Y282644D01*
X-70017Y282704D01*
X-70008Y282765D01*
X-70002Y282826D01*
X-70000Y282888D01*
X-66000Y299888D02*
X-66000Y186888D01*
X66000Y186888D01*
X66000Y299888D01*
D123*
X-8251Y280937D02*
X-8251Y271539D01*
X-9295Y271539D02*
X-7207Y271539D01*
X-7207Y280937D02*
X-9295Y280937D01*
X-1483Y271539D02*
X605Y271539D01*
X-1483Y271539D02*
X-1572Y271541D01*
X-1660Y271547D01*
X-1748Y271556D01*
X-1836Y271569D01*
X-1923Y271586D01*
X-2009Y271606D01*
X-2094Y271631D01*
X-2179Y271658D01*
X-2262Y271690D01*
X-2343Y271724D01*
X-2423Y271763D01*
X-2501Y271804D01*
X-2578Y271849D01*
X-2652Y271897D01*
X-2725Y271948D01*
X-2795Y272002D01*
X-2862Y272060D01*
X-2928Y272120D01*
X-2990Y272182D01*
X-3050Y272248D01*
X-3108Y272315D01*
X-3162Y272385D01*
X-3213Y272458D01*
X-3261Y272532D01*
X-3306Y272609D01*
X-3347Y272687D01*
X-3386Y272767D01*
X-3420Y272848D01*
X-3452Y272931D01*
X-3479Y273016D01*
X-3504Y273101D01*
X-3524Y273187D01*
X-3541Y273274D01*
X-3554Y273362D01*
X-3563Y273450D01*
X-3569Y273538D01*
X-3571Y273627D01*
X-3572Y273627D02*
X-3572Y278848D01*
X-3571Y278848D02*
X-3569Y278937D01*
X-3563Y279025D01*
X-3554Y279113D01*
X-3541Y279201D01*
X-3524Y279288D01*
X-3504Y279374D01*
X-3479Y279459D01*
X-3452Y279544D01*
X-3420Y279627D01*
X-3386Y279708D01*
X-3347Y279788D01*
X-3306Y279866D01*
X-3261Y279943D01*
X-3213Y280017D01*
X-3162Y280090D01*
X-3108Y280160D01*
X-3050Y280227D01*
X-2990Y280293D01*
X-2928Y280355D01*
X-2862Y280415D01*
X-2795Y280473D01*
X-2725Y280527D01*
X-2652Y280578D01*
X-2578Y280626D01*
X-2501Y280671D01*
X-2423Y280712D01*
X-2343Y280751D01*
X-2262Y280785D01*
X-2179Y280817D01*
X-2094Y280844D01*
X-2009Y280869D01*
X-1923Y280889D01*
X-1836Y280906D01*
X-1748Y280919D01*
X-1660Y280928D01*
X-1572Y280934D01*
X-1483Y280936D01*
X-1483Y280937D02*
X605Y280937D01*
X4074Y278848D02*
X6684Y280937D01*
X6684Y271539D01*
X4074Y271539D02*
X9295Y271539D01*
X-65469Y88717D02*
X-74867Y88717D01*
X-74867Y91327D02*
X-74867Y86106D01*
X-74867Y95033D02*
X-65469Y95033D01*
X-69645Y98165D02*
X-74867Y95033D01*
X-69645Y98165D02*
X-74867Y101298D01*
X-65469Y101298D01*
X-65469Y108441D02*
X-65471Y108530D01*
X-65477Y108618D01*
X-65486Y108706D01*
X-65499Y108794D01*
X-65516Y108881D01*
X-65536Y108967D01*
X-65561Y109052D01*
X-65588Y109137D01*
X-65620Y109220D01*
X-65654Y109301D01*
X-65693Y109381D01*
X-65734Y109459D01*
X-65779Y109536D01*
X-65827Y109610D01*
X-65878Y109683D01*
X-65932Y109753D01*
X-65990Y109820D01*
X-66050Y109886D01*
X-66112Y109948D01*
X-66178Y110008D01*
X-66245Y110066D01*
X-66315Y110120D01*
X-66388Y110171D01*
X-66462Y110219D01*
X-66539Y110264D01*
X-66617Y110305D01*
X-66697Y110344D01*
X-66778Y110378D01*
X-66861Y110410D01*
X-66946Y110437D01*
X-67031Y110462D01*
X-67117Y110482D01*
X-67204Y110499D01*
X-67292Y110512D01*
X-67380Y110521D01*
X-67468Y110527D01*
X-67557Y110529D01*
X-65468Y108441D02*
X-65470Y108312D01*
X-65476Y108183D01*
X-65485Y108054D01*
X-65498Y107926D01*
X-65515Y107798D01*
X-65536Y107671D01*
X-65560Y107544D01*
X-65588Y107418D01*
X-65620Y107293D01*
X-65655Y107169D01*
X-65694Y107046D01*
X-65737Y106924D01*
X-65783Y106804D01*
X-65833Y106685D01*
X-65886Y106567D01*
X-65942Y106451D01*
X-66002Y106337D01*
X-66065Y106224D01*
X-66132Y106114D01*
X-66201Y106005D01*
X-66274Y105899D01*
X-66350Y105794D01*
X-66429Y105692D01*
X-66511Y105593D01*
X-66595Y105495D01*
X-66683Y105400D01*
X-66773Y105308D01*
X-72778Y105570D02*
X-72867Y105572D01*
X-72955Y105578D01*
X-73043Y105587D01*
X-73131Y105600D01*
X-73218Y105617D01*
X-73304Y105637D01*
X-73389Y105662D01*
X-73474Y105689D01*
X-73557Y105721D01*
X-73638Y105755D01*
X-73718Y105794D01*
X-73796Y105835D01*
X-73873Y105880D01*
X-73947Y105928D01*
X-74020Y105979D01*
X-74090Y106033D01*
X-74157Y106091D01*
X-74223Y106151D01*
X-74285Y106213D01*
X-74345Y106279D01*
X-74403Y106346D01*
X-74457Y106416D01*
X-74508Y106489D01*
X-74556Y106563D01*
X-74601Y106640D01*
X-74642Y106718D01*
X-74681Y106798D01*
X-74715Y106879D01*
X-74747Y106962D01*
X-74774Y107047D01*
X-74799Y107132D01*
X-74819Y107218D01*
X-74836Y107305D01*
X-74849Y107393D01*
X-74858Y107481D01*
X-74864Y107569D01*
X-74866Y107658D01*
X-74867Y107658D02*
X-74865Y107778D01*
X-74860Y107898D01*
X-74850Y108018D01*
X-74838Y108137D01*
X-74821Y108256D01*
X-74801Y108374D01*
X-74777Y108492D01*
X-74750Y108608D01*
X-74719Y108724D01*
X-74685Y108839D01*
X-74647Y108953D01*
X-74605Y109066D01*
X-74560Y109177D01*
X-74512Y109287D01*
X-74461Y109395D01*
X-74406Y109502D01*
X-74348Y109607D01*
X-74286Y109710D01*
X-74222Y109811D01*
X-74154Y109911D01*
X-74084Y110008D01*
X-70951Y106613D02*
X-70999Y106535D01*
X-71051Y106459D01*
X-71105Y106386D01*
X-71163Y106315D01*
X-71224Y106246D01*
X-71288Y106180D01*
X-71355Y106117D01*
X-71424Y106057D01*
X-71496Y106000D01*
X-71570Y105946D01*
X-71647Y105896D01*
X-71726Y105848D01*
X-71806Y105805D01*
X-71889Y105764D01*
X-71973Y105728D01*
X-72058Y105695D01*
X-72145Y105666D01*
X-72234Y105640D01*
X-72323Y105618D01*
X-72413Y105601D01*
X-72503Y105587D01*
X-72595Y105577D01*
X-72686Y105571D01*
X-72778Y105569D01*
X-69384Y109485D02*
X-69336Y109563D01*
X-69284Y109639D01*
X-69230Y109712D01*
X-69172Y109783D01*
X-69111Y109852D01*
X-69047Y109918D01*
X-68980Y109981D01*
X-68911Y110041D01*
X-68839Y110098D01*
X-68765Y110152D01*
X-68688Y110202D01*
X-68609Y110250D01*
X-68529Y110293D01*
X-68446Y110334D01*
X-68362Y110370D01*
X-68277Y110403D01*
X-68190Y110432D01*
X-68101Y110458D01*
X-68012Y110480D01*
X-67922Y110497D01*
X-67832Y110511D01*
X-67740Y110521D01*
X-67649Y110527D01*
X-67557Y110529D01*
X-69384Y109485D02*
X-70951Y106614D01*
X-58992Y88717D02*
X-49594Y88717D01*
X-58992Y86106D02*
X-58992Y91327D01*
X-58992Y94945D02*
X-49594Y94945D01*
X-58992Y94945D02*
X-58992Y97556D01*
X-58990Y97656D01*
X-58984Y97756D01*
X-58975Y97855D01*
X-58961Y97955D01*
X-58944Y98053D01*
X-58923Y98151D01*
X-58899Y98248D01*
X-58870Y98344D01*
X-58838Y98439D01*
X-58803Y98532D01*
X-58764Y98624D01*
X-58721Y98715D01*
X-58675Y98803D01*
X-58625Y98890D01*
X-58573Y98975D01*
X-58517Y99058D01*
X-58458Y99139D01*
X-58395Y99217D01*
X-58330Y99293D01*
X-58262Y99367D01*
X-58192Y99437D01*
X-58118Y99505D01*
X-58042Y99570D01*
X-57964Y99633D01*
X-57883Y99692D01*
X-57800Y99748D01*
X-57715Y99800D01*
X-57628Y99850D01*
X-57540Y99896D01*
X-57449Y99939D01*
X-57357Y99978D01*
X-57264Y100013D01*
X-57169Y100045D01*
X-57073Y100074D01*
X-56976Y100098D01*
X-56878Y100119D01*
X-56780Y100136D01*
X-56680Y100150D01*
X-56581Y100159D01*
X-56481Y100165D01*
X-56381Y100167D01*
X-56381Y100166D02*
X-52204Y100166D01*
X-52204Y100167D02*
X-52104Y100165D01*
X-52004Y100159D01*
X-51905Y100150D01*
X-51805Y100136D01*
X-51707Y100119D01*
X-51609Y100098D01*
X-51512Y100074D01*
X-51416Y100045D01*
X-51321Y100013D01*
X-51228Y99978D01*
X-51136Y99939D01*
X-51045Y99896D01*
X-50957Y99850D01*
X-50870Y99800D01*
X-50785Y99748D01*
X-50702Y99692D01*
X-50621Y99633D01*
X-50543Y99570D01*
X-50467Y99505D01*
X-50393Y99437D01*
X-50323Y99367D01*
X-50255Y99293D01*
X-50190Y99217D01*
X-50127Y99139D01*
X-50068Y99058D01*
X-50012Y98975D01*
X-49960Y98890D01*
X-49910Y98803D01*
X-49864Y98715D01*
X-49821Y98624D01*
X-49782Y98532D01*
X-49747Y98439D01*
X-49715Y98344D01*
X-49686Y98248D01*
X-49662Y98151D01*
X-49641Y98053D01*
X-49624Y97955D01*
X-49610Y97855D01*
X-49601Y97756D01*
X-49595Y97656D01*
X-49593Y97556D01*
X-49594Y97556D02*
X-49594Y94945D01*
X-49594Y105176D02*
X-58992Y105176D01*
X-49594Y104132D02*
X-49594Y106220D01*
X-58992Y106220D02*
X-58992Y104132D01*
X-43117Y88717D02*
X-33719Y88717D01*
X-43117Y86106D02*
X-43117Y91327D01*
X-33719Y96703D02*
X-33719Y98792D01*
X-33719Y96703D02*
X-33721Y96614D01*
X-33727Y96526D01*
X-33736Y96438D01*
X-33749Y96350D01*
X-33766Y96263D01*
X-33786Y96177D01*
X-33811Y96092D01*
X-33838Y96007D01*
X-33870Y95924D01*
X-33904Y95843D01*
X-33943Y95763D01*
X-33984Y95685D01*
X-34029Y95608D01*
X-34077Y95534D01*
X-34128Y95461D01*
X-34182Y95391D01*
X-34240Y95324D01*
X-34300Y95258D01*
X-34362Y95196D01*
X-34428Y95136D01*
X-34495Y95078D01*
X-34565Y95024D01*
X-34638Y94973D01*
X-34712Y94925D01*
X-34789Y94880D01*
X-34867Y94839D01*
X-34947Y94800D01*
X-35028Y94766D01*
X-35111Y94734D01*
X-35196Y94707D01*
X-35281Y94682D01*
X-35367Y94662D01*
X-35454Y94645D01*
X-35542Y94632D01*
X-35630Y94623D01*
X-35718Y94617D01*
X-35807Y94615D01*
X-41028Y94615D01*
X-41119Y94617D01*
X-41210Y94623D01*
X-41301Y94633D01*
X-41391Y94647D01*
X-41480Y94664D01*
X-41568Y94686D01*
X-41656Y94712D01*
X-41742Y94741D01*
X-41827Y94774D01*
X-41910Y94811D01*
X-41992Y94851D01*
X-42072Y94895D01*
X-42150Y94942D01*
X-42226Y94993D01*
X-42299Y95046D01*
X-42370Y95103D01*
X-42439Y95164D01*
X-42504Y95227D01*
X-42567Y95292D01*
X-42627Y95361D01*
X-42685Y95432D01*
X-42738Y95505D01*
X-42789Y95581D01*
X-42836Y95659D01*
X-42880Y95739D01*
X-42920Y95821D01*
X-42957Y95904D01*
X-42990Y95989D01*
X-43019Y96075D01*
X-43045Y96163D01*
X-43067Y96251D01*
X-43084Y96340D01*
X-43098Y96430D01*
X-43108Y96521D01*
X-43114Y96612D01*
X-43116Y96703D01*
X-43117Y96703D02*
X-43117Y98792D01*
X-43117Y102696D02*
X-33719Y102696D01*
X-37373Y102696D02*
X-43117Y107917D01*
X-39462Y104785D02*
X-33719Y107917D01*
X-25654Y88717D02*
X-16256Y88717D01*
X-25654Y86106D02*
X-25654Y91327D01*
X-25654Y94945D02*
X-16256Y94945D01*
X-25654Y94945D02*
X-25654Y97556D01*
X-25652Y97656D01*
X-25646Y97756D01*
X-25637Y97855D01*
X-25623Y97955D01*
X-25606Y98053D01*
X-25585Y98151D01*
X-25561Y98248D01*
X-25532Y98344D01*
X-25500Y98439D01*
X-25465Y98532D01*
X-25426Y98624D01*
X-25383Y98715D01*
X-25337Y98803D01*
X-25287Y98890D01*
X-25235Y98975D01*
X-25179Y99058D01*
X-25120Y99139D01*
X-25057Y99217D01*
X-24992Y99293D01*
X-24924Y99367D01*
X-24854Y99437D01*
X-24780Y99505D01*
X-24704Y99570D01*
X-24626Y99633D01*
X-24545Y99692D01*
X-24462Y99748D01*
X-24377Y99800D01*
X-24290Y99850D01*
X-24202Y99896D01*
X-24111Y99939D01*
X-24019Y99978D01*
X-23926Y100013D01*
X-23831Y100045D01*
X-23735Y100074D01*
X-23638Y100098D01*
X-23540Y100119D01*
X-23442Y100136D01*
X-23342Y100150D01*
X-23243Y100159D01*
X-23143Y100165D01*
X-23043Y100167D01*
X-23043Y100166D02*
X-18867Y100166D01*
X-18867Y100167D02*
X-18767Y100165D01*
X-18667Y100159D01*
X-18568Y100150D01*
X-18468Y100136D01*
X-18370Y100119D01*
X-18272Y100098D01*
X-18175Y100074D01*
X-18079Y100045D01*
X-17984Y100013D01*
X-17891Y99978D01*
X-17799Y99939D01*
X-17708Y99896D01*
X-17620Y99850D01*
X-17533Y99800D01*
X-17448Y99748D01*
X-17365Y99692D01*
X-17284Y99633D01*
X-17206Y99570D01*
X-17130Y99505D01*
X-17056Y99437D01*
X-16986Y99367D01*
X-16918Y99293D01*
X-16853Y99217D01*
X-16790Y99139D01*
X-16731Y99058D01*
X-16675Y98975D01*
X-16623Y98890D01*
X-16573Y98803D01*
X-16527Y98715D01*
X-16484Y98624D01*
X-16445Y98532D01*
X-16410Y98439D01*
X-16378Y98344D01*
X-16349Y98248D01*
X-16325Y98151D01*
X-16304Y98053D01*
X-16287Y97955D01*
X-16273Y97855D01*
X-16264Y97756D01*
X-16258Y97656D01*
X-16256Y97556D01*
X-16256Y94945D01*
X-16256Y104830D02*
X-25654Y104830D01*
X-25654Y110051D02*
X-19911Y104830D01*
X-21999Y106918D02*
X-16256Y110051D01*
X-1207Y131361D02*
X8192Y131361D01*
X-1207Y131361D02*
X-1207Y133972D01*
X-1205Y134073D01*
X-1199Y134174D01*
X-1189Y134275D01*
X-1176Y134375D01*
X-1158Y134475D01*
X-1137Y134574D01*
X-1111Y134672D01*
X-1082Y134769D01*
X-1050Y134865D01*
X-1013Y134959D01*
X-973Y135052D01*
X-929Y135144D01*
X-882Y135233D01*
X-831Y135321D01*
X-777Y135407D01*
X-720Y135490D01*
X-660Y135572D01*
X-596Y135650D01*
X-530Y135727D01*
X-460Y135800D01*
X-388Y135871D01*
X-313Y135939D01*
X-235Y136004D01*
X-155Y136066D01*
X-73Y136125D01*
X12Y136181D01*
X99Y136233D01*
X187Y136282D01*
X278Y136328D01*
X370Y136369D01*
X464Y136408D01*
X559Y136442D01*
X655Y136473D01*
X753Y136500D01*
X851Y136524D01*
X951Y136543D01*
X1051Y136559D01*
X1151Y136571D01*
X1252Y136579D01*
X1353Y136583D01*
X1455Y136583D01*
X1556Y136579D01*
X1657Y136571D01*
X1757Y136559D01*
X1857Y136543D01*
X1957Y136524D01*
X2055Y136500D01*
X2153Y136473D01*
X2249Y136442D01*
X2344Y136408D01*
X2438Y136369D01*
X2530Y136328D01*
X2621Y136282D01*
X2710Y136233D01*
X2796Y136181D01*
X2881Y136125D01*
X2963Y136066D01*
X3043Y136004D01*
X3121Y135939D01*
X3196Y135871D01*
X3268Y135800D01*
X3338Y135727D01*
X3404Y135650D01*
X3468Y135572D01*
X3528Y135490D01*
X3585Y135407D01*
X3639Y135321D01*
X3690Y135233D01*
X3737Y135144D01*
X3781Y135052D01*
X3821Y134959D01*
X3858Y134865D01*
X3890Y134769D01*
X3919Y134672D01*
X3945Y134574D01*
X3966Y134475D01*
X3984Y134375D01*
X3997Y134275D01*
X4007Y134174D01*
X4013Y134073D01*
X4015Y133972D01*
X4015Y131361D01*
X4015Y134494D02*
X8192Y136582D01*
X-162Y140448D02*
X-1207Y140448D01*
X-1207Y145669D01*
X8192Y143058D01*
X-12446Y146030D02*
X-21844Y146030D01*
X-21844Y148640D01*
X-21842Y148741D01*
X-21836Y148842D01*
X-21826Y148943D01*
X-21813Y149043D01*
X-21795Y149143D01*
X-21774Y149242D01*
X-21748Y149340D01*
X-21719Y149437D01*
X-21687Y149533D01*
X-21650Y149627D01*
X-21610Y149720D01*
X-21566Y149812D01*
X-21519Y149901D01*
X-21468Y149989D01*
X-21414Y150075D01*
X-21357Y150158D01*
X-21297Y150240D01*
X-21233Y150318D01*
X-21167Y150395D01*
X-21097Y150468D01*
X-21025Y150539D01*
X-20950Y150607D01*
X-20872Y150672D01*
X-20792Y150734D01*
X-20710Y150793D01*
X-20625Y150849D01*
X-20539Y150901D01*
X-20450Y150950D01*
X-20359Y150996D01*
X-20267Y151037D01*
X-20173Y151076D01*
X-20078Y151110D01*
X-19982Y151141D01*
X-19884Y151168D01*
X-19786Y151192D01*
X-19686Y151211D01*
X-19586Y151227D01*
X-19486Y151239D01*
X-19385Y151247D01*
X-19284Y151251D01*
X-19182Y151251D01*
X-19081Y151247D01*
X-18980Y151239D01*
X-18880Y151227D01*
X-18780Y151211D01*
X-18680Y151192D01*
X-18582Y151168D01*
X-18484Y151141D01*
X-18388Y151110D01*
X-18293Y151076D01*
X-18199Y151037D01*
X-18107Y150996D01*
X-18016Y150950D01*
X-17928Y150901D01*
X-17841Y150849D01*
X-17756Y150793D01*
X-17674Y150734D01*
X-17594Y150672D01*
X-17516Y150607D01*
X-17441Y150539D01*
X-17369Y150468D01*
X-17299Y150395D01*
X-17233Y150318D01*
X-17169Y150240D01*
X-17109Y150158D01*
X-17052Y150075D01*
X-16998Y149989D01*
X-16947Y149901D01*
X-16900Y149812D01*
X-16856Y149720D01*
X-16816Y149627D01*
X-16779Y149533D01*
X-16747Y149437D01*
X-16718Y149340D01*
X-16692Y149242D01*
X-16671Y149143D01*
X-16653Y149043D01*
X-16640Y148943D01*
X-16630Y148842D01*
X-16624Y148741D01*
X-16622Y148640D01*
X-16623Y148640D02*
X-16623Y146030D01*
X-16623Y149162D02*
X-12446Y151251D01*
X-19756Y155116D02*
X-21844Y157727D01*
X-12446Y157727D01*
X-12446Y155116D02*
X-12446Y160338D01*
X-17145Y164260D02*
X-17330Y164262D01*
X-17515Y164269D01*
X-17699Y164280D01*
X-17883Y164295D01*
X-18067Y164315D01*
X-18251Y164339D01*
X-18433Y164368D01*
X-18615Y164401D01*
X-18796Y164438D01*
X-18976Y164480D01*
X-19156Y164526D01*
X-19334Y164576D01*
X-19510Y164630D01*
X-19686Y164689D01*
X-19860Y164751D01*
X-20032Y164818D01*
X-20203Y164889D01*
X-20372Y164964D01*
X-20539Y165043D01*
X-20619Y165073D01*
X-20698Y165106D01*
X-20775Y165143D01*
X-20851Y165183D01*
X-20925Y165226D01*
X-20997Y165272D01*
X-21066Y165322D01*
X-21134Y165374D01*
X-21199Y165430D01*
X-21262Y165488D01*
X-21321Y165550D01*
X-21379Y165613D01*
X-21433Y165680D01*
X-21484Y165748D01*
X-21532Y165819D01*
X-21577Y165892D01*
X-21619Y165966D01*
X-21657Y166043D01*
X-21692Y166121D01*
X-21724Y166200D01*
X-21752Y166281D01*
X-21776Y166363D01*
X-21797Y166447D01*
X-21814Y166530D01*
X-21827Y166615D01*
X-21836Y166700D01*
X-21842Y166785D01*
X-21844Y166871D01*
X-21842Y166957D01*
X-21836Y167042D01*
X-21827Y167127D01*
X-21814Y167212D01*
X-21797Y167295D01*
X-21776Y167379D01*
X-21752Y167461D01*
X-21724Y167542D01*
X-21692Y167621D01*
X-21657Y167699D01*
X-21619Y167776D01*
X-21577Y167850D01*
X-21532Y167923D01*
X-21484Y167994D01*
X-21433Y168062D01*
X-21379Y168129D01*
X-21321Y168192D01*
X-21262Y168254D01*
X-21199Y168312D01*
X-21134Y168368D01*
X-21066Y168420D01*
X-20997Y168470D01*
X-20925Y168516D01*
X-20851Y168559D01*
X-20775Y168599D01*
X-20698Y168636D01*
X-20619Y168669D01*
X-20539Y168699D01*
X-20372Y168778D01*
X-20203Y168853D01*
X-20032Y168924D01*
X-19860Y168991D01*
X-19686Y169053D01*
X-19510Y169112D01*
X-19334Y169166D01*
X-19156Y169216D01*
X-18976Y169262D01*
X-18796Y169304D01*
X-18615Y169341D01*
X-18433Y169374D01*
X-18251Y169403D01*
X-18067Y169427D01*
X-17883Y169447D01*
X-17699Y169462D01*
X-17515Y169473D01*
X-17330Y169480D01*
X-17145Y169482D01*
X-17145Y164260D02*
X-16960Y164262D01*
X-16775Y164269D01*
X-16591Y164280D01*
X-16407Y164295D01*
X-16223Y164315D01*
X-16039Y164339D01*
X-15857Y164368D01*
X-15675Y164401D01*
X-15494Y164438D01*
X-15314Y164480D01*
X-15134Y164526D01*
X-14956Y164576D01*
X-14780Y164630D01*
X-14604Y164689D01*
X-14430Y164751D01*
X-14258Y164818D01*
X-14087Y164889D01*
X-13918Y164964D01*
X-13751Y165043D01*
X-13671Y165073D01*
X-13592Y165106D01*
X-13515Y165143D01*
X-13439Y165183D01*
X-13365Y165226D01*
X-13293Y165272D01*
X-13224Y165322D01*
X-13156Y165375D01*
X-13091Y165430D01*
X-13028Y165489D01*
X-12969Y165550D01*
X-12911Y165613D01*
X-12857Y165680D01*
X-12806Y165748D01*
X-12758Y165819D01*
X-12713Y165892D01*
X-12671Y165966D01*
X-12633Y166043D01*
X-12598Y166121D01*
X-12566Y166200D01*
X-12538Y166281D01*
X-12514Y166363D01*
X-12493Y166447D01*
X-12476Y166530D01*
X-12463Y166615D01*
X-12454Y166700D01*
X-12448Y166785D01*
X-12446Y166871D01*
X-13751Y168699D02*
X-13918Y168778D01*
X-14087Y168853D01*
X-14258Y168924D01*
X-14430Y168991D01*
X-14604Y169053D01*
X-14780Y169112D01*
X-14956Y169166D01*
X-15134Y169216D01*
X-15314Y169262D01*
X-15494Y169304D01*
X-15675Y169341D01*
X-15857Y169374D01*
X-16039Y169403D01*
X-16223Y169427D01*
X-16407Y169447D01*
X-16591Y169462D01*
X-16775Y169473D01*
X-16960Y169480D01*
X-17145Y169482D01*
X-13751Y168699D02*
X-13671Y168669D01*
X-13592Y168636D01*
X-13515Y168599D01*
X-13439Y168559D01*
X-13365Y168516D01*
X-13293Y168470D01*
X-13224Y168420D01*
X-13156Y168368D01*
X-13091Y168312D01*
X-13028Y168254D01*
X-12969Y168192D01*
X-12911Y168129D01*
X-12857Y168062D01*
X-12806Y167994D01*
X-12758Y167923D01*
X-12713Y167850D01*
X-12671Y167776D01*
X-12633Y167699D01*
X-12598Y167621D01*
X-12566Y167542D01*
X-12538Y167461D01*
X-12514Y167379D01*
X-12493Y167295D01*
X-12476Y167212D01*
X-12463Y167127D01*
X-12454Y167042D01*
X-12448Y166957D01*
X-12446Y166871D01*
X-14534Y164783D02*
X-19756Y168959D01*
X54862Y172246D02*
X54862Y162848D01*
X54862Y172246D02*
X57473Y172246D01*
X57473Y172247D02*
X57574Y172245D01*
X57675Y172239D01*
X57776Y172229D01*
X57876Y172216D01*
X57976Y172198D01*
X58075Y172177D01*
X58173Y172151D01*
X58270Y172122D01*
X58366Y172090D01*
X58460Y172053D01*
X58553Y172013D01*
X58645Y171969D01*
X58734Y171922D01*
X58822Y171871D01*
X58908Y171817D01*
X58991Y171760D01*
X59073Y171700D01*
X59151Y171636D01*
X59228Y171570D01*
X59301Y171500D01*
X59372Y171428D01*
X59440Y171353D01*
X59505Y171275D01*
X59567Y171195D01*
X59626Y171113D01*
X59682Y171028D01*
X59734Y170941D01*
X59783Y170853D01*
X59829Y170762D01*
X59870Y170670D01*
X59909Y170576D01*
X59943Y170481D01*
X59974Y170385D01*
X60001Y170287D01*
X60025Y170189D01*
X60044Y170089D01*
X60060Y169989D01*
X60072Y169889D01*
X60080Y169788D01*
X60084Y169687D01*
X60084Y169585D01*
X60080Y169484D01*
X60072Y169383D01*
X60060Y169283D01*
X60044Y169183D01*
X60025Y169083D01*
X60001Y168985D01*
X59974Y168887D01*
X59943Y168791D01*
X59909Y168696D01*
X59870Y168602D01*
X59829Y168510D01*
X59783Y168419D01*
X59734Y168330D01*
X59682Y168244D01*
X59626Y168159D01*
X59567Y168077D01*
X59505Y167997D01*
X59440Y167919D01*
X59372Y167844D01*
X59301Y167772D01*
X59228Y167702D01*
X59151Y167636D01*
X59073Y167572D01*
X58991Y167512D01*
X58908Y167455D01*
X58822Y167401D01*
X58734Y167350D01*
X58645Y167303D01*
X58553Y167259D01*
X58460Y167219D01*
X58366Y167182D01*
X58270Y167150D01*
X58173Y167121D01*
X58075Y167095D01*
X57976Y167074D01*
X57876Y167056D01*
X57776Y167043D01*
X57675Y167033D01*
X57574Y167027D01*
X57473Y167025D01*
X54862Y167025D01*
X57995Y167025D02*
X60083Y162848D01*
X63427Y162848D02*
X69692Y172246D01*
X63427Y172246D02*
X69692Y162848D01*
X73093Y167547D02*
X73095Y167732D01*
X73102Y167917D01*
X73113Y168101D01*
X73128Y168285D01*
X73148Y168469D01*
X73172Y168653D01*
X73201Y168835D01*
X73234Y169017D01*
X73271Y169198D01*
X73313Y169378D01*
X73359Y169558D01*
X73409Y169736D01*
X73463Y169912D01*
X73522Y170088D01*
X73584Y170262D01*
X73651Y170434D01*
X73722Y170605D01*
X73797Y170774D01*
X73876Y170941D01*
X73876Y170942D02*
X73906Y171022D01*
X73939Y171101D01*
X73976Y171178D01*
X74016Y171254D01*
X74059Y171328D01*
X74105Y171400D01*
X74155Y171469D01*
X74207Y171537D01*
X74263Y171602D01*
X74321Y171665D01*
X74383Y171724D01*
X74446Y171782D01*
X74513Y171836D01*
X74581Y171887D01*
X74652Y171935D01*
X74725Y171980D01*
X74799Y172022D01*
X74876Y172060D01*
X74954Y172095D01*
X75033Y172127D01*
X75114Y172155D01*
X75196Y172179D01*
X75280Y172200D01*
X75363Y172217D01*
X75448Y172230D01*
X75533Y172239D01*
X75618Y172245D01*
X75704Y172247D01*
X75790Y172245D01*
X75875Y172239D01*
X75960Y172230D01*
X76045Y172217D01*
X76128Y172200D01*
X76212Y172179D01*
X76294Y172155D01*
X76375Y172127D01*
X76454Y172095D01*
X76532Y172060D01*
X76609Y172022D01*
X76683Y171980D01*
X76756Y171935D01*
X76827Y171887D01*
X76895Y171836D01*
X76962Y171782D01*
X77025Y171724D01*
X77087Y171665D01*
X77145Y171602D01*
X77201Y171537D01*
X77253Y171469D01*
X77303Y171400D01*
X77349Y171328D01*
X77392Y171254D01*
X77432Y171178D01*
X77469Y171101D01*
X77502Y171022D01*
X77532Y170942D01*
X77532Y170941D02*
X77611Y170774D01*
X77686Y170605D01*
X77757Y170434D01*
X77824Y170262D01*
X77886Y170088D01*
X77945Y169912D01*
X77999Y169736D01*
X78049Y169558D01*
X78095Y169378D01*
X78137Y169198D01*
X78174Y169017D01*
X78207Y168835D01*
X78236Y168653D01*
X78260Y168469D01*
X78280Y168285D01*
X78295Y168101D01*
X78306Y167917D01*
X78313Y167732D01*
X78315Y167547D01*
X73093Y167547D02*
X73095Y167362D01*
X73102Y167177D01*
X73113Y166993D01*
X73128Y166809D01*
X73148Y166625D01*
X73172Y166441D01*
X73201Y166259D01*
X73234Y166077D01*
X73271Y165896D01*
X73313Y165716D01*
X73359Y165536D01*
X73409Y165358D01*
X73463Y165182D01*
X73522Y165006D01*
X73584Y164832D01*
X73651Y164660D01*
X73722Y164489D01*
X73797Y164320D01*
X73876Y164153D01*
X73906Y164073D01*
X73939Y163994D01*
X73976Y163917D01*
X74016Y163841D01*
X74059Y163767D01*
X74105Y163695D01*
X74155Y163626D01*
X74208Y163558D01*
X74263Y163493D01*
X74322Y163430D01*
X74383Y163371D01*
X74446Y163313D01*
X74513Y163259D01*
X74581Y163208D01*
X74652Y163160D01*
X74725Y163115D01*
X74799Y163073D01*
X74876Y163035D01*
X74954Y163000D01*
X75033Y162968D01*
X75114Y162940D01*
X75196Y162916D01*
X75280Y162895D01*
X75363Y162878D01*
X75448Y162865D01*
X75533Y162856D01*
X75618Y162850D01*
X75704Y162848D01*
X77531Y164153D02*
X77610Y164320D01*
X77685Y164489D01*
X77756Y164660D01*
X77823Y164832D01*
X77885Y165006D01*
X77944Y165182D01*
X77998Y165358D01*
X78048Y165536D01*
X78094Y165716D01*
X78136Y165896D01*
X78173Y166077D01*
X78206Y166259D01*
X78235Y166441D01*
X78259Y166625D01*
X78279Y166809D01*
X78294Y166993D01*
X78305Y167177D01*
X78312Y167362D01*
X78314Y167547D01*
X77532Y164153D02*
X77502Y164073D01*
X77469Y163994D01*
X77432Y163917D01*
X77392Y163841D01*
X77349Y163767D01*
X77303Y163695D01*
X77253Y163626D01*
X77201Y163558D01*
X77145Y163493D01*
X77087Y163430D01*
X77025Y163371D01*
X76962Y163313D01*
X76895Y163259D01*
X76827Y163208D01*
X76756Y163160D01*
X76683Y163115D01*
X76609Y163073D01*
X76532Y163035D01*
X76454Y163000D01*
X76375Y162968D01*
X76294Y162940D01*
X76212Y162916D01*
X76128Y162895D01*
X76045Y162878D01*
X75960Y162865D01*
X75875Y162856D01*
X75790Y162850D01*
X75704Y162848D01*
X73615Y164937D02*
X77792Y170158D01*
X24376Y171479D02*
X24376Y162081D01*
X21766Y171479D02*
X26987Y171479D01*
X36043Y171479D02*
X29778Y162081D01*
X36043Y162081D02*
X29778Y171479D01*
X40227Y170174D02*
X40148Y170007D01*
X40073Y169838D01*
X40002Y169667D01*
X39935Y169495D01*
X39873Y169321D01*
X39814Y169145D01*
X39760Y168969D01*
X39710Y168791D01*
X39664Y168611D01*
X39622Y168431D01*
X39585Y168250D01*
X39552Y168068D01*
X39523Y167886D01*
X39499Y167702D01*
X39479Y167518D01*
X39464Y167334D01*
X39453Y167150D01*
X39446Y166965D01*
X39444Y166780D01*
X40227Y170174D02*
X40257Y170254D01*
X40290Y170333D01*
X40327Y170410D01*
X40367Y170486D01*
X40410Y170560D01*
X40456Y170632D01*
X40506Y170701D01*
X40558Y170769D01*
X40614Y170834D01*
X40672Y170897D01*
X40734Y170956D01*
X40797Y171014D01*
X40864Y171068D01*
X40932Y171119D01*
X41003Y171167D01*
X41076Y171212D01*
X41150Y171254D01*
X41227Y171292D01*
X41305Y171327D01*
X41384Y171359D01*
X41465Y171387D01*
X41547Y171411D01*
X41631Y171432D01*
X41714Y171449D01*
X41799Y171462D01*
X41884Y171471D01*
X41969Y171477D01*
X42055Y171479D01*
X42141Y171477D01*
X42226Y171471D01*
X42311Y171462D01*
X42396Y171449D01*
X42479Y171432D01*
X42563Y171411D01*
X42645Y171387D01*
X42726Y171359D01*
X42805Y171327D01*
X42883Y171292D01*
X42960Y171254D01*
X43034Y171212D01*
X43107Y171167D01*
X43178Y171119D01*
X43246Y171068D01*
X43313Y171014D01*
X43376Y170956D01*
X43438Y170897D01*
X43496Y170834D01*
X43552Y170769D01*
X43604Y170701D01*
X43654Y170632D01*
X43700Y170560D01*
X43743Y170486D01*
X43783Y170410D01*
X43820Y170333D01*
X43853Y170254D01*
X43883Y170174D01*
X43962Y170007D01*
X44037Y169838D01*
X44108Y169667D01*
X44175Y169495D01*
X44237Y169321D01*
X44296Y169145D01*
X44350Y168969D01*
X44400Y168791D01*
X44446Y168611D01*
X44488Y168431D01*
X44525Y168250D01*
X44558Y168068D01*
X44587Y167886D01*
X44611Y167702D01*
X44631Y167518D01*
X44646Y167334D01*
X44657Y167150D01*
X44664Y166965D01*
X44666Y166780D01*
X39444Y166780D02*
X39446Y166595D01*
X39453Y166410D01*
X39464Y166226D01*
X39479Y166042D01*
X39499Y165858D01*
X39523Y165674D01*
X39552Y165492D01*
X39585Y165310D01*
X39622Y165129D01*
X39664Y164949D01*
X39710Y164769D01*
X39760Y164591D01*
X39814Y164415D01*
X39873Y164239D01*
X39935Y164065D01*
X40002Y163893D01*
X40073Y163722D01*
X40148Y163553D01*
X40227Y163386D01*
X40257Y163306D01*
X40290Y163227D01*
X40327Y163150D01*
X40367Y163074D01*
X40410Y163000D01*
X40456Y162928D01*
X40506Y162859D01*
X40559Y162791D01*
X40614Y162726D01*
X40673Y162663D01*
X40734Y162604D01*
X40797Y162546D01*
X40864Y162492D01*
X40932Y162441D01*
X41003Y162393D01*
X41076Y162348D01*
X41150Y162306D01*
X41227Y162268D01*
X41305Y162233D01*
X41384Y162201D01*
X41465Y162173D01*
X41547Y162149D01*
X41631Y162128D01*
X41714Y162111D01*
X41799Y162098D01*
X41884Y162089D01*
X41969Y162083D01*
X42055Y162081D01*
X43882Y163386D02*
X43961Y163553D01*
X44036Y163722D01*
X44107Y163893D01*
X44174Y164065D01*
X44236Y164239D01*
X44295Y164415D01*
X44349Y164591D01*
X44399Y164769D01*
X44445Y164949D01*
X44487Y165129D01*
X44524Y165310D01*
X44557Y165492D01*
X44586Y165674D01*
X44610Y165858D01*
X44630Y166042D01*
X44645Y166226D01*
X44656Y166410D01*
X44663Y166595D01*
X44665Y166780D01*
X43883Y163386D02*
X43853Y163306D01*
X43820Y163227D01*
X43783Y163150D01*
X43743Y163074D01*
X43700Y163000D01*
X43654Y162928D01*
X43604Y162859D01*
X43552Y162791D01*
X43496Y162726D01*
X43438Y162663D01*
X43376Y162604D01*
X43313Y162546D01*
X43246Y162492D01*
X43178Y162441D01*
X43107Y162393D01*
X43034Y162348D01*
X42960Y162306D01*
X42883Y162268D01*
X42805Y162233D01*
X42726Y162201D01*
X42645Y162173D01*
X42563Y162149D01*
X42479Y162128D01*
X42396Y162111D01*
X42311Y162098D01*
X42226Y162089D01*
X42141Y162083D01*
X42055Y162081D01*
X39966Y164170D02*
X44143Y169391D01*
X45657Y68644D02*
X36259Y68644D01*
X36259Y71254D01*
X36258Y71254D02*
X36260Y71354D01*
X36266Y71454D01*
X36275Y71553D01*
X36289Y71653D01*
X36306Y71751D01*
X36327Y71849D01*
X36351Y71946D01*
X36380Y72042D01*
X36412Y72137D01*
X36447Y72230D01*
X36486Y72322D01*
X36529Y72413D01*
X36575Y72501D01*
X36625Y72588D01*
X36677Y72673D01*
X36733Y72756D01*
X36792Y72837D01*
X36855Y72915D01*
X36920Y72991D01*
X36988Y73065D01*
X37058Y73135D01*
X37132Y73203D01*
X37208Y73268D01*
X37286Y73331D01*
X37367Y73390D01*
X37450Y73446D01*
X37535Y73498D01*
X37622Y73548D01*
X37710Y73594D01*
X37801Y73637D01*
X37893Y73676D01*
X37986Y73711D01*
X38081Y73743D01*
X38177Y73772D01*
X38274Y73796D01*
X38372Y73817D01*
X38470Y73834D01*
X38570Y73848D01*
X38669Y73857D01*
X38769Y73863D01*
X38869Y73865D01*
X43046Y73865D01*
X43146Y73863D01*
X43246Y73857D01*
X43345Y73848D01*
X43445Y73834D01*
X43543Y73817D01*
X43641Y73796D01*
X43738Y73772D01*
X43834Y73743D01*
X43929Y73711D01*
X44022Y73676D01*
X44114Y73637D01*
X44205Y73594D01*
X44293Y73548D01*
X44380Y73498D01*
X44465Y73446D01*
X44548Y73390D01*
X44629Y73331D01*
X44707Y73268D01*
X44783Y73203D01*
X44857Y73135D01*
X44927Y73065D01*
X44995Y72991D01*
X45060Y72915D01*
X45123Y72837D01*
X45182Y72756D01*
X45238Y72673D01*
X45290Y72588D01*
X45340Y72501D01*
X45386Y72413D01*
X45429Y72322D01*
X45468Y72230D01*
X45503Y72137D01*
X45535Y72042D01*
X45564Y71946D01*
X45588Y71849D01*
X45609Y71751D01*
X45626Y71653D01*
X45640Y71553D01*
X45649Y71454D01*
X45655Y71354D01*
X45657Y71254D01*
X45657Y68644D01*
X42002Y78180D02*
X42002Y84445D01*
X60071Y68644D02*
X69469Y68644D01*
X60071Y68644D02*
X60071Y71254D01*
X60073Y71354D01*
X60079Y71454D01*
X60088Y71553D01*
X60102Y71653D01*
X60119Y71751D01*
X60140Y71849D01*
X60164Y71946D01*
X60193Y72042D01*
X60225Y72137D01*
X60260Y72230D01*
X60299Y72322D01*
X60342Y72413D01*
X60388Y72501D01*
X60438Y72588D01*
X60490Y72673D01*
X60546Y72756D01*
X60605Y72837D01*
X60668Y72915D01*
X60733Y72991D01*
X60801Y73065D01*
X60871Y73135D01*
X60945Y73203D01*
X61021Y73268D01*
X61099Y73331D01*
X61180Y73390D01*
X61263Y73446D01*
X61348Y73498D01*
X61435Y73548D01*
X61523Y73594D01*
X61614Y73637D01*
X61706Y73676D01*
X61799Y73711D01*
X61894Y73743D01*
X61990Y73772D01*
X62087Y73796D01*
X62185Y73817D01*
X62283Y73834D01*
X62383Y73848D01*
X62482Y73857D01*
X62582Y73863D01*
X62682Y73865D01*
X66858Y73865D01*
X66958Y73863D01*
X67058Y73857D01*
X67157Y73848D01*
X67257Y73834D01*
X67355Y73817D01*
X67453Y73796D01*
X67550Y73772D01*
X67646Y73743D01*
X67741Y73711D01*
X67834Y73676D01*
X67926Y73637D01*
X68017Y73594D01*
X68105Y73548D01*
X68192Y73498D01*
X68277Y73446D01*
X68360Y73390D01*
X68441Y73331D01*
X68519Y73268D01*
X68595Y73203D01*
X68669Y73135D01*
X68739Y73065D01*
X68807Y72991D01*
X68872Y72915D01*
X68935Y72837D01*
X68994Y72756D01*
X69050Y72673D01*
X69102Y72588D01*
X69152Y72501D01*
X69198Y72413D01*
X69241Y72322D01*
X69280Y72230D01*
X69315Y72137D01*
X69347Y72042D01*
X69376Y71946D01*
X69400Y71849D01*
X69421Y71751D01*
X69438Y71653D01*
X69452Y71553D01*
X69461Y71454D01*
X69467Y71354D01*
X69469Y71254D01*
X69469Y68644D01*
X65814Y78180D02*
X65814Y84445D01*
X68947Y81312D02*
X62682Y81312D01*
D126*
X-44600Y56375D02*
X-44600Y38875D01*
X-31600Y38875D02*
X-31600Y56375D01*
D123*
X-33694Y38444D02*
X-43092Y38444D01*
X-43092Y41054D01*
X-43090Y41154D01*
X-43084Y41254D01*
X-43075Y41353D01*
X-43061Y41453D01*
X-43044Y41551D01*
X-43023Y41649D01*
X-42999Y41746D01*
X-42970Y41842D01*
X-42938Y41937D01*
X-42903Y42030D01*
X-42864Y42122D01*
X-42821Y42213D01*
X-42775Y42301D01*
X-42725Y42388D01*
X-42673Y42473D01*
X-42617Y42556D01*
X-42558Y42637D01*
X-42495Y42715D01*
X-42430Y42791D01*
X-42362Y42865D01*
X-42292Y42935D01*
X-42218Y43003D01*
X-42142Y43068D01*
X-42064Y43131D01*
X-41983Y43190D01*
X-41900Y43246D01*
X-41815Y43298D01*
X-41728Y43348D01*
X-41640Y43394D01*
X-41549Y43437D01*
X-41457Y43476D01*
X-41364Y43511D01*
X-41269Y43543D01*
X-41173Y43572D01*
X-41076Y43596D01*
X-40978Y43617D01*
X-40880Y43634D01*
X-40780Y43648D01*
X-40681Y43657D01*
X-40581Y43663D01*
X-40481Y43665D01*
X-36304Y43665D01*
X-36204Y43663D01*
X-36104Y43657D01*
X-36005Y43648D01*
X-35905Y43634D01*
X-35807Y43617D01*
X-35709Y43596D01*
X-35612Y43572D01*
X-35516Y43543D01*
X-35421Y43511D01*
X-35328Y43476D01*
X-35236Y43437D01*
X-35145Y43394D01*
X-35057Y43348D01*
X-34970Y43298D01*
X-34885Y43246D01*
X-34802Y43190D01*
X-34721Y43131D01*
X-34643Y43068D01*
X-34567Y43003D01*
X-34493Y42935D01*
X-34423Y42865D01*
X-34355Y42791D01*
X-34290Y42715D01*
X-34227Y42637D01*
X-34168Y42556D01*
X-34112Y42473D01*
X-34060Y42388D01*
X-34010Y42301D01*
X-33964Y42213D01*
X-33921Y42122D01*
X-33882Y42030D01*
X-33847Y41937D01*
X-33815Y41842D01*
X-33786Y41746D01*
X-33762Y41649D01*
X-33741Y41551D01*
X-33724Y41453D01*
X-33710Y41353D01*
X-33701Y41254D01*
X-33695Y41154D01*
X-33693Y41054D01*
X-33694Y41054D02*
X-33694Y38444D01*
X-43092Y50764D02*
X-43090Y50859D01*
X-43084Y50953D01*
X-43075Y51047D01*
X-43062Y51141D01*
X-43045Y51234D01*
X-43024Y51326D01*
X-42999Y51418D01*
X-42971Y51508D01*
X-42939Y51597D01*
X-42904Y51685D01*
X-42865Y51771D01*
X-42823Y51856D01*
X-42777Y51939D01*
X-42728Y52020D01*
X-42676Y52099D01*
X-42621Y52176D01*
X-42562Y52250D01*
X-42501Y52322D01*
X-42437Y52392D01*
X-42370Y52459D01*
X-42300Y52523D01*
X-42228Y52584D01*
X-42154Y52643D01*
X-42077Y52698D01*
X-41998Y52750D01*
X-41917Y52799D01*
X-41834Y52845D01*
X-41749Y52887D01*
X-41663Y52926D01*
X-41575Y52961D01*
X-41486Y52993D01*
X-41396Y53021D01*
X-41304Y53046D01*
X-41212Y53067D01*
X-41119Y53084D01*
X-41025Y53097D01*
X-40931Y53106D01*
X-40837Y53112D01*
X-40742Y53114D01*
X-43091Y50764D02*
X-43089Y50656D01*
X-43083Y50547D01*
X-43073Y50439D01*
X-43060Y50332D01*
X-43042Y50225D01*
X-43021Y50118D01*
X-42996Y50013D01*
X-42967Y49908D01*
X-42935Y49805D01*
X-42898Y49703D01*
X-42858Y49602D01*
X-42815Y49503D01*
X-42768Y49405D01*
X-42717Y49309D01*
X-42663Y49215D01*
X-42606Y49123D01*
X-42545Y49033D01*
X-42481Y48945D01*
X-42415Y48860D01*
X-42345Y48777D01*
X-42272Y48697D01*
X-42196Y48619D01*
X-42118Y48544D01*
X-42037Y48472D01*
X-41953Y48403D01*
X-41867Y48337D01*
X-41779Y48274D01*
X-41688Y48215D01*
X-41596Y48158D01*
X-41501Y48105D01*
X-41405Y48056D01*
X-41306Y48010D01*
X-41207Y47967D01*
X-41105Y47928D01*
X-41003Y47893D01*
X-38914Y52331D02*
X-38983Y52400D01*
X-39054Y52466D01*
X-39127Y52530D01*
X-39203Y52591D01*
X-39282Y52649D01*
X-39362Y52703D01*
X-39445Y52755D01*
X-39529Y52803D01*
X-39615Y52849D01*
X-39703Y52890D01*
X-39793Y52929D01*
X-39884Y52964D01*
X-39976Y52995D01*
X-40069Y53023D01*
X-40163Y53047D01*
X-40258Y53067D01*
X-40354Y53084D01*
X-40451Y53097D01*
X-40548Y53106D01*
X-40645Y53112D01*
X-40742Y53114D01*
X-38915Y52330D02*
X-33694Y47892D01*
X-33694Y53113D01*
D126*
X-60475Y56375D02*
X-60475Y38875D01*
X-47475Y38875D02*
X-47475Y56375D01*
D123*
X-49569Y38444D02*
X-58967Y38444D01*
X-58967Y41054D01*
X-58965Y41154D01*
X-58959Y41254D01*
X-58950Y41353D01*
X-58936Y41453D01*
X-58919Y41551D01*
X-58898Y41649D01*
X-58874Y41746D01*
X-58845Y41842D01*
X-58813Y41937D01*
X-58778Y42030D01*
X-58739Y42122D01*
X-58696Y42213D01*
X-58650Y42301D01*
X-58600Y42388D01*
X-58548Y42473D01*
X-58492Y42556D01*
X-58433Y42637D01*
X-58370Y42715D01*
X-58305Y42791D01*
X-58237Y42865D01*
X-58167Y42935D01*
X-58093Y43003D01*
X-58017Y43068D01*
X-57939Y43131D01*
X-57858Y43190D01*
X-57775Y43246D01*
X-57690Y43298D01*
X-57603Y43348D01*
X-57515Y43394D01*
X-57424Y43437D01*
X-57332Y43476D01*
X-57239Y43511D01*
X-57144Y43543D01*
X-57048Y43572D01*
X-56951Y43596D01*
X-56853Y43617D01*
X-56755Y43634D01*
X-56655Y43648D01*
X-56556Y43657D01*
X-56456Y43663D01*
X-56356Y43665D01*
X-52179Y43665D01*
X-52079Y43663D01*
X-51979Y43657D01*
X-51880Y43648D01*
X-51780Y43634D01*
X-51682Y43617D01*
X-51584Y43596D01*
X-51487Y43572D01*
X-51391Y43543D01*
X-51296Y43511D01*
X-51203Y43476D01*
X-51111Y43437D01*
X-51020Y43394D01*
X-50932Y43348D01*
X-50845Y43298D01*
X-50760Y43246D01*
X-50677Y43190D01*
X-50596Y43131D01*
X-50518Y43068D01*
X-50442Y43003D01*
X-50368Y42935D01*
X-50298Y42865D01*
X-50230Y42791D01*
X-50165Y42715D01*
X-50102Y42637D01*
X-50043Y42556D01*
X-49987Y42473D01*
X-49935Y42388D01*
X-49885Y42301D01*
X-49839Y42213D01*
X-49796Y42122D01*
X-49757Y42030D01*
X-49722Y41937D01*
X-49690Y41842D01*
X-49661Y41746D01*
X-49637Y41649D01*
X-49616Y41551D01*
X-49599Y41453D01*
X-49585Y41353D01*
X-49576Y41254D01*
X-49570Y41154D01*
X-49568Y41054D01*
X-49569Y41054D02*
X-49569Y38444D01*
X-49569Y47892D02*
X-49569Y50503D01*
X-49568Y50503D02*
X-49570Y50604D01*
X-49576Y50705D01*
X-49586Y50806D01*
X-49599Y50906D01*
X-49617Y51006D01*
X-49638Y51105D01*
X-49664Y51203D01*
X-49693Y51300D01*
X-49725Y51396D01*
X-49762Y51490D01*
X-49802Y51583D01*
X-49846Y51675D01*
X-49893Y51764D01*
X-49944Y51852D01*
X-49998Y51938D01*
X-50055Y52021D01*
X-50115Y52103D01*
X-50179Y52181D01*
X-50245Y52258D01*
X-50315Y52331D01*
X-50387Y52402D01*
X-50462Y52470D01*
X-50540Y52535D01*
X-50620Y52597D01*
X-50702Y52656D01*
X-50787Y52712D01*
X-50874Y52764D01*
X-50962Y52813D01*
X-51053Y52859D01*
X-51145Y52900D01*
X-51239Y52939D01*
X-51334Y52973D01*
X-51430Y53004D01*
X-51528Y53031D01*
X-51626Y53055D01*
X-51726Y53074D01*
X-51826Y53090D01*
X-51926Y53102D01*
X-52027Y53110D01*
X-52128Y53114D01*
X-52230Y53114D01*
X-52331Y53110D01*
X-52432Y53102D01*
X-52532Y53090D01*
X-52632Y53074D01*
X-52732Y53055D01*
X-52830Y53031D01*
X-52928Y53004D01*
X-53024Y52973D01*
X-53119Y52939D01*
X-53213Y52900D01*
X-53305Y52859D01*
X-53396Y52813D01*
X-53485Y52764D01*
X-53571Y52712D01*
X-53656Y52656D01*
X-53738Y52597D01*
X-53818Y52535D01*
X-53896Y52470D01*
X-53971Y52402D01*
X-54043Y52331D01*
X-54113Y52258D01*
X-54179Y52181D01*
X-54243Y52103D01*
X-54303Y52021D01*
X-54360Y51938D01*
X-54414Y51852D01*
X-54465Y51764D01*
X-54512Y51675D01*
X-54556Y51583D01*
X-54596Y51490D01*
X-54633Y51396D01*
X-54665Y51300D01*
X-54694Y51203D01*
X-54720Y51105D01*
X-54741Y51006D01*
X-54759Y50906D01*
X-54772Y50806D01*
X-54782Y50705D01*
X-54788Y50604D01*
X-54790Y50503D01*
X-58967Y51025D02*
X-58967Y47892D01*
X-58966Y51025D02*
X-58964Y51115D01*
X-58958Y51204D01*
X-58949Y51294D01*
X-58935Y51383D01*
X-58918Y51471D01*
X-58897Y51558D01*
X-58872Y51645D01*
X-58843Y51730D01*
X-58811Y51814D01*
X-58776Y51896D01*
X-58736Y51977D01*
X-58694Y52056D01*
X-58648Y52133D01*
X-58598Y52208D01*
X-58546Y52281D01*
X-58490Y52352D01*
X-58432Y52420D01*
X-58370Y52485D01*
X-58306Y52548D01*
X-58239Y52608D01*
X-58170Y52665D01*
X-58098Y52719D01*
X-58024Y52770D01*
X-57948Y52818D01*
X-57870Y52862D01*
X-57790Y52903D01*
X-57708Y52941D01*
X-57625Y52975D01*
X-57540Y53005D01*
X-57454Y53032D01*
X-57368Y53055D01*
X-57280Y53074D01*
X-57191Y53089D01*
X-57102Y53101D01*
X-57013Y53109D01*
X-56923Y53113D01*
X-56833Y53113D01*
X-56743Y53109D01*
X-56654Y53101D01*
X-56565Y53089D01*
X-56476Y53074D01*
X-56388Y53055D01*
X-56302Y53032D01*
X-56216Y53005D01*
X-56131Y52975D01*
X-56048Y52941D01*
X-55966Y52903D01*
X-55886Y52862D01*
X-55808Y52818D01*
X-55732Y52770D01*
X-55658Y52719D01*
X-55586Y52665D01*
X-55517Y52608D01*
X-55450Y52548D01*
X-55386Y52485D01*
X-55324Y52420D01*
X-55266Y52352D01*
X-55210Y52281D01*
X-55158Y52208D01*
X-55108Y52133D01*
X-55062Y52056D01*
X-55020Y51977D01*
X-54980Y51896D01*
X-54945Y51814D01*
X-54913Y51730D01*
X-54884Y51645D01*
X-54859Y51558D01*
X-54838Y51471D01*
X-54821Y51383D01*
X-54807Y51294D01*
X-54798Y51204D01*
X-54792Y51115D01*
X-54790Y51025D01*
X-54790Y48937D01*
D126*
X-76350Y56375D02*
X-76350Y38875D01*
X-63350Y38875D02*
X-63350Y56375D01*
D123*
X-65444Y38444D02*
X-74842Y38444D01*
X-74842Y41054D01*
X-74840Y41154D01*
X-74834Y41254D01*
X-74825Y41353D01*
X-74811Y41453D01*
X-74794Y41551D01*
X-74773Y41649D01*
X-74749Y41746D01*
X-74720Y41842D01*
X-74688Y41937D01*
X-74653Y42030D01*
X-74614Y42122D01*
X-74571Y42213D01*
X-74525Y42301D01*
X-74475Y42388D01*
X-74423Y42473D01*
X-74367Y42556D01*
X-74308Y42637D01*
X-74245Y42715D01*
X-74180Y42791D01*
X-74112Y42865D01*
X-74042Y42935D01*
X-73968Y43003D01*
X-73892Y43068D01*
X-73814Y43131D01*
X-73733Y43190D01*
X-73650Y43246D01*
X-73565Y43298D01*
X-73478Y43348D01*
X-73390Y43394D01*
X-73299Y43437D01*
X-73207Y43476D01*
X-73114Y43511D01*
X-73019Y43543D01*
X-72923Y43572D01*
X-72826Y43596D01*
X-72728Y43617D01*
X-72630Y43634D01*
X-72530Y43648D01*
X-72431Y43657D01*
X-72331Y43663D01*
X-72231Y43665D01*
X-68054Y43665D01*
X-67954Y43663D01*
X-67854Y43657D01*
X-67755Y43648D01*
X-67655Y43634D01*
X-67557Y43617D01*
X-67459Y43596D01*
X-67362Y43572D01*
X-67266Y43543D01*
X-67171Y43511D01*
X-67078Y43476D01*
X-66986Y43437D01*
X-66895Y43394D01*
X-66807Y43348D01*
X-66720Y43298D01*
X-66635Y43246D01*
X-66552Y43190D01*
X-66471Y43131D01*
X-66393Y43068D01*
X-66317Y43003D01*
X-66243Y42935D01*
X-66173Y42865D01*
X-66105Y42791D01*
X-66040Y42715D01*
X-65977Y42637D01*
X-65918Y42556D01*
X-65862Y42473D01*
X-65810Y42388D01*
X-65760Y42301D01*
X-65714Y42213D01*
X-65671Y42122D01*
X-65632Y42030D01*
X-65597Y41937D01*
X-65565Y41842D01*
X-65536Y41746D01*
X-65512Y41649D01*
X-65491Y41551D01*
X-65474Y41453D01*
X-65460Y41353D01*
X-65451Y41254D01*
X-65445Y41154D01*
X-65443Y41054D01*
X-65444Y41054D02*
X-65444Y38444D01*
X-67532Y47892D02*
X-74842Y49981D01*
X-67532Y47892D02*
X-67532Y53113D01*
X-69620Y51547D02*
X-65444Y51547D01*
D126*
X-28725Y56375D02*
X-28725Y38875D01*
X-15725Y38875D02*
X-15725Y56375D01*
D123*
X-17819Y38444D02*
X-27217Y38444D01*
X-27217Y41054D01*
X-27215Y41154D01*
X-27209Y41254D01*
X-27200Y41353D01*
X-27186Y41453D01*
X-27169Y41551D01*
X-27148Y41649D01*
X-27124Y41746D01*
X-27095Y41842D01*
X-27063Y41937D01*
X-27028Y42030D01*
X-26989Y42122D01*
X-26946Y42213D01*
X-26900Y42301D01*
X-26850Y42388D01*
X-26798Y42473D01*
X-26742Y42556D01*
X-26683Y42637D01*
X-26620Y42715D01*
X-26555Y42791D01*
X-26487Y42865D01*
X-26417Y42935D01*
X-26343Y43003D01*
X-26267Y43068D01*
X-26189Y43131D01*
X-26108Y43190D01*
X-26025Y43246D01*
X-25940Y43298D01*
X-25853Y43348D01*
X-25765Y43394D01*
X-25674Y43437D01*
X-25582Y43476D01*
X-25489Y43511D01*
X-25394Y43543D01*
X-25298Y43572D01*
X-25201Y43596D01*
X-25103Y43617D01*
X-25005Y43634D01*
X-24905Y43648D01*
X-24806Y43657D01*
X-24706Y43663D01*
X-24606Y43665D01*
X-20429Y43665D01*
X-20329Y43663D01*
X-20229Y43657D01*
X-20130Y43648D01*
X-20030Y43634D01*
X-19932Y43617D01*
X-19834Y43596D01*
X-19737Y43572D01*
X-19641Y43543D01*
X-19546Y43511D01*
X-19453Y43476D01*
X-19361Y43437D01*
X-19270Y43394D01*
X-19182Y43348D01*
X-19095Y43298D01*
X-19010Y43246D01*
X-18927Y43190D01*
X-18846Y43131D01*
X-18768Y43068D01*
X-18692Y43003D01*
X-18618Y42935D01*
X-18548Y42865D01*
X-18480Y42791D01*
X-18415Y42715D01*
X-18352Y42637D01*
X-18293Y42556D01*
X-18237Y42473D01*
X-18185Y42388D01*
X-18135Y42301D01*
X-18089Y42213D01*
X-18046Y42122D01*
X-18007Y42030D01*
X-17972Y41937D01*
X-17940Y41842D01*
X-17911Y41746D01*
X-17887Y41649D01*
X-17866Y41551D01*
X-17849Y41453D01*
X-17835Y41353D01*
X-17826Y41254D01*
X-17820Y41154D01*
X-17818Y41054D01*
X-17819Y41054D02*
X-17819Y38444D01*
X-17819Y47892D02*
X-17819Y51025D01*
X-17821Y51114D01*
X-17827Y51202D01*
X-17836Y51290D01*
X-17849Y51378D01*
X-17866Y51465D01*
X-17886Y51551D01*
X-17911Y51636D01*
X-17938Y51721D01*
X-17970Y51804D01*
X-18004Y51885D01*
X-18043Y51965D01*
X-18084Y52043D01*
X-18129Y52120D01*
X-18177Y52194D01*
X-18228Y52267D01*
X-18282Y52337D01*
X-18340Y52404D01*
X-18400Y52470D01*
X-18462Y52532D01*
X-18528Y52592D01*
X-18595Y52650D01*
X-18665Y52704D01*
X-18738Y52755D01*
X-18812Y52803D01*
X-18889Y52848D01*
X-18967Y52889D01*
X-19047Y52928D01*
X-19128Y52962D01*
X-19211Y52994D01*
X-19296Y53021D01*
X-19381Y53046D01*
X-19467Y53066D01*
X-19554Y53083D01*
X-19642Y53096D01*
X-19730Y53105D01*
X-19818Y53111D01*
X-19907Y53113D01*
X-20951Y53113D01*
X-21040Y53111D01*
X-21128Y53105D01*
X-21216Y53096D01*
X-21304Y53083D01*
X-21391Y53066D01*
X-21477Y53046D01*
X-21562Y53021D01*
X-21647Y52994D01*
X-21730Y52962D01*
X-21811Y52928D01*
X-21891Y52889D01*
X-21969Y52848D01*
X-22046Y52803D01*
X-22120Y52755D01*
X-22193Y52704D01*
X-22263Y52650D01*
X-22330Y52592D01*
X-22396Y52532D01*
X-22458Y52470D01*
X-22518Y52404D01*
X-22576Y52337D01*
X-22630Y52267D01*
X-22681Y52194D01*
X-22729Y52120D01*
X-22774Y52043D01*
X-22815Y51965D01*
X-22854Y51885D01*
X-22888Y51804D01*
X-22920Y51721D01*
X-22947Y51636D01*
X-22972Y51551D01*
X-22992Y51465D01*
X-23009Y51378D01*
X-23022Y51290D01*
X-23031Y51202D01*
X-23037Y51114D01*
X-23039Y51025D01*
X-23040Y51025D02*
X-23040Y47892D01*
X-27217Y47892D01*
X-27217Y53113D01*
X41656Y92055D02*
X51054Y92055D01*
X41656Y92055D02*
X41656Y94665D01*
X41658Y94766D01*
X41664Y94867D01*
X41674Y94968D01*
X41687Y95068D01*
X41705Y95168D01*
X41726Y95267D01*
X41752Y95365D01*
X41781Y95462D01*
X41813Y95558D01*
X41850Y95652D01*
X41890Y95745D01*
X41934Y95837D01*
X41981Y95926D01*
X42032Y96014D01*
X42086Y96100D01*
X42143Y96183D01*
X42203Y96265D01*
X42267Y96343D01*
X42333Y96420D01*
X42403Y96493D01*
X42475Y96564D01*
X42550Y96632D01*
X42628Y96697D01*
X42708Y96759D01*
X42790Y96818D01*
X42875Y96874D01*
X42962Y96926D01*
X43050Y96975D01*
X43141Y97021D01*
X43233Y97062D01*
X43327Y97101D01*
X43422Y97135D01*
X43518Y97166D01*
X43616Y97193D01*
X43714Y97217D01*
X43814Y97236D01*
X43914Y97252D01*
X44014Y97264D01*
X44115Y97272D01*
X44216Y97276D01*
X44318Y97276D01*
X44419Y97272D01*
X44520Y97264D01*
X44620Y97252D01*
X44720Y97236D01*
X44820Y97217D01*
X44918Y97193D01*
X45016Y97166D01*
X45112Y97135D01*
X45207Y97101D01*
X45301Y97062D01*
X45393Y97021D01*
X45484Y96975D01*
X45573Y96926D01*
X45659Y96874D01*
X45744Y96818D01*
X45826Y96759D01*
X45906Y96697D01*
X45984Y96632D01*
X46059Y96564D01*
X46131Y96493D01*
X46201Y96420D01*
X46267Y96343D01*
X46331Y96265D01*
X46391Y96183D01*
X46448Y96100D01*
X46502Y96014D01*
X46553Y95926D01*
X46600Y95837D01*
X46644Y95745D01*
X46684Y95652D01*
X46721Y95558D01*
X46753Y95462D01*
X46782Y95365D01*
X46808Y95267D01*
X46829Y95168D01*
X46847Y95068D01*
X46860Y94968D01*
X46870Y94867D01*
X46876Y94766D01*
X46878Y94665D01*
X46877Y94665D02*
X46877Y92055D01*
X46877Y95187D02*
X51054Y97276D01*
X43744Y101141D02*
X41656Y103752D01*
X51054Y103752D01*
X51054Y101141D02*
X51054Y106363D01*
X45833Y110285D02*
X45833Y113418D01*
X45835Y113507D01*
X45841Y113595D01*
X45850Y113683D01*
X45863Y113771D01*
X45880Y113858D01*
X45900Y113944D01*
X45925Y114029D01*
X45952Y114114D01*
X45984Y114197D01*
X46018Y114278D01*
X46057Y114358D01*
X46098Y114436D01*
X46143Y114513D01*
X46191Y114587D01*
X46242Y114660D01*
X46296Y114730D01*
X46354Y114797D01*
X46414Y114863D01*
X46476Y114925D01*
X46542Y114985D01*
X46609Y115043D01*
X46679Y115097D01*
X46752Y115148D01*
X46826Y115196D01*
X46903Y115241D01*
X46981Y115282D01*
X47061Y115321D01*
X47142Y115355D01*
X47225Y115387D01*
X47310Y115414D01*
X47395Y115439D01*
X47481Y115459D01*
X47568Y115476D01*
X47656Y115489D01*
X47744Y115498D01*
X47832Y115504D01*
X47921Y115506D01*
X47921Y115507D02*
X48443Y115507D01*
X48544Y115505D01*
X48645Y115499D01*
X48746Y115489D01*
X48846Y115476D01*
X48946Y115458D01*
X49045Y115437D01*
X49143Y115411D01*
X49240Y115382D01*
X49336Y115350D01*
X49430Y115313D01*
X49523Y115273D01*
X49615Y115229D01*
X49704Y115182D01*
X49792Y115131D01*
X49878Y115077D01*
X49961Y115020D01*
X50043Y114960D01*
X50121Y114896D01*
X50198Y114830D01*
X50271Y114760D01*
X50342Y114688D01*
X50410Y114613D01*
X50475Y114535D01*
X50537Y114455D01*
X50596Y114373D01*
X50652Y114288D01*
X50704Y114201D01*
X50753Y114113D01*
X50799Y114022D01*
X50840Y113930D01*
X50879Y113836D01*
X50913Y113741D01*
X50944Y113645D01*
X50971Y113547D01*
X50995Y113449D01*
X51014Y113349D01*
X51030Y113249D01*
X51042Y113149D01*
X51050Y113048D01*
X51054Y112947D01*
X51054Y112845D01*
X51050Y112744D01*
X51042Y112643D01*
X51030Y112543D01*
X51014Y112443D01*
X50995Y112343D01*
X50971Y112245D01*
X50944Y112147D01*
X50913Y112051D01*
X50879Y111956D01*
X50840Y111862D01*
X50799Y111770D01*
X50753Y111679D01*
X50704Y111590D01*
X50652Y111504D01*
X50596Y111419D01*
X50537Y111337D01*
X50475Y111257D01*
X50410Y111179D01*
X50342Y111104D01*
X50271Y111032D01*
X50198Y110962D01*
X50121Y110896D01*
X50043Y110832D01*
X49961Y110772D01*
X49878Y110715D01*
X49792Y110661D01*
X49704Y110610D01*
X49615Y110563D01*
X49523Y110519D01*
X49430Y110479D01*
X49336Y110442D01*
X49240Y110410D01*
X49143Y110381D01*
X49045Y110355D01*
X48946Y110334D01*
X48846Y110316D01*
X48746Y110303D01*
X48645Y110293D01*
X48544Y110287D01*
X48443Y110285D01*
X45833Y110285D01*
X45704Y110287D01*
X45576Y110293D01*
X45448Y110303D01*
X45320Y110317D01*
X45192Y110334D01*
X45065Y110356D01*
X44939Y110382D01*
X44814Y110411D01*
X44690Y110444D01*
X44567Y110482D01*
X44445Y110522D01*
X44324Y110567D01*
X44205Y110615D01*
X44087Y110667D01*
X43971Y110723D01*
X43857Y110782D01*
X43745Y110845D01*
X43634Y110911D01*
X43526Y110980D01*
X43420Y111053D01*
X43316Y111129D01*
X43214Y111208D01*
X43115Y111290D01*
X43019Y111375D01*
X42925Y111463D01*
X42834Y111554D01*
X42746Y111648D01*
X42661Y111744D01*
X42579Y111843D01*
X42500Y111945D01*
X42424Y112049D01*
X42351Y112155D01*
X42282Y112263D01*
X42216Y112373D01*
X42153Y112486D01*
X42094Y112600D01*
X42038Y112716D01*
X41986Y112834D01*
X41938Y112953D01*
X41893Y113074D01*
X41853Y113196D01*
X41815Y113319D01*
X41782Y113443D01*
X41753Y113568D01*
X41727Y113694D01*
X41705Y113821D01*
X41688Y113949D01*
X41674Y114077D01*
X41664Y114205D01*
X41658Y114333D01*
X41656Y114462D01*
X65469Y92055D02*
X74867Y92055D01*
X65469Y92055D02*
X65469Y94665D01*
X65468Y94665D02*
X65470Y94766D01*
X65476Y94867D01*
X65486Y94968D01*
X65499Y95068D01*
X65517Y95168D01*
X65538Y95267D01*
X65564Y95365D01*
X65593Y95462D01*
X65625Y95558D01*
X65662Y95652D01*
X65702Y95745D01*
X65746Y95837D01*
X65793Y95926D01*
X65844Y96014D01*
X65898Y96100D01*
X65955Y96183D01*
X66015Y96265D01*
X66079Y96343D01*
X66145Y96420D01*
X66215Y96493D01*
X66287Y96564D01*
X66362Y96632D01*
X66440Y96697D01*
X66520Y96759D01*
X66602Y96818D01*
X66687Y96874D01*
X66774Y96926D01*
X66862Y96975D01*
X66953Y97021D01*
X67045Y97062D01*
X67139Y97101D01*
X67234Y97135D01*
X67330Y97166D01*
X67428Y97193D01*
X67526Y97217D01*
X67626Y97236D01*
X67726Y97252D01*
X67826Y97264D01*
X67927Y97272D01*
X68028Y97276D01*
X68130Y97276D01*
X68231Y97272D01*
X68332Y97264D01*
X68432Y97252D01*
X68532Y97236D01*
X68632Y97217D01*
X68730Y97193D01*
X68828Y97166D01*
X68924Y97135D01*
X69019Y97101D01*
X69113Y97062D01*
X69205Y97021D01*
X69296Y96975D01*
X69385Y96926D01*
X69471Y96874D01*
X69556Y96818D01*
X69638Y96759D01*
X69718Y96697D01*
X69796Y96632D01*
X69871Y96564D01*
X69943Y96493D01*
X70013Y96420D01*
X70079Y96343D01*
X70143Y96265D01*
X70203Y96183D01*
X70260Y96100D01*
X70314Y96014D01*
X70365Y95926D01*
X70412Y95837D01*
X70456Y95745D01*
X70496Y95652D01*
X70533Y95558D01*
X70565Y95462D01*
X70594Y95365D01*
X70620Y95267D01*
X70641Y95168D01*
X70659Y95068D01*
X70672Y94968D01*
X70682Y94867D01*
X70688Y94766D01*
X70690Y94665D01*
X70690Y92055D01*
X70690Y95187D02*
X74867Y97276D01*
X67557Y101141D02*
X65469Y103752D01*
X74867Y103752D01*
X74867Y101141D02*
X74867Y106363D01*
X66513Y110285D02*
X65469Y110285D01*
X65469Y115507D01*
X74867Y112896D01*
X82884Y129921D02*
X84973Y129921D01*
X82884Y129921D02*
X82795Y129923D01*
X82707Y129929D01*
X82619Y129938D01*
X82531Y129951D01*
X82444Y129968D01*
X82358Y129988D01*
X82273Y130013D01*
X82188Y130040D01*
X82105Y130072D01*
X82024Y130106D01*
X81944Y130145D01*
X81866Y130186D01*
X81789Y130231D01*
X81715Y130279D01*
X81642Y130330D01*
X81572Y130384D01*
X81505Y130442D01*
X81439Y130502D01*
X81377Y130564D01*
X81317Y130630D01*
X81259Y130697D01*
X81205Y130767D01*
X81154Y130840D01*
X81106Y130914D01*
X81061Y130991D01*
X81020Y131069D01*
X80981Y131149D01*
X80947Y131230D01*
X80915Y131313D01*
X80888Y131398D01*
X80863Y131483D01*
X80843Y131569D01*
X80826Y131656D01*
X80813Y131744D01*
X80804Y131832D01*
X80798Y131920D01*
X80796Y132009D01*
X80796Y137231D01*
X80798Y137322D01*
X80804Y137413D01*
X80814Y137504D01*
X80828Y137594D01*
X80845Y137683D01*
X80867Y137771D01*
X80893Y137859D01*
X80922Y137945D01*
X80955Y138030D01*
X80992Y138113D01*
X81032Y138195D01*
X81076Y138275D01*
X81123Y138353D01*
X81174Y138429D01*
X81227Y138502D01*
X81284Y138573D01*
X81345Y138642D01*
X81408Y138707D01*
X81473Y138770D01*
X81542Y138830D01*
X81613Y138888D01*
X81686Y138941D01*
X81762Y138992D01*
X81840Y139039D01*
X81920Y139083D01*
X82002Y139123D01*
X82085Y139160D01*
X82170Y139193D01*
X82256Y139222D01*
X82344Y139248D01*
X82432Y139270D01*
X82521Y139287D01*
X82611Y139301D01*
X82702Y139311D01*
X82793Y139317D01*
X82884Y139319D01*
X84973Y139319D01*
X88441Y137231D02*
X91052Y139319D01*
X91052Y129921D01*
X88441Y129921D02*
X93663Y129921D01*
X97585Y134620D02*
X97587Y134805D01*
X97594Y134990D01*
X97605Y135174D01*
X97620Y135358D01*
X97640Y135542D01*
X97664Y135726D01*
X97693Y135908D01*
X97726Y136090D01*
X97763Y136271D01*
X97805Y136451D01*
X97851Y136631D01*
X97901Y136809D01*
X97955Y136985D01*
X98014Y137161D01*
X98076Y137335D01*
X98143Y137507D01*
X98214Y137678D01*
X98289Y137847D01*
X98368Y138014D01*
X98398Y138094D01*
X98431Y138173D01*
X98468Y138250D01*
X98508Y138326D01*
X98551Y138400D01*
X98597Y138472D01*
X98647Y138541D01*
X98699Y138609D01*
X98755Y138674D01*
X98813Y138737D01*
X98875Y138796D01*
X98938Y138854D01*
X99005Y138908D01*
X99073Y138959D01*
X99144Y139007D01*
X99217Y139052D01*
X99291Y139094D01*
X99368Y139132D01*
X99446Y139167D01*
X99525Y139199D01*
X99606Y139227D01*
X99688Y139251D01*
X99772Y139272D01*
X99855Y139289D01*
X99940Y139302D01*
X100025Y139311D01*
X100110Y139317D01*
X100196Y139319D01*
X100282Y139317D01*
X100367Y139311D01*
X100452Y139302D01*
X100537Y139289D01*
X100620Y139272D01*
X100704Y139251D01*
X100786Y139227D01*
X100867Y139199D01*
X100946Y139167D01*
X101024Y139132D01*
X101101Y139094D01*
X101175Y139052D01*
X101248Y139007D01*
X101319Y138959D01*
X101387Y138908D01*
X101454Y138854D01*
X101517Y138796D01*
X101579Y138737D01*
X101637Y138674D01*
X101693Y138609D01*
X101745Y138541D01*
X101795Y138472D01*
X101841Y138400D01*
X101884Y138326D01*
X101924Y138250D01*
X101961Y138173D01*
X101994Y138094D01*
X102024Y138014D01*
X102103Y137847D01*
X102178Y137678D01*
X102249Y137507D01*
X102316Y137335D01*
X102378Y137161D01*
X102437Y136985D01*
X102491Y136809D01*
X102541Y136631D01*
X102587Y136451D01*
X102629Y136271D01*
X102666Y136090D01*
X102699Y135908D01*
X102728Y135726D01*
X102752Y135542D01*
X102772Y135358D01*
X102787Y135174D01*
X102798Y134990D01*
X102805Y134805D01*
X102807Y134620D01*
X97585Y134620D02*
X97587Y134435D01*
X97594Y134250D01*
X97605Y134066D01*
X97620Y133882D01*
X97640Y133698D01*
X97664Y133514D01*
X97693Y133332D01*
X97726Y133150D01*
X97763Y132969D01*
X97805Y132789D01*
X97851Y132609D01*
X97901Y132431D01*
X97955Y132255D01*
X98014Y132079D01*
X98076Y131905D01*
X98143Y131733D01*
X98214Y131562D01*
X98289Y131393D01*
X98368Y131226D01*
X98398Y131146D01*
X98431Y131067D01*
X98468Y130990D01*
X98508Y130914D01*
X98551Y130840D01*
X98597Y130768D01*
X98647Y130699D01*
X98700Y130631D01*
X98755Y130566D01*
X98814Y130503D01*
X98875Y130444D01*
X98938Y130386D01*
X99005Y130332D01*
X99073Y130281D01*
X99144Y130233D01*
X99217Y130188D01*
X99291Y130146D01*
X99368Y130108D01*
X99446Y130073D01*
X99525Y130041D01*
X99606Y130013D01*
X99688Y129989D01*
X99772Y129968D01*
X99855Y129951D01*
X99940Y129938D01*
X100025Y129929D01*
X100110Y129923D01*
X100196Y129921D01*
X102024Y131226D02*
X102103Y131393D01*
X102178Y131562D01*
X102249Y131733D01*
X102316Y131905D01*
X102378Y132079D01*
X102437Y132255D01*
X102491Y132431D01*
X102541Y132609D01*
X102587Y132789D01*
X102629Y132969D01*
X102666Y133150D01*
X102699Y133332D01*
X102728Y133514D01*
X102752Y133698D01*
X102772Y133882D01*
X102787Y134066D01*
X102798Y134250D01*
X102805Y134435D01*
X102807Y134620D01*
X102024Y131226D02*
X101994Y131146D01*
X101961Y131067D01*
X101924Y130990D01*
X101884Y130914D01*
X101841Y130840D01*
X101795Y130768D01*
X101745Y130699D01*
X101693Y130631D01*
X101637Y130566D01*
X101579Y130503D01*
X101517Y130444D01*
X101454Y130386D01*
X101387Y130332D01*
X101319Y130281D01*
X101248Y130233D01*
X101175Y130188D01*
X101101Y130146D01*
X101024Y130108D01*
X100946Y130073D01*
X100867Y130041D01*
X100786Y130013D01*
X100704Y129989D01*
X100620Y129968D01*
X100537Y129951D01*
X100452Y129938D01*
X100367Y129929D01*
X100282Y129923D01*
X100196Y129921D01*
X98108Y132009D02*
X102284Y137231D01*
X50595Y130556D02*
X48507Y130556D01*
X48418Y130558D01*
X48330Y130564D01*
X48242Y130573D01*
X48154Y130586D01*
X48067Y130603D01*
X47981Y130623D01*
X47896Y130648D01*
X47811Y130675D01*
X47728Y130707D01*
X47647Y130741D01*
X47567Y130780D01*
X47489Y130821D01*
X47412Y130866D01*
X47338Y130914D01*
X47265Y130965D01*
X47195Y131019D01*
X47128Y131077D01*
X47062Y131137D01*
X47000Y131199D01*
X46940Y131265D01*
X46882Y131332D01*
X46828Y131402D01*
X46777Y131475D01*
X46729Y131549D01*
X46684Y131626D01*
X46643Y131704D01*
X46604Y131784D01*
X46570Y131865D01*
X46538Y131948D01*
X46511Y132033D01*
X46486Y132118D01*
X46466Y132204D01*
X46449Y132291D01*
X46436Y132379D01*
X46427Y132467D01*
X46421Y132555D01*
X46419Y132644D01*
X46419Y137866D01*
X46421Y137957D01*
X46427Y138048D01*
X46437Y138139D01*
X46451Y138229D01*
X46468Y138318D01*
X46490Y138406D01*
X46516Y138494D01*
X46545Y138580D01*
X46578Y138665D01*
X46615Y138748D01*
X46655Y138830D01*
X46699Y138910D01*
X46746Y138988D01*
X46797Y139064D01*
X46850Y139137D01*
X46907Y139208D01*
X46968Y139277D01*
X47031Y139342D01*
X47096Y139405D01*
X47165Y139465D01*
X47236Y139523D01*
X47309Y139576D01*
X47385Y139627D01*
X47463Y139674D01*
X47543Y139718D01*
X47625Y139758D01*
X47708Y139795D01*
X47793Y139828D01*
X47879Y139857D01*
X47967Y139883D01*
X48055Y139905D01*
X48144Y139922D01*
X48234Y139936D01*
X48325Y139946D01*
X48416Y139952D01*
X48507Y139954D01*
X50595Y139954D01*
X54064Y137866D02*
X56675Y139954D01*
X56675Y130556D01*
X59285Y130556D02*
X54064Y130556D01*
X63208Y137866D02*
X65819Y139954D01*
X65819Y130556D01*
X68429Y130556D02*
X63208Y130556D01*
D126*
X45888Y61138D02*
X45888Y43638D01*
X58888Y43638D02*
X58888Y61138D01*
D123*
X56794Y43206D02*
X47396Y43206D01*
X47396Y45817D01*
X47398Y45917D01*
X47404Y46017D01*
X47413Y46116D01*
X47427Y46216D01*
X47444Y46314D01*
X47465Y46412D01*
X47489Y46509D01*
X47518Y46605D01*
X47550Y46700D01*
X47585Y46793D01*
X47624Y46885D01*
X47667Y46976D01*
X47713Y47064D01*
X47763Y47151D01*
X47815Y47236D01*
X47871Y47319D01*
X47930Y47400D01*
X47993Y47478D01*
X48058Y47554D01*
X48126Y47628D01*
X48196Y47698D01*
X48270Y47766D01*
X48346Y47831D01*
X48424Y47894D01*
X48505Y47953D01*
X48588Y48009D01*
X48673Y48061D01*
X48760Y48111D01*
X48848Y48157D01*
X48939Y48200D01*
X49031Y48239D01*
X49124Y48274D01*
X49219Y48306D01*
X49315Y48335D01*
X49412Y48359D01*
X49510Y48380D01*
X49608Y48397D01*
X49708Y48411D01*
X49807Y48420D01*
X49907Y48426D01*
X50007Y48428D01*
X50007Y48427D02*
X54183Y48427D01*
X54183Y48428D02*
X54283Y48426D01*
X54383Y48420D01*
X54482Y48411D01*
X54582Y48397D01*
X54680Y48380D01*
X54778Y48359D01*
X54875Y48335D01*
X54971Y48306D01*
X55066Y48274D01*
X55159Y48239D01*
X55251Y48200D01*
X55342Y48157D01*
X55430Y48111D01*
X55517Y48061D01*
X55602Y48009D01*
X55685Y47953D01*
X55766Y47894D01*
X55844Y47831D01*
X55920Y47766D01*
X55994Y47698D01*
X56064Y47628D01*
X56132Y47554D01*
X56197Y47478D01*
X56260Y47400D01*
X56319Y47319D01*
X56375Y47236D01*
X56427Y47151D01*
X56477Y47064D01*
X56523Y46976D01*
X56566Y46885D01*
X56605Y46793D01*
X56640Y46700D01*
X56672Y46605D01*
X56701Y46509D01*
X56725Y46412D01*
X56746Y46314D01*
X56763Y46216D01*
X56777Y46116D01*
X56786Y46017D01*
X56792Y45917D01*
X56794Y45817D01*
X56794Y43206D01*
X51573Y52655D02*
X51573Y55787D01*
X51575Y55876D01*
X51581Y55964D01*
X51590Y56052D01*
X51603Y56140D01*
X51620Y56227D01*
X51640Y56313D01*
X51665Y56398D01*
X51692Y56483D01*
X51724Y56566D01*
X51758Y56647D01*
X51797Y56727D01*
X51838Y56805D01*
X51883Y56882D01*
X51931Y56956D01*
X51982Y57029D01*
X52036Y57099D01*
X52094Y57166D01*
X52154Y57232D01*
X52216Y57294D01*
X52282Y57354D01*
X52349Y57412D01*
X52419Y57466D01*
X52492Y57517D01*
X52566Y57565D01*
X52643Y57610D01*
X52721Y57651D01*
X52801Y57690D01*
X52882Y57724D01*
X52965Y57756D01*
X53050Y57783D01*
X53135Y57808D01*
X53221Y57828D01*
X53308Y57845D01*
X53396Y57858D01*
X53484Y57867D01*
X53572Y57873D01*
X53661Y57875D01*
X53661Y57876D02*
X54183Y57876D01*
X54284Y57874D01*
X54385Y57868D01*
X54486Y57858D01*
X54586Y57845D01*
X54686Y57827D01*
X54785Y57806D01*
X54883Y57780D01*
X54980Y57751D01*
X55076Y57719D01*
X55170Y57682D01*
X55263Y57642D01*
X55355Y57598D01*
X55444Y57551D01*
X55532Y57500D01*
X55618Y57446D01*
X55701Y57389D01*
X55783Y57329D01*
X55861Y57265D01*
X55938Y57199D01*
X56011Y57129D01*
X56082Y57057D01*
X56150Y56982D01*
X56215Y56904D01*
X56277Y56824D01*
X56336Y56742D01*
X56392Y56657D01*
X56444Y56570D01*
X56493Y56482D01*
X56539Y56391D01*
X56580Y56299D01*
X56619Y56205D01*
X56653Y56110D01*
X56684Y56014D01*
X56711Y55916D01*
X56735Y55818D01*
X56754Y55718D01*
X56770Y55618D01*
X56782Y55518D01*
X56790Y55417D01*
X56794Y55316D01*
X56794Y55214D01*
X56790Y55113D01*
X56782Y55012D01*
X56770Y54912D01*
X56754Y54812D01*
X56735Y54712D01*
X56711Y54614D01*
X56684Y54516D01*
X56653Y54420D01*
X56619Y54325D01*
X56580Y54231D01*
X56539Y54139D01*
X56493Y54048D01*
X56444Y53959D01*
X56392Y53873D01*
X56336Y53788D01*
X56277Y53706D01*
X56215Y53626D01*
X56150Y53548D01*
X56082Y53473D01*
X56011Y53401D01*
X55938Y53331D01*
X55861Y53265D01*
X55783Y53201D01*
X55701Y53141D01*
X55618Y53084D01*
X55532Y53030D01*
X55444Y52979D01*
X55355Y52932D01*
X55263Y52888D01*
X55170Y52848D01*
X55076Y52811D01*
X54980Y52779D01*
X54883Y52750D01*
X54785Y52724D01*
X54686Y52703D01*
X54586Y52685D01*
X54486Y52672D01*
X54385Y52662D01*
X54284Y52656D01*
X54183Y52654D01*
X54183Y52655D02*
X51573Y52655D01*
X51444Y52657D01*
X51316Y52663D01*
X51188Y52673D01*
X51060Y52687D01*
X50932Y52704D01*
X50805Y52726D01*
X50679Y52752D01*
X50554Y52781D01*
X50430Y52814D01*
X50307Y52852D01*
X50185Y52892D01*
X50064Y52937D01*
X49945Y52985D01*
X49827Y53037D01*
X49711Y53093D01*
X49597Y53152D01*
X49485Y53215D01*
X49374Y53281D01*
X49266Y53350D01*
X49160Y53423D01*
X49056Y53499D01*
X48954Y53578D01*
X48855Y53660D01*
X48759Y53745D01*
X48665Y53833D01*
X48574Y53924D01*
X48486Y54018D01*
X48401Y54114D01*
X48319Y54213D01*
X48240Y54315D01*
X48164Y54419D01*
X48091Y54525D01*
X48022Y54633D01*
X47956Y54743D01*
X47893Y54856D01*
X47834Y54970D01*
X47778Y55086D01*
X47726Y55204D01*
X47678Y55323D01*
X47633Y55444D01*
X47593Y55566D01*
X47555Y55689D01*
X47522Y55813D01*
X47493Y55938D01*
X47467Y56064D01*
X47445Y56191D01*
X47428Y56319D01*
X47414Y56447D01*
X47404Y56575D01*
X47398Y56703D01*
X47396Y56832D01*
D126*
X68113Y61138D02*
X68113Y43638D01*
X81113Y43638D02*
X81113Y61138D01*
D123*
X79019Y43206D02*
X69621Y43206D01*
X69621Y45817D01*
X69623Y45917D01*
X69629Y46017D01*
X69638Y46116D01*
X69652Y46216D01*
X69669Y46314D01*
X69690Y46412D01*
X69714Y46509D01*
X69743Y46605D01*
X69775Y46700D01*
X69810Y46793D01*
X69849Y46885D01*
X69892Y46976D01*
X69938Y47064D01*
X69988Y47151D01*
X70040Y47236D01*
X70096Y47319D01*
X70155Y47400D01*
X70218Y47478D01*
X70283Y47554D01*
X70351Y47628D01*
X70421Y47698D01*
X70495Y47766D01*
X70571Y47831D01*
X70649Y47894D01*
X70730Y47953D01*
X70813Y48009D01*
X70898Y48061D01*
X70985Y48111D01*
X71073Y48157D01*
X71164Y48200D01*
X71256Y48239D01*
X71349Y48274D01*
X71444Y48306D01*
X71540Y48335D01*
X71637Y48359D01*
X71735Y48380D01*
X71833Y48397D01*
X71933Y48411D01*
X72032Y48420D01*
X72132Y48426D01*
X72232Y48428D01*
X72232Y48427D02*
X76408Y48427D01*
X76408Y48428D02*
X76508Y48426D01*
X76608Y48420D01*
X76707Y48411D01*
X76807Y48397D01*
X76905Y48380D01*
X77003Y48359D01*
X77100Y48335D01*
X77196Y48306D01*
X77291Y48274D01*
X77384Y48239D01*
X77476Y48200D01*
X77567Y48157D01*
X77655Y48111D01*
X77742Y48061D01*
X77827Y48009D01*
X77910Y47953D01*
X77991Y47894D01*
X78069Y47831D01*
X78145Y47766D01*
X78219Y47698D01*
X78289Y47628D01*
X78357Y47554D01*
X78422Y47478D01*
X78485Y47400D01*
X78544Y47319D01*
X78600Y47236D01*
X78652Y47151D01*
X78702Y47064D01*
X78748Y46976D01*
X78791Y46885D01*
X78830Y46793D01*
X78865Y46700D01*
X78897Y46605D01*
X78926Y46509D01*
X78950Y46412D01*
X78971Y46314D01*
X78988Y46216D01*
X79002Y46116D01*
X79011Y46017D01*
X79017Y45917D01*
X79019Y45817D01*
X79019Y43206D01*
X70665Y52655D02*
X69621Y52655D01*
X69621Y57876D01*
X79019Y55265D01*
D122*
X-85725Y189588D02*
X-88225Y189588D01*
X-85725Y189588D02*
X-83225Y189588D01*
X-85725Y189588D02*
X-88225Y194588D01*
X-83225Y194588D02*
X-85725Y189588D01*
X-83225Y194588D02*
X-88225Y194588D01*
X-90725Y204588D02*
X-80725Y204588D01*
X-80725Y179588D01*
X-90725Y179588D01*
X-90725Y204588D01*
D123*
X-78754Y180406D02*
X-69356Y180406D01*
X-78754Y180406D02*
X-78754Y183017D01*
X-78752Y183117D01*
X-78746Y183217D01*
X-78737Y183316D01*
X-78723Y183416D01*
X-78706Y183514D01*
X-78685Y183612D01*
X-78661Y183709D01*
X-78632Y183805D01*
X-78600Y183900D01*
X-78565Y183993D01*
X-78526Y184085D01*
X-78483Y184176D01*
X-78437Y184264D01*
X-78387Y184351D01*
X-78335Y184436D01*
X-78279Y184519D01*
X-78220Y184600D01*
X-78157Y184678D01*
X-78092Y184754D01*
X-78024Y184828D01*
X-77954Y184898D01*
X-77880Y184966D01*
X-77804Y185031D01*
X-77726Y185094D01*
X-77645Y185153D01*
X-77562Y185209D01*
X-77477Y185261D01*
X-77390Y185311D01*
X-77302Y185357D01*
X-77211Y185400D01*
X-77119Y185439D01*
X-77026Y185474D01*
X-76931Y185506D01*
X-76835Y185535D01*
X-76738Y185559D01*
X-76640Y185580D01*
X-76542Y185597D01*
X-76442Y185611D01*
X-76343Y185620D01*
X-76243Y185626D01*
X-76143Y185628D01*
X-76143Y185627D02*
X-71967Y185627D01*
X-71967Y185628D02*
X-71867Y185626D01*
X-71767Y185620D01*
X-71668Y185611D01*
X-71568Y185597D01*
X-71470Y185580D01*
X-71372Y185559D01*
X-71275Y185535D01*
X-71179Y185506D01*
X-71084Y185474D01*
X-70991Y185439D01*
X-70899Y185400D01*
X-70808Y185357D01*
X-70720Y185311D01*
X-70633Y185261D01*
X-70548Y185209D01*
X-70465Y185153D01*
X-70384Y185094D01*
X-70306Y185031D01*
X-70230Y184966D01*
X-70156Y184898D01*
X-70086Y184828D01*
X-70018Y184754D01*
X-69953Y184678D01*
X-69890Y184600D01*
X-69831Y184519D01*
X-69775Y184436D01*
X-69723Y184351D01*
X-69673Y184264D01*
X-69627Y184176D01*
X-69584Y184085D01*
X-69545Y183993D01*
X-69510Y183900D01*
X-69478Y183805D01*
X-69449Y183709D01*
X-69425Y183612D01*
X-69404Y183514D01*
X-69387Y183416D01*
X-69373Y183316D01*
X-69364Y183217D01*
X-69358Y183117D01*
X-69356Y183017D01*
X-69356Y180406D01*
X-76666Y189855D02*
X-78754Y192465D01*
X-69356Y192465D01*
X-69356Y189855D02*
X-69356Y195076D01*
X-74055Y198998D02*
X-74240Y199000D01*
X-74425Y199007D01*
X-74609Y199018D01*
X-74793Y199033D01*
X-74977Y199053D01*
X-75161Y199077D01*
X-75343Y199106D01*
X-75525Y199139D01*
X-75706Y199176D01*
X-75886Y199218D01*
X-76066Y199264D01*
X-76244Y199314D01*
X-76420Y199368D01*
X-76596Y199427D01*
X-76770Y199489D01*
X-76942Y199556D01*
X-77113Y199627D01*
X-77282Y199702D01*
X-77449Y199781D01*
X-77529Y199811D01*
X-77608Y199844D01*
X-77685Y199881D01*
X-77761Y199921D01*
X-77835Y199964D01*
X-77907Y200010D01*
X-77976Y200060D01*
X-78044Y200112D01*
X-78109Y200168D01*
X-78172Y200226D01*
X-78231Y200288D01*
X-78289Y200351D01*
X-78343Y200418D01*
X-78394Y200486D01*
X-78442Y200557D01*
X-78487Y200630D01*
X-78529Y200704D01*
X-78567Y200781D01*
X-78602Y200859D01*
X-78634Y200938D01*
X-78662Y201019D01*
X-78686Y201101D01*
X-78707Y201185D01*
X-78724Y201268D01*
X-78737Y201353D01*
X-78746Y201438D01*
X-78752Y201523D01*
X-78754Y201609D01*
X-78752Y201695D01*
X-78746Y201780D01*
X-78737Y201865D01*
X-78724Y201950D01*
X-78707Y202033D01*
X-78686Y202117D01*
X-78662Y202199D01*
X-78634Y202280D01*
X-78602Y202359D01*
X-78567Y202437D01*
X-78529Y202514D01*
X-78487Y202588D01*
X-78442Y202661D01*
X-78394Y202732D01*
X-78343Y202800D01*
X-78289Y202867D01*
X-78231Y202930D01*
X-78172Y202992D01*
X-78109Y203050D01*
X-78044Y203106D01*
X-77976Y203158D01*
X-77907Y203208D01*
X-77835Y203254D01*
X-77761Y203297D01*
X-77685Y203337D01*
X-77608Y203374D01*
X-77529Y203407D01*
X-77449Y203437D01*
X-77282Y203516D01*
X-77113Y203591D01*
X-76942Y203662D01*
X-76770Y203729D01*
X-76596Y203791D01*
X-76420Y203850D01*
X-76244Y203904D01*
X-76066Y203954D01*
X-75886Y204000D01*
X-75706Y204042D01*
X-75525Y204079D01*
X-75343Y204112D01*
X-75161Y204141D01*
X-74977Y204165D01*
X-74793Y204185D01*
X-74609Y204200D01*
X-74425Y204211D01*
X-74240Y204218D01*
X-74055Y204220D01*
X-74055Y198999D02*
X-73870Y199001D01*
X-73685Y199008D01*
X-73501Y199019D01*
X-73317Y199034D01*
X-73133Y199054D01*
X-72949Y199078D01*
X-72767Y199107D01*
X-72585Y199140D01*
X-72404Y199177D01*
X-72224Y199219D01*
X-72044Y199265D01*
X-71866Y199315D01*
X-71690Y199369D01*
X-71514Y199428D01*
X-71340Y199490D01*
X-71168Y199557D01*
X-70997Y199628D01*
X-70828Y199703D01*
X-70661Y199782D01*
X-70661Y199781D02*
X-70581Y199811D01*
X-70502Y199844D01*
X-70425Y199881D01*
X-70349Y199921D01*
X-70275Y199964D01*
X-70203Y200010D01*
X-70134Y200060D01*
X-70066Y200113D01*
X-70001Y200168D01*
X-69938Y200227D01*
X-69879Y200288D01*
X-69821Y200351D01*
X-69767Y200418D01*
X-69716Y200486D01*
X-69668Y200557D01*
X-69623Y200630D01*
X-69581Y200704D01*
X-69543Y200781D01*
X-69508Y200859D01*
X-69476Y200938D01*
X-69448Y201019D01*
X-69424Y201101D01*
X-69403Y201185D01*
X-69386Y201268D01*
X-69373Y201353D01*
X-69364Y201438D01*
X-69358Y201523D01*
X-69356Y201609D01*
X-70661Y203437D02*
X-70828Y203516D01*
X-70997Y203591D01*
X-71168Y203662D01*
X-71340Y203729D01*
X-71514Y203791D01*
X-71690Y203850D01*
X-71866Y203904D01*
X-72044Y203954D01*
X-72224Y204000D01*
X-72404Y204042D01*
X-72585Y204079D01*
X-72767Y204112D01*
X-72949Y204141D01*
X-73133Y204165D01*
X-73317Y204185D01*
X-73501Y204200D01*
X-73685Y204211D01*
X-73870Y204218D01*
X-74055Y204220D01*
X-70661Y203437D02*
X-70581Y203407D01*
X-70502Y203374D01*
X-70425Y203337D01*
X-70349Y203297D01*
X-70275Y203254D01*
X-70203Y203208D01*
X-70134Y203158D01*
X-70066Y203106D01*
X-70001Y203050D01*
X-69938Y202992D01*
X-69879Y202930D01*
X-69821Y202867D01*
X-69767Y202800D01*
X-69716Y202732D01*
X-69668Y202661D01*
X-69623Y202588D01*
X-69581Y202514D01*
X-69543Y202437D01*
X-69508Y202359D01*
X-69476Y202280D01*
X-69448Y202199D01*
X-69424Y202117D01*
X-69403Y202033D01*
X-69386Y201950D01*
X-69373Y201865D01*
X-69364Y201780D01*
X-69358Y201695D01*
X-69356Y201609D01*
X-71444Y199521D02*
X-76666Y203698D01*
X-92456Y248031D02*
X-101854Y248031D01*
X-101854Y250642D01*
X-101852Y250743D01*
X-101846Y250844D01*
X-101836Y250945D01*
X-101823Y251045D01*
X-101805Y251145D01*
X-101784Y251244D01*
X-101758Y251342D01*
X-101729Y251439D01*
X-101697Y251535D01*
X-101660Y251629D01*
X-101620Y251722D01*
X-101576Y251814D01*
X-101529Y251903D01*
X-101478Y251991D01*
X-101424Y252077D01*
X-101367Y252160D01*
X-101307Y252242D01*
X-101243Y252320D01*
X-101177Y252397D01*
X-101107Y252470D01*
X-101035Y252541D01*
X-100960Y252609D01*
X-100882Y252674D01*
X-100802Y252736D01*
X-100720Y252795D01*
X-100635Y252851D01*
X-100549Y252903D01*
X-100460Y252952D01*
X-100369Y252998D01*
X-100277Y253039D01*
X-100183Y253078D01*
X-100088Y253112D01*
X-99992Y253143D01*
X-99894Y253170D01*
X-99796Y253194D01*
X-99696Y253213D01*
X-99596Y253229D01*
X-99496Y253241D01*
X-99395Y253249D01*
X-99294Y253253D01*
X-99192Y253253D01*
X-99091Y253249D01*
X-98990Y253241D01*
X-98890Y253229D01*
X-98790Y253213D01*
X-98690Y253194D01*
X-98592Y253170D01*
X-98494Y253143D01*
X-98398Y253112D01*
X-98303Y253078D01*
X-98209Y253039D01*
X-98117Y252998D01*
X-98026Y252952D01*
X-97938Y252903D01*
X-97851Y252851D01*
X-97766Y252795D01*
X-97684Y252736D01*
X-97604Y252674D01*
X-97526Y252609D01*
X-97451Y252541D01*
X-97379Y252470D01*
X-97309Y252397D01*
X-97243Y252320D01*
X-97179Y252242D01*
X-97119Y252160D01*
X-97062Y252077D01*
X-97008Y251991D01*
X-96957Y251903D01*
X-96910Y251814D01*
X-96866Y251722D01*
X-96826Y251629D01*
X-96789Y251535D01*
X-96757Y251439D01*
X-96728Y251342D01*
X-96702Y251244D01*
X-96681Y251145D01*
X-96663Y251045D01*
X-96650Y250945D01*
X-96640Y250844D01*
X-96634Y250743D01*
X-96632Y250642D01*
X-96633Y250642D02*
X-96633Y248031D01*
X-96633Y251164D02*
X-92456Y253252D01*
X-92456Y257118D02*
X-92456Y260251D01*
X-92458Y260340D01*
X-92464Y260428D01*
X-92473Y260516D01*
X-92486Y260604D01*
X-92503Y260691D01*
X-92523Y260777D01*
X-92548Y260862D01*
X-92575Y260947D01*
X-92607Y261030D01*
X-92641Y261111D01*
X-92680Y261191D01*
X-92721Y261269D01*
X-92766Y261346D01*
X-92814Y261420D01*
X-92865Y261493D01*
X-92919Y261563D01*
X-92977Y261630D01*
X-93037Y261696D01*
X-93099Y261758D01*
X-93165Y261818D01*
X-93232Y261876D01*
X-93302Y261930D01*
X-93375Y261981D01*
X-93449Y262029D01*
X-93526Y262074D01*
X-93604Y262115D01*
X-93684Y262154D01*
X-93765Y262188D01*
X-93848Y262220D01*
X-93933Y262247D01*
X-94018Y262272D01*
X-94104Y262292D01*
X-94191Y262309D01*
X-94279Y262322D01*
X-94367Y262331D01*
X-94455Y262337D01*
X-94544Y262339D01*
X-95589Y262339D01*
X-95678Y262337D01*
X-95766Y262331D01*
X-95854Y262322D01*
X-95942Y262309D01*
X-96029Y262292D01*
X-96115Y262272D01*
X-96200Y262247D01*
X-96285Y262220D01*
X-96368Y262188D01*
X-96449Y262154D01*
X-96529Y262115D01*
X-96607Y262074D01*
X-96684Y262029D01*
X-96758Y261981D01*
X-96831Y261930D01*
X-96901Y261876D01*
X-96968Y261818D01*
X-97034Y261758D01*
X-97096Y261696D01*
X-97156Y261630D01*
X-97214Y261563D01*
X-97268Y261493D01*
X-97319Y261420D01*
X-97367Y261346D01*
X-97412Y261269D01*
X-97453Y261191D01*
X-97492Y261111D01*
X-97526Y261030D01*
X-97558Y260947D01*
X-97585Y260862D01*
X-97610Y260777D01*
X-97630Y260691D01*
X-97647Y260604D01*
X-97660Y260516D01*
X-97669Y260428D01*
X-97675Y260340D01*
X-97677Y260251D01*
X-97677Y257118D01*
X-101854Y257118D01*
X-101854Y262339D01*
M02*
