G04 EAGLE Gerber RS-274X export*
G75*
%MOMM*%
%FSLAX34Y34*%
%LPD*%
%INSilkscreen Bottom*%
%IPPOS*%
%AMOC8*
5,1,8,0,0,1.08239X$1,22.5*%
G01*
%ADD10C,0.101600*%
%ADD11C,0.152400*%
%ADD12C,0.076200*%
%ADD13C,0.254000*%
%ADD14C,0.050800*%
%ADD15C,0.150000*%

G36*
X-12184Y123573D02*
X-12184Y123573D01*
X-12181Y123572D01*
X-12138Y123592D01*
X-12095Y123610D01*
X-12094Y123612D01*
X-12092Y123613D01*
X-12059Y123698D01*
X-12059Y126238D01*
X-12060Y126240D01*
X-12059Y126242D01*
X-12079Y126285D01*
X-12098Y126329D01*
X-12100Y126329D01*
X-12101Y126331D01*
X-12186Y126364D01*
X-15996Y126364D01*
X-15998Y126363D01*
X-16000Y126364D01*
X-16043Y126344D01*
X-16086Y126326D01*
X-16087Y126324D01*
X-16089Y126323D01*
X-16122Y126238D01*
X-16122Y123698D01*
X-16121Y123696D01*
X-16122Y123694D01*
X-16102Y123651D01*
X-16083Y123607D01*
X-16081Y123607D01*
X-16080Y123605D01*
X-15996Y123572D01*
X-12186Y123572D01*
X-12184Y123573D01*
G37*
G36*
X-42734Y78019D02*
X-42734Y78019D01*
X-42731Y78018D01*
X-42688Y78038D01*
X-42645Y78056D01*
X-42644Y78058D01*
X-42642Y78059D01*
X-42609Y78144D01*
X-42609Y81954D01*
X-42610Y81956D01*
X-42609Y81958D01*
X-42629Y82001D01*
X-42648Y82045D01*
X-42650Y82045D01*
X-42651Y82047D01*
X-42736Y82080D01*
X-45276Y82080D01*
X-45278Y82079D01*
X-45280Y82080D01*
X-45323Y82060D01*
X-45366Y82042D01*
X-45367Y82040D01*
X-45369Y82039D01*
X-45402Y81954D01*
X-45402Y78144D01*
X-45401Y78142D01*
X-45402Y78140D01*
X-45382Y78097D01*
X-45363Y78053D01*
X-45361Y78053D01*
X-45360Y78051D01*
X-45276Y78018D01*
X-42736Y78018D01*
X-42734Y78019D01*
G37*
G36*
X42103Y63016D02*
X42103Y63016D01*
X42105Y63015D01*
X42148Y63035D01*
X42191Y63053D01*
X42192Y63055D01*
X42194Y63056D01*
X42227Y63141D01*
X42227Y66951D01*
X42226Y66953D01*
X42227Y66955D01*
X42207Y66998D01*
X42188Y67042D01*
X42186Y67042D01*
X42185Y67044D01*
X42101Y67077D01*
X39561Y67077D01*
X39559Y67076D01*
X39556Y67077D01*
X39513Y67057D01*
X39470Y67039D01*
X39469Y67037D01*
X39467Y67036D01*
X39434Y66951D01*
X39434Y63141D01*
X39435Y63139D01*
X39434Y63137D01*
X39454Y63094D01*
X39473Y63050D01*
X39475Y63050D01*
X39476Y63048D01*
X39561Y63015D01*
X42101Y63015D01*
X42103Y63016D01*
G37*
G36*
X-7183Y38737D02*
X-7183Y38737D01*
X-7180Y38736D01*
X-7137Y38756D01*
X-7094Y38774D01*
X-7093Y38776D01*
X-7091Y38777D01*
X-7058Y38862D01*
X-7058Y41402D01*
X-7059Y41404D01*
X-7058Y41406D01*
X-7078Y41449D01*
X-7097Y41493D01*
X-7099Y41493D01*
X-7100Y41495D01*
X-7185Y41528D01*
X-10995Y41528D01*
X-10997Y41527D01*
X-10999Y41528D01*
X-11042Y41508D01*
X-11085Y41490D01*
X-11086Y41488D01*
X-11088Y41487D01*
X-11121Y41402D01*
X-11121Y38862D01*
X-11120Y38860D01*
X-11121Y38858D01*
X-11101Y38815D01*
X-11082Y38771D01*
X-11080Y38771D01*
X-11079Y38769D01*
X-10995Y38736D01*
X-7185Y38736D01*
X-7183Y38737D01*
G37*
D10*
X145974Y140044D02*
X145974Y141991D01*
X139483Y141991D01*
X139483Y138096D01*
X139485Y137997D01*
X139491Y137897D01*
X139500Y137798D01*
X139513Y137700D01*
X139530Y137602D01*
X139551Y137504D01*
X139576Y137408D01*
X139604Y137313D01*
X139636Y137219D01*
X139671Y137126D01*
X139710Y137034D01*
X139753Y136944D01*
X139798Y136856D01*
X139848Y136769D01*
X139900Y136685D01*
X139956Y136602D01*
X140014Y136522D01*
X140076Y136444D01*
X140141Y136369D01*
X140209Y136296D01*
X140279Y136226D01*
X140352Y136158D01*
X140427Y136093D01*
X140505Y136031D01*
X140585Y135973D01*
X140668Y135917D01*
X140752Y135865D01*
X140839Y135815D01*
X140927Y135770D01*
X141017Y135727D01*
X141109Y135688D01*
X141202Y135653D01*
X141296Y135621D01*
X141391Y135593D01*
X141487Y135568D01*
X141585Y135547D01*
X141683Y135530D01*
X141781Y135517D01*
X141880Y135508D01*
X141980Y135502D01*
X142079Y135500D01*
X148571Y135500D01*
X148670Y135502D01*
X148770Y135508D01*
X148869Y135517D01*
X148967Y135530D01*
X149065Y135547D01*
X149163Y135568D01*
X149259Y135593D01*
X149354Y135621D01*
X149448Y135653D01*
X149541Y135688D01*
X149633Y135727D01*
X149723Y135770D01*
X149811Y135815D01*
X149898Y135865D01*
X149982Y135917D01*
X150065Y135973D01*
X150145Y136031D01*
X150223Y136093D01*
X150298Y136158D01*
X150371Y136226D01*
X150441Y136296D01*
X150509Y136369D01*
X150574Y136444D01*
X150636Y136522D01*
X150694Y136602D01*
X150750Y136685D01*
X150802Y136769D01*
X150852Y136856D01*
X150897Y136944D01*
X150940Y137034D01*
X150979Y137126D01*
X151014Y137218D01*
X151046Y137313D01*
X151074Y137408D01*
X151099Y137504D01*
X151120Y137602D01*
X151137Y137700D01*
X151150Y137798D01*
X151159Y137897D01*
X151165Y137997D01*
X151167Y138096D01*
X151167Y141991D01*
X151167Y147692D02*
X139483Y147692D01*
X139483Y154183D02*
X151167Y147692D01*
X151167Y154183D02*
X139483Y154183D01*
X139483Y159884D02*
X151167Y159884D01*
X151167Y163129D01*
X151165Y163242D01*
X151159Y163355D01*
X151149Y163468D01*
X151135Y163581D01*
X151118Y163693D01*
X151096Y163804D01*
X151071Y163914D01*
X151041Y164024D01*
X151008Y164132D01*
X150971Y164239D01*
X150931Y164345D01*
X150886Y164449D01*
X150838Y164552D01*
X150787Y164653D01*
X150732Y164752D01*
X150674Y164849D01*
X150612Y164944D01*
X150547Y165037D01*
X150479Y165127D01*
X150408Y165215D01*
X150333Y165301D01*
X150256Y165384D01*
X150176Y165464D01*
X150093Y165541D01*
X150007Y165616D01*
X149919Y165687D01*
X149829Y165755D01*
X149736Y165820D01*
X149641Y165882D01*
X149544Y165940D01*
X149445Y165995D01*
X149344Y166046D01*
X149241Y166094D01*
X149137Y166139D01*
X149031Y166179D01*
X148924Y166216D01*
X148816Y166249D01*
X148706Y166279D01*
X148596Y166304D01*
X148485Y166326D01*
X148373Y166343D01*
X148260Y166357D01*
X148147Y166367D01*
X148034Y166373D01*
X147921Y166375D01*
X142729Y166375D01*
X142616Y166373D01*
X142503Y166367D01*
X142390Y166357D01*
X142277Y166343D01*
X142165Y166326D01*
X142054Y166304D01*
X141944Y166279D01*
X141834Y166249D01*
X141726Y166216D01*
X141619Y166179D01*
X141513Y166139D01*
X141409Y166094D01*
X141306Y166046D01*
X141205Y165995D01*
X141106Y165940D01*
X141009Y165882D01*
X140914Y165820D01*
X140821Y165755D01*
X140731Y165687D01*
X140643Y165616D01*
X140557Y165541D01*
X140474Y165464D01*
X140394Y165384D01*
X140317Y165301D01*
X140242Y165215D01*
X140171Y165127D01*
X140103Y165037D01*
X140038Y164944D01*
X139976Y164849D01*
X139918Y164752D01*
X139863Y164653D01*
X139812Y164552D01*
X139764Y164449D01*
X139719Y164345D01*
X139679Y164239D01*
X139642Y164132D01*
X139609Y164024D01*
X139579Y163914D01*
X139554Y163804D01*
X139532Y163693D01*
X139515Y163581D01*
X139501Y163468D01*
X139491Y163355D01*
X139485Y163242D01*
X139483Y163129D01*
X139483Y159884D01*
X81276Y32018D02*
X79681Y30901D01*
X83404Y25583D01*
X86595Y27817D01*
X86594Y27817D02*
X86674Y27876D01*
X86752Y27938D01*
X86828Y28002D01*
X86901Y28070D01*
X86972Y28140D01*
X87039Y28213D01*
X87104Y28288D01*
X87166Y28366D01*
X87225Y28446D01*
X87281Y28528D01*
X87334Y28613D01*
X87383Y28699D01*
X87429Y28787D01*
X87472Y28877D01*
X87511Y28968D01*
X87546Y29061D01*
X87578Y29155D01*
X87607Y29251D01*
X87631Y29347D01*
X87652Y29444D01*
X87670Y29542D01*
X87683Y29641D01*
X87693Y29740D01*
X87699Y29839D01*
X87701Y29938D01*
X87699Y30038D01*
X87694Y30137D01*
X87684Y30236D01*
X87671Y30335D01*
X87655Y30433D01*
X87634Y30530D01*
X87610Y30627D01*
X87582Y30722D01*
X87550Y30816D01*
X87515Y30909D01*
X87476Y31001D01*
X87434Y31091D01*
X87388Y31179D01*
X87339Y31266D01*
X87287Y31350D01*
X87232Y31433D01*
X83509Y36751D01*
X83509Y36750D02*
X83450Y36830D01*
X83388Y36908D01*
X83324Y36984D01*
X83256Y37057D01*
X83186Y37128D01*
X83113Y37195D01*
X83038Y37260D01*
X82960Y37322D01*
X82880Y37381D01*
X82798Y37437D01*
X82713Y37490D01*
X82627Y37539D01*
X82539Y37585D01*
X82449Y37628D01*
X82358Y37667D01*
X82265Y37702D01*
X82171Y37734D01*
X82075Y37763D01*
X81979Y37787D01*
X81882Y37808D01*
X81784Y37826D01*
X81685Y37839D01*
X81586Y37849D01*
X81487Y37855D01*
X81388Y37857D01*
X81288Y37855D01*
X81189Y37850D01*
X81090Y37841D01*
X80991Y37827D01*
X80893Y37811D01*
X80796Y37790D01*
X80699Y37766D01*
X80604Y37738D01*
X80510Y37706D01*
X80417Y37671D01*
X80325Y37632D01*
X80235Y37590D01*
X80147Y37544D01*
X80060Y37495D01*
X79976Y37443D01*
X79893Y37388D01*
X76703Y35154D01*
X72033Y31884D02*
X78734Y22314D01*
X73417Y18590D02*
X72033Y31884D01*
X66716Y28161D02*
X73417Y18590D01*
X68747Y15320D02*
X62046Y24891D01*
X59387Y23030D01*
X59296Y22963D01*
X59206Y22894D01*
X59119Y22821D01*
X59035Y22745D01*
X58954Y22666D01*
X58875Y22585D01*
X58799Y22501D01*
X58726Y22414D01*
X58657Y22325D01*
X58590Y22233D01*
X58527Y22139D01*
X58467Y22043D01*
X58410Y21945D01*
X58357Y21845D01*
X58307Y21743D01*
X58261Y21639D01*
X58219Y21534D01*
X58180Y21428D01*
X58145Y21320D01*
X58114Y21211D01*
X58086Y21101D01*
X58063Y20990D01*
X58043Y20879D01*
X58027Y20767D01*
X58015Y20654D01*
X58007Y20541D01*
X58003Y20428D01*
X58003Y20314D01*
X58007Y20201D01*
X58015Y20088D01*
X58027Y19975D01*
X58043Y19863D01*
X58063Y19752D01*
X58086Y19641D01*
X58114Y19531D01*
X58145Y19422D01*
X58180Y19314D01*
X58219Y19208D01*
X58261Y19103D01*
X58307Y18999D01*
X58357Y18897D01*
X58410Y18797D01*
X58467Y18699D01*
X58527Y18603D01*
X58590Y18509D01*
X58590Y18510D02*
X61569Y14256D01*
X61568Y14255D02*
X61635Y14164D01*
X61704Y14074D01*
X61777Y13987D01*
X61853Y13903D01*
X61932Y13822D01*
X62013Y13743D01*
X62097Y13667D01*
X62184Y13594D01*
X62274Y13525D01*
X62365Y13458D01*
X62459Y13395D01*
X62555Y13335D01*
X62653Y13278D01*
X62753Y13225D01*
X62855Y13175D01*
X62959Y13129D01*
X63064Y13087D01*
X63170Y13048D01*
X63278Y13013D01*
X63387Y12982D01*
X63497Y12954D01*
X63608Y12931D01*
X63719Y12911D01*
X63831Y12895D01*
X63944Y12883D01*
X64057Y12875D01*
X64170Y12871D01*
X64284Y12871D01*
X64397Y12875D01*
X64510Y12883D01*
X64623Y12895D01*
X64735Y12911D01*
X64846Y12931D01*
X64957Y12954D01*
X65067Y12982D01*
X65176Y13013D01*
X65284Y13048D01*
X65390Y13087D01*
X65495Y13129D01*
X65599Y13175D01*
X65701Y13225D01*
X65801Y13278D01*
X65899Y13335D01*
X65995Y13395D01*
X66089Y13458D01*
X66089Y13459D02*
X68747Y15320D01*
X-67454Y19846D02*
X-69049Y20963D01*
X-72772Y15646D01*
X-69582Y13412D01*
X-69499Y13357D01*
X-69415Y13305D01*
X-69328Y13256D01*
X-69240Y13210D01*
X-69150Y13168D01*
X-69058Y13129D01*
X-68965Y13094D01*
X-68871Y13062D01*
X-68776Y13034D01*
X-68679Y13010D01*
X-68582Y12989D01*
X-68484Y12973D01*
X-68385Y12960D01*
X-68286Y12950D01*
X-68187Y12945D01*
X-68087Y12943D01*
X-67988Y12945D01*
X-67889Y12951D01*
X-67790Y12961D01*
X-67691Y12974D01*
X-67593Y12992D01*
X-67496Y13013D01*
X-67400Y13037D01*
X-67304Y13066D01*
X-67210Y13098D01*
X-67117Y13133D01*
X-67026Y13172D01*
X-66936Y13215D01*
X-66848Y13261D01*
X-66762Y13310D01*
X-66677Y13363D01*
X-66595Y13419D01*
X-66515Y13478D01*
X-66437Y13540D01*
X-66362Y13605D01*
X-66289Y13672D01*
X-66219Y13743D01*
X-66151Y13816D01*
X-66087Y13892D01*
X-66025Y13970D01*
X-65966Y14050D01*
X-65966Y14049D02*
X-62243Y19366D01*
X-62243Y19367D02*
X-62188Y19450D01*
X-62136Y19534D01*
X-62087Y19621D01*
X-62041Y19709D01*
X-61999Y19799D01*
X-61960Y19891D01*
X-61925Y19984D01*
X-61893Y20078D01*
X-61865Y20173D01*
X-61841Y20270D01*
X-61820Y20367D01*
X-61804Y20465D01*
X-61791Y20564D01*
X-61781Y20663D01*
X-61776Y20762D01*
X-61774Y20862D01*
X-61776Y20961D01*
X-61782Y21060D01*
X-61792Y21159D01*
X-61805Y21258D01*
X-61823Y21356D01*
X-61844Y21453D01*
X-61868Y21549D01*
X-61897Y21645D01*
X-61929Y21739D01*
X-61964Y21832D01*
X-62003Y21923D01*
X-62046Y22013D01*
X-62092Y22101D01*
X-62141Y22187D01*
X-62194Y22272D01*
X-62250Y22354D01*
X-62309Y22434D01*
X-62371Y22512D01*
X-62436Y22587D01*
X-62503Y22660D01*
X-62574Y22730D01*
X-62647Y22798D01*
X-62723Y22862D01*
X-62801Y22924D01*
X-62881Y22983D01*
X-62880Y22983D02*
X-66071Y25216D01*
X-70741Y28486D02*
X-77442Y18915D01*
X-82760Y22639D02*
X-70741Y28486D01*
X-76058Y32209D02*
X-82760Y22639D01*
X-87429Y25908D02*
X-80728Y35479D01*
X-83386Y37341D01*
X-83480Y37404D01*
X-83576Y37464D01*
X-83674Y37521D01*
X-83774Y37574D01*
X-83876Y37624D01*
X-83980Y37670D01*
X-84085Y37712D01*
X-84191Y37751D01*
X-84299Y37786D01*
X-84408Y37817D01*
X-84518Y37845D01*
X-84629Y37868D01*
X-84740Y37888D01*
X-84852Y37904D01*
X-84965Y37916D01*
X-85078Y37924D01*
X-85191Y37928D01*
X-85305Y37928D01*
X-85418Y37924D01*
X-85531Y37916D01*
X-85644Y37904D01*
X-85756Y37888D01*
X-85867Y37868D01*
X-85978Y37845D01*
X-86088Y37817D01*
X-86197Y37786D01*
X-86305Y37751D01*
X-86411Y37712D01*
X-86516Y37670D01*
X-86620Y37624D01*
X-86722Y37574D01*
X-86822Y37521D01*
X-86920Y37464D01*
X-87016Y37404D01*
X-87110Y37341D01*
X-87201Y37274D01*
X-87291Y37205D01*
X-87378Y37132D01*
X-87462Y37056D01*
X-87543Y36977D01*
X-87622Y36896D01*
X-87698Y36812D01*
X-87771Y36725D01*
X-87840Y36636D01*
X-87907Y36544D01*
X-90885Y32290D01*
X-90886Y32291D02*
X-90949Y32197D01*
X-91009Y32101D01*
X-91066Y32003D01*
X-91119Y31903D01*
X-91169Y31801D01*
X-91215Y31697D01*
X-91257Y31592D01*
X-91296Y31486D01*
X-91331Y31378D01*
X-91362Y31269D01*
X-91390Y31159D01*
X-91413Y31048D01*
X-91433Y30937D01*
X-91449Y30825D01*
X-91461Y30712D01*
X-91469Y30599D01*
X-91473Y30486D01*
X-91473Y30372D01*
X-91469Y30259D01*
X-91461Y30146D01*
X-91449Y30033D01*
X-91433Y29921D01*
X-91413Y29810D01*
X-91390Y29699D01*
X-91362Y29589D01*
X-91331Y29480D01*
X-91296Y29372D01*
X-91257Y29266D01*
X-91215Y29161D01*
X-91169Y29057D01*
X-91119Y28955D01*
X-91066Y28855D01*
X-91009Y28757D01*
X-90949Y28661D01*
X-90886Y28567D01*
X-90819Y28475D01*
X-90750Y28386D01*
X-90677Y28299D01*
X-90601Y28215D01*
X-90522Y28134D01*
X-90441Y28055D01*
X-90357Y27979D01*
X-90270Y27906D01*
X-90180Y27837D01*
X-90089Y27770D01*
X-90088Y27770D02*
X-87429Y25908D01*
X-147601Y144806D02*
X-147601Y146754D01*
X-154092Y146754D01*
X-154092Y142859D01*
X-154090Y142760D01*
X-154084Y142660D01*
X-154075Y142561D01*
X-154062Y142463D01*
X-154045Y142365D01*
X-154024Y142267D01*
X-153999Y142171D01*
X-153971Y142076D01*
X-153939Y141982D01*
X-153904Y141889D01*
X-153865Y141797D01*
X-153822Y141707D01*
X-153777Y141619D01*
X-153727Y141532D01*
X-153675Y141448D01*
X-153619Y141365D01*
X-153561Y141285D01*
X-153499Y141207D01*
X-153434Y141132D01*
X-153366Y141059D01*
X-153296Y140989D01*
X-153223Y140921D01*
X-153148Y140856D01*
X-153070Y140794D01*
X-152990Y140736D01*
X-152907Y140680D01*
X-152823Y140628D01*
X-152736Y140578D01*
X-152648Y140533D01*
X-152558Y140490D01*
X-152466Y140451D01*
X-152373Y140416D01*
X-152279Y140384D01*
X-152184Y140356D01*
X-152088Y140331D01*
X-151990Y140310D01*
X-151892Y140293D01*
X-151794Y140280D01*
X-151695Y140271D01*
X-151595Y140265D01*
X-151496Y140263D01*
X-145004Y140263D01*
X-145004Y140262D02*
X-144905Y140264D01*
X-144805Y140270D01*
X-144706Y140279D01*
X-144608Y140292D01*
X-144510Y140310D01*
X-144412Y140330D01*
X-144316Y140355D01*
X-144220Y140383D01*
X-144126Y140415D01*
X-144033Y140450D01*
X-143942Y140489D01*
X-143852Y140532D01*
X-143763Y140577D01*
X-143677Y140627D01*
X-143592Y140679D01*
X-143510Y140735D01*
X-143430Y140794D01*
X-143352Y140855D01*
X-143276Y140920D01*
X-143203Y140988D01*
X-143133Y141058D01*
X-143065Y141131D01*
X-143000Y141207D01*
X-142939Y141285D01*
X-142880Y141365D01*
X-142824Y141447D01*
X-142772Y141532D01*
X-142723Y141618D01*
X-142677Y141707D01*
X-142634Y141797D01*
X-142595Y141888D01*
X-142560Y141981D01*
X-142528Y142075D01*
X-142500Y142171D01*
X-142475Y142267D01*
X-142455Y142365D01*
X-142437Y142463D01*
X-142424Y142561D01*
X-142415Y142660D01*
X-142409Y142759D01*
X-142407Y142859D01*
X-142408Y142859D02*
X-142408Y146754D01*
X-142408Y152454D02*
X-154092Y152454D01*
X-154092Y158946D02*
X-142408Y152454D01*
X-142408Y158946D02*
X-154092Y158946D01*
X-154092Y164646D02*
X-142408Y164646D01*
X-142408Y167892D01*
X-142410Y168005D01*
X-142416Y168118D01*
X-142426Y168231D01*
X-142440Y168344D01*
X-142457Y168456D01*
X-142479Y168567D01*
X-142504Y168677D01*
X-142534Y168787D01*
X-142567Y168895D01*
X-142604Y169002D01*
X-142644Y169108D01*
X-142689Y169212D01*
X-142737Y169315D01*
X-142788Y169416D01*
X-142843Y169515D01*
X-142901Y169612D01*
X-142963Y169707D01*
X-143028Y169800D01*
X-143096Y169890D01*
X-143167Y169978D01*
X-143242Y170064D01*
X-143319Y170147D01*
X-143399Y170227D01*
X-143482Y170304D01*
X-143568Y170379D01*
X-143656Y170450D01*
X-143746Y170518D01*
X-143839Y170583D01*
X-143934Y170645D01*
X-144031Y170703D01*
X-144130Y170758D01*
X-144231Y170809D01*
X-144334Y170857D01*
X-144438Y170902D01*
X-144544Y170942D01*
X-144651Y170979D01*
X-144759Y171012D01*
X-144869Y171042D01*
X-144979Y171067D01*
X-145090Y171089D01*
X-145202Y171106D01*
X-145315Y171120D01*
X-145428Y171130D01*
X-145541Y171136D01*
X-145654Y171138D01*
X-150846Y171138D01*
X-150959Y171136D01*
X-151072Y171130D01*
X-151185Y171120D01*
X-151298Y171106D01*
X-151410Y171089D01*
X-151521Y171067D01*
X-151631Y171042D01*
X-151741Y171012D01*
X-151849Y170979D01*
X-151956Y170942D01*
X-152062Y170902D01*
X-152166Y170857D01*
X-152269Y170809D01*
X-152370Y170758D01*
X-152469Y170703D01*
X-152566Y170645D01*
X-152661Y170583D01*
X-152754Y170518D01*
X-152844Y170450D01*
X-152932Y170379D01*
X-153018Y170304D01*
X-153101Y170227D01*
X-153181Y170147D01*
X-153258Y170064D01*
X-153333Y169978D01*
X-153404Y169890D01*
X-153472Y169800D01*
X-153537Y169707D01*
X-153599Y169612D01*
X-153657Y169515D01*
X-153712Y169416D01*
X-153763Y169315D01*
X-153811Y169212D01*
X-153856Y169108D01*
X-153896Y169002D01*
X-153933Y168895D01*
X-153966Y168787D01*
X-153996Y168677D01*
X-154021Y168567D01*
X-154043Y168456D01*
X-154060Y168344D01*
X-154074Y168231D01*
X-154084Y168118D01*
X-154090Y168005D01*
X-154092Y167892D01*
X-154092Y164646D01*
D11*
X107969Y224565D02*
X107969Y242345D01*
X103030Y242345D01*
X102890Y242343D01*
X102751Y242337D01*
X102611Y242327D01*
X102472Y242313D01*
X102333Y242296D01*
X102195Y242274D01*
X102058Y242248D01*
X101921Y242219D01*
X101785Y242186D01*
X101651Y242149D01*
X101517Y242108D01*
X101385Y242063D01*
X101253Y242014D01*
X101124Y241962D01*
X100996Y241907D01*
X100869Y241847D01*
X100744Y241784D01*
X100621Y241718D01*
X100500Y241648D01*
X100381Y241575D01*
X100264Y241498D01*
X100150Y241418D01*
X100037Y241335D01*
X99927Y241249D01*
X99820Y241159D01*
X99715Y241067D01*
X99613Y240972D01*
X99513Y240874D01*
X99416Y240773D01*
X99322Y240669D01*
X99232Y240563D01*
X99144Y240454D01*
X99059Y240343D01*
X98978Y240229D01*
X98899Y240114D01*
X98824Y239996D01*
X98753Y239876D01*
X98685Y239753D01*
X98620Y239630D01*
X98559Y239504D01*
X98501Y239376D01*
X98447Y239248D01*
X98397Y239117D01*
X98350Y238985D01*
X98307Y238852D01*
X98268Y238718D01*
X98233Y238583D01*
X98202Y238447D01*
X98174Y238309D01*
X98151Y238172D01*
X98131Y238033D01*
X98115Y237894D01*
X98103Y237755D01*
X98095Y237616D01*
X98091Y237476D01*
X98091Y237336D01*
X98095Y237196D01*
X98103Y237057D01*
X98115Y236918D01*
X98131Y236779D01*
X98151Y236640D01*
X98174Y236503D01*
X98202Y236365D01*
X98233Y236229D01*
X98268Y236094D01*
X98307Y235960D01*
X98350Y235827D01*
X98397Y235695D01*
X98447Y235564D01*
X98501Y235436D01*
X98559Y235308D01*
X98620Y235182D01*
X98685Y235059D01*
X98753Y234936D01*
X98824Y234816D01*
X98899Y234698D01*
X98978Y234583D01*
X99059Y234469D01*
X99144Y234358D01*
X99232Y234249D01*
X99322Y234143D01*
X99416Y234039D01*
X99513Y233938D01*
X99613Y233840D01*
X99715Y233745D01*
X99820Y233653D01*
X99927Y233563D01*
X100037Y233477D01*
X100150Y233394D01*
X100264Y233314D01*
X100381Y233237D01*
X100500Y233164D01*
X100621Y233094D01*
X100744Y233028D01*
X100869Y232965D01*
X100996Y232905D01*
X101124Y232850D01*
X101253Y232798D01*
X101385Y232749D01*
X101517Y232704D01*
X101651Y232663D01*
X101785Y232626D01*
X101921Y232593D01*
X102058Y232564D01*
X102195Y232538D01*
X102333Y232516D01*
X102472Y232499D01*
X102611Y232485D01*
X102751Y232475D01*
X102890Y232469D01*
X103030Y232467D01*
X107969Y232467D01*
X91974Y238394D02*
X87035Y242345D01*
X87035Y224565D01*
X91974Y224565D02*
X82096Y224565D01*
X102069Y105451D02*
X117467Y96561D01*
X102069Y105451D02*
X99600Y101174D01*
X99600Y101175D02*
X99532Y101052D01*
X99467Y100929D01*
X99406Y100803D01*
X99348Y100675D01*
X99294Y100547D01*
X99244Y100416D01*
X99197Y100284D01*
X99154Y100151D01*
X99115Y100017D01*
X99080Y99882D01*
X99049Y99746D01*
X99021Y99608D01*
X98998Y99471D01*
X98978Y99332D01*
X98962Y99193D01*
X98950Y99054D01*
X98942Y98915D01*
X98938Y98775D01*
X98938Y98635D01*
X98942Y98495D01*
X98950Y98356D01*
X98962Y98217D01*
X98978Y98078D01*
X98998Y97939D01*
X99021Y97802D01*
X99049Y97664D01*
X99080Y97528D01*
X99115Y97393D01*
X99154Y97259D01*
X99197Y97126D01*
X99244Y96994D01*
X99294Y96863D01*
X99348Y96735D01*
X99406Y96607D01*
X99467Y96481D01*
X99532Y96358D01*
X99600Y96235D01*
X99671Y96115D01*
X99746Y95997D01*
X99825Y95882D01*
X99906Y95768D01*
X99991Y95657D01*
X100079Y95548D01*
X100169Y95442D01*
X100263Y95338D01*
X100360Y95237D01*
X100460Y95139D01*
X100562Y95044D01*
X100667Y94952D01*
X100774Y94862D01*
X100884Y94776D01*
X100997Y94693D01*
X101111Y94613D01*
X101228Y94536D01*
X101347Y94463D01*
X101468Y94393D01*
X101591Y94327D01*
X101716Y94264D01*
X101843Y94204D01*
X101971Y94149D01*
X102101Y94097D01*
X102232Y94048D01*
X102364Y94003D01*
X102498Y93962D01*
X102632Y93925D01*
X102768Y93892D01*
X102905Y93863D01*
X103042Y93837D01*
X103180Y93815D01*
X103319Y93798D01*
X103458Y93784D01*
X103598Y93774D01*
X103737Y93768D01*
X103877Y93766D01*
X104017Y93768D01*
X104156Y93774D01*
X104296Y93784D01*
X104435Y93798D01*
X104574Y93815D01*
X104712Y93837D01*
X104849Y93863D01*
X104986Y93892D01*
X105122Y93925D01*
X105256Y93963D01*
X105390Y94003D01*
X105522Y94048D01*
X105654Y94097D01*
X105783Y94149D01*
X105911Y94204D01*
X106038Y94264D01*
X106163Y94327D01*
X106286Y94393D01*
X106407Y94463D01*
X106526Y94536D01*
X106643Y94613D01*
X106757Y94693D01*
X106870Y94776D01*
X106980Y94862D01*
X107087Y94952D01*
X107192Y95044D01*
X107294Y95139D01*
X107394Y95237D01*
X107491Y95338D01*
X107585Y95442D01*
X107675Y95548D01*
X107763Y95657D01*
X107848Y95768D01*
X107929Y95882D01*
X108008Y95997D01*
X108083Y96115D01*
X108154Y96236D01*
X108154Y96235D02*
X110624Y100512D01*
X91356Y86895D02*
X91291Y86779D01*
X91231Y86663D01*
X91173Y86544D01*
X91120Y86424D01*
X91070Y86302D01*
X91023Y86179D01*
X90980Y86054D01*
X90941Y85928D01*
X90906Y85801D01*
X90874Y85673D01*
X90846Y85545D01*
X90823Y85415D01*
X90802Y85285D01*
X90786Y85154D01*
X90774Y85023D01*
X90765Y84892D01*
X90761Y84760D01*
X90760Y84628D01*
X90763Y84496D01*
X90771Y84365D01*
X90782Y84234D01*
X90797Y84103D01*
X90815Y83972D01*
X90838Y83843D01*
X90865Y83714D01*
X90895Y83585D01*
X90929Y83458D01*
X90967Y83332D01*
X91008Y83207D01*
X91054Y83083D01*
X91103Y82961D01*
X91155Y82840D01*
X91211Y82721D01*
X91271Y82603D01*
X91334Y82488D01*
X91400Y82374D01*
X91470Y82262D01*
X91543Y82153D01*
X91619Y82045D01*
X91699Y81940D01*
X91781Y81837D01*
X91867Y81737D01*
X91955Y81639D01*
X92046Y81544D01*
X92140Y81452D01*
X92237Y81363D01*
X92337Y81276D01*
X92439Y81193D01*
X92543Y81112D01*
X92649Y81035D01*
X92758Y80961D01*
X92869Y80890D01*
X92983Y80823D01*
X91355Y86895D02*
X91432Y87023D01*
X91512Y87150D01*
X91595Y87274D01*
X91681Y87396D01*
X91771Y87516D01*
X91863Y87634D01*
X91959Y87749D01*
X92058Y87861D01*
X92159Y87971D01*
X92264Y88078D01*
X92371Y88183D01*
X92481Y88284D01*
X92593Y88383D01*
X92708Y88478D01*
X92826Y88571D01*
X92946Y88660D01*
X93068Y88747D01*
X93192Y88830D01*
X93319Y88910D01*
X93448Y88986D01*
X93578Y89059D01*
X93711Y89129D01*
X93845Y89195D01*
X93981Y89257D01*
X94118Y89316D01*
X94257Y89372D01*
X94398Y89423D01*
X94539Y89471D01*
X94682Y89516D01*
X94826Y89556D01*
X94971Y89593D01*
X95117Y89626D01*
X95264Y89655D01*
X95411Y89680D01*
X95560Y89702D01*
X95708Y89719D01*
X95857Y89733D01*
X96006Y89742D01*
X96156Y89748D01*
X96306Y89750D01*
X96455Y89748D01*
X96605Y89742D01*
X96754Y89732D01*
X96903Y89718D01*
X97051Y89700D01*
X97200Y89679D01*
X97347Y89653D01*
X97494Y89624D01*
X96717Y80377D02*
X96588Y80341D01*
X96459Y80309D01*
X96329Y80280D01*
X96198Y80255D01*
X96066Y80234D01*
X95934Y80217D01*
X95801Y80203D01*
X95669Y80192D01*
X95535Y80186D01*
X95402Y80183D01*
X95269Y80184D01*
X95136Y80189D01*
X95003Y80197D01*
X94870Y80209D01*
X94737Y80225D01*
X94606Y80244D01*
X94474Y80268D01*
X94344Y80294D01*
X94214Y80325D01*
X94085Y80359D01*
X93957Y80397D01*
X93830Y80438D01*
X93705Y80482D01*
X93581Y80531D01*
X93458Y80582D01*
X93336Y80637D01*
X93216Y80696D01*
X93098Y80758D01*
X92982Y80823D01*
X96717Y80377D02*
X109470Y82709D01*
X104531Y74155D01*
X92358Y66899D02*
X87225Y69863D01*
X92358Y66899D02*
X94479Y61683D01*
X92358Y66899D02*
X97936Y67671D01*
X92358Y66899D02*
X87930Y63182D01*
X92358Y66899D02*
X93363Y72592D01*
X11791Y34100D02*
X11791Y16320D01*
X11791Y34100D02*
X6853Y34100D01*
X6713Y34098D01*
X6574Y34092D01*
X6434Y34082D01*
X6295Y34068D01*
X6156Y34051D01*
X6018Y34029D01*
X5881Y34003D01*
X5744Y33974D01*
X5608Y33941D01*
X5474Y33904D01*
X5340Y33863D01*
X5208Y33818D01*
X5076Y33769D01*
X4947Y33717D01*
X4819Y33662D01*
X4692Y33602D01*
X4567Y33539D01*
X4444Y33473D01*
X4323Y33403D01*
X4204Y33330D01*
X4087Y33253D01*
X3973Y33173D01*
X3860Y33090D01*
X3750Y33004D01*
X3643Y32914D01*
X3538Y32822D01*
X3436Y32727D01*
X3336Y32629D01*
X3239Y32528D01*
X3145Y32424D01*
X3055Y32318D01*
X2967Y32209D01*
X2882Y32098D01*
X2801Y31984D01*
X2722Y31869D01*
X2647Y31751D01*
X2576Y31630D01*
X2508Y31508D01*
X2443Y31385D01*
X2382Y31259D01*
X2324Y31131D01*
X2270Y31003D01*
X2220Y30872D01*
X2173Y30740D01*
X2130Y30607D01*
X2091Y30473D01*
X2056Y30338D01*
X2025Y30202D01*
X1997Y30064D01*
X1974Y29927D01*
X1954Y29788D01*
X1938Y29649D01*
X1926Y29510D01*
X1918Y29371D01*
X1914Y29231D01*
X1914Y29091D01*
X1918Y28951D01*
X1926Y28812D01*
X1938Y28673D01*
X1954Y28534D01*
X1974Y28395D01*
X1997Y28258D01*
X2025Y28120D01*
X2056Y27984D01*
X2091Y27849D01*
X2130Y27715D01*
X2173Y27582D01*
X2220Y27450D01*
X2270Y27319D01*
X2324Y27191D01*
X2382Y27063D01*
X2443Y26937D01*
X2508Y26814D01*
X2576Y26691D01*
X2647Y26571D01*
X2722Y26453D01*
X2801Y26338D01*
X2882Y26224D01*
X2967Y26113D01*
X3055Y26004D01*
X3145Y25898D01*
X3239Y25794D01*
X3336Y25693D01*
X3436Y25595D01*
X3538Y25500D01*
X3643Y25408D01*
X3750Y25318D01*
X3860Y25232D01*
X3973Y25149D01*
X4087Y25069D01*
X4204Y24992D01*
X4323Y24919D01*
X4444Y24849D01*
X4567Y24783D01*
X4692Y24720D01*
X4819Y24660D01*
X4947Y24605D01*
X5076Y24553D01*
X5208Y24504D01*
X5340Y24459D01*
X5474Y24418D01*
X5608Y24381D01*
X5744Y24348D01*
X5881Y24319D01*
X6018Y24293D01*
X6156Y24271D01*
X6295Y24254D01*
X6434Y24240D01*
X6574Y24230D01*
X6713Y24224D01*
X6853Y24222D01*
X11791Y24222D01*
X-4204Y16320D02*
X-9143Y16320D01*
X-9283Y16322D01*
X-9422Y16328D01*
X-9562Y16338D01*
X-9701Y16352D01*
X-9840Y16369D01*
X-9978Y16391D01*
X-10115Y16417D01*
X-10252Y16446D01*
X-10388Y16479D01*
X-10522Y16516D01*
X-10656Y16557D01*
X-10788Y16602D01*
X-10920Y16651D01*
X-11049Y16703D01*
X-11177Y16758D01*
X-11304Y16818D01*
X-11429Y16881D01*
X-11552Y16947D01*
X-11673Y17017D01*
X-11792Y17090D01*
X-11909Y17167D01*
X-12023Y17247D01*
X-12136Y17330D01*
X-12246Y17416D01*
X-12353Y17506D01*
X-12458Y17598D01*
X-12560Y17693D01*
X-12660Y17791D01*
X-12757Y17892D01*
X-12851Y17996D01*
X-12941Y18102D01*
X-13029Y18211D01*
X-13114Y18322D01*
X-13195Y18436D01*
X-13274Y18551D01*
X-13349Y18669D01*
X-13420Y18789D01*
X-13488Y18912D01*
X-13553Y19035D01*
X-13614Y19161D01*
X-13672Y19289D01*
X-13726Y19417D01*
X-13776Y19548D01*
X-13823Y19680D01*
X-13866Y19813D01*
X-13905Y19947D01*
X-13940Y20082D01*
X-13971Y20218D01*
X-13999Y20356D01*
X-14022Y20493D01*
X-14042Y20632D01*
X-14058Y20771D01*
X-14070Y20910D01*
X-14078Y21049D01*
X-14082Y21189D01*
X-14082Y21329D01*
X-14078Y21469D01*
X-14070Y21608D01*
X-14058Y21747D01*
X-14042Y21886D01*
X-14022Y22025D01*
X-13999Y22162D01*
X-13971Y22300D01*
X-13940Y22436D01*
X-13905Y22571D01*
X-13866Y22705D01*
X-13823Y22838D01*
X-13776Y22970D01*
X-13726Y23101D01*
X-13672Y23229D01*
X-13614Y23357D01*
X-13553Y23483D01*
X-13488Y23606D01*
X-13420Y23728D01*
X-13349Y23849D01*
X-13274Y23967D01*
X-13195Y24082D01*
X-13114Y24196D01*
X-13029Y24307D01*
X-12941Y24416D01*
X-12851Y24522D01*
X-12757Y24626D01*
X-12660Y24727D01*
X-12560Y24825D01*
X-12458Y24920D01*
X-12353Y25012D01*
X-12246Y25102D01*
X-12136Y25188D01*
X-12023Y25271D01*
X-11909Y25351D01*
X-11792Y25428D01*
X-11673Y25501D01*
X-11552Y25571D01*
X-11429Y25637D01*
X-11304Y25700D01*
X-11177Y25760D01*
X-11049Y25815D01*
X-10920Y25867D01*
X-10788Y25916D01*
X-10656Y25961D01*
X-10522Y26002D01*
X-10388Y26039D01*
X-10252Y26072D01*
X-10115Y26101D01*
X-9978Y26127D01*
X-9840Y26149D01*
X-9701Y26166D01*
X-9562Y26180D01*
X-9422Y26190D01*
X-9283Y26196D01*
X-9143Y26198D01*
X-10130Y34100D02*
X-4204Y34100D01*
X-10130Y34100D02*
X-10254Y34098D01*
X-10378Y34092D01*
X-10502Y34082D01*
X-10625Y34069D01*
X-10748Y34051D01*
X-10870Y34030D01*
X-10992Y34005D01*
X-11113Y33976D01*
X-11232Y33943D01*
X-11351Y33907D01*
X-11468Y33866D01*
X-11584Y33823D01*
X-11699Y33775D01*
X-11812Y33724D01*
X-11924Y33669D01*
X-12033Y33611D01*
X-12141Y33550D01*
X-12247Y33485D01*
X-12351Y33417D01*
X-12452Y33345D01*
X-12552Y33271D01*
X-12648Y33193D01*
X-12743Y33113D01*
X-12835Y33029D01*
X-12924Y32943D01*
X-13010Y32854D01*
X-13094Y32762D01*
X-13174Y32667D01*
X-13252Y32571D01*
X-13326Y32471D01*
X-13398Y32370D01*
X-13466Y32266D01*
X-13531Y32160D01*
X-13592Y32052D01*
X-13650Y31943D01*
X-13705Y31831D01*
X-13756Y31718D01*
X-13804Y31603D01*
X-13847Y31487D01*
X-13888Y31370D01*
X-13924Y31251D01*
X-13957Y31132D01*
X-13986Y31011D01*
X-14011Y30889D01*
X-14032Y30767D01*
X-14050Y30644D01*
X-14063Y30521D01*
X-14073Y30397D01*
X-14079Y30273D01*
X-14081Y30149D01*
X-14079Y30025D01*
X-14073Y29901D01*
X-14063Y29777D01*
X-14050Y29654D01*
X-14032Y29531D01*
X-14011Y29409D01*
X-13986Y29287D01*
X-13957Y29166D01*
X-13924Y29047D01*
X-13888Y28928D01*
X-13847Y28811D01*
X-13804Y28695D01*
X-13756Y28580D01*
X-13705Y28467D01*
X-13650Y28355D01*
X-13592Y28246D01*
X-13531Y28138D01*
X-13466Y28032D01*
X-13398Y27928D01*
X-13326Y27827D01*
X-13252Y27727D01*
X-13174Y27631D01*
X-13094Y27536D01*
X-13010Y27444D01*
X-12924Y27355D01*
X-12835Y27269D01*
X-12743Y27185D01*
X-12648Y27105D01*
X-12552Y27027D01*
X-12452Y26953D01*
X-12351Y26881D01*
X-12247Y26813D01*
X-12141Y26748D01*
X-12033Y26687D01*
X-11924Y26629D01*
X-11812Y26574D01*
X-11699Y26523D01*
X-11584Y26475D01*
X-11468Y26432D01*
X-11351Y26391D01*
X-11232Y26355D01*
X-11113Y26322D01*
X-10992Y26293D01*
X-10870Y26268D01*
X-10748Y26247D01*
X-10625Y26229D01*
X-10502Y26216D01*
X-10378Y26206D01*
X-10254Y26200D01*
X-10130Y26198D01*
X-6179Y26198D01*
X-98500Y98893D02*
X-109929Y85273D01*
X-98500Y98893D02*
X-102284Y102068D01*
X-102393Y102157D01*
X-102503Y102242D01*
X-102617Y102324D01*
X-102732Y102403D01*
X-102850Y102478D01*
X-102969Y102551D01*
X-103091Y102619D01*
X-103215Y102685D01*
X-103340Y102746D01*
X-103467Y102805D01*
X-103596Y102859D01*
X-103726Y102910D01*
X-103858Y102957D01*
X-103990Y103001D01*
X-104125Y103040D01*
X-104260Y103076D01*
X-104396Y103108D01*
X-104533Y103136D01*
X-104670Y103161D01*
X-104809Y103181D01*
X-104947Y103197D01*
X-105087Y103210D01*
X-105226Y103219D01*
X-105366Y103223D01*
X-105506Y103224D01*
X-105645Y103220D01*
X-105785Y103213D01*
X-105924Y103202D01*
X-106063Y103187D01*
X-106202Y103168D01*
X-106340Y103145D01*
X-106477Y103118D01*
X-106613Y103087D01*
X-106749Y103053D01*
X-106883Y103014D01*
X-107016Y102972D01*
X-107148Y102926D01*
X-107279Y102876D01*
X-107408Y102823D01*
X-107536Y102766D01*
X-107662Y102706D01*
X-107786Y102641D01*
X-107908Y102574D01*
X-108029Y102503D01*
X-108147Y102428D01*
X-108263Y102351D01*
X-108377Y102270D01*
X-108489Y102186D01*
X-108598Y102098D01*
X-108705Y102008D01*
X-108809Y101915D01*
X-108910Y101818D01*
X-109009Y101719D01*
X-109104Y101617D01*
X-109197Y101513D01*
X-109287Y101406D01*
X-109374Y101296D01*
X-109457Y101184D01*
X-109538Y101070D01*
X-109615Y100953D01*
X-109689Y100835D01*
X-109759Y100714D01*
X-109826Y100591D01*
X-109890Y100467D01*
X-109950Y100341D01*
X-110006Y100213D01*
X-110059Y100083D01*
X-110108Y99952D01*
X-110153Y99820D01*
X-110195Y99687D01*
X-110233Y99552D01*
X-110267Y99416D01*
X-110297Y99280D01*
X-110323Y99143D01*
X-110345Y99005D01*
X-110364Y98866D01*
X-110378Y98727D01*
X-110389Y98588D01*
X-110395Y98448D01*
X-110398Y98308D01*
X-110397Y98169D01*
X-110391Y98029D01*
X-110382Y97889D01*
X-110369Y97750D01*
X-110352Y97611D01*
X-110331Y97473D01*
X-110306Y97336D01*
X-110277Y97199D01*
X-110244Y97063D01*
X-110208Y96928D01*
X-110168Y96794D01*
X-110124Y96662D01*
X-110076Y96530D01*
X-110024Y96400D01*
X-109969Y96272D01*
X-109910Y96145D01*
X-109848Y96020D01*
X-109782Y95897D01*
X-109713Y95775D01*
X-109640Y95656D01*
X-109564Y95539D01*
X-109485Y95424D01*
X-109402Y95311D01*
X-109316Y95200D01*
X-109227Y95092D01*
X-109136Y94987D01*
X-109041Y94884D01*
X-108943Y94784D01*
X-108843Y94687D01*
X-108740Y94593D01*
X-108634Y94502D01*
X-108633Y94501D02*
X-104850Y91327D01*
X-119642Y98581D02*
X-113780Y111714D01*
X-119642Y98581D02*
X-127209Y104930D01*
X-127479Y99999D02*
X-122399Y106052D01*
X-109711Y189380D02*
X-109711Y207160D01*
X-114650Y207160D01*
X-114790Y207158D01*
X-114929Y207152D01*
X-115069Y207142D01*
X-115208Y207128D01*
X-115347Y207111D01*
X-115485Y207089D01*
X-115622Y207063D01*
X-115759Y207034D01*
X-115895Y207001D01*
X-116029Y206964D01*
X-116163Y206923D01*
X-116295Y206878D01*
X-116427Y206829D01*
X-116556Y206777D01*
X-116684Y206722D01*
X-116811Y206662D01*
X-116936Y206599D01*
X-117059Y206533D01*
X-117180Y206463D01*
X-117299Y206390D01*
X-117416Y206313D01*
X-117530Y206233D01*
X-117643Y206150D01*
X-117753Y206064D01*
X-117860Y205974D01*
X-117965Y205882D01*
X-118067Y205787D01*
X-118167Y205689D01*
X-118264Y205588D01*
X-118358Y205484D01*
X-118448Y205378D01*
X-118536Y205269D01*
X-118621Y205158D01*
X-118702Y205044D01*
X-118781Y204929D01*
X-118856Y204811D01*
X-118927Y204691D01*
X-118995Y204568D01*
X-119060Y204445D01*
X-119121Y204319D01*
X-119179Y204191D01*
X-119233Y204063D01*
X-119283Y203932D01*
X-119330Y203800D01*
X-119373Y203667D01*
X-119412Y203533D01*
X-119447Y203398D01*
X-119478Y203262D01*
X-119506Y203124D01*
X-119529Y202987D01*
X-119549Y202848D01*
X-119565Y202709D01*
X-119577Y202570D01*
X-119585Y202431D01*
X-119589Y202291D01*
X-119589Y202151D01*
X-119585Y202011D01*
X-119577Y201872D01*
X-119565Y201733D01*
X-119549Y201594D01*
X-119529Y201455D01*
X-119506Y201318D01*
X-119478Y201180D01*
X-119447Y201044D01*
X-119412Y200909D01*
X-119373Y200775D01*
X-119330Y200642D01*
X-119283Y200510D01*
X-119233Y200379D01*
X-119179Y200251D01*
X-119121Y200123D01*
X-119060Y199997D01*
X-118995Y199874D01*
X-118927Y199751D01*
X-118856Y199631D01*
X-118781Y199513D01*
X-118702Y199398D01*
X-118621Y199284D01*
X-118536Y199173D01*
X-118448Y199064D01*
X-118358Y198958D01*
X-118264Y198854D01*
X-118167Y198753D01*
X-118067Y198655D01*
X-117965Y198560D01*
X-117860Y198468D01*
X-117753Y198378D01*
X-117643Y198292D01*
X-117530Y198209D01*
X-117416Y198129D01*
X-117299Y198052D01*
X-117180Y197979D01*
X-117059Y197909D01*
X-116936Y197843D01*
X-116811Y197780D01*
X-116684Y197720D01*
X-116556Y197665D01*
X-116427Y197613D01*
X-116295Y197564D01*
X-116163Y197519D01*
X-116029Y197478D01*
X-115895Y197441D01*
X-115759Y197408D01*
X-115622Y197379D01*
X-115485Y197353D01*
X-115347Y197331D01*
X-115208Y197314D01*
X-115069Y197300D01*
X-114929Y197290D01*
X-114790Y197284D01*
X-114650Y197282D01*
X-109711Y197282D01*
X-125706Y189380D02*
X-131633Y189380D01*
X-131757Y189382D01*
X-131881Y189388D01*
X-132005Y189398D01*
X-132128Y189411D01*
X-132251Y189429D01*
X-132373Y189450D01*
X-132495Y189475D01*
X-132616Y189504D01*
X-132735Y189537D01*
X-132854Y189573D01*
X-132971Y189614D01*
X-133087Y189657D01*
X-133202Y189705D01*
X-133315Y189756D01*
X-133427Y189811D01*
X-133536Y189869D01*
X-133644Y189930D01*
X-133750Y189995D01*
X-133854Y190063D01*
X-133955Y190135D01*
X-134055Y190209D01*
X-134151Y190287D01*
X-134246Y190367D01*
X-134338Y190451D01*
X-134427Y190537D01*
X-134513Y190626D01*
X-134597Y190718D01*
X-134677Y190813D01*
X-134755Y190909D01*
X-134829Y191009D01*
X-134901Y191110D01*
X-134969Y191214D01*
X-135034Y191320D01*
X-135095Y191428D01*
X-135153Y191537D01*
X-135208Y191649D01*
X-135259Y191762D01*
X-135307Y191877D01*
X-135350Y191993D01*
X-135391Y192110D01*
X-135427Y192229D01*
X-135460Y192348D01*
X-135489Y192469D01*
X-135514Y192591D01*
X-135535Y192713D01*
X-135553Y192836D01*
X-135566Y192959D01*
X-135576Y193083D01*
X-135582Y193207D01*
X-135584Y193331D01*
X-135584Y195307D01*
X-135582Y195431D01*
X-135576Y195555D01*
X-135566Y195679D01*
X-135553Y195802D01*
X-135535Y195925D01*
X-135514Y196047D01*
X-135489Y196169D01*
X-135460Y196290D01*
X-135427Y196409D01*
X-135391Y196528D01*
X-135350Y196645D01*
X-135307Y196761D01*
X-135259Y196876D01*
X-135208Y196989D01*
X-135153Y197101D01*
X-135095Y197210D01*
X-135034Y197318D01*
X-134969Y197424D01*
X-134901Y197528D01*
X-134829Y197629D01*
X-134755Y197729D01*
X-134677Y197825D01*
X-134597Y197920D01*
X-134513Y198012D01*
X-134427Y198101D01*
X-134338Y198187D01*
X-134246Y198271D01*
X-134151Y198351D01*
X-134055Y198429D01*
X-133955Y198503D01*
X-133854Y198575D01*
X-133750Y198643D01*
X-133644Y198708D01*
X-133536Y198769D01*
X-133427Y198827D01*
X-133315Y198882D01*
X-133202Y198933D01*
X-133087Y198981D01*
X-132971Y199024D01*
X-132854Y199065D01*
X-132735Y199101D01*
X-132616Y199134D01*
X-132495Y199163D01*
X-132373Y199188D01*
X-132251Y199209D01*
X-132128Y199227D01*
X-132005Y199240D01*
X-131881Y199250D01*
X-131757Y199256D01*
X-131633Y199258D01*
X-125706Y199258D01*
X-125706Y207160D01*
X-135584Y207160D01*
X56771Y275384D02*
X56771Y293164D01*
X56771Y285262D02*
X46894Y285262D01*
X46894Y293164D02*
X46894Y275384D01*
X29585Y288719D02*
X29587Y288851D01*
X29593Y288982D01*
X29603Y289114D01*
X29616Y289245D01*
X29634Y289375D01*
X29655Y289505D01*
X29680Y289635D01*
X29709Y289763D01*
X29742Y289891D01*
X29779Y290017D01*
X29819Y290143D01*
X29863Y290267D01*
X29911Y290390D01*
X29962Y290511D01*
X30017Y290631D01*
X30075Y290749D01*
X30137Y290865D01*
X30203Y290979D01*
X30271Y291092D01*
X30343Y291202D01*
X30418Y291310D01*
X30497Y291416D01*
X30578Y291520D01*
X30663Y291621D01*
X30750Y291719D01*
X30841Y291815D01*
X30934Y291908D01*
X31030Y291999D01*
X31128Y292086D01*
X31229Y292171D01*
X31333Y292252D01*
X31439Y292331D01*
X31547Y292406D01*
X31657Y292478D01*
X31770Y292546D01*
X31884Y292612D01*
X32000Y292674D01*
X32118Y292732D01*
X32238Y292787D01*
X32359Y292838D01*
X32482Y292886D01*
X32606Y292930D01*
X32732Y292970D01*
X32858Y293007D01*
X32986Y293040D01*
X33114Y293069D01*
X33244Y293094D01*
X33374Y293115D01*
X33504Y293133D01*
X33635Y293146D01*
X33767Y293156D01*
X33898Y293162D01*
X34030Y293164D01*
X34030Y293165D02*
X34180Y293163D01*
X34329Y293157D01*
X34478Y293147D01*
X34627Y293134D01*
X34776Y293116D01*
X34924Y293095D01*
X35072Y293069D01*
X35218Y293040D01*
X35364Y293007D01*
X35509Y292970D01*
X35653Y292929D01*
X35796Y292885D01*
X35938Y292837D01*
X36078Y292785D01*
X36217Y292730D01*
X36355Y292671D01*
X36490Y292608D01*
X36625Y292542D01*
X36757Y292472D01*
X36887Y292399D01*
X37016Y292322D01*
X37143Y292242D01*
X37267Y292159D01*
X37389Y292073D01*
X37509Y291983D01*
X37626Y291890D01*
X37741Y291795D01*
X37854Y291696D01*
X37964Y291594D01*
X38071Y291490D01*
X38175Y291383D01*
X38277Y291273D01*
X38375Y291160D01*
X38471Y291045D01*
X38563Y290927D01*
X38653Y290807D01*
X38739Y290685D01*
X38822Y290561D01*
X38902Y290434D01*
X38978Y290306D01*
X39051Y290175D01*
X39121Y290042D01*
X39187Y289908D01*
X39249Y289772D01*
X39308Y289635D01*
X39364Y289496D01*
X39415Y289355D01*
X39463Y289214D01*
X31067Y285262D02*
X30971Y285355D01*
X30879Y285451D01*
X30789Y285550D01*
X30702Y285651D01*
X30618Y285754D01*
X30536Y285859D01*
X30458Y285967D01*
X30383Y286077D01*
X30310Y286189D01*
X30241Y286303D01*
X30175Y286419D01*
X30113Y286537D01*
X30054Y286656D01*
X29998Y286777D01*
X29945Y286900D01*
X29896Y287024D01*
X29851Y287149D01*
X29808Y287276D01*
X29770Y287403D01*
X29735Y287532D01*
X29704Y287661D01*
X29676Y287792D01*
X29652Y287923D01*
X29631Y288055D01*
X29615Y288187D01*
X29602Y288320D01*
X29592Y288453D01*
X29587Y288586D01*
X29585Y288719D01*
X31066Y285262D02*
X39463Y275384D01*
X29585Y275384D01*
X22712Y289213D02*
X17773Y293164D01*
X17773Y275384D01*
X22712Y275384D02*
X12834Y275384D01*
X5318Y275384D02*
X5318Y293164D01*
X379Y293164D01*
X239Y293162D01*
X100Y293156D01*
X-40Y293146D01*
X-179Y293132D01*
X-318Y293115D01*
X-456Y293093D01*
X-593Y293067D01*
X-730Y293038D01*
X-866Y293005D01*
X-1000Y292968D01*
X-1134Y292927D01*
X-1266Y292882D01*
X-1398Y292833D01*
X-1527Y292781D01*
X-1655Y292726D01*
X-1782Y292666D01*
X-1907Y292603D01*
X-2030Y292537D01*
X-2151Y292467D01*
X-2270Y292394D01*
X-2387Y292317D01*
X-2501Y292237D01*
X-2614Y292154D01*
X-2724Y292068D01*
X-2831Y291978D01*
X-2936Y291886D01*
X-3038Y291791D01*
X-3138Y291693D01*
X-3235Y291592D01*
X-3329Y291488D01*
X-3419Y291382D01*
X-3507Y291273D01*
X-3592Y291162D01*
X-3673Y291048D01*
X-3752Y290933D01*
X-3827Y290815D01*
X-3898Y290695D01*
X-3966Y290572D01*
X-4031Y290449D01*
X-4092Y290323D01*
X-4150Y290195D01*
X-4204Y290067D01*
X-4254Y289936D01*
X-4301Y289804D01*
X-4344Y289671D01*
X-4383Y289537D01*
X-4418Y289402D01*
X-4449Y289266D01*
X-4477Y289128D01*
X-4500Y288991D01*
X-4520Y288852D01*
X-4536Y288713D01*
X-4548Y288574D01*
X-4556Y288435D01*
X-4560Y288295D01*
X-4560Y288155D01*
X-4556Y288015D01*
X-4548Y287876D01*
X-4536Y287737D01*
X-4520Y287598D01*
X-4500Y287459D01*
X-4477Y287322D01*
X-4449Y287184D01*
X-4418Y287048D01*
X-4383Y286913D01*
X-4344Y286779D01*
X-4301Y286646D01*
X-4254Y286514D01*
X-4204Y286383D01*
X-4150Y286255D01*
X-4092Y286127D01*
X-4031Y286001D01*
X-3966Y285878D01*
X-3898Y285756D01*
X-3827Y285635D01*
X-3752Y285517D01*
X-3673Y285402D01*
X-3592Y285288D01*
X-3507Y285177D01*
X-3419Y285068D01*
X-3329Y284962D01*
X-3235Y284858D01*
X-3138Y284757D01*
X-3038Y284659D01*
X-2936Y284564D01*
X-2831Y284472D01*
X-2724Y284382D01*
X-2614Y284296D01*
X-2501Y284213D01*
X-2387Y284133D01*
X-2270Y284056D01*
X-2151Y283983D01*
X-2030Y283913D01*
X-1907Y283847D01*
X-1782Y283784D01*
X-1655Y283724D01*
X-1527Y283669D01*
X-1398Y283617D01*
X-1266Y283568D01*
X-1134Y283523D01*
X-1000Y283482D01*
X-866Y283445D01*
X-730Y283412D01*
X-593Y283383D01*
X-456Y283357D01*
X-318Y283335D01*
X-179Y283318D01*
X-40Y283304D01*
X100Y283294D01*
X239Y283288D01*
X379Y283286D01*
X5318Y283286D01*
X-609Y283286D02*
X-4560Y275384D01*
X-21225Y288719D02*
X-21223Y288851D01*
X-21217Y288982D01*
X-21207Y289114D01*
X-21194Y289245D01*
X-21176Y289375D01*
X-21155Y289505D01*
X-21130Y289635D01*
X-21101Y289763D01*
X-21068Y289891D01*
X-21031Y290017D01*
X-20991Y290143D01*
X-20947Y290267D01*
X-20899Y290390D01*
X-20848Y290511D01*
X-20793Y290631D01*
X-20735Y290749D01*
X-20673Y290865D01*
X-20607Y290979D01*
X-20539Y291092D01*
X-20467Y291202D01*
X-20392Y291310D01*
X-20313Y291416D01*
X-20232Y291520D01*
X-20147Y291621D01*
X-20060Y291719D01*
X-19969Y291815D01*
X-19876Y291908D01*
X-19780Y291999D01*
X-19682Y292086D01*
X-19581Y292171D01*
X-19477Y292252D01*
X-19371Y292331D01*
X-19263Y292406D01*
X-19153Y292478D01*
X-19040Y292546D01*
X-18926Y292612D01*
X-18810Y292674D01*
X-18692Y292732D01*
X-18572Y292787D01*
X-18451Y292838D01*
X-18328Y292886D01*
X-18204Y292930D01*
X-18078Y292970D01*
X-17952Y293007D01*
X-17824Y293040D01*
X-17696Y293069D01*
X-17566Y293094D01*
X-17436Y293115D01*
X-17306Y293133D01*
X-17175Y293146D01*
X-17043Y293156D01*
X-16912Y293162D01*
X-16780Y293164D01*
X-16780Y293165D02*
X-16630Y293163D01*
X-16481Y293157D01*
X-16332Y293147D01*
X-16183Y293134D01*
X-16034Y293116D01*
X-15886Y293095D01*
X-15738Y293069D01*
X-15592Y293040D01*
X-15446Y293007D01*
X-15301Y292970D01*
X-15157Y292929D01*
X-15014Y292885D01*
X-14872Y292837D01*
X-14732Y292785D01*
X-14593Y292730D01*
X-14455Y292671D01*
X-14320Y292608D01*
X-14185Y292542D01*
X-14053Y292472D01*
X-13923Y292399D01*
X-13794Y292322D01*
X-13667Y292242D01*
X-13543Y292159D01*
X-13421Y292073D01*
X-13301Y291983D01*
X-13184Y291890D01*
X-13069Y291795D01*
X-12956Y291696D01*
X-12846Y291594D01*
X-12739Y291490D01*
X-12635Y291383D01*
X-12533Y291273D01*
X-12435Y291160D01*
X-12339Y291045D01*
X-12247Y290927D01*
X-12157Y290807D01*
X-12071Y290685D01*
X-11988Y290561D01*
X-11908Y290434D01*
X-11832Y290306D01*
X-11759Y290175D01*
X-11689Y290042D01*
X-11623Y289908D01*
X-11561Y289772D01*
X-11502Y289635D01*
X-11446Y289496D01*
X-11395Y289355D01*
X-11347Y289214D01*
X-19743Y285262D02*
X-19839Y285355D01*
X-19931Y285451D01*
X-20021Y285550D01*
X-20108Y285651D01*
X-20193Y285754D01*
X-20274Y285859D01*
X-20352Y285967D01*
X-20427Y286077D01*
X-20500Y286189D01*
X-20569Y286303D01*
X-20635Y286419D01*
X-20697Y286537D01*
X-20756Y286656D01*
X-20812Y286777D01*
X-20865Y286900D01*
X-20914Y287024D01*
X-20959Y287149D01*
X-21002Y287276D01*
X-21040Y287403D01*
X-21075Y287532D01*
X-21106Y287661D01*
X-21134Y287792D01*
X-21158Y287923D01*
X-21179Y288055D01*
X-21195Y288187D01*
X-21208Y288320D01*
X-21218Y288453D01*
X-21223Y288586D01*
X-21225Y288719D01*
X-19743Y285262D02*
X-11347Y275384D01*
X-21225Y275384D01*
X-28098Y284274D02*
X-28102Y284624D01*
X-28115Y284973D01*
X-28136Y285322D01*
X-28165Y285671D01*
X-28202Y286019D01*
X-28248Y286366D01*
X-28302Y286711D01*
X-28364Y287055D01*
X-28435Y287398D01*
X-28514Y287739D01*
X-28600Y288078D01*
X-28695Y288414D01*
X-28798Y288749D01*
X-28909Y289080D01*
X-29027Y289410D01*
X-29154Y289736D01*
X-29288Y290059D01*
X-29430Y290378D01*
X-29580Y290695D01*
X-29579Y290694D02*
X-29619Y290807D01*
X-29663Y290917D01*
X-29711Y291027D01*
X-29762Y291135D01*
X-29817Y291240D01*
X-29875Y291345D01*
X-29937Y291447D01*
X-30002Y291547D01*
X-30070Y291645D01*
X-30141Y291741D01*
X-30216Y291834D01*
X-30293Y291925D01*
X-30373Y292013D01*
X-30457Y292098D01*
X-30542Y292181D01*
X-30631Y292261D01*
X-30722Y292338D01*
X-30816Y292412D01*
X-30912Y292483D01*
X-31010Y292551D01*
X-31110Y292615D01*
X-31213Y292677D01*
X-31317Y292734D01*
X-31423Y292789D01*
X-31531Y292840D01*
X-31641Y292887D01*
X-31752Y292931D01*
X-31864Y292971D01*
X-31978Y293007D01*
X-32092Y293040D01*
X-32208Y293069D01*
X-32325Y293094D01*
X-32442Y293115D01*
X-32560Y293133D01*
X-32679Y293146D01*
X-32798Y293156D01*
X-32917Y293162D01*
X-33036Y293164D01*
X-33036Y293165D02*
X-33155Y293163D01*
X-33274Y293157D01*
X-33393Y293147D01*
X-33512Y293134D01*
X-33630Y293116D01*
X-33747Y293095D01*
X-33864Y293070D01*
X-33980Y293041D01*
X-34094Y293008D01*
X-34208Y292972D01*
X-34320Y292932D01*
X-34431Y292888D01*
X-34541Y292841D01*
X-34649Y292790D01*
X-34755Y292735D01*
X-34859Y292678D01*
X-34962Y292616D01*
X-35062Y292552D01*
X-35160Y292484D01*
X-35256Y292413D01*
X-35350Y292339D01*
X-35441Y292262D01*
X-35530Y292182D01*
X-35616Y292099D01*
X-35699Y292014D01*
X-35779Y291926D01*
X-35856Y291835D01*
X-35931Y291742D01*
X-36002Y291646D01*
X-36070Y291548D01*
X-36135Y291448D01*
X-36197Y291346D01*
X-36255Y291241D01*
X-36310Y291135D01*
X-36361Y291028D01*
X-36409Y290918D01*
X-36453Y290808D01*
X-36493Y290695D01*
X-36643Y290378D01*
X-36785Y290059D01*
X-36919Y289736D01*
X-37046Y289410D01*
X-37164Y289080D01*
X-37275Y288749D01*
X-37378Y288414D01*
X-37473Y288078D01*
X-37559Y287739D01*
X-37638Y287398D01*
X-37709Y287055D01*
X-37771Y286711D01*
X-37825Y286366D01*
X-37871Y286019D01*
X-37908Y285671D01*
X-37937Y285322D01*
X-37958Y284973D01*
X-37971Y284624D01*
X-37975Y284274D01*
X-28098Y284274D02*
X-28102Y283924D01*
X-28115Y283575D01*
X-28136Y283226D01*
X-28165Y282877D01*
X-28202Y282529D01*
X-28248Y282182D01*
X-28302Y281837D01*
X-28364Y281493D01*
X-28435Y281150D01*
X-28514Y280809D01*
X-28600Y280470D01*
X-28695Y280134D01*
X-28798Y279799D01*
X-28909Y279468D01*
X-29027Y279139D01*
X-29154Y278812D01*
X-29288Y278489D01*
X-29430Y278170D01*
X-29580Y277854D01*
X-29579Y277854D02*
X-29619Y277741D01*
X-29663Y277631D01*
X-29711Y277521D01*
X-29762Y277413D01*
X-29817Y277307D01*
X-29875Y277203D01*
X-29937Y277101D01*
X-30002Y277001D01*
X-30070Y276903D01*
X-30141Y276807D01*
X-30216Y276714D01*
X-30293Y276623D01*
X-30373Y276535D01*
X-30457Y276450D01*
X-30542Y276367D01*
X-30631Y276287D01*
X-30722Y276210D01*
X-30816Y276136D01*
X-30912Y276065D01*
X-31010Y275997D01*
X-31110Y275933D01*
X-31213Y275871D01*
X-31317Y275813D01*
X-31423Y275759D01*
X-31531Y275708D01*
X-31641Y275661D01*
X-31752Y275617D01*
X-31864Y275577D01*
X-31978Y275541D01*
X-32092Y275508D01*
X-32208Y275479D01*
X-32325Y275454D01*
X-32442Y275433D01*
X-32560Y275415D01*
X-32679Y275402D01*
X-32798Y275392D01*
X-32917Y275386D01*
X-33036Y275384D01*
X-36493Y277854D02*
X-36643Y278170D01*
X-36785Y278489D01*
X-36919Y278812D01*
X-37046Y279139D01*
X-37164Y279468D01*
X-37275Y279799D01*
X-37378Y280134D01*
X-37473Y280470D01*
X-37559Y280809D01*
X-37638Y281150D01*
X-37709Y281493D01*
X-37771Y281837D01*
X-37825Y282182D01*
X-37871Y282529D01*
X-37908Y282877D01*
X-37937Y283226D01*
X-37958Y283575D01*
X-37971Y283924D01*
X-37975Y284274D01*
X-36493Y277854D02*
X-36453Y277741D01*
X-36409Y277631D01*
X-36361Y277521D01*
X-36310Y277414D01*
X-36255Y277308D01*
X-36197Y277203D01*
X-36135Y277101D01*
X-36070Y277001D01*
X-36002Y276903D01*
X-35931Y276807D01*
X-35856Y276714D01*
X-35779Y276623D01*
X-35699Y276535D01*
X-35616Y276450D01*
X-35530Y276367D01*
X-35441Y276287D01*
X-35350Y276210D01*
X-35256Y276136D01*
X-35160Y276065D01*
X-35062Y275997D01*
X-34962Y275933D01*
X-34859Y275871D01*
X-34755Y275814D01*
X-34649Y275759D01*
X-34541Y275708D01*
X-34431Y275661D01*
X-34320Y275617D01*
X-34208Y275577D01*
X-34094Y275541D01*
X-33980Y275508D01*
X-33864Y275479D01*
X-33747Y275454D01*
X-33630Y275433D01*
X-33512Y275415D01*
X-33393Y275402D01*
X-33274Y275392D01*
X-33155Y275386D01*
X-33036Y275384D01*
X-29085Y279335D02*
X-36988Y289213D01*
D12*
X95455Y105156D02*
X97543Y105156D01*
X97632Y105158D01*
X97720Y105164D01*
X97808Y105173D01*
X97896Y105186D01*
X97983Y105203D01*
X98069Y105223D01*
X98154Y105248D01*
X98239Y105275D01*
X98322Y105307D01*
X98403Y105341D01*
X98483Y105380D01*
X98561Y105421D01*
X98638Y105466D01*
X98712Y105514D01*
X98785Y105565D01*
X98855Y105619D01*
X98922Y105677D01*
X98988Y105737D01*
X99050Y105799D01*
X99110Y105865D01*
X99168Y105932D01*
X99222Y106002D01*
X99273Y106075D01*
X99321Y106149D01*
X99366Y106226D01*
X99407Y106304D01*
X99446Y106384D01*
X99480Y106465D01*
X99512Y106548D01*
X99539Y106633D01*
X99564Y106718D01*
X99584Y106804D01*
X99601Y106891D01*
X99614Y106979D01*
X99623Y107067D01*
X99629Y107155D01*
X99631Y107244D01*
X99632Y107244D02*
X99632Y112466D01*
X99631Y112466D02*
X99629Y112555D01*
X99623Y112643D01*
X99614Y112731D01*
X99601Y112819D01*
X99584Y112906D01*
X99564Y112992D01*
X99539Y113077D01*
X99512Y113162D01*
X99480Y113245D01*
X99446Y113326D01*
X99407Y113406D01*
X99366Y113484D01*
X99321Y113561D01*
X99273Y113635D01*
X99222Y113708D01*
X99168Y113778D01*
X99110Y113845D01*
X99050Y113911D01*
X98988Y113973D01*
X98922Y114033D01*
X98855Y114091D01*
X98785Y114145D01*
X98712Y114196D01*
X98638Y114244D01*
X98561Y114289D01*
X98483Y114330D01*
X98403Y114369D01*
X98322Y114403D01*
X98239Y114435D01*
X98154Y114462D01*
X98069Y114487D01*
X97983Y114507D01*
X97896Y114524D01*
X97808Y114537D01*
X97720Y114546D01*
X97632Y114552D01*
X97543Y114554D01*
X95455Y114554D01*
X91986Y112466D02*
X89375Y114554D01*
X89375Y105156D01*
X86765Y105156D02*
X91986Y105156D01*
D11*
X51283Y124981D02*
X51283Y145110D01*
D12*
X97971Y131509D02*
X100059Y131509D01*
X100148Y131511D01*
X100236Y131517D01*
X100324Y131526D01*
X100412Y131539D01*
X100499Y131556D01*
X100585Y131576D01*
X100670Y131601D01*
X100755Y131628D01*
X100838Y131660D01*
X100919Y131694D01*
X100999Y131733D01*
X101077Y131774D01*
X101154Y131819D01*
X101228Y131867D01*
X101301Y131918D01*
X101371Y131972D01*
X101438Y132030D01*
X101504Y132090D01*
X101566Y132152D01*
X101626Y132218D01*
X101684Y132285D01*
X101738Y132355D01*
X101789Y132428D01*
X101837Y132502D01*
X101882Y132579D01*
X101923Y132657D01*
X101962Y132737D01*
X101996Y132818D01*
X102028Y132901D01*
X102055Y132986D01*
X102080Y133071D01*
X102100Y133157D01*
X102117Y133244D01*
X102130Y133332D01*
X102139Y133420D01*
X102145Y133508D01*
X102147Y133597D01*
X102148Y133597D02*
X102148Y138818D01*
X102147Y138818D02*
X102145Y138907D01*
X102139Y138995D01*
X102130Y139083D01*
X102117Y139171D01*
X102100Y139258D01*
X102080Y139344D01*
X102055Y139429D01*
X102028Y139514D01*
X101996Y139597D01*
X101962Y139678D01*
X101923Y139758D01*
X101882Y139836D01*
X101837Y139913D01*
X101789Y139987D01*
X101738Y140060D01*
X101684Y140130D01*
X101626Y140197D01*
X101566Y140263D01*
X101504Y140325D01*
X101438Y140385D01*
X101371Y140443D01*
X101301Y140497D01*
X101228Y140548D01*
X101154Y140596D01*
X101077Y140641D01*
X100999Y140682D01*
X100919Y140721D01*
X100838Y140755D01*
X100755Y140787D01*
X100670Y140814D01*
X100585Y140839D01*
X100499Y140859D01*
X100412Y140876D01*
X100324Y140889D01*
X100236Y140898D01*
X100148Y140904D01*
X100059Y140906D01*
X100059Y140907D02*
X97971Y140907D01*
X94502Y131509D02*
X91892Y131509D01*
X91892Y131508D02*
X91791Y131510D01*
X91690Y131516D01*
X91589Y131526D01*
X91489Y131539D01*
X91389Y131557D01*
X91290Y131578D01*
X91192Y131604D01*
X91095Y131633D01*
X90999Y131665D01*
X90905Y131702D01*
X90812Y131742D01*
X90720Y131786D01*
X90631Y131833D01*
X90543Y131884D01*
X90457Y131938D01*
X90374Y131995D01*
X90292Y132055D01*
X90214Y132119D01*
X90137Y132185D01*
X90064Y132255D01*
X89993Y132327D01*
X89925Y132402D01*
X89860Y132480D01*
X89798Y132560D01*
X89739Y132642D01*
X89683Y132727D01*
X89631Y132814D01*
X89582Y132902D01*
X89536Y132993D01*
X89495Y133085D01*
X89456Y133179D01*
X89422Y133274D01*
X89391Y133370D01*
X89364Y133468D01*
X89340Y133566D01*
X89321Y133666D01*
X89305Y133766D01*
X89293Y133866D01*
X89285Y133967D01*
X89281Y134068D01*
X89281Y134170D01*
X89285Y134271D01*
X89293Y134372D01*
X89305Y134472D01*
X89321Y134572D01*
X89340Y134672D01*
X89364Y134770D01*
X89391Y134868D01*
X89422Y134964D01*
X89456Y135059D01*
X89495Y135153D01*
X89536Y135245D01*
X89582Y135336D01*
X89631Y135425D01*
X89683Y135511D01*
X89739Y135596D01*
X89798Y135678D01*
X89860Y135758D01*
X89925Y135836D01*
X89993Y135911D01*
X90064Y135983D01*
X90137Y136053D01*
X90214Y136119D01*
X90292Y136183D01*
X90374Y136243D01*
X90457Y136300D01*
X90543Y136354D01*
X90631Y136405D01*
X90720Y136452D01*
X90812Y136496D01*
X90905Y136536D01*
X90999Y136573D01*
X91095Y136605D01*
X91192Y136634D01*
X91290Y136660D01*
X91389Y136681D01*
X91489Y136699D01*
X91589Y136712D01*
X91690Y136722D01*
X91791Y136728D01*
X91892Y136730D01*
X91369Y140907D02*
X94502Y140907D01*
X91369Y140906D02*
X91279Y140904D01*
X91190Y140898D01*
X91100Y140889D01*
X91011Y140875D01*
X90923Y140858D01*
X90836Y140837D01*
X90749Y140812D01*
X90664Y140783D01*
X90580Y140751D01*
X90498Y140716D01*
X90417Y140676D01*
X90338Y140634D01*
X90261Y140588D01*
X90186Y140538D01*
X90113Y140486D01*
X90042Y140430D01*
X89974Y140372D01*
X89909Y140310D01*
X89846Y140246D01*
X89786Y140179D01*
X89729Y140110D01*
X89675Y140038D01*
X89624Y139964D01*
X89576Y139888D01*
X89532Y139810D01*
X89491Y139730D01*
X89453Y139648D01*
X89419Y139565D01*
X89389Y139480D01*
X89362Y139394D01*
X89339Y139308D01*
X89320Y139220D01*
X89305Y139131D01*
X89293Y139042D01*
X89285Y138953D01*
X89281Y138863D01*
X89281Y138773D01*
X89285Y138683D01*
X89293Y138594D01*
X89305Y138505D01*
X89320Y138416D01*
X89339Y138328D01*
X89362Y138242D01*
X89389Y138156D01*
X89419Y138071D01*
X89453Y137988D01*
X89491Y137906D01*
X89532Y137826D01*
X89576Y137748D01*
X89624Y137672D01*
X89675Y137598D01*
X89729Y137526D01*
X89786Y137457D01*
X89846Y137390D01*
X89909Y137326D01*
X89974Y137264D01*
X90042Y137206D01*
X90113Y137150D01*
X90186Y137098D01*
X90261Y137048D01*
X90338Y137002D01*
X90417Y136960D01*
X90498Y136920D01*
X90580Y136885D01*
X90664Y136853D01*
X90749Y136824D01*
X90836Y136799D01*
X90923Y136778D01*
X91011Y136761D01*
X91100Y136747D01*
X91190Y136738D01*
X91279Y136732D01*
X91369Y136730D01*
X93458Y136730D01*
X-82149Y53594D02*
X-82149Y44196D01*
X-82149Y53594D02*
X-84759Y53594D01*
X-84860Y53592D01*
X-84961Y53586D01*
X-85062Y53576D01*
X-85162Y53563D01*
X-85262Y53545D01*
X-85361Y53524D01*
X-85459Y53498D01*
X-85556Y53469D01*
X-85652Y53437D01*
X-85746Y53400D01*
X-85839Y53360D01*
X-85931Y53316D01*
X-86020Y53269D01*
X-86108Y53218D01*
X-86194Y53164D01*
X-86277Y53107D01*
X-86359Y53047D01*
X-86437Y52983D01*
X-86514Y52917D01*
X-86587Y52847D01*
X-86658Y52775D01*
X-86726Y52700D01*
X-86791Y52622D01*
X-86853Y52542D01*
X-86912Y52460D01*
X-86968Y52375D01*
X-87020Y52289D01*
X-87069Y52200D01*
X-87115Y52109D01*
X-87156Y52017D01*
X-87195Y51923D01*
X-87229Y51828D01*
X-87260Y51732D01*
X-87287Y51634D01*
X-87311Y51536D01*
X-87330Y51436D01*
X-87346Y51336D01*
X-87358Y51236D01*
X-87366Y51135D01*
X-87370Y51034D01*
X-87370Y50932D01*
X-87366Y50831D01*
X-87358Y50730D01*
X-87346Y50630D01*
X-87330Y50530D01*
X-87311Y50430D01*
X-87287Y50332D01*
X-87260Y50234D01*
X-87229Y50138D01*
X-87195Y50043D01*
X-87156Y49949D01*
X-87115Y49857D01*
X-87069Y49766D01*
X-87020Y49678D01*
X-86968Y49591D01*
X-86912Y49506D01*
X-86853Y49424D01*
X-86791Y49344D01*
X-86726Y49266D01*
X-86658Y49191D01*
X-86587Y49119D01*
X-86514Y49049D01*
X-86437Y48983D01*
X-86359Y48919D01*
X-86277Y48859D01*
X-86194Y48802D01*
X-86108Y48748D01*
X-86020Y48697D01*
X-85931Y48650D01*
X-85839Y48606D01*
X-85746Y48566D01*
X-85652Y48529D01*
X-85556Y48497D01*
X-85459Y48468D01*
X-85361Y48442D01*
X-85262Y48421D01*
X-85162Y48403D01*
X-85062Y48390D01*
X-84961Y48380D01*
X-84860Y48374D01*
X-84759Y48372D01*
X-84759Y48373D02*
X-82149Y48373D01*
X-85281Y48373D02*
X-87370Y44196D01*
X-91235Y51506D02*
X-93846Y53594D01*
X-93846Y44196D01*
X-91235Y44196D02*
X-96457Y44196D01*
D13*
X50165Y56833D02*
X50165Y92393D01*
X50165Y56833D02*
X70485Y56833D01*
X70485Y92393D01*
X50165Y92393D01*
D12*
X75946Y68234D02*
X85344Y74500D01*
X85344Y68234D02*
X75946Y74500D01*
X83256Y77900D02*
X85344Y80511D01*
X75946Y80511D01*
X75946Y77900D02*
X75946Y83122D01*
X93208Y201359D02*
X95297Y201359D01*
X95386Y201361D01*
X95474Y201367D01*
X95562Y201376D01*
X95650Y201389D01*
X95737Y201406D01*
X95823Y201426D01*
X95908Y201451D01*
X95993Y201478D01*
X96076Y201510D01*
X96157Y201544D01*
X96237Y201583D01*
X96315Y201624D01*
X96392Y201669D01*
X96466Y201717D01*
X96539Y201768D01*
X96609Y201822D01*
X96676Y201880D01*
X96742Y201940D01*
X96804Y202002D01*
X96864Y202068D01*
X96922Y202135D01*
X96976Y202205D01*
X97027Y202278D01*
X97075Y202352D01*
X97120Y202429D01*
X97161Y202507D01*
X97200Y202587D01*
X97234Y202668D01*
X97266Y202751D01*
X97293Y202836D01*
X97318Y202921D01*
X97338Y203007D01*
X97355Y203094D01*
X97368Y203182D01*
X97377Y203270D01*
X97383Y203358D01*
X97385Y203447D01*
X97385Y208668D01*
X97383Y208757D01*
X97377Y208845D01*
X97368Y208933D01*
X97355Y209021D01*
X97338Y209108D01*
X97318Y209194D01*
X97293Y209279D01*
X97266Y209364D01*
X97234Y209447D01*
X97200Y209528D01*
X97161Y209608D01*
X97120Y209686D01*
X97075Y209763D01*
X97027Y209837D01*
X96976Y209910D01*
X96922Y209980D01*
X96864Y210047D01*
X96804Y210113D01*
X96742Y210175D01*
X96676Y210235D01*
X96609Y210293D01*
X96539Y210347D01*
X96466Y210398D01*
X96392Y210446D01*
X96315Y210491D01*
X96237Y210532D01*
X96157Y210571D01*
X96076Y210605D01*
X95993Y210637D01*
X95908Y210664D01*
X95823Y210689D01*
X95737Y210709D01*
X95650Y210726D01*
X95562Y210739D01*
X95474Y210748D01*
X95386Y210754D01*
X95297Y210756D01*
X95297Y210757D02*
X93208Y210757D01*
X87651Y210757D02*
X89740Y203447D01*
X84519Y203447D01*
X86085Y205535D02*
X86085Y201359D01*
X95455Y116269D02*
X97543Y116269D01*
X97632Y116271D01*
X97720Y116277D01*
X97808Y116286D01*
X97896Y116299D01*
X97983Y116316D01*
X98069Y116336D01*
X98154Y116361D01*
X98239Y116388D01*
X98322Y116420D01*
X98403Y116454D01*
X98483Y116493D01*
X98561Y116534D01*
X98638Y116579D01*
X98712Y116627D01*
X98785Y116678D01*
X98855Y116732D01*
X98922Y116790D01*
X98988Y116850D01*
X99050Y116912D01*
X99110Y116978D01*
X99168Y117045D01*
X99222Y117115D01*
X99273Y117188D01*
X99321Y117262D01*
X99366Y117339D01*
X99407Y117417D01*
X99446Y117497D01*
X99480Y117578D01*
X99512Y117661D01*
X99539Y117746D01*
X99564Y117831D01*
X99584Y117917D01*
X99601Y118004D01*
X99614Y118092D01*
X99623Y118180D01*
X99629Y118268D01*
X99631Y118357D01*
X99632Y118357D02*
X99632Y123578D01*
X99631Y123578D02*
X99629Y123667D01*
X99623Y123755D01*
X99614Y123843D01*
X99601Y123931D01*
X99584Y124018D01*
X99564Y124104D01*
X99539Y124189D01*
X99512Y124274D01*
X99480Y124357D01*
X99446Y124438D01*
X99407Y124518D01*
X99366Y124596D01*
X99321Y124673D01*
X99273Y124747D01*
X99222Y124820D01*
X99168Y124890D01*
X99110Y124957D01*
X99050Y125023D01*
X98988Y125085D01*
X98922Y125145D01*
X98855Y125203D01*
X98785Y125257D01*
X98712Y125308D01*
X98638Y125356D01*
X98561Y125401D01*
X98483Y125442D01*
X98403Y125481D01*
X98322Y125515D01*
X98239Y125547D01*
X98154Y125574D01*
X98069Y125599D01*
X97983Y125619D01*
X97896Y125636D01*
X97808Y125649D01*
X97720Y125658D01*
X97632Y125664D01*
X97543Y125666D01*
X97543Y125667D02*
X95455Y125667D01*
X91986Y116269D02*
X88853Y116269D01*
X88764Y116271D01*
X88676Y116277D01*
X88588Y116286D01*
X88500Y116299D01*
X88413Y116316D01*
X88327Y116336D01*
X88242Y116361D01*
X88157Y116388D01*
X88074Y116420D01*
X87993Y116454D01*
X87913Y116493D01*
X87835Y116534D01*
X87758Y116579D01*
X87684Y116627D01*
X87611Y116678D01*
X87541Y116732D01*
X87474Y116790D01*
X87408Y116850D01*
X87346Y116912D01*
X87286Y116978D01*
X87228Y117045D01*
X87174Y117115D01*
X87123Y117188D01*
X87075Y117262D01*
X87030Y117339D01*
X86989Y117417D01*
X86950Y117497D01*
X86916Y117578D01*
X86884Y117661D01*
X86857Y117746D01*
X86832Y117831D01*
X86812Y117917D01*
X86795Y118004D01*
X86782Y118092D01*
X86773Y118180D01*
X86767Y118268D01*
X86765Y118357D01*
X86765Y119401D01*
X86767Y119490D01*
X86773Y119578D01*
X86782Y119666D01*
X86795Y119754D01*
X86812Y119841D01*
X86832Y119927D01*
X86857Y120012D01*
X86884Y120097D01*
X86916Y120180D01*
X86950Y120261D01*
X86989Y120341D01*
X87030Y120419D01*
X87075Y120496D01*
X87123Y120570D01*
X87174Y120643D01*
X87228Y120713D01*
X87286Y120780D01*
X87346Y120846D01*
X87408Y120908D01*
X87474Y120968D01*
X87541Y121026D01*
X87611Y121080D01*
X87684Y121131D01*
X87758Y121179D01*
X87835Y121224D01*
X87913Y121265D01*
X87993Y121304D01*
X88074Y121338D01*
X88157Y121370D01*
X88242Y121397D01*
X88327Y121422D01*
X88413Y121442D01*
X88500Y121459D01*
X88588Y121472D01*
X88676Y121481D01*
X88764Y121487D01*
X88853Y121489D01*
X88853Y121490D02*
X91986Y121490D01*
X91986Y125667D01*
X86765Y125667D01*
X-58357Y98220D02*
X-58357Y96132D01*
X-58356Y96132D02*
X-58354Y96043D01*
X-58348Y95955D01*
X-58339Y95867D01*
X-58326Y95779D01*
X-58309Y95692D01*
X-58289Y95606D01*
X-58264Y95521D01*
X-58237Y95436D01*
X-58205Y95353D01*
X-58171Y95272D01*
X-58132Y95192D01*
X-58091Y95114D01*
X-58046Y95037D01*
X-57998Y94963D01*
X-57947Y94890D01*
X-57893Y94820D01*
X-57835Y94753D01*
X-57775Y94687D01*
X-57713Y94625D01*
X-57647Y94565D01*
X-57580Y94507D01*
X-57510Y94453D01*
X-57437Y94402D01*
X-57363Y94354D01*
X-57286Y94309D01*
X-57208Y94268D01*
X-57128Y94229D01*
X-57047Y94195D01*
X-56964Y94163D01*
X-56879Y94136D01*
X-56794Y94111D01*
X-56708Y94091D01*
X-56621Y94074D01*
X-56533Y94061D01*
X-56445Y94052D01*
X-56357Y94046D01*
X-56268Y94044D01*
X-51047Y94044D01*
X-51047Y94043D02*
X-50956Y94045D01*
X-50865Y94051D01*
X-50774Y94061D01*
X-50684Y94075D01*
X-50595Y94093D01*
X-50506Y94114D01*
X-50419Y94140D01*
X-50333Y94169D01*
X-50248Y94202D01*
X-50164Y94239D01*
X-50082Y94279D01*
X-50003Y94323D01*
X-49925Y94370D01*
X-49849Y94421D01*
X-49775Y94475D01*
X-49704Y94532D01*
X-49636Y94592D01*
X-49570Y94655D01*
X-49507Y94721D01*
X-49447Y94789D01*
X-49390Y94860D01*
X-49336Y94934D01*
X-49285Y95010D01*
X-49238Y95087D01*
X-49194Y95167D01*
X-49154Y95249D01*
X-49117Y95333D01*
X-49084Y95417D01*
X-49055Y95504D01*
X-49029Y95591D01*
X-49008Y95680D01*
X-48990Y95769D01*
X-48976Y95859D01*
X-48966Y95950D01*
X-48960Y96041D01*
X-48958Y96132D01*
X-48959Y96132D02*
X-48959Y98220D01*
X-48959Y101689D02*
X-50003Y101689D01*
X-48959Y101689D02*
X-48959Y106910D01*
X-58357Y104300D01*
D11*
X-61265Y99530D02*
X-81394Y99530D01*
D12*
X-76454Y107903D02*
X-76454Y109992D01*
X-76454Y107903D02*
X-76452Y107814D01*
X-76446Y107726D01*
X-76437Y107638D01*
X-76424Y107550D01*
X-76407Y107463D01*
X-76387Y107377D01*
X-76362Y107292D01*
X-76335Y107207D01*
X-76303Y107124D01*
X-76269Y107043D01*
X-76230Y106963D01*
X-76189Y106885D01*
X-76144Y106808D01*
X-76096Y106734D01*
X-76045Y106661D01*
X-75991Y106591D01*
X-75933Y106524D01*
X-75873Y106458D01*
X-75811Y106396D01*
X-75745Y106336D01*
X-75678Y106278D01*
X-75608Y106224D01*
X-75535Y106173D01*
X-75461Y106125D01*
X-75384Y106080D01*
X-75306Y106039D01*
X-75226Y106000D01*
X-75145Y105966D01*
X-75062Y105934D01*
X-74977Y105907D01*
X-74892Y105882D01*
X-74806Y105862D01*
X-74719Y105845D01*
X-74631Y105832D01*
X-74543Y105823D01*
X-74455Y105817D01*
X-74366Y105815D01*
X-69144Y105815D01*
X-69144Y105814D02*
X-69053Y105816D01*
X-68962Y105822D01*
X-68871Y105832D01*
X-68781Y105846D01*
X-68692Y105864D01*
X-68603Y105885D01*
X-68516Y105911D01*
X-68430Y105940D01*
X-68345Y105973D01*
X-68261Y106010D01*
X-68179Y106050D01*
X-68100Y106094D01*
X-68022Y106141D01*
X-67946Y106192D01*
X-67872Y106246D01*
X-67801Y106303D01*
X-67733Y106363D01*
X-67667Y106426D01*
X-67604Y106492D01*
X-67544Y106560D01*
X-67487Y106631D01*
X-67433Y106705D01*
X-67382Y106781D01*
X-67335Y106858D01*
X-67291Y106938D01*
X-67251Y107020D01*
X-67214Y107104D01*
X-67181Y107188D01*
X-67152Y107275D01*
X-67126Y107362D01*
X-67105Y107451D01*
X-67087Y107540D01*
X-67073Y107630D01*
X-67063Y107721D01*
X-67057Y107812D01*
X-67055Y107903D01*
X-67056Y107903D02*
X-67056Y109992D01*
X-73843Y113460D02*
X-73742Y113462D01*
X-73641Y113468D01*
X-73540Y113478D01*
X-73440Y113491D01*
X-73340Y113509D01*
X-73241Y113530D01*
X-73143Y113556D01*
X-73046Y113585D01*
X-72950Y113617D01*
X-72856Y113654D01*
X-72763Y113694D01*
X-72671Y113738D01*
X-72582Y113785D01*
X-72494Y113836D01*
X-72408Y113890D01*
X-72325Y113947D01*
X-72243Y114007D01*
X-72165Y114071D01*
X-72088Y114137D01*
X-72015Y114207D01*
X-71944Y114279D01*
X-71876Y114354D01*
X-71811Y114432D01*
X-71749Y114512D01*
X-71690Y114594D01*
X-71634Y114679D01*
X-71582Y114765D01*
X-71533Y114854D01*
X-71487Y114945D01*
X-71446Y115037D01*
X-71407Y115131D01*
X-71373Y115226D01*
X-71342Y115322D01*
X-71315Y115420D01*
X-71291Y115518D01*
X-71272Y115618D01*
X-71256Y115718D01*
X-71244Y115818D01*
X-71236Y115919D01*
X-71232Y116020D01*
X-71232Y116122D01*
X-71236Y116223D01*
X-71244Y116324D01*
X-71256Y116424D01*
X-71272Y116524D01*
X-71291Y116624D01*
X-71315Y116722D01*
X-71342Y116820D01*
X-71373Y116916D01*
X-71407Y117011D01*
X-71446Y117105D01*
X-71487Y117197D01*
X-71533Y117288D01*
X-71582Y117376D01*
X-71634Y117463D01*
X-71690Y117548D01*
X-71749Y117630D01*
X-71811Y117710D01*
X-71876Y117788D01*
X-71944Y117863D01*
X-72015Y117935D01*
X-72088Y118005D01*
X-72165Y118071D01*
X-72243Y118135D01*
X-72325Y118195D01*
X-72408Y118252D01*
X-72494Y118306D01*
X-72582Y118357D01*
X-72671Y118404D01*
X-72763Y118448D01*
X-72856Y118488D01*
X-72950Y118525D01*
X-73046Y118557D01*
X-73143Y118586D01*
X-73241Y118612D01*
X-73340Y118633D01*
X-73440Y118651D01*
X-73540Y118664D01*
X-73641Y118674D01*
X-73742Y118680D01*
X-73843Y118682D01*
X-73944Y118680D01*
X-74045Y118674D01*
X-74146Y118664D01*
X-74246Y118651D01*
X-74346Y118633D01*
X-74445Y118612D01*
X-74543Y118586D01*
X-74640Y118557D01*
X-74736Y118525D01*
X-74830Y118488D01*
X-74923Y118448D01*
X-75015Y118404D01*
X-75104Y118357D01*
X-75192Y118306D01*
X-75278Y118252D01*
X-75361Y118195D01*
X-75443Y118135D01*
X-75521Y118071D01*
X-75598Y118005D01*
X-75671Y117935D01*
X-75742Y117863D01*
X-75810Y117788D01*
X-75875Y117710D01*
X-75937Y117630D01*
X-75996Y117548D01*
X-76052Y117463D01*
X-76104Y117377D01*
X-76153Y117288D01*
X-76199Y117197D01*
X-76240Y117105D01*
X-76279Y117011D01*
X-76313Y116916D01*
X-76344Y116820D01*
X-76371Y116722D01*
X-76395Y116624D01*
X-76414Y116524D01*
X-76430Y116424D01*
X-76442Y116324D01*
X-76450Y116223D01*
X-76454Y116122D01*
X-76454Y116020D01*
X-76450Y115919D01*
X-76442Y115818D01*
X-76430Y115718D01*
X-76414Y115618D01*
X-76395Y115518D01*
X-76371Y115420D01*
X-76344Y115322D01*
X-76313Y115226D01*
X-76279Y115131D01*
X-76240Y115037D01*
X-76199Y114945D01*
X-76153Y114854D01*
X-76104Y114766D01*
X-76052Y114679D01*
X-75996Y114594D01*
X-75937Y114512D01*
X-75875Y114432D01*
X-75810Y114354D01*
X-75742Y114279D01*
X-75671Y114207D01*
X-75598Y114137D01*
X-75521Y114071D01*
X-75443Y114007D01*
X-75361Y113947D01*
X-75278Y113890D01*
X-75192Y113836D01*
X-75104Y113785D01*
X-75015Y113738D01*
X-74923Y113694D01*
X-74830Y113654D01*
X-74736Y113617D01*
X-74640Y113585D01*
X-74543Y113556D01*
X-74445Y113530D01*
X-74346Y113509D01*
X-74246Y113491D01*
X-74146Y113478D01*
X-74045Y113468D01*
X-73944Y113462D01*
X-73843Y113460D01*
X-69144Y113983D02*
X-69054Y113985D01*
X-68965Y113991D01*
X-68875Y114000D01*
X-68786Y114014D01*
X-68698Y114031D01*
X-68611Y114052D01*
X-68524Y114077D01*
X-68439Y114106D01*
X-68355Y114138D01*
X-68273Y114173D01*
X-68192Y114213D01*
X-68113Y114255D01*
X-68036Y114301D01*
X-67961Y114351D01*
X-67888Y114403D01*
X-67817Y114459D01*
X-67749Y114517D01*
X-67684Y114579D01*
X-67621Y114643D01*
X-67561Y114710D01*
X-67504Y114779D01*
X-67450Y114851D01*
X-67399Y114925D01*
X-67351Y115001D01*
X-67307Y115079D01*
X-67266Y115159D01*
X-67228Y115241D01*
X-67194Y115324D01*
X-67164Y115409D01*
X-67137Y115495D01*
X-67114Y115581D01*
X-67095Y115669D01*
X-67080Y115758D01*
X-67068Y115847D01*
X-67060Y115936D01*
X-67056Y116026D01*
X-67056Y116116D01*
X-67060Y116206D01*
X-67068Y116295D01*
X-67080Y116384D01*
X-67095Y116473D01*
X-67114Y116561D01*
X-67137Y116647D01*
X-67164Y116733D01*
X-67194Y116818D01*
X-67228Y116901D01*
X-67266Y116983D01*
X-67307Y117063D01*
X-67351Y117141D01*
X-67399Y117217D01*
X-67450Y117291D01*
X-67504Y117363D01*
X-67561Y117432D01*
X-67621Y117499D01*
X-67684Y117563D01*
X-67749Y117625D01*
X-67817Y117683D01*
X-67888Y117739D01*
X-67961Y117791D01*
X-68036Y117841D01*
X-68113Y117887D01*
X-68192Y117929D01*
X-68273Y117969D01*
X-68355Y118004D01*
X-68439Y118036D01*
X-68524Y118065D01*
X-68611Y118090D01*
X-68698Y118111D01*
X-68786Y118128D01*
X-68875Y118142D01*
X-68965Y118151D01*
X-69054Y118157D01*
X-69144Y118159D01*
X-69234Y118157D01*
X-69323Y118151D01*
X-69413Y118142D01*
X-69502Y118128D01*
X-69590Y118111D01*
X-69677Y118090D01*
X-69764Y118065D01*
X-69849Y118036D01*
X-69933Y118004D01*
X-70015Y117969D01*
X-70096Y117929D01*
X-70175Y117887D01*
X-70252Y117841D01*
X-70327Y117791D01*
X-70400Y117739D01*
X-70471Y117683D01*
X-70539Y117625D01*
X-70604Y117563D01*
X-70667Y117499D01*
X-70727Y117432D01*
X-70784Y117363D01*
X-70838Y117291D01*
X-70889Y117217D01*
X-70937Y117141D01*
X-70981Y117063D01*
X-71022Y116983D01*
X-71060Y116901D01*
X-71094Y116818D01*
X-71124Y116733D01*
X-71151Y116647D01*
X-71174Y116561D01*
X-71193Y116473D01*
X-71208Y116384D01*
X-71220Y116295D01*
X-71228Y116206D01*
X-71232Y116116D01*
X-71232Y116026D01*
X-71228Y115936D01*
X-71220Y115847D01*
X-71208Y115758D01*
X-71193Y115669D01*
X-71174Y115581D01*
X-71151Y115495D01*
X-71124Y115409D01*
X-71094Y115324D01*
X-71060Y115241D01*
X-71022Y115159D01*
X-70981Y115079D01*
X-70937Y115001D01*
X-70889Y114925D01*
X-70838Y114851D01*
X-70784Y114779D01*
X-70727Y114710D01*
X-70667Y114643D01*
X-70604Y114579D01*
X-70539Y114517D01*
X-70471Y114459D01*
X-70400Y114403D01*
X-70327Y114351D01*
X-70252Y114301D01*
X-70175Y114255D01*
X-70096Y114213D01*
X-70015Y114173D01*
X-69933Y114138D01*
X-69849Y114106D01*
X-69764Y114077D01*
X-69677Y114052D01*
X-69590Y114031D01*
X-69502Y114014D01*
X-69413Y114000D01*
X-69323Y113991D01*
X-69234Y113985D01*
X-69144Y113983D01*
X-84519Y155174D02*
X-93917Y155174D01*
X-84519Y155174D02*
X-84519Y157784D01*
X-84518Y157784D02*
X-84520Y157885D01*
X-84526Y157986D01*
X-84536Y158087D01*
X-84549Y158187D01*
X-84567Y158287D01*
X-84588Y158386D01*
X-84614Y158484D01*
X-84643Y158581D01*
X-84675Y158677D01*
X-84712Y158771D01*
X-84752Y158864D01*
X-84796Y158956D01*
X-84843Y159045D01*
X-84894Y159133D01*
X-84948Y159219D01*
X-85005Y159302D01*
X-85065Y159384D01*
X-85129Y159462D01*
X-85195Y159539D01*
X-85265Y159612D01*
X-85337Y159683D01*
X-85412Y159751D01*
X-85490Y159816D01*
X-85570Y159878D01*
X-85652Y159937D01*
X-85737Y159993D01*
X-85824Y160045D01*
X-85912Y160094D01*
X-86003Y160140D01*
X-86095Y160181D01*
X-86189Y160220D01*
X-86284Y160254D01*
X-86380Y160285D01*
X-86478Y160312D01*
X-86576Y160336D01*
X-86676Y160355D01*
X-86776Y160371D01*
X-86876Y160383D01*
X-86977Y160391D01*
X-87078Y160395D01*
X-87180Y160395D01*
X-87281Y160391D01*
X-87382Y160383D01*
X-87482Y160371D01*
X-87582Y160355D01*
X-87682Y160336D01*
X-87780Y160312D01*
X-87878Y160285D01*
X-87974Y160254D01*
X-88069Y160220D01*
X-88163Y160181D01*
X-88255Y160140D01*
X-88346Y160094D01*
X-88435Y160045D01*
X-88521Y159993D01*
X-88606Y159937D01*
X-88688Y159878D01*
X-88768Y159816D01*
X-88846Y159751D01*
X-88921Y159683D01*
X-88993Y159612D01*
X-89063Y159539D01*
X-89129Y159462D01*
X-89193Y159384D01*
X-89253Y159302D01*
X-89310Y159219D01*
X-89364Y159133D01*
X-89415Y159045D01*
X-89462Y158956D01*
X-89506Y158864D01*
X-89546Y158771D01*
X-89583Y158677D01*
X-89615Y158581D01*
X-89644Y158484D01*
X-89670Y158386D01*
X-89691Y158287D01*
X-89709Y158187D01*
X-89722Y158087D01*
X-89732Y157986D01*
X-89738Y157885D01*
X-89740Y157784D01*
X-89740Y155174D01*
X-89740Y158306D02*
X-93917Y160395D01*
X-86868Y169482D02*
X-86773Y169480D01*
X-86679Y169474D01*
X-86585Y169465D01*
X-86491Y169452D01*
X-86398Y169435D01*
X-86306Y169414D01*
X-86214Y169389D01*
X-86124Y169361D01*
X-86035Y169329D01*
X-85947Y169294D01*
X-85861Y169255D01*
X-85776Y169213D01*
X-85693Y169167D01*
X-85612Y169118D01*
X-85533Y169066D01*
X-85456Y169011D01*
X-85382Y168952D01*
X-85310Y168891D01*
X-85240Y168827D01*
X-85173Y168760D01*
X-85109Y168690D01*
X-85048Y168618D01*
X-84989Y168544D01*
X-84934Y168467D01*
X-84882Y168388D01*
X-84833Y168307D01*
X-84787Y168224D01*
X-84745Y168139D01*
X-84706Y168053D01*
X-84671Y167965D01*
X-84639Y167876D01*
X-84611Y167786D01*
X-84586Y167694D01*
X-84565Y167602D01*
X-84548Y167509D01*
X-84535Y167415D01*
X-84526Y167321D01*
X-84520Y167227D01*
X-84518Y167132D01*
X-84519Y167132D02*
X-84521Y167024D01*
X-84527Y166915D01*
X-84537Y166807D01*
X-84550Y166700D01*
X-84568Y166593D01*
X-84589Y166486D01*
X-84614Y166381D01*
X-84643Y166276D01*
X-84675Y166173D01*
X-84712Y166071D01*
X-84752Y165970D01*
X-84795Y165871D01*
X-84842Y165773D01*
X-84893Y165677D01*
X-84947Y165583D01*
X-85004Y165491D01*
X-85065Y165401D01*
X-85129Y165313D01*
X-85195Y165228D01*
X-85265Y165145D01*
X-85338Y165065D01*
X-85414Y164987D01*
X-85492Y164912D01*
X-85573Y164840D01*
X-85657Y164771D01*
X-85743Y164705D01*
X-85831Y164642D01*
X-85922Y164583D01*
X-86014Y164526D01*
X-86109Y164473D01*
X-86206Y164424D01*
X-86304Y164378D01*
X-86403Y164335D01*
X-86505Y164296D01*
X-86607Y164261D01*
X-88696Y168699D02*
X-88627Y168768D01*
X-88556Y168834D01*
X-88483Y168898D01*
X-88407Y168959D01*
X-88328Y169017D01*
X-88248Y169071D01*
X-88165Y169123D01*
X-88081Y169171D01*
X-87995Y169217D01*
X-87907Y169258D01*
X-87817Y169297D01*
X-87726Y169332D01*
X-87634Y169363D01*
X-87541Y169391D01*
X-87447Y169415D01*
X-87352Y169435D01*
X-87256Y169452D01*
X-87159Y169465D01*
X-87062Y169474D01*
X-86965Y169480D01*
X-86868Y169482D01*
X-88695Y168698D02*
X-93917Y164260D01*
X-93917Y169482D01*
D11*
X51283Y162573D02*
X51283Y142443D01*
D12*
X97971Y145796D02*
X100059Y145796D01*
X100148Y145798D01*
X100236Y145804D01*
X100324Y145813D01*
X100412Y145826D01*
X100499Y145843D01*
X100585Y145863D01*
X100670Y145888D01*
X100755Y145915D01*
X100838Y145947D01*
X100919Y145981D01*
X100999Y146020D01*
X101077Y146061D01*
X101154Y146106D01*
X101228Y146154D01*
X101301Y146205D01*
X101371Y146259D01*
X101438Y146317D01*
X101504Y146377D01*
X101566Y146439D01*
X101626Y146505D01*
X101684Y146572D01*
X101738Y146642D01*
X101789Y146715D01*
X101837Y146789D01*
X101882Y146866D01*
X101923Y146944D01*
X101962Y147024D01*
X101996Y147105D01*
X102028Y147188D01*
X102055Y147273D01*
X102080Y147358D01*
X102100Y147444D01*
X102117Y147531D01*
X102130Y147619D01*
X102139Y147707D01*
X102145Y147795D01*
X102147Y147884D01*
X102148Y147884D02*
X102148Y153106D01*
X102147Y153106D02*
X102145Y153195D01*
X102139Y153283D01*
X102130Y153371D01*
X102117Y153459D01*
X102100Y153546D01*
X102080Y153632D01*
X102055Y153717D01*
X102028Y153802D01*
X101996Y153885D01*
X101962Y153966D01*
X101923Y154046D01*
X101882Y154124D01*
X101837Y154201D01*
X101789Y154275D01*
X101738Y154348D01*
X101684Y154418D01*
X101626Y154485D01*
X101566Y154551D01*
X101504Y154613D01*
X101438Y154673D01*
X101371Y154731D01*
X101301Y154785D01*
X101228Y154836D01*
X101154Y154884D01*
X101077Y154929D01*
X100999Y154970D01*
X100919Y155009D01*
X100838Y155043D01*
X100755Y155075D01*
X100670Y155102D01*
X100585Y155127D01*
X100499Y155147D01*
X100412Y155164D01*
X100324Y155177D01*
X100236Y155186D01*
X100148Y155192D01*
X100059Y155194D01*
X97971Y155194D01*
X94502Y151017D02*
X91369Y151017D01*
X91280Y151015D01*
X91192Y151009D01*
X91104Y151000D01*
X91016Y150987D01*
X90929Y150970D01*
X90843Y150950D01*
X90758Y150925D01*
X90673Y150898D01*
X90590Y150866D01*
X90509Y150832D01*
X90429Y150793D01*
X90351Y150752D01*
X90274Y150707D01*
X90200Y150659D01*
X90127Y150608D01*
X90057Y150554D01*
X89990Y150496D01*
X89924Y150436D01*
X89862Y150374D01*
X89802Y150308D01*
X89744Y150241D01*
X89690Y150171D01*
X89639Y150098D01*
X89591Y150024D01*
X89546Y149947D01*
X89505Y149869D01*
X89466Y149789D01*
X89432Y149708D01*
X89400Y149625D01*
X89373Y149540D01*
X89348Y149455D01*
X89328Y149369D01*
X89311Y149282D01*
X89298Y149194D01*
X89289Y149106D01*
X89283Y149018D01*
X89281Y148929D01*
X89281Y148407D01*
X89283Y148306D01*
X89289Y148205D01*
X89299Y148104D01*
X89312Y148004D01*
X89330Y147904D01*
X89351Y147805D01*
X89377Y147707D01*
X89406Y147610D01*
X89438Y147514D01*
X89475Y147420D01*
X89515Y147327D01*
X89559Y147235D01*
X89606Y147146D01*
X89657Y147058D01*
X89711Y146972D01*
X89768Y146889D01*
X89828Y146807D01*
X89892Y146729D01*
X89958Y146652D01*
X90028Y146579D01*
X90100Y146508D01*
X90175Y146440D01*
X90253Y146375D01*
X90333Y146313D01*
X90415Y146254D01*
X90500Y146198D01*
X90587Y146146D01*
X90675Y146097D01*
X90766Y146051D01*
X90858Y146010D01*
X90952Y145971D01*
X91047Y145937D01*
X91143Y145906D01*
X91241Y145879D01*
X91339Y145855D01*
X91439Y145836D01*
X91539Y145820D01*
X91639Y145808D01*
X91740Y145800D01*
X91841Y145796D01*
X91943Y145796D01*
X92044Y145800D01*
X92145Y145808D01*
X92245Y145820D01*
X92345Y145836D01*
X92445Y145855D01*
X92543Y145879D01*
X92641Y145906D01*
X92737Y145937D01*
X92832Y145971D01*
X92926Y146010D01*
X93018Y146051D01*
X93109Y146097D01*
X93197Y146146D01*
X93284Y146198D01*
X93369Y146254D01*
X93451Y146313D01*
X93531Y146375D01*
X93609Y146440D01*
X93684Y146508D01*
X93756Y146579D01*
X93826Y146652D01*
X93892Y146729D01*
X93956Y146807D01*
X94016Y146889D01*
X94073Y146972D01*
X94127Y147058D01*
X94178Y147146D01*
X94225Y147235D01*
X94269Y147327D01*
X94309Y147420D01*
X94346Y147514D01*
X94378Y147610D01*
X94407Y147707D01*
X94433Y147805D01*
X94454Y147904D01*
X94472Y148004D01*
X94485Y148104D01*
X94495Y148205D01*
X94501Y148306D01*
X94503Y148407D01*
X94502Y148407D02*
X94502Y151017D01*
X94500Y151143D01*
X94494Y151269D01*
X94485Y151395D01*
X94472Y151520D01*
X94454Y151645D01*
X94434Y151770D01*
X94409Y151894D01*
X94381Y152017D01*
X94349Y152139D01*
X94313Y152260D01*
X94274Y152380D01*
X94231Y152498D01*
X94184Y152615D01*
X94134Y152731D01*
X94080Y152846D01*
X94024Y152958D01*
X93963Y153069D01*
X93900Y153178D01*
X93833Y153285D01*
X93763Y153390D01*
X93689Y153493D01*
X93613Y153593D01*
X93534Y153691D01*
X93452Y153787D01*
X93366Y153880D01*
X93279Y153971D01*
X93188Y154058D01*
X93095Y154144D01*
X92999Y154226D01*
X92901Y154305D01*
X92801Y154381D01*
X92698Y154455D01*
X92593Y154525D01*
X92486Y154592D01*
X92377Y154655D01*
X92266Y154716D01*
X92154Y154772D01*
X92039Y154826D01*
X91923Y154876D01*
X91806Y154923D01*
X91688Y154966D01*
X91568Y155005D01*
X91447Y155041D01*
X91325Y155073D01*
X91202Y155101D01*
X91078Y155126D01*
X90953Y155146D01*
X90828Y155164D01*
X90703Y155177D01*
X90577Y155186D01*
X90451Y155192D01*
X90325Y155194D01*
X75014Y177546D02*
X75014Y186944D01*
X72403Y186944D01*
X72302Y186942D01*
X72201Y186936D01*
X72100Y186926D01*
X72000Y186913D01*
X71900Y186895D01*
X71801Y186874D01*
X71703Y186848D01*
X71606Y186819D01*
X71510Y186787D01*
X71416Y186750D01*
X71323Y186710D01*
X71231Y186666D01*
X71142Y186619D01*
X71054Y186568D01*
X70968Y186514D01*
X70885Y186457D01*
X70803Y186397D01*
X70725Y186333D01*
X70648Y186267D01*
X70575Y186197D01*
X70504Y186125D01*
X70436Y186050D01*
X70371Y185972D01*
X70309Y185892D01*
X70250Y185810D01*
X70194Y185725D01*
X70142Y185639D01*
X70093Y185550D01*
X70047Y185459D01*
X70006Y185367D01*
X69967Y185273D01*
X69933Y185178D01*
X69902Y185082D01*
X69875Y184984D01*
X69851Y184886D01*
X69832Y184786D01*
X69816Y184686D01*
X69804Y184586D01*
X69796Y184485D01*
X69792Y184384D01*
X69792Y184282D01*
X69796Y184181D01*
X69804Y184080D01*
X69816Y183980D01*
X69832Y183880D01*
X69851Y183780D01*
X69875Y183682D01*
X69902Y183584D01*
X69933Y183488D01*
X69967Y183393D01*
X70006Y183299D01*
X70047Y183207D01*
X70093Y183116D01*
X70142Y183028D01*
X70194Y182941D01*
X70250Y182856D01*
X70309Y182774D01*
X70371Y182694D01*
X70436Y182616D01*
X70504Y182541D01*
X70575Y182469D01*
X70648Y182399D01*
X70725Y182333D01*
X70803Y182269D01*
X70885Y182209D01*
X70968Y182152D01*
X71054Y182098D01*
X71142Y182047D01*
X71231Y182000D01*
X71323Y181956D01*
X71416Y181916D01*
X71510Y181879D01*
X71606Y181847D01*
X71703Y181818D01*
X71801Y181792D01*
X71900Y181771D01*
X72000Y181753D01*
X72100Y181740D01*
X72201Y181730D01*
X72302Y181724D01*
X72403Y181722D01*
X72403Y181723D02*
X75014Y181723D01*
X71881Y181723D02*
X69793Y177546D01*
X65927Y177546D02*
X63317Y177546D01*
X63216Y177548D01*
X63115Y177554D01*
X63014Y177564D01*
X62914Y177577D01*
X62814Y177595D01*
X62715Y177616D01*
X62617Y177642D01*
X62520Y177671D01*
X62424Y177703D01*
X62330Y177740D01*
X62237Y177780D01*
X62145Y177824D01*
X62056Y177871D01*
X61968Y177922D01*
X61882Y177976D01*
X61799Y178033D01*
X61717Y178093D01*
X61639Y178157D01*
X61562Y178223D01*
X61489Y178293D01*
X61418Y178365D01*
X61350Y178440D01*
X61285Y178518D01*
X61223Y178598D01*
X61164Y178680D01*
X61108Y178765D01*
X61056Y178852D01*
X61007Y178940D01*
X60961Y179031D01*
X60920Y179123D01*
X60881Y179217D01*
X60847Y179312D01*
X60816Y179408D01*
X60789Y179506D01*
X60765Y179604D01*
X60746Y179704D01*
X60730Y179804D01*
X60718Y179904D01*
X60710Y180005D01*
X60706Y180106D01*
X60706Y180208D01*
X60710Y180309D01*
X60718Y180410D01*
X60730Y180510D01*
X60746Y180610D01*
X60765Y180710D01*
X60789Y180808D01*
X60816Y180906D01*
X60847Y181002D01*
X60881Y181097D01*
X60920Y181191D01*
X60961Y181283D01*
X61007Y181374D01*
X61056Y181463D01*
X61108Y181549D01*
X61164Y181634D01*
X61223Y181716D01*
X61285Y181796D01*
X61350Y181874D01*
X61418Y181949D01*
X61489Y182021D01*
X61562Y182091D01*
X61639Y182157D01*
X61717Y182221D01*
X61799Y182281D01*
X61882Y182338D01*
X61968Y182392D01*
X62056Y182443D01*
X62145Y182490D01*
X62237Y182534D01*
X62330Y182574D01*
X62424Y182611D01*
X62520Y182643D01*
X62617Y182672D01*
X62715Y182698D01*
X62814Y182719D01*
X62914Y182737D01*
X63014Y182750D01*
X63115Y182760D01*
X63216Y182766D01*
X63317Y182768D01*
X62794Y186944D02*
X65927Y186944D01*
X62794Y186944D02*
X62704Y186942D01*
X62615Y186936D01*
X62525Y186927D01*
X62436Y186913D01*
X62348Y186896D01*
X62261Y186875D01*
X62174Y186850D01*
X62089Y186821D01*
X62005Y186789D01*
X61923Y186754D01*
X61842Y186714D01*
X61763Y186672D01*
X61686Y186626D01*
X61611Y186576D01*
X61538Y186524D01*
X61467Y186468D01*
X61399Y186410D01*
X61334Y186348D01*
X61271Y186284D01*
X61211Y186217D01*
X61154Y186148D01*
X61100Y186076D01*
X61049Y186002D01*
X61001Y185926D01*
X60957Y185848D01*
X60916Y185768D01*
X60878Y185686D01*
X60844Y185603D01*
X60814Y185518D01*
X60787Y185432D01*
X60764Y185346D01*
X60745Y185258D01*
X60730Y185169D01*
X60718Y185080D01*
X60710Y184991D01*
X60706Y184901D01*
X60706Y184811D01*
X60710Y184721D01*
X60718Y184632D01*
X60730Y184543D01*
X60745Y184454D01*
X60764Y184366D01*
X60787Y184280D01*
X60814Y184194D01*
X60844Y184109D01*
X60878Y184026D01*
X60916Y183944D01*
X60957Y183864D01*
X61001Y183786D01*
X61049Y183710D01*
X61100Y183636D01*
X61154Y183564D01*
X61211Y183495D01*
X61271Y183428D01*
X61334Y183364D01*
X61399Y183302D01*
X61467Y183244D01*
X61538Y183188D01*
X61611Y183136D01*
X61686Y183086D01*
X61763Y183040D01*
X61842Y182998D01*
X61923Y182958D01*
X62005Y182923D01*
X62089Y182891D01*
X62174Y182862D01*
X62261Y182837D01*
X62348Y182816D01*
X62436Y182799D01*
X62525Y182785D01*
X62615Y182776D01*
X62704Y182770D01*
X62794Y182768D01*
X62794Y182767D02*
X64883Y182767D01*
D11*
X35243Y45720D02*
X30517Y45720D01*
X-38418Y45720D02*
X-38418Y50446D01*
X-38418Y119380D02*
X-33692Y119380D01*
X35243Y119380D02*
X35243Y114654D01*
X35243Y50446D02*
X35243Y45720D01*
X-33692Y45720D02*
X-38418Y45720D01*
X-38418Y114654D02*
X-38418Y119380D01*
X30517Y119380D02*
X35243Y119380D01*
D12*
X45105Y115211D02*
X45105Y111232D01*
X42784Y108247D01*
X45105Y111232D02*
X47426Y108247D01*
X45105Y111232D02*
X41457Y112558D01*
X45105Y111232D02*
X48753Y112558D01*
D14*
X30871Y41656D02*
X30871Y34685D01*
X30870Y34685D02*
X30868Y34582D01*
X30862Y34480D01*
X30852Y34378D01*
X30839Y34276D01*
X30821Y34175D01*
X30799Y34074D01*
X30774Y33975D01*
X30745Y33876D01*
X30712Y33779D01*
X30676Y33683D01*
X30635Y33588D01*
X30592Y33495D01*
X30544Y33404D01*
X30494Y33315D01*
X30439Y33228D01*
X30382Y33143D01*
X30321Y33060D01*
X30257Y32979D01*
X30191Y32901D01*
X30121Y32826D01*
X30048Y32753D01*
X29973Y32683D01*
X29895Y32617D01*
X29814Y32553D01*
X29731Y32492D01*
X29646Y32435D01*
X29559Y32380D01*
X29470Y32330D01*
X29379Y32282D01*
X29286Y32239D01*
X29191Y32198D01*
X29095Y32162D01*
X28998Y32129D01*
X28899Y32100D01*
X28800Y32075D01*
X28699Y32053D01*
X28598Y32035D01*
X28496Y32022D01*
X28394Y32012D01*
X28292Y32006D01*
X28189Y32004D01*
X28086Y32006D01*
X27984Y32012D01*
X27882Y32022D01*
X27780Y32035D01*
X27679Y32053D01*
X27578Y32075D01*
X27479Y32100D01*
X27380Y32129D01*
X27283Y32162D01*
X27187Y32198D01*
X27092Y32239D01*
X26999Y32282D01*
X26908Y32330D01*
X26819Y32380D01*
X26732Y32435D01*
X26647Y32492D01*
X26564Y32553D01*
X26483Y32617D01*
X26405Y32683D01*
X26330Y32753D01*
X26257Y32826D01*
X26187Y32901D01*
X26121Y32979D01*
X26057Y33060D01*
X25996Y33143D01*
X25939Y33228D01*
X25884Y33315D01*
X25834Y33404D01*
X25786Y33495D01*
X25743Y33588D01*
X25702Y33683D01*
X25666Y33779D01*
X25633Y33876D01*
X25604Y33975D01*
X25579Y34074D01*
X25557Y34175D01*
X25539Y34276D01*
X25526Y34378D01*
X25516Y34480D01*
X25510Y34582D01*
X25508Y34685D01*
X25508Y41656D01*
X21422Y39511D02*
X18741Y41656D01*
X18741Y32004D01*
X21422Y32004D02*
X16060Y32004D01*
D12*
X15621Y172636D02*
X25019Y172636D01*
X25019Y175247D01*
X25017Y175348D01*
X25011Y175449D01*
X25001Y175550D01*
X24988Y175650D01*
X24970Y175750D01*
X24949Y175849D01*
X24923Y175947D01*
X24894Y176044D01*
X24862Y176140D01*
X24825Y176234D01*
X24785Y176327D01*
X24741Y176419D01*
X24694Y176508D01*
X24643Y176596D01*
X24589Y176682D01*
X24532Y176765D01*
X24472Y176847D01*
X24408Y176925D01*
X24342Y177002D01*
X24272Y177075D01*
X24200Y177146D01*
X24125Y177214D01*
X24047Y177279D01*
X23967Y177341D01*
X23885Y177400D01*
X23800Y177456D01*
X23714Y177508D01*
X23625Y177557D01*
X23534Y177603D01*
X23442Y177644D01*
X23348Y177683D01*
X23253Y177717D01*
X23157Y177748D01*
X23059Y177775D01*
X22961Y177799D01*
X22861Y177818D01*
X22761Y177834D01*
X22661Y177846D01*
X22560Y177854D01*
X22459Y177858D01*
X22357Y177858D01*
X22256Y177854D01*
X22155Y177846D01*
X22055Y177834D01*
X21955Y177818D01*
X21855Y177799D01*
X21757Y177775D01*
X21659Y177748D01*
X21563Y177717D01*
X21468Y177683D01*
X21374Y177644D01*
X21282Y177603D01*
X21191Y177557D01*
X21103Y177508D01*
X21016Y177456D01*
X20931Y177400D01*
X20849Y177341D01*
X20769Y177279D01*
X20691Y177214D01*
X20616Y177146D01*
X20544Y177075D01*
X20474Y177002D01*
X20408Y176925D01*
X20344Y176847D01*
X20284Y176765D01*
X20227Y176682D01*
X20173Y176596D01*
X20122Y176508D01*
X20075Y176419D01*
X20031Y176327D01*
X19991Y176234D01*
X19954Y176140D01*
X19922Y176044D01*
X19893Y175947D01*
X19867Y175849D01*
X19846Y175750D01*
X19828Y175650D01*
X19815Y175550D01*
X19805Y175449D01*
X19799Y175348D01*
X19797Y175247D01*
X19798Y175247D02*
X19798Y172636D01*
X19798Y175769D02*
X15621Y177857D01*
X18232Y181722D02*
X18333Y181724D01*
X18434Y181730D01*
X18535Y181740D01*
X18635Y181753D01*
X18735Y181771D01*
X18834Y181792D01*
X18932Y181818D01*
X19029Y181847D01*
X19125Y181879D01*
X19219Y181916D01*
X19312Y181956D01*
X19404Y182000D01*
X19493Y182047D01*
X19581Y182098D01*
X19667Y182152D01*
X19750Y182209D01*
X19832Y182269D01*
X19910Y182333D01*
X19987Y182399D01*
X20060Y182469D01*
X20131Y182541D01*
X20199Y182616D01*
X20264Y182694D01*
X20326Y182774D01*
X20385Y182856D01*
X20441Y182941D01*
X20493Y183027D01*
X20542Y183116D01*
X20588Y183207D01*
X20629Y183299D01*
X20668Y183393D01*
X20702Y183488D01*
X20733Y183584D01*
X20760Y183682D01*
X20784Y183780D01*
X20803Y183880D01*
X20819Y183980D01*
X20831Y184080D01*
X20839Y184181D01*
X20843Y184282D01*
X20843Y184384D01*
X20839Y184485D01*
X20831Y184586D01*
X20819Y184686D01*
X20803Y184786D01*
X20784Y184886D01*
X20760Y184984D01*
X20733Y185082D01*
X20702Y185178D01*
X20668Y185273D01*
X20629Y185367D01*
X20588Y185459D01*
X20542Y185550D01*
X20493Y185638D01*
X20441Y185725D01*
X20385Y185810D01*
X20326Y185892D01*
X20264Y185972D01*
X20199Y186050D01*
X20131Y186125D01*
X20060Y186197D01*
X19987Y186267D01*
X19910Y186333D01*
X19832Y186397D01*
X19750Y186457D01*
X19667Y186514D01*
X19581Y186568D01*
X19493Y186619D01*
X19404Y186666D01*
X19312Y186710D01*
X19219Y186750D01*
X19125Y186787D01*
X19029Y186819D01*
X18932Y186848D01*
X18834Y186874D01*
X18735Y186895D01*
X18635Y186913D01*
X18535Y186926D01*
X18434Y186936D01*
X18333Y186942D01*
X18232Y186944D01*
X18131Y186942D01*
X18030Y186936D01*
X17929Y186926D01*
X17829Y186913D01*
X17729Y186895D01*
X17630Y186874D01*
X17532Y186848D01*
X17435Y186819D01*
X17339Y186787D01*
X17245Y186750D01*
X17152Y186710D01*
X17060Y186666D01*
X16971Y186619D01*
X16883Y186568D01*
X16797Y186514D01*
X16714Y186457D01*
X16632Y186397D01*
X16554Y186333D01*
X16477Y186267D01*
X16404Y186197D01*
X16333Y186125D01*
X16265Y186050D01*
X16200Y185972D01*
X16138Y185892D01*
X16079Y185810D01*
X16023Y185725D01*
X15971Y185639D01*
X15922Y185550D01*
X15876Y185459D01*
X15835Y185367D01*
X15796Y185273D01*
X15762Y185178D01*
X15731Y185082D01*
X15704Y184984D01*
X15680Y184886D01*
X15661Y184786D01*
X15645Y184686D01*
X15633Y184586D01*
X15625Y184485D01*
X15621Y184384D01*
X15621Y184282D01*
X15625Y184181D01*
X15633Y184080D01*
X15645Y183980D01*
X15661Y183880D01*
X15680Y183780D01*
X15704Y183682D01*
X15731Y183584D01*
X15762Y183488D01*
X15796Y183393D01*
X15835Y183299D01*
X15876Y183207D01*
X15922Y183116D01*
X15971Y183028D01*
X16023Y182941D01*
X16079Y182856D01*
X16138Y182774D01*
X16200Y182694D01*
X16265Y182616D01*
X16333Y182541D01*
X16404Y182469D01*
X16477Y182399D01*
X16554Y182333D01*
X16632Y182269D01*
X16714Y182209D01*
X16797Y182152D01*
X16883Y182098D01*
X16971Y182047D01*
X17060Y182000D01*
X17152Y181956D01*
X17245Y181916D01*
X17339Y181879D01*
X17435Y181847D01*
X17532Y181818D01*
X17630Y181792D01*
X17729Y181771D01*
X17829Y181753D01*
X17929Y181740D01*
X18030Y181730D01*
X18131Y181724D01*
X18232Y181722D01*
X22931Y182245D02*
X23021Y182247D01*
X23110Y182253D01*
X23200Y182262D01*
X23289Y182276D01*
X23377Y182293D01*
X23464Y182314D01*
X23551Y182339D01*
X23636Y182368D01*
X23720Y182400D01*
X23802Y182435D01*
X23883Y182475D01*
X23962Y182517D01*
X24039Y182563D01*
X24114Y182613D01*
X24187Y182665D01*
X24258Y182721D01*
X24326Y182779D01*
X24391Y182841D01*
X24454Y182905D01*
X24514Y182972D01*
X24571Y183041D01*
X24625Y183113D01*
X24676Y183187D01*
X24724Y183263D01*
X24768Y183341D01*
X24809Y183421D01*
X24847Y183503D01*
X24881Y183586D01*
X24911Y183671D01*
X24938Y183757D01*
X24961Y183843D01*
X24980Y183931D01*
X24995Y184020D01*
X25007Y184109D01*
X25015Y184198D01*
X25019Y184288D01*
X25019Y184378D01*
X25015Y184468D01*
X25007Y184557D01*
X24995Y184646D01*
X24980Y184735D01*
X24961Y184823D01*
X24938Y184909D01*
X24911Y184995D01*
X24881Y185080D01*
X24847Y185163D01*
X24809Y185245D01*
X24768Y185325D01*
X24724Y185403D01*
X24676Y185479D01*
X24625Y185553D01*
X24571Y185625D01*
X24514Y185694D01*
X24454Y185761D01*
X24391Y185825D01*
X24326Y185887D01*
X24258Y185945D01*
X24187Y186001D01*
X24114Y186053D01*
X24039Y186103D01*
X23962Y186149D01*
X23883Y186191D01*
X23802Y186231D01*
X23720Y186266D01*
X23636Y186298D01*
X23551Y186327D01*
X23464Y186352D01*
X23377Y186373D01*
X23289Y186390D01*
X23200Y186404D01*
X23110Y186413D01*
X23021Y186419D01*
X22931Y186421D01*
X22841Y186419D01*
X22752Y186413D01*
X22662Y186404D01*
X22573Y186390D01*
X22485Y186373D01*
X22398Y186352D01*
X22311Y186327D01*
X22226Y186298D01*
X22142Y186266D01*
X22060Y186231D01*
X21979Y186191D01*
X21900Y186149D01*
X21823Y186103D01*
X21748Y186053D01*
X21675Y186001D01*
X21604Y185945D01*
X21536Y185887D01*
X21471Y185825D01*
X21408Y185761D01*
X21348Y185694D01*
X21291Y185625D01*
X21237Y185553D01*
X21186Y185479D01*
X21138Y185403D01*
X21094Y185325D01*
X21053Y185245D01*
X21015Y185163D01*
X20981Y185080D01*
X20951Y184995D01*
X20924Y184909D01*
X20901Y184823D01*
X20882Y184735D01*
X20867Y184646D01*
X20855Y184557D01*
X20847Y184468D01*
X20843Y184378D01*
X20843Y184288D01*
X20847Y184198D01*
X20855Y184109D01*
X20867Y184020D01*
X20882Y183931D01*
X20901Y183843D01*
X20924Y183757D01*
X20951Y183671D01*
X20981Y183586D01*
X21015Y183503D01*
X21053Y183421D01*
X21094Y183341D01*
X21138Y183263D01*
X21186Y183187D01*
X21237Y183113D01*
X21291Y183041D01*
X21348Y182972D01*
X21408Y182905D01*
X21471Y182841D01*
X21536Y182779D01*
X21604Y182721D01*
X21675Y182665D01*
X21748Y182613D01*
X21823Y182563D01*
X21900Y182517D01*
X21979Y182475D01*
X22060Y182435D01*
X22142Y182400D01*
X22226Y182368D01*
X22311Y182339D01*
X22398Y182314D01*
X22485Y182293D01*
X22573Y182276D01*
X22662Y182262D01*
X22752Y182253D01*
X22841Y182247D01*
X22931Y182245D01*
X29909Y171049D02*
X39307Y171049D01*
X39307Y173659D01*
X39305Y173760D01*
X39299Y173861D01*
X39289Y173962D01*
X39276Y174062D01*
X39258Y174162D01*
X39237Y174261D01*
X39211Y174359D01*
X39182Y174456D01*
X39150Y174552D01*
X39113Y174646D01*
X39073Y174739D01*
X39029Y174831D01*
X38982Y174920D01*
X38931Y175008D01*
X38877Y175094D01*
X38820Y175177D01*
X38760Y175259D01*
X38696Y175337D01*
X38630Y175414D01*
X38560Y175487D01*
X38488Y175558D01*
X38413Y175626D01*
X38335Y175691D01*
X38255Y175753D01*
X38173Y175812D01*
X38088Y175868D01*
X38002Y175920D01*
X37913Y175969D01*
X37822Y176015D01*
X37730Y176056D01*
X37636Y176095D01*
X37541Y176129D01*
X37445Y176160D01*
X37347Y176187D01*
X37249Y176211D01*
X37149Y176230D01*
X37049Y176246D01*
X36949Y176258D01*
X36848Y176266D01*
X36747Y176270D01*
X36645Y176270D01*
X36544Y176266D01*
X36443Y176258D01*
X36343Y176246D01*
X36243Y176230D01*
X36143Y176211D01*
X36045Y176187D01*
X35947Y176160D01*
X35851Y176129D01*
X35756Y176095D01*
X35662Y176056D01*
X35570Y176015D01*
X35479Y175969D01*
X35391Y175920D01*
X35304Y175868D01*
X35219Y175812D01*
X35137Y175753D01*
X35057Y175691D01*
X34979Y175626D01*
X34904Y175558D01*
X34832Y175487D01*
X34762Y175414D01*
X34696Y175337D01*
X34632Y175259D01*
X34572Y175177D01*
X34515Y175094D01*
X34461Y175008D01*
X34410Y174920D01*
X34363Y174831D01*
X34319Y174739D01*
X34279Y174646D01*
X34242Y174552D01*
X34210Y174456D01*
X34181Y174359D01*
X34155Y174261D01*
X34134Y174162D01*
X34116Y174062D01*
X34103Y173962D01*
X34093Y173861D01*
X34087Y173760D01*
X34085Y173659D01*
X34085Y171049D01*
X34085Y174181D02*
X29909Y176270D01*
X34085Y182224D02*
X34085Y185357D01*
X34086Y182224D02*
X34088Y182135D01*
X34094Y182047D01*
X34103Y181959D01*
X34116Y181871D01*
X34133Y181784D01*
X34153Y181698D01*
X34178Y181613D01*
X34205Y181528D01*
X34237Y181445D01*
X34271Y181364D01*
X34310Y181284D01*
X34351Y181206D01*
X34396Y181129D01*
X34444Y181055D01*
X34495Y180982D01*
X34549Y180912D01*
X34607Y180845D01*
X34667Y180779D01*
X34729Y180717D01*
X34795Y180657D01*
X34862Y180599D01*
X34932Y180545D01*
X35005Y180494D01*
X35079Y180446D01*
X35156Y180401D01*
X35234Y180360D01*
X35314Y180321D01*
X35395Y180287D01*
X35478Y180255D01*
X35563Y180228D01*
X35648Y180203D01*
X35734Y180183D01*
X35821Y180166D01*
X35909Y180153D01*
X35997Y180144D01*
X36085Y180138D01*
X36174Y180136D01*
X36174Y180135D02*
X36696Y180135D01*
X36797Y180137D01*
X36898Y180143D01*
X36999Y180153D01*
X37099Y180166D01*
X37199Y180184D01*
X37298Y180205D01*
X37396Y180231D01*
X37493Y180260D01*
X37589Y180292D01*
X37683Y180329D01*
X37776Y180369D01*
X37868Y180413D01*
X37957Y180460D01*
X38045Y180511D01*
X38131Y180565D01*
X38214Y180622D01*
X38296Y180682D01*
X38374Y180746D01*
X38451Y180812D01*
X38524Y180882D01*
X38595Y180954D01*
X38663Y181029D01*
X38728Y181107D01*
X38790Y181187D01*
X38849Y181269D01*
X38905Y181354D01*
X38957Y181440D01*
X39006Y181529D01*
X39052Y181620D01*
X39093Y181712D01*
X39132Y181806D01*
X39166Y181901D01*
X39197Y181997D01*
X39224Y182095D01*
X39248Y182193D01*
X39267Y182293D01*
X39283Y182393D01*
X39295Y182493D01*
X39303Y182594D01*
X39307Y182695D01*
X39307Y182797D01*
X39303Y182898D01*
X39295Y182999D01*
X39283Y183099D01*
X39267Y183199D01*
X39248Y183299D01*
X39224Y183397D01*
X39197Y183495D01*
X39166Y183591D01*
X39132Y183686D01*
X39093Y183780D01*
X39052Y183872D01*
X39006Y183963D01*
X38957Y184051D01*
X38905Y184138D01*
X38849Y184223D01*
X38790Y184305D01*
X38728Y184385D01*
X38663Y184463D01*
X38595Y184538D01*
X38524Y184610D01*
X38451Y184680D01*
X38374Y184746D01*
X38296Y184810D01*
X38214Y184870D01*
X38131Y184927D01*
X38045Y184981D01*
X37957Y185032D01*
X37868Y185079D01*
X37776Y185123D01*
X37683Y185163D01*
X37589Y185200D01*
X37493Y185232D01*
X37396Y185261D01*
X37298Y185287D01*
X37199Y185308D01*
X37099Y185326D01*
X36999Y185339D01*
X36898Y185349D01*
X36797Y185355D01*
X36696Y185357D01*
X34085Y185357D01*
X33959Y185355D01*
X33833Y185349D01*
X33707Y185340D01*
X33582Y185327D01*
X33457Y185309D01*
X33332Y185289D01*
X33208Y185264D01*
X33085Y185236D01*
X32963Y185204D01*
X32842Y185168D01*
X32722Y185129D01*
X32604Y185086D01*
X32487Y185039D01*
X32371Y184989D01*
X32256Y184935D01*
X32144Y184879D01*
X32033Y184818D01*
X31924Y184755D01*
X31817Y184688D01*
X31712Y184618D01*
X31609Y184544D01*
X31509Y184468D01*
X31411Y184389D01*
X31315Y184307D01*
X31222Y184221D01*
X31131Y184134D01*
X31044Y184043D01*
X30958Y183950D01*
X30876Y183854D01*
X30797Y183756D01*
X30721Y183656D01*
X30647Y183553D01*
X30577Y183448D01*
X30510Y183341D01*
X30447Y183232D01*
X30386Y183121D01*
X30330Y183009D01*
X30276Y182894D01*
X30226Y182778D01*
X30179Y182661D01*
X30136Y182543D01*
X30097Y182423D01*
X30061Y182302D01*
X30029Y182180D01*
X30001Y182057D01*
X29976Y181933D01*
X29956Y181808D01*
X29938Y181683D01*
X29925Y181558D01*
X29916Y181432D01*
X29910Y181306D01*
X29908Y181180D01*
X-25781Y177780D02*
X-35179Y177780D01*
X-25781Y177780D02*
X-25781Y180390D01*
X-25783Y180491D01*
X-25789Y180592D01*
X-25799Y180693D01*
X-25812Y180793D01*
X-25830Y180893D01*
X-25851Y180992D01*
X-25877Y181090D01*
X-25906Y181187D01*
X-25938Y181283D01*
X-25975Y181377D01*
X-26015Y181470D01*
X-26059Y181562D01*
X-26106Y181651D01*
X-26157Y181739D01*
X-26211Y181825D01*
X-26268Y181908D01*
X-26328Y181990D01*
X-26392Y182068D01*
X-26458Y182145D01*
X-26528Y182218D01*
X-26600Y182289D01*
X-26675Y182357D01*
X-26753Y182422D01*
X-26833Y182484D01*
X-26915Y182543D01*
X-27000Y182599D01*
X-27087Y182651D01*
X-27175Y182700D01*
X-27266Y182746D01*
X-27358Y182787D01*
X-27452Y182826D01*
X-27547Y182860D01*
X-27643Y182891D01*
X-27741Y182918D01*
X-27839Y182942D01*
X-27939Y182961D01*
X-28039Y182977D01*
X-28139Y182989D01*
X-28240Y182997D01*
X-28341Y183001D01*
X-28443Y183001D01*
X-28544Y182997D01*
X-28645Y182989D01*
X-28745Y182977D01*
X-28845Y182961D01*
X-28945Y182942D01*
X-29043Y182918D01*
X-29141Y182891D01*
X-29237Y182860D01*
X-29332Y182826D01*
X-29426Y182787D01*
X-29518Y182746D01*
X-29609Y182700D01*
X-29698Y182651D01*
X-29784Y182599D01*
X-29869Y182543D01*
X-29951Y182484D01*
X-30031Y182422D01*
X-30109Y182357D01*
X-30184Y182289D01*
X-30256Y182218D01*
X-30326Y182145D01*
X-30392Y182068D01*
X-30456Y181990D01*
X-30516Y181908D01*
X-30573Y181825D01*
X-30627Y181739D01*
X-30678Y181651D01*
X-30725Y181562D01*
X-30769Y181470D01*
X-30809Y181377D01*
X-30846Y181283D01*
X-30878Y181187D01*
X-30907Y181090D01*
X-30933Y180992D01*
X-30954Y180893D01*
X-30972Y180793D01*
X-30985Y180693D01*
X-30995Y180592D01*
X-31001Y180491D01*
X-31003Y180390D01*
X-31002Y180390D02*
X-31002Y177780D01*
X-31002Y180912D02*
X-35179Y183001D01*
X-27869Y186866D02*
X-25781Y189477D01*
X-35179Y189477D01*
X-35179Y186866D02*
X-35179Y192088D01*
X-27869Y196010D02*
X-25781Y198621D01*
X-35179Y198621D01*
X-35179Y196010D02*
X-35179Y201232D01*
X1334Y169842D02*
X10732Y169842D01*
X10732Y172453D01*
X10730Y172554D01*
X10724Y172655D01*
X10714Y172756D01*
X10701Y172856D01*
X10683Y172956D01*
X10662Y173055D01*
X10636Y173153D01*
X10607Y173250D01*
X10575Y173346D01*
X10538Y173440D01*
X10498Y173533D01*
X10454Y173625D01*
X10407Y173714D01*
X10356Y173802D01*
X10302Y173888D01*
X10245Y173971D01*
X10185Y174053D01*
X10121Y174131D01*
X10055Y174208D01*
X9985Y174281D01*
X9913Y174352D01*
X9838Y174420D01*
X9760Y174485D01*
X9680Y174547D01*
X9598Y174606D01*
X9513Y174662D01*
X9427Y174714D01*
X9338Y174763D01*
X9247Y174809D01*
X9155Y174850D01*
X9061Y174889D01*
X8966Y174923D01*
X8870Y174954D01*
X8772Y174981D01*
X8674Y175005D01*
X8574Y175024D01*
X8474Y175040D01*
X8374Y175052D01*
X8273Y175060D01*
X8172Y175064D01*
X8070Y175064D01*
X7969Y175060D01*
X7868Y175052D01*
X7768Y175040D01*
X7668Y175024D01*
X7568Y175005D01*
X7470Y174981D01*
X7372Y174954D01*
X7276Y174923D01*
X7181Y174889D01*
X7087Y174850D01*
X6995Y174809D01*
X6904Y174763D01*
X6816Y174714D01*
X6729Y174662D01*
X6644Y174606D01*
X6562Y174547D01*
X6482Y174485D01*
X6404Y174420D01*
X6329Y174352D01*
X6257Y174281D01*
X6187Y174208D01*
X6121Y174131D01*
X6057Y174053D01*
X5997Y173971D01*
X5940Y173888D01*
X5886Y173802D01*
X5835Y173714D01*
X5788Y173625D01*
X5744Y173533D01*
X5704Y173440D01*
X5667Y173346D01*
X5635Y173250D01*
X5606Y173153D01*
X5580Y173055D01*
X5559Y172956D01*
X5541Y172856D01*
X5528Y172756D01*
X5518Y172655D01*
X5512Y172554D01*
X5510Y172453D01*
X5510Y169842D01*
X5510Y172975D02*
X1334Y175063D01*
X8643Y178929D02*
X10732Y181539D01*
X1334Y181539D01*
X1334Y178929D02*
X1334Y184150D01*
X8382Y193295D02*
X8477Y193293D01*
X8571Y193287D01*
X8665Y193278D01*
X8759Y193265D01*
X8852Y193248D01*
X8944Y193227D01*
X9036Y193202D01*
X9126Y193174D01*
X9215Y193142D01*
X9303Y193107D01*
X9389Y193068D01*
X9474Y193026D01*
X9557Y192980D01*
X9638Y192931D01*
X9717Y192879D01*
X9794Y192824D01*
X9868Y192765D01*
X9940Y192704D01*
X10010Y192640D01*
X10077Y192573D01*
X10141Y192503D01*
X10202Y192431D01*
X10261Y192357D01*
X10316Y192280D01*
X10368Y192201D01*
X10417Y192120D01*
X10463Y192037D01*
X10505Y191952D01*
X10544Y191866D01*
X10579Y191778D01*
X10611Y191689D01*
X10639Y191599D01*
X10664Y191507D01*
X10685Y191415D01*
X10702Y191322D01*
X10715Y191228D01*
X10724Y191134D01*
X10730Y191040D01*
X10732Y190945D01*
X10731Y190945D02*
X10729Y190837D01*
X10723Y190728D01*
X10713Y190620D01*
X10700Y190513D01*
X10682Y190406D01*
X10661Y190299D01*
X10636Y190194D01*
X10607Y190089D01*
X10575Y189986D01*
X10538Y189884D01*
X10498Y189783D01*
X10455Y189684D01*
X10408Y189586D01*
X10357Y189490D01*
X10303Y189396D01*
X10246Y189304D01*
X10185Y189214D01*
X10121Y189126D01*
X10055Y189041D01*
X9985Y188958D01*
X9912Y188878D01*
X9836Y188800D01*
X9758Y188725D01*
X9677Y188653D01*
X9593Y188584D01*
X9507Y188518D01*
X9419Y188455D01*
X9328Y188396D01*
X9236Y188339D01*
X9141Y188286D01*
X9045Y188237D01*
X8946Y188191D01*
X8847Y188148D01*
X8745Y188109D01*
X8643Y188074D01*
X6554Y192511D02*
X6623Y192580D01*
X6694Y192646D01*
X6767Y192710D01*
X6843Y192771D01*
X6922Y192829D01*
X7002Y192883D01*
X7085Y192935D01*
X7169Y192983D01*
X7255Y193029D01*
X7343Y193070D01*
X7433Y193109D01*
X7524Y193144D01*
X7616Y193175D01*
X7709Y193203D01*
X7803Y193227D01*
X7898Y193247D01*
X7994Y193264D01*
X8091Y193277D01*
X8188Y193286D01*
X8285Y193292D01*
X8382Y193294D01*
X6555Y192511D02*
X1334Y188073D01*
X1334Y193294D01*
X-9906Y179367D02*
X-19304Y179367D01*
X-9906Y179367D02*
X-9906Y181978D01*
X-9908Y182079D01*
X-9914Y182180D01*
X-9924Y182281D01*
X-9937Y182381D01*
X-9955Y182481D01*
X-9976Y182580D01*
X-10002Y182678D01*
X-10031Y182775D01*
X-10063Y182871D01*
X-10100Y182965D01*
X-10140Y183058D01*
X-10184Y183150D01*
X-10231Y183239D01*
X-10282Y183327D01*
X-10336Y183413D01*
X-10393Y183496D01*
X-10453Y183578D01*
X-10517Y183656D01*
X-10583Y183733D01*
X-10653Y183806D01*
X-10725Y183877D01*
X-10800Y183945D01*
X-10878Y184010D01*
X-10958Y184072D01*
X-11040Y184131D01*
X-11125Y184187D01*
X-11212Y184239D01*
X-11300Y184288D01*
X-11391Y184334D01*
X-11483Y184375D01*
X-11577Y184414D01*
X-11672Y184448D01*
X-11768Y184479D01*
X-11866Y184506D01*
X-11964Y184530D01*
X-12064Y184549D01*
X-12164Y184565D01*
X-12264Y184577D01*
X-12365Y184585D01*
X-12466Y184589D01*
X-12568Y184589D01*
X-12669Y184585D01*
X-12770Y184577D01*
X-12870Y184565D01*
X-12970Y184549D01*
X-13070Y184530D01*
X-13168Y184506D01*
X-13266Y184479D01*
X-13362Y184448D01*
X-13457Y184414D01*
X-13551Y184375D01*
X-13643Y184334D01*
X-13734Y184288D01*
X-13823Y184239D01*
X-13909Y184187D01*
X-13994Y184131D01*
X-14076Y184072D01*
X-14156Y184010D01*
X-14234Y183945D01*
X-14309Y183877D01*
X-14381Y183806D01*
X-14451Y183733D01*
X-14517Y183656D01*
X-14581Y183578D01*
X-14641Y183496D01*
X-14698Y183413D01*
X-14752Y183327D01*
X-14803Y183239D01*
X-14850Y183150D01*
X-14894Y183058D01*
X-14934Y182965D01*
X-14971Y182871D01*
X-15003Y182775D01*
X-15032Y182678D01*
X-15058Y182580D01*
X-15079Y182481D01*
X-15097Y182381D01*
X-15110Y182281D01*
X-15120Y182180D01*
X-15126Y182079D01*
X-15128Y181978D01*
X-15127Y181978D02*
X-15127Y179367D01*
X-15127Y182500D02*
X-19304Y184588D01*
X-11994Y188454D02*
X-9906Y191064D01*
X-19304Y191064D01*
X-19304Y188454D02*
X-19304Y193675D01*
X-19304Y197598D02*
X-19304Y200208D01*
X-19302Y200309D01*
X-19296Y200410D01*
X-19286Y200511D01*
X-19273Y200611D01*
X-19255Y200711D01*
X-19234Y200810D01*
X-19208Y200908D01*
X-19179Y201005D01*
X-19147Y201101D01*
X-19110Y201195D01*
X-19070Y201288D01*
X-19026Y201380D01*
X-18979Y201469D01*
X-18928Y201557D01*
X-18874Y201643D01*
X-18817Y201726D01*
X-18757Y201808D01*
X-18693Y201886D01*
X-18627Y201963D01*
X-18557Y202036D01*
X-18485Y202107D01*
X-18410Y202175D01*
X-18332Y202240D01*
X-18252Y202302D01*
X-18170Y202361D01*
X-18085Y202417D01*
X-17999Y202469D01*
X-17910Y202518D01*
X-17819Y202564D01*
X-17727Y202605D01*
X-17633Y202644D01*
X-17538Y202678D01*
X-17442Y202709D01*
X-17344Y202736D01*
X-17246Y202760D01*
X-17146Y202779D01*
X-17046Y202795D01*
X-16946Y202807D01*
X-16845Y202815D01*
X-16744Y202819D01*
X-16642Y202819D01*
X-16541Y202815D01*
X-16440Y202807D01*
X-16340Y202795D01*
X-16240Y202779D01*
X-16140Y202760D01*
X-16042Y202736D01*
X-15944Y202709D01*
X-15848Y202678D01*
X-15753Y202644D01*
X-15659Y202605D01*
X-15567Y202564D01*
X-15476Y202518D01*
X-15388Y202469D01*
X-15301Y202417D01*
X-15216Y202361D01*
X-15134Y202302D01*
X-15054Y202240D01*
X-14976Y202175D01*
X-14901Y202107D01*
X-14829Y202036D01*
X-14759Y201963D01*
X-14693Y201886D01*
X-14629Y201808D01*
X-14569Y201726D01*
X-14512Y201643D01*
X-14458Y201557D01*
X-14407Y201469D01*
X-14360Y201380D01*
X-14316Y201288D01*
X-14276Y201195D01*
X-14239Y201101D01*
X-14207Y201005D01*
X-14178Y200908D01*
X-14152Y200810D01*
X-14131Y200711D01*
X-14113Y200611D01*
X-14100Y200511D01*
X-14090Y200410D01*
X-14084Y200309D01*
X-14082Y200208D01*
X-9906Y200731D02*
X-9906Y197598D01*
X-9906Y200731D02*
X-9908Y200821D01*
X-9914Y200910D01*
X-9923Y201000D01*
X-9937Y201089D01*
X-9954Y201177D01*
X-9975Y201264D01*
X-10000Y201351D01*
X-10029Y201436D01*
X-10061Y201520D01*
X-10096Y201602D01*
X-10136Y201683D01*
X-10178Y201762D01*
X-10224Y201839D01*
X-10274Y201914D01*
X-10326Y201987D01*
X-10382Y202058D01*
X-10440Y202126D01*
X-10502Y202191D01*
X-10566Y202254D01*
X-10633Y202314D01*
X-10702Y202371D01*
X-10774Y202425D01*
X-10848Y202476D01*
X-10924Y202524D01*
X-11002Y202568D01*
X-11082Y202609D01*
X-11164Y202647D01*
X-11247Y202681D01*
X-11332Y202711D01*
X-11418Y202738D01*
X-11504Y202761D01*
X-11592Y202780D01*
X-11681Y202795D01*
X-11770Y202807D01*
X-11859Y202815D01*
X-11949Y202819D01*
X-12039Y202819D01*
X-12129Y202815D01*
X-12218Y202807D01*
X-12307Y202795D01*
X-12396Y202780D01*
X-12484Y202761D01*
X-12570Y202738D01*
X-12656Y202711D01*
X-12741Y202681D01*
X-12824Y202647D01*
X-12906Y202609D01*
X-12986Y202568D01*
X-13064Y202524D01*
X-13140Y202476D01*
X-13214Y202425D01*
X-13286Y202371D01*
X-13355Y202314D01*
X-13422Y202254D01*
X-13486Y202191D01*
X-13548Y202126D01*
X-13606Y202058D01*
X-13662Y201987D01*
X-13714Y201914D01*
X-13764Y201839D01*
X-13810Y201762D01*
X-13852Y201683D01*
X-13892Y201602D01*
X-13927Y201520D01*
X-13959Y201436D01*
X-13988Y201351D01*
X-14013Y201264D01*
X-14034Y201177D01*
X-14051Y201089D01*
X-14065Y201000D01*
X-14074Y200910D01*
X-14080Y200821D01*
X-14082Y200731D01*
X-14083Y200731D02*
X-14083Y198642D01*
X-84519Y209530D02*
X-93917Y209530D01*
X-84519Y209530D02*
X-84519Y212140D01*
X-84518Y212140D02*
X-84520Y212241D01*
X-84526Y212342D01*
X-84536Y212443D01*
X-84549Y212543D01*
X-84567Y212643D01*
X-84588Y212742D01*
X-84614Y212840D01*
X-84643Y212937D01*
X-84675Y213033D01*
X-84712Y213127D01*
X-84752Y213220D01*
X-84796Y213312D01*
X-84843Y213401D01*
X-84894Y213489D01*
X-84948Y213575D01*
X-85005Y213658D01*
X-85065Y213740D01*
X-85129Y213818D01*
X-85195Y213895D01*
X-85265Y213968D01*
X-85337Y214039D01*
X-85412Y214107D01*
X-85490Y214172D01*
X-85570Y214234D01*
X-85652Y214293D01*
X-85737Y214349D01*
X-85824Y214401D01*
X-85912Y214450D01*
X-86003Y214496D01*
X-86095Y214537D01*
X-86189Y214576D01*
X-86284Y214610D01*
X-86380Y214641D01*
X-86478Y214668D01*
X-86576Y214692D01*
X-86676Y214711D01*
X-86776Y214727D01*
X-86876Y214739D01*
X-86977Y214747D01*
X-87078Y214751D01*
X-87180Y214751D01*
X-87281Y214747D01*
X-87382Y214739D01*
X-87482Y214727D01*
X-87582Y214711D01*
X-87682Y214692D01*
X-87780Y214668D01*
X-87878Y214641D01*
X-87974Y214610D01*
X-88069Y214576D01*
X-88163Y214537D01*
X-88255Y214496D01*
X-88346Y214450D01*
X-88435Y214401D01*
X-88521Y214349D01*
X-88606Y214293D01*
X-88688Y214234D01*
X-88768Y214172D01*
X-88846Y214107D01*
X-88921Y214039D01*
X-88993Y213968D01*
X-89063Y213895D01*
X-89129Y213818D01*
X-89193Y213740D01*
X-89253Y213658D01*
X-89310Y213575D01*
X-89364Y213489D01*
X-89415Y213401D01*
X-89462Y213312D01*
X-89506Y213220D01*
X-89546Y213127D01*
X-89583Y213033D01*
X-89615Y212937D01*
X-89644Y212840D01*
X-89670Y212742D01*
X-89691Y212643D01*
X-89709Y212543D01*
X-89722Y212443D01*
X-89732Y212342D01*
X-89738Y212241D01*
X-89740Y212140D01*
X-89740Y209530D01*
X-89740Y212662D02*
X-93917Y214751D01*
X-86607Y218616D02*
X-84519Y221227D01*
X-93917Y221227D01*
X-93917Y218616D02*
X-93917Y223838D01*
X-91828Y227760D02*
X-84519Y229849D01*
X-91828Y227760D02*
X-91828Y232982D01*
X-89740Y231415D02*
X-93917Y231415D01*
X-47879Y255922D02*
X-47879Y258010D01*
X-47879Y255922D02*
X-47877Y255833D01*
X-47871Y255745D01*
X-47862Y255657D01*
X-47849Y255569D01*
X-47832Y255482D01*
X-47812Y255396D01*
X-47787Y255311D01*
X-47760Y255226D01*
X-47728Y255143D01*
X-47694Y255062D01*
X-47655Y254982D01*
X-47614Y254904D01*
X-47569Y254827D01*
X-47521Y254753D01*
X-47470Y254680D01*
X-47416Y254610D01*
X-47358Y254543D01*
X-47298Y254477D01*
X-47236Y254415D01*
X-47170Y254355D01*
X-47103Y254297D01*
X-47033Y254243D01*
X-46960Y254192D01*
X-46886Y254144D01*
X-46809Y254099D01*
X-46731Y254058D01*
X-46651Y254019D01*
X-46570Y253985D01*
X-46487Y253953D01*
X-46402Y253926D01*
X-46317Y253901D01*
X-46231Y253881D01*
X-46144Y253864D01*
X-46056Y253851D01*
X-45968Y253842D01*
X-45880Y253836D01*
X-45791Y253834D01*
X-45791Y253833D02*
X-40569Y253833D01*
X-40478Y253835D01*
X-40387Y253841D01*
X-40296Y253851D01*
X-40206Y253865D01*
X-40117Y253883D01*
X-40028Y253904D01*
X-39941Y253930D01*
X-39855Y253959D01*
X-39770Y253992D01*
X-39686Y254029D01*
X-39604Y254069D01*
X-39525Y254113D01*
X-39447Y254160D01*
X-39371Y254211D01*
X-39297Y254265D01*
X-39226Y254322D01*
X-39158Y254382D01*
X-39092Y254445D01*
X-39029Y254511D01*
X-38969Y254579D01*
X-38912Y254650D01*
X-38858Y254724D01*
X-38807Y254800D01*
X-38760Y254877D01*
X-38716Y254957D01*
X-38676Y255039D01*
X-38639Y255123D01*
X-38606Y255207D01*
X-38577Y255294D01*
X-38551Y255381D01*
X-38530Y255470D01*
X-38512Y255559D01*
X-38498Y255649D01*
X-38488Y255740D01*
X-38482Y255831D01*
X-38480Y255922D01*
X-38481Y255922D02*
X-38481Y258010D01*
X-40569Y261479D02*
X-38481Y264089D01*
X-47879Y264089D01*
X-47879Y261479D02*
X-47879Y266700D01*
X-40831Y275845D02*
X-40736Y275843D01*
X-40642Y275837D01*
X-40548Y275828D01*
X-40454Y275815D01*
X-40361Y275798D01*
X-40269Y275777D01*
X-40177Y275752D01*
X-40087Y275724D01*
X-39998Y275692D01*
X-39910Y275657D01*
X-39824Y275618D01*
X-39739Y275576D01*
X-39656Y275530D01*
X-39575Y275481D01*
X-39496Y275429D01*
X-39419Y275374D01*
X-39345Y275315D01*
X-39273Y275254D01*
X-39203Y275190D01*
X-39136Y275123D01*
X-39072Y275053D01*
X-39011Y274981D01*
X-38952Y274907D01*
X-38897Y274830D01*
X-38845Y274751D01*
X-38796Y274670D01*
X-38750Y274587D01*
X-38708Y274502D01*
X-38669Y274416D01*
X-38634Y274328D01*
X-38602Y274239D01*
X-38574Y274149D01*
X-38549Y274057D01*
X-38528Y273965D01*
X-38511Y273872D01*
X-38498Y273778D01*
X-38489Y273684D01*
X-38483Y273590D01*
X-38481Y273495D01*
X-38483Y273387D01*
X-38489Y273278D01*
X-38499Y273170D01*
X-38512Y273063D01*
X-38530Y272956D01*
X-38551Y272849D01*
X-38576Y272744D01*
X-38605Y272639D01*
X-38637Y272536D01*
X-38674Y272434D01*
X-38714Y272333D01*
X-38757Y272234D01*
X-38804Y272136D01*
X-38855Y272040D01*
X-38909Y271946D01*
X-38966Y271854D01*
X-39027Y271764D01*
X-39091Y271676D01*
X-39157Y271591D01*
X-39227Y271508D01*
X-39300Y271428D01*
X-39376Y271350D01*
X-39454Y271275D01*
X-39535Y271203D01*
X-39619Y271134D01*
X-39705Y271068D01*
X-39793Y271005D01*
X-39884Y270946D01*
X-39976Y270889D01*
X-40071Y270836D01*
X-40168Y270787D01*
X-40266Y270741D01*
X-40365Y270698D01*
X-40467Y270659D01*
X-40569Y270624D01*
X-42659Y275061D02*
X-42590Y275130D01*
X-42519Y275196D01*
X-42446Y275260D01*
X-42370Y275321D01*
X-42291Y275379D01*
X-42211Y275433D01*
X-42128Y275485D01*
X-42044Y275533D01*
X-41958Y275579D01*
X-41870Y275620D01*
X-41780Y275659D01*
X-41689Y275694D01*
X-41597Y275725D01*
X-41504Y275753D01*
X-41410Y275777D01*
X-41315Y275797D01*
X-41219Y275814D01*
X-41122Y275827D01*
X-41025Y275836D01*
X-40928Y275842D01*
X-40831Y275844D01*
X-42658Y275061D02*
X-47879Y270623D01*
X-47879Y275844D01*
D15*
X53163Y223688D02*
X70663Y223688D01*
X70663Y236688D02*
X53163Y236688D01*
D12*
X70576Y234594D02*
X70576Y225196D01*
X70576Y234594D02*
X67965Y234594D01*
X67865Y234592D01*
X67765Y234586D01*
X67666Y234577D01*
X67566Y234563D01*
X67468Y234546D01*
X67370Y234525D01*
X67273Y234501D01*
X67177Y234472D01*
X67082Y234440D01*
X66989Y234405D01*
X66897Y234366D01*
X66806Y234323D01*
X66718Y234277D01*
X66631Y234227D01*
X66546Y234175D01*
X66463Y234119D01*
X66382Y234060D01*
X66304Y233997D01*
X66228Y233932D01*
X66154Y233864D01*
X66084Y233794D01*
X66016Y233720D01*
X65951Y233644D01*
X65888Y233566D01*
X65829Y233485D01*
X65773Y233402D01*
X65721Y233317D01*
X65671Y233230D01*
X65625Y233142D01*
X65582Y233051D01*
X65543Y232959D01*
X65508Y232866D01*
X65476Y232771D01*
X65447Y232675D01*
X65423Y232578D01*
X65402Y232480D01*
X65385Y232382D01*
X65371Y232282D01*
X65362Y232183D01*
X65356Y232083D01*
X65354Y231983D01*
X65355Y231983D02*
X65355Y227807D01*
X65354Y227807D02*
X65356Y227707D01*
X65362Y227607D01*
X65371Y227508D01*
X65385Y227408D01*
X65402Y227310D01*
X65423Y227212D01*
X65447Y227115D01*
X65476Y227019D01*
X65508Y226924D01*
X65543Y226831D01*
X65582Y226739D01*
X65625Y226648D01*
X65671Y226560D01*
X65721Y226473D01*
X65773Y226388D01*
X65829Y226305D01*
X65888Y226224D01*
X65951Y226146D01*
X66016Y226070D01*
X66084Y225996D01*
X66154Y225926D01*
X66228Y225858D01*
X66304Y225793D01*
X66382Y225730D01*
X66463Y225671D01*
X66546Y225615D01*
X66631Y225563D01*
X66718Y225513D01*
X66806Y225467D01*
X66897Y225424D01*
X66989Y225385D01*
X67082Y225350D01*
X67177Y225318D01*
X67273Y225289D01*
X67370Y225265D01*
X67468Y225244D01*
X67566Y225227D01*
X67666Y225213D01*
X67765Y225204D01*
X67865Y225198D01*
X67965Y225196D01*
X70576Y225196D01*
X61128Y227807D02*
X61126Y227908D01*
X61120Y228009D01*
X61110Y228110D01*
X61097Y228210D01*
X61079Y228310D01*
X61058Y228409D01*
X61032Y228507D01*
X61003Y228604D01*
X60971Y228700D01*
X60934Y228794D01*
X60894Y228887D01*
X60850Y228979D01*
X60803Y229068D01*
X60752Y229156D01*
X60698Y229242D01*
X60641Y229325D01*
X60581Y229407D01*
X60517Y229485D01*
X60451Y229562D01*
X60381Y229635D01*
X60309Y229706D01*
X60234Y229774D01*
X60156Y229839D01*
X60076Y229901D01*
X59994Y229960D01*
X59909Y230016D01*
X59823Y230068D01*
X59734Y230117D01*
X59643Y230163D01*
X59551Y230204D01*
X59457Y230243D01*
X59362Y230277D01*
X59266Y230308D01*
X59168Y230335D01*
X59070Y230359D01*
X58970Y230378D01*
X58870Y230394D01*
X58770Y230406D01*
X58669Y230414D01*
X58568Y230418D01*
X58466Y230418D01*
X58365Y230414D01*
X58264Y230406D01*
X58164Y230394D01*
X58064Y230378D01*
X57964Y230359D01*
X57866Y230335D01*
X57768Y230308D01*
X57672Y230277D01*
X57577Y230243D01*
X57483Y230204D01*
X57391Y230163D01*
X57300Y230117D01*
X57212Y230068D01*
X57125Y230016D01*
X57040Y229960D01*
X56958Y229901D01*
X56878Y229839D01*
X56800Y229774D01*
X56725Y229706D01*
X56653Y229635D01*
X56583Y229562D01*
X56517Y229485D01*
X56453Y229407D01*
X56393Y229325D01*
X56336Y229242D01*
X56282Y229156D01*
X56231Y229068D01*
X56184Y228979D01*
X56140Y228887D01*
X56100Y228794D01*
X56063Y228700D01*
X56031Y228604D01*
X56002Y228507D01*
X55976Y228409D01*
X55955Y228310D01*
X55937Y228210D01*
X55924Y228110D01*
X55914Y228009D01*
X55908Y227908D01*
X55906Y227807D01*
X55908Y227706D01*
X55914Y227605D01*
X55924Y227504D01*
X55937Y227404D01*
X55955Y227304D01*
X55976Y227205D01*
X56002Y227107D01*
X56031Y227010D01*
X56063Y226914D01*
X56100Y226820D01*
X56140Y226727D01*
X56184Y226635D01*
X56231Y226546D01*
X56282Y226458D01*
X56336Y226372D01*
X56393Y226289D01*
X56453Y226207D01*
X56517Y226129D01*
X56583Y226052D01*
X56653Y225979D01*
X56725Y225908D01*
X56800Y225840D01*
X56878Y225775D01*
X56958Y225713D01*
X57040Y225654D01*
X57125Y225598D01*
X57211Y225546D01*
X57300Y225497D01*
X57391Y225451D01*
X57483Y225410D01*
X57577Y225371D01*
X57672Y225337D01*
X57768Y225306D01*
X57866Y225279D01*
X57964Y225255D01*
X58064Y225236D01*
X58164Y225220D01*
X58264Y225208D01*
X58365Y225200D01*
X58466Y225196D01*
X58568Y225196D01*
X58669Y225200D01*
X58770Y225208D01*
X58870Y225220D01*
X58970Y225236D01*
X59070Y225255D01*
X59168Y225279D01*
X59266Y225306D01*
X59362Y225337D01*
X59457Y225371D01*
X59551Y225410D01*
X59643Y225451D01*
X59734Y225497D01*
X59822Y225546D01*
X59909Y225598D01*
X59994Y225654D01*
X60076Y225713D01*
X60156Y225775D01*
X60234Y225840D01*
X60309Y225908D01*
X60381Y225979D01*
X60451Y226052D01*
X60517Y226129D01*
X60581Y226207D01*
X60641Y226289D01*
X60698Y226372D01*
X60752Y226458D01*
X60803Y226546D01*
X60850Y226635D01*
X60894Y226727D01*
X60934Y226820D01*
X60971Y226914D01*
X61003Y227010D01*
X61032Y227107D01*
X61058Y227205D01*
X61079Y227304D01*
X61097Y227404D01*
X61110Y227504D01*
X61120Y227605D01*
X61126Y227706D01*
X61128Y227807D01*
X60605Y232506D02*
X60603Y232596D01*
X60597Y232685D01*
X60588Y232775D01*
X60574Y232864D01*
X60557Y232952D01*
X60536Y233039D01*
X60511Y233126D01*
X60482Y233211D01*
X60450Y233295D01*
X60415Y233377D01*
X60375Y233458D01*
X60333Y233537D01*
X60287Y233614D01*
X60237Y233689D01*
X60185Y233762D01*
X60129Y233833D01*
X60071Y233901D01*
X60009Y233966D01*
X59945Y234029D01*
X59878Y234089D01*
X59809Y234146D01*
X59737Y234200D01*
X59663Y234251D01*
X59587Y234299D01*
X59509Y234343D01*
X59429Y234384D01*
X59347Y234422D01*
X59264Y234456D01*
X59179Y234486D01*
X59093Y234513D01*
X59007Y234536D01*
X58919Y234555D01*
X58830Y234570D01*
X58741Y234582D01*
X58652Y234590D01*
X58562Y234594D01*
X58472Y234594D01*
X58382Y234590D01*
X58293Y234582D01*
X58204Y234570D01*
X58115Y234555D01*
X58027Y234536D01*
X57941Y234513D01*
X57855Y234486D01*
X57770Y234456D01*
X57687Y234422D01*
X57605Y234384D01*
X57525Y234343D01*
X57447Y234299D01*
X57371Y234251D01*
X57297Y234200D01*
X57225Y234146D01*
X57156Y234089D01*
X57089Y234029D01*
X57025Y233966D01*
X56963Y233901D01*
X56905Y233833D01*
X56849Y233762D01*
X56797Y233689D01*
X56747Y233614D01*
X56701Y233537D01*
X56659Y233458D01*
X56619Y233377D01*
X56584Y233295D01*
X56552Y233211D01*
X56523Y233126D01*
X56498Y233039D01*
X56477Y232952D01*
X56460Y232864D01*
X56446Y232775D01*
X56437Y232685D01*
X56431Y232596D01*
X56429Y232506D01*
X56431Y232416D01*
X56437Y232327D01*
X56446Y232237D01*
X56460Y232148D01*
X56477Y232060D01*
X56498Y231973D01*
X56523Y231886D01*
X56552Y231801D01*
X56584Y231717D01*
X56619Y231635D01*
X56659Y231554D01*
X56701Y231475D01*
X56747Y231398D01*
X56797Y231323D01*
X56849Y231250D01*
X56905Y231179D01*
X56963Y231111D01*
X57025Y231046D01*
X57089Y230983D01*
X57156Y230923D01*
X57225Y230866D01*
X57297Y230812D01*
X57371Y230761D01*
X57447Y230713D01*
X57525Y230669D01*
X57605Y230628D01*
X57687Y230590D01*
X57770Y230556D01*
X57855Y230526D01*
X57941Y230499D01*
X58027Y230476D01*
X58115Y230457D01*
X58204Y230442D01*
X58293Y230430D01*
X58382Y230422D01*
X58472Y230418D01*
X58562Y230418D01*
X58652Y230422D01*
X58741Y230430D01*
X58830Y230442D01*
X58919Y230457D01*
X59007Y230476D01*
X59093Y230499D01*
X59179Y230526D01*
X59264Y230556D01*
X59347Y230590D01*
X59429Y230628D01*
X59509Y230669D01*
X59587Y230713D01*
X59663Y230761D01*
X59737Y230812D01*
X59809Y230866D01*
X59878Y230923D01*
X59945Y230983D01*
X60009Y231046D01*
X60071Y231111D01*
X60129Y231179D01*
X60185Y231250D01*
X60237Y231323D01*
X60287Y231398D01*
X60333Y231475D01*
X60375Y231554D01*
X60415Y231635D01*
X60450Y231717D01*
X60482Y231801D01*
X60511Y231886D01*
X60536Y231973D01*
X60557Y232060D01*
X60574Y232148D01*
X60588Y232237D01*
X60597Y232327D01*
X60603Y232416D01*
X60605Y232506D01*
D15*
X69075Y207813D02*
X51575Y207813D01*
X51575Y220813D02*
X69075Y220813D01*
D12*
X68988Y218719D02*
X68988Y209321D01*
X68988Y218719D02*
X66378Y218719D01*
X66278Y218717D01*
X66178Y218711D01*
X66079Y218702D01*
X65979Y218688D01*
X65881Y218671D01*
X65783Y218650D01*
X65686Y218626D01*
X65590Y218597D01*
X65495Y218565D01*
X65402Y218530D01*
X65310Y218491D01*
X65219Y218448D01*
X65131Y218402D01*
X65044Y218352D01*
X64959Y218300D01*
X64876Y218244D01*
X64795Y218185D01*
X64717Y218122D01*
X64641Y218057D01*
X64567Y217989D01*
X64497Y217919D01*
X64429Y217845D01*
X64364Y217769D01*
X64301Y217691D01*
X64242Y217610D01*
X64186Y217527D01*
X64134Y217442D01*
X64084Y217355D01*
X64038Y217267D01*
X63995Y217176D01*
X63956Y217084D01*
X63921Y216991D01*
X63889Y216896D01*
X63860Y216800D01*
X63836Y216703D01*
X63815Y216605D01*
X63798Y216507D01*
X63784Y216407D01*
X63775Y216308D01*
X63769Y216208D01*
X63767Y216108D01*
X63767Y211932D01*
X63769Y211832D01*
X63775Y211732D01*
X63784Y211633D01*
X63798Y211533D01*
X63815Y211435D01*
X63836Y211337D01*
X63860Y211240D01*
X63889Y211144D01*
X63921Y211049D01*
X63956Y210956D01*
X63995Y210864D01*
X64038Y210773D01*
X64084Y210685D01*
X64134Y210598D01*
X64186Y210513D01*
X64242Y210430D01*
X64301Y210349D01*
X64364Y210271D01*
X64429Y210195D01*
X64497Y210121D01*
X64567Y210051D01*
X64641Y209983D01*
X64717Y209918D01*
X64795Y209855D01*
X64876Y209796D01*
X64959Y209740D01*
X65044Y209688D01*
X65131Y209638D01*
X65219Y209592D01*
X65310Y209549D01*
X65402Y209510D01*
X65495Y209475D01*
X65590Y209443D01*
X65686Y209414D01*
X65783Y209390D01*
X65881Y209369D01*
X65979Y209352D01*
X66079Y209338D01*
X66178Y209329D01*
X66278Y209323D01*
X66378Y209321D01*
X68988Y209321D01*
X57451Y213498D02*
X54319Y213498D01*
X57451Y213498D02*
X57540Y213500D01*
X57628Y213506D01*
X57716Y213515D01*
X57804Y213528D01*
X57891Y213545D01*
X57977Y213565D01*
X58062Y213590D01*
X58147Y213617D01*
X58230Y213649D01*
X58311Y213683D01*
X58391Y213722D01*
X58469Y213763D01*
X58546Y213808D01*
X58620Y213856D01*
X58693Y213907D01*
X58763Y213961D01*
X58830Y214019D01*
X58896Y214079D01*
X58958Y214141D01*
X59018Y214207D01*
X59076Y214274D01*
X59130Y214344D01*
X59181Y214417D01*
X59229Y214491D01*
X59274Y214568D01*
X59315Y214646D01*
X59354Y214726D01*
X59388Y214807D01*
X59420Y214890D01*
X59447Y214975D01*
X59472Y215060D01*
X59492Y215146D01*
X59509Y215233D01*
X59522Y215321D01*
X59531Y215409D01*
X59537Y215497D01*
X59539Y215586D01*
X59540Y215586D02*
X59540Y216108D01*
X59538Y216209D01*
X59532Y216310D01*
X59522Y216411D01*
X59509Y216511D01*
X59491Y216611D01*
X59470Y216710D01*
X59444Y216808D01*
X59415Y216905D01*
X59383Y217001D01*
X59346Y217095D01*
X59306Y217188D01*
X59262Y217280D01*
X59215Y217369D01*
X59164Y217457D01*
X59110Y217543D01*
X59053Y217626D01*
X58993Y217708D01*
X58929Y217786D01*
X58863Y217863D01*
X58793Y217936D01*
X58721Y218007D01*
X58646Y218075D01*
X58568Y218140D01*
X58488Y218202D01*
X58406Y218261D01*
X58321Y218317D01*
X58235Y218369D01*
X58146Y218418D01*
X58055Y218464D01*
X57963Y218505D01*
X57869Y218544D01*
X57774Y218578D01*
X57678Y218609D01*
X57580Y218636D01*
X57482Y218660D01*
X57382Y218679D01*
X57282Y218695D01*
X57182Y218707D01*
X57081Y218715D01*
X56980Y218719D01*
X56878Y218719D01*
X56777Y218715D01*
X56676Y218707D01*
X56576Y218695D01*
X56476Y218679D01*
X56376Y218660D01*
X56278Y218636D01*
X56180Y218609D01*
X56084Y218578D01*
X55989Y218544D01*
X55895Y218505D01*
X55803Y218464D01*
X55712Y218418D01*
X55624Y218369D01*
X55537Y218317D01*
X55452Y218261D01*
X55370Y218202D01*
X55290Y218140D01*
X55212Y218075D01*
X55137Y218007D01*
X55065Y217936D01*
X54995Y217863D01*
X54929Y217786D01*
X54865Y217708D01*
X54805Y217626D01*
X54748Y217543D01*
X54694Y217457D01*
X54643Y217369D01*
X54596Y217280D01*
X54552Y217188D01*
X54512Y217095D01*
X54475Y217001D01*
X54443Y216905D01*
X54414Y216808D01*
X54388Y216710D01*
X54367Y216611D01*
X54349Y216511D01*
X54336Y216411D01*
X54326Y216310D01*
X54320Y216209D01*
X54318Y216108D01*
X54319Y216108D02*
X54319Y213498D01*
X54318Y213498D02*
X54320Y213372D01*
X54326Y213246D01*
X54335Y213120D01*
X54348Y212995D01*
X54366Y212870D01*
X54386Y212745D01*
X54411Y212621D01*
X54439Y212498D01*
X54471Y212376D01*
X54507Y212255D01*
X54546Y212135D01*
X54589Y212017D01*
X54636Y211900D01*
X54686Y211784D01*
X54740Y211669D01*
X54796Y211557D01*
X54857Y211446D01*
X54920Y211337D01*
X54987Y211230D01*
X55057Y211125D01*
X55131Y211022D01*
X55207Y210922D01*
X55286Y210824D01*
X55368Y210728D01*
X55454Y210635D01*
X55541Y210544D01*
X55632Y210457D01*
X55725Y210371D01*
X55821Y210289D01*
X55919Y210210D01*
X56019Y210134D01*
X56122Y210060D01*
X56227Y209990D01*
X56334Y209923D01*
X56443Y209860D01*
X56554Y209799D01*
X56666Y209743D01*
X56781Y209689D01*
X56897Y209639D01*
X57014Y209592D01*
X57132Y209549D01*
X57252Y209510D01*
X57373Y209474D01*
X57495Y209442D01*
X57618Y209414D01*
X57742Y209389D01*
X57867Y209369D01*
X57992Y209351D01*
X58117Y209338D01*
X58243Y209329D01*
X58369Y209323D01*
X58495Y209321D01*
X-52134Y170244D02*
X-61532Y170244D01*
X-52134Y170244D02*
X-52134Y172854D01*
X-52133Y172854D02*
X-52135Y172955D01*
X-52141Y173056D01*
X-52151Y173157D01*
X-52164Y173257D01*
X-52182Y173357D01*
X-52203Y173456D01*
X-52229Y173554D01*
X-52258Y173651D01*
X-52290Y173747D01*
X-52327Y173841D01*
X-52367Y173934D01*
X-52411Y174026D01*
X-52458Y174115D01*
X-52509Y174203D01*
X-52563Y174289D01*
X-52620Y174372D01*
X-52680Y174454D01*
X-52744Y174532D01*
X-52810Y174609D01*
X-52880Y174682D01*
X-52952Y174753D01*
X-53027Y174821D01*
X-53105Y174886D01*
X-53185Y174948D01*
X-53267Y175007D01*
X-53352Y175063D01*
X-53439Y175115D01*
X-53527Y175164D01*
X-53618Y175210D01*
X-53710Y175251D01*
X-53804Y175290D01*
X-53899Y175324D01*
X-53995Y175355D01*
X-54093Y175382D01*
X-54191Y175406D01*
X-54291Y175425D01*
X-54391Y175441D01*
X-54491Y175453D01*
X-54592Y175461D01*
X-54693Y175465D01*
X-54795Y175465D01*
X-54896Y175461D01*
X-54997Y175453D01*
X-55097Y175441D01*
X-55197Y175425D01*
X-55297Y175406D01*
X-55395Y175382D01*
X-55493Y175355D01*
X-55589Y175324D01*
X-55684Y175290D01*
X-55778Y175251D01*
X-55870Y175210D01*
X-55961Y175164D01*
X-56050Y175115D01*
X-56136Y175063D01*
X-56221Y175007D01*
X-56303Y174948D01*
X-56383Y174886D01*
X-56461Y174821D01*
X-56536Y174753D01*
X-56608Y174682D01*
X-56678Y174609D01*
X-56744Y174532D01*
X-56808Y174454D01*
X-56868Y174372D01*
X-56925Y174289D01*
X-56979Y174203D01*
X-57030Y174115D01*
X-57077Y174026D01*
X-57121Y173934D01*
X-57161Y173841D01*
X-57198Y173747D01*
X-57230Y173651D01*
X-57259Y173554D01*
X-57285Y173456D01*
X-57306Y173357D01*
X-57324Y173257D01*
X-57337Y173157D01*
X-57347Y173056D01*
X-57353Y172955D01*
X-57355Y172854D01*
X-57355Y170244D01*
X-57355Y173376D02*
X-61532Y175465D01*
X-59443Y179330D02*
X-52134Y181419D01*
X-59443Y179330D02*
X-59443Y184552D01*
X-57355Y182985D02*
X-61532Y182985D01*
D11*
X-63500Y238125D02*
X-88900Y238125D01*
D12*
X-103442Y251159D02*
X-103442Y253248D01*
X-103441Y251159D02*
X-103439Y251070D01*
X-103433Y250982D01*
X-103424Y250894D01*
X-103411Y250806D01*
X-103394Y250719D01*
X-103374Y250633D01*
X-103349Y250548D01*
X-103322Y250463D01*
X-103290Y250380D01*
X-103256Y250299D01*
X-103217Y250219D01*
X-103176Y250141D01*
X-103131Y250064D01*
X-103083Y249990D01*
X-103032Y249917D01*
X-102978Y249847D01*
X-102920Y249780D01*
X-102860Y249714D01*
X-102798Y249652D01*
X-102732Y249592D01*
X-102665Y249534D01*
X-102595Y249480D01*
X-102522Y249429D01*
X-102448Y249381D01*
X-102371Y249336D01*
X-102293Y249295D01*
X-102213Y249256D01*
X-102132Y249222D01*
X-102049Y249190D01*
X-101964Y249163D01*
X-101879Y249138D01*
X-101793Y249118D01*
X-101706Y249101D01*
X-101618Y249088D01*
X-101530Y249079D01*
X-101442Y249073D01*
X-101353Y249071D01*
X-96132Y249071D01*
X-96132Y249070D02*
X-96041Y249072D01*
X-95950Y249078D01*
X-95859Y249088D01*
X-95769Y249102D01*
X-95680Y249120D01*
X-95591Y249141D01*
X-95504Y249167D01*
X-95418Y249196D01*
X-95333Y249229D01*
X-95249Y249266D01*
X-95167Y249306D01*
X-95088Y249350D01*
X-95010Y249397D01*
X-94934Y249448D01*
X-94860Y249502D01*
X-94789Y249559D01*
X-94721Y249619D01*
X-94655Y249682D01*
X-94592Y249748D01*
X-94532Y249816D01*
X-94475Y249887D01*
X-94421Y249961D01*
X-94370Y250037D01*
X-94323Y250114D01*
X-94279Y250194D01*
X-94239Y250276D01*
X-94202Y250360D01*
X-94169Y250444D01*
X-94140Y250531D01*
X-94114Y250618D01*
X-94093Y250707D01*
X-94075Y250796D01*
X-94061Y250886D01*
X-94051Y250977D01*
X-94045Y251068D01*
X-94043Y251159D01*
X-94044Y251159D02*
X-94044Y253248D01*
X-96132Y256716D02*
X-94044Y259327D01*
X-103442Y259327D01*
X-103442Y256716D02*
X-103442Y261938D01*
X-103442Y265860D02*
X-103442Y268471D01*
X-103440Y268572D01*
X-103434Y268673D01*
X-103424Y268774D01*
X-103411Y268874D01*
X-103393Y268974D01*
X-103372Y269073D01*
X-103346Y269171D01*
X-103317Y269268D01*
X-103285Y269364D01*
X-103248Y269458D01*
X-103208Y269551D01*
X-103164Y269643D01*
X-103117Y269732D01*
X-103066Y269820D01*
X-103012Y269906D01*
X-102955Y269989D01*
X-102895Y270071D01*
X-102831Y270149D01*
X-102765Y270226D01*
X-102695Y270299D01*
X-102623Y270370D01*
X-102548Y270438D01*
X-102470Y270503D01*
X-102390Y270565D01*
X-102308Y270624D01*
X-102223Y270680D01*
X-102137Y270732D01*
X-102048Y270781D01*
X-101957Y270827D01*
X-101865Y270868D01*
X-101771Y270907D01*
X-101676Y270941D01*
X-101580Y270972D01*
X-101482Y270999D01*
X-101384Y271023D01*
X-101284Y271042D01*
X-101184Y271058D01*
X-101084Y271070D01*
X-100983Y271078D01*
X-100882Y271082D01*
X-100780Y271082D01*
X-100679Y271078D01*
X-100578Y271070D01*
X-100478Y271058D01*
X-100378Y271042D01*
X-100278Y271023D01*
X-100180Y270999D01*
X-100082Y270972D01*
X-99986Y270941D01*
X-99891Y270907D01*
X-99797Y270868D01*
X-99705Y270827D01*
X-99614Y270781D01*
X-99526Y270732D01*
X-99439Y270680D01*
X-99354Y270624D01*
X-99272Y270565D01*
X-99192Y270503D01*
X-99114Y270438D01*
X-99039Y270370D01*
X-98967Y270299D01*
X-98897Y270226D01*
X-98831Y270149D01*
X-98767Y270071D01*
X-98707Y269989D01*
X-98650Y269906D01*
X-98596Y269820D01*
X-98545Y269732D01*
X-98498Y269643D01*
X-98454Y269551D01*
X-98414Y269458D01*
X-98377Y269364D01*
X-98345Y269268D01*
X-98316Y269171D01*
X-98290Y269073D01*
X-98269Y268974D01*
X-98251Y268874D01*
X-98238Y268774D01*
X-98228Y268673D01*
X-98222Y268572D01*
X-98220Y268471D01*
X-94044Y268993D02*
X-94044Y265860D01*
X-94044Y268993D02*
X-94046Y269083D01*
X-94052Y269172D01*
X-94061Y269262D01*
X-94075Y269351D01*
X-94092Y269439D01*
X-94113Y269526D01*
X-94138Y269613D01*
X-94167Y269698D01*
X-94199Y269782D01*
X-94234Y269864D01*
X-94274Y269945D01*
X-94316Y270024D01*
X-94362Y270101D01*
X-94412Y270176D01*
X-94464Y270249D01*
X-94520Y270320D01*
X-94578Y270388D01*
X-94640Y270453D01*
X-94704Y270516D01*
X-94771Y270576D01*
X-94840Y270633D01*
X-94912Y270687D01*
X-94986Y270738D01*
X-95062Y270786D01*
X-95140Y270830D01*
X-95220Y270871D01*
X-95302Y270909D01*
X-95385Y270943D01*
X-95470Y270973D01*
X-95556Y271000D01*
X-95642Y271023D01*
X-95730Y271042D01*
X-95819Y271057D01*
X-95908Y271069D01*
X-95997Y271077D01*
X-96087Y271081D01*
X-96177Y271081D01*
X-96267Y271077D01*
X-96356Y271069D01*
X-96445Y271057D01*
X-96534Y271042D01*
X-96622Y271023D01*
X-96708Y271000D01*
X-96794Y270973D01*
X-96879Y270943D01*
X-96962Y270909D01*
X-97044Y270871D01*
X-97124Y270830D01*
X-97202Y270786D01*
X-97278Y270738D01*
X-97352Y270687D01*
X-97424Y270633D01*
X-97493Y270576D01*
X-97560Y270516D01*
X-97624Y270453D01*
X-97686Y270388D01*
X-97744Y270320D01*
X-97800Y270249D01*
X-97852Y270176D01*
X-97902Y270101D01*
X-97948Y270024D01*
X-97990Y269945D01*
X-98030Y269864D01*
X-98065Y269782D01*
X-98097Y269698D01*
X-98126Y269613D01*
X-98151Y269526D01*
X-98172Y269439D01*
X-98189Y269351D01*
X-98203Y269262D01*
X-98212Y269172D01*
X-98218Y269083D01*
X-98220Y268993D01*
X-98220Y266905D01*
X-52642Y219529D02*
X-52642Y217441D01*
X-52641Y217441D02*
X-52639Y217352D01*
X-52633Y217264D01*
X-52624Y217176D01*
X-52611Y217088D01*
X-52594Y217001D01*
X-52574Y216915D01*
X-52549Y216830D01*
X-52522Y216745D01*
X-52490Y216662D01*
X-52456Y216581D01*
X-52417Y216501D01*
X-52376Y216423D01*
X-52331Y216346D01*
X-52283Y216272D01*
X-52232Y216199D01*
X-52178Y216129D01*
X-52120Y216062D01*
X-52060Y215996D01*
X-51998Y215934D01*
X-51932Y215874D01*
X-51865Y215816D01*
X-51795Y215762D01*
X-51722Y215711D01*
X-51648Y215663D01*
X-51571Y215618D01*
X-51493Y215577D01*
X-51413Y215538D01*
X-51332Y215504D01*
X-51249Y215472D01*
X-51164Y215445D01*
X-51079Y215420D01*
X-50993Y215400D01*
X-50906Y215383D01*
X-50818Y215370D01*
X-50730Y215361D01*
X-50642Y215355D01*
X-50553Y215353D01*
X-50553Y215352D02*
X-45332Y215352D01*
X-45241Y215354D01*
X-45150Y215360D01*
X-45059Y215370D01*
X-44969Y215384D01*
X-44880Y215402D01*
X-44791Y215423D01*
X-44704Y215449D01*
X-44618Y215478D01*
X-44533Y215511D01*
X-44449Y215548D01*
X-44367Y215588D01*
X-44288Y215632D01*
X-44210Y215679D01*
X-44134Y215730D01*
X-44060Y215784D01*
X-43989Y215841D01*
X-43921Y215901D01*
X-43855Y215964D01*
X-43792Y216030D01*
X-43732Y216098D01*
X-43675Y216169D01*
X-43621Y216243D01*
X-43570Y216319D01*
X-43523Y216396D01*
X-43479Y216476D01*
X-43439Y216558D01*
X-43402Y216642D01*
X-43369Y216726D01*
X-43340Y216813D01*
X-43314Y216900D01*
X-43293Y216989D01*
X-43275Y217078D01*
X-43261Y217168D01*
X-43251Y217259D01*
X-43245Y217350D01*
X-43243Y217441D01*
X-43244Y217441D02*
X-43244Y219529D01*
X-43243Y225870D02*
X-43245Y225965D01*
X-43251Y226059D01*
X-43260Y226153D01*
X-43273Y226247D01*
X-43290Y226340D01*
X-43311Y226432D01*
X-43336Y226524D01*
X-43364Y226614D01*
X-43396Y226703D01*
X-43431Y226791D01*
X-43470Y226877D01*
X-43512Y226962D01*
X-43558Y227045D01*
X-43607Y227126D01*
X-43659Y227205D01*
X-43714Y227282D01*
X-43773Y227356D01*
X-43834Y227428D01*
X-43898Y227498D01*
X-43965Y227565D01*
X-44035Y227629D01*
X-44107Y227690D01*
X-44181Y227749D01*
X-44258Y227804D01*
X-44337Y227856D01*
X-44418Y227905D01*
X-44501Y227951D01*
X-44586Y227993D01*
X-44672Y228032D01*
X-44760Y228067D01*
X-44849Y228099D01*
X-44939Y228127D01*
X-45031Y228152D01*
X-45123Y228173D01*
X-45216Y228190D01*
X-45310Y228203D01*
X-45404Y228212D01*
X-45498Y228218D01*
X-45593Y228220D01*
X-43244Y225870D02*
X-43246Y225762D01*
X-43252Y225653D01*
X-43262Y225545D01*
X-43275Y225438D01*
X-43293Y225331D01*
X-43314Y225224D01*
X-43339Y225119D01*
X-43368Y225014D01*
X-43400Y224911D01*
X-43437Y224809D01*
X-43477Y224708D01*
X-43520Y224609D01*
X-43567Y224511D01*
X-43618Y224415D01*
X-43672Y224321D01*
X-43729Y224229D01*
X-43790Y224139D01*
X-43854Y224051D01*
X-43920Y223966D01*
X-43990Y223883D01*
X-44063Y223803D01*
X-44139Y223725D01*
X-44217Y223650D01*
X-44298Y223578D01*
X-44382Y223509D01*
X-44468Y223443D01*
X-44556Y223380D01*
X-44647Y223321D01*
X-44739Y223264D01*
X-44834Y223211D01*
X-44931Y223162D01*
X-45029Y223116D01*
X-45128Y223073D01*
X-45230Y223034D01*
X-45332Y222999D01*
X-47421Y227436D02*
X-47352Y227505D01*
X-47281Y227571D01*
X-47208Y227635D01*
X-47132Y227696D01*
X-47053Y227754D01*
X-46973Y227808D01*
X-46890Y227860D01*
X-46806Y227908D01*
X-46720Y227954D01*
X-46632Y227995D01*
X-46542Y228034D01*
X-46451Y228069D01*
X-46359Y228100D01*
X-46266Y228128D01*
X-46172Y228152D01*
X-46077Y228172D01*
X-45981Y228189D01*
X-45884Y228202D01*
X-45787Y228211D01*
X-45690Y228217D01*
X-45593Y228219D01*
X-47420Y227436D02*
X-52642Y222998D01*
X-52642Y228219D01*
M02*
