G04 EAGLE Gerber RS-274X export*
G75*
%MOMM*%
%FSLAX34Y34*%
%LPD*%
%INSilkscreen Bottom*%
%IPPOS*%
%AMOC8*
5,1,8,0,0,1.08239X$1,22.5*%
G01*
%ADD10C,0.101600*%
%ADD11C,0.152400*%
%ADD12C,0.076200*%
%ADD13C,0.254000*%
%ADD14C,0.406400*%
%ADD15C,0.050800*%
%ADD16C,0.203200*%
%ADD17C,0.150000*%

G36*
X-41718Y78019D02*
X-41718Y78019D01*
X-41715Y78018D01*
X-41672Y78038D01*
X-41629Y78056D01*
X-41628Y78058D01*
X-41626Y78059D01*
X-41593Y78144D01*
X-41593Y81954D01*
X-41594Y81956D01*
X-41593Y81958D01*
X-41613Y82001D01*
X-41632Y82045D01*
X-41634Y82045D01*
X-41635Y82047D01*
X-41720Y82080D01*
X-44260Y82080D01*
X-44262Y82079D01*
X-44264Y82080D01*
X-44307Y82060D01*
X-44350Y82042D01*
X-44351Y82040D01*
X-44353Y82039D01*
X-44386Y81954D01*
X-44386Y78144D01*
X-44385Y78142D01*
X-44386Y78140D01*
X-44366Y78097D01*
X-44347Y78053D01*
X-44345Y78053D01*
X-44344Y78051D01*
X-44260Y78018D01*
X-41720Y78018D01*
X-41718Y78019D01*
G37*
G36*
X41087Y63016D02*
X41087Y63016D01*
X41089Y63015D01*
X41132Y63035D01*
X41175Y63053D01*
X41176Y63055D01*
X41178Y63056D01*
X41211Y63141D01*
X41211Y66951D01*
X41210Y66953D01*
X41211Y66955D01*
X41191Y66998D01*
X41172Y67042D01*
X41170Y67042D01*
X41169Y67044D01*
X41085Y67077D01*
X38545Y67077D01*
X38543Y67076D01*
X38540Y67077D01*
X38497Y67057D01*
X38454Y67039D01*
X38453Y67037D01*
X38451Y67036D01*
X38418Y66951D01*
X38418Y63141D01*
X38419Y63139D01*
X38418Y63137D01*
X38438Y63094D01*
X38457Y63050D01*
X38459Y63050D01*
X38460Y63048D01*
X38545Y63015D01*
X41085Y63015D01*
X41087Y63016D01*
G37*
G36*
X-7183Y39753D02*
X-7183Y39753D01*
X-7180Y39752D01*
X-7137Y39772D01*
X-7094Y39790D01*
X-7093Y39792D01*
X-7091Y39793D01*
X-7058Y39878D01*
X-7058Y42418D01*
X-7059Y42420D01*
X-7058Y42422D01*
X-7078Y42465D01*
X-7097Y42509D01*
X-7099Y42509D01*
X-7100Y42511D01*
X-7185Y42544D01*
X-10995Y42544D01*
X-10997Y42543D01*
X-10999Y42544D01*
X-11042Y42524D01*
X-11085Y42506D01*
X-11086Y42504D01*
X-11088Y42503D01*
X-11121Y42418D01*
X-11121Y39878D01*
X-11120Y39876D01*
X-11121Y39874D01*
X-11101Y39831D01*
X-11082Y39787D01*
X-11080Y39787D01*
X-11079Y39785D01*
X-10995Y39752D01*
X-7185Y39752D01*
X-7183Y39753D01*
G37*
D10*
X145974Y140044D02*
X145974Y141991D01*
X139483Y141991D01*
X139483Y138096D01*
X139485Y137997D01*
X139491Y137897D01*
X139500Y137798D01*
X139513Y137700D01*
X139530Y137602D01*
X139551Y137504D01*
X139576Y137408D01*
X139604Y137313D01*
X139636Y137219D01*
X139671Y137126D01*
X139710Y137034D01*
X139753Y136944D01*
X139798Y136856D01*
X139848Y136769D01*
X139900Y136685D01*
X139956Y136602D01*
X140014Y136522D01*
X140076Y136444D01*
X140141Y136369D01*
X140209Y136296D01*
X140279Y136226D01*
X140352Y136158D01*
X140427Y136093D01*
X140505Y136031D01*
X140585Y135973D01*
X140668Y135917D01*
X140752Y135865D01*
X140839Y135815D01*
X140927Y135770D01*
X141017Y135727D01*
X141109Y135688D01*
X141202Y135653D01*
X141296Y135621D01*
X141391Y135593D01*
X141487Y135568D01*
X141585Y135547D01*
X141683Y135530D01*
X141781Y135517D01*
X141880Y135508D01*
X141980Y135502D01*
X142079Y135500D01*
X148571Y135500D01*
X148670Y135502D01*
X148770Y135508D01*
X148869Y135517D01*
X148967Y135530D01*
X149065Y135547D01*
X149163Y135568D01*
X149259Y135593D01*
X149354Y135621D01*
X149448Y135653D01*
X149541Y135688D01*
X149633Y135727D01*
X149723Y135770D01*
X149811Y135815D01*
X149898Y135865D01*
X149982Y135917D01*
X150065Y135973D01*
X150145Y136031D01*
X150223Y136093D01*
X150298Y136158D01*
X150371Y136226D01*
X150441Y136296D01*
X150509Y136369D01*
X150574Y136444D01*
X150636Y136522D01*
X150694Y136602D01*
X150750Y136685D01*
X150802Y136769D01*
X150852Y136856D01*
X150897Y136944D01*
X150940Y137034D01*
X150979Y137126D01*
X151014Y137218D01*
X151046Y137313D01*
X151074Y137408D01*
X151099Y137504D01*
X151120Y137602D01*
X151137Y137700D01*
X151150Y137798D01*
X151159Y137897D01*
X151165Y137997D01*
X151167Y138096D01*
X151167Y141991D01*
X151167Y147692D02*
X139483Y147692D01*
X139483Y154183D02*
X151167Y147692D01*
X151167Y154183D02*
X139483Y154183D01*
X139483Y159884D02*
X151167Y159884D01*
X151167Y163129D01*
X151165Y163242D01*
X151159Y163355D01*
X151149Y163468D01*
X151135Y163581D01*
X151118Y163693D01*
X151096Y163804D01*
X151071Y163914D01*
X151041Y164024D01*
X151008Y164132D01*
X150971Y164239D01*
X150931Y164345D01*
X150886Y164449D01*
X150838Y164552D01*
X150787Y164653D01*
X150732Y164752D01*
X150674Y164849D01*
X150612Y164944D01*
X150547Y165037D01*
X150479Y165127D01*
X150408Y165215D01*
X150333Y165301D01*
X150256Y165384D01*
X150176Y165464D01*
X150093Y165541D01*
X150007Y165616D01*
X149919Y165687D01*
X149829Y165755D01*
X149736Y165820D01*
X149641Y165882D01*
X149544Y165940D01*
X149445Y165995D01*
X149344Y166046D01*
X149241Y166094D01*
X149137Y166139D01*
X149031Y166179D01*
X148924Y166216D01*
X148816Y166249D01*
X148706Y166279D01*
X148596Y166304D01*
X148485Y166326D01*
X148373Y166343D01*
X148260Y166357D01*
X148147Y166367D01*
X148034Y166373D01*
X147921Y166375D01*
X142729Y166375D01*
X142616Y166373D01*
X142503Y166367D01*
X142390Y166357D01*
X142277Y166343D01*
X142165Y166326D01*
X142054Y166304D01*
X141944Y166279D01*
X141834Y166249D01*
X141726Y166216D01*
X141619Y166179D01*
X141513Y166139D01*
X141409Y166094D01*
X141306Y166046D01*
X141205Y165995D01*
X141106Y165940D01*
X141009Y165882D01*
X140914Y165820D01*
X140821Y165755D01*
X140731Y165687D01*
X140643Y165616D01*
X140557Y165541D01*
X140474Y165464D01*
X140394Y165384D01*
X140317Y165301D01*
X140242Y165215D01*
X140171Y165127D01*
X140103Y165037D01*
X140038Y164944D01*
X139976Y164849D01*
X139918Y164752D01*
X139863Y164653D01*
X139812Y164552D01*
X139764Y164449D01*
X139719Y164345D01*
X139679Y164239D01*
X139642Y164132D01*
X139609Y164024D01*
X139579Y163914D01*
X139554Y163804D01*
X139532Y163693D01*
X139515Y163581D01*
X139501Y163468D01*
X139491Y163355D01*
X139485Y163242D01*
X139483Y163129D01*
X139483Y159884D01*
X81276Y32018D02*
X79681Y30901D01*
X83404Y25583D01*
X86595Y27817D01*
X86594Y27817D02*
X86674Y27876D01*
X86752Y27938D01*
X86828Y28002D01*
X86901Y28070D01*
X86972Y28140D01*
X87039Y28213D01*
X87104Y28288D01*
X87166Y28366D01*
X87225Y28446D01*
X87281Y28528D01*
X87334Y28613D01*
X87383Y28699D01*
X87429Y28787D01*
X87472Y28877D01*
X87511Y28968D01*
X87546Y29061D01*
X87578Y29155D01*
X87607Y29251D01*
X87631Y29347D01*
X87652Y29444D01*
X87670Y29542D01*
X87683Y29641D01*
X87693Y29740D01*
X87699Y29839D01*
X87701Y29938D01*
X87699Y30038D01*
X87694Y30137D01*
X87684Y30236D01*
X87671Y30335D01*
X87655Y30433D01*
X87634Y30530D01*
X87610Y30627D01*
X87582Y30722D01*
X87550Y30816D01*
X87515Y30909D01*
X87476Y31001D01*
X87434Y31091D01*
X87388Y31179D01*
X87339Y31266D01*
X87287Y31350D01*
X87232Y31433D01*
X83509Y36751D01*
X83509Y36750D02*
X83450Y36830D01*
X83388Y36908D01*
X83324Y36984D01*
X83256Y37057D01*
X83186Y37128D01*
X83113Y37195D01*
X83038Y37260D01*
X82960Y37322D01*
X82880Y37381D01*
X82798Y37437D01*
X82713Y37490D01*
X82627Y37539D01*
X82539Y37585D01*
X82449Y37628D01*
X82358Y37667D01*
X82265Y37702D01*
X82171Y37734D01*
X82075Y37763D01*
X81979Y37787D01*
X81882Y37808D01*
X81784Y37826D01*
X81685Y37839D01*
X81586Y37849D01*
X81487Y37855D01*
X81388Y37857D01*
X81288Y37855D01*
X81189Y37850D01*
X81090Y37841D01*
X80991Y37827D01*
X80893Y37811D01*
X80796Y37790D01*
X80699Y37766D01*
X80604Y37738D01*
X80510Y37706D01*
X80417Y37671D01*
X80325Y37632D01*
X80235Y37590D01*
X80147Y37544D01*
X80060Y37495D01*
X79976Y37443D01*
X79893Y37388D01*
X76703Y35154D01*
X72033Y31884D02*
X78734Y22314D01*
X73417Y18590D02*
X72033Y31884D01*
X66716Y28161D02*
X73417Y18590D01*
X68747Y15320D02*
X62046Y24891D01*
X59387Y23030D01*
X59296Y22963D01*
X59206Y22894D01*
X59119Y22821D01*
X59035Y22745D01*
X58954Y22666D01*
X58875Y22585D01*
X58799Y22501D01*
X58726Y22414D01*
X58657Y22325D01*
X58590Y22233D01*
X58527Y22139D01*
X58467Y22043D01*
X58410Y21945D01*
X58357Y21845D01*
X58307Y21743D01*
X58261Y21639D01*
X58219Y21534D01*
X58180Y21428D01*
X58145Y21320D01*
X58114Y21211D01*
X58086Y21101D01*
X58063Y20990D01*
X58043Y20879D01*
X58027Y20767D01*
X58015Y20654D01*
X58007Y20541D01*
X58003Y20428D01*
X58003Y20314D01*
X58007Y20201D01*
X58015Y20088D01*
X58027Y19975D01*
X58043Y19863D01*
X58063Y19752D01*
X58086Y19641D01*
X58114Y19531D01*
X58145Y19422D01*
X58180Y19314D01*
X58219Y19208D01*
X58261Y19103D01*
X58307Y18999D01*
X58357Y18897D01*
X58410Y18797D01*
X58467Y18699D01*
X58527Y18603D01*
X58590Y18509D01*
X58590Y18510D02*
X61569Y14256D01*
X61568Y14255D02*
X61635Y14164D01*
X61704Y14074D01*
X61777Y13987D01*
X61853Y13903D01*
X61932Y13822D01*
X62013Y13743D01*
X62097Y13667D01*
X62184Y13594D01*
X62274Y13525D01*
X62365Y13458D01*
X62459Y13395D01*
X62555Y13335D01*
X62653Y13278D01*
X62753Y13225D01*
X62855Y13175D01*
X62959Y13129D01*
X63064Y13087D01*
X63170Y13048D01*
X63278Y13013D01*
X63387Y12982D01*
X63497Y12954D01*
X63608Y12931D01*
X63719Y12911D01*
X63831Y12895D01*
X63944Y12883D01*
X64057Y12875D01*
X64170Y12871D01*
X64284Y12871D01*
X64397Y12875D01*
X64510Y12883D01*
X64623Y12895D01*
X64735Y12911D01*
X64846Y12931D01*
X64957Y12954D01*
X65067Y12982D01*
X65176Y13013D01*
X65284Y13048D01*
X65390Y13087D01*
X65495Y13129D01*
X65599Y13175D01*
X65701Y13225D01*
X65801Y13278D01*
X65899Y13335D01*
X65995Y13395D01*
X66089Y13458D01*
X66089Y13459D02*
X68747Y15320D01*
X-67454Y19846D02*
X-69049Y20963D01*
X-72772Y15646D01*
X-69582Y13412D01*
X-69499Y13357D01*
X-69415Y13305D01*
X-69328Y13256D01*
X-69240Y13210D01*
X-69150Y13168D01*
X-69058Y13129D01*
X-68965Y13094D01*
X-68871Y13062D01*
X-68776Y13034D01*
X-68679Y13010D01*
X-68582Y12989D01*
X-68484Y12973D01*
X-68385Y12960D01*
X-68286Y12950D01*
X-68187Y12945D01*
X-68087Y12943D01*
X-67988Y12945D01*
X-67889Y12951D01*
X-67790Y12961D01*
X-67691Y12974D01*
X-67593Y12992D01*
X-67496Y13013D01*
X-67400Y13037D01*
X-67304Y13066D01*
X-67210Y13098D01*
X-67117Y13133D01*
X-67026Y13172D01*
X-66936Y13215D01*
X-66848Y13261D01*
X-66762Y13310D01*
X-66677Y13363D01*
X-66595Y13419D01*
X-66515Y13478D01*
X-66437Y13540D01*
X-66362Y13605D01*
X-66289Y13672D01*
X-66219Y13743D01*
X-66151Y13816D01*
X-66087Y13892D01*
X-66025Y13970D01*
X-65966Y14050D01*
X-65966Y14049D02*
X-62243Y19366D01*
X-62243Y19367D02*
X-62188Y19450D01*
X-62136Y19534D01*
X-62087Y19621D01*
X-62041Y19709D01*
X-61999Y19799D01*
X-61960Y19891D01*
X-61925Y19984D01*
X-61893Y20078D01*
X-61865Y20173D01*
X-61841Y20270D01*
X-61820Y20367D01*
X-61804Y20465D01*
X-61791Y20564D01*
X-61781Y20663D01*
X-61776Y20762D01*
X-61774Y20862D01*
X-61776Y20961D01*
X-61782Y21060D01*
X-61792Y21159D01*
X-61805Y21258D01*
X-61823Y21356D01*
X-61844Y21453D01*
X-61868Y21549D01*
X-61897Y21645D01*
X-61929Y21739D01*
X-61964Y21832D01*
X-62003Y21923D01*
X-62046Y22013D01*
X-62092Y22101D01*
X-62141Y22187D01*
X-62194Y22272D01*
X-62250Y22354D01*
X-62309Y22434D01*
X-62371Y22512D01*
X-62436Y22587D01*
X-62503Y22660D01*
X-62574Y22730D01*
X-62647Y22798D01*
X-62723Y22862D01*
X-62801Y22924D01*
X-62881Y22983D01*
X-62880Y22983D02*
X-66071Y25216D01*
X-70741Y28486D02*
X-77442Y18915D01*
X-82760Y22639D02*
X-70741Y28486D01*
X-76058Y32209D02*
X-82760Y22639D01*
X-87429Y25908D02*
X-80728Y35479D01*
X-83386Y37341D01*
X-83480Y37404D01*
X-83576Y37464D01*
X-83674Y37521D01*
X-83774Y37574D01*
X-83876Y37624D01*
X-83980Y37670D01*
X-84085Y37712D01*
X-84191Y37751D01*
X-84299Y37786D01*
X-84408Y37817D01*
X-84518Y37845D01*
X-84629Y37868D01*
X-84740Y37888D01*
X-84852Y37904D01*
X-84965Y37916D01*
X-85078Y37924D01*
X-85191Y37928D01*
X-85305Y37928D01*
X-85418Y37924D01*
X-85531Y37916D01*
X-85644Y37904D01*
X-85756Y37888D01*
X-85867Y37868D01*
X-85978Y37845D01*
X-86088Y37817D01*
X-86197Y37786D01*
X-86305Y37751D01*
X-86411Y37712D01*
X-86516Y37670D01*
X-86620Y37624D01*
X-86722Y37574D01*
X-86822Y37521D01*
X-86920Y37464D01*
X-87016Y37404D01*
X-87110Y37341D01*
X-87201Y37274D01*
X-87291Y37205D01*
X-87378Y37132D01*
X-87462Y37056D01*
X-87543Y36977D01*
X-87622Y36896D01*
X-87698Y36812D01*
X-87771Y36725D01*
X-87840Y36636D01*
X-87907Y36544D01*
X-90885Y32290D01*
X-90886Y32291D02*
X-90949Y32197D01*
X-91009Y32101D01*
X-91066Y32003D01*
X-91119Y31903D01*
X-91169Y31801D01*
X-91215Y31697D01*
X-91257Y31592D01*
X-91296Y31486D01*
X-91331Y31378D01*
X-91362Y31269D01*
X-91390Y31159D01*
X-91413Y31048D01*
X-91433Y30937D01*
X-91449Y30825D01*
X-91461Y30712D01*
X-91469Y30599D01*
X-91473Y30486D01*
X-91473Y30372D01*
X-91469Y30259D01*
X-91461Y30146D01*
X-91449Y30033D01*
X-91433Y29921D01*
X-91413Y29810D01*
X-91390Y29699D01*
X-91362Y29589D01*
X-91331Y29480D01*
X-91296Y29372D01*
X-91257Y29266D01*
X-91215Y29161D01*
X-91169Y29057D01*
X-91119Y28955D01*
X-91066Y28855D01*
X-91009Y28757D01*
X-90949Y28661D01*
X-90886Y28567D01*
X-90819Y28475D01*
X-90750Y28386D01*
X-90677Y28299D01*
X-90601Y28215D01*
X-90522Y28134D01*
X-90441Y28055D01*
X-90357Y27979D01*
X-90270Y27906D01*
X-90180Y27837D01*
X-90089Y27770D01*
X-90088Y27770D02*
X-87429Y25908D01*
X-147601Y144806D02*
X-147601Y146754D01*
X-154092Y146754D01*
X-154092Y142859D01*
X-154090Y142760D01*
X-154084Y142660D01*
X-154075Y142561D01*
X-154062Y142463D01*
X-154045Y142365D01*
X-154024Y142267D01*
X-153999Y142171D01*
X-153971Y142076D01*
X-153939Y141982D01*
X-153904Y141889D01*
X-153865Y141797D01*
X-153822Y141707D01*
X-153777Y141619D01*
X-153727Y141532D01*
X-153675Y141448D01*
X-153619Y141365D01*
X-153561Y141285D01*
X-153499Y141207D01*
X-153434Y141132D01*
X-153366Y141059D01*
X-153296Y140989D01*
X-153223Y140921D01*
X-153148Y140856D01*
X-153070Y140794D01*
X-152990Y140736D01*
X-152907Y140680D01*
X-152823Y140628D01*
X-152736Y140578D01*
X-152648Y140533D01*
X-152558Y140490D01*
X-152466Y140451D01*
X-152373Y140416D01*
X-152279Y140384D01*
X-152184Y140356D01*
X-152088Y140331D01*
X-151990Y140310D01*
X-151892Y140293D01*
X-151794Y140280D01*
X-151695Y140271D01*
X-151595Y140265D01*
X-151496Y140263D01*
X-145004Y140263D01*
X-145004Y140262D02*
X-144905Y140264D01*
X-144805Y140270D01*
X-144706Y140279D01*
X-144608Y140292D01*
X-144510Y140310D01*
X-144412Y140330D01*
X-144316Y140355D01*
X-144220Y140383D01*
X-144126Y140415D01*
X-144033Y140450D01*
X-143942Y140489D01*
X-143852Y140532D01*
X-143763Y140577D01*
X-143677Y140627D01*
X-143592Y140679D01*
X-143510Y140735D01*
X-143430Y140794D01*
X-143352Y140855D01*
X-143276Y140920D01*
X-143203Y140988D01*
X-143133Y141058D01*
X-143065Y141131D01*
X-143000Y141207D01*
X-142939Y141285D01*
X-142880Y141365D01*
X-142824Y141447D01*
X-142772Y141532D01*
X-142723Y141618D01*
X-142677Y141707D01*
X-142634Y141797D01*
X-142595Y141888D01*
X-142560Y141981D01*
X-142528Y142075D01*
X-142500Y142171D01*
X-142475Y142267D01*
X-142455Y142365D01*
X-142437Y142463D01*
X-142424Y142561D01*
X-142415Y142660D01*
X-142409Y142759D01*
X-142407Y142859D01*
X-142408Y142859D02*
X-142408Y146754D01*
X-142408Y152454D02*
X-154092Y152454D01*
X-154092Y158946D02*
X-142408Y152454D01*
X-142408Y158946D02*
X-154092Y158946D01*
X-154092Y164646D02*
X-142408Y164646D01*
X-142408Y167892D01*
X-142410Y168005D01*
X-142416Y168118D01*
X-142426Y168231D01*
X-142440Y168344D01*
X-142457Y168456D01*
X-142479Y168567D01*
X-142504Y168677D01*
X-142534Y168787D01*
X-142567Y168895D01*
X-142604Y169002D01*
X-142644Y169108D01*
X-142689Y169212D01*
X-142737Y169315D01*
X-142788Y169416D01*
X-142843Y169515D01*
X-142901Y169612D01*
X-142963Y169707D01*
X-143028Y169800D01*
X-143096Y169890D01*
X-143167Y169978D01*
X-143242Y170064D01*
X-143319Y170147D01*
X-143399Y170227D01*
X-143482Y170304D01*
X-143568Y170379D01*
X-143656Y170450D01*
X-143746Y170518D01*
X-143839Y170583D01*
X-143934Y170645D01*
X-144031Y170703D01*
X-144130Y170758D01*
X-144231Y170809D01*
X-144334Y170857D01*
X-144438Y170902D01*
X-144544Y170942D01*
X-144651Y170979D01*
X-144759Y171012D01*
X-144869Y171042D01*
X-144979Y171067D01*
X-145090Y171089D01*
X-145202Y171106D01*
X-145315Y171120D01*
X-145428Y171130D01*
X-145541Y171136D01*
X-145654Y171138D01*
X-150846Y171138D01*
X-150959Y171136D01*
X-151072Y171130D01*
X-151185Y171120D01*
X-151298Y171106D01*
X-151410Y171089D01*
X-151521Y171067D01*
X-151631Y171042D01*
X-151741Y171012D01*
X-151849Y170979D01*
X-151956Y170942D01*
X-152062Y170902D01*
X-152166Y170857D01*
X-152269Y170809D01*
X-152370Y170758D01*
X-152469Y170703D01*
X-152566Y170645D01*
X-152661Y170583D01*
X-152754Y170518D01*
X-152844Y170450D01*
X-152932Y170379D01*
X-153018Y170304D01*
X-153101Y170227D01*
X-153181Y170147D01*
X-153258Y170064D01*
X-153333Y169978D01*
X-153404Y169890D01*
X-153472Y169800D01*
X-153537Y169707D01*
X-153599Y169612D01*
X-153657Y169515D01*
X-153712Y169416D01*
X-153763Y169315D01*
X-153811Y169212D01*
X-153856Y169108D01*
X-153896Y169002D01*
X-153933Y168895D01*
X-153966Y168787D01*
X-153996Y168677D01*
X-154021Y168567D01*
X-154043Y168456D01*
X-154060Y168344D01*
X-154074Y168231D01*
X-154084Y168118D01*
X-154090Y168005D01*
X-154092Y167892D01*
X-154092Y164646D01*
D11*
X136544Y188053D02*
X136544Y205833D01*
X131605Y205833D01*
X131465Y205831D01*
X131326Y205825D01*
X131186Y205815D01*
X131047Y205801D01*
X130908Y205784D01*
X130770Y205762D01*
X130633Y205736D01*
X130496Y205707D01*
X130360Y205674D01*
X130226Y205637D01*
X130092Y205596D01*
X129960Y205551D01*
X129828Y205502D01*
X129699Y205450D01*
X129571Y205395D01*
X129444Y205335D01*
X129319Y205272D01*
X129196Y205206D01*
X129075Y205136D01*
X128956Y205063D01*
X128839Y204986D01*
X128725Y204906D01*
X128612Y204823D01*
X128502Y204737D01*
X128395Y204647D01*
X128290Y204555D01*
X128188Y204460D01*
X128088Y204362D01*
X127991Y204261D01*
X127897Y204157D01*
X127807Y204051D01*
X127719Y203942D01*
X127634Y203831D01*
X127553Y203717D01*
X127474Y203602D01*
X127399Y203484D01*
X127328Y203364D01*
X127260Y203241D01*
X127195Y203118D01*
X127134Y202992D01*
X127076Y202864D01*
X127022Y202736D01*
X126972Y202605D01*
X126925Y202473D01*
X126882Y202340D01*
X126843Y202206D01*
X126808Y202071D01*
X126777Y201935D01*
X126749Y201797D01*
X126726Y201660D01*
X126706Y201521D01*
X126690Y201382D01*
X126678Y201243D01*
X126670Y201104D01*
X126666Y200964D01*
X126666Y200824D01*
X126670Y200684D01*
X126678Y200545D01*
X126690Y200406D01*
X126706Y200267D01*
X126726Y200128D01*
X126749Y199991D01*
X126777Y199853D01*
X126808Y199717D01*
X126843Y199582D01*
X126882Y199448D01*
X126925Y199315D01*
X126972Y199183D01*
X127022Y199052D01*
X127076Y198924D01*
X127134Y198796D01*
X127195Y198670D01*
X127260Y198547D01*
X127328Y198424D01*
X127399Y198304D01*
X127474Y198186D01*
X127553Y198071D01*
X127634Y197957D01*
X127719Y197846D01*
X127807Y197737D01*
X127897Y197631D01*
X127991Y197527D01*
X128088Y197426D01*
X128188Y197328D01*
X128290Y197233D01*
X128395Y197141D01*
X128502Y197051D01*
X128612Y196965D01*
X128725Y196882D01*
X128839Y196802D01*
X128956Y196725D01*
X129075Y196652D01*
X129196Y196582D01*
X129319Y196516D01*
X129444Y196453D01*
X129571Y196393D01*
X129699Y196338D01*
X129828Y196286D01*
X129960Y196237D01*
X130092Y196192D01*
X130226Y196151D01*
X130360Y196114D01*
X130496Y196081D01*
X130633Y196052D01*
X130770Y196026D01*
X130908Y196004D01*
X131047Y195987D01*
X131186Y195973D01*
X131326Y195963D01*
X131465Y195957D01*
X131605Y195955D01*
X136544Y195955D01*
X120549Y201881D02*
X115610Y205833D01*
X115610Y188053D01*
X120549Y188053D02*
X110671Y188053D01*
X119389Y114054D02*
X130817Y100434D01*
X119389Y114054D02*
X115605Y110879D01*
X115499Y110788D01*
X115396Y110694D01*
X115296Y110597D01*
X115198Y110497D01*
X115103Y110394D01*
X115012Y110289D01*
X114923Y110181D01*
X114837Y110070D01*
X114754Y109957D01*
X114675Y109842D01*
X114599Y109725D01*
X114526Y109606D01*
X114457Y109484D01*
X114391Y109361D01*
X114329Y109236D01*
X114270Y109109D01*
X114215Y108981D01*
X114163Y108851D01*
X114115Y108719D01*
X114071Y108587D01*
X114031Y108453D01*
X113995Y108318D01*
X113962Y108182D01*
X113933Y108045D01*
X113908Y107908D01*
X113887Y107770D01*
X113870Y107631D01*
X113857Y107492D01*
X113848Y107352D01*
X113842Y107212D01*
X113841Y107073D01*
X113844Y106933D01*
X113850Y106793D01*
X113861Y106654D01*
X113875Y106515D01*
X113894Y106376D01*
X113916Y106238D01*
X113942Y106101D01*
X113972Y105965D01*
X114006Y105829D01*
X114044Y105694D01*
X114086Y105561D01*
X114131Y105429D01*
X114180Y105298D01*
X114233Y105168D01*
X114289Y105040D01*
X114349Y104914D01*
X114413Y104790D01*
X114480Y104667D01*
X114550Y104546D01*
X114624Y104428D01*
X114701Y104311D01*
X114782Y104197D01*
X114865Y104085D01*
X114952Y103975D01*
X115042Y103868D01*
X115135Y103764D01*
X115230Y103662D01*
X115329Y103563D01*
X115430Y103466D01*
X115534Y103373D01*
X115641Y103283D01*
X115750Y103195D01*
X115862Y103111D01*
X115976Y103030D01*
X116092Y102953D01*
X116210Y102878D01*
X116331Y102807D01*
X116453Y102740D01*
X116577Y102675D01*
X116703Y102615D01*
X116831Y102558D01*
X116960Y102505D01*
X117091Y102455D01*
X117223Y102409D01*
X117356Y102367D01*
X117490Y102328D01*
X117626Y102294D01*
X117762Y102263D01*
X117899Y102236D01*
X118037Y102213D01*
X118176Y102194D01*
X118315Y102179D01*
X118454Y102168D01*
X118594Y102161D01*
X118733Y102157D01*
X118873Y102158D01*
X119013Y102162D01*
X119152Y102171D01*
X119292Y102184D01*
X119430Y102200D01*
X119569Y102220D01*
X119706Y102245D01*
X119843Y102273D01*
X119979Y102305D01*
X120114Y102341D01*
X120249Y102380D01*
X120381Y102424D01*
X120513Y102471D01*
X120643Y102522D01*
X120772Y102576D01*
X120899Y102635D01*
X121024Y102696D01*
X121148Y102762D01*
X121270Y102830D01*
X121389Y102903D01*
X121507Y102978D01*
X121622Y103057D01*
X121736Y103139D01*
X121846Y103224D01*
X121955Y103313D01*
X121954Y103313D02*
X125738Y106487D01*
X102974Y100280D02*
X102874Y100194D01*
X102777Y100105D01*
X102683Y100013D01*
X102591Y99918D01*
X102502Y99821D01*
X102417Y99721D01*
X102334Y99618D01*
X102254Y99514D01*
X102177Y99406D01*
X102104Y99297D01*
X102034Y99186D01*
X101967Y99072D01*
X101904Y98957D01*
X101844Y98839D01*
X101787Y98720D01*
X101734Y98600D01*
X101685Y98477D01*
X101639Y98354D01*
X101597Y98229D01*
X101559Y98103D01*
X101524Y97976D01*
X101494Y97848D01*
X101467Y97719D01*
X101444Y97589D01*
X101425Y97459D01*
X101409Y97328D01*
X101398Y97197D01*
X101390Y97065D01*
X101386Y96934D01*
X101387Y96802D01*
X101391Y96670D01*
X101399Y96539D01*
X101411Y96407D01*
X101426Y96277D01*
X101446Y96146D01*
X101470Y96017D01*
X101497Y95888D01*
X101528Y95760D01*
X101563Y95633D01*
X101602Y95507D01*
X101644Y95382D01*
X101690Y95259D01*
X101740Y95137D01*
X101793Y95016D01*
X101850Y94898D01*
X101910Y94780D01*
X101974Y94665D01*
X102041Y94552D01*
X102112Y94441D01*
X102186Y94331D01*
X102263Y94225D01*
X102343Y94120D01*
X102426Y94018D01*
X102975Y100280D02*
X103090Y100375D01*
X103209Y100466D01*
X103329Y100555D01*
X103452Y100640D01*
X103577Y100722D01*
X103705Y100801D01*
X103834Y100876D01*
X103965Y100948D01*
X104098Y101017D01*
X104233Y101081D01*
X104369Y101143D01*
X104507Y101201D01*
X104647Y101255D01*
X104787Y101305D01*
X104930Y101352D01*
X105073Y101395D01*
X105217Y101435D01*
X105363Y101470D01*
X105509Y101502D01*
X105656Y101530D01*
X105803Y101554D01*
X105952Y101574D01*
X106100Y101590D01*
X106249Y101602D01*
X106399Y101611D01*
X106548Y101615D01*
X106698Y101616D01*
X106848Y101612D01*
X106997Y101605D01*
X107146Y101594D01*
X107295Y101579D01*
X107443Y101560D01*
X107591Y101537D01*
X107738Y101510D01*
X107885Y101480D01*
X108030Y101445D01*
X108175Y101407D01*
X108319Y101365D01*
X108461Y101319D01*
X108602Y101270D01*
X108742Y101217D01*
X108881Y101160D01*
X109017Y101100D01*
X109153Y101036D01*
X109286Y100968D01*
X109418Y100897D01*
X109548Y100823D01*
X109676Y100745D01*
X105784Y92321D02*
X105651Y92332D01*
X105518Y92346D01*
X105386Y92363D01*
X105254Y92385D01*
X105124Y92410D01*
X104993Y92438D01*
X104864Y92470D01*
X104736Y92506D01*
X104608Y92546D01*
X104482Y92589D01*
X104357Y92635D01*
X104233Y92685D01*
X104111Y92739D01*
X103991Y92795D01*
X103872Y92855D01*
X103754Y92919D01*
X103639Y92986D01*
X103525Y93055D01*
X103414Y93128D01*
X103304Y93204D01*
X103197Y93284D01*
X103092Y93366D01*
X102989Y93451D01*
X102889Y93538D01*
X102791Y93629D01*
X102696Y93722D01*
X102603Y93818D01*
X102513Y93917D01*
X102426Y94018D01*
X105783Y92322D02*
X118564Y90152D01*
X110998Y83803D01*
X97077Y81149D02*
X93268Y85689D01*
X97077Y81149D02*
X97286Y75521D01*
X97077Y81149D02*
X102583Y79966D01*
X97077Y81149D02*
X91646Y79170D01*
X97077Y81149D02*
X99969Y86154D01*
X11791Y34100D02*
X11791Y16320D01*
X11791Y34100D02*
X6853Y34100D01*
X6713Y34098D01*
X6574Y34092D01*
X6434Y34082D01*
X6295Y34068D01*
X6156Y34051D01*
X6018Y34029D01*
X5881Y34003D01*
X5744Y33974D01*
X5608Y33941D01*
X5474Y33904D01*
X5340Y33863D01*
X5208Y33818D01*
X5076Y33769D01*
X4947Y33717D01*
X4819Y33662D01*
X4692Y33602D01*
X4567Y33539D01*
X4444Y33473D01*
X4323Y33403D01*
X4204Y33330D01*
X4087Y33253D01*
X3973Y33173D01*
X3860Y33090D01*
X3750Y33004D01*
X3643Y32914D01*
X3538Y32822D01*
X3436Y32727D01*
X3336Y32629D01*
X3239Y32528D01*
X3145Y32424D01*
X3055Y32318D01*
X2967Y32209D01*
X2882Y32098D01*
X2801Y31984D01*
X2722Y31869D01*
X2647Y31751D01*
X2576Y31630D01*
X2508Y31508D01*
X2443Y31385D01*
X2382Y31259D01*
X2324Y31131D01*
X2270Y31003D01*
X2220Y30872D01*
X2173Y30740D01*
X2130Y30607D01*
X2091Y30473D01*
X2056Y30338D01*
X2025Y30202D01*
X1997Y30064D01*
X1974Y29927D01*
X1954Y29788D01*
X1938Y29649D01*
X1926Y29510D01*
X1918Y29371D01*
X1914Y29231D01*
X1914Y29091D01*
X1918Y28951D01*
X1926Y28812D01*
X1938Y28673D01*
X1954Y28534D01*
X1974Y28395D01*
X1997Y28258D01*
X2025Y28120D01*
X2056Y27984D01*
X2091Y27849D01*
X2130Y27715D01*
X2173Y27582D01*
X2220Y27450D01*
X2270Y27319D01*
X2324Y27191D01*
X2382Y27063D01*
X2443Y26937D01*
X2508Y26814D01*
X2576Y26691D01*
X2647Y26571D01*
X2722Y26453D01*
X2801Y26338D01*
X2882Y26224D01*
X2967Y26113D01*
X3055Y26004D01*
X3145Y25898D01*
X3239Y25794D01*
X3336Y25693D01*
X3436Y25595D01*
X3538Y25500D01*
X3643Y25408D01*
X3750Y25318D01*
X3860Y25232D01*
X3973Y25149D01*
X4087Y25069D01*
X4204Y24992D01*
X4323Y24919D01*
X4444Y24849D01*
X4567Y24783D01*
X4692Y24720D01*
X4819Y24660D01*
X4947Y24605D01*
X5076Y24553D01*
X5208Y24504D01*
X5340Y24459D01*
X5474Y24418D01*
X5608Y24381D01*
X5744Y24348D01*
X5881Y24319D01*
X6018Y24293D01*
X6156Y24271D01*
X6295Y24254D01*
X6434Y24240D01*
X6574Y24230D01*
X6713Y24224D01*
X6853Y24222D01*
X11791Y24222D01*
X-4204Y16320D02*
X-9143Y16320D01*
X-9283Y16322D01*
X-9422Y16328D01*
X-9562Y16338D01*
X-9701Y16352D01*
X-9840Y16369D01*
X-9978Y16391D01*
X-10115Y16417D01*
X-10252Y16446D01*
X-10388Y16479D01*
X-10522Y16516D01*
X-10656Y16557D01*
X-10788Y16602D01*
X-10920Y16651D01*
X-11049Y16703D01*
X-11177Y16758D01*
X-11304Y16818D01*
X-11429Y16881D01*
X-11552Y16947D01*
X-11673Y17017D01*
X-11792Y17090D01*
X-11909Y17167D01*
X-12023Y17247D01*
X-12136Y17330D01*
X-12246Y17416D01*
X-12353Y17506D01*
X-12458Y17598D01*
X-12560Y17693D01*
X-12660Y17791D01*
X-12757Y17892D01*
X-12851Y17996D01*
X-12941Y18102D01*
X-13029Y18211D01*
X-13114Y18322D01*
X-13195Y18436D01*
X-13274Y18551D01*
X-13349Y18669D01*
X-13420Y18789D01*
X-13488Y18912D01*
X-13553Y19035D01*
X-13614Y19161D01*
X-13672Y19289D01*
X-13726Y19417D01*
X-13776Y19548D01*
X-13823Y19680D01*
X-13866Y19813D01*
X-13905Y19947D01*
X-13940Y20082D01*
X-13971Y20218D01*
X-13999Y20356D01*
X-14022Y20493D01*
X-14042Y20632D01*
X-14058Y20771D01*
X-14070Y20910D01*
X-14078Y21049D01*
X-14082Y21189D01*
X-14082Y21329D01*
X-14078Y21469D01*
X-14070Y21608D01*
X-14058Y21747D01*
X-14042Y21886D01*
X-14022Y22025D01*
X-13999Y22162D01*
X-13971Y22300D01*
X-13940Y22436D01*
X-13905Y22571D01*
X-13866Y22705D01*
X-13823Y22838D01*
X-13776Y22970D01*
X-13726Y23101D01*
X-13672Y23229D01*
X-13614Y23357D01*
X-13553Y23483D01*
X-13488Y23606D01*
X-13420Y23728D01*
X-13349Y23849D01*
X-13274Y23967D01*
X-13195Y24082D01*
X-13114Y24196D01*
X-13029Y24307D01*
X-12941Y24416D01*
X-12851Y24522D01*
X-12757Y24626D01*
X-12660Y24727D01*
X-12560Y24825D01*
X-12458Y24920D01*
X-12353Y25012D01*
X-12246Y25102D01*
X-12136Y25188D01*
X-12023Y25271D01*
X-11909Y25351D01*
X-11792Y25428D01*
X-11673Y25501D01*
X-11552Y25571D01*
X-11429Y25637D01*
X-11304Y25700D01*
X-11177Y25760D01*
X-11049Y25815D01*
X-10920Y25867D01*
X-10788Y25916D01*
X-10656Y25961D01*
X-10522Y26002D01*
X-10388Y26039D01*
X-10252Y26072D01*
X-10115Y26101D01*
X-9978Y26127D01*
X-9840Y26149D01*
X-9701Y26166D01*
X-9562Y26180D01*
X-9422Y26190D01*
X-9283Y26196D01*
X-9143Y26198D01*
X-10130Y34100D02*
X-4204Y34100D01*
X-10130Y34100D02*
X-10254Y34098D01*
X-10378Y34092D01*
X-10502Y34082D01*
X-10625Y34069D01*
X-10748Y34051D01*
X-10870Y34030D01*
X-10992Y34005D01*
X-11113Y33976D01*
X-11232Y33943D01*
X-11351Y33907D01*
X-11468Y33866D01*
X-11584Y33823D01*
X-11699Y33775D01*
X-11812Y33724D01*
X-11924Y33669D01*
X-12033Y33611D01*
X-12141Y33550D01*
X-12247Y33485D01*
X-12351Y33417D01*
X-12452Y33345D01*
X-12552Y33271D01*
X-12648Y33193D01*
X-12743Y33113D01*
X-12835Y33029D01*
X-12924Y32943D01*
X-13010Y32854D01*
X-13094Y32762D01*
X-13174Y32667D01*
X-13252Y32571D01*
X-13326Y32471D01*
X-13398Y32370D01*
X-13466Y32266D01*
X-13531Y32160D01*
X-13592Y32052D01*
X-13650Y31943D01*
X-13705Y31831D01*
X-13756Y31718D01*
X-13804Y31603D01*
X-13847Y31487D01*
X-13888Y31370D01*
X-13924Y31251D01*
X-13957Y31132D01*
X-13986Y31011D01*
X-14011Y30889D01*
X-14032Y30767D01*
X-14050Y30644D01*
X-14063Y30521D01*
X-14073Y30397D01*
X-14079Y30273D01*
X-14081Y30149D01*
X-14079Y30025D01*
X-14073Y29901D01*
X-14063Y29777D01*
X-14050Y29654D01*
X-14032Y29531D01*
X-14011Y29409D01*
X-13986Y29287D01*
X-13957Y29166D01*
X-13924Y29047D01*
X-13888Y28928D01*
X-13847Y28811D01*
X-13804Y28695D01*
X-13756Y28580D01*
X-13705Y28467D01*
X-13650Y28355D01*
X-13592Y28246D01*
X-13531Y28138D01*
X-13466Y28032D01*
X-13398Y27928D01*
X-13326Y27827D01*
X-13252Y27727D01*
X-13174Y27631D01*
X-13094Y27536D01*
X-13010Y27444D01*
X-12924Y27355D01*
X-12835Y27269D01*
X-12743Y27185D01*
X-12648Y27105D01*
X-12552Y27027D01*
X-12452Y26953D01*
X-12351Y26881D01*
X-12247Y26813D01*
X-12141Y26748D01*
X-12033Y26687D01*
X-11924Y26629D01*
X-11812Y26574D01*
X-11699Y26523D01*
X-11584Y26475D01*
X-11468Y26432D01*
X-11351Y26391D01*
X-11232Y26355D01*
X-11113Y26322D01*
X-10992Y26293D01*
X-10870Y26268D01*
X-10748Y26247D01*
X-10625Y26229D01*
X-10502Y26216D01*
X-10378Y26206D01*
X-10254Y26200D01*
X-10130Y26198D01*
X-6179Y26198D01*
X-101207Y97934D02*
X-112635Y84314D01*
X-101207Y97934D02*
X-104990Y101109D01*
X-104990Y101108D02*
X-105099Y101197D01*
X-105209Y101282D01*
X-105323Y101364D01*
X-105438Y101443D01*
X-105556Y101518D01*
X-105675Y101591D01*
X-105797Y101659D01*
X-105921Y101725D01*
X-106046Y101786D01*
X-106173Y101845D01*
X-106302Y101899D01*
X-106432Y101950D01*
X-106564Y101997D01*
X-106696Y102041D01*
X-106831Y102080D01*
X-106966Y102116D01*
X-107102Y102148D01*
X-107239Y102176D01*
X-107376Y102201D01*
X-107515Y102221D01*
X-107653Y102237D01*
X-107793Y102250D01*
X-107932Y102259D01*
X-108072Y102263D01*
X-108212Y102264D01*
X-108351Y102260D01*
X-108491Y102253D01*
X-108630Y102242D01*
X-108769Y102227D01*
X-108908Y102208D01*
X-109046Y102185D01*
X-109183Y102158D01*
X-109319Y102127D01*
X-109455Y102093D01*
X-109589Y102054D01*
X-109722Y102012D01*
X-109854Y101966D01*
X-109985Y101916D01*
X-110114Y101863D01*
X-110242Y101806D01*
X-110368Y101746D01*
X-110492Y101681D01*
X-110614Y101614D01*
X-110735Y101543D01*
X-110853Y101468D01*
X-110969Y101391D01*
X-111083Y101310D01*
X-111195Y101226D01*
X-111304Y101138D01*
X-111411Y101048D01*
X-111515Y100955D01*
X-111616Y100858D01*
X-111715Y100759D01*
X-111810Y100657D01*
X-111903Y100553D01*
X-111993Y100446D01*
X-112080Y100336D01*
X-112163Y100224D01*
X-112244Y100110D01*
X-112321Y99993D01*
X-112395Y99875D01*
X-112465Y99754D01*
X-112532Y99631D01*
X-112596Y99507D01*
X-112656Y99381D01*
X-112712Y99253D01*
X-112765Y99123D01*
X-112814Y98992D01*
X-112859Y98860D01*
X-112901Y98727D01*
X-112939Y98592D01*
X-112973Y98456D01*
X-113003Y98320D01*
X-113029Y98183D01*
X-113051Y98045D01*
X-113070Y97906D01*
X-113084Y97767D01*
X-113095Y97628D01*
X-113101Y97488D01*
X-113104Y97348D01*
X-113103Y97209D01*
X-113097Y97069D01*
X-113088Y96929D01*
X-113075Y96790D01*
X-113058Y96651D01*
X-113037Y96513D01*
X-113012Y96376D01*
X-112983Y96239D01*
X-112950Y96103D01*
X-112914Y95968D01*
X-112874Y95834D01*
X-112830Y95702D01*
X-112782Y95570D01*
X-112730Y95440D01*
X-112675Y95312D01*
X-112616Y95185D01*
X-112554Y95060D01*
X-112488Y94937D01*
X-112419Y94815D01*
X-112346Y94696D01*
X-112270Y94579D01*
X-112191Y94464D01*
X-112108Y94351D01*
X-112022Y94240D01*
X-111933Y94132D01*
X-111842Y94027D01*
X-111747Y93924D01*
X-111649Y93824D01*
X-111549Y93727D01*
X-111446Y93633D01*
X-111340Y93542D01*
X-111339Y93542D02*
X-107556Y90367D01*
X-122349Y97622D02*
X-116486Y110755D01*
X-122349Y97622D02*
X-129915Y103971D01*
X-125106Y105093D02*
X-130185Y99040D01*
X-137487Y114193D02*
X-133677Y118733D01*
X-137487Y114193D02*
X-142992Y113010D01*
X-137487Y114193D02*
X-137695Y108565D01*
X-137487Y114193D02*
X-140378Y119198D01*
X-137487Y114193D02*
X-132055Y112214D01*
X-112066Y188128D02*
X-112066Y205908D01*
X-117005Y205908D01*
X-117145Y205906D01*
X-117284Y205900D01*
X-117424Y205890D01*
X-117563Y205876D01*
X-117702Y205859D01*
X-117840Y205837D01*
X-117977Y205811D01*
X-118114Y205782D01*
X-118250Y205749D01*
X-118384Y205712D01*
X-118518Y205671D01*
X-118650Y205626D01*
X-118782Y205577D01*
X-118911Y205525D01*
X-119039Y205470D01*
X-119166Y205410D01*
X-119291Y205347D01*
X-119414Y205281D01*
X-119535Y205211D01*
X-119654Y205138D01*
X-119771Y205061D01*
X-119885Y204981D01*
X-119998Y204898D01*
X-120108Y204812D01*
X-120215Y204722D01*
X-120320Y204630D01*
X-120422Y204535D01*
X-120522Y204437D01*
X-120619Y204336D01*
X-120713Y204232D01*
X-120803Y204126D01*
X-120891Y204017D01*
X-120976Y203906D01*
X-121057Y203792D01*
X-121136Y203677D01*
X-121211Y203559D01*
X-121282Y203439D01*
X-121350Y203316D01*
X-121415Y203193D01*
X-121476Y203067D01*
X-121534Y202939D01*
X-121588Y202811D01*
X-121638Y202680D01*
X-121685Y202548D01*
X-121728Y202415D01*
X-121767Y202281D01*
X-121802Y202146D01*
X-121833Y202010D01*
X-121861Y201872D01*
X-121884Y201735D01*
X-121904Y201596D01*
X-121920Y201457D01*
X-121932Y201318D01*
X-121940Y201179D01*
X-121944Y201039D01*
X-121944Y200899D01*
X-121940Y200759D01*
X-121932Y200620D01*
X-121920Y200481D01*
X-121904Y200342D01*
X-121884Y200203D01*
X-121861Y200066D01*
X-121833Y199928D01*
X-121802Y199792D01*
X-121767Y199657D01*
X-121728Y199523D01*
X-121685Y199390D01*
X-121638Y199258D01*
X-121588Y199127D01*
X-121534Y198999D01*
X-121476Y198871D01*
X-121415Y198745D01*
X-121350Y198622D01*
X-121282Y198499D01*
X-121211Y198379D01*
X-121136Y198261D01*
X-121057Y198146D01*
X-120976Y198032D01*
X-120891Y197921D01*
X-120803Y197812D01*
X-120713Y197706D01*
X-120619Y197602D01*
X-120522Y197501D01*
X-120422Y197403D01*
X-120320Y197308D01*
X-120215Y197216D01*
X-120108Y197126D01*
X-119998Y197040D01*
X-119885Y196957D01*
X-119771Y196877D01*
X-119654Y196800D01*
X-119535Y196727D01*
X-119414Y196657D01*
X-119291Y196591D01*
X-119166Y196528D01*
X-119039Y196468D01*
X-118911Y196413D01*
X-118782Y196361D01*
X-118650Y196312D01*
X-118518Y196267D01*
X-118384Y196226D01*
X-118250Y196189D01*
X-118114Y196156D01*
X-117977Y196127D01*
X-117840Y196101D01*
X-117702Y196079D01*
X-117563Y196062D01*
X-117424Y196048D01*
X-117284Y196038D01*
X-117145Y196032D01*
X-117005Y196030D01*
X-112066Y196030D01*
X-128061Y188128D02*
X-133988Y188128D01*
X-134112Y188130D01*
X-134236Y188136D01*
X-134360Y188146D01*
X-134483Y188159D01*
X-134606Y188177D01*
X-134728Y188198D01*
X-134850Y188223D01*
X-134971Y188252D01*
X-135090Y188285D01*
X-135209Y188321D01*
X-135326Y188362D01*
X-135442Y188405D01*
X-135557Y188453D01*
X-135670Y188504D01*
X-135782Y188559D01*
X-135891Y188617D01*
X-135999Y188678D01*
X-136105Y188743D01*
X-136209Y188811D01*
X-136310Y188883D01*
X-136410Y188957D01*
X-136506Y189035D01*
X-136601Y189115D01*
X-136693Y189199D01*
X-136782Y189285D01*
X-136868Y189374D01*
X-136952Y189466D01*
X-137032Y189561D01*
X-137110Y189657D01*
X-137184Y189757D01*
X-137256Y189858D01*
X-137324Y189962D01*
X-137389Y190068D01*
X-137450Y190176D01*
X-137508Y190285D01*
X-137563Y190397D01*
X-137614Y190510D01*
X-137662Y190625D01*
X-137705Y190741D01*
X-137746Y190858D01*
X-137782Y190977D01*
X-137815Y191096D01*
X-137844Y191217D01*
X-137869Y191339D01*
X-137890Y191461D01*
X-137908Y191584D01*
X-137921Y191707D01*
X-137931Y191831D01*
X-137937Y191955D01*
X-137939Y192079D01*
X-137939Y194054D01*
X-137937Y194178D01*
X-137931Y194302D01*
X-137921Y194426D01*
X-137908Y194549D01*
X-137890Y194672D01*
X-137869Y194794D01*
X-137844Y194916D01*
X-137815Y195037D01*
X-137782Y195156D01*
X-137746Y195275D01*
X-137705Y195392D01*
X-137662Y195508D01*
X-137614Y195623D01*
X-137563Y195736D01*
X-137508Y195848D01*
X-137450Y195957D01*
X-137389Y196065D01*
X-137324Y196171D01*
X-137256Y196275D01*
X-137184Y196376D01*
X-137110Y196476D01*
X-137032Y196572D01*
X-136952Y196667D01*
X-136868Y196759D01*
X-136782Y196848D01*
X-136693Y196934D01*
X-136601Y197018D01*
X-136506Y197098D01*
X-136410Y197176D01*
X-136310Y197250D01*
X-136209Y197322D01*
X-136105Y197390D01*
X-135999Y197455D01*
X-135891Y197516D01*
X-135782Y197574D01*
X-135670Y197629D01*
X-135557Y197680D01*
X-135442Y197728D01*
X-135326Y197771D01*
X-135209Y197812D01*
X-135090Y197848D01*
X-134971Y197881D01*
X-134850Y197910D01*
X-134728Y197935D01*
X-134606Y197956D01*
X-134483Y197974D01*
X-134360Y197987D01*
X-134236Y197997D01*
X-134112Y198003D01*
X-133988Y198005D01*
X-128061Y198005D01*
X-128061Y205908D01*
X-137939Y205908D01*
X56771Y275384D02*
X56771Y293164D01*
X56771Y285262D02*
X46894Y285262D01*
X46894Y293164D02*
X46894Y275384D01*
X29585Y288719D02*
X29587Y288851D01*
X29593Y288982D01*
X29603Y289114D01*
X29616Y289245D01*
X29634Y289375D01*
X29655Y289505D01*
X29680Y289635D01*
X29709Y289763D01*
X29742Y289891D01*
X29779Y290017D01*
X29819Y290143D01*
X29863Y290267D01*
X29911Y290390D01*
X29962Y290511D01*
X30017Y290631D01*
X30075Y290749D01*
X30137Y290865D01*
X30203Y290979D01*
X30271Y291092D01*
X30343Y291202D01*
X30418Y291310D01*
X30497Y291416D01*
X30578Y291520D01*
X30663Y291621D01*
X30750Y291719D01*
X30841Y291815D01*
X30934Y291908D01*
X31030Y291999D01*
X31128Y292086D01*
X31229Y292171D01*
X31333Y292252D01*
X31439Y292331D01*
X31547Y292406D01*
X31657Y292478D01*
X31770Y292546D01*
X31884Y292612D01*
X32000Y292674D01*
X32118Y292732D01*
X32238Y292787D01*
X32359Y292838D01*
X32482Y292886D01*
X32606Y292930D01*
X32732Y292970D01*
X32858Y293007D01*
X32986Y293040D01*
X33114Y293069D01*
X33244Y293094D01*
X33374Y293115D01*
X33504Y293133D01*
X33635Y293146D01*
X33767Y293156D01*
X33898Y293162D01*
X34030Y293164D01*
X34030Y293165D02*
X34180Y293163D01*
X34329Y293157D01*
X34478Y293147D01*
X34627Y293134D01*
X34776Y293116D01*
X34924Y293095D01*
X35072Y293069D01*
X35218Y293040D01*
X35364Y293007D01*
X35509Y292970D01*
X35653Y292929D01*
X35796Y292885D01*
X35938Y292837D01*
X36078Y292785D01*
X36217Y292730D01*
X36355Y292671D01*
X36490Y292608D01*
X36625Y292542D01*
X36757Y292472D01*
X36887Y292399D01*
X37016Y292322D01*
X37143Y292242D01*
X37267Y292159D01*
X37389Y292073D01*
X37509Y291983D01*
X37626Y291890D01*
X37741Y291795D01*
X37854Y291696D01*
X37964Y291594D01*
X38071Y291490D01*
X38175Y291383D01*
X38277Y291273D01*
X38375Y291160D01*
X38471Y291045D01*
X38563Y290927D01*
X38653Y290807D01*
X38739Y290685D01*
X38822Y290561D01*
X38902Y290434D01*
X38978Y290306D01*
X39051Y290175D01*
X39121Y290042D01*
X39187Y289908D01*
X39249Y289772D01*
X39308Y289635D01*
X39364Y289496D01*
X39415Y289355D01*
X39463Y289214D01*
X31067Y285262D02*
X30971Y285355D01*
X30879Y285451D01*
X30789Y285550D01*
X30702Y285651D01*
X30618Y285754D01*
X30536Y285859D01*
X30458Y285967D01*
X30383Y286077D01*
X30310Y286189D01*
X30241Y286303D01*
X30175Y286419D01*
X30113Y286537D01*
X30054Y286656D01*
X29998Y286777D01*
X29945Y286900D01*
X29896Y287024D01*
X29851Y287149D01*
X29808Y287276D01*
X29770Y287403D01*
X29735Y287532D01*
X29704Y287661D01*
X29676Y287792D01*
X29652Y287923D01*
X29631Y288055D01*
X29615Y288187D01*
X29602Y288320D01*
X29592Y288453D01*
X29587Y288586D01*
X29585Y288719D01*
X31066Y285262D02*
X39463Y275384D01*
X29585Y275384D01*
X22712Y289213D02*
X17773Y293164D01*
X17773Y275384D01*
X22712Y275384D02*
X12834Y275384D01*
X5318Y275384D02*
X5318Y293164D01*
X379Y293164D01*
X239Y293162D01*
X100Y293156D01*
X-40Y293146D01*
X-179Y293132D01*
X-318Y293115D01*
X-456Y293093D01*
X-593Y293067D01*
X-730Y293038D01*
X-866Y293005D01*
X-1000Y292968D01*
X-1134Y292927D01*
X-1266Y292882D01*
X-1398Y292833D01*
X-1527Y292781D01*
X-1655Y292726D01*
X-1782Y292666D01*
X-1907Y292603D01*
X-2030Y292537D01*
X-2151Y292467D01*
X-2270Y292394D01*
X-2387Y292317D01*
X-2501Y292237D01*
X-2614Y292154D01*
X-2724Y292068D01*
X-2831Y291978D01*
X-2936Y291886D01*
X-3038Y291791D01*
X-3138Y291693D01*
X-3235Y291592D01*
X-3329Y291488D01*
X-3419Y291382D01*
X-3507Y291273D01*
X-3592Y291162D01*
X-3673Y291048D01*
X-3752Y290933D01*
X-3827Y290815D01*
X-3898Y290695D01*
X-3966Y290572D01*
X-4031Y290449D01*
X-4092Y290323D01*
X-4150Y290195D01*
X-4204Y290067D01*
X-4254Y289936D01*
X-4301Y289804D01*
X-4344Y289671D01*
X-4383Y289537D01*
X-4418Y289402D01*
X-4449Y289266D01*
X-4477Y289128D01*
X-4500Y288991D01*
X-4520Y288852D01*
X-4536Y288713D01*
X-4548Y288574D01*
X-4556Y288435D01*
X-4560Y288295D01*
X-4560Y288155D01*
X-4556Y288015D01*
X-4548Y287876D01*
X-4536Y287737D01*
X-4520Y287598D01*
X-4500Y287459D01*
X-4477Y287322D01*
X-4449Y287184D01*
X-4418Y287048D01*
X-4383Y286913D01*
X-4344Y286779D01*
X-4301Y286646D01*
X-4254Y286514D01*
X-4204Y286383D01*
X-4150Y286255D01*
X-4092Y286127D01*
X-4031Y286001D01*
X-3966Y285878D01*
X-3898Y285756D01*
X-3827Y285635D01*
X-3752Y285517D01*
X-3673Y285402D01*
X-3592Y285288D01*
X-3507Y285177D01*
X-3419Y285068D01*
X-3329Y284962D01*
X-3235Y284858D01*
X-3138Y284757D01*
X-3038Y284659D01*
X-2936Y284564D01*
X-2831Y284472D01*
X-2724Y284382D01*
X-2614Y284296D01*
X-2501Y284213D01*
X-2387Y284133D01*
X-2270Y284056D01*
X-2151Y283983D01*
X-2030Y283913D01*
X-1907Y283847D01*
X-1782Y283784D01*
X-1655Y283724D01*
X-1527Y283669D01*
X-1398Y283617D01*
X-1266Y283568D01*
X-1134Y283523D01*
X-1000Y283482D01*
X-866Y283445D01*
X-730Y283412D01*
X-593Y283383D01*
X-456Y283357D01*
X-318Y283335D01*
X-179Y283318D01*
X-40Y283304D01*
X100Y283294D01*
X239Y283288D01*
X379Y283286D01*
X5318Y283286D01*
X-609Y283286D02*
X-4560Y275384D01*
X-21225Y288719D02*
X-21223Y288851D01*
X-21217Y288982D01*
X-21207Y289114D01*
X-21194Y289245D01*
X-21176Y289375D01*
X-21155Y289505D01*
X-21130Y289635D01*
X-21101Y289763D01*
X-21068Y289891D01*
X-21031Y290017D01*
X-20991Y290143D01*
X-20947Y290267D01*
X-20899Y290390D01*
X-20848Y290511D01*
X-20793Y290631D01*
X-20735Y290749D01*
X-20673Y290865D01*
X-20607Y290979D01*
X-20539Y291092D01*
X-20467Y291202D01*
X-20392Y291310D01*
X-20313Y291416D01*
X-20232Y291520D01*
X-20147Y291621D01*
X-20060Y291719D01*
X-19969Y291815D01*
X-19876Y291908D01*
X-19780Y291999D01*
X-19682Y292086D01*
X-19581Y292171D01*
X-19477Y292252D01*
X-19371Y292331D01*
X-19263Y292406D01*
X-19153Y292478D01*
X-19040Y292546D01*
X-18926Y292612D01*
X-18810Y292674D01*
X-18692Y292732D01*
X-18572Y292787D01*
X-18451Y292838D01*
X-18328Y292886D01*
X-18204Y292930D01*
X-18078Y292970D01*
X-17952Y293007D01*
X-17824Y293040D01*
X-17696Y293069D01*
X-17566Y293094D01*
X-17436Y293115D01*
X-17306Y293133D01*
X-17175Y293146D01*
X-17043Y293156D01*
X-16912Y293162D01*
X-16780Y293164D01*
X-16780Y293165D02*
X-16630Y293163D01*
X-16481Y293157D01*
X-16332Y293147D01*
X-16183Y293134D01*
X-16034Y293116D01*
X-15886Y293095D01*
X-15738Y293069D01*
X-15592Y293040D01*
X-15446Y293007D01*
X-15301Y292970D01*
X-15157Y292929D01*
X-15014Y292885D01*
X-14872Y292837D01*
X-14732Y292785D01*
X-14593Y292730D01*
X-14455Y292671D01*
X-14320Y292608D01*
X-14185Y292542D01*
X-14053Y292472D01*
X-13923Y292399D01*
X-13794Y292322D01*
X-13667Y292242D01*
X-13543Y292159D01*
X-13421Y292073D01*
X-13301Y291983D01*
X-13184Y291890D01*
X-13069Y291795D01*
X-12956Y291696D01*
X-12846Y291594D01*
X-12739Y291490D01*
X-12635Y291383D01*
X-12533Y291273D01*
X-12435Y291160D01*
X-12339Y291045D01*
X-12247Y290927D01*
X-12157Y290807D01*
X-12071Y290685D01*
X-11988Y290561D01*
X-11908Y290434D01*
X-11832Y290306D01*
X-11759Y290175D01*
X-11689Y290042D01*
X-11623Y289908D01*
X-11561Y289772D01*
X-11502Y289635D01*
X-11446Y289496D01*
X-11395Y289355D01*
X-11347Y289214D01*
X-19743Y285262D02*
X-19839Y285355D01*
X-19931Y285451D01*
X-20021Y285550D01*
X-20108Y285651D01*
X-20193Y285754D01*
X-20274Y285859D01*
X-20352Y285967D01*
X-20427Y286077D01*
X-20500Y286189D01*
X-20569Y286303D01*
X-20635Y286419D01*
X-20697Y286537D01*
X-20756Y286656D01*
X-20812Y286777D01*
X-20865Y286900D01*
X-20914Y287024D01*
X-20959Y287149D01*
X-21002Y287276D01*
X-21040Y287403D01*
X-21075Y287532D01*
X-21106Y287661D01*
X-21134Y287792D01*
X-21158Y287923D01*
X-21179Y288055D01*
X-21195Y288187D01*
X-21208Y288320D01*
X-21218Y288453D01*
X-21223Y288586D01*
X-21225Y288719D01*
X-19743Y285262D02*
X-11347Y275384D01*
X-21225Y275384D01*
X-28098Y284274D02*
X-28102Y284624D01*
X-28115Y284973D01*
X-28136Y285322D01*
X-28165Y285671D01*
X-28202Y286019D01*
X-28248Y286366D01*
X-28302Y286711D01*
X-28364Y287055D01*
X-28435Y287398D01*
X-28514Y287739D01*
X-28600Y288078D01*
X-28695Y288414D01*
X-28798Y288749D01*
X-28909Y289080D01*
X-29027Y289410D01*
X-29154Y289736D01*
X-29288Y290059D01*
X-29430Y290378D01*
X-29580Y290695D01*
X-29579Y290694D02*
X-29619Y290807D01*
X-29663Y290917D01*
X-29711Y291027D01*
X-29762Y291135D01*
X-29817Y291240D01*
X-29875Y291345D01*
X-29937Y291447D01*
X-30002Y291547D01*
X-30070Y291645D01*
X-30141Y291741D01*
X-30216Y291834D01*
X-30293Y291925D01*
X-30373Y292013D01*
X-30457Y292098D01*
X-30542Y292181D01*
X-30631Y292261D01*
X-30722Y292338D01*
X-30816Y292412D01*
X-30912Y292483D01*
X-31010Y292551D01*
X-31110Y292615D01*
X-31213Y292677D01*
X-31317Y292734D01*
X-31423Y292789D01*
X-31531Y292840D01*
X-31641Y292887D01*
X-31752Y292931D01*
X-31864Y292971D01*
X-31978Y293007D01*
X-32092Y293040D01*
X-32208Y293069D01*
X-32325Y293094D01*
X-32442Y293115D01*
X-32560Y293133D01*
X-32679Y293146D01*
X-32798Y293156D01*
X-32917Y293162D01*
X-33036Y293164D01*
X-33036Y293165D02*
X-33155Y293163D01*
X-33274Y293157D01*
X-33393Y293147D01*
X-33512Y293134D01*
X-33630Y293116D01*
X-33747Y293095D01*
X-33864Y293070D01*
X-33980Y293041D01*
X-34094Y293008D01*
X-34208Y292972D01*
X-34320Y292932D01*
X-34431Y292888D01*
X-34541Y292841D01*
X-34649Y292790D01*
X-34755Y292735D01*
X-34859Y292678D01*
X-34962Y292616D01*
X-35062Y292552D01*
X-35160Y292484D01*
X-35256Y292413D01*
X-35350Y292339D01*
X-35441Y292262D01*
X-35530Y292182D01*
X-35616Y292099D01*
X-35699Y292014D01*
X-35779Y291926D01*
X-35856Y291835D01*
X-35931Y291742D01*
X-36002Y291646D01*
X-36070Y291548D01*
X-36135Y291448D01*
X-36197Y291346D01*
X-36255Y291241D01*
X-36310Y291135D01*
X-36361Y291028D01*
X-36409Y290918D01*
X-36453Y290808D01*
X-36493Y290695D01*
X-36643Y290378D01*
X-36785Y290059D01*
X-36919Y289736D01*
X-37046Y289410D01*
X-37164Y289080D01*
X-37275Y288749D01*
X-37378Y288414D01*
X-37473Y288078D01*
X-37559Y287739D01*
X-37638Y287398D01*
X-37709Y287055D01*
X-37771Y286711D01*
X-37825Y286366D01*
X-37871Y286019D01*
X-37908Y285671D01*
X-37937Y285322D01*
X-37958Y284973D01*
X-37971Y284624D01*
X-37975Y284274D01*
X-28098Y284274D02*
X-28102Y283924D01*
X-28115Y283575D01*
X-28136Y283226D01*
X-28165Y282877D01*
X-28202Y282529D01*
X-28248Y282182D01*
X-28302Y281837D01*
X-28364Y281493D01*
X-28435Y281150D01*
X-28514Y280809D01*
X-28600Y280470D01*
X-28695Y280134D01*
X-28798Y279799D01*
X-28909Y279468D01*
X-29027Y279139D01*
X-29154Y278812D01*
X-29288Y278489D01*
X-29430Y278170D01*
X-29580Y277854D01*
X-29579Y277854D02*
X-29619Y277741D01*
X-29663Y277631D01*
X-29711Y277521D01*
X-29762Y277413D01*
X-29817Y277307D01*
X-29875Y277203D01*
X-29937Y277101D01*
X-30002Y277001D01*
X-30070Y276903D01*
X-30141Y276807D01*
X-30216Y276714D01*
X-30293Y276623D01*
X-30373Y276535D01*
X-30457Y276450D01*
X-30542Y276367D01*
X-30631Y276287D01*
X-30722Y276210D01*
X-30816Y276136D01*
X-30912Y276065D01*
X-31010Y275997D01*
X-31110Y275933D01*
X-31213Y275871D01*
X-31317Y275813D01*
X-31423Y275759D01*
X-31531Y275708D01*
X-31641Y275661D01*
X-31752Y275617D01*
X-31864Y275577D01*
X-31978Y275541D01*
X-32092Y275508D01*
X-32208Y275479D01*
X-32325Y275454D01*
X-32442Y275433D01*
X-32560Y275415D01*
X-32679Y275402D01*
X-32798Y275392D01*
X-32917Y275386D01*
X-33036Y275384D01*
X-36493Y277854D02*
X-36643Y278170D01*
X-36785Y278489D01*
X-36919Y278812D01*
X-37046Y279139D01*
X-37164Y279468D01*
X-37275Y279799D01*
X-37378Y280134D01*
X-37473Y280470D01*
X-37559Y280809D01*
X-37638Y281150D01*
X-37709Y281493D01*
X-37771Y281837D01*
X-37825Y282182D01*
X-37871Y282529D01*
X-37908Y282877D01*
X-37937Y283226D01*
X-37958Y283575D01*
X-37971Y283924D01*
X-37975Y284274D01*
X-36493Y277854D02*
X-36453Y277741D01*
X-36409Y277631D01*
X-36361Y277521D01*
X-36310Y277414D01*
X-36255Y277308D01*
X-36197Y277203D01*
X-36135Y277101D01*
X-36070Y277001D01*
X-36002Y276903D01*
X-35931Y276807D01*
X-35856Y276714D01*
X-35779Y276623D01*
X-35699Y276535D01*
X-35616Y276450D01*
X-35530Y276367D01*
X-35441Y276287D01*
X-35350Y276210D01*
X-35256Y276136D01*
X-35160Y276065D01*
X-35062Y275997D01*
X-34962Y275933D01*
X-34859Y275871D01*
X-34755Y275814D01*
X-34649Y275759D01*
X-34541Y275708D01*
X-34431Y275661D01*
X-34320Y275617D01*
X-34208Y275577D01*
X-34094Y275541D01*
X-33980Y275508D01*
X-33864Y275479D01*
X-33747Y275454D01*
X-33630Y275433D01*
X-33512Y275415D01*
X-33393Y275402D01*
X-33274Y275392D01*
X-33155Y275386D01*
X-33036Y275384D01*
X-29085Y279335D02*
X-36988Y289213D01*
D12*
X88420Y98806D02*
X90057Y98806D01*
X90135Y98808D01*
X90213Y98813D01*
X90290Y98823D01*
X90367Y98836D01*
X90443Y98852D01*
X90518Y98872D01*
X90592Y98896D01*
X90665Y98923D01*
X90737Y98954D01*
X90807Y98988D01*
X90876Y99025D01*
X90942Y99066D01*
X91007Y99110D01*
X91069Y99156D01*
X91129Y99206D01*
X91187Y99258D01*
X91242Y99313D01*
X91294Y99371D01*
X91344Y99431D01*
X91390Y99493D01*
X91434Y99558D01*
X91475Y99625D01*
X91512Y99693D01*
X91546Y99763D01*
X91577Y99835D01*
X91604Y99908D01*
X91628Y99982D01*
X91648Y100057D01*
X91664Y100133D01*
X91677Y100210D01*
X91687Y100287D01*
X91692Y100365D01*
X91694Y100443D01*
X91694Y104535D01*
X91692Y104613D01*
X91687Y104691D01*
X91677Y104768D01*
X91664Y104845D01*
X91648Y104921D01*
X91628Y104996D01*
X91604Y105070D01*
X91577Y105143D01*
X91546Y105215D01*
X91512Y105285D01*
X91475Y105354D01*
X91434Y105420D01*
X91390Y105485D01*
X91344Y105547D01*
X91294Y105607D01*
X91242Y105665D01*
X91187Y105720D01*
X91129Y105772D01*
X91069Y105822D01*
X91007Y105868D01*
X90942Y105912D01*
X90876Y105953D01*
X90807Y105990D01*
X90737Y106024D01*
X90665Y106055D01*
X90592Y106082D01*
X90518Y106106D01*
X90443Y106126D01*
X90367Y106142D01*
X90290Y106155D01*
X90213Y106165D01*
X90135Y106170D01*
X90057Y106172D01*
X88420Y106172D01*
X85575Y104535D02*
X83529Y106172D01*
X83529Y98806D01*
X85575Y98806D02*
X81483Y98806D01*
D11*
X38583Y113868D02*
X38583Y133998D01*
D12*
X85106Y125603D02*
X86743Y125603D01*
X86821Y125605D01*
X86899Y125610D01*
X86976Y125620D01*
X87053Y125633D01*
X87129Y125649D01*
X87204Y125669D01*
X87278Y125693D01*
X87351Y125720D01*
X87423Y125751D01*
X87493Y125785D01*
X87562Y125822D01*
X87628Y125863D01*
X87693Y125907D01*
X87755Y125953D01*
X87815Y126003D01*
X87873Y126055D01*
X87928Y126110D01*
X87980Y126168D01*
X88030Y126228D01*
X88076Y126290D01*
X88120Y126355D01*
X88161Y126422D01*
X88198Y126490D01*
X88232Y126560D01*
X88263Y126632D01*
X88290Y126705D01*
X88314Y126779D01*
X88334Y126854D01*
X88350Y126930D01*
X88363Y127007D01*
X88373Y127084D01*
X88378Y127162D01*
X88380Y127240D01*
X88380Y131332D01*
X88378Y131410D01*
X88373Y131488D01*
X88363Y131565D01*
X88350Y131642D01*
X88334Y131718D01*
X88314Y131793D01*
X88290Y131867D01*
X88263Y131940D01*
X88232Y132012D01*
X88198Y132082D01*
X88161Y132151D01*
X88120Y132217D01*
X88076Y132282D01*
X88030Y132344D01*
X87980Y132404D01*
X87928Y132462D01*
X87873Y132517D01*
X87815Y132569D01*
X87755Y132619D01*
X87693Y132665D01*
X87628Y132709D01*
X87562Y132750D01*
X87493Y132787D01*
X87423Y132821D01*
X87351Y132852D01*
X87278Y132879D01*
X87204Y132903D01*
X87129Y132923D01*
X87053Y132939D01*
X86976Y132952D01*
X86899Y132962D01*
X86821Y132967D01*
X86743Y132969D01*
X85106Y132969D01*
X82261Y125603D02*
X80215Y125603D01*
X80126Y125605D01*
X80037Y125611D01*
X79948Y125621D01*
X79860Y125634D01*
X79772Y125651D01*
X79685Y125673D01*
X79600Y125698D01*
X79515Y125726D01*
X79432Y125759D01*
X79350Y125795D01*
X79270Y125834D01*
X79192Y125877D01*
X79116Y125923D01*
X79041Y125973D01*
X78969Y126026D01*
X78900Y126082D01*
X78833Y126141D01*
X78768Y126202D01*
X78707Y126267D01*
X78648Y126334D01*
X78592Y126403D01*
X78539Y126475D01*
X78489Y126550D01*
X78443Y126626D01*
X78400Y126704D01*
X78361Y126784D01*
X78325Y126866D01*
X78292Y126949D01*
X78264Y127034D01*
X78239Y127119D01*
X78217Y127206D01*
X78200Y127294D01*
X78187Y127382D01*
X78177Y127471D01*
X78171Y127560D01*
X78169Y127649D01*
X78171Y127738D01*
X78177Y127827D01*
X78187Y127916D01*
X78200Y128004D01*
X78217Y128092D01*
X78239Y128179D01*
X78264Y128264D01*
X78292Y128349D01*
X78325Y128432D01*
X78361Y128514D01*
X78400Y128594D01*
X78443Y128672D01*
X78489Y128748D01*
X78539Y128823D01*
X78592Y128895D01*
X78648Y128964D01*
X78707Y129031D01*
X78768Y129096D01*
X78833Y129157D01*
X78900Y129216D01*
X78969Y129272D01*
X79041Y129325D01*
X79116Y129375D01*
X79192Y129421D01*
X79270Y129464D01*
X79350Y129503D01*
X79432Y129539D01*
X79515Y129572D01*
X79600Y129600D01*
X79685Y129625D01*
X79772Y129647D01*
X79860Y129664D01*
X79948Y129677D01*
X80037Y129687D01*
X80126Y129693D01*
X80215Y129695D01*
X79805Y132969D02*
X82261Y132969D01*
X79805Y132969D02*
X79726Y132967D01*
X79647Y132961D01*
X79568Y132952D01*
X79490Y132939D01*
X79413Y132921D01*
X79337Y132901D01*
X79262Y132876D01*
X79188Y132848D01*
X79115Y132817D01*
X79044Y132781D01*
X78975Y132743D01*
X78908Y132701D01*
X78843Y132656D01*
X78780Y132608D01*
X78719Y132557D01*
X78662Y132503D01*
X78606Y132447D01*
X78554Y132388D01*
X78504Y132326D01*
X78458Y132262D01*
X78414Y132196D01*
X78374Y132128D01*
X78338Y132058D01*
X78304Y131986D01*
X78274Y131912D01*
X78248Y131838D01*
X78225Y131762D01*
X78207Y131685D01*
X78191Y131608D01*
X78180Y131529D01*
X78172Y131451D01*
X78168Y131372D01*
X78168Y131292D01*
X78172Y131213D01*
X78180Y131135D01*
X78191Y131056D01*
X78207Y130979D01*
X78225Y130902D01*
X78248Y130826D01*
X78274Y130752D01*
X78304Y130678D01*
X78338Y130606D01*
X78374Y130536D01*
X78414Y130468D01*
X78458Y130402D01*
X78504Y130338D01*
X78554Y130276D01*
X78606Y130217D01*
X78662Y130161D01*
X78719Y130107D01*
X78780Y130056D01*
X78843Y130008D01*
X78908Y129963D01*
X78975Y129921D01*
X79044Y129883D01*
X79115Y129847D01*
X79188Y129816D01*
X79262Y129788D01*
X79337Y129763D01*
X79413Y129743D01*
X79490Y129725D01*
X79568Y129712D01*
X79647Y129703D01*
X79726Y129697D01*
X79805Y129695D01*
X81442Y129695D01*
X-54938Y39307D02*
X-54938Y31941D01*
X-54938Y39307D02*
X-56984Y39307D01*
X-56984Y39306D02*
X-57073Y39304D01*
X-57162Y39298D01*
X-57251Y39288D01*
X-57339Y39275D01*
X-57427Y39258D01*
X-57514Y39236D01*
X-57599Y39211D01*
X-57684Y39183D01*
X-57767Y39150D01*
X-57849Y39114D01*
X-57929Y39075D01*
X-58007Y39032D01*
X-58083Y38986D01*
X-58158Y38936D01*
X-58230Y38883D01*
X-58299Y38827D01*
X-58366Y38768D01*
X-58431Y38707D01*
X-58492Y38642D01*
X-58551Y38575D01*
X-58607Y38506D01*
X-58660Y38434D01*
X-58710Y38359D01*
X-58756Y38283D01*
X-58799Y38205D01*
X-58838Y38125D01*
X-58874Y38043D01*
X-58907Y37960D01*
X-58935Y37875D01*
X-58960Y37790D01*
X-58982Y37703D01*
X-58999Y37615D01*
X-59012Y37527D01*
X-59022Y37438D01*
X-59028Y37349D01*
X-59030Y37260D01*
X-59028Y37171D01*
X-59022Y37082D01*
X-59012Y36993D01*
X-58999Y36905D01*
X-58982Y36817D01*
X-58960Y36730D01*
X-58935Y36645D01*
X-58907Y36560D01*
X-58874Y36477D01*
X-58838Y36395D01*
X-58799Y36315D01*
X-58756Y36237D01*
X-58710Y36161D01*
X-58660Y36086D01*
X-58607Y36014D01*
X-58551Y35945D01*
X-58492Y35878D01*
X-58431Y35813D01*
X-58366Y35752D01*
X-58299Y35693D01*
X-58230Y35637D01*
X-58158Y35584D01*
X-58083Y35534D01*
X-58007Y35488D01*
X-57929Y35445D01*
X-57849Y35406D01*
X-57767Y35370D01*
X-57684Y35337D01*
X-57599Y35309D01*
X-57514Y35284D01*
X-57427Y35262D01*
X-57339Y35245D01*
X-57251Y35232D01*
X-57162Y35222D01*
X-57073Y35216D01*
X-56984Y35214D01*
X-54938Y35214D01*
X-57393Y35214D02*
X-59030Y31941D01*
X-62202Y37670D02*
X-64248Y39307D01*
X-64248Y31941D01*
X-62202Y31941D02*
X-66294Y31941D01*
D13*
X50165Y56833D02*
X50165Y92393D01*
X50165Y56833D02*
X70485Y56833D01*
X70485Y92393D01*
X50165Y92393D01*
D12*
X74803Y71305D02*
X82169Y76216D01*
X82169Y71305D02*
X74803Y76216D01*
X80532Y79029D02*
X82169Y81075D01*
X74803Y81075D01*
X74803Y79029D02*
X74803Y83122D01*
X91456Y203391D02*
X93093Y203391D01*
X93093Y203390D02*
X93171Y203392D01*
X93249Y203397D01*
X93326Y203407D01*
X93403Y203420D01*
X93479Y203436D01*
X93554Y203456D01*
X93628Y203480D01*
X93701Y203507D01*
X93773Y203538D01*
X93843Y203572D01*
X93912Y203609D01*
X93978Y203650D01*
X94043Y203694D01*
X94105Y203740D01*
X94165Y203790D01*
X94223Y203842D01*
X94278Y203897D01*
X94330Y203955D01*
X94380Y204015D01*
X94426Y204077D01*
X94470Y204142D01*
X94511Y204209D01*
X94548Y204277D01*
X94582Y204347D01*
X94613Y204419D01*
X94640Y204492D01*
X94664Y204566D01*
X94684Y204641D01*
X94700Y204717D01*
X94713Y204794D01*
X94723Y204871D01*
X94728Y204949D01*
X94730Y205027D01*
X94730Y209120D01*
X94728Y209198D01*
X94723Y209276D01*
X94713Y209353D01*
X94700Y209430D01*
X94684Y209506D01*
X94664Y209581D01*
X94640Y209655D01*
X94613Y209728D01*
X94582Y209800D01*
X94548Y209870D01*
X94511Y209939D01*
X94470Y210005D01*
X94426Y210070D01*
X94380Y210132D01*
X94330Y210192D01*
X94278Y210250D01*
X94223Y210305D01*
X94165Y210357D01*
X94105Y210407D01*
X94043Y210453D01*
X93978Y210497D01*
X93912Y210538D01*
X93843Y210575D01*
X93773Y210609D01*
X93701Y210640D01*
X93628Y210667D01*
X93554Y210691D01*
X93479Y210711D01*
X93403Y210727D01*
X93326Y210740D01*
X93249Y210750D01*
X93171Y210755D01*
X93093Y210757D01*
X91456Y210757D01*
X86974Y210757D02*
X88611Y205027D01*
X84519Y205027D01*
X85746Y206664D02*
X85746Y203391D01*
X88420Y111506D02*
X90057Y111506D01*
X90135Y111508D01*
X90213Y111513D01*
X90290Y111523D01*
X90367Y111536D01*
X90443Y111552D01*
X90518Y111572D01*
X90592Y111596D01*
X90665Y111623D01*
X90737Y111654D01*
X90807Y111688D01*
X90876Y111725D01*
X90942Y111766D01*
X91007Y111810D01*
X91069Y111856D01*
X91129Y111906D01*
X91187Y111958D01*
X91242Y112013D01*
X91294Y112071D01*
X91344Y112131D01*
X91390Y112193D01*
X91434Y112258D01*
X91475Y112325D01*
X91512Y112393D01*
X91546Y112463D01*
X91577Y112535D01*
X91604Y112608D01*
X91628Y112682D01*
X91648Y112757D01*
X91664Y112833D01*
X91677Y112910D01*
X91687Y112987D01*
X91692Y113065D01*
X91694Y113143D01*
X91694Y117235D01*
X91692Y117313D01*
X91687Y117391D01*
X91677Y117468D01*
X91664Y117545D01*
X91648Y117621D01*
X91628Y117696D01*
X91604Y117770D01*
X91577Y117843D01*
X91546Y117915D01*
X91512Y117985D01*
X91475Y118054D01*
X91434Y118120D01*
X91390Y118185D01*
X91344Y118247D01*
X91294Y118307D01*
X91242Y118365D01*
X91187Y118420D01*
X91129Y118472D01*
X91069Y118522D01*
X91007Y118568D01*
X90942Y118612D01*
X90876Y118653D01*
X90807Y118690D01*
X90737Y118724D01*
X90665Y118755D01*
X90592Y118782D01*
X90518Y118806D01*
X90443Y118826D01*
X90367Y118842D01*
X90290Y118855D01*
X90213Y118865D01*
X90135Y118870D01*
X90057Y118872D01*
X88420Y118872D01*
X85575Y111506D02*
X83120Y111506D01*
X83040Y111508D01*
X82960Y111514D01*
X82880Y111524D01*
X82801Y111537D01*
X82722Y111555D01*
X82645Y111576D01*
X82569Y111602D01*
X82494Y111631D01*
X82420Y111663D01*
X82348Y111699D01*
X82278Y111739D01*
X82211Y111782D01*
X82145Y111828D01*
X82082Y111878D01*
X82021Y111930D01*
X81962Y111985D01*
X81907Y112044D01*
X81855Y112104D01*
X81805Y112168D01*
X81759Y112233D01*
X81716Y112301D01*
X81676Y112371D01*
X81640Y112443D01*
X81608Y112517D01*
X81579Y112591D01*
X81554Y112668D01*
X81532Y112745D01*
X81514Y112824D01*
X81501Y112903D01*
X81491Y112982D01*
X81485Y113063D01*
X81483Y113143D01*
X81483Y113961D01*
X81485Y114039D01*
X81490Y114117D01*
X81500Y114194D01*
X81513Y114271D01*
X81529Y114347D01*
X81549Y114422D01*
X81573Y114496D01*
X81600Y114569D01*
X81631Y114641D01*
X81665Y114711D01*
X81702Y114780D01*
X81743Y114846D01*
X81787Y114911D01*
X81833Y114973D01*
X81883Y115033D01*
X81935Y115091D01*
X81990Y115146D01*
X82048Y115198D01*
X82108Y115248D01*
X82170Y115294D01*
X82235Y115338D01*
X82302Y115379D01*
X82370Y115416D01*
X82440Y115450D01*
X82512Y115481D01*
X82585Y115508D01*
X82659Y115532D01*
X82734Y115552D01*
X82810Y115568D01*
X82887Y115581D01*
X82964Y115591D01*
X83042Y115596D01*
X83120Y115598D01*
X85575Y115598D01*
X85575Y118872D01*
X81483Y118872D01*
X-90107Y76680D02*
X-90107Y75043D01*
X-90105Y74965D01*
X-90100Y74887D01*
X-90090Y74810D01*
X-90077Y74733D01*
X-90061Y74657D01*
X-90041Y74582D01*
X-90017Y74508D01*
X-89990Y74435D01*
X-89959Y74363D01*
X-89925Y74293D01*
X-89888Y74225D01*
X-89847Y74158D01*
X-89803Y74093D01*
X-89757Y74031D01*
X-89707Y73971D01*
X-89655Y73913D01*
X-89600Y73858D01*
X-89542Y73806D01*
X-89482Y73756D01*
X-89420Y73710D01*
X-89355Y73666D01*
X-89289Y73625D01*
X-89220Y73588D01*
X-89150Y73554D01*
X-89078Y73523D01*
X-89005Y73496D01*
X-88931Y73472D01*
X-88856Y73452D01*
X-88780Y73436D01*
X-88703Y73423D01*
X-88626Y73413D01*
X-88548Y73408D01*
X-88470Y73406D01*
X-84377Y73406D01*
X-84297Y73408D01*
X-84217Y73414D01*
X-84137Y73424D01*
X-84058Y73437D01*
X-83979Y73455D01*
X-83902Y73476D01*
X-83826Y73502D01*
X-83751Y73531D01*
X-83677Y73563D01*
X-83605Y73599D01*
X-83535Y73639D01*
X-83468Y73682D01*
X-83402Y73728D01*
X-83339Y73778D01*
X-83278Y73830D01*
X-83219Y73885D01*
X-83164Y73944D01*
X-83112Y74004D01*
X-83062Y74068D01*
X-83016Y74133D01*
X-82973Y74201D01*
X-82933Y74271D01*
X-82897Y74343D01*
X-82865Y74417D01*
X-82836Y74491D01*
X-82811Y74568D01*
X-82789Y74645D01*
X-82771Y74724D01*
X-82758Y74803D01*
X-82748Y74882D01*
X-82742Y74963D01*
X-82740Y75043D01*
X-82741Y75043D02*
X-82741Y76680D01*
X-82741Y79525D02*
X-83559Y79525D01*
X-82741Y79525D02*
X-82741Y83617D01*
X-90107Y81571D01*
D11*
X-81394Y99530D02*
X-61265Y99530D01*
D12*
X-101219Y76680D02*
X-101219Y75043D01*
X-101217Y74965D01*
X-101212Y74887D01*
X-101202Y74810D01*
X-101189Y74733D01*
X-101173Y74657D01*
X-101153Y74582D01*
X-101129Y74508D01*
X-101102Y74435D01*
X-101071Y74363D01*
X-101037Y74293D01*
X-101000Y74225D01*
X-100959Y74158D01*
X-100915Y74093D01*
X-100869Y74031D01*
X-100819Y73971D01*
X-100767Y73913D01*
X-100712Y73858D01*
X-100654Y73806D01*
X-100594Y73756D01*
X-100532Y73710D01*
X-100467Y73666D01*
X-100401Y73625D01*
X-100332Y73588D01*
X-100262Y73554D01*
X-100190Y73523D01*
X-100117Y73496D01*
X-100043Y73472D01*
X-99968Y73452D01*
X-99892Y73436D01*
X-99815Y73423D01*
X-99738Y73413D01*
X-99660Y73408D01*
X-99582Y73406D01*
X-95490Y73406D01*
X-95410Y73408D01*
X-95330Y73414D01*
X-95250Y73424D01*
X-95171Y73437D01*
X-95092Y73455D01*
X-95015Y73476D01*
X-94939Y73502D01*
X-94864Y73531D01*
X-94790Y73563D01*
X-94718Y73599D01*
X-94648Y73639D01*
X-94581Y73682D01*
X-94515Y73728D01*
X-94452Y73778D01*
X-94391Y73830D01*
X-94332Y73885D01*
X-94277Y73944D01*
X-94225Y74004D01*
X-94175Y74068D01*
X-94129Y74133D01*
X-94086Y74201D01*
X-94046Y74271D01*
X-94010Y74343D01*
X-93978Y74417D01*
X-93949Y74491D01*
X-93924Y74568D01*
X-93902Y74645D01*
X-93884Y74724D01*
X-93871Y74803D01*
X-93861Y74882D01*
X-93855Y74963D01*
X-93853Y75043D01*
X-93853Y76680D01*
X-99173Y79525D02*
X-99084Y79527D01*
X-98995Y79533D01*
X-98906Y79543D01*
X-98818Y79556D01*
X-98730Y79573D01*
X-98643Y79595D01*
X-98558Y79620D01*
X-98473Y79648D01*
X-98390Y79681D01*
X-98308Y79717D01*
X-98228Y79756D01*
X-98150Y79799D01*
X-98074Y79845D01*
X-97999Y79895D01*
X-97927Y79948D01*
X-97858Y80004D01*
X-97791Y80063D01*
X-97726Y80124D01*
X-97665Y80189D01*
X-97606Y80256D01*
X-97550Y80325D01*
X-97497Y80397D01*
X-97447Y80472D01*
X-97401Y80548D01*
X-97358Y80626D01*
X-97319Y80706D01*
X-97283Y80788D01*
X-97250Y80871D01*
X-97222Y80956D01*
X-97197Y81041D01*
X-97175Y81128D01*
X-97158Y81216D01*
X-97145Y81304D01*
X-97135Y81393D01*
X-97129Y81482D01*
X-97127Y81571D01*
X-97129Y81660D01*
X-97135Y81749D01*
X-97145Y81838D01*
X-97158Y81926D01*
X-97175Y82014D01*
X-97197Y82101D01*
X-97222Y82186D01*
X-97250Y82271D01*
X-97283Y82354D01*
X-97319Y82436D01*
X-97358Y82516D01*
X-97401Y82594D01*
X-97447Y82670D01*
X-97497Y82745D01*
X-97550Y82817D01*
X-97606Y82886D01*
X-97665Y82953D01*
X-97726Y83018D01*
X-97791Y83079D01*
X-97858Y83138D01*
X-97927Y83194D01*
X-97999Y83247D01*
X-98074Y83297D01*
X-98150Y83343D01*
X-98228Y83386D01*
X-98308Y83425D01*
X-98390Y83461D01*
X-98473Y83494D01*
X-98558Y83522D01*
X-98643Y83547D01*
X-98730Y83569D01*
X-98818Y83586D01*
X-98906Y83599D01*
X-98995Y83609D01*
X-99084Y83615D01*
X-99173Y83617D01*
X-99262Y83615D01*
X-99351Y83609D01*
X-99440Y83599D01*
X-99528Y83586D01*
X-99616Y83569D01*
X-99703Y83547D01*
X-99788Y83522D01*
X-99873Y83494D01*
X-99956Y83461D01*
X-100038Y83425D01*
X-100118Y83386D01*
X-100196Y83343D01*
X-100272Y83297D01*
X-100347Y83247D01*
X-100419Y83194D01*
X-100488Y83138D01*
X-100555Y83079D01*
X-100620Y83018D01*
X-100681Y82953D01*
X-100740Y82886D01*
X-100796Y82817D01*
X-100849Y82745D01*
X-100899Y82670D01*
X-100945Y82594D01*
X-100988Y82516D01*
X-101027Y82436D01*
X-101063Y82354D01*
X-101096Y82271D01*
X-101124Y82186D01*
X-101149Y82101D01*
X-101171Y82014D01*
X-101188Y81926D01*
X-101201Y81838D01*
X-101211Y81749D01*
X-101217Y81660D01*
X-101219Y81571D01*
X-101217Y81482D01*
X-101211Y81393D01*
X-101201Y81304D01*
X-101188Y81216D01*
X-101171Y81128D01*
X-101149Y81041D01*
X-101124Y80956D01*
X-101096Y80871D01*
X-101063Y80788D01*
X-101027Y80706D01*
X-100988Y80626D01*
X-100945Y80548D01*
X-100899Y80472D01*
X-100849Y80397D01*
X-100796Y80325D01*
X-100740Y80256D01*
X-100681Y80189D01*
X-100620Y80124D01*
X-100555Y80063D01*
X-100488Y80004D01*
X-100419Y79948D01*
X-100347Y79895D01*
X-100272Y79845D01*
X-100196Y79799D01*
X-100118Y79756D01*
X-100038Y79717D01*
X-99956Y79681D01*
X-99873Y79648D01*
X-99788Y79620D01*
X-99703Y79595D01*
X-99616Y79573D01*
X-99528Y79556D01*
X-99440Y79543D01*
X-99351Y79533D01*
X-99262Y79527D01*
X-99173Y79525D01*
X-95490Y79934D02*
X-95411Y79936D01*
X-95332Y79942D01*
X-95253Y79951D01*
X-95175Y79964D01*
X-95098Y79982D01*
X-95022Y80002D01*
X-94947Y80027D01*
X-94873Y80055D01*
X-94800Y80086D01*
X-94729Y80122D01*
X-94660Y80160D01*
X-94593Y80202D01*
X-94528Y80247D01*
X-94465Y80295D01*
X-94404Y80346D01*
X-94347Y80400D01*
X-94291Y80456D01*
X-94239Y80515D01*
X-94189Y80577D01*
X-94143Y80641D01*
X-94099Y80707D01*
X-94059Y80775D01*
X-94023Y80845D01*
X-93989Y80917D01*
X-93959Y80991D01*
X-93933Y81065D01*
X-93910Y81141D01*
X-93892Y81218D01*
X-93876Y81295D01*
X-93865Y81374D01*
X-93857Y81452D01*
X-93853Y81531D01*
X-93853Y81611D01*
X-93857Y81690D01*
X-93865Y81768D01*
X-93876Y81847D01*
X-93892Y81924D01*
X-93910Y82001D01*
X-93933Y82077D01*
X-93959Y82151D01*
X-93989Y82225D01*
X-94023Y82297D01*
X-94059Y82367D01*
X-94099Y82435D01*
X-94143Y82501D01*
X-94189Y82565D01*
X-94239Y82627D01*
X-94291Y82686D01*
X-94347Y82742D01*
X-94404Y82796D01*
X-94465Y82847D01*
X-94528Y82895D01*
X-94593Y82940D01*
X-94660Y82982D01*
X-94729Y83020D01*
X-94800Y83056D01*
X-94873Y83087D01*
X-94947Y83115D01*
X-95022Y83140D01*
X-95098Y83160D01*
X-95175Y83178D01*
X-95253Y83191D01*
X-95332Y83200D01*
X-95411Y83206D01*
X-95490Y83208D01*
X-95569Y83206D01*
X-95648Y83200D01*
X-95727Y83191D01*
X-95805Y83178D01*
X-95882Y83160D01*
X-95958Y83140D01*
X-96033Y83115D01*
X-96107Y83087D01*
X-96180Y83056D01*
X-96251Y83020D01*
X-96320Y82982D01*
X-96387Y82940D01*
X-96452Y82895D01*
X-96515Y82847D01*
X-96576Y82796D01*
X-96633Y82742D01*
X-96689Y82686D01*
X-96741Y82627D01*
X-96791Y82565D01*
X-96837Y82501D01*
X-96881Y82435D01*
X-96921Y82367D01*
X-96957Y82297D01*
X-96991Y82225D01*
X-97021Y82151D01*
X-97047Y82077D01*
X-97070Y82001D01*
X-97088Y81924D01*
X-97104Y81847D01*
X-97115Y81768D01*
X-97123Y81690D01*
X-97127Y81611D01*
X-97127Y81531D01*
X-97123Y81452D01*
X-97115Y81374D01*
X-97104Y81295D01*
X-97088Y81218D01*
X-97070Y81141D01*
X-97047Y81065D01*
X-97021Y80991D01*
X-96991Y80917D01*
X-96957Y80845D01*
X-96921Y80775D01*
X-96881Y80707D01*
X-96837Y80641D01*
X-96791Y80577D01*
X-96741Y80515D01*
X-96689Y80456D01*
X-96633Y80400D01*
X-96576Y80346D01*
X-96515Y80295D01*
X-96452Y80247D01*
X-96387Y80202D01*
X-96320Y80160D01*
X-96251Y80122D01*
X-96180Y80086D01*
X-96107Y80055D01*
X-96033Y80027D01*
X-95958Y80002D01*
X-95882Y79982D01*
X-95805Y79964D01*
X-95727Y79951D01*
X-95648Y79942D01*
X-95569Y79936D01*
X-95490Y79934D01*
X-82360Y116850D02*
X-74994Y116850D01*
X-74994Y118896D01*
X-74996Y118985D01*
X-75002Y119074D01*
X-75012Y119163D01*
X-75025Y119251D01*
X-75042Y119339D01*
X-75064Y119426D01*
X-75089Y119511D01*
X-75117Y119596D01*
X-75150Y119679D01*
X-75186Y119761D01*
X-75225Y119841D01*
X-75268Y119919D01*
X-75314Y119995D01*
X-75364Y120070D01*
X-75417Y120142D01*
X-75473Y120211D01*
X-75532Y120278D01*
X-75593Y120343D01*
X-75658Y120404D01*
X-75725Y120463D01*
X-75794Y120519D01*
X-75866Y120572D01*
X-75941Y120622D01*
X-76017Y120668D01*
X-76095Y120711D01*
X-76175Y120750D01*
X-76257Y120786D01*
X-76340Y120819D01*
X-76425Y120847D01*
X-76510Y120872D01*
X-76597Y120894D01*
X-76685Y120911D01*
X-76773Y120924D01*
X-76862Y120934D01*
X-76951Y120940D01*
X-77040Y120942D01*
X-77129Y120940D01*
X-77218Y120934D01*
X-77307Y120924D01*
X-77395Y120911D01*
X-77483Y120894D01*
X-77570Y120872D01*
X-77655Y120847D01*
X-77740Y120819D01*
X-77823Y120786D01*
X-77905Y120750D01*
X-77985Y120711D01*
X-78063Y120668D01*
X-78139Y120622D01*
X-78214Y120572D01*
X-78286Y120519D01*
X-78355Y120463D01*
X-78422Y120404D01*
X-78487Y120343D01*
X-78548Y120278D01*
X-78607Y120211D01*
X-78663Y120142D01*
X-78716Y120070D01*
X-78766Y119995D01*
X-78812Y119919D01*
X-78855Y119841D01*
X-78894Y119761D01*
X-78930Y119679D01*
X-78963Y119596D01*
X-78991Y119511D01*
X-79016Y119426D01*
X-79038Y119339D01*
X-79055Y119251D01*
X-79068Y119163D01*
X-79078Y119074D01*
X-79084Y118985D01*
X-79086Y118896D01*
X-79086Y116850D01*
X-79086Y119306D02*
X-82360Y120942D01*
X-76835Y128207D02*
X-76750Y128205D01*
X-76665Y128199D01*
X-76581Y128189D01*
X-76497Y128176D01*
X-76413Y128158D01*
X-76331Y128137D01*
X-76250Y128112D01*
X-76170Y128083D01*
X-76091Y128050D01*
X-76014Y128014D01*
X-75939Y127974D01*
X-75865Y127931D01*
X-75794Y127885D01*
X-75725Y127835D01*
X-75658Y127782D01*
X-75594Y127726D01*
X-75533Y127667D01*
X-75474Y127606D01*
X-75418Y127542D01*
X-75365Y127475D01*
X-75315Y127406D01*
X-75269Y127335D01*
X-75226Y127261D01*
X-75186Y127186D01*
X-75150Y127109D01*
X-75117Y127030D01*
X-75088Y126950D01*
X-75063Y126869D01*
X-75042Y126787D01*
X-75024Y126703D01*
X-75011Y126619D01*
X-75001Y126535D01*
X-74995Y126450D01*
X-74993Y126365D01*
X-74995Y126269D01*
X-75001Y126173D01*
X-75011Y126078D01*
X-75024Y125983D01*
X-75042Y125888D01*
X-75063Y125795D01*
X-75088Y125702D01*
X-75117Y125611D01*
X-75149Y125520D01*
X-75185Y125431D01*
X-75225Y125344D01*
X-75268Y125258D01*
X-75314Y125174D01*
X-75364Y125092D01*
X-75418Y125012D01*
X-75474Y124935D01*
X-75534Y124860D01*
X-75596Y124787D01*
X-75662Y124717D01*
X-75730Y124649D01*
X-75801Y124584D01*
X-75874Y124523D01*
X-75950Y124464D01*
X-76029Y124408D01*
X-76109Y124356D01*
X-76192Y124307D01*
X-76276Y124261D01*
X-76362Y124219D01*
X-76450Y124181D01*
X-76539Y124146D01*
X-76630Y124114D01*
X-78267Y127593D02*
X-78208Y127653D01*
X-78146Y127710D01*
X-78082Y127765D01*
X-78015Y127816D01*
X-77946Y127865D01*
X-77876Y127911D01*
X-77803Y127954D01*
X-77729Y127994D01*
X-77653Y128030D01*
X-77575Y128063D01*
X-77496Y128093D01*
X-77416Y128120D01*
X-77335Y128143D01*
X-77253Y128162D01*
X-77171Y128178D01*
X-77087Y128191D01*
X-77003Y128200D01*
X-76919Y128205D01*
X-76835Y128207D01*
X-78267Y127593D02*
X-82360Y124114D01*
X-82360Y128207D01*
D11*
X38583Y128156D02*
X38583Y148285D01*
D12*
X85106Y138303D02*
X86743Y138303D01*
X86821Y138305D01*
X86899Y138310D01*
X86976Y138320D01*
X87053Y138333D01*
X87129Y138349D01*
X87204Y138369D01*
X87278Y138393D01*
X87351Y138420D01*
X87423Y138451D01*
X87493Y138485D01*
X87562Y138522D01*
X87628Y138563D01*
X87693Y138607D01*
X87755Y138653D01*
X87815Y138703D01*
X87873Y138755D01*
X87928Y138810D01*
X87980Y138868D01*
X88030Y138928D01*
X88076Y138990D01*
X88120Y139055D01*
X88161Y139122D01*
X88198Y139190D01*
X88232Y139260D01*
X88263Y139332D01*
X88290Y139405D01*
X88314Y139479D01*
X88334Y139554D01*
X88350Y139630D01*
X88363Y139707D01*
X88373Y139784D01*
X88378Y139862D01*
X88380Y139940D01*
X88380Y144032D01*
X88378Y144110D01*
X88373Y144188D01*
X88363Y144265D01*
X88350Y144342D01*
X88334Y144418D01*
X88314Y144493D01*
X88290Y144567D01*
X88263Y144640D01*
X88232Y144712D01*
X88198Y144782D01*
X88161Y144851D01*
X88120Y144917D01*
X88076Y144982D01*
X88030Y145044D01*
X87980Y145104D01*
X87928Y145162D01*
X87873Y145217D01*
X87815Y145269D01*
X87755Y145319D01*
X87693Y145365D01*
X87628Y145409D01*
X87562Y145450D01*
X87493Y145487D01*
X87423Y145521D01*
X87351Y145552D01*
X87278Y145579D01*
X87204Y145603D01*
X87129Y145623D01*
X87053Y145639D01*
X86976Y145652D01*
X86899Y145662D01*
X86821Y145667D01*
X86743Y145669D01*
X85106Y145669D01*
X82261Y142395D02*
X79805Y142395D01*
X79725Y142393D01*
X79645Y142387D01*
X79565Y142377D01*
X79486Y142364D01*
X79407Y142346D01*
X79330Y142325D01*
X79254Y142299D01*
X79179Y142270D01*
X79105Y142238D01*
X79033Y142202D01*
X78963Y142162D01*
X78896Y142119D01*
X78830Y142073D01*
X78767Y142023D01*
X78706Y141971D01*
X78647Y141916D01*
X78592Y141857D01*
X78540Y141797D01*
X78490Y141733D01*
X78444Y141667D01*
X78401Y141600D01*
X78361Y141530D01*
X78325Y141458D01*
X78293Y141384D01*
X78264Y141310D01*
X78238Y141233D01*
X78217Y141156D01*
X78199Y141077D01*
X78186Y140998D01*
X78176Y140918D01*
X78170Y140838D01*
X78168Y140758D01*
X78169Y140758D02*
X78169Y140349D01*
X78171Y140260D01*
X78177Y140171D01*
X78187Y140082D01*
X78200Y139994D01*
X78217Y139906D01*
X78239Y139819D01*
X78264Y139734D01*
X78292Y139649D01*
X78325Y139566D01*
X78361Y139484D01*
X78400Y139404D01*
X78443Y139326D01*
X78489Y139250D01*
X78539Y139175D01*
X78592Y139103D01*
X78648Y139034D01*
X78707Y138967D01*
X78768Y138902D01*
X78833Y138841D01*
X78900Y138782D01*
X78969Y138726D01*
X79041Y138673D01*
X79116Y138623D01*
X79192Y138577D01*
X79270Y138534D01*
X79350Y138495D01*
X79432Y138459D01*
X79515Y138426D01*
X79600Y138398D01*
X79685Y138373D01*
X79772Y138351D01*
X79860Y138334D01*
X79948Y138321D01*
X80037Y138311D01*
X80126Y138305D01*
X80215Y138303D01*
X80304Y138305D01*
X80393Y138311D01*
X80482Y138321D01*
X80570Y138334D01*
X80658Y138351D01*
X80745Y138373D01*
X80830Y138398D01*
X80915Y138426D01*
X80998Y138459D01*
X81080Y138495D01*
X81160Y138534D01*
X81238Y138577D01*
X81314Y138623D01*
X81389Y138673D01*
X81461Y138726D01*
X81530Y138782D01*
X81597Y138841D01*
X81662Y138902D01*
X81723Y138967D01*
X81782Y139034D01*
X81838Y139103D01*
X81891Y139175D01*
X81941Y139250D01*
X81987Y139326D01*
X82030Y139404D01*
X82069Y139484D01*
X82105Y139566D01*
X82138Y139649D01*
X82166Y139734D01*
X82191Y139819D01*
X82213Y139906D01*
X82230Y139994D01*
X82243Y140082D01*
X82253Y140171D01*
X82259Y140260D01*
X82261Y140349D01*
X82261Y142395D01*
X82259Y142507D01*
X82253Y142618D01*
X82244Y142730D01*
X82231Y142841D01*
X82213Y142951D01*
X82193Y143061D01*
X82168Y143170D01*
X82140Y143278D01*
X82108Y143385D01*
X82072Y143491D01*
X82033Y143596D01*
X81990Y143699D01*
X81944Y143801D01*
X81894Y143901D01*
X81841Y144000D01*
X81784Y144096D01*
X81725Y144191D01*
X81662Y144283D01*
X81596Y144373D01*
X81527Y144461D01*
X81455Y144547D01*
X81380Y144630D01*
X81302Y144710D01*
X81222Y144788D01*
X81139Y144863D01*
X81053Y144935D01*
X80965Y145004D01*
X80875Y145070D01*
X80783Y145133D01*
X80688Y145192D01*
X80592Y145249D01*
X80493Y145302D01*
X80393Y145352D01*
X80291Y145398D01*
X80188Y145441D01*
X80083Y145480D01*
X79977Y145516D01*
X79870Y145548D01*
X79762Y145576D01*
X79653Y145601D01*
X79543Y145621D01*
X79433Y145639D01*
X79322Y145652D01*
X79210Y145661D01*
X79099Y145667D01*
X78987Y145669D01*
X59944Y151775D02*
X52578Y151775D01*
X59944Y151775D02*
X59944Y153821D01*
X59942Y153910D01*
X59936Y153999D01*
X59926Y154088D01*
X59913Y154176D01*
X59896Y154264D01*
X59874Y154351D01*
X59849Y154436D01*
X59821Y154521D01*
X59788Y154604D01*
X59752Y154686D01*
X59713Y154766D01*
X59670Y154844D01*
X59624Y154920D01*
X59574Y154995D01*
X59521Y155067D01*
X59465Y155136D01*
X59406Y155203D01*
X59345Y155268D01*
X59280Y155329D01*
X59213Y155388D01*
X59144Y155444D01*
X59072Y155497D01*
X58997Y155547D01*
X58921Y155593D01*
X58843Y155636D01*
X58763Y155675D01*
X58681Y155711D01*
X58598Y155744D01*
X58513Y155772D01*
X58428Y155797D01*
X58341Y155819D01*
X58253Y155836D01*
X58165Y155849D01*
X58076Y155859D01*
X57987Y155865D01*
X57898Y155867D01*
X57809Y155865D01*
X57720Y155859D01*
X57631Y155849D01*
X57543Y155836D01*
X57455Y155819D01*
X57368Y155797D01*
X57283Y155772D01*
X57198Y155744D01*
X57115Y155711D01*
X57033Y155675D01*
X56953Y155636D01*
X56875Y155593D01*
X56799Y155547D01*
X56724Y155497D01*
X56652Y155444D01*
X56583Y155388D01*
X56516Y155329D01*
X56451Y155268D01*
X56390Y155203D01*
X56331Y155136D01*
X56275Y155067D01*
X56222Y154995D01*
X56172Y154920D01*
X56126Y154844D01*
X56083Y154766D01*
X56044Y154686D01*
X56008Y154604D01*
X55975Y154521D01*
X55947Y154436D01*
X55922Y154351D01*
X55900Y154264D01*
X55883Y154176D01*
X55870Y154088D01*
X55860Y153999D01*
X55854Y153910D01*
X55852Y153821D01*
X55852Y151775D01*
X55852Y154231D02*
X52578Y155867D01*
X52578Y159039D02*
X52578Y161085D01*
X52580Y161174D01*
X52586Y161263D01*
X52596Y161352D01*
X52609Y161440D01*
X52626Y161528D01*
X52648Y161615D01*
X52673Y161700D01*
X52701Y161785D01*
X52734Y161868D01*
X52770Y161950D01*
X52809Y162030D01*
X52852Y162108D01*
X52898Y162184D01*
X52948Y162259D01*
X53001Y162331D01*
X53057Y162400D01*
X53116Y162467D01*
X53177Y162532D01*
X53242Y162593D01*
X53309Y162652D01*
X53378Y162708D01*
X53450Y162761D01*
X53525Y162811D01*
X53601Y162857D01*
X53679Y162900D01*
X53759Y162939D01*
X53841Y162975D01*
X53924Y163008D01*
X54009Y163036D01*
X54094Y163061D01*
X54181Y163083D01*
X54269Y163100D01*
X54357Y163113D01*
X54446Y163123D01*
X54535Y163129D01*
X54624Y163131D01*
X54713Y163129D01*
X54802Y163123D01*
X54891Y163113D01*
X54979Y163100D01*
X55067Y163083D01*
X55154Y163061D01*
X55239Y163036D01*
X55324Y163008D01*
X55407Y162975D01*
X55489Y162939D01*
X55569Y162900D01*
X55647Y162857D01*
X55723Y162811D01*
X55798Y162761D01*
X55870Y162708D01*
X55939Y162652D01*
X56006Y162593D01*
X56071Y162532D01*
X56132Y162467D01*
X56191Y162400D01*
X56247Y162331D01*
X56300Y162259D01*
X56350Y162184D01*
X56396Y162108D01*
X56439Y162030D01*
X56478Y161950D01*
X56514Y161868D01*
X56547Y161785D01*
X56575Y161700D01*
X56600Y161615D01*
X56622Y161528D01*
X56639Y161440D01*
X56652Y161352D01*
X56662Y161263D01*
X56668Y161174D01*
X56670Y161085D01*
X59944Y161495D02*
X59944Y159039D01*
X59944Y161495D02*
X59942Y161574D01*
X59936Y161653D01*
X59927Y161732D01*
X59914Y161810D01*
X59896Y161887D01*
X59876Y161963D01*
X59851Y162038D01*
X59823Y162112D01*
X59792Y162185D01*
X59756Y162256D01*
X59718Y162325D01*
X59676Y162392D01*
X59631Y162457D01*
X59583Y162520D01*
X59532Y162581D01*
X59478Y162638D01*
X59422Y162694D01*
X59363Y162746D01*
X59301Y162796D01*
X59237Y162842D01*
X59171Y162886D01*
X59103Y162926D01*
X59033Y162962D01*
X58961Y162996D01*
X58887Y163026D01*
X58813Y163052D01*
X58737Y163075D01*
X58660Y163093D01*
X58583Y163109D01*
X58504Y163120D01*
X58426Y163128D01*
X58347Y163132D01*
X58267Y163132D01*
X58188Y163128D01*
X58110Y163120D01*
X58031Y163109D01*
X57954Y163093D01*
X57877Y163075D01*
X57801Y163052D01*
X57727Y163026D01*
X57653Y162996D01*
X57581Y162962D01*
X57511Y162926D01*
X57443Y162886D01*
X57377Y162842D01*
X57313Y162796D01*
X57251Y162746D01*
X57192Y162694D01*
X57136Y162638D01*
X57082Y162581D01*
X57031Y162520D01*
X56983Y162457D01*
X56938Y162392D01*
X56896Y162325D01*
X56858Y162256D01*
X56822Y162185D01*
X56791Y162112D01*
X56763Y162038D01*
X56738Y161963D01*
X56718Y161887D01*
X56700Y161810D01*
X56687Y161732D01*
X56678Y161653D01*
X56672Y161574D01*
X56670Y161495D01*
X56670Y159858D01*
D11*
X35243Y45720D02*
X30263Y45720D01*
X-38418Y45720D02*
X-38418Y50700D01*
X-38418Y119380D02*
X-33438Y119380D01*
X35243Y119380D02*
X35243Y114400D01*
X35243Y50700D02*
X35243Y45720D01*
X-33438Y45720D02*
X-38418Y45720D01*
X-38418Y114400D02*
X-38418Y119380D01*
X30263Y119380D02*
X35243Y119380D01*
D14*
X29091Y116396D02*
X29093Y116492D01*
X29099Y116588D01*
X29109Y116684D01*
X29123Y116779D01*
X29140Y116874D01*
X29162Y116967D01*
X29187Y117060D01*
X29216Y117152D01*
X29249Y117242D01*
X29286Y117331D01*
X29326Y117418D01*
X29370Y117504D01*
X29417Y117588D01*
X29468Y117670D01*
X29521Y117749D01*
X29579Y117826D01*
X29639Y117901D01*
X29702Y117974D01*
X29768Y118044D01*
X29838Y118110D01*
X29909Y118175D01*
X29984Y118236D01*
X30060Y118294D01*
X30139Y118348D01*
X30221Y118400D01*
X30304Y118448D01*
X30389Y118492D01*
X30476Y118534D01*
X30565Y118571D01*
X30655Y118605D01*
X30746Y118635D01*
X30838Y118661D01*
X30932Y118684D01*
X31026Y118702D01*
X31121Y118717D01*
X31217Y118728D01*
X31313Y118735D01*
X31409Y118738D01*
X31505Y118737D01*
X31601Y118732D01*
X31697Y118723D01*
X31792Y118710D01*
X31887Y118694D01*
X31981Y118673D01*
X32074Y118649D01*
X32166Y118620D01*
X32257Y118588D01*
X32346Y118553D01*
X32434Y118513D01*
X32520Y118471D01*
X32604Y118424D01*
X32686Y118374D01*
X32766Y118321D01*
X32844Y118265D01*
X32920Y118205D01*
X32993Y118143D01*
X33063Y118077D01*
X33131Y118009D01*
X33196Y117938D01*
X33258Y117864D01*
X33316Y117788D01*
X33372Y117710D01*
X33424Y117629D01*
X33473Y117546D01*
X33519Y117461D01*
X33561Y117375D01*
X33599Y117287D01*
X33634Y117197D01*
X33665Y117106D01*
X33692Y117014D01*
X33716Y116920D01*
X33735Y116826D01*
X33751Y116731D01*
X33763Y116636D01*
X33771Y116540D01*
X33775Y116444D01*
X33775Y116348D01*
X33771Y116252D01*
X33763Y116156D01*
X33751Y116061D01*
X33735Y115966D01*
X33716Y115872D01*
X33692Y115778D01*
X33665Y115686D01*
X33634Y115595D01*
X33599Y115505D01*
X33561Y115417D01*
X33519Y115331D01*
X33473Y115246D01*
X33424Y115163D01*
X33372Y115082D01*
X33316Y115004D01*
X33258Y114928D01*
X33196Y114854D01*
X33131Y114783D01*
X33063Y114715D01*
X32993Y114649D01*
X32920Y114587D01*
X32844Y114527D01*
X32766Y114471D01*
X32686Y114418D01*
X32604Y114368D01*
X32520Y114321D01*
X32434Y114279D01*
X32346Y114239D01*
X32257Y114204D01*
X32166Y114172D01*
X32074Y114143D01*
X31981Y114119D01*
X31887Y114098D01*
X31792Y114082D01*
X31697Y114069D01*
X31601Y114060D01*
X31505Y114055D01*
X31409Y114054D01*
X31313Y114057D01*
X31217Y114064D01*
X31121Y114075D01*
X31026Y114090D01*
X30932Y114108D01*
X30838Y114131D01*
X30746Y114157D01*
X30655Y114187D01*
X30565Y114221D01*
X30476Y114258D01*
X30389Y114300D01*
X30304Y114344D01*
X30221Y114392D01*
X30139Y114444D01*
X30060Y114498D01*
X29984Y114556D01*
X29909Y114617D01*
X29838Y114682D01*
X29768Y114748D01*
X29702Y114818D01*
X29639Y114891D01*
X29579Y114966D01*
X29521Y115043D01*
X29468Y115122D01*
X29417Y115204D01*
X29370Y115288D01*
X29326Y115374D01*
X29286Y115461D01*
X29249Y115550D01*
X29216Y115640D01*
X29187Y115732D01*
X29162Y115825D01*
X29140Y115918D01*
X29123Y116013D01*
X29109Y116108D01*
X29099Y116204D01*
X29093Y116300D01*
X29091Y116396D01*
D15*
X30871Y39624D02*
X30871Y34121D01*
X30869Y34030D01*
X30863Y33939D01*
X30853Y33848D01*
X30840Y33758D01*
X30822Y33669D01*
X30801Y33580D01*
X30776Y33493D01*
X30747Y33406D01*
X30714Y33321D01*
X30678Y33238D01*
X30638Y33156D01*
X30595Y33076D01*
X30548Y32997D01*
X30498Y32921D01*
X30445Y32847D01*
X30389Y32776D01*
X30329Y32707D01*
X30267Y32640D01*
X30202Y32577D01*
X30134Y32516D01*
X30064Y32458D01*
X29991Y32403D01*
X29916Y32351D01*
X29839Y32303D01*
X29759Y32258D01*
X29678Y32216D01*
X29596Y32178D01*
X29511Y32144D01*
X29425Y32113D01*
X29338Y32086D01*
X29250Y32063D01*
X29161Y32044D01*
X29072Y32028D01*
X28981Y32016D01*
X28891Y32008D01*
X28800Y32004D01*
X28708Y32004D01*
X28617Y32008D01*
X28527Y32016D01*
X28436Y32028D01*
X28347Y32044D01*
X28258Y32063D01*
X28170Y32086D01*
X28083Y32113D01*
X27997Y32144D01*
X27912Y32178D01*
X27830Y32216D01*
X27749Y32258D01*
X27669Y32303D01*
X27592Y32351D01*
X27517Y32403D01*
X27444Y32458D01*
X27374Y32516D01*
X27306Y32577D01*
X27241Y32640D01*
X27179Y32707D01*
X27119Y32776D01*
X27063Y32847D01*
X27010Y32921D01*
X26960Y32997D01*
X26913Y33076D01*
X26870Y33156D01*
X26830Y33238D01*
X26794Y33321D01*
X26761Y33406D01*
X26732Y33493D01*
X26707Y33580D01*
X26686Y33669D01*
X26668Y33758D01*
X26655Y33848D01*
X26645Y33939D01*
X26639Y34030D01*
X26637Y34121D01*
X26637Y39624D01*
X23311Y37931D02*
X21195Y39624D01*
X21195Y32004D01*
X23311Y32004D02*
X19078Y32004D01*
D12*
X17272Y127381D02*
X9906Y127381D01*
X17272Y127381D02*
X17272Y129427D01*
X17270Y129516D01*
X17264Y129605D01*
X17254Y129694D01*
X17241Y129782D01*
X17224Y129870D01*
X17202Y129957D01*
X17177Y130042D01*
X17149Y130127D01*
X17116Y130210D01*
X17080Y130292D01*
X17041Y130372D01*
X16998Y130450D01*
X16952Y130526D01*
X16902Y130601D01*
X16849Y130673D01*
X16793Y130742D01*
X16734Y130809D01*
X16673Y130874D01*
X16608Y130935D01*
X16541Y130994D01*
X16472Y131050D01*
X16400Y131103D01*
X16325Y131153D01*
X16249Y131199D01*
X16171Y131242D01*
X16091Y131281D01*
X16009Y131317D01*
X15926Y131350D01*
X15841Y131378D01*
X15756Y131403D01*
X15669Y131425D01*
X15581Y131442D01*
X15493Y131455D01*
X15404Y131465D01*
X15315Y131471D01*
X15226Y131473D01*
X15137Y131471D01*
X15048Y131465D01*
X14959Y131455D01*
X14871Y131442D01*
X14783Y131425D01*
X14696Y131403D01*
X14611Y131378D01*
X14526Y131350D01*
X14443Y131317D01*
X14361Y131281D01*
X14281Y131242D01*
X14203Y131199D01*
X14127Y131153D01*
X14052Y131103D01*
X13980Y131050D01*
X13911Y130994D01*
X13844Y130935D01*
X13779Y130874D01*
X13718Y130809D01*
X13659Y130742D01*
X13603Y130673D01*
X13550Y130601D01*
X13500Y130526D01*
X13454Y130450D01*
X13411Y130372D01*
X13372Y130292D01*
X13336Y130210D01*
X13303Y130127D01*
X13275Y130042D01*
X13250Y129957D01*
X13228Y129870D01*
X13211Y129782D01*
X13198Y129694D01*
X13188Y129605D01*
X13182Y129516D01*
X13180Y129427D01*
X13180Y127381D01*
X13180Y129836D02*
X9906Y131473D01*
X11952Y134645D02*
X12041Y134647D01*
X12130Y134653D01*
X12219Y134663D01*
X12307Y134676D01*
X12395Y134693D01*
X12482Y134715D01*
X12567Y134740D01*
X12652Y134768D01*
X12735Y134801D01*
X12817Y134837D01*
X12897Y134876D01*
X12975Y134919D01*
X13051Y134965D01*
X13126Y135015D01*
X13198Y135068D01*
X13267Y135124D01*
X13334Y135183D01*
X13399Y135244D01*
X13460Y135309D01*
X13519Y135376D01*
X13575Y135445D01*
X13628Y135517D01*
X13678Y135592D01*
X13724Y135668D01*
X13767Y135746D01*
X13806Y135826D01*
X13842Y135908D01*
X13875Y135991D01*
X13903Y136076D01*
X13928Y136161D01*
X13950Y136248D01*
X13967Y136336D01*
X13980Y136424D01*
X13990Y136513D01*
X13996Y136602D01*
X13998Y136691D01*
X13996Y136780D01*
X13990Y136869D01*
X13980Y136958D01*
X13967Y137046D01*
X13950Y137134D01*
X13928Y137221D01*
X13903Y137306D01*
X13875Y137391D01*
X13842Y137474D01*
X13806Y137556D01*
X13767Y137636D01*
X13724Y137714D01*
X13678Y137790D01*
X13628Y137865D01*
X13575Y137937D01*
X13519Y138006D01*
X13460Y138073D01*
X13399Y138138D01*
X13334Y138199D01*
X13267Y138258D01*
X13198Y138314D01*
X13126Y138367D01*
X13051Y138417D01*
X12975Y138463D01*
X12897Y138506D01*
X12817Y138545D01*
X12735Y138581D01*
X12652Y138614D01*
X12567Y138642D01*
X12482Y138667D01*
X12395Y138689D01*
X12307Y138706D01*
X12219Y138719D01*
X12130Y138729D01*
X12041Y138735D01*
X11952Y138737D01*
X11863Y138735D01*
X11774Y138729D01*
X11685Y138719D01*
X11597Y138706D01*
X11509Y138689D01*
X11422Y138667D01*
X11337Y138642D01*
X11252Y138614D01*
X11169Y138581D01*
X11087Y138545D01*
X11007Y138506D01*
X10929Y138463D01*
X10853Y138417D01*
X10778Y138367D01*
X10706Y138314D01*
X10637Y138258D01*
X10570Y138199D01*
X10505Y138138D01*
X10444Y138073D01*
X10385Y138006D01*
X10329Y137937D01*
X10276Y137865D01*
X10226Y137790D01*
X10180Y137714D01*
X10137Y137636D01*
X10098Y137556D01*
X10062Y137474D01*
X10029Y137391D01*
X10001Y137306D01*
X9976Y137221D01*
X9954Y137134D01*
X9937Y137046D01*
X9924Y136958D01*
X9914Y136869D01*
X9908Y136780D01*
X9906Y136691D01*
X9908Y136602D01*
X9914Y136513D01*
X9924Y136424D01*
X9937Y136336D01*
X9954Y136248D01*
X9976Y136161D01*
X10001Y136076D01*
X10029Y135991D01*
X10062Y135908D01*
X10098Y135826D01*
X10137Y135746D01*
X10180Y135668D01*
X10226Y135592D01*
X10276Y135517D01*
X10329Y135445D01*
X10385Y135376D01*
X10444Y135309D01*
X10505Y135244D01*
X10570Y135183D01*
X10637Y135124D01*
X10706Y135068D01*
X10778Y135015D01*
X10853Y134965D01*
X10929Y134919D01*
X11007Y134876D01*
X11087Y134837D01*
X11169Y134801D01*
X11252Y134768D01*
X11337Y134740D01*
X11422Y134715D01*
X11509Y134693D01*
X11597Y134676D01*
X11685Y134663D01*
X11774Y134653D01*
X11863Y134647D01*
X11952Y134645D01*
X15635Y135054D02*
X15714Y135056D01*
X15793Y135062D01*
X15872Y135071D01*
X15950Y135084D01*
X16027Y135102D01*
X16103Y135122D01*
X16178Y135147D01*
X16252Y135175D01*
X16325Y135206D01*
X16396Y135242D01*
X16465Y135280D01*
X16532Y135322D01*
X16597Y135367D01*
X16660Y135415D01*
X16721Y135466D01*
X16778Y135520D01*
X16834Y135576D01*
X16886Y135635D01*
X16936Y135697D01*
X16982Y135761D01*
X17026Y135827D01*
X17066Y135895D01*
X17102Y135965D01*
X17136Y136037D01*
X17166Y136111D01*
X17192Y136185D01*
X17215Y136261D01*
X17233Y136338D01*
X17249Y136415D01*
X17260Y136494D01*
X17268Y136572D01*
X17272Y136651D01*
X17272Y136731D01*
X17268Y136810D01*
X17260Y136888D01*
X17249Y136967D01*
X17233Y137044D01*
X17215Y137121D01*
X17192Y137197D01*
X17166Y137271D01*
X17136Y137345D01*
X17102Y137417D01*
X17066Y137487D01*
X17026Y137555D01*
X16982Y137621D01*
X16936Y137685D01*
X16886Y137747D01*
X16834Y137806D01*
X16778Y137862D01*
X16721Y137916D01*
X16660Y137967D01*
X16597Y138015D01*
X16532Y138060D01*
X16465Y138102D01*
X16396Y138140D01*
X16325Y138176D01*
X16252Y138207D01*
X16178Y138235D01*
X16103Y138260D01*
X16027Y138280D01*
X15950Y138298D01*
X15872Y138311D01*
X15793Y138320D01*
X15714Y138326D01*
X15635Y138328D01*
X15556Y138326D01*
X15477Y138320D01*
X15398Y138311D01*
X15320Y138298D01*
X15243Y138280D01*
X15167Y138260D01*
X15092Y138235D01*
X15018Y138207D01*
X14945Y138176D01*
X14874Y138140D01*
X14805Y138102D01*
X14738Y138060D01*
X14673Y138015D01*
X14610Y137967D01*
X14549Y137916D01*
X14492Y137862D01*
X14436Y137806D01*
X14384Y137747D01*
X14334Y137685D01*
X14288Y137621D01*
X14244Y137555D01*
X14204Y137487D01*
X14168Y137417D01*
X14134Y137345D01*
X14104Y137271D01*
X14078Y137197D01*
X14055Y137121D01*
X14037Y137044D01*
X14021Y136967D01*
X14010Y136888D01*
X14002Y136810D01*
X13998Y136731D01*
X13998Y136651D01*
X14002Y136572D01*
X14010Y136494D01*
X14021Y136415D01*
X14037Y136338D01*
X14055Y136261D01*
X14078Y136185D01*
X14104Y136111D01*
X14134Y136037D01*
X14168Y135965D01*
X14204Y135895D01*
X14244Y135827D01*
X14288Y135761D01*
X14334Y135697D01*
X14384Y135635D01*
X14436Y135576D01*
X14492Y135520D01*
X14549Y135466D01*
X14610Y135415D01*
X14673Y135367D01*
X14738Y135322D01*
X14805Y135280D01*
X14874Y135242D01*
X14945Y135206D01*
X15018Y135175D01*
X15092Y135147D01*
X15167Y135122D01*
X15243Y135102D01*
X15320Y135084D01*
X15398Y135071D01*
X15477Y135062D01*
X15556Y135056D01*
X15635Y135054D01*
X24194Y127381D02*
X31560Y127381D01*
X31560Y129427D01*
X31559Y129427D02*
X31557Y129516D01*
X31551Y129605D01*
X31541Y129694D01*
X31528Y129782D01*
X31511Y129870D01*
X31489Y129957D01*
X31464Y130042D01*
X31436Y130127D01*
X31403Y130210D01*
X31367Y130292D01*
X31328Y130372D01*
X31285Y130450D01*
X31239Y130526D01*
X31189Y130601D01*
X31136Y130673D01*
X31080Y130742D01*
X31021Y130809D01*
X30960Y130874D01*
X30895Y130935D01*
X30828Y130994D01*
X30759Y131050D01*
X30687Y131103D01*
X30612Y131153D01*
X30536Y131199D01*
X30458Y131242D01*
X30378Y131281D01*
X30296Y131317D01*
X30213Y131350D01*
X30128Y131378D01*
X30043Y131403D01*
X29956Y131425D01*
X29868Y131442D01*
X29780Y131455D01*
X29691Y131465D01*
X29602Y131471D01*
X29513Y131473D01*
X29424Y131471D01*
X29335Y131465D01*
X29246Y131455D01*
X29158Y131442D01*
X29070Y131425D01*
X28983Y131403D01*
X28898Y131378D01*
X28813Y131350D01*
X28730Y131317D01*
X28648Y131281D01*
X28568Y131242D01*
X28490Y131199D01*
X28414Y131153D01*
X28339Y131103D01*
X28267Y131050D01*
X28198Y130994D01*
X28131Y130935D01*
X28066Y130874D01*
X28005Y130809D01*
X27946Y130742D01*
X27890Y130673D01*
X27837Y130601D01*
X27787Y130526D01*
X27741Y130450D01*
X27698Y130372D01*
X27659Y130292D01*
X27623Y130210D01*
X27590Y130127D01*
X27562Y130042D01*
X27537Y129957D01*
X27515Y129870D01*
X27498Y129782D01*
X27485Y129694D01*
X27475Y129605D01*
X27469Y129516D01*
X27467Y129427D01*
X27467Y127381D01*
X27467Y129836D02*
X24194Y131473D01*
X27467Y136282D02*
X27467Y138737D01*
X27467Y136282D02*
X27469Y136204D01*
X27474Y136126D01*
X27484Y136049D01*
X27497Y135972D01*
X27513Y135896D01*
X27533Y135821D01*
X27557Y135747D01*
X27584Y135674D01*
X27615Y135602D01*
X27649Y135532D01*
X27686Y135463D01*
X27727Y135397D01*
X27771Y135332D01*
X27817Y135270D01*
X27867Y135210D01*
X27919Y135152D01*
X27974Y135097D01*
X28032Y135045D01*
X28092Y134995D01*
X28154Y134949D01*
X28219Y134905D01*
X28286Y134864D01*
X28354Y134827D01*
X28424Y134793D01*
X28496Y134762D01*
X28569Y134735D01*
X28643Y134711D01*
X28718Y134691D01*
X28794Y134675D01*
X28871Y134662D01*
X28948Y134652D01*
X29026Y134647D01*
X29104Y134645D01*
X29513Y134645D01*
X29602Y134647D01*
X29691Y134653D01*
X29780Y134663D01*
X29868Y134676D01*
X29956Y134693D01*
X30043Y134715D01*
X30128Y134740D01*
X30213Y134768D01*
X30296Y134801D01*
X30378Y134837D01*
X30458Y134876D01*
X30536Y134919D01*
X30612Y134965D01*
X30687Y135015D01*
X30759Y135068D01*
X30828Y135124D01*
X30895Y135183D01*
X30960Y135244D01*
X31021Y135309D01*
X31080Y135376D01*
X31136Y135445D01*
X31189Y135517D01*
X31239Y135592D01*
X31285Y135668D01*
X31328Y135746D01*
X31367Y135826D01*
X31403Y135908D01*
X31436Y135991D01*
X31464Y136076D01*
X31489Y136161D01*
X31511Y136248D01*
X31528Y136336D01*
X31541Y136424D01*
X31551Y136513D01*
X31557Y136602D01*
X31559Y136691D01*
X31557Y136780D01*
X31551Y136869D01*
X31541Y136958D01*
X31528Y137046D01*
X31511Y137134D01*
X31489Y137221D01*
X31464Y137306D01*
X31436Y137391D01*
X31403Y137474D01*
X31367Y137556D01*
X31328Y137636D01*
X31285Y137714D01*
X31239Y137790D01*
X31189Y137865D01*
X31136Y137937D01*
X31080Y138006D01*
X31021Y138073D01*
X30960Y138138D01*
X30895Y138199D01*
X30828Y138258D01*
X30759Y138314D01*
X30687Y138367D01*
X30612Y138417D01*
X30536Y138463D01*
X30458Y138506D01*
X30378Y138545D01*
X30296Y138581D01*
X30213Y138614D01*
X30128Y138642D01*
X30043Y138667D01*
X29956Y138689D01*
X29868Y138706D01*
X29780Y138719D01*
X29691Y138729D01*
X29602Y138735D01*
X29513Y138737D01*
X27467Y138737D01*
X27355Y138735D01*
X27244Y138729D01*
X27132Y138720D01*
X27021Y138707D01*
X26911Y138689D01*
X26801Y138669D01*
X26692Y138644D01*
X26584Y138616D01*
X26477Y138584D01*
X26371Y138548D01*
X26266Y138509D01*
X26163Y138466D01*
X26061Y138420D01*
X25961Y138370D01*
X25862Y138317D01*
X25766Y138260D01*
X25671Y138201D01*
X25579Y138138D01*
X25489Y138072D01*
X25401Y138003D01*
X25315Y137931D01*
X25232Y137856D01*
X25152Y137778D01*
X25074Y137698D01*
X24999Y137615D01*
X24927Y137529D01*
X24858Y137441D01*
X24792Y137351D01*
X24729Y137259D01*
X24670Y137164D01*
X24613Y137068D01*
X24560Y136969D01*
X24510Y136869D01*
X24464Y136767D01*
X24421Y136664D01*
X24382Y136559D01*
X24346Y136453D01*
X24314Y136346D01*
X24286Y136238D01*
X24261Y136129D01*
X24241Y136019D01*
X24223Y135909D01*
X24210Y135798D01*
X24201Y135686D01*
X24195Y135575D01*
X24193Y135463D01*
X-381Y197231D02*
X-381Y204597D01*
X-2427Y204597D01*
X-2516Y204595D01*
X-2605Y204589D01*
X-2694Y204579D01*
X-2782Y204566D01*
X-2870Y204549D01*
X-2957Y204527D01*
X-3042Y204502D01*
X-3127Y204474D01*
X-3210Y204441D01*
X-3292Y204405D01*
X-3372Y204366D01*
X-3450Y204323D01*
X-3526Y204277D01*
X-3601Y204227D01*
X-3673Y204174D01*
X-3742Y204118D01*
X-3809Y204059D01*
X-3874Y203998D01*
X-3935Y203933D01*
X-3994Y203866D01*
X-4050Y203797D01*
X-4103Y203725D01*
X-4153Y203650D01*
X-4199Y203574D01*
X-4242Y203496D01*
X-4281Y203416D01*
X-4317Y203334D01*
X-4350Y203251D01*
X-4378Y203166D01*
X-4403Y203081D01*
X-4425Y202994D01*
X-4442Y202906D01*
X-4455Y202818D01*
X-4465Y202729D01*
X-4471Y202640D01*
X-4473Y202551D01*
X-4471Y202462D01*
X-4465Y202373D01*
X-4455Y202284D01*
X-4442Y202196D01*
X-4425Y202108D01*
X-4403Y202021D01*
X-4378Y201936D01*
X-4350Y201851D01*
X-4317Y201768D01*
X-4281Y201686D01*
X-4242Y201606D01*
X-4199Y201528D01*
X-4153Y201452D01*
X-4103Y201377D01*
X-4050Y201305D01*
X-3994Y201236D01*
X-3935Y201169D01*
X-3874Y201104D01*
X-3809Y201043D01*
X-3742Y200984D01*
X-3673Y200928D01*
X-3601Y200875D01*
X-3526Y200825D01*
X-3450Y200779D01*
X-3372Y200736D01*
X-3292Y200697D01*
X-3210Y200661D01*
X-3127Y200628D01*
X-3042Y200600D01*
X-2957Y200575D01*
X-2870Y200553D01*
X-2782Y200536D01*
X-2694Y200523D01*
X-2605Y200513D01*
X-2516Y200507D01*
X-2427Y200505D01*
X-381Y200505D01*
X-2836Y200505D02*
X-4473Y197231D01*
X-7645Y202960D02*
X-9691Y204597D01*
X-9691Y197231D01*
X-7645Y197231D02*
X-11737Y197231D01*
X-14961Y200914D02*
X-14963Y201067D01*
X-14969Y201220D01*
X-14978Y201372D01*
X-14992Y201525D01*
X-15009Y201677D01*
X-15030Y201828D01*
X-15055Y201979D01*
X-15084Y202129D01*
X-15116Y202279D01*
X-15153Y202427D01*
X-15193Y202575D01*
X-15236Y202722D01*
X-15284Y202867D01*
X-15335Y203011D01*
X-15389Y203154D01*
X-15448Y203296D01*
X-15509Y203435D01*
X-15575Y203574D01*
X-15574Y203574D02*
X-15600Y203644D01*
X-15630Y203714D01*
X-15663Y203781D01*
X-15699Y203847D01*
X-15738Y203911D01*
X-15781Y203973D01*
X-15827Y204032D01*
X-15875Y204090D01*
X-15926Y204144D01*
X-15980Y204197D01*
X-16037Y204246D01*
X-16096Y204293D01*
X-16157Y204336D01*
X-16220Y204377D01*
X-16285Y204414D01*
X-16352Y204449D01*
X-16421Y204479D01*
X-16491Y204507D01*
X-16562Y204530D01*
X-16634Y204551D01*
X-16707Y204567D01*
X-16781Y204580D01*
X-16856Y204590D01*
X-16931Y204595D01*
X-17006Y204597D01*
X-17081Y204595D01*
X-17156Y204590D01*
X-17231Y204580D01*
X-17305Y204567D01*
X-17378Y204551D01*
X-17450Y204530D01*
X-17521Y204507D01*
X-17591Y204479D01*
X-17660Y204449D01*
X-17727Y204414D01*
X-17792Y204377D01*
X-17855Y204336D01*
X-17916Y204293D01*
X-17975Y204246D01*
X-18032Y204197D01*
X-18086Y204144D01*
X-18137Y204090D01*
X-18186Y204032D01*
X-18231Y203973D01*
X-18274Y203911D01*
X-18313Y203847D01*
X-18350Y203781D01*
X-18382Y203713D01*
X-18412Y203644D01*
X-18438Y203574D01*
X-18503Y203436D01*
X-18565Y203296D01*
X-18623Y203154D01*
X-18678Y203011D01*
X-18729Y202867D01*
X-18777Y202722D01*
X-18820Y202575D01*
X-18860Y202428D01*
X-18897Y202279D01*
X-18929Y202129D01*
X-18958Y201979D01*
X-18983Y201828D01*
X-19004Y201677D01*
X-19021Y201525D01*
X-19035Y201372D01*
X-19044Y201220D01*
X-19050Y201067D01*
X-19052Y200914D01*
X-14960Y200914D02*
X-14962Y200761D01*
X-14968Y200608D01*
X-14977Y200455D01*
X-14991Y200303D01*
X-15008Y200151D01*
X-15029Y200000D01*
X-15054Y199849D01*
X-15083Y199698D01*
X-15115Y199549D01*
X-15152Y199400D01*
X-15192Y199253D01*
X-15235Y199106D01*
X-15283Y198961D01*
X-15334Y198816D01*
X-15389Y198674D01*
X-15447Y198532D01*
X-15509Y198392D01*
X-15574Y198254D01*
X-15600Y198183D01*
X-15630Y198114D01*
X-15663Y198047D01*
X-15699Y197981D01*
X-15738Y197917D01*
X-15781Y197855D01*
X-15827Y197796D01*
X-15875Y197738D01*
X-15926Y197684D01*
X-15980Y197631D01*
X-16037Y197582D01*
X-16096Y197535D01*
X-16157Y197492D01*
X-16220Y197451D01*
X-16285Y197414D01*
X-16352Y197379D01*
X-16421Y197349D01*
X-16491Y197321D01*
X-16562Y197298D01*
X-16634Y197277D01*
X-16707Y197261D01*
X-16781Y197248D01*
X-16856Y197238D01*
X-16931Y197233D01*
X-17006Y197231D01*
X-18438Y198254D02*
X-18503Y198392D01*
X-18565Y198532D01*
X-18623Y198674D01*
X-18678Y198817D01*
X-18729Y198961D01*
X-18777Y199106D01*
X-18820Y199253D01*
X-18860Y199401D01*
X-18897Y199549D01*
X-18929Y199699D01*
X-18958Y199849D01*
X-18983Y200000D01*
X-19004Y200151D01*
X-19021Y200303D01*
X-19035Y200456D01*
X-19044Y200608D01*
X-19050Y200761D01*
X-19052Y200914D01*
X-18438Y198254D02*
X-18412Y198184D01*
X-18382Y198114D01*
X-18350Y198047D01*
X-18313Y197981D01*
X-18274Y197917D01*
X-18231Y197855D01*
X-18185Y197796D01*
X-18137Y197738D01*
X-18086Y197684D01*
X-18032Y197631D01*
X-17975Y197582D01*
X-17916Y197535D01*
X-17855Y197492D01*
X-17792Y197451D01*
X-17727Y197414D01*
X-17660Y197379D01*
X-17591Y197349D01*
X-17521Y197321D01*
X-17450Y197298D01*
X-17378Y197277D01*
X-17305Y197261D01*
X-17231Y197248D01*
X-17156Y197238D01*
X-17081Y197233D01*
X-17006Y197231D01*
X-15369Y198868D02*
X-18643Y202960D01*
D16*
X-27242Y159385D02*
X-27242Y152273D01*
D12*
X-24003Y170244D02*
X-31369Y170244D01*
X-24003Y170244D02*
X-24003Y172290D01*
X-24005Y172379D01*
X-24011Y172468D01*
X-24021Y172557D01*
X-24034Y172645D01*
X-24051Y172733D01*
X-24073Y172820D01*
X-24098Y172905D01*
X-24126Y172990D01*
X-24159Y173073D01*
X-24195Y173155D01*
X-24234Y173235D01*
X-24277Y173313D01*
X-24323Y173389D01*
X-24373Y173464D01*
X-24426Y173536D01*
X-24482Y173605D01*
X-24541Y173672D01*
X-24602Y173737D01*
X-24667Y173798D01*
X-24734Y173857D01*
X-24803Y173913D01*
X-24875Y173966D01*
X-24950Y174016D01*
X-25026Y174062D01*
X-25104Y174105D01*
X-25184Y174144D01*
X-25266Y174180D01*
X-25349Y174213D01*
X-25434Y174241D01*
X-25519Y174266D01*
X-25606Y174288D01*
X-25694Y174305D01*
X-25782Y174318D01*
X-25871Y174328D01*
X-25960Y174334D01*
X-26049Y174336D01*
X-26138Y174334D01*
X-26227Y174328D01*
X-26316Y174318D01*
X-26404Y174305D01*
X-26492Y174288D01*
X-26579Y174266D01*
X-26664Y174241D01*
X-26749Y174213D01*
X-26832Y174180D01*
X-26914Y174144D01*
X-26994Y174105D01*
X-27072Y174062D01*
X-27148Y174016D01*
X-27223Y173966D01*
X-27295Y173913D01*
X-27364Y173857D01*
X-27431Y173798D01*
X-27496Y173737D01*
X-27557Y173672D01*
X-27616Y173605D01*
X-27672Y173536D01*
X-27725Y173464D01*
X-27775Y173389D01*
X-27821Y173313D01*
X-27864Y173235D01*
X-27903Y173155D01*
X-27939Y173073D01*
X-27972Y172990D01*
X-28000Y172905D01*
X-28025Y172820D01*
X-28047Y172733D01*
X-28064Y172645D01*
X-28077Y172557D01*
X-28087Y172468D01*
X-28093Y172379D01*
X-28095Y172290D01*
X-28095Y170244D01*
X-28095Y172699D02*
X-31369Y174336D01*
X-25640Y177508D02*
X-24003Y179554D01*
X-31369Y179554D01*
X-31369Y177508D02*
X-31369Y181600D01*
X-25640Y184823D02*
X-24003Y186869D01*
X-31369Y186869D01*
X-31369Y184823D02*
X-31369Y188915D01*
D16*
X-1842Y159385D02*
X-1842Y152273D01*
D12*
X-4382Y170244D02*
X2985Y170244D01*
X2985Y172290D01*
X2984Y172290D02*
X2982Y172379D01*
X2976Y172468D01*
X2966Y172557D01*
X2953Y172645D01*
X2936Y172733D01*
X2914Y172820D01*
X2889Y172905D01*
X2861Y172990D01*
X2828Y173073D01*
X2792Y173155D01*
X2753Y173235D01*
X2710Y173313D01*
X2664Y173389D01*
X2614Y173464D01*
X2561Y173536D01*
X2505Y173605D01*
X2446Y173672D01*
X2385Y173737D01*
X2320Y173798D01*
X2253Y173857D01*
X2184Y173913D01*
X2112Y173966D01*
X2037Y174016D01*
X1961Y174062D01*
X1883Y174105D01*
X1803Y174144D01*
X1721Y174180D01*
X1638Y174213D01*
X1553Y174241D01*
X1468Y174266D01*
X1381Y174288D01*
X1293Y174305D01*
X1205Y174318D01*
X1116Y174328D01*
X1027Y174334D01*
X938Y174336D01*
X849Y174334D01*
X760Y174328D01*
X671Y174318D01*
X583Y174305D01*
X495Y174288D01*
X408Y174266D01*
X323Y174241D01*
X238Y174213D01*
X155Y174180D01*
X73Y174144D01*
X-7Y174105D01*
X-85Y174062D01*
X-161Y174016D01*
X-236Y173966D01*
X-308Y173913D01*
X-377Y173857D01*
X-444Y173798D01*
X-509Y173737D01*
X-570Y173672D01*
X-629Y173605D01*
X-685Y173536D01*
X-738Y173464D01*
X-788Y173389D01*
X-834Y173313D01*
X-877Y173235D01*
X-916Y173155D01*
X-952Y173073D01*
X-985Y172990D01*
X-1013Y172905D01*
X-1038Y172820D01*
X-1060Y172733D01*
X-1077Y172645D01*
X-1090Y172557D01*
X-1100Y172468D01*
X-1106Y172379D01*
X-1108Y172290D01*
X-1108Y170244D01*
X-1108Y172699D02*
X-4382Y174336D01*
X1348Y177508D02*
X2985Y179554D01*
X-4382Y179554D01*
X-4382Y177508D02*
X-4382Y181600D01*
X1143Y188915D02*
X1228Y188913D01*
X1313Y188907D01*
X1397Y188897D01*
X1481Y188884D01*
X1565Y188866D01*
X1647Y188845D01*
X1728Y188820D01*
X1808Y188791D01*
X1887Y188758D01*
X1964Y188722D01*
X2039Y188682D01*
X2113Y188639D01*
X2184Y188593D01*
X2253Y188543D01*
X2320Y188490D01*
X2384Y188434D01*
X2445Y188375D01*
X2504Y188314D01*
X2560Y188250D01*
X2613Y188183D01*
X2663Y188114D01*
X2709Y188043D01*
X2752Y187969D01*
X2792Y187894D01*
X2828Y187817D01*
X2861Y187738D01*
X2890Y187658D01*
X2915Y187577D01*
X2936Y187495D01*
X2954Y187411D01*
X2967Y187327D01*
X2977Y187243D01*
X2983Y187158D01*
X2985Y187073D01*
X2983Y186977D01*
X2977Y186881D01*
X2967Y186786D01*
X2954Y186691D01*
X2936Y186596D01*
X2915Y186503D01*
X2890Y186410D01*
X2861Y186319D01*
X2829Y186228D01*
X2793Y186139D01*
X2753Y186052D01*
X2710Y185966D01*
X2664Y185882D01*
X2614Y185800D01*
X2560Y185720D01*
X2504Y185643D01*
X2444Y185568D01*
X2382Y185495D01*
X2316Y185425D01*
X2248Y185357D01*
X2177Y185292D01*
X2104Y185231D01*
X2028Y185172D01*
X1949Y185116D01*
X1869Y185064D01*
X1786Y185015D01*
X1702Y184969D01*
X1616Y184927D01*
X1528Y184889D01*
X1439Y184854D01*
X1348Y184822D01*
X-289Y188301D02*
X-230Y188361D01*
X-168Y188418D01*
X-104Y188473D01*
X-37Y188524D01*
X32Y188573D01*
X102Y188619D01*
X175Y188662D01*
X249Y188702D01*
X325Y188738D01*
X403Y188771D01*
X482Y188801D01*
X562Y188828D01*
X643Y188851D01*
X725Y188870D01*
X807Y188886D01*
X891Y188899D01*
X975Y188908D01*
X1059Y188913D01*
X1143Y188915D01*
X-289Y188301D02*
X-4382Y184823D01*
X-4382Y188915D01*
D16*
X-14542Y159385D02*
X-14542Y152273D01*
D12*
X-11303Y170244D02*
X-18669Y170244D01*
X-11303Y170244D02*
X-11303Y172290D01*
X-11305Y172379D01*
X-11311Y172468D01*
X-11321Y172557D01*
X-11334Y172645D01*
X-11351Y172733D01*
X-11373Y172820D01*
X-11398Y172905D01*
X-11426Y172990D01*
X-11459Y173073D01*
X-11495Y173155D01*
X-11534Y173235D01*
X-11577Y173313D01*
X-11623Y173389D01*
X-11673Y173464D01*
X-11726Y173536D01*
X-11782Y173605D01*
X-11841Y173672D01*
X-11902Y173737D01*
X-11967Y173798D01*
X-12034Y173857D01*
X-12103Y173913D01*
X-12175Y173966D01*
X-12250Y174016D01*
X-12326Y174062D01*
X-12404Y174105D01*
X-12484Y174144D01*
X-12566Y174180D01*
X-12649Y174213D01*
X-12734Y174241D01*
X-12819Y174266D01*
X-12906Y174288D01*
X-12994Y174305D01*
X-13082Y174318D01*
X-13171Y174328D01*
X-13260Y174334D01*
X-13349Y174336D01*
X-13438Y174334D01*
X-13527Y174328D01*
X-13616Y174318D01*
X-13704Y174305D01*
X-13792Y174288D01*
X-13879Y174266D01*
X-13964Y174241D01*
X-14049Y174213D01*
X-14132Y174180D01*
X-14214Y174144D01*
X-14294Y174105D01*
X-14372Y174062D01*
X-14448Y174016D01*
X-14523Y173966D01*
X-14595Y173913D01*
X-14664Y173857D01*
X-14731Y173798D01*
X-14796Y173737D01*
X-14857Y173672D01*
X-14916Y173605D01*
X-14972Y173536D01*
X-15025Y173464D01*
X-15075Y173389D01*
X-15121Y173313D01*
X-15164Y173235D01*
X-15203Y173155D01*
X-15239Y173073D01*
X-15272Y172990D01*
X-15300Y172905D01*
X-15325Y172820D01*
X-15347Y172733D01*
X-15364Y172645D01*
X-15377Y172557D01*
X-15387Y172468D01*
X-15393Y172379D01*
X-15395Y172290D01*
X-15395Y170244D01*
X-15395Y172699D02*
X-18669Y174336D01*
X-12940Y177508D02*
X-11303Y179554D01*
X-18669Y179554D01*
X-18669Y177508D02*
X-18669Y181600D01*
X-18669Y184823D02*
X-18669Y186869D01*
X-18667Y186958D01*
X-18661Y187047D01*
X-18651Y187136D01*
X-18638Y187224D01*
X-18621Y187312D01*
X-18599Y187399D01*
X-18574Y187484D01*
X-18546Y187569D01*
X-18513Y187652D01*
X-18477Y187734D01*
X-18438Y187814D01*
X-18395Y187892D01*
X-18349Y187968D01*
X-18299Y188043D01*
X-18246Y188115D01*
X-18190Y188184D01*
X-18131Y188251D01*
X-18070Y188316D01*
X-18005Y188377D01*
X-17938Y188436D01*
X-17869Y188492D01*
X-17797Y188545D01*
X-17722Y188595D01*
X-17646Y188641D01*
X-17568Y188684D01*
X-17488Y188723D01*
X-17406Y188759D01*
X-17323Y188792D01*
X-17238Y188820D01*
X-17153Y188845D01*
X-17066Y188867D01*
X-16978Y188884D01*
X-16890Y188897D01*
X-16801Y188907D01*
X-16712Y188913D01*
X-16623Y188915D01*
X-16534Y188913D01*
X-16445Y188907D01*
X-16356Y188897D01*
X-16268Y188884D01*
X-16180Y188867D01*
X-16093Y188845D01*
X-16008Y188820D01*
X-15923Y188792D01*
X-15840Y188759D01*
X-15758Y188723D01*
X-15678Y188684D01*
X-15600Y188641D01*
X-15524Y188595D01*
X-15449Y188545D01*
X-15377Y188492D01*
X-15308Y188436D01*
X-15241Y188377D01*
X-15176Y188316D01*
X-15115Y188251D01*
X-15056Y188184D01*
X-15000Y188115D01*
X-14947Y188043D01*
X-14897Y187968D01*
X-14851Y187892D01*
X-14808Y187814D01*
X-14769Y187734D01*
X-14733Y187652D01*
X-14700Y187569D01*
X-14672Y187484D01*
X-14647Y187399D01*
X-14625Y187312D01*
X-14608Y187224D01*
X-14595Y187136D01*
X-14585Y187047D01*
X-14579Y186958D01*
X-14577Y186869D01*
X-11303Y187278D02*
X-11303Y184823D01*
X-11303Y187278D02*
X-11305Y187357D01*
X-11311Y187436D01*
X-11320Y187515D01*
X-11333Y187593D01*
X-11351Y187670D01*
X-11371Y187746D01*
X-11396Y187821D01*
X-11424Y187895D01*
X-11455Y187968D01*
X-11491Y188039D01*
X-11529Y188108D01*
X-11571Y188175D01*
X-11616Y188240D01*
X-11664Y188303D01*
X-11715Y188364D01*
X-11769Y188421D01*
X-11825Y188477D01*
X-11884Y188529D01*
X-11946Y188579D01*
X-12010Y188625D01*
X-12076Y188669D01*
X-12144Y188709D01*
X-12214Y188745D01*
X-12286Y188779D01*
X-12360Y188809D01*
X-12434Y188835D01*
X-12510Y188858D01*
X-12587Y188876D01*
X-12664Y188892D01*
X-12743Y188903D01*
X-12821Y188911D01*
X-12900Y188915D01*
X-12980Y188915D01*
X-13059Y188911D01*
X-13137Y188903D01*
X-13216Y188892D01*
X-13293Y188876D01*
X-13370Y188858D01*
X-13446Y188835D01*
X-13520Y188809D01*
X-13594Y188779D01*
X-13666Y188745D01*
X-13736Y188709D01*
X-13804Y188669D01*
X-13870Y188625D01*
X-13934Y188579D01*
X-13996Y188529D01*
X-14055Y188477D01*
X-14111Y188421D01*
X-14165Y188364D01*
X-14216Y188303D01*
X-14264Y188240D01*
X-14309Y188175D01*
X-14351Y188108D01*
X-14389Y188039D01*
X-14425Y187968D01*
X-14456Y187895D01*
X-14484Y187821D01*
X-14509Y187746D01*
X-14529Y187670D01*
X-14547Y187593D01*
X-14560Y187515D01*
X-14569Y187436D01*
X-14575Y187357D01*
X-14577Y187278D01*
X-14577Y185641D01*
X-86106Y214310D02*
X-93472Y214310D01*
X-86106Y214310D02*
X-86106Y216356D01*
X-86108Y216445D01*
X-86114Y216534D01*
X-86124Y216623D01*
X-86137Y216711D01*
X-86154Y216799D01*
X-86176Y216886D01*
X-86201Y216971D01*
X-86229Y217056D01*
X-86262Y217139D01*
X-86298Y217221D01*
X-86337Y217301D01*
X-86380Y217379D01*
X-86426Y217455D01*
X-86476Y217530D01*
X-86529Y217602D01*
X-86585Y217671D01*
X-86644Y217738D01*
X-86705Y217803D01*
X-86770Y217864D01*
X-86837Y217923D01*
X-86906Y217979D01*
X-86978Y218032D01*
X-87053Y218082D01*
X-87129Y218128D01*
X-87207Y218171D01*
X-87287Y218210D01*
X-87369Y218246D01*
X-87452Y218279D01*
X-87537Y218307D01*
X-87622Y218332D01*
X-87709Y218354D01*
X-87797Y218371D01*
X-87885Y218384D01*
X-87974Y218394D01*
X-88063Y218400D01*
X-88152Y218402D01*
X-88241Y218400D01*
X-88330Y218394D01*
X-88419Y218384D01*
X-88507Y218371D01*
X-88595Y218354D01*
X-88682Y218332D01*
X-88767Y218307D01*
X-88852Y218279D01*
X-88935Y218246D01*
X-89017Y218210D01*
X-89097Y218171D01*
X-89175Y218128D01*
X-89251Y218082D01*
X-89326Y218032D01*
X-89398Y217979D01*
X-89467Y217923D01*
X-89534Y217864D01*
X-89599Y217803D01*
X-89660Y217738D01*
X-89719Y217671D01*
X-89775Y217602D01*
X-89828Y217530D01*
X-89878Y217455D01*
X-89924Y217379D01*
X-89967Y217301D01*
X-90006Y217221D01*
X-90042Y217139D01*
X-90075Y217056D01*
X-90103Y216971D01*
X-90128Y216886D01*
X-90150Y216799D01*
X-90167Y216711D01*
X-90180Y216623D01*
X-90190Y216534D01*
X-90196Y216445D01*
X-90198Y216356D01*
X-90198Y214310D01*
X-90198Y216765D02*
X-93472Y218402D01*
X-87743Y221574D02*
X-86106Y223620D01*
X-93472Y223620D01*
X-93472Y221574D02*
X-93472Y225666D01*
X-91835Y228889D02*
X-86106Y230526D01*
X-91835Y228889D02*
X-91835Y232982D01*
X-90198Y231754D02*
X-93472Y231754D01*
D17*
X52238Y200838D02*
X52238Y183338D01*
X65238Y183338D02*
X65238Y200838D01*
D12*
X63144Y186443D02*
X55778Y186443D01*
X63144Y186443D02*
X63144Y188489D01*
X63142Y188578D01*
X63136Y188667D01*
X63126Y188756D01*
X63113Y188844D01*
X63096Y188932D01*
X63074Y189019D01*
X63049Y189104D01*
X63021Y189189D01*
X62988Y189272D01*
X62952Y189354D01*
X62913Y189434D01*
X62870Y189512D01*
X62824Y189588D01*
X62774Y189663D01*
X62721Y189735D01*
X62665Y189804D01*
X62606Y189871D01*
X62545Y189936D01*
X62480Y189997D01*
X62413Y190056D01*
X62344Y190112D01*
X62272Y190165D01*
X62197Y190215D01*
X62121Y190261D01*
X62043Y190304D01*
X61963Y190343D01*
X61881Y190379D01*
X61798Y190412D01*
X61713Y190440D01*
X61628Y190465D01*
X61541Y190487D01*
X61453Y190504D01*
X61365Y190517D01*
X61276Y190527D01*
X61187Y190533D01*
X61098Y190535D01*
X57824Y190535D01*
X57735Y190533D01*
X57646Y190527D01*
X57557Y190517D01*
X57469Y190504D01*
X57381Y190487D01*
X57294Y190465D01*
X57209Y190440D01*
X57124Y190412D01*
X57041Y190379D01*
X56959Y190343D01*
X56879Y190304D01*
X56801Y190261D01*
X56725Y190215D01*
X56650Y190165D01*
X56578Y190112D01*
X56509Y190056D01*
X56442Y189997D01*
X56377Y189936D01*
X56316Y189871D01*
X56257Y189804D01*
X56201Y189735D01*
X56148Y189663D01*
X56098Y189588D01*
X56052Y189512D01*
X56009Y189434D01*
X55970Y189354D01*
X55934Y189272D01*
X55901Y189189D01*
X55873Y189104D01*
X55848Y189019D01*
X55826Y188932D01*
X55809Y188844D01*
X55796Y188756D01*
X55786Y188667D01*
X55780Y188578D01*
X55778Y188489D01*
X55778Y186443D01*
X57824Y194002D02*
X57913Y194004D01*
X58002Y194010D01*
X58091Y194020D01*
X58179Y194033D01*
X58267Y194050D01*
X58354Y194072D01*
X58439Y194097D01*
X58524Y194125D01*
X58607Y194158D01*
X58689Y194194D01*
X58769Y194233D01*
X58847Y194276D01*
X58923Y194322D01*
X58998Y194372D01*
X59070Y194425D01*
X59139Y194481D01*
X59206Y194540D01*
X59271Y194601D01*
X59332Y194666D01*
X59391Y194733D01*
X59447Y194802D01*
X59500Y194874D01*
X59550Y194949D01*
X59596Y195025D01*
X59639Y195103D01*
X59678Y195183D01*
X59714Y195265D01*
X59747Y195348D01*
X59775Y195433D01*
X59800Y195518D01*
X59822Y195605D01*
X59839Y195693D01*
X59852Y195781D01*
X59862Y195870D01*
X59868Y195959D01*
X59870Y196048D01*
X59868Y196137D01*
X59862Y196226D01*
X59852Y196315D01*
X59839Y196403D01*
X59822Y196491D01*
X59800Y196578D01*
X59775Y196663D01*
X59747Y196748D01*
X59714Y196831D01*
X59678Y196913D01*
X59639Y196993D01*
X59596Y197071D01*
X59550Y197147D01*
X59500Y197222D01*
X59447Y197294D01*
X59391Y197363D01*
X59332Y197430D01*
X59271Y197495D01*
X59206Y197556D01*
X59139Y197615D01*
X59070Y197671D01*
X58998Y197724D01*
X58923Y197774D01*
X58847Y197820D01*
X58769Y197863D01*
X58689Y197902D01*
X58607Y197938D01*
X58524Y197971D01*
X58439Y197999D01*
X58354Y198024D01*
X58267Y198046D01*
X58179Y198063D01*
X58091Y198076D01*
X58002Y198086D01*
X57913Y198092D01*
X57824Y198094D01*
X57735Y198092D01*
X57646Y198086D01*
X57557Y198076D01*
X57469Y198063D01*
X57381Y198046D01*
X57294Y198024D01*
X57209Y197999D01*
X57124Y197971D01*
X57041Y197938D01*
X56959Y197902D01*
X56879Y197863D01*
X56801Y197820D01*
X56725Y197774D01*
X56650Y197724D01*
X56578Y197671D01*
X56509Y197615D01*
X56442Y197556D01*
X56377Y197495D01*
X56316Y197430D01*
X56257Y197363D01*
X56201Y197294D01*
X56148Y197222D01*
X56098Y197147D01*
X56052Y197071D01*
X56009Y196993D01*
X55970Y196913D01*
X55934Y196831D01*
X55901Y196748D01*
X55873Y196663D01*
X55848Y196578D01*
X55826Y196491D01*
X55809Y196403D01*
X55796Y196315D01*
X55786Y196226D01*
X55780Y196137D01*
X55778Y196048D01*
X55780Y195959D01*
X55786Y195870D01*
X55796Y195781D01*
X55809Y195693D01*
X55826Y195605D01*
X55848Y195518D01*
X55873Y195433D01*
X55901Y195348D01*
X55934Y195265D01*
X55970Y195183D01*
X56009Y195103D01*
X56052Y195025D01*
X56098Y194949D01*
X56148Y194874D01*
X56201Y194802D01*
X56257Y194733D01*
X56316Y194666D01*
X56377Y194601D01*
X56442Y194540D01*
X56509Y194481D01*
X56578Y194425D01*
X56650Y194372D01*
X56725Y194322D01*
X56801Y194276D01*
X56879Y194233D01*
X56959Y194194D01*
X57041Y194158D01*
X57124Y194125D01*
X57209Y194097D01*
X57294Y194072D01*
X57381Y194050D01*
X57469Y194033D01*
X57557Y194020D01*
X57646Y194010D01*
X57735Y194004D01*
X57824Y194002D01*
X61507Y194411D02*
X61586Y194413D01*
X61665Y194419D01*
X61744Y194428D01*
X61822Y194441D01*
X61899Y194459D01*
X61975Y194479D01*
X62050Y194504D01*
X62124Y194532D01*
X62197Y194563D01*
X62268Y194599D01*
X62337Y194637D01*
X62404Y194679D01*
X62469Y194724D01*
X62532Y194772D01*
X62593Y194823D01*
X62650Y194877D01*
X62706Y194933D01*
X62758Y194992D01*
X62808Y195054D01*
X62854Y195118D01*
X62898Y195184D01*
X62938Y195252D01*
X62974Y195322D01*
X63008Y195394D01*
X63038Y195468D01*
X63064Y195542D01*
X63087Y195618D01*
X63105Y195695D01*
X63121Y195772D01*
X63132Y195851D01*
X63140Y195929D01*
X63144Y196008D01*
X63144Y196088D01*
X63140Y196167D01*
X63132Y196245D01*
X63121Y196324D01*
X63105Y196401D01*
X63087Y196478D01*
X63064Y196554D01*
X63038Y196628D01*
X63008Y196702D01*
X62974Y196774D01*
X62938Y196844D01*
X62898Y196912D01*
X62854Y196978D01*
X62808Y197042D01*
X62758Y197104D01*
X62706Y197163D01*
X62650Y197219D01*
X62593Y197273D01*
X62532Y197324D01*
X62469Y197372D01*
X62404Y197417D01*
X62337Y197459D01*
X62268Y197497D01*
X62197Y197533D01*
X62124Y197564D01*
X62050Y197592D01*
X61975Y197617D01*
X61899Y197637D01*
X61822Y197655D01*
X61744Y197668D01*
X61665Y197677D01*
X61586Y197683D01*
X61507Y197685D01*
X61428Y197683D01*
X61349Y197677D01*
X61270Y197668D01*
X61192Y197655D01*
X61115Y197637D01*
X61039Y197617D01*
X60964Y197592D01*
X60890Y197564D01*
X60817Y197533D01*
X60746Y197497D01*
X60677Y197459D01*
X60610Y197417D01*
X60545Y197372D01*
X60482Y197324D01*
X60421Y197273D01*
X60364Y197219D01*
X60308Y197163D01*
X60256Y197104D01*
X60206Y197042D01*
X60160Y196978D01*
X60116Y196912D01*
X60076Y196844D01*
X60040Y196774D01*
X60006Y196702D01*
X59976Y196628D01*
X59950Y196554D01*
X59927Y196478D01*
X59909Y196401D01*
X59893Y196324D01*
X59882Y196245D01*
X59874Y196167D01*
X59870Y196088D01*
X59870Y196008D01*
X59874Y195929D01*
X59882Y195851D01*
X59893Y195772D01*
X59909Y195695D01*
X59927Y195618D01*
X59950Y195542D01*
X59976Y195468D01*
X60006Y195394D01*
X60040Y195322D01*
X60076Y195252D01*
X60116Y195184D01*
X60160Y195118D01*
X60206Y195054D01*
X60256Y194992D01*
X60308Y194933D01*
X60364Y194877D01*
X60421Y194823D01*
X60482Y194772D01*
X60545Y194724D01*
X60610Y194679D01*
X60677Y194637D01*
X60746Y194599D01*
X60817Y194563D01*
X60890Y194532D01*
X60964Y194504D01*
X61039Y194479D01*
X61115Y194459D01*
X61192Y194441D01*
X61270Y194428D01*
X61349Y194419D01*
X61428Y194413D01*
X61507Y194411D01*
D17*
X28425Y200838D02*
X28425Y183338D01*
X41425Y183338D02*
X41425Y200838D01*
D12*
X39332Y186443D02*
X31966Y186443D01*
X39332Y186443D02*
X39332Y188489D01*
X39331Y188489D02*
X39329Y188578D01*
X39323Y188667D01*
X39313Y188756D01*
X39300Y188844D01*
X39283Y188932D01*
X39261Y189019D01*
X39236Y189104D01*
X39208Y189189D01*
X39175Y189272D01*
X39139Y189354D01*
X39100Y189434D01*
X39057Y189512D01*
X39011Y189588D01*
X38961Y189663D01*
X38908Y189735D01*
X38852Y189804D01*
X38793Y189871D01*
X38732Y189936D01*
X38667Y189997D01*
X38600Y190056D01*
X38531Y190112D01*
X38459Y190165D01*
X38384Y190215D01*
X38308Y190261D01*
X38230Y190304D01*
X38150Y190343D01*
X38068Y190379D01*
X37985Y190412D01*
X37900Y190440D01*
X37815Y190465D01*
X37728Y190487D01*
X37640Y190504D01*
X37552Y190517D01*
X37463Y190527D01*
X37374Y190533D01*
X37285Y190535D01*
X34012Y190535D01*
X33923Y190533D01*
X33834Y190527D01*
X33745Y190517D01*
X33657Y190504D01*
X33569Y190487D01*
X33482Y190465D01*
X33397Y190440D01*
X33312Y190412D01*
X33229Y190379D01*
X33147Y190343D01*
X33067Y190304D01*
X32989Y190261D01*
X32913Y190215D01*
X32838Y190165D01*
X32766Y190112D01*
X32697Y190056D01*
X32630Y189997D01*
X32565Y189936D01*
X32504Y189871D01*
X32445Y189804D01*
X32389Y189735D01*
X32336Y189663D01*
X32286Y189588D01*
X32240Y189512D01*
X32197Y189434D01*
X32158Y189354D01*
X32122Y189272D01*
X32089Y189189D01*
X32061Y189104D01*
X32036Y189019D01*
X32014Y188932D01*
X31997Y188844D01*
X31984Y188756D01*
X31974Y188667D01*
X31968Y188578D01*
X31966Y188489D01*
X31966Y186443D01*
X35239Y195639D02*
X35239Y198094D01*
X35239Y195639D02*
X35241Y195561D01*
X35246Y195483D01*
X35256Y195406D01*
X35269Y195329D01*
X35285Y195253D01*
X35305Y195178D01*
X35329Y195104D01*
X35356Y195031D01*
X35387Y194959D01*
X35421Y194889D01*
X35458Y194820D01*
X35499Y194754D01*
X35543Y194689D01*
X35589Y194627D01*
X35639Y194567D01*
X35691Y194509D01*
X35746Y194454D01*
X35804Y194402D01*
X35864Y194352D01*
X35926Y194306D01*
X35991Y194262D01*
X36058Y194221D01*
X36126Y194184D01*
X36196Y194150D01*
X36268Y194119D01*
X36341Y194092D01*
X36415Y194068D01*
X36490Y194048D01*
X36566Y194032D01*
X36643Y194019D01*
X36720Y194009D01*
X36798Y194004D01*
X36876Y194002D01*
X37285Y194002D01*
X37374Y194004D01*
X37463Y194010D01*
X37552Y194020D01*
X37640Y194033D01*
X37728Y194050D01*
X37815Y194072D01*
X37900Y194097D01*
X37985Y194125D01*
X38068Y194158D01*
X38150Y194194D01*
X38230Y194233D01*
X38308Y194276D01*
X38384Y194322D01*
X38459Y194372D01*
X38531Y194425D01*
X38600Y194481D01*
X38667Y194540D01*
X38732Y194601D01*
X38793Y194666D01*
X38852Y194733D01*
X38908Y194802D01*
X38961Y194874D01*
X39011Y194949D01*
X39057Y195025D01*
X39100Y195103D01*
X39139Y195183D01*
X39175Y195265D01*
X39208Y195348D01*
X39236Y195433D01*
X39261Y195518D01*
X39283Y195605D01*
X39300Y195693D01*
X39313Y195781D01*
X39323Y195870D01*
X39329Y195959D01*
X39331Y196048D01*
X39329Y196137D01*
X39323Y196226D01*
X39313Y196315D01*
X39300Y196403D01*
X39283Y196491D01*
X39261Y196578D01*
X39236Y196663D01*
X39208Y196748D01*
X39175Y196831D01*
X39139Y196913D01*
X39100Y196993D01*
X39057Y197071D01*
X39011Y197147D01*
X38961Y197222D01*
X38908Y197294D01*
X38852Y197363D01*
X38793Y197430D01*
X38732Y197495D01*
X38667Y197556D01*
X38600Y197615D01*
X38531Y197671D01*
X38459Y197724D01*
X38384Y197774D01*
X38308Y197820D01*
X38230Y197863D01*
X38150Y197902D01*
X38068Y197938D01*
X37985Y197971D01*
X37900Y197999D01*
X37815Y198024D01*
X37728Y198046D01*
X37640Y198063D01*
X37552Y198076D01*
X37463Y198086D01*
X37374Y198092D01*
X37285Y198094D01*
X35239Y198094D01*
X35127Y198092D01*
X35016Y198086D01*
X34904Y198077D01*
X34793Y198064D01*
X34683Y198046D01*
X34573Y198026D01*
X34464Y198001D01*
X34356Y197973D01*
X34249Y197941D01*
X34143Y197905D01*
X34038Y197866D01*
X33935Y197823D01*
X33833Y197777D01*
X33733Y197727D01*
X33634Y197674D01*
X33538Y197617D01*
X33443Y197558D01*
X33351Y197495D01*
X33261Y197429D01*
X33173Y197360D01*
X33087Y197288D01*
X33004Y197213D01*
X32924Y197135D01*
X32846Y197055D01*
X32771Y196972D01*
X32699Y196886D01*
X32630Y196798D01*
X32564Y196708D01*
X32501Y196616D01*
X32442Y196521D01*
X32385Y196425D01*
X32332Y196326D01*
X32282Y196226D01*
X32236Y196124D01*
X32193Y196021D01*
X32154Y195916D01*
X32118Y195810D01*
X32086Y195703D01*
X32058Y195595D01*
X32033Y195486D01*
X32013Y195376D01*
X31995Y195266D01*
X31982Y195155D01*
X31973Y195043D01*
X31967Y194932D01*
X31965Y194820D01*
X-65469Y188722D02*
X-65469Y181356D01*
X-65469Y188722D02*
X-67515Y188722D01*
X-67604Y188720D01*
X-67693Y188714D01*
X-67782Y188704D01*
X-67870Y188691D01*
X-67958Y188674D01*
X-68045Y188652D01*
X-68130Y188627D01*
X-68215Y188599D01*
X-68298Y188566D01*
X-68380Y188530D01*
X-68460Y188491D01*
X-68538Y188448D01*
X-68614Y188402D01*
X-68689Y188352D01*
X-68761Y188299D01*
X-68830Y188243D01*
X-68897Y188184D01*
X-68962Y188123D01*
X-69023Y188058D01*
X-69082Y187991D01*
X-69138Y187922D01*
X-69191Y187850D01*
X-69241Y187775D01*
X-69287Y187699D01*
X-69330Y187621D01*
X-69369Y187541D01*
X-69405Y187459D01*
X-69438Y187376D01*
X-69466Y187291D01*
X-69491Y187206D01*
X-69513Y187119D01*
X-69530Y187031D01*
X-69543Y186943D01*
X-69553Y186854D01*
X-69559Y186765D01*
X-69561Y186676D01*
X-69559Y186587D01*
X-69553Y186498D01*
X-69543Y186409D01*
X-69530Y186321D01*
X-69513Y186233D01*
X-69491Y186146D01*
X-69466Y186061D01*
X-69438Y185976D01*
X-69405Y185893D01*
X-69369Y185811D01*
X-69330Y185731D01*
X-69287Y185653D01*
X-69241Y185577D01*
X-69191Y185502D01*
X-69138Y185430D01*
X-69082Y185361D01*
X-69023Y185294D01*
X-68962Y185229D01*
X-68897Y185168D01*
X-68830Y185109D01*
X-68761Y185053D01*
X-68689Y185000D01*
X-68614Y184950D01*
X-68538Y184904D01*
X-68460Y184861D01*
X-68380Y184822D01*
X-68298Y184786D01*
X-68215Y184753D01*
X-68130Y184725D01*
X-68045Y184700D01*
X-67958Y184678D01*
X-67870Y184661D01*
X-67782Y184648D01*
X-67693Y184638D01*
X-67604Y184632D01*
X-67515Y184630D01*
X-65469Y184630D01*
X-67924Y184630D02*
X-69561Y181356D01*
X-72733Y182993D02*
X-74369Y188722D01*
X-72733Y182993D02*
X-76825Y182993D01*
X-75597Y184630D02*
X-75597Y181356D01*
D11*
X-85725Y249238D02*
X-60325Y249238D01*
D12*
X-55372Y263129D02*
X-55372Y264766D01*
X-55372Y263129D02*
X-55370Y263051D01*
X-55365Y262973D01*
X-55355Y262896D01*
X-55342Y262819D01*
X-55326Y262743D01*
X-55306Y262668D01*
X-55282Y262594D01*
X-55255Y262521D01*
X-55224Y262449D01*
X-55190Y262379D01*
X-55153Y262311D01*
X-55112Y262244D01*
X-55068Y262179D01*
X-55022Y262117D01*
X-54972Y262057D01*
X-54920Y261999D01*
X-54865Y261944D01*
X-54807Y261892D01*
X-54747Y261842D01*
X-54685Y261796D01*
X-54620Y261752D01*
X-54554Y261711D01*
X-54485Y261674D01*
X-54415Y261640D01*
X-54343Y261609D01*
X-54270Y261582D01*
X-54196Y261558D01*
X-54121Y261538D01*
X-54045Y261522D01*
X-53968Y261509D01*
X-53891Y261499D01*
X-53813Y261494D01*
X-53735Y261492D01*
X-53735Y261493D02*
X-49643Y261493D01*
X-49643Y261492D02*
X-49563Y261494D01*
X-49483Y261500D01*
X-49403Y261510D01*
X-49324Y261523D01*
X-49245Y261541D01*
X-49168Y261562D01*
X-49092Y261588D01*
X-49017Y261617D01*
X-48943Y261649D01*
X-48871Y261685D01*
X-48801Y261725D01*
X-48734Y261768D01*
X-48668Y261814D01*
X-48605Y261864D01*
X-48544Y261916D01*
X-48485Y261971D01*
X-48430Y262030D01*
X-48378Y262090D01*
X-48328Y262154D01*
X-48282Y262219D01*
X-48239Y262287D01*
X-48199Y262357D01*
X-48163Y262429D01*
X-48131Y262503D01*
X-48102Y262577D01*
X-48077Y262654D01*
X-48055Y262731D01*
X-48037Y262810D01*
X-48024Y262889D01*
X-48014Y262968D01*
X-48008Y263049D01*
X-48006Y263129D01*
X-48006Y264766D01*
X-49643Y267612D02*
X-48006Y269658D01*
X-55372Y269658D01*
X-55372Y267612D02*
X-55372Y271704D01*
X-55372Y274927D02*
X-55372Y276973D01*
X-55370Y277062D01*
X-55364Y277151D01*
X-55354Y277240D01*
X-55341Y277328D01*
X-55324Y277416D01*
X-55302Y277503D01*
X-55277Y277588D01*
X-55249Y277673D01*
X-55216Y277756D01*
X-55180Y277838D01*
X-55141Y277918D01*
X-55098Y277996D01*
X-55052Y278072D01*
X-55002Y278147D01*
X-54949Y278219D01*
X-54893Y278288D01*
X-54834Y278355D01*
X-54773Y278420D01*
X-54708Y278481D01*
X-54641Y278540D01*
X-54572Y278596D01*
X-54500Y278649D01*
X-54425Y278699D01*
X-54349Y278745D01*
X-54271Y278788D01*
X-54191Y278827D01*
X-54109Y278863D01*
X-54026Y278896D01*
X-53941Y278924D01*
X-53856Y278949D01*
X-53769Y278971D01*
X-53681Y278988D01*
X-53593Y279001D01*
X-53504Y279011D01*
X-53415Y279017D01*
X-53326Y279019D01*
X-53237Y279017D01*
X-53148Y279011D01*
X-53059Y279001D01*
X-52971Y278988D01*
X-52883Y278971D01*
X-52796Y278949D01*
X-52711Y278924D01*
X-52626Y278896D01*
X-52543Y278863D01*
X-52461Y278827D01*
X-52381Y278788D01*
X-52303Y278745D01*
X-52227Y278699D01*
X-52152Y278649D01*
X-52080Y278596D01*
X-52011Y278540D01*
X-51944Y278481D01*
X-51879Y278420D01*
X-51818Y278355D01*
X-51759Y278288D01*
X-51703Y278219D01*
X-51650Y278147D01*
X-51600Y278072D01*
X-51554Y277996D01*
X-51511Y277918D01*
X-51472Y277838D01*
X-51436Y277756D01*
X-51403Y277673D01*
X-51375Y277588D01*
X-51350Y277503D01*
X-51328Y277416D01*
X-51311Y277328D01*
X-51298Y277240D01*
X-51288Y277151D01*
X-51282Y277062D01*
X-51280Y276973D01*
X-48006Y277382D02*
X-48006Y274927D01*
X-48006Y277382D02*
X-48008Y277461D01*
X-48014Y277540D01*
X-48023Y277619D01*
X-48036Y277697D01*
X-48054Y277774D01*
X-48074Y277850D01*
X-48099Y277925D01*
X-48127Y277999D01*
X-48158Y278072D01*
X-48194Y278143D01*
X-48232Y278212D01*
X-48274Y278279D01*
X-48319Y278344D01*
X-48367Y278407D01*
X-48418Y278468D01*
X-48472Y278525D01*
X-48528Y278581D01*
X-48587Y278633D01*
X-48649Y278683D01*
X-48713Y278729D01*
X-48779Y278773D01*
X-48847Y278813D01*
X-48917Y278849D01*
X-48989Y278883D01*
X-49063Y278913D01*
X-49137Y278939D01*
X-49213Y278962D01*
X-49290Y278980D01*
X-49367Y278996D01*
X-49446Y279007D01*
X-49524Y279015D01*
X-49603Y279019D01*
X-49683Y279019D01*
X-49762Y279015D01*
X-49840Y279007D01*
X-49919Y278996D01*
X-49996Y278980D01*
X-50073Y278962D01*
X-50149Y278939D01*
X-50223Y278913D01*
X-50297Y278883D01*
X-50369Y278849D01*
X-50439Y278813D01*
X-50507Y278773D01*
X-50573Y278729D01*
X-50637Y278683D01*
X-50699Y278633D01*
X-50758Y278581D01*
X-50814Y278525D01*
X-50868Y278468D01*
X-50919Y278407D01*
X-50967Y278344D01*
X-51012Y278279D01*
X-51054Y278212D01*
X-51092Y278143D01*
X-51128Y278072D01*
X-51159Y277999D01*
X-51187Y277925D01*
X-51212Y277850D01*
X-51232Y277774D01*
X-51250Y277697D01*
X-51263Y277619D01*
X-51272Y277540D01*
X-51278Y277461D01*
X-51280Y277382D01*
X-51280Y275745D01*
X-49692Y221044D02*
X-48055Y221044D01*
X-48055Y221043D02*
X-47977Y221045D01*
X-47899Y221050D01*
X-47822Y221060D01*
X-47745Y221073D01*
X-47669Y221089D01*
X-47594Y221109D01*
X-47520Y221133D01*
X-47447Y221160D01*
X-47375Y221191D01*
X-47305Y221225D01*
X-47236Y221262D01*
X-47170Y221303D01*
X-47105Y221347D01*
X-47043Y221393D01*
X-46983Y221443D01*
X-46925Y221495D01*
X-46870Y221550D01*
X-46818Y221608D01*
X-46768Y221668D01*
X-46722Y221730D01*
X-46678Y221795D01*
X-46637Y221862D01*
X-46600Y221930D01*
X-46566Y222000D01*
X-46535Y222072D01*
X-46508Y222145D01*
X-46484Y222219D01*
X-46464Y222294D01*
X-46448Y222370D01*
X-46435Y222447D01*
X-46425Y222524D01*
X-46420Y222602D01*
X-46418Y222680D01*
X-46419Y222680D02*
X-46419Y226773D01*
X-46418Y226773D02*
X-46420Y226853D01*
X-46426Y226933D01*
X-46436Y227013D01*
X-46449Y227092D01*
X-46467Y227171D01*
X-46488Y227248D01*
X-46514Y227324D01*
X-46543Y227399D01*
X-46575Y227473D01*
X-46611Y227545D01*
X-46651Y227615D01*
X-46694Y227682D01*
X-46740Y227748D01*
X-46790Y227811D01*
X-46842Y227872D01*
X-46897Y227931D01*
X-46956Y227986D01*
X-47016Y228038D01*
X-47080Y228088D01*
X-47146Y228134D01*
X-47213Y228177D01*
X-47283Y228217D01*
X-47355Y228253D01*
X-47429Y228285D01*
X-47503Y228314D01*
X-47580Y228340D01*
X-47657Y228361D01*
X-47736Y228379D01*
X-47815Y228392D01*
X-47895Y228402D01*
X-47975Y228408D01*
X-48055Y228410D01*
X-49692Y228410D01*
X-54788Y228410D02*
X-54873Y228408D01*
X-54958Y228402D01*
X-55042Y228392D01*
X-55126Y228379D01*
X-55210Y228361D01*
X-55292Y228340D01*
X-55373Y228315D01*
X-55453Y228286D01*
X-55532Y228253D01*
X-55609Y228217D01*
X-55684Y228177D01*
X-55758Y228134D01*
X-55829Y228088D01*
X-55898Y228038D01*
X-55965Y227985D01*
X-56029Y227929D01*
X-56090Y227870D01*
X-56149Y227809D01*
X-56205Y227745D01*
X-56258Y227678D01*
X-56308Y227609D01*
X-56354Y227538D01*
X-56397Y227464D01*
X-56437Y227389D01*
X-56473Y227312D01*
X-56506Y227233D01*
X-56535Y227153D01*
X-56560Y227072D01*
X-56581Y226990D01*
X-56599Y226906D01*
X-56612Y226822D01*
X-56622Y226738D01*
X-56628Y226653D01*
X-56630Y226568D01*
X-54788Y228410D02*
X-54692Y228408D01*
X-54596Y228402D01*
X-54501Y228392D01*
X-54406Y228379D01*
X-54311Y228361D01*
X-54218Y228340D01*
X-54125Y228315D01*
X-54034Y228286D01*
X-53943Y228254D01*
X-53854Y228218D01*
X-53767Y228178D01*
X-53681Y228135D01*
X-53597Y228089D01*
X-53515Y228039D01*
X-53435Y227985D01*
X-53358Y227929D01*
X-53283Y227869D01*
X-53210Y227807D01*
X-53140Y227741D01*
X-53072Y227673D01*
X-53007Y227602D01*
X-52946Y227529D01*
X-52887Y227453D01*
X-52831Y227374D01*
X-52779Y227294D01*
X-52730Y227211D01*
X-52684Y227127D01*
X-52642Y227041D01*
X-52604Y226953D01*
X-52569Y226864D01*
X-52537Y226773D01*
X-56016Y225136D02*
X-56076Y225195D01*
X-56133Y225257D01*
X-56188Y225321D01*
X-56239Y225388D01*
X-56288Y225457D01*
X-56334Y225527D01*
X-56377Y225600D01*
X-56417Y225674D01*
X-56453Y225750D01*
X-56486Y225828D01*
X-56516Y225907D01*
X-56543Y225987D01*
X-56566Y226068D01*
X-56585Y226150D01*
X-56601Y226232D01*
X-56614Y226316D01*
X-56623Y226400D01*
X-56628Y226484D01*
X-56630Y226568D01*
X-56016Y225136D02*
X-52538Y221044D01*
X-56630Y221044D01*
M02*
