G04 EAGLE Gerber RS-274X export*
G75*
%MOMM*%
%FSLAX34Y34*%
%LPD*%
%INSilkscreen Top*%
%IPPOS*%
%AMOC8*
5,1,8,0,0,1.08239X$1,22.5*%
G01*
%ADD10C,0.101600*%
%ADD11C,0.152400*%
%ADD12R,0.014731X0.014731*%
%ADD13R,0.147319X0.014731*%
%ADD14R,0.265175X0.014731*%
%ADD15R,0.383031X0.014731*%
%ADD16R,0.515619X0.014731*%
%ADD17R,0.633475X0.014731*%
%ADD18R,0.751331X0.014731*%
%ADD19R,0.883919X0.014731*%
%ADD20R,1.001775X0.014731*%
%ADD21R,1.119631X0.014731*%
%ADD22R,1.134363X0.014731*%
%ADD23R,1.149094X0.014731*%
%ADD24R,1.163825X0.014731*%
%ADD25R,1.178556X0.014731*%
%ADD26R,1.193288X0.014731*%
%ADD27R,1.222756X0.014731*%
%ADD28R,1.237488X0.014731*%
%ADD29R,1.266950X0.014731*%
%ADD30R,1.281681X0.014731*%
%ADD31R,1.311144X0.014731*%
%ADD32R,1.325881X0.014731*%
%ADD33R,1.355344X0.014731*%
%ADD34R,1.370075X0.014731*%
%ADD35R,1.384806X0.014731*%
%ADD36R,1.399538X0.014731*%
%ADD37R,1.414275X0.014731*%
%ADD38R,1.443738X0.014731*%
%ADD39R,1.458469X0.014731*%
%ADD40R,1.487931X0.014731*%
%ADD41R,1.502663X0.014731*%
%ADD42R,1.517394X0.014731*%
%ADD43R,1.532125X0.014731*%
%ADD44R,1.546856X0.014731*%
%ADD45R,1.576319X0.014731*%
%ADD46R,1.605788X0.014731*%
%ADD47R,1.620519X0.014731*%
%ADD48R,1.649981X0.014731*%
%ADD49R,1.664713X0.014731*%
%ADD50R,1.694175X0.014731*%
%ADD51R,1.708913X0.014731*%
%ADD52R,1.738375X0.014731*%
%ADD53R,1.753106X0.014731*%
%ADD54R,1.767838X0.014731*%
%ADD55R,1.782569X0.014731*%
%ADD56R,1.797306X0.014731*%
%ADD57R,0.117856X0.014731*%
%ADD58R,1.826769X0.014731*%
%ADD59R,0.235713X0.014731*%
%ADD60R,0.353569X0.014731*%
%ADD61R,1.856231X0.014731*%
%ADD62R,0.486156X0.014731*%
%ADD63R,1.870963X0.014731*%
%ADD64R,0.604013X0.014731*%
%ADD65R,0.721869X0.014731*%
%ADD66R,1.885694X0.014731*%
%ADD67R,0.839719X0.014731*%
%ADD68R,0.972306X0.014731*%
%ADD69R,1.090169X0.014731*%
%ADD70R,1.208025X0.014731*%
%ADD71R,1.252219X0.014731*%
%ADD72R,1.296412X0.014731*%
%ADD73R,1.340612X0.014731*%
%ADD74R,1.826763X0.014731*%
%ADD75R,1.414269X0.014731*%
%ADD76R,1.812031X0.014731*%
%ADD77R,1.429000X0.014731*%
%ADD78R,1.458462X0.014731*%
%ADD79R,1.473200X0.014731*%
%ADD80R,1.723644X0.014731*%
%ADD81R,1.694181X0.014731*%
%ADD82R,1.679450X0.014731*%
%ADD83R,1.561594X0.014731*%
%ADD84R,1.576325X0.014731*%
%ADD85R,1.591056X0.014731*%
%ADD86R,1.635250X0.014731*%
%ADD87R,1.561588X0.014731*%
%ADD88R,1.443731X0.014731*%
%ADD89R,1.797300X0.014731*%
%ADD90R,1.841500X0.014731*%
%ADD91R,1.311150X0.014731*%
%ADD92R,1.296419X0.014731*%
%ADD93R,1.193294X0.014731*%
%ADD94R,0.957575X0.014731*%
%ADD95R,0.589281X0.014731*%
%ADD96R,0.471425X0.014731*%
%ADD97R,0.220975X0.014731*%
%ADD98R,1.812038X0.014731*%
%ADD99R,0.103119X0.014731*%
%ADD100R,0.029463X0.014731*%
%ADD101R,0.162050X0.014731*%
%ADD102R,0.397763X0.014731*%
%ADD103R,0.648206X0.014731*%
%ADD104R,1.679444X0.014731*%
%ADD105R,1.016506X0.014731*%
%ADD106R,1.104900X0.014731*%
%ADD107R,1.222750X0.014731*%
%ADD108R,1.429006X0.014731*%
%ADD109R,1.208019X0.014731*%
%ADD110R,0.987044X0.014731*%
%ADD111R,0.854456X0.014731*%
%ADD112R,0.618744X0.014731*%
%ADD113R,0.500888X0.014731*%
%ADD114R,0.368300X0.014731*%
%ADD115R,0.132587X0.014731*%
%ADD116R,1.664719X0.014731*%
%ADD117R,1.075438X0.014731*%
%ADD118R,0.942844X0.014731*%
%ADD119R,0.707131X0.014731*%
%ADD120R,0.456694X0.014731*%
%ADD121R,0.088388X0.014731*%
%ADD122C,0.127000*%
%ADD123C,0.076200*%
%ADD124C,0.200000*%
%ADD125C,0.150000*%


D10*
X500417Y326762D02*
X500417Y330008D01*
X500415Y330121D01*
X500409Y330234D01*
X500399Y330347D01*
X500385Y330460D01*
X500368Y330572D01*
X500346Y330683D01*
X500321Y330793D01*
X500291Y330903D01*
X500258Y331011D01*
X500221Y331118D01*
X500181Y331224D01*
X500136Y331328D01*
X500088Y331431D01*
X500037Y331532D01*
X499982Y331631D01*
X499924Y331728D01*
X499862Y331823D01*
X499797Y331916D01*
X499729Y332006D01*
X499658Y332094D01*
X499583Y332180D01*
X499506Y332263D01*
X499426Y332343D01*
X499343Y332420D01*
X499257Y332495D01*
X499169Y332566D01*
X499079Y332634D01*
X498986Y332699D01*
X498891Y332761D01*
X498794Y332819D01*
X498695Y332874D01*
X498594Y332925D01*
X498491Y332973D01*
X498387Y333018D01*
X498281Y333058D01*
X498174Y333095D01*
X498066Y333128D01*
X497956Y333158D01*
X497846Y333183D01*
X497735Y333205D01*
X497623Y333222D01*
X497510Y333236D01*
X497397Y333246D01*
X497284Y333252D01*
X497171Y333254D01*
X497058Y333252D01*
X496945Y333246D01*
X496832Y333236D01*
X496719Y333222D01*
X496607Y333205D01*
X496496Y333183D01*
X496386Y333158D01*
X496276Y333128D01*
X496168Y333095D01*
X496061Y333058D01*
X495955Y333018D01*
X495851Y332973D01*
X495748Y332925D01*
X495647Y332874D01*
X495548Y332819D01*
X495451Y332761D01*
X495356Y332699D01*
X495263Y332634D01*
X495173Y332566D01*
X495085Y332495D01*
X494999Y332420D01*
X494916Y332343D01*
X494836Y332263D01*
X494759Y332180D01*
X494684Y332094D01*
X494613Y332006D01*
X494545Y331916D01*
X494480Y331823D01*
X494418Y331728D01*
X494360Y331631D01*
X494305Y331532D01*
X494254Y331431D01*
X494206Y331328D01*
X494161Y331224D01*
X494121Y331118D01*
X494084Y331011D01*
X494051Y330903D01*
X494021Y330793D01*
X493996Y330683D01*
X493974Y330572D01*
X493957Y330460D01*
X493943Y330347D01*
X493933Y330234D01*
X493927Y330121D01*
X493925Y330008D01*
X488733Y330657D02*
X488733Y326762D01*
X488733Y330657D02*
X488735Y330758D01*
X488741Y330858D01*
X488751Y330958D01*
X488764Y331058D01*
X488782Y331157D01*
X488803Y331256D01*
X488828Y331353D01*
X488857Y331450D01*
X488890Y331545D01*
X488926Y331639D01*
X488966Y331731D01*
X489009Y331822D01*
X489056Y331911D01*
X489106Y331998D01*
X489160Y332084D01*
X489217Y332167D01*
X489277Y332247D01*
X489340Y332326D01*
X489407Y332402D01*
X489476Y332475D01*
X489548Y332545D01*
X489622Y332613D01*
X489699Y332678D01*
X489779Y332739D01*
X489861Y332798D01*
X489945Y332853D01*
X490031Y332905D01*
X490119Y332954D01*
X490209Y332999D01*
X490301Y333041D01*
X490394Y333079D01*
X490489Y333113D01*
X490584Y333144D01*
X490681Y333171D01*
X490779Y333194D01*
X490878Y333214D01*
X490978Y333229D01*
X491078Y333241D01*
X491178Y333249D01*
X491279Y333253D01*
X491379Y333253D01*
X491480Y333249D01*
X491580Y333241D01*
X491680Y333229D01*
X491780Y333214D01*
X491879Y333194D01*
X491977Y333171D01*
X492074Y333144D01*
X492169Y333113D01*
X492264Y333079D01*
X492357Y333041D01*
X492449Y332999D01*
X492539Y332954D01*
X492627Y332905D01*
X492713Y332853D01*
X492797Y332798D01*
X492879Y332739D01*
X492959Y332678D01*
X493036Y332613D01*
X493110Y332545D01*
X493182Y332475D01*
X493251Y332402D01*
X493318Y332326D01*
X493381Y332247D01*
X493441Y332167D01*
X493498Y332084D01*
X493552Y331998D01*
X493602Y331911D01*
X493649Y331822D01*
X493692Y331731D01*
X493732Y331639D01*
X493768Y331545D01*
X493801Y331450D01*
X493830Y331353D01*
X493855Y331256D01*
X493876Y331157D01*
X493894Y331058D01*
X493907Y330958D01*
X493917Y330858D01*
X493923Y330758D01*
X493925Y330657D01*
X493926Y330657D02*
X493926Y328060D01*
X488733Y337543D02*
X500417Y341438D01*
X488733Y345332D01*
X500417Y349622D02*
X500417Y352867D01*
X500415Y352980D01*
X500409Y353093D01*
X500399Y353206D01*
X500385Y353319D01*
X500368Y353431D01*
X500346Y353542D01*
X500321Y353652D01*
X500291Y353762D01*
X500258Y353870D01*
X500221Y353977D01*
X500181Y354083D01*
X500136Y354187D01*
X500088Y354290D01*
X500037Y354391D01*
X499982Y354490D01*
X499924Y354587D01*
X499862Y354682D01*
X499797Y354775D01*
X499729Y354865D01*
X499658Y354953D01*
X499583Y355039D01*
X499506Y355122D01*
X499426Y355202D01*
X499343Y355279D01*
X499257Y355354D01*
X499169Y355425D01*
X499079Y355493D01*
X498986Y355558D01*
X498891Y355620D01*
X498794Y355678D01*
X498695Y355733D01*
X498594Y355784D01*
X498491Y355832D01*
X498387Y355877D01*
X498281Y355917D01*
X498174Y355954D01*
X498066Y355987D01*
X497956Y356017D01*
X497846Y356042D01*
X497735Y356064D01*
X497623Y356081D01*
X497510Y356095D01*
X497397Y356105D01*
X497284Y356111D01*
X497171Y356113D01*
X497058Y356111D01*
X496945Y356105D01*
X496832Y356095D01*
X496719Y356081D01*
X496607Y356064D01*
X496496Y356042D01*
X496386Y356017D01*
X496276Y355987D01*
X496168Y355954D01*
X496061Y355917D01*
X495955Y355877D01*
X495851Y355832D01*
X495748Y355784D01*
X495647Y355733D01*
X495548Y355678D01*
X495451Y355620D01*
X495356Y355558D01*
X495263Y355493D01*
X495173Y355425D01*
X495085Y355354D01*
X494999Y355279D01*
X494916Y355202D01*
X494836Y355122D01*
X494759Y355039D01*
X494684Y354953D01*
X494613Y354865D01*
X494545Y354775D01*
X494480Y354682D01*
X494418Y354587D01*
X494360Y354490D01*
X494305Y354391D01*
X494254Y354290D01*
X494206Y354187D01*
X494161Y354083D01*
X494121Y353977D01*
X494084Y353870D01*
X494051Y353762D01*
X494021Y353652D01*
X493996Y353542D01*
X493974Y353431D01*
X493957Y353319D01*
X493943Y353206D01*
X493933Y353093D01*
X493927Y352980D01*
X493925Y352867D01*
X488733Y353517D02*
X488733Y349622D01*
X488733Y353517D02*
X488735Y353618D01*
X488741Y353718D01*
X488751Y353818D01*
X488764Y353918D01*
X488782Y354017D01*
X488803Y354116D01*
X488828Y354213D01*
X488857Y354310D01*
X488890Y354405D01*
X488926Y354499D01*
X488966Y354591D01*
X489009Y354682D01*
X489056Y354771D01*
X489106Y354858D01*
X489160Y354944D01*
X489217Y355027D01*
X489277Y355107D01*
X489340Y355186D01*
X489407Y355262D01*
X489476Y355335D01*
X489548Y355405D01*
X489622Y355473D01*
X489699Y355538D01*
X489779Y355599D01*
X489861Y355658D01*
X489945Y355713D01*
X490031Y355765D01*
X490119Y355814D01*
X490209Y355859D01*
X490301Y355901D01*
X490394Y355939D01*
X490489Y355973D01*
X490584Y356004D01*
X490681Y356031D01*
X490779Y356054D01*
X490878Y356074D01*
X490978Y356089D01*
X491078Y356101D01*
X491178Y356109D01*
X491279Y356113D01*
X491379Y356113D01*
X491480Y356109D01*
X491580Y356101D01*
X491680Y356089D01*
X491780Y356074D01*
X491879Y356054D01*
X491977Y356031D01*
X492074Y356004D01*
X492169Y355973D01*
X492264Y355939D01*
X492357Y355901D01*
X492449Y355859D01*
X492539Y355814D01*
X492627Y355765D01*
X492713Y355713D01*
X492797Y355658D01*
X492879Y355599D01*
X492959Y355538D01*
X493036Y355473D01*
X493110Y355405D01*
X493182Y355335D01*
X493251Y355262D01*
X493318Y355186D01*
X493381Y355107D01*
X493441Y355027D01*
X493498Y354944D01*
X493552Y354858D01*
X493602Y354771D01*
X493649Y354682D01*
X493692Y354591D01*
X493732Y354499D01*
X493768Y354405D01*
X493801Y354310D01*
X493830Y354213D01*
X493855Y354116D01*
X493876Y354017D01*
X493894Y353918D01*
X493907Y353818D01*
X493917Y353718D01*
X493923Y353618D01*
X493925Y353517D01*
X493926Y353517D02*
X493926Y350920D01*
X415963Y204396D02*
X413304Y202534D01*
X415963Y204396D02*
X416054Y204463D01*
X416144Y204532D01*
X416231Y204605D01*
X416315Y204681D01*
X416396Y204760D01*
X416475Y204841D01*
X416551Y204925D01*
X416624Y205012D01*
X416693Y205102D01*
X416760Y205193D01*
X416823Y205287D01*
X416883Y205383D01*
X416940Y205481D01*
X416993Y205581D01*
X417043Y205683D01*
X417089Y205787D01*
X417131Y205892D01*
X417170Y205998D01*
X417205Y206106D01*
X417236Y206215D01*
X417264Y206325D01*
X417287Y206436D01*
X417307Y206547D01*
X417323Y206659D01*
X417335Y206772D01*
X417343Y206885D01*
X417347Y206998D01*
X417347Y207112D01*
X417343Y207225D01*
X417335Y207338D01*
X417323Y207451D01*
X417307Y207563D01*
X417287Y207674D01*
X417264Y207785D01*
X417236Y207895D01*
X417205Y208004D01*
X417170Y208112D01*
X417131Y208218D01*
X417089Y208323D01*
X417043Y208427D01*
X416993Y208529D01*
X416940Y208629D01*
X416883Y208727D01*
X416823Y208823D01*
X416760Y208917D01*
X416693Y209008D01*
X416624Y209098D01*
X416551Y209185D01*
X416475Y209269D01*
X416396Y209350D01*
X416315Y209429D01*
X416231Y209505D01*
X416144Y209578D01*
X416055Y209647D01*
X415963Y209714D01*
X415869Y209777D01*
X415773Y209837D01*
X415675Y209894D01*
X415575Y209947D01*
X415473Y209997D01*
X415369Y210043D01*
X415264Y210085D01*
X415158Y210124D01*
X415050Y210159D01*
X414941Y210190D01*
X414831Y210218D01*
X414720Y210241D01*
X414609Y210261D01*
X414497Y210277D01*
X414384Y210289D01*
X414271Y210297D01*
X414158Y210301D01*
X414044Y210301D01*
X413931Y210297D01*
X413818Y210289D01*
X413705Y210277D01*
X413593Y210261D01*
X413482Y210241D01*
X413371Y210218D01*
X413261Y210190D01*
X413152Y210159D01*
X413044Y210124D01*
X412938Y210085D01*
X412833Y210043D01*
X412729Y209997D01*
X412627Y209947D01*
X412527Y209894D01*
X412429Y209837D01*
X412333Y209777D01*
X412239Y209714D01*
X409793Y214339D02*
X406603Y212105D01*
X409793Y214339D02*
X409877Y214395D01*
X409962Y214448D01*
X410050Y214497D01*
X410139Y214543D01*
X410231Y214586D01*
X410324Y214625D01*
X410418Y214660D01*
X410513Y214692D01*
X410610Y214720D01*
X410708Y214744D01*
X410806Y214764D01*
X410906Y214781D01*
X411006Y214793D01*
X411106Y214802D01*
X411207Y214807D01*
X411307Y214808D01*
X411408Y214805D01*
X411508Y214798D01*
X411608Y214787D01*
X411708Y214773D01*
X411807Y214754D01*
X411905Y214732D01*
X412002Y214706D01*
X412099Y214676D01*
X412194Y214643D01*
X412287Y214606D01*
X412379Y214565D01*
X412470Y214520D01*
X412558Y214473D01*
X412645Y214421D01*
X412729Y214367D01*
X412812Y214309D01*
X412892Y214248D01*
X412970Y214184D01*
X413045Y214117D01*
X413118Y214048D01*
X413187Y213975D01*
X413254Y213900D01*
X413318Y213822D01*
X413379Y213742D01*
X413437Y213659D01*
X413491Y213575D01*
X413543Y213488D01*
X413590Y213400D01*
X413635Y213309D01*
X413676Y213217D01*
X413713Y213123D01*
X413746Y213029D01*
X413776Y212932D01*
X413802Y212835D01*
X413824Y212737D01*
X413843Y212638D01*
X413857Y212538D01*
X413868Y212438D01*
X413875Y212338D01*
X413878Y212237D01*
X413877Y212137D01*
X413872Y212036D01*
X413863Y211936D01*
X413851Y211836D01*
X413834Y211736D01*
X413814Y211638D01*
X413790Y211540D01*
X413762Y211443D01*
X413730Y211348D01*
X413695Y211254D01*
X413656Y211161D01*
X413613Y211069D01*
X413567Y210980D01*
X413518Y210892D01*
X413465Y210807D01*
X413409Y210723D01*
X413349Y210642D01*
X413287Y210563D01*
X413221Y210486D01*
X413153Y210412D01*
X413082Y210341D01*
X413008Y210273D01*
X412931Y210207D01*
X412852Y210145D01*
X412771Y210085D01*
X412771Y210086D02*
X410645Y208596D01*
X415434Y218289D02*
X425326Y210952D01*
X421814Y222757D01*
X432030Y215646D02*
X434689Y217508D01*
X434689Y217507D02*
X434780Y217574D01*
X434870Y217643D01*
X434957Y217716D01*
X435041Y217792D01*
X435122Y217871D01*
X435201Y217952D01*
X435277Y218036D01*
X435350Y218123D01*
X435419Y218213D01*
X435486Y218304D01*
X435549Y218398D01*
X435609Y218494D01*
X435666Y218592D01*
X435719Y218692D01*
X435769Y218794D01*
X435815Y218898D01*
X435857Y219003D01*
X435896Y219109D01*
X435931Y219217D01*
X435962Y219326D01*
X435990Y219436D01*
X436013Y219547D01*
X436033Y219658D01*
X436049Y219770D01*
X436061Y219883D01*
X436069Y219996D01*
X436073Y220109D01*
X436073Y220223D01*
X436069Y220336D01*
X436061Y220449D01*
X436049Y220562D01*
X436033Y220674D01*
X436013Y220785D01*
X435990Y220896D01*
X435962Y221006D01*
X435931Y221115D01*
X435896Y221223D01*
X435857Y221329D01*
X435815Y221434D01*
X435769Y221538D01*
X435719Y221640D01*
X435666Y221740D01*
X435609Y221838D01*
X435549Y221934D01*
X435486Y222028D01*
X435419Y222119D01*
X435350Y222209D01*
X435277Y222296D01*
X435201Y222380D01*
X435122Y222461D01*
X435041Y222540D01*
X434957Y222616D01*
X434870Y222689D01*
X434781Y222758D01*
X434689Y222825D01*
X434595Y222888D01*
X434499Y222948D01*
X434401Y223005D01*
X434301Y223058D01*
X434199Y223108D01*
X434095Y223154D01*
X433990Y223196D01*
X433884Y223235D01*
X433776Y223270D01*
X433667Y223301D01*
X433557Y223329D01*
X433446Y223352D01*
X433335Y223372D01*
X433223Y223388D01*
X433110Y223400D01*
X432997Y223408D01*
X432884Y223412D01*
X432770Y223412D01*
X432657Y223408D01*
X432544Y223400D01*
X432431Y223388D01*
X432319Y223372D01*
X432208Y223352D01*
X432097Y223329D01*
X431987Y223301D01*
X431878Y223270D01*
X431770Y223235D01*
X431664Y223196D01*
X431559Y223154D01*
X431455Y223108D01*
X431353Y223058D01*
X431253Y223005D01*
X431155Y222948D01*
X431059Y222888D01*
X430965Y222825D01*
X428519Y227451D02*
X425328Y225217D01*
X428519Y227451D02*
X428603Y227507D01*
X428688Y227560D01*
X428776Y227609D01*
X428865Y227655D01*
X428957Y227698D01*
X429050Y227737D01*
X429144Y227772D01*
X429239Y227804D01*
X429336Y227832D01*
X429434Y227856D01*
X429532Y227876D01*
X429632Y227893D01*
X429732Y227905D01*
X429832Y227914D01*
X429933Y227919D01*
X430033Y227920D01*
X430134Y227917D01*
X430234Y227910D01*
X430334Y227899D01*
X430434Y227885D01*
X430533Y227866D01*
X430631Y227844D01*
X430728Y227818D01*
X430825Y227788D01*
X430920Y227755D01*
X431013Y227718D01*
X431105Y227677D01*
X431196Y227632D01*
X431284Y227585D01*
X431371Y227533D01*
X431455Y227479D01*
X431538Y227421D01*
X431618Y227360D01*
X431696Y227296D01*
X431771Y227229D01*
X431844Y227160D01*
X431913Y227087D01*
X431980Y227012D01*
X432044Y226934D01*
X432105Y226854D01*
X432163Y226771D01*
X432217Y226687D01*
X432269Y226600D01*
X432316Y226512D01*
X432361Y226421D01*
X432402Y226329D01*
X432439Y226235D01*
X432472Y226141D01*
X432502Y226044D01*
X432528Y225947D01*
X432550Y225849D01*
X432569Y225750D01*
X432583Y225650D01*
X432594Y225550D01*
X432601Y225450D01*
X432604Y225349D01*
X432603Y225249D01*
X432598Y225148D01*
X432589Y225048D01*
X432577Y224948D01*
X432560Y224848D01*
X432540Y224750D01*
X432516Y224652D01*
X432488Y224555D01*
X432456Y224460D01*
X432421Y224366D01*
X432382Y224273D01*
X432339Y224181D01*
X432293Y224092D01*
X432244Y224004D01*
X432191Y223919D01*
X432135Y223835D01*
X432075Y223754D01*
X432013Y223675D01*
X431947Y223598D01*
X431879Y223524D01*
X431808Y223453D01*
X431734Y223385D01*
X431657Y223319D01*
X431578Y223257D01*
X431497Y223197D01*
X429370Y221708D01*
X260886Y217508D02*
X258228Y219370D01*
X260886Y217508D02*
X260980Y217445D01*
X261076Y217385D01*
X261174Y217328D01*
X261274Y217275D01*
X261376Y217225D01*
X261480Y217179D01*
X261585Y217137D01*
X261691Y217098D01*
X261799Y217063D01*
X261908Y217032D01*
X262018Y217004D01*
X262129Y216981D01*
X262240Y216961D01*
X262352Y216945D01*
X262465Y216933D01*
X262578Y216925D01*
X262691Y216921D01*
X262805Y216921D01*
X262918Y216925D01*
X263031Y216933D01*
X263144Y216945D01*
X263256Y216961D01*
X263367Y216981D01*
X263478Y217004D01*
X263588Y217032D01*
X263697Y217063D01*
X263805Y217098D01*
X263911Y217137D01*
X264016Y217179D01*
X264120Y217225D01*
X264222Y217275D01*
X264322Y217328D01*
X264420Y217385D01*
X264516Y217445D01*
X264610Y217508D01*
X264701Y217575D01*
X264791Y217644D01*
X264878Y217717D01*
X264962Y217793D01*
X265043Y217872D01*
X265122Y217953D01*
X265198Y218037D01*
X265271Y218124D01*
X265340Y218214D01*
X265407Y218305D01*
X265470Y218399D01*
X265530Y218495D01*
X265587Y218593D01*
X265640Y218693D01*
X265690Y218795D01*
X265736Y218899D01*
X265778Y219004D01*
X265817Y219110D01*
X265852Y219218D01*
X265883Y219327D01*
X265911Y219437D01*
X265934Y219548D01*
X265954Y219659D01*
X265970Y219771D01*
X265982Y219884D01*
X265990Y219997D01*
X265994Y220110D01*
X265994Y220224D01*
X265990Y220337D01*
X265982Y220450D01*
X265970Y220563D01*
X265954Y220675D01*
X265934Y220786D01*
X265911Y220897D01*
X265883Y221007D01*
X265852Y221116D01*
X265817Y221224D01*
X265778Y221330D01*
X265736Y221435D01*
X265690Y221539D01*
X265640Y221641D01*
X265587Y221741D01*
X265530Y221839D01*
X265470Y221935D01*
X265407Y222029D01*
X265340Y222120D01*
X265271Y222210D01*
X265198Y222297D01*
X265122Y222381D01*
X265043Y222462D01*
X264962Y222541D01*
X264878Y222617D01*
X264791Y222690D01*
X264702Y222759D01*
X264610Y222826D01*
X268120Y226707D02*
X264929Y228940D01*
X268119Y226707D02*
X268200Y226647D01*
X268279Y226585D01*
X268356Y226519D01*
X268430Y226451D01*
X268501Y226380D01*
X268569Y226306D01*
X268635Y226229D01*
X268697Y226150D01*
X268757Y226069D01*
X268813Y225985D01*
X268866Y225900D01*
X268915Y225812D01*
X268961Y225723D01*
X269004Y225631D01*
X269043Y225538D01*
X269078Y225444D01*
X269110Y225349D01*
X269138Y225252D01*
X269162Y225154D01*
X269182Y225056D01*
X269199Y224956D01*
X269211Y224856D01*
X269220Y224756D01*
X269225Y224656D01*
X269226Y224555D01*
X269223Y224454D01*
X269216Y224354D01*
X269205Y224254D01*
X269191Y224154D01*
X269172Y224055D01*
X269150Y223957D01*
X269124Y223860D01*
X269094Y223763D01*
X269061Y223669D01*
X269024Y223575D01*
X268983Y223483D01*
X268938Y223392D01*
X268891Y223304D01*
X268839Y223217D01*
X268785Y223133D01*
X268727Y223050D01*
X268666Y222970D01*
X268602Y222892D01*
X268535Y222817D01*
X268466Y222744D01*
X268393Y222675D01*
X268318Y222608D01*
X268240Y222544D01*
X268160Y222483D01*
X268077Y222425D01*
X267993Y222371D01*
X267906Y222319D01*
X267818Y222272D01*
X267727Y222227D01*
X267635Y222186D01*
X267541Y222149D01*
X267447Y222116D01*
X267350Y222086D01*
X267253Y222060D01*
X267155Y222038D01*
X267056Y222019D01*
X266956Y222005D01*
X266856Y221994D01*
X266756Y221987D01*
X266655Y221984D01*
X266554Y221985D01*
X266454Y221990D01*
X266354Y221999D01*
X266254Y222011D01*
X266154Y222028D01*
X266056Y222048D01*
X265958Y222072D01*
X265861Y222100D01*
X265766Y222132D01*
X265672Y222167D01*
X265579Y222206D01*
X265487Y222249D01*
X265398Y222295D01*
X265310Y222344D01*
X265225Y222397D01*
X265141Y222453D01*
X263014Y223942D01*
X273760Y222757D02*
X270249Y210952D01*
X280141Y218289D01*
X276953Y206258D02*
X279612Y204396D01*
X279706Y204333D01*
X279802Y204273D01*
X279900Y204216D01*
X280000Y204163D01*
X280102Y204113D01*
X280206Y204067D01*
X280311Y204025D01*
X280417Y203986D01*
X280525Y203951D01*
X280634Y203920D01*
X280744Y203892D01*
X280855Y203869D01*
X280966Y203849D01*
X281078Y203833D01*
X281191Y203821D01*
X281304Y203813D01*
X281417Y203809D01*
X281531Y203809D01*
X281644Y203813D01*
X281757Y203821D01*
X281870Y203833D01*
X281982Y203849D01*
X282093Y203869D01*
X282204Y203892D01*
X282314Y203920D01*
X282423Y203951D01*
X282531Y203986D01*
X282637Y204025D01*
X282742Y204067D01*
X282846Y204113D01*
X282948Y204163D01*
X283048Y204216D01*
X283146Y204273D01*
X283242Y204333D01*
X283336Y204396D01*
X283427Y204463D01*
X283517Y204532D01*
X283604Y204605D01*
X283688Y204681D01*
X283769Y204760D01*
X283848Y204841D01*
X283924Y204925D01*
X283997Y205012D01*
X284066Y205102D01*
X284133Y205193D01*
X284196Y205287D01*
X284256Y205383D01*
X284313Y205481D01*
X284366Y205581D01*
X284416Y205683D01*
X284462Y205787D01*
X284504Y205892D01*
X284543Y205998D01*
X284578Y206106D01*
X284609Y206215D01*
X284637Y206325D01*
X284660Y206436D01*
X284680Y206547D01*
X284696Y206659D01*
X284708Y206772D01*
X284716Y206885D01*
X284720Y206998D01*
X284720Y207112D01*
X284716Y207225D01*
X284708Y207338D01*
X284696Y207451D01*
X284680Y207563D01*
X284660Y207674D01*
X284637Y207785D01*
X284609Y207895D01*
X284578Y208004D01*
X284543Y208112D01*
X284504Y208218D01*
X284462Y208323D01*
X284416Y208427D01*
X284366Y208529D01*
X284313Y208629D01*
X284256Y208727D01*
X284196Y208823D01*
X284133Y208917D01*
X284066Y209008D01*
X283997Y209098D01*
X283924Y209185D01*
X283848Y209269D01*
X283769Y209350D01*
X283688Y209429D01*
X283604Y209505D01*
X283517Y209578D01*
X283428Y209647D01*
X283336Y209714D01*
X286845Y213595D02*
X283655Y215828D01*
X286845Y213595D02*
X286926Y213535D01*
X287005Y213473D01*
X287082Y213407D01*
X287156Y213339D01*
X287227Y213268D01*
X287295Y213194D01*
X287361Y213117D01*
X287423Y213038D01*
X287483Y212957D01*
X287539Y212873D01*
X287592Y212788D01*
X287641Y212700D01*
X287687Y212611D01*
X287730Y212519D01*
X287769Y212426D01*
X287804Y212332D01*
X287836Y212237D01*
X287864Y212140D01*
X287888Y212042D01*
X287908Y211944D01*
X287925Y211844D01*
X287937Y211744D01*
X287946Y211644D01*
X287951Y211544D01*
X287952Y211443D01*
X287949Y211342D01*
X287942Y211242D01*
X287931Y211142D01*
X287917Y211042D01*
X287898Y210943D01*
X287876Y210845D01*
X287850Y210748D01*
X287820Y210651D01*
X287787Y210557D01*
X287750Y210463D01*
X287709Y210371D01*
X287664Y210280D01*
X287617Y210192D01*
X287565Y210105D01*
X287511Y210021D01*
X287453Y209938D01*
X287392Y209858D01*
X287328Y209780D01*
X287261Y209705D01*
X287192Y209632D01*
X287119Y209563D01*
X287044Y209496D01*
X286966Y209432D01*
X286886Y209371D01*
X286803Y209313D01*
X286719Y209259D01*
X286632Y209207D01*
X286544Y209160D01*
X286453Y209115D01*
X286361Y209074D01*
X286267Y209037D01*
X286173Y209004D01*
X286076Y208974D01*
X285979Y208948D01*
X285881Y208926D01*
X285782Y208907D01*
X285682Y208893D01*
X285582Y208882D01*
X285482Y208875D01*
X285381Y208872D01*
X285280Y208873D01*
X285180Y208878D01*
X285080Y208887D01*
X284980Y208899D01*
X284880Y208916D01*
X284782Y208936D01*
X284684Y208960D01*
X284587Y208988D01*
X284492Y209020D01*
X284398Y209055D01*
X284305Y209094D01*
X284213Y209137D01*
X284124Y209183D01*
X284036Y209232D01*
X283951Y209285D01*
X283867Y209341D01*
X281740Y210830D01*
X206842Y331524D02*
X206842Y334770D01*
X206840Y334883D01*
X206834Y334996D01*
X206824Y335109D01*
X206810Y335222D01*
X206793Y335334D01*
X206771Y335445D01*
X206746Y335555D01*
X206716Y335665D01*
X206683Y335773D01*
X206646Y335880D01*
X206606Y335986D01*
X206561Y336090D01*
X206513Y336193D01*
X206462Y336294D01*
X206407Y336393D01*
X206349Y336490D01*
X206287Y336585D01*
X206222Y336678D01*
X206154Y336768D01*
X206083Y336856D01*
X206008Y336942D01*
X205931Y337025D01*
X205851Y337105D01*
X205768Y337182D01*
X205682Y337257D01*
X205594Y337328D01*
X205504Y337396D01*
X205411Y337461D01*
X205316Y337523D01*
X205219Y337581D01*
X205120Y337636D01*
X205019Y337687D01*
X204916Y337735D01*
X204812Y337780D01*
X204706Y337820D01*
X204599Y337857D01*
X204491Y337890D01*
X204381Y337920D01*
X204271Y337945D01*
X204160Y337967D01*
X204048Y337984D01*
X203935Y337998D01*
X203822Y338008D01*
X203709Y338014D01*
X203596Y338016D01*
X203483Y338014D01*
X203370Y338008D01*
X203257Y337998D01*
X203144Y337984D01*
X203032Y337967D01*
X202921Y337945D01*
X202811Y337920D01*
X202701Y337890D01*
X202593Y337857D01*
X202486Y337820D01*
X202380Y337780D01*
X202276Y337735D01*
X202173Y337687D01*
X202072Y337636D01*
X201973Y337581D01*
X201876Y337523D01*
X201781Y337461D01*
X201688Y337396D01*
X201598Y337328D01*
X201510Y337257D01*
X201424Y337182D01*
X201341Y337105D01*
X201261Y337025D01*
X201184Y336942D01*
X201109Y336856D01*
X201038Y336768D01*
X200970Y336678D01*
X200905Y336585D01*
X200843Y336490D01*
X200785Y336393D01*
X200730Y336294D01*
X200679Y336193D01*
X200631Y336090D01*
X200586Y335986D01*
X200546Y335880D01*
X200509Y335773D01*
X200476Y335665D01*
X200446Y335555D01*
X200421Y335445D01*
X200399Y335334D01*
X200382Y335222D01*
X200368Y335109D01*
X200358Y334996D01*
X200352Y334883D01*
X200350Y334770D01*
X195158Y335419D02*
X195158Y331524D01*
X195158Y335419D02*
X195160Y335520D01*
X195166Y335620D01*
X195176Y335720D01*
X195189Y335820D01*
X195207Y335919D01*
X195228Y336018D01*
X195253Y336115D01*
X195282Y336212D01*
X195315Y336307D01*
X195351Y336401D01*
X195391Y336493D01*
X195434Y336584D01*
X195481Y336673D01*
X195531Y336760D01*
X195585Y336846D01*
X195642Y336929D01*
X195702Y337009D01*
X195765Y337088D01*
X195832Y337164D01*
X195901Y337237D01*
X195973Y337307D01*
X196047Y337375D01*
X196124Y337440D01*
X196204Y337501D01*
X196286Y337560D01*
X196370Y337615D01*
X196456Y337667D01*
X196544Y337716D01*
X196634Y337761D01*
X196726Y337803D01*
X196819Y337841D01*
X196914Y337875D01*
X197009Y337906D01*
X197106Y337933D01*
X197204Y337956D01*
X197303Y337976D01*
X197403Y337991D01*
X197503Y338003D01*
X197603Y338011D01*
X197704Y338015D01*
X197804Y338015D01*
X197905Y338011D01*
X198005Y338003D01*
X198105Y337991D01*
X198205Y337976D01*
X198304Y337956D01*
X198402Y337933D01*
X198499Y337906D01*
X198594Y337875D01*
X198689Y337841D01*
X198782Y337803D01*
X198874Y337761D01*
X198964Y337716D01*
X199052Y337667D01*
X199138Y337615D01*
X199222Y337560D01*
X199304Y337501D01*
X199384Y337440D01*
X199461Y337375D01*
X199535Y337307D01*
X199607Y337237D01*
X199676Y337164D01*
X199743Y337088D01*
X199806Y337009D01*
X199866Y336929D01*
X199923Y336846D01*
X199977Y336760D01*
X200027Y336673D01*
X200074Y336584D01*
X200117Y336493D01*
X200157Y336401D01*
X200193Y336307D01*
X200226Y336212D01*
X200255Y336115D01*
X200280Y336018D01*
X200301Y335919D01*
X200319Y335820D01*
X200332Y335720D01*
X200342Y335620D01*
X200348Y335520D01*
X200350Y335419D01*
X200351Y335419D02*
X200351Y332823D01*
X195158Y342305D02*
X206842Y346200D01*
X195158Y350095D01*
X206842Y354384D02*
X206842Y357630D01*
X206840Y357743D01*
X206834Y357856D01*
X206824Y357969D01*
X206810Y358082D01*
X206793Y358194D01*
X206771Y358305D01*
X206746Y358415D01*
X206716Y358525D01*
X206683Y358633D01*
X206646Y358740D01*
X206606Y358846D01*
X206561Y358950D01*
X206513Y359053D01*
X206462Y359154D01*
X206407Y359253D01*
X206349Y359350D01*
X206287Y359445D01*
X206222Y359538D01*
X206154Y359628D01*
X206083Y359716D01*
X206008Y359802D01*
X205931Y359885D01*
X205851Y359965D01*
X205768Y360042D01*
X205682Y360117D01*
X205594Y360188D01*
X205504Y360256D01*
X205411Y360321D01*
X205316Y360383D01*
X205219Y360441D01*
X205120Y360496D01*
X205019Y360547D01*
X204916Y360595D01*
X204812Y360640D01*
X204706Y360680D01*
X204599Y360717D01*
X204491Y360750D01*
X204381Y360780D01*
X204271Y360805D01*
X204160Y360827D01*
X204048Y360844D01*
X203935Y360858D01*
X203822Y360868D01*
X203709Y360874D01*
X203596Y360876D01*
X203483Y360874D01*
X203370Y360868D01*
X203257Y360858D01*
X203144Y360844D01*
X203032Y360827D01*
X202921Y360805D01*
X202811Y360780D01*
X202701Y360750D01*
X202593Y360717D01*
X202486Y360680D01*
X202380Y360640D01*
X202276Y360595D01*
X202173Y360547D01*
X202072Y360496D01*
X201973Y360441D01*
X201876Y360383D01*
X201781Y360321D01*
X201688Y360256D01*
X201598Y360188D01*
X201510Y360117D01*
X201424Y360042D01*
X201341Y359965D01*
X201261Y359885D01*
X201184Y359802D01*
X201109Y359716D01*
X201038Y359628D01*
X200970Y359538D01*
X200905Y359445D01*
X200843Y359350D01*
X200785Y359253D01*
X200730Y359154D01*
X200679Y359053D01*
X200631Y358950D01*
X200586Y358846D01*
X200546Y358740D01*
X200509Y358633D01*
X200476Y358525D01*
X200446Y358415D01*
X200421Y358305D01*
X200399Y358194D01*
X200382Y358082D01*
X200368Y357969D01*
X200358Y357856D01*
X200352Y357743D01*
X200350Y357630D01*
X195158Y358279D02*
X195158Y354384D01*
X195158Y358279D02*
X195160Y358380D01*
X195166Y358480D01*
X195176Y358580D01*
X195189Y358680D01*
X195207Y358779D01*
X195228Y358878D01*
X195253Y358975D01*
X195282Y359072D01*
X195315Y359167D01*
X195351Y359261D01*
X195391Y359353D01*
X195434Y359444D01*
X195481Y359533D01*
X195531Y359620D01*
X195585Y359706D01*
X195642Y359789D01*
X195702Y359869D01*
X195765Y359948D01*
X195832Y360024D01*
X195901Y360097D01*
X195973Y360167D01*
X196047Y360235D01*
X196124Y360300D01*
X196204Y360361D01*
X196286Y360420D01*
X196370Y360475D01*
X196456Y360527D01*
X196544Y360576D01*
X196634Y360621D01*
X196726Y360663D01*
X196819Y360701D01*
X196914Y360735D01*
X197009Y360766D01*
X197106Y360793D01*
X197204Y360816D01*
X197303Y360836D01*
X197403Y360851D01*
X197503Y360863D01*
X197603Y360871D01*
X197704Y360875D01*
X197804Y360875D01*
X197905Y360871D01*
X198005Y360863D01*
X198105Y360851D01*
X198205Y360836D01*
X198304Y360816D01*
X198402Y360793D01*
X198499Y360766D01*
X198594Y360735D01*
X198689Y360701D01*
X198782Y360663D01*
X198874Y360621D01*
X198964Y360576D01*
X199052Y360527D01*
X199138Y360475D01*
X199222Y360420D01*
X199304Y360361D01*
X199384Y360300D01*
X199461Y360235D01*
X199535Y360167D01*
X199607Y360097D01*
X199676Y360024D01*
X199743Y359948D01*
X199806Y359869D01*
X199866Y359789D01*
X199923Y359706D01*
X199977Y359620D01*
X200027Y359533D01*
X200074Y359444D01*
X200117Y359353D01*
X200157Y359261D01*
X200193Y359167D01*
X200226Y359072D01*
X200255Y358975D01*
X200280Y358878D01*
X200301Y358779D01*
X200319Y358680D01*
X200332Y358580D01*
X200342Y358480D01*
X200348Y358380D01*
X200350Y358279D01*
X200351Y358279D02*
X200351Y355683D01*
D11*
X433251Y415065D02*
X433251Y432845D01*
X438190Y432845D01*
X438330Y432843D01*
X438469Y432837D01*
X438609Y432827D01*
X438748Y432813D01*
X438887Y432796D01*
X439025Y432774D01*
X439162Y432748D01*
X439299Y432719D01*
X439435Y432686D01*
X439569Y432649D01*
X439703Y432608D01*
X439835Y432563D01*
X439967Y432514D01*
X440096Y432462D01*
X440224Y432407D01*
X440351Y432347D01*
X440476Y432284D01*
X440599Y432218D01*
X440720Y432148D01*
X440839Y432075D01*
X440956Y431998D01*
X441070Y431918D01*
X441183Y431835D01*
X441293Y431749D01*
X441400Y431659D01*
X441505Y431567D01*
X441607Y431472D01*
X441707Y431374D01*
X441804Y431273D01*
X441898Y431169D01*
X441988Y431063D01*
X442076Y430954D01*
X442161Y430843D01*
X442242Y430729D01*
X442321Y430614D01*
X442396Y430496D01*
X442467Y430376D01*
X442535Y430253D01*
X442600Y430130D01*
X442661Y430004D01*
X442719Y429876D01*
X442773Y429748D01*
X442823Y429617D01*
X442870Y429485D01*
X442913Y429352D01*
X442952Y429218D01*
X442987Y429083D01*
X443018Y428947D01*
X443046Y428809D01*
X443069Y428672D01*
X443089Y428533D01*
X443105Y428394D01*
X443117Y428255D01*
X443125Y428116D01*
X443129Y427976D01*
X443129Y427836D01*
X443125Y427696D01*
X443117Y427557D01*
X443105Y427418D01*
X443089Y427279D01*
X443069Y427140D01*
X443046Y427003D01*
X443018Y426865D01*
X442987Y426729D01*
X442952Y426594D01*
X442913Y426460D01*
X442870Y426327D01*
X442823Y426195D01*
X442773Y426064D01*
X442719Y425936D01*
X442661Y425808D01*
X442600Y425682D01*
X442535Y425559D01*
X442467Y425437D01*
X442396Y425316D01*
X442321Y425198D01*
X442242Y425083D01*
X442161Y424969D01*
X442076Y424858D01*
X441988Y424749D01*
X441898Y424643D01*
X441804Y424539D01*
X441707Y424438D01*
X441607Y424340D01*
X441505Y424245D01*
X441400Y424153D01*
X441293Y424063D01*
X441183Y423977D01*
X441070Y423894D01*
X440956Y423814D01*
X440839Y423737D01*
X440720Y423664D01*
X440599Y423594D01*
X440476Y423528D01*
X440351Y423465D01*
X440224Y423405D01*
X440096Y423350D01*
X439967Y423298D01*
X439835Y423249D01*
X439703Y423204D01*
X439569Y423163D01*
X439435Y423126D01*
X439299Y423093D01*
X439162Y423064D01*
X439025Y423038D01*
X438887Y423016D01*
X438748Y422999D01*
X438609Y422985D01*
X438469Y422975D01*
X438330Y422969D01*
X438190Y422967D01*
X433251Y422967D01*
X449246Y428894D02*
X454185Y432845D01*
X454185Y415065D01*
X449246Y415065D02*
X459124Y415065D01*
X437730Y268923D02*
X453128Y260033D01*
X437730Y268923D02*
X440200Y273200D01*
X440271Y273320D01*
X440346Y273438D01*
X440425Y273553D01*
X440506Y273667D01*
X440591Y273778D01*
X440679Y273887D01*
X440769Y273993D01*
X440863Y274097D01*
X440960Y274198D01*
X441060Y274296D01*
X441162Y274391D01*
X441267Y274483D01*
X441374Y274573D01*
X441484Y274659D01*
X441597Y274742D01*
X441711Y274822D01*
X441828Y274899D01*
X441947Y274972D01*
X442068Y275042D01*
X442191Y275108D01*
X442316Y275171D01*
X442443Y275231D01*
X442571Y275286D01*
X442701Y275338D01*
X442832Y275387D01*
X442964Y275432D01*
X443098Y275473D01*
X443232Y275510D01*
X443368Y275543D01*
X443505Y275572D01*
X443642Y275598D01*
X443780Y275620D01*
X443919Y275637D01*
X444058Y275651D01*
X444198Y275661D01*
X444337Y275667D01*
X444477Y275669D01*
X444617Y275667D01*
X444756Y275661D01*
X444896Y275651D01*
X445035Y275637D01*
X445174Y275620D01*
X445312Y275598D01*
X445449Y275572D01*
X445586Y275543D01*
X445722Y275510D01*
X445856Y275472D01*
X445990Y275432D01*
X446122Y275387D01*
X446254Y275338D01*
X446383Y275286D01*
X446511Y275231D01*
X446638Y275171D01*
X446763Y275108D01*
X446886Y275042D01*
X447007Y274972D01*
X447126Y274899D01*
X447243Y274822D01*
X447357Y274742D01*
X447470Y274659D01*
X447580Y274573D01*
X447687Y274483D01*
X447792Y274391D01*
X447894Y274296D01*
X447994Y274198D01*
X448091Y274097D01*
X448185Y273993D01*
X448275Y273887D01*
X448363Y273778D01*
X448448Y273667D01*
X448529Y273553D01*
X448608Y273438D01*
X448683Y273320D01*
X448754Y273199D01*
X448822Y273077D01*
X448887Y272954D01*
X448948Y272828D01*
X449006Y272700D01*
X449060Y272572D01*
X449110Y272441D01*
X449157Y272309D01*
X449200Y272176D01*
X449239Y272042D01*
X449274Y271907D01*
X449305Y271771D01*
X449333Y271633D01*
X449356Y271496D01*
X449376Y271357D01*
X449392Y271218D01*
X449404Y271079D01*
X449412Y270940D01*
X449416Y270800D01*
X449416Y270660D01*
X449412Y270520D01*
X449404Y270381D01*
X449392Y270242D01*
X449376Y270103D01*
X449356Y269964D01*
X449333Y269826D01*
X449305Y269689D01*
X449274Y269553D01*
X449239Y269418D01*
X449200Y269284D01*
X449157Y269151D01*
X449110Y269019D01*
X449060Y268888D01*
X449006Y268759D01*
X448948Y268632D01*
X448887Y268506D01*
X448822Y268383D01*
X448754Y268260D01*
X448754Y268261D02*
X446285Y263984D01*
X448445Y287480D02*
X448512Y287593D01*
X448583Y287704D01*
X448657Y287813D01*
X448734Y287919D01*
X448815Y288024D01*
X448898Y288125D01*
X448985Y288225D01*
X449074Y288322D01*
X449166Y288416D01*
X449261Y288507D01*
X449359Y288595D01*
X449459Y288681D01*
X449562Y288763D01*
X449667Y288843D01*
X449775Y288919D01*
X449884Y288992D01*
X449996Y289062D01*
X450110Y289128D01*
X450225Y289191D01*
X450343Y289251D01*
X450462Y289307D01*
X450583Y289359D01*
X450705Y289408D01*
X450829Y289454D01*
X450954Y289495D01*
X451080Y289533D01*
X451207Y289567D01*
X451335Y289597D01*
X451465Y289624D01*
X451594Y289647D01*
X451725Y289665D01*
X451856Y289680D01*
X451987Y289691D01*
X452118Y289699D01*
X452250Y289702D01*
X452382Y289701D01*
X452513Y289697D01*
X452645Y289688D01*
X452776Y289676D01*
X452907Y289660D01*
X453037Y289639D01*
X453167Y289616D01*
X453295Y289588D01*
X453423Y289556D01*
X453550Y289521D01*
X453676Y289482D01*
X453801Y289439D01*
X453924Y289392D01*
X454046Y289342D01*
X454166Y289289D01*
X454285Y289231D01*
X454401Y289171D01*
X454516Y289106D01*
X448444Y287480D02*
X448371Y287349D01*
X448301Y287217D01*
X448235Y287082D01*
X448173Y286946D01*
X448114Y286809D01*
X448058Y286670D01*
X448006Y286530D01*
X447958Y286388D01*
X447914Y286245D01*
X447873Y286101D01*
X447837Y285956D01*
X447804Y285810D01*
X447774Y285663D01*
X447749Y285516D01*
X447728Y285368D01*
X447710Y285219D01*
X447696Y285070D01*
X447687Y284921D01*
X447681Y284771D01*
X447679Y284622D01*
X447681Y284472D01*
X447687Y284323D01*
X447697Y284173D01*
X447711Y284024D01*
X447728Y283876D01*
X447750Y283728D01*
X447775Y283580D01*
X447804Y283434D01*
X447838Y283288D01*
X447874Y283143D01*
X447915Y282999D01*
X447960Y282856D01*
X448008Y282714D01*
X448060Y282574D01*
X448115Y282435D01*
X448174Y282297D01*
X448237Y282162D01*
X448303Y282027D01*
X448373Y281895D01*
X448446Y281765D01*
X448523Y281636D01*
X448603Y281510D01*
X448686Y281385D01*
X448773Y281263D01*
X448862Y281143D01*
X448955Y281026D01*
X449051Y280911D01*
X449150Y280799D01*
X456769Y286095D02*
X456736Y286224D01*
X456699Y286352D01*
X456659Y286479D01*
X456615Y286605D01*
X456568Y286730D01*
X456517Y286853D01*
X456463Y286975D01*
X456405Y287095D01*
X456344Y287213D01*
X456280Y287330D01*
X456212Y287445D01*
X456142Y287558D01*
X456068Y287669D01*
X455991Y287778D01*
X455911Y287885D01*
X455828Y287989D01*
X455743Y288092D01*
X455654Y288191D01*
X455563Y288288D01*
X455469Y288383D01*
X455373Y288475D01*
X455274Y288564D01*
X455172Y288650D01*
X455068Y288734D01*
X454962Y288815D01*
X454854Y288892D01*
X454743Y288967D01*
X454631Y289038D01*
X454516Y289106D01*
X456769Y286095D02*
X461126Y273885D01*
X466065Y282439D01*
X466261Y296609D02*
X461129Y299572D01*
X466261Y296609D02*
X471840Y297381D01*
X466261Y296609D02*
X468382Y291392D01*
X466261Y296609D02*
X467267Y302302D01*
X466261Y296609D02*
X461834Y292892D01*
X336439Y227775D02*
X336439Y209995D01*
X336439Y227775D02*
X341378Y227775D01*
X341518Y227773D01*
X341657Y227767D01*
X341797Y227757D01*
X341936Y227743D01*
X342075Y227726D01*
X342213Y227704D01*
X342350Y227678D01*
X342487Y227649D01*
X342623Y227616D01*
X342757Y227579D01*
X342891Y227538D01*
X343023Y227493D01*
X343155Y227444D01*
X343284Y227392D01*
X343412Y227337D01*
X343539Y227277D01*
X343664Y227214D01*
X343787Y227148D01*
X343908Y227078D01*
X344027Y227005D01*
X344144Y226928D01*
X344258Y226848D01*
X344371Y226765D01*
X344481Y226679D01*
X344588Y226589D01*
X344693Y226497D01*
X344795Y226402D01*
X344895Y226304D01*
X344992Y226203D01*
X345086Y226099D01*
X345176Y225993D01*
X345264Y225884D01*
X345349Y225773D01*
X345430Y225659D01*
X345509Y225544D01*
X345584Y225426D01*
X345655Y225306D01*
X345723Y225183D01*
X345788Y225060D01*
X345849Y224934D01*
X345907Y224806D01*
X345961Y224678D01*
X346011Y224547D01*
X346058Y224415D01*
X346101Y224282D01*
X346140Y224148D01*
X346175Y224013D01*
X346206Y223877D01*
X346234Y223739D01*
X346257Y223602D01*
X346277Y223463D01*
X346293Y223324D01*
X346305Y223185D01*
X346313Y223046D01*
X346317Y222906D01*
X346317Y222766D01*
X346313Y222626D01*
X346305Y222487D01*
X346293Y222348D01*
X346277Y222209D01*
X346257Y222070D01*
X346234Y221933D01*
X346206Y221795D01*
X346175Y221659D01*
X346140Y221524D01*
X346101Y221390D01*
X346058Y221257D01*
X346011Y221125D01*
X345961Y220994D01*
X345907Y220866D01*
X345849Y220738D01*
X345788Y220612D01*
X345723Y220489D01*
X345655Y220367D01*
X345584Y220246D01*
X345509Y220128D01*
X345430Y220013D01*
X345349Y219899D01*
X345264Y219788D01*
X345176Y219679D01*
X345086Y219573D01*
X344992Y219469D01*
X344895Y219368D01*
X344795Y219270D01*
X344693Y219175D01*
X344588Y219083D01*
X344481Y218993D01*
X344371Y218907D01*
X344258Y218824D01*
X344144Y218744D01*
X344027Y218667D01*
X343908Y218594D01*
X343787Y218524D01*
X343664Y218458D01*
X343539Y218395D01*
X343412Y218335D01*
X343284Y218280D01*
X343155Y218228D01*
X343023Y218179D01*
X342891Y218134D01*
X342757Y218093D01*
X342623Y218056D01*
X342487Y218023D01*
X342350Y217994D01*
X342213Y217968D01*
X342075Y217946D01*
X341936Y217929D01*
X341797Y217915D01*
X341657Y217905D01*
X341518Y217899D01*
X341378Y217897D01*
X336439Y217897D01*
X352434Y209995D02*
X357373Y209995D01*
X357513Y209997D01*
X357652Y210003D01*
X357792Y210013D01*
X357931Y210027D01*
X358070Y210044D01*
X358208Y210066D01*
X358345Y210092D01*
X358482Y210121D01*
X358618Y210154D01*
X358752Y210191D01*
X358886Y210232D01*
X359018Y210277D01*
X359150Y210326D01*
X359279Y210378D01*
X359407Y210433D01*
X359534Y210493D01*
X359659Y210556D01*
X359782Y210622D01*
X359903Y210692D01*
X360022Y210765D01*
X360139Y210842D01*
X360253Y210922D01*
X360366Y211005D01*
X360476Y211091D01*
X360583Y211181D01*
X360688Y211273D01*
X360790Y211368D01*
X360890Y211466D01*
X360987Y211567D01*
X361081Y211671D01*
X361171Y211777D01*
X361259Y211886D01*
X361344Y211997D01*
X361425Y212111D01*
X361504Y212226D01*
X361579Y212344D01*
X361650Y212465D01*
X361718Y212587D01*
X361783Y212710D01*
X361844Y212836D01*
X361902Y212964D01*
X361956Y213092D01*
X362006Y213223D01*
X362053Y213355D01*
X362096Y213488D01*
X362135Y213622D01*
X362170Y213757D01*
X362201Y213893D01*
X362229Y214031D01*
X362252Y214168D01*
X362272Y214307D01*
X362288Y214446D01*
X362300Y214585D01*
X362308Y214724D01*
X362312Y214864D01*
X362312Y215004D01*
X362308Y215144D01*
X362300Y215283D01*
X362288Y215422D01*
X362272Y215561D01*
X362252Y215700D01*
X362229Y215837D01*
X362201Y215975D01*
X362170Y216111D01*
X362135Y216246D01*
X362096Y216380D01*
X362053Y216513D01*
X362006Y216645D01*
X361956Y216776D01*
X361902Y216904D01*
X361844Y217032D01*
X361783Y217158D01*
X361718Y217281D01*
X361650Y217404D01*
X361579Y217524D01*
X361504Y217642D01*
X361425Y217757D01*
X361344Y217871D01*
X361259Y217982D01*
X361171Y218091D01*
X361081Y218197D01*
X360987Y218301D01*
X360890Y218402D01*
X360790Y218500D01*
X360688Y218595D01*
X360583Y218687D01*
X360476Y218777D01*
X360366Y218863D01*
X360253Y218946D01*
X360139Y219026D01*
X360022Y219103D01*
X359903Y219176D01*
X359782Y219246D01*
X359659Y219312D01*
X359534Y219375D01*
X359407Y219435D01*
X359279Y219490D01*
X359150Y219542D01*
X359018Y219591D01*
X358886Y219636D01*
X358752Y219677D01*
X358618Y219714D01*
X358482Y219747D01*
X358345Y219776D01*
X358208Y219802D01*
X358070Y219824D01*
X357931Y219841D01*
X357792Y219855D01*
X357652Y219865D01*
X357513Y219871D01*
X357373Y219873D01*
X358360Y227775D02*
X352434Y227775D01*
X358360Y227775D02*
X358484Y227773D01*
X358608Y227767D01*
X358732Y227757D01*
X358855Y227744D01*
X358978Y227726D01*
X359100Y227705D01*
X359222Y227680D01*
X359343Y227651D01*
X359462Y227618D01*
X359581Y227582D01*
X359698Y227541D01*
X359814Y227498D01*
X359929Y227450D01*
X360042Y227399D01*
X360154Y227344D01*
X360263Y227286D01*
X360371Y227225D01*
X360477Y227160D01*
X360581Y227092D01*
X360682Y227020D01*
X360782Y226946D01*
X360878Y226868D01*
X360973Y226788D01*
X361065Y226704D01*
X361154Y226618D01*
X361240Y226529D01*
X361324Y226437D01*
X361404Y226342D01*
X361482Y226246D01*
X361556Y226146D01*
X361628Y226045D01*
X361696Y225941D01*
X361761Y225835D01*
X361822Y225727D01*
X361880Y225618D01*
X361935Y225506D01*
X361986Y225393D01*
X362034Y225278D01*
X362077Y225162D01*
X362118Y225045D01*
X362154Y224926D01*
X362187Y224807D01*
X362216Y224686D01*
X362241Y224564D01*
X362262Y224442D01*
X362280Y224319D01*
X362293Y224196D01*
X362303Y224072D01*
X362309Y223948D01*
X362311Y223824D01*
X362309Y223700D01*
X362303Y223576D01*
X362293Y223452D01*
X362280Y223329D01*
X362262Y223206D01*
X362241Y223084D01*
X362216Y222962D01*
X362187Y222841D01*
X362154Y222722D01*
X362118Y222603D01*
X362077Y222486D01*
X362034Y222370D01*
X361986Y222255D01*
X361935Y222142D01*
X361880Y222030D01*
X361822Y221921D01*
X361761Y221813D01*
X361696Y221707D01*
X361628Y221603D01*
X361556Y221502D01*
X361482Y221402D01*
X361404Y221306D01*
X361324Y221211D01*
X361240Y221119D01*
X361154Y221030D01*
X361065Y220944D01*
X360973Y220860D01*
X360878Y220780D01*
X360782Y220702D01*
X360682Y220628D01*
X360581Y220556D01*
X360477Y220488D01*
X360371Y220423D01*
X360263Y220362D01*
X360154Y220304D01*
X360042Y220249D01*
X359929Y220198D01*
X359814Y220150D01*
X359698Y220107D01*
X359581Y220066D01*
X359462Y220030D01*
X359343Y219997D01*
X359222Y219968D01*
X359100Y219943D01*
X358978Y219922D01*
X358855Y219904D01*
X358732Y219891D01*
X358608Y219881D01*
X358484Y219875D01*
X358360Y219873D01*
X354409Y219873D01*
X231793Y302824D02*
X220365Y289203D01*
X231793Y302824D02*
X235577Y299649D01*
X235683Y299558D01*
X235786Y299464D01*
X235886Y299367D01*
X235984Y299267D01*
X236079Y299164D01*
X236170Y299059D01*
X236259Y298951D01*
X236345Y298840D01*
X236428Y298727D01*
X236507Y298612D01*
X236583Y298495D01*
X236656Y298376D01*
X236725Y298254D01*
X236791Y298131D01*
X236853Y298006D01*
X236912Y297879D01*
X236967Y297751D01*
X237019Y297621D01*
X237067Y297489D01*
X237111Y297357D01*
X237151Y297223D01*
X237187Y297088D01*
X237220Y296952D01*
X237249Y296815D01*
X237274Y296678D01*
X237295Y296540D01*
X237312Y296401D01*
X237325Y296262D01*
X237334Y296122D01*
X237340Y295982D01*
X237341Y295843D01*
X237338Y295703D01*
X237332Y295563D01*
X237321Y295424D01*
X237307Y295285D01*
X237288Y295146D01*
X237266Y295008D01*
X237240Y294871D01*
X237210Y294735D01*
X237176Y294599D01*
X237138Y294464D01*
X237096Y294331D01*
X237051Y294199D01*
X237002Y294068D01*
X236949Y293938D01*
X236893Y293810D01*
X236833Y293684D01*
X236769Y293560D01*
X236702Y293437D01*
X236632Y293316D01*
X236558Y293198D01*
X236481Y293081D01*
X236400Y292967D01*
X236317Y292855D01*
X236230Y292745D01*
X236140Y292638D01*
X236047Y292534D01*
X235952Y292432D01*
X235853Y292333D01*
X235752Y292236D01*
X235648Y292143D01*
X235541Y292053D01*
X235432Y291965D01*
X235320Y291881D01*
X235206Y291800D01*
X235090Y291723D01*
X234972Y291648D01*
X234851Y291577D01*
X234729Y291510D01*
X234605Y291445D01*
X234479Y291385D01*
X234351Y291328D01*
X234222Y291275D01*
X234091Y291225D01*
X233959Y291179D01*
X233826Y291137D01*
X233692Y291098D01*
X233556Y291064D01*
X233420Y291033D01*
X233283Y291006D01*
X233145Y290983D01*
X233006Y290964D01*
X232867Y290949D01*
X232728Y290938D01*
X232588Y290931D01*
X232449Y290927D01*
X232309Y290928D01*
X232169Y290932D01*
X232030Y290941D01*
X231890Y290954D01*
X231752Y290970D01*
X231613Y290990D01*
X231476Y291015D01*
X231339Y291043D01*
X231203Y291075D01*
X231068Y291111D01*
X230933Y291150D01*
X230801Y291194D01*
X230669Y291241D01*
X230539Y291292D01*
X230410Y291346D01*
X230283Y291405D01*
X230158Y291466D01*
X230034Y291532D01*
X229912Y291600D01*
X229793Y291673D01*
X229675Y291748D01*
X229560Y291827D01*
X229446Y291909D01*
X229336Y291994D01*
X229227Y292083D01*
X229228Y292082D02*
X225444Y295257D01*
X235157Y281949D02*
X247073Y290003D01*
X235157Y281949D02*
X242724Y275599D01*
X242994Y280531D02*
X237914Y274477D01*
X238991Y411890D02*
X238991Y429670D01*
X243930Y429670D01*
X244070Y429668D01*
X244209Y429662D01*
X244349Y429652D01*
X244488Y429638D01*
X244627Y429621D01*
X244765Y429599D01*
X244902Y429573D01*
X245039Y429544D01*
X245175Y429511D01*
X245309Y429474D01*
X245443Y429433D01*
X245575Y429388D01*
X245707Y429339D01*
X245836Y429287D01*
X245964Y429232D01*
X246091Y429172D01*
X246216Y429109D01*
X246339Y429043D01*
X246460Y428973D01*
X246579Y428900D01*
X246696Y428823D01*
X246810Y428743D01*
X246923Y428660D01*
X247033Y428574D01*
X247140Y428484D01*
X247245Y428392D01*
X247347Y428297D01*
X247447Y428199D01*
X247544Y428098D01*
X247638Y427994D01*
X247728Y427888D01*
X247816Y427779D01*
X247901Y427668D01*
X247982Y427554D01*
X248061Y427439D01*
X248136Y427321D01*
X248207Y427201D01*
X248275Y427078D01*
X248340Y426955D01*
X248401Y426829D01*
X248459Y426701D01*
X248513Y426573D01*
X248563Y426442D01*
X248610Y426310D01*
X248653Y426177D01*
X248692Y426043D01*
X248727Y425908D01*
X248758Y425772D01*
X248786Y425634D01*
X248809Y425497D01*
X248829Y425358D01*
X248845Y425219D01*
X248857Y425080D01*
X248865Y424941D01*
X248869Y424801D01*
X248869Y424661D01*
X248865Y424521D01*
X248857Y424382D01*
X248845Y424243D01*
X248829Y424104D01*
X248809Y423965D01*
X248786Y423828D01*
X248758Y423690D01*
X248727Y423554D01*
X248692Y423419D01*
X248653Y423285D01*
X248610Y423152D01*
X248563Y423020D01*
X248513Y422889D01*
X248459Y422761D01*
X248401Y422633D01*
X248340Y422507D01*
X248275Y422384D01*
X248207Y422262D01*
X248136Y422141D01*
X248061Y422023D01*
X247982Y421908D01*
X247901Y421794D01*
X247816Y421683D01*
X247728Y421574D01*
X247638Y421468D01*
X247544Y421364D01*
X247447Y421263D01*
X247347Y421165D01*
X247245Y421070D01*
X247140Y420978D01*
X247033Y420888D01*
X246923Y420802D01*
X246810Y420719D01*
X246696Y420639D01*
X246579Y420562D01*
X246460Y420489D01*
X246339Y420419D01*
X246216Y420353D01*
X246091Y420290D01*
X245964Y420230D01*
X245836Y420175D01*
X245707Y420123D01*
X245575Y420074D01*
X245443Y420029D01*
X245309Y419988D01*
X245175Y419951D01*
X245039Y419918D01*
X244902Y419889D01*
X244765Y419863D01*
X244627Y419841D01*
X244488Y419824D01*
X244349Y419810D01*
X244209Y419800D01*
X244070Y419794D01*
X243930Y419792D01*
X238991Y419792D01*
X254986Y411890D02*
X260913Y411890D01*
X261037Y411892D01*
X261161Y411898D01*
X261285Y411908D01*
X261408Y411921D01*
X261531Y411939D01*
X261653Y411960D01*
X261775Y411985D01*
X261896Y412014D01*
X262015Y412047D01*
X262134Y412083D01*
X262251Y412124D01*
X262367Y412167D01*
X262482Y412215D01*
X262595Y412266D01*
X262707Y412321D01*
X262816Y412379D01*
X262924Y412440D01*
X263030Y412505D01*
X263134Y412573D01*
X263235Y412645D01*
X263335Y412719D01*
X263431Y412797D01*
X263526Y412877D01*
X263618Y412961D01*
X263707Y413047D01*
X263793Y413136D01*
X263877Y413228D01*
X263957Y413323D01*
X264035Y413419D01*
X264109Y413519D01*
X264181Y413620D01*
X264249Y413724D01*
X264314Y413830D01*
X264375Y413938D01*
X264433Y414047D01*
X264488Y414159D01*
X264539Y414272D01*
X264587Y414387D01*
X264630Y414503D01*
X264671Y414620D01*
X264707Y414739D01*
X264740Y414858D01*
X264769Y414979D01*
X264794Y415101D01*
X264815Y415223D01*
X264833Y415346D01*
X264846Y415469D01*
X264856Y415593D01*
X264862Y415717D01*
X264864Y415841D01*
X264864Y417817D01*
X264862Y417941D01*
X264856Y418065D01*
X264846Y418189D01*
X264833Y418312D01*
X264815Y418435D01*
X264794Y418557D01*
X264769Y418679D01*
X264740Y418800D01*
X264707Y418919D01*
X264671Y419038D01*
X264630Y419155D01*
X264587Y419271D01*
X264539Y419386D01*
X264488Y419499D01*
X264433Y419611D01*
X264375Y419720D01*
X264314Y419828D01*
X264249Y419934D01*
X264181Y420038D01*
X264109Y420139D01*
X264035Y420239D01*
X263957Y420335D01*
X263877Y420430D01*
X263793Y420522D01*
X263707Y420611D01*
X263618Y420697D01*
X263526Y420781D01*
X263431Y420861D01*
X263335Y420939D01*
X263235Y421013D01*
X263134Y421085D01*
X263030Y421153D01*
X262924Y421218D01*
X262816Y421279D01*
X262707Y421337D01*
X262595Y421392D01*
X262482Y421443D01*
X262367Y421491D01*
X262251Y421534D01*
X262134Y421575D01*
X262015Y421611D01*
X261896Y421644D01*
X261775Y421673D01*
X261653Y421698D01*
X261531Y421719D01*
X261408Y421737D01*
X261285Y421750D01*
X261161Y421760D01*
X261037Y421766D01*
X260913Y421768D01*
X254986Y421768D01*
X254986Y429670D01*
X264864Y429670D01*
D12*
X269047Y254107D03*
D13*
X268531Y254254D03*
D14*
X267942Y254401D03*
D15*
X267500Y254549D03*
D16*
X266985Y254696D03*
D17*
X266543Y254843D03*
D18*
X265953Y254991D03*
D19*
X265438Y255138D03*
D20*
X264996Y255285D03*
D21*
X264554Y255433D03*
D22*
X264480Y255580D03*
D23*
X264554Y255727D03*
D24*
X264627Y255875D03*
D25*
X264554Y256022D03*
D26*
X264627Y256169D03*
D27*
X264627Y256316D03*
D28*
X264701Y256464D03*
X264701Y256611D03*
D29*
X264701Y256758D03*
D30*
X264775Y256906D03*
D31*
X264775Y257053D03*
X264775Y257200D03*
D32*
X264848Y257348D03*
D33*
X264848Y257495D03*
D34*
X264922Y257642D03*
D35*
X264848Y257790D03*
D36*
X264922Y257937D03*
D37*
X264996Y258084D03*
D38*
X264996Y258232D03*
X264996Y258379D03*
D39*
X265069Y258526D03*
D40*
X265069Y258674D03*
D41*
X265143Y258821D03*
D42*
X265069Y258968D03*
D43*
X265143Y259116D03*
D44*
X265217Y259263D03*
D45*
X265217Y259410D03*
X265217Y259558D03*
D46*
X265217Y259705D03*
D47*
X265290Y259852D03*
X265290Y259999D03*
D48*
X265290Y260147D03*
D49*
X265364Y260294D03*
D50*
X265364Y260441D03*
X265364Y260589D03*
D51*
X265438Y260736D03*
D52*
X265438Y260883D03*
D53*
X265511Y261031D03*
D54*
X265438Y261178D03*
D55*
X265511Y261325D03*
D56*
X265585Y261473D03*
D57*
X286062Y261473D03*
D58*
X265585Y261620D03*
D59*
X285473Y261620D03*
D58*
X265585Y261767D03*
D60*
X285031Y261767D03*
D61*
X265585Y261915D03*
D62*
X284516Y261915D03*
D63*
X265659Y262062D03*
D64*
X284074Y262062D03*
D63*
X265659Y262209D03*
D65*
X283484Y262209D03*
D66*
X265585Y262357D03*
D67*
X283042Y262357D03*
D66*
X265585Y262504D03*
D68*
X282527Y262504D03*
D63*
X265511Y262651D03*
D69*
X282085Y262651D03*
D66*
X265438Y262799D03*
D21*
X281938Y262799D03*
D66*
X265438Y262946D03*
D23*
X281938Y262946D03*
D66*
X265290Y263093D03*
D24*
X282011Y263093D03*
D66*
X265290Y263241D03*
D25*
X282085Y263241D03*
D63*
X265217Y263388D03*
D26*
X282011Y263388D03*
D66*
X265143Y263535D03*
D70*
X282085Y263535D03*
D66*
X265143Y263682D03*
D28*
X282085Y263682D03*
D66*
X264996Y263830D03*
D71*
X282159Y263830D03*
D66*
X264996Y263977D03*
D71*
X282159Y263977D03*
D63*
X264922Y264124D03*
D30*
X282159Y264124D03*
D66*
X264848Y264272D03*
D72*
X282232Y264272D03*
D66*
X264848Y264419D03*
D32*
X282232Y264419D03*
D66*
X264701Y264566D03*
D32*
X282232Y264566D03*
D66*
X264701Y264714D03*
D73*
X282306Y264714D03*
D63*
X264627Y264861D03*
D34*
X282306Y264861D03*
D61*
X264701Y265008D03*
D35*
X282379Y265008D03*
D61*
X264701Y265156D03*
D36*
X282306Y265156D03*
D74*
X264701Y265303D03*
D75*
X282379Y265303D03*
D76*
X264775Y265450D03*
D77*
X282453Y265450D03*
D55*
X264775Y265598D03*
D78*
X282453Y265598D03*
D55*
X264775Y265745D03*
D78*
X282453Y265745D03*
D54*
X264848Y265892D03*
D79*
X282527Y265892D03*
D52*
X264848Y266040D03*
D41*
X282527Y266040D03*
D80*
X264922Y266187D03*
D41*
X282527Y266187D03*
D51*
X264848Y266334D03*
D43*
X282527Y266334D03*
D81*
X264922Y266482D03*
D44*
X282600Y266482D03*
D82*
X264996Y266629D03*
D83*
X282674Y266629D03*
D48*
X264996Y266776D03*
D84*
X282600Y266776D03*
D48*
X264996Y266924D03*
D85*
X282674Y266924D03*
D86*
X265069Y267071D03*
D47*
X282674Y267071D03*
D46*
X265069Y267218D03*
D86*
X282748Y267218D03*
D46*
X265069Y267365D03*
D86*
X282748Y267365D03*
D84*
X265069Y267513D03*
D49*
X282748Y267513D03*
D87*
X265143Y267660D03*
D82*
X282821Y267660D03*
D44*
X265217Y267807D03*
D51*
X282821Y267807D03*
D43*
X265143Y267955D03*
D51*
X282821Y267955D03*
D42*
X265217Y268102D03*
D80*
X282895Y268102D03*
D40*
X265217Y268249D03*
D53*
X282895Y268249D03*
D79*
X265290Y268397D03*
D54*
X282969Y268397D03*
D79*
X265290Y268544D03*
D55*
X282895Y268544D03*
D88*
X265290Y268691D03*
D89*
X282969Y268691D03*
D77*
X265364Y268839D03*
D76*
X283042Y268839D03*
D36*
X265364Y268986D03*
D90*
X283042Y268986D03*
D36*
X265364Y269133D03*
D90*
X283042Y269133D03*
D35*
X265438Y269281D03*
D63*
X283042Y269281D03*
D33*
X265438Y269428D03*
D66*
X283116Y269428D03*
D73*
X265511Y269575D03*
D63*
X283042Y269575D03*
D32*
X265438Y269723D03*
D66*
X282969Y269723D03*
D91*
X265511Y269870D03*
D66*
X282969Y269870D03*
D92*
X265585Y270017D03*
D63*
X282895Y270017D03*
D29*
X265585Y270165D03*
D66*
X282821Y270165D03*
D29*
X265585Y270312D03*
D66*
X282821Y270312D03*
D71*
X265659Y270459D03*
D66*
X282674Y270459D03*
D27*
X265659Y270607D03*
D66*
X282674Y270607D03*
D70*
X265732Y270754D03*
D63*
X282600Y270754D03*
D93*
X265659Y270901D03*
D66*
X282527Y270901D03*
D25*
X265732Y271048D03*
D66*
X282527Y271048D03*
D24*
X265806Y271196D03*
D66*
X282379Y271196D03*
D23*
X265732Y271343D03*
D66*
X282379Y271343D03*
D22*
X265806Y271490D03*
D63*
X282306Y271490D03*
D69*
X265732Y271638D03*
D66*
X282232Y271638D03*
D94*
X265217Y271785D03*
D66*
X282232Y271785D03*
D67*
X264627Y271932D03*
D66*
X282085Y271932D03*
D65*
X264185Y272080D03*
D66*
X282085Y272080D03*
D95*
X263670Y272227D03*
D61*
X282085Y272227D03*
D96*
X263228Y272374D03*
D90*
X282159Y272374D03*
D60*
X262639Y272522D03*
D90*
X282159Y272522D03*
D97*
X262123Y272669D03*
D98*
X282159Y272669D03*
D99*
X261681Y272816D03*
D56*
X282232Y272816D03*
D100*
X271478Y272964D03*
D55*
X282158Y272964D03*
D101*
X270962Y273111D03*
D54*
X282232Y273111D03*
D14*
X270447Y273258D03*
D53*
X282306Y273258D03*
D102*
X269931Y273406D03*
D80*
X282306Y273406D03*
D16*
X269489Y273553D03*
D80*
X282306Y273553D03*
D103*
X268973Y273700D03*
D81*
X282306Y273700D03*
D18*
X268458Y273848D03*
D104*
X282379Y273848D03*
D19*
X267942Y273995D03*
D49*
X282453Y273995D03*
D105*
X267427Y274142D03*
D48*
X282379Y274142D03*
D106*
X266985Y274290D03*
D86*
X282453Y274290D03*
D22*
X266985Y274437D03*
D47*
X282527Y274437D03*
D23*
X267058Y274584D03*
D85*
X282527Y274584D03*
D24*
X267132Y274731D03*
D85*
X282527Y274731D03*
D25*
X267058Y274879D03*
D87*
X282527Y274879D03*
D26*
X267132Y275026D03*
D44*
X282600Y275026D03*
D107*
X267132Y275173D03*
D43*
X282674Y275173D03*
D28*
X267206Y275321D03*
D42*
X282600Y275321D03*
D28*
X267206Y275468D03*
D41*
X282674Y275468D03*
D29*
X267206Y275615D03*
D79*
X282674Y275615D03*
D30*
X267279Y275763D03*
D39*
X282748Y275763D03*
D31*
X267279Y275910D03*
D39*
X282748Y275910D03*
D31*
X267279Y276057D03*
D108*
X282748Y276057D03*
D32*
X267353Y276205D03*
D75*
X282821Y276205D03*
D33*
X267353Y276352D03*
D35*
X282821Y276352D03*
D34*
X267427Y276499D03*
D35*
X282821Y276499D03*
X267353Y276647D03*
D34*
X282895Y276647D03*
D36*
X267427Y276794D03*
D73*
X282895Y276794D03*
D75*
X267500Y276941D03*
D73*
X282895Y276941D03*
D38*
X267500Y277089D03*
D91*
X282895Y277089D03*
D38*
X267500Y277236D03*
D72*
X282969Y277236D03*
D79*
X267500Y277383D03*
D30*
X283042Y277383D03*
D40*
X267574Y277531D03*
D29*
X282969Y277531D03*
D41*
X267647Y277678D03*
D71*
X283042Y277678D03*
D42*
X267574Y277825D03*
D27*
X283042Y277825D03*
D43*
X267647Y277973D03*
D109*
X283116Y277973D03*
D87*
X267647Y278120D03*
D109*
X283116Y278120D03*
D45*
X267721Y278267D03*
D25*
X283116Y278267D03*
D45*
X267721Y278414D03*
D24*
X283190Y278414D03*
D46*
X267721Y278562D03*
D23*
X283263Y278562D03*
D47*
X267795Y278709D03*
D22*
X283190Y278709D03*
D47*
X267795Y278856D03*
D106*
X283190Y278856D03*
D48*
X267795Y279004D03*
D110*
X282748Y279004D03*
D49*
X267868Y279151D03*
D111*
X282232Y279151D03*
D50*
X267868Y279298D03*
D18*
X281717Y279298D03*
D50*
X267868Y279446D03*
D112*
X281201Y279446D03*
D51*
X267942Y279593D03*
D113*
X280759Y279593D03*
D52*
X267942Y279740D03*
D114*
X280243Y279740D03*
D53*
X268016Y279888D03*
D14*
X279728Y279888D03*
D54*
X267942Y280035D03*
D115*
X279212Y280035D03*
D55*
X268016Y280182D03*
D12*
X278770Y280182D03*
D56*
X268089Y280330D03*
D58*
X268089Y280477D03*
X268089Y280624D03*
D61*
X268089Y280772D03*
D63*
X268163Y280919D03*
X268163Y281066D03*
D66*
X268089Y281214D03*
X268089Y281361D03*
X267942Y281508D03*
X267942Y281656D03*
D63*
X267868Y281803D03*
D66*
X267795Y281950D03*
X267795Y282097D03*
X267647Y282245D03*
X267647Y282392D03*
D63*
X267574Y282539D03*
D66*
X267500Y282687D03*
X267500Y282834D03*
D63*
X267427Y282981D03*
D66*
X267353Y283129D03*
X267353Y283276D03*
X267206Y283423D03*
X267206Y283571D03*
D63*
X267132Y283718D03*
D61*
X267206Y283865D03*
X267206Y284013D03*
D74*
X267206Y284160D03*
D76*
X267279Y284307D03*
D55*
X267279Y284455D03*
X267279Y284602D03*
D54*
X267353Y284749D03*
D52*
X267353Y284897D03*
D80*
X267427Y285044D03*
D51*
X267353Y285191D03*
D81*
X267427Y285339D03*
D82*
X267500Y285486D03*
D116*
X267427Y285633D03*
D48*
X267500Y285780D03*
D47*
X267500Y285928D03*
D46*
X267574Y286075D03*
X267574Y286222D03*
D84*
X267574Y286370D03*
D87*
X267647Y286517D03*
D43*
X267647Y286664D03*
X267647Y286812D03*
D42*
X267721Y286959D03*
D40*
X267721Y287106D03*
D79*
X267795Y287254D03*
X267795Y287401D03*
D88*
X267795Y287548D03*
D77*
X267868Y287696D03*
D36*
X267868Y287843D03*
X267868Y287990D03*
D35*
X267942Y288138D03*
D33*
X267942Y288285D03*
D73*
X268016Y288432D03*
D32*
X267942Y288580D03*
D91*
X268016Y288727D03*
D92*
X268089Y288874D03*
D29*
X268089Y289022D03*
X268089Y289169D03*
D28*
X268089Y289316D03*
D27*
X268163Y289463D03*
D70*
X268237Y289611D03*
D93*
X268163Y289758D03*
D25*
X268237Y289905D03*
D23*
X268237Y290053D03*
X268237Y290200D03*
D22*
X268310Y290347D03*
D117*
X268163Y290495D03*
D118*
X267647Y290642D03*
D67*
X267132Y290789D03*
D119*
X266616Y290937D03*
D95*
X266174Y291084D03*
D120*
X265659Y291231D03*
D60*
X265143Y291379D03*
D97*
X264627Y291526D03*
D121*
X264112Y291673D03*
D11*
X249131Y334665D02*
X245180Y334665D01*
X245056Y334667D01*
X244932Y334673D01*
X244808Y334683D01*
X244685Y334696D01*
X244562Y334714D01*
X244440Y334735D01*
X244318Y334760D01*
X244197Y334789D01*
X244078Y334822D01*
X243959Y334858D01*
X243842Y334899D01*
X243726Y334942D01*
X243611Y334990D01*
X243498Y335041D01*
X243386Y335096D01*
X243277Y335154D01*
X243169Y335215D01*
X243063Y335280D01*
X242959Y335348D01*
X242858Y335420D01*
X242758Y335494D01*
X242662Y335572D01*
X242567Y335652D01*
X242475Y335736D01*
X242386Y335822D01*
X242300Y335911D01*
X242216Y336003D01*
X242136Y336098D01*
X242058Y336194D01*
X241984Y336294D01*
X241912Y336395D01*
X241844Y336499D01*
X241779Y336605D01*
X241718Y336713D01*
X241660Y336822D01*
X241605Y336934D01*
X241554Y337047D01*
X241506Y337162D01*
X241463Y337278D01*
X241422Y337395D01*
X241386Y337514D01*
X241353Y337633D01*
X241324Y337754D01*
X241299Y337876D01*
X241278Y337998D01*
X241260Y338121D01*
X241247Y338244D01*
X241237Y338368D01*
X241231Y338492D01*
X241229Y338616D01*
X241229Y348494D01*
X241231Y348618D01*
X241237Y348742D01*
X241247Y348866D01*
X241260Y348989D01*
X241278Y349112D01*
X241299Y349234D01*
X241324Y349356D01*
X241353Y349477D01*
X241386Y349596D01*
X241422Y349715D01*
X241463Y349832D01*
X241506Y349948D01*
X241554Y350063D01*
X241605Y350176D01*
X241660Y350288D01*
X241718Y350397D01*
X241779Y350505D01*
X241844Y350611D01*
X241912Y350715D01*
X241984Y350816D01*
X242058Y350916D01*
X242136Y351012D01*
X242216Y351107D01*
X242300Y351199D01*
X242386Y351288D01*
X242475Y351374D01*
X242567Y351458D01*
X242662Y351538D01*
X242758Y351616D01*
X242858Y351690D01*
X242959Y351762D01*
X243063Y351830D01*
X243169Y351895D01*
X243277Y351956D01*
X243386Y352014D01*
X243498Y352069D01*
X243611Y352120D01*
X243726Y352168D01*
X243842Y352211D01*
X243959Y352252D01*
X244078Y352288D01*
X244197Y352321D01*
X244318Y352350D01*
X244440Y352375D01*
X244562Y352396D01*
X244685Y352414D01*
X244808Y352427D01*
X244932Y352437D01*
X245056Y352443D01*
X245180Y352445D01*
X249131Y352445D01*
X240947Y326568D02*
X240947Y308788D01*
X240947Y326568D02*
X245886Y326568D01*
X246025Y326566D01*
X246163Y326560D01*
X246301Y326551D01*
X246439Y326537D01*
X246576Y326520D01*
X246713Y326498D01*
X246850Y326473D01*
X246985Y326444D01*
X247120Y326411D01*
X247253Y326375D01*
X247386Y326335D01*
X247517Y326291D01*
X247647Y326243D01*
X247776Y326192D01*
X247903Y326137D01*
X248029Y326079D01*
X248153Y326017D01*
X248275Y325952D01*
X248395Y325883D01*
X248514Y325811D01*
X248630Y325736D01*
X248744Y325657D01*
X248856Y325575D01*
X248965Y325490D01*
X249073Y325403D01*
X249177Y325312D01*
X249279Y325218D01*
X249378Y325121D01*
X249475Y325022D01*
X249569Y324920D01*
X249660Y324816D01*
X249747Y324708D01*
X249832Y324599D01*
X249914Y324487D01*
X249993Y324373D01*
X250068Y324257D01*
X250140Y324138D01*
X250209Y324018D01*
X250274Y323896D01*
X250336Y323772D01*
X250394Y323646D01*
X250449Y323519D01*
X250500Y323390D01*
X250548Y323260D01*
X250592Y323129D01*
X250632Y322996D01*
X250668Y322863D01*
X250701Y322728D01*
X250730Y322593D01*
X250755Y322456D01*
X250777Y322319D01*
X250794Y322182D01*
X250808Y322044D01*
X250817Y321906D01*
X250823Y321768D01*
X250825Y321629D01*
X250825Y313727D01*
X250823Y313588D01*
X250817Y313450D01*
X250808Y313312D01*
X250794Y313174D01*
X250777Y313037D01*
X250755Y312900D01*
X250730Y312763D01*
X250701Y312628D01*
X250668Y312493D01*
X250632Y312360D01*
X250592Y312227D01*
X250548Y312096D01*
X250500Y311966D01*
X250449Y311837D01*
X250394Y311710D01*
X250336Y311584D01*
X250274Y311460D01*
X250209Y311338D01*
X250140Y311218D01*
X250068Y311099D01*
X249993Y310983D01*
X249914Y310869D01*
X249832Y310757D01*
X249747Y310648D01*
X249660Y310540D01*
X249569Y310436D01*
X249475Y310334D01*
X249378Y310235D01*
X249279Y310138D01*
X249177Y310044D01*
X249073Y309953D01*
X248965Y309866D01*
X248856Y309781D01*
X248744Y309699D01*
X248630Y309620D01*
X248514Y309545D01*
X248395Y309473D01*
X248275Y309404D01*
X248153Y309339D01*
X248029Y309277D01*
X247903Y309219D01*
X247776Y309164D01*
X247647Y309113D01*
X247517Y309065D01*
X247386Y309021D01*
X247253Y308981D01*
X247120Y308945D01*
X246985Y308912D01*
X246850Y308883D01*
X246713Y308858D01*
X246576Y308836D01*
X246439Y308819D01*
X246301Y308805D01*
X246163Y308796D01*
X246025Y308790D01*
X245886Y308788D01*
X240947Y308788D01*
X241292Y370085D02*
X246231Y370085D01*
X246371Y370083D01*
X246510Y370077D01*
X246650Y370067D01*
X246789Y370053D01*
X246928Y370036D01*
X247066Y370014D01*
X247203Y369988D01*
X247340Y369959D01*
X247476Y369926D01*
X247610Y369889D01*
X247744Y369848D01*
X247876Y369803D01*
X248008Y369754D01*
X248137Y369702D01*
X248265Y369647D01*
X248392Y369587D01*
X248517Y369524D01*
X248640Y369458D01*
X248761Y369388D01*
X248880Y369315D01*
X248997Y369238D01*
X249111Y369158D01*
X249224Y369075D01*
X249334Y368989D01*
X249441Y368899D01*
X249546Y368807D01*
X249648Y368712D01*
X249748Y368614D01*
X249845Y368513D01*
X249939Y368409D01*
X250029Y368303D01*
X250117Y368194D01*
X250202Y368083D01*
X250283Y367969D01*
X250362Y367854D01*
X250437Y367736D01*
X250508Y367616D01*
X250576Y367493D01*
X250641Y367370D01*
X250702Y367244D01*
X250760Y367116D01*
X250814Y366988D01*
X250864Y366857D01*
X250911Y366725D01*
X250954Y366592D01*
X250993Y366458D01*
X251028Y366323D01*
X251059Y366187D01*
X251087Y366049D01*
X251110Y365912D01*
X251130Y365773D01*
X251146Y365634D01*
X251158Y365495D01*
X251166Y365356D01*
X251170Y365216D01*
X251170Y365076D01*
X251166Y364936D01*
X251158Y364797D01*
X251146Y364658D01*
X251130Y364519D01*
X251110Y364380D01*
X251087Y364243D01*
X251059Y364105D01*
X251028Y363969D01*
X250993Y363834D01*
X250954Y363700D01*
X250911Y363567D01*
X250864Y363435D01*
X250814Y363304D01*
X250760Y363176D01*
X250702Y363048D01*
X250641Y362922D01*
X250576Y362799D01*
X250508Y362677D01*
X250437Y362556D01*
X250362Y362438D01*
X250283Y362323D01*
X250202Y362209D01*
X250117Y362098D01*
X250029Y361989D01*
X249939Y361883D01*
X249845Y361779D01*
X249748Y361678D01*
X249648Y361580D01*
X249546Y361485D01*
X249441Y361393D01*
X249334Y361303D01*
X249224Y361217D01*
X249111Y361134D01*
X248997Y361054D01*
X248880Y360977D01*
X248761Y360904D01*
X248640Y360834D01*
X248517Y360768D01*
X248392Y360705D01*
X248265Y360645D01*
X248137Y360590D01*
X248008Y360538D01*
X247876Y360489D01*
X247744Y360444D01*
X247610Y360403D01*
X247476Y360366D01*
X247340Y360333D01*
X247203Y360304D01*
X247066Y360278D01*
X246928Y360256D01*
X246789Y360239D01*
X246650Y360225D01*
X246510Y360215D01*
X246371Y360209D01*
X246231Y360207D01*
X246231Y360208D02*
X241292Y360208D01*
X241292Y377988D01*
X246231Y377988D01*
X246231Y377987D02*
X246355Y377985D01*
X246479Y377979D01*
X246603Y377969D01*
X246726Y377956D01*
X246849Y377938D01*
X246971Y377917D01*
X247093Y377892D01*
X247214Y377863D01*
X247333Y377830D01*
X247452Y377794D01*
X247569Y377753D01*
X247685Y377710D01*
X247800Y377662D01*
X247913Y377611D01*
X248025Y377556D01*
X248134Y377498D01*
X248242Y377437D01*
X248348Y377372D01*
X248452Y377304D01*
X248553Y377232D01*
X248653Y377158D01*
X248749Y377080D01*
X248844Y377000D01*
X248936Y376916D01*
X249025Y376830D01*
X249111Y376741D01*
X249195Y376649D01*
X249275Y376554D01*
X249353Y376458D01*
X249427Y376358D01*
X249499Y376257D01*
X249567Y376153D01*
X249632Y376047D01*
X249693Y375939D01*
X249751Y375830D01*
X249806Y375718D01*
X249857Y375605D01*
X249905Y375490D01*
X249948Y375374D01*
X249989Y375257D01*
X250025Y375138D01*
X250058Y375019D01*
X250087Y374898D01*
X250112Y374776D01*
X250133Y374654D01*
X250151Y374531D01*
X250164Y374408D01*
X250174Y374284D01*
X250180Y374160D01*
X250182Y374036D01*
X250180Y373912D01*
X250174Y373788D01*
X250164Y373664D01*
X250151Y373541D01*
X250133Y373418D01*
X250112Y373296D01*
X250087Y373174D01*
X250058Y373053D01*
X250025Y372934D01*
X249989Y372815D01*
X249948Y372698D01*
X249905Y372582D01*
X249857Y372467D01*
X249806Y372354D01*
X249751Y372242D01*
X249693Y372133D01*
X249632Y372025D01*
X249567Y371919D01*
X249499Y371815D01*
X249427Y371714D01*
X249353Y371614D01*
X249275Y371518D01*
X249195Y371423D01*
X249111Y371331D01*
X249025Y371242D01*
X248936Y371156D01*
X248844Y371072D01*
X248749Y370992D01*
X248653Y370914D01*
X248553Y370840D01*
X248452Y370768D01*
X248348Y370700D01*
X248242Y370635D01*
X248134Y370574D01*
X248025Y370516D01*
X247913Y370461D01*
X247800Y370410D01*
X247685Y370362D01*
X247569Y370319D01*
X247452Y370278D01*
X247333Y370242D01*
X247214Y370209D01*
X247093Y370180D01*
X246971Y370155D01*
X246849Y370134D01*
X246726Y370116D01*
X246603Y370103D01*
X246479Y370093D01*
X246355Y370087D01*
X246231Y370085D01*
X480058Y363240D02*
X480058Y381020D01*
X484997Y381020D01*
X485137Y381018D01*
X485276Y381012D01*
X485416Y381002D01*
X485555Y380988D01*
X485694Y380971D01*
X485832Y380949D01*
X485969Y380923D01*
X486106Y380894D01*
X486242Y380861D01*
X486376Y380824D01*
X486510Y380783D01*
X486642Y380738D01*
X486774Y380689D01*
X486903Y380637D01*
X487031Y380582D01*
X487158Y380522D01*
X487283Y380459D01*
X487406Y380393D01*
X487527Y380323D01*
X487646Y380250D01*
X487763Y380173D01*
X487877Y380093D01*
X487990Y380010D01*
X488100Y379924D01*
X488207Y379834D01*
X488312Y379742D01*
X488414Y379647D01*
X488514Y379549D01*
X488611Y379448D01*
X488705Y379344D01*
X488795Y379238D01*
X488883Y379129D01*
X488968Y379018D01*
X489049Y378904D01*
X489128Y378789D01*
X489203Y378671D01*
X489274Y378551D01*
X489342Y378428D01*
X489407Y378305D01*
X489468Y378179D01*
X489526Y378051D01*
X489580Y377923D01*
X489630Y377792D01*
X489677Y377660D01*
X489720Y377527D01*
X489759Y377393D01*
X489794Y377258D01*
X489825Y377122D01*
X489853Y376984D01*
X489876Y376847D01*
X489896Y376708D01*
X489912Y376569D01*
X489924Y376430D01*
X489932Y376291D01*
X489936Y376151D01*
X489936Y376011D01*
X489932Y375871D01*
X489924Y375732D01*
X489912Y375593D01*
X489896Y375454D01*
X489876Y375315D01*
X489853Y375178D01*
X489825Y375040D01*
X489794Y374904D01*
X489759Y374769D01*
X489720Y374635D01*
X489677Y374502D01*
X489630Y374370D01*
X489580Y374239D01*
X489526Y374111D01*
X489468Y373983D01*
X489407Y373857D01*
X489342Y373734D01*
X489274Y373612D01*
X489203Y373491D01*
X489128Y373373D01*
X489049Y373258D01*
X488968Y373144D01*
X488883Y373033D01*
X488795Y372924D01*
X488705Y372818D01*
X488611Y372714D01*
X488514Y372613D01*
X488414Y372515D01*
X488312Y372420D01*
X488207Y372328D01*
X488100Y372238D01*
X487990Y372152D01*
X487877Y372069D01*
X487763Y371989D01*
X487646Y371912D01*
X487527Y371839D01*
X487406Y371769D01*
X487283Y371703D01*
X487158Y371640D01*
X487031Y371580D01*
X486903Y371525D01*
X486774Y371473D01*
X486642Y371424D01*
X486510Y371379D01*
X486376Y371338D01*
X486242Y371301D01*
X486106Y371268D01*
X485969Y371239D01*
X485832Y371213D01*
X485694Y371191D01*
X485555Y371174D01*
X485416Y371160D01*
X485276Y371150D01*
X485137Y371144D01*
X484997Y371142D01*
X484997Y371143D02*
X480058Y371143D01*
X485984Y371143D02*
X489936Y363240D01*
D122*
X291425Y231775D02*
X291425Y229275D01*
X291425Y231775D02*
X291425Y234275D01*
X291425Y231775D02*
X286425Y229275D01*
X286425Y234275D02*
X291425Y231775D01*
X286425Y234275D02*
X286425Y229275D01*
X276425Y226775D02*
X276425Y236775D01*
X301425Y236775D01*
X301425Y226775D01*
X276425Y226775D01*
D123*
X282762Y237159D02*
X282762Y246557D01*
X285372Y246557D01*
X285472Y246555D01*
X285572Y246549D01*
X285671Y246540D01*
X285771Y246526D01*
X285869Y246509D01*
X285967Y246488D01*
X286064Y246464D01*
X286160Y246435D01*
X286255Y246403D01*
X286348Y246368D01*
X286440Y246329D01*
X286531Y246286D01*
X286619Y246240D01*
X286706Y246190D01*
X286791Y246138D01*
X286874Y246082D01*
X286955Y246023D01*
X287033Y245960D01*
X287109Y245895D01*
X287183Y245827D01*
X287253Y245757D01*
X287321Y245683D01*
X287386Y245607D01*
X287449Y245529D01*
X287508Y245448D01*
X287564Y245365D01*
X287616Y245280D01*
X287666Y245193D01*
X287712Y245105D01*
X287755Y245014D01*
X287794Y244922D01*
X287829Y244829D01*
X287861Y244734D01*
X287890Y244638D01*
X287914Y244541D01*
X287935Y244443D01*
X287952Y244345D01*
X287966Y244245D01*
X287975Y244146D01*
X287981Y244046D01*
X287983Y243946D01*
X287983Y239769D01*
X287981Y239669D01*
X287975Y239569D01*
X287966Y239470D01*
X287952Y239370D01*
X287935Y239272D01*
X287914Y239174D01*
X287890Y239077D01*
X287861Y238981D01*
X287829Y238886D01*
X287794Y238793D01*
X287755Y238701D01*
X287712Y238610D01*
X287666Y238522D01*
X287616Y238435D01*
X287564Y238350D01*
X287508Y238267D01*
X287449Y238186D01*
X287386Y238108D01*
X287321Y238032D01*
X287253Y237958D01*
X287183Y237888D01*
X287109Y237820D01*
X287033Y237755D01*
X286955Y237692D01*
X286874Y237633D01*
X286791Y237577D01*
X286706Y237525D01*
X286619Y237475D01*
X286531Y237429D01*
X286440Y237386D01*
X286348Y237347D01*
X286255Y237312D01*
X286160Y237280D01*
X286064Y237251D01*
X285967Y237227D01*
X285869Y237206D01*
X285771Y237189D01*
X285671Y237175D01*
X285572Y237166D01*
X285472Y237160D01*
X285372Y237158D01*
X285372Y237159D02*
X282762Y237159D01*
X292210Y244468D02*
X294821Y246557D01*
X294821Y237159D01*
X292210Y237159D02*
X297432Y237159D01*
X340106Y236919D02*
X340106Y246317D01*
X344283Y246317D01*
X344283Y242140D02*
X340106Y242140D01*
X348145Y242140D02*
X350755Y242140D01*
X350856Y242138D01*
X350957Y242132D01*
X351058Y242122D01*
X351158Y242109D01*
X351258Y242091D01*
X351357Y242070D01*
X351455Y242044D01*
X351552Y242015D01*
X351648Y241983D01*
X351742Y241946D01*
X351835Y241906D01*
X351927Y241862D01*
X352016Y241815D01*
X352104Y241764D01*
X352190Y241710D01*
X352273Y241653D01*
X352355Y241593D01*
X352433Y241529D01*
X352510Y241463D01*
X352583Y241393D01*
X352654Y241321D01*
X352722Y241246D01*
X352787Y241168D01*
X352849Y241088D01*
X352908Y241006D01*
X352964Y240921D01*
X353016Y240834D01*
X353065Y240746D01*
X353111Y240655D01*
X353152Y240563D01*
X353191Y240469D01*
X353225Y240374D01*
X353256Y240278D01*
X353283Y240180D01*
X353307Y240082D01*
X353326Y239982D01*
X353342Y239882D01*
X353354Y239782D01*
X353362Y239681D01*
X353366Y239580D01*
X353366Y239478D01*
X353362Y239377D01*
X353354Y239276D01*
X353342Y239176D01*
X353326Y239076D01*
X353307Y238976D01*
X353283Y238878D01*
X353256Y238780D01*
X353225Y238684D01*
X353191Y238589D01*
X353152Y238495D01*
X353111Y238403D01*
X353065Y238312D01*
X353016Y238223D01*
X352964Y238137D01*
X352908Y238052D01*
X352849Y237970D01*
X352787Y237890D01*
X352722Y237812D01*
X352654Y237737D01*
X352583Y237665D01*
X352510Y237595D01*
X352433Y237529D01*
X352355Y237465D01*
X352273Y237405D01*
X352190Y237348D01*
X352104Y237294D01*
X352016Y237243D01*
X351927Y237196D01*
X351835Y237152D01*
X351742Y237112D01*
X351648Y237075D01*
X351552Y237043D01*
X351455Y237014D01*
X351357Y236988D01*
X351258Y236967D01*
X351158Y236949D01*
X351058Y236936D01*
X350957Y236926D01*
X350856Y236920D01*
X350755Y236918D01*
X350755Y236919D02*
X348145Y236919D01*
X348145Y246317D01*
X350755Y246317D01*
X350755Y246316D02*
X350845Y246314D01*
X350934Y246308D01*
X351024Y246299D01*
X351113Y246285D01*
X351201Y246268D01*
X351288Y246247D01*
X351375Y246222D01*
X351460Y246193D01*
X351544Y246161D01*
X351626Y246126D01*
X351707Y246086D01*
X351786Y246044D01*
X351863Y245998D01*
X351938Y245948D01*
X352011Y245896D01*
X352082Y245840D01*
X352150Y245782D01*
X352215Y245720D01*
X352278Y245656D01*
X352338Y245589D01*
X352395Y245520D01*
X352449Y245448D01*
X352500Y245374D01*
X352548Y245298D01*
X352592Y245220D01*
X352633Y245140D01*
X352671Y245058D01*
X352705Y244975D01*
X352735Y244890D01*
X352762Y244804D01*
X352785Y244718D01*
X352804Y244630D01*
X352819Y244541D01*
X352831Y244452D01*
X352839Y244363D01*
X352843Y244273D01*
X352843Y244183D01*
X352839Y244093D01*
X352831Y244004D01*
X352819Y243915D01*
X352804Y243826D01*
X352785Y243738D01*
X352762Y243652D01*
X352735Y243566D01*
X352705Y243481D01*
X352671Y243398D01*
X352633Y243316D01*
X352592Y243236D01*
X352548Y243158D01*
X352500Y243082D01*
X352449Y243008D01*
X352395Y242936D01*
X352338Y242867D01*
X352278Y242800D01*
X352215Y242736D01*
X352150Y242674D01*
X352082Y242616D01*
X352011Y242560D01*
X351938Y242508D01*
X351863Y242458D01*
X351786Y242412D01*
X351707Y242370D01*
X351626Y242330D01*
X351544Y242295D01*
X351460Y242263D01*
X351375Y242234D01*
X351288Y242209D01*
X351201Y242188D01*
X351113Y242171D01*
X351024Y242157D01*
X350934Y242148D01*
X350845Y242142D01*
X350755Y242140D01*
X356852Y244228D02*
X359463Y246317D01*
X359463Y236919D01*
X356852Y236919D02*
X362074Y236919D01*
D11*
X455613Y358775D02*
X468313Y358775D01*
X455613Y358775D02*
X449263Y365125D01*
X449263Y377825D01*
X455613Y384175D01*
X474663Y377825D02*
X474663Y365125D01*
X468313Y358775D01*
X474663Y377825D02*
X468313Y384175D01*
X455613Y384175D01*
X234950Y374650D02*
X234950Y361950D01*
X228600Y355600D01*
X215900Y355600D01*
X209550Y361950D01*
X228600Y355600D02*
X234950Y349250D01*
X234950Y336550D01*
X228600Y330200D01*
X215900Y330200D01*
X209550Y336550D01*
X209550Y349250D01*
X215900Y355600D01*
X215900Y381000D02*
X228600Y381000D01*
X234950Y374650D01*
X215900Y381000D02*
X209550Y374650D01*
X209550Y361950D01*
X228600Y330200D02*
X234950Y323850D01*
X234950Y311150D01*
X228600Y304800D01*
X215900Y304800D01*
X209550Y311150D01*
X209550Y323850D01*
X215900Y330200D01*
D124*
X281663Y438000D02*
X281663Y491000D01*
X413663Y491000D01*
X413663Y438000D01*
X281663Y438000D02*
X281663Y325000D01*
X413663Y325000D01*
X413663Y438000D01*
D123*
X339412Y419049D02*
X339412Y409651D01*
X338368Y409651D02*
X340456Y409651D01*
X340456Y419049D02*
X338368Y419049D01*
X346179Y409651D02*
X348268Y409651D01*
X346179Y409651D02*
X346090Y409653D01*
X346002Y409659D01*
X345914Y409668D01*
X345826Y409681D01*
X345739Y409698D01*
X345653Y409718D01*
X345568Y409743D01*
X345483Y409770D01*
X345400Y409802D01*
X345319Y409836D01*
X345239Y409875D01*
X345161Y409916D01*
X345084Y409961D01*
X345010Y410009D01*
X344937Y410060D01*
X344867Y410114D01*
X344800Y410172D01*
X344734Y410232D01*
X344672Y410294D01*
X344612Y410360D01*
X344554Y410427D01*
X344500Y410497D01*
X344449Y410570D01*
X344401Y410644D01*
X344356Y410721D01*
X344315Y410799D01*
X344276Y410879D01*
X344242Y410960D01*
X344210Y411043D01*
X344183Y411128D01*
X344158Y411213D01*
X344138Y411299D01*
X344121Y411386D01*
X344108Y411474D01*
X344099Y411562D01*
X344093Y411650D01*
X344091Y411739D01*
X344091Y416961D01*
X344093Y417052D01*
X344099Y417143D01*
X344109Y417234D01*
X344123Y417324D01*
X344140Y417413D01*
X344162Y417501D01*
X344188Y417589D01*
X344217Y417675D01*
X344250Y417760D01*
X344287Y417843D01*
X344327Y417925D01*
X344371Y418005D01*
X344418Y418083D01*
X344469Y418159D01*
X344522Y418232D01*
X344579Y418303D01*
X344640Y418372D01*
X344703Y418437D01*
X344768Y418500D01*
X344837Y418560D01*
X344908Y418618D01*
X344981Y418671D01*
X345057Y418722D01*
X345135Y418769D01*
X345215Y418813D01*
X345297Y418853D01*
X345380Y418890D01*
X345465Y418923D01*
X345551Y418952D01*
X345639Y418978D01*
X345727Y419000D01*
X345816Y419017D01*
X345906Y419031D01*
X345997Y419041D01*
X346088Y419047D01*
X346179Y419049D01*
X348268Y419049D01*
X351736Y416961D02*
X354347Y419049D01*
X354347Y409651D01*
X356957Y409651D02*
X351736Y409651D01*
X266517Y320929D02*
X266517Y311531D01*
X263906Y320929D02*
X269127Y320929D01*
X272833Y320929D02*
X272833Y311531D01*
X275965Y315708D02*
X272833Y320929D01*
X275965Y315708D02*
X279098Y320929D01*
X279098Y311531D01*
X286241Y311531D02*
X286330Y311533D01*
X286418Y311539D01*
X286506Y311548D01*
X286594Y311561D01*
X286681Y311578D01*
X286767Y311598D01*
X286852Y311623D01*
X286937Y311650D01*
X287020Y311682D01*
X287101Y311716D01*
X287181Y311755D01*
X287259Y311796D01*
X287336Y311841D01*
X287410Y311889D01*
X287483Y311940D01*
X287553Y311994D01*
X287620Y312052D01*
X287686Y312112D01*
X287748Y312174D01*
X287808Y312240D01*
X287866Y312307D01*
X287920Y312377D01*
X287971Y312450D01*
X288019Y312524D01*
X288064Y312601D01*
X288105Y312679D01*
X288144Y312759D01*
X288178Y312840D01*
X288210Y312923D01*
X288237Y313008D01*
X288262Y313093D01*
X288282Y313179D01*
X288299Y313266D01*
X288312Y313354D01*
X288321Y313442D01*
X288327Y313530D01*
X288329Y313619D01*
X286241Y311531D02*
X286112Y311533D01*
X285983Y311539D01*
X285854Y311548D01*
X285726Y311561D01*
X285598Y311578D01*
X285471Y311599D01*
X285344Y311623D01*
X285218Y311651D01*
X285093Y311683D01*
X284969Y311718D01*
X284846Y311757D01*
X284724Y311800D01*
X284604Y311846D01*
X284485Y311896D01*
X284367Y311949D01*
X284251Y312005D01*
X284137Y312065D01*
X284024Y312128D01*
X283914Y312195D01*
X283805Y312264D01*
X283699Y312337D01*
X283594Y312413D01*
X283492Y312492D01*
X283393Y312574D01*
X283295Y312658D01*
X283200Y312746D01*
X283108Y312836D01*
X283370Y318841D02*
X283372Y318930D01*
X283378Y319018D01*
X283387Y319106D01*
X283400Y319194D01*
X283417Y319281D01*
X283437Y319367D01*
X283462Y319452D01*
X283489Y319537D01*
X283521Y319620D01*
X283555Y319701D01*
X283594Y319781D01*
X283635Y319859D01*
X283680Y319936D01*
X283728Y320010D01*
X283779Y320083D01*
X283833Y320153D01*
X283891Y320220D01*
X283951Y320286D01*
X284013Y320348D01*
X284079Y320408D01*
X284146Y320466D01*
X284216Y320520D01*
X284289Y320571D01*
X284363Y320619D01*
X284440Y320664D01*
X284518Y320705D01*
X284598Y320744D01*
X284679Y320778D01*
X284762Y320810D01*
X284847Y320837D01*
X284932Y320862D01*
X285018Y320882D01*
X285105Y320899D01*
X285193Y320912D01*
X285281Y320921D01*
X285369Y320927D01*
X285458Y320929D01*
X285578Y320927D01*
X285698Y320922D01*
X285818Y320912D01*
X285937Y320900D01*
X286056Y320883D01*
X286174Y320863D01*
X286292Y320839D01*
X286408Y320812D01*
X286524Y320781D01*
X286639Y320747D01*
X286753Y320709D01*
X286866Y320667D01*
X286977Y320622D01*
X287087Y320574D01*
X287195Y320523D01*
X287302Y320468D01*
X287407Y320410D01*
X287510Y320348D01*
X287611Y320284D01*
X287711Y320216D01*
X287808Y320146D01*
X284413Y317014D02*
X284335Y317062D01*
X284259Y317114D01*
X284186Y317168D01*
X284115Y317226D01*
X284046Y317287D01*
X283980Y317351D01*
X283917Y317418D01*
X283857Y317487D01*
X283800Y317559D01*
X283746Y317633D01*
X283696Y317710D01*
X283648Y317789D01*
X283605Y317869D01*
X283564Y317952D01*
X283528Y318036D01*
X283495Y318121D01*
X283466Y318208D01*
X283440Y318297D01*
X283418Y318386D01*
X283401Y318476D01*
X283387Y318566D01*
X283377Y318658D01*
X283371Y318749D01*
X283369Y318841D01*
X287285Y315446D02*
X287363Y315398D01*
X287439Y315346D01*
X287512Y315292D01*
X287583Y315234D01*
X287652Y315173D01*
X287718Y315109D01*
X287781Y315042D01*
X287841Y314973D01*
X287898Y314901D01*
X287952Y314827D01*
X288002Y314750D01*
X288050Y314671D01*
X288093Y314591D01*
X288134Y314508D01*
X288170Y314424D01*
X288203Y314339D01*
X288232Y314252D01*
X288258Y314163D01*
X288280Y314074D01*
X288297Y313984D01*
X288311Y313894D01*
X288321Y313802D01*
X288327Y313711D01*
X288329Y313619D01*
X287285Y315447D02*
X284414Y317013D01*
X298267Y320929D02*
X298267Y311531D01*
X295656Y320929D02*
X300877Y320929D01*
X304495Y320929D02*
X304495Y311531D01*
X304495Y320929D02*
X307106Y320929D01*
X307206Y320927D01*
X307306Y320921D01*
X307405Y320912D01*
X307505Y320898D01*
X307603Y320881D01*
X307701Y320860D01*
X307798Y320836D01*
X307894Y320807D01*
X307989Y320775D01*
X308082Y320740D01*
X308174Y320701D01*
X308265Y320658D01*
X308353Y320612D01*
X308440Y320562D01*
X308525Y320510D01*
X308608Y320454D01*
X308689Y320395D01*
X308767Y320332D01*
X308843Y320267D01*
X308917Y320199D01*
X308987Y320129D01*
X309055Y320055D01*
X309120Y319979D01*
X309183Y319901D01*
X309242Y319820D01*
X309298Y319737D01*
X309350Y319652D01*
X309400Y319565D01*
X309446Y319477D01*
X309489Y319386D01*
X309528Y319294D01*
X309563Y319201D01*
X309595Y319106D01*
X309624Y319010D01*
X309648Y318913D01*
X309669Y318815D01*
X309686Y318717D01*
X309700Y318617D01*
X309709Y318518D01*
X309715Y318418D01*
X309717Y318318D01*
X309716Y318318D02*
X309716Y314142D01*
X309717Y314142D02*
X309715Y314042D01*
X309709Y313942D01*
X309700Y313843D01*
X309686Y313743D01*
X309669Y313645D01*
X309648Y313547D01*
X309624Y313450D01*
X309595Y313354D01*
X309563Y313259D01*
X309528Y313166D01*
X309489Y313074D01*
X309446Y312983D01*
X309400Y312895D01*
X309350Y312808D01*
X309298Y312723D01*
X309242Y312640D01*
X309183Y312559D01*
X309120Y312481D01*
X309055Y312405D01*
X308987Y312331D01*
X308917Y312261D01*
X308843Y312193D01*
X308767Y312128D01*
X308689Y312065D01*
X308608Y312006D01*
X308525Y311950D01*
X308440Y311898D01*
X308353Y311848D01*
X308265Y311802D01*
X308174Y311759D01*
X308082Y311720D01*
X307989Y311685D01*
X307894Y311653D01*
X307798Y311624D01*
X307701Y311600D01*
X307603Y311579D01*
X307505Y311562D01*
X307405Y311548D01*
X307306Y311539D01*
X307206Y311533D01*
X307106Y311531D01*
X304495Y311531D01*
X314726Y311531D02*
X314726Y320929D01*
X313682Y311531D02*
X315770Y311531D01*
X315770Y320929D02*
X313682Y320929D01*
X325254Y320929D02*
X325254Y311531D01*
X322644Y320929D02*
X327865Y320929D01*
X333241Y311531D02*
X335329Y311531D01*
X333241Y311531D02*
X333152Y311533D01*
X333064Y311539D01*
X332976Y311548D01*
X332888Y311561D01*
X332801Y311578D01*
X332715Y311598D01*
X332630Y311623D01*
X332545Y311650D01*
X332462Y311682D01*
X332381Y311716D01*
X332301Y311755D01*
X332223Y311796D01*
X332146Y311841D01*
X332072Y311889D01*
X331999Y311940D01*
X331929Y311994D01*
X331862Y312052D01*
X331796Y312112D01*
X331734Y312174D01*
X331674Y312240D01*
X331616Y312307D01*
X331562Y312377D01*
X331511Y312450D01*
X331463Y312524D01*
X331418Y312601D01*
X331377Y312679D01*
X331338Y312759D01*
X331304Y312840D01*
X331272Y312923D01*
X331245Y313008D01*
X331220Y313093D01*
X331200Y313179D01*
X331183Y313266D01*
X331170Y313354D01*
X331161Y313442D01*
X331155Y313530D01*
X331153Y313619D01*
X331152Y313619D02*
X331152Y318841D01*
X331153Y318841D02*
X331155Y318932D01*
X331161Y319023D01*
X331171Y319114D01*
X331185Y319204D01*
X331202Y319293D01*
X331224Y319381D01*
X331250Y319469D01*
X331279Y319555D01*
X331312Y319640D01*
X331349Y319723D01*
X331389Y319805D01*
X331433Y319885D01*
X331480Y319963D01*
X331531Y320039D01*
X331584Y320112D01*
X331641Y320183D01*
X331702Y320252D01*
X331765Y320317D01*
X331830Y320380D01*
X331899Y320440D01*
X331970Y320498D01*
X332043Y320551D01*
X332119Y320602D01*
X332197Y320649D01*
X332277Y320693D01*
X332359Y320733D01*
X332442Y320770D01*
X332527Y320803D01*
X332613Y320832D01*
X332701Y320858D01*
X332789Y320880D01*
X332878Y320897D01*
X332968Y320911D01*
X333059Y320921D01*
X333150Y320927D01*
X333241Y320929D01*
X335329Y320929D01*
X339234Y320929D02*
X339234Y311531D01*
X339234Y315186D02*
X344455Y320929D01*
X341322Y317274D02*
X344455Y311531D01*
X355417Y311531D02*
X355417Y320929D01*
X358027Y320929D02*
X352806Y320929D01*
X361645Y320929D02*
X361645Y311531D01*
X361645Y320929D02*
X364256Y320929D01*
X364356Y320927D01*
X364456Y320921D01*
X364555Y320912D01*
X364655Y320898D01*
X364753Y320881D01*
X364851Y320860D01*
X364948Y320836D01*
X365044Y320807D01*
X365139Y320775D01*
X365232Y320740D01*
X365324Y320701D01*
X365415Y320658D01*
X365503Y320612D01*
X365590Y320562D01*
X365675Y320510D01*
X365758Y320454D01*
X365839Y320395D01*
X365917Y320332D01*
X365993Y320267D01*
X366067Y320199D01*
X366137Y320129D01*
X366205Y320055D01*
X366270Y319979D01*
X366333Y319901D01*
X366392Y319820D01*
X366448Y319737D01*
X366500Y319652D01*
X366550Y319565D01*
X366596Y319477D01*
X366639Y319386D01*
X366678Y319294D01*
X366713Y319201D01*
X366745Y319106D01*
X366774Y319010D01*
X366798Y318913D01*
X366819Y318815D01*
X366836Y318717D01*
X366850Y318617D01*
X366859Y318518D01*
X366865Y318418D01*
X366867Y318318D01*
X366866Y318318D02*
X366866Y314142D01*
X366867Y314142D02*
X366865Y314042D01*
X366859Y313942D01*
X366850Y313843D01*
X366836Y313743D01*
X366819Y313645D01*
X366798Y313547D01*
X366774Y313450D01*
X366745Y313354D01*
X366713Y313259D01*
X366678Y313166D01*
X366639Y313074D01*
X366596Y312983D01*
X366550Y312895D01*
X366500Y312808D01*
X366448Y312723D01*
X366392Y312640D01*
X366333Y312559D01*
X366270Y312481D01*
X366205Y312405D01*
X366137Y312331D01*
X366067Y312261D01*
X365993Y312193D01*
X365917Y312128D01*
X365839Y312065D01*
X365758Y312006D01*
X365675Y311950D01*
X365590Y311898D01*
X365503Y311848D01*
X365415Y311802D01*
X365324Y311759D01*
X365232Y311720D01*
X365139Y311685D01*
X365044Y311653D01*
X364948Y311624D01*
X364851Y311600D01*
X364753Y311579D01*
X364655Y311562D01*
X364555Y311548D01*
X364456Y311539D01*
X364356Y311533D01*
X364256Y311531D01*
X361645Y311531D01*
X371530Y311531D02*
X371530Y320929D01*
X376751Y320929D02*
X371530Y315186D01*
X373618Y317274D02*
X376751Y311531D01*
X386144Y274236D02*
X395542Y274236D01*
X386144Y274236D02*
X386144Y276847D01*
X386143Y276847D02*
X386145Y276948D01*
X386151Y277049D01*
X386161Y277150D01*
X386174Y277250D01*
X386192Y277350D01*
X386213Y277449D01*
X386239Y277547D01*
X386268Y277644D01*
X386300Y277740D01*
X386337Y277834D01*
X386377Y277927D01*
X386421Y278019D01*
X386468Y278108D01*
X386519Y278196D01*
X386573Y278282D01*
X386630Y278365D01*
X386690Y278447D01*
X386754Y278525D01*
X386820Y278602D01*
X386890Y278675D01*
X386962Y278746D01*
X387037Y278814D01*
X387115Y278879D01*
X387195Y278941D01*
X387277Y279000D01*
X387362Y279056D01*
X387449Y279108D01*
X387537Y279157D01*
X387628Y279203D01*
X387720Y279244D01*
X387814Y279283D01*
X387909Y279317D01*
X388005Y279348D01*
X388103Y279375D01*
X388201Y279399D01*
X388301Y279418D01*
X388401Y279434D01*
X388501Y279446D01*
X388602Y279454D01*
X388703Y279458D01*
X388805Y279458D01*
X388906Y279454D01*
X389007Y279446D01*
X389107Y279434D01*
X389207Y279418D01*
X389307Y279399D01*
X389405Y279375D01*
X389503Y279348D01*
X389599Y279317D01*
X389694Y279283D01*
X389788Y279244D01*
X389880Y279203D01*
X389971Y279157D01*
X390060Y279108D01*
X390146Y279056D01*
X390231Y279000D01*
X390313Y278941D01*
X390393Y278879D01*
X390471Y278814D01*
X390546Y278746D01*
X390618Y278675D01*
X390688Y278602D01*
X390754Y278525D01*
X390818Y278447D01*
X390878Y278365D01*
X390935Y278282D01*
X390989Y278196D01*
X391040Y278108D01*
X391087Y278019D01*
X391131Y277927D01*
X391171Y277834D01*
X391208Y277740D01*
X391240Y277644D01*
X391269Y277547D01*
X391295Y277449D01*
X391316Y277350D01*
X391334Y277250D01*
X391347Y277150D01*
X391357Y277049D01*
X391363Y276948D01*
X391365Y276847D01*
X391365Y274236D01*
X391365Y277369D02*
X395542Y279457D01*
X387188Y283323D02*
X386144Y283323D01*
X386144Y288544D01*
X395542Y285933D01*
X422021Y357569D02*
X431419Y357569D01*
X422021Y357569D02*
X422021Y360179D01*
X422023Y360280D01*
X422029Y360381D01*
X422039Y360482D01*
X422052Y360582D01*
X422070Y360682D01*
X422091Y360781D01*
X422117Y360879D01*
X422146Y360976D01*
X422178Y361072D01*
X422215Y361166D01*
X422255Y361259D01*
X422299Y361351D01*
X422346Y361440D01*
X422397Y361528D01*
X422451Y361614D01*
X422508Y361697D01*
X422568Y361779D01*
X422632Y361857D01*
X422698Y361934D01*
X422768Y362007D01*
X422840Y362078D01*
X422915Y362146D01*
X422993Y362211D01*
X423073Y362273D01*
X423155Y362332D01*
X423240Y362388D01*
X423327Y362440D01*
X423415Y362489D01*
X423506Y362535D01*
X423598Y362576D01*
X423692Y362615D01*
X423787Y362649D01*
X423883Y362680D01*
X423981Y362707D01*
X424079Y362731D01*
X424179Y362750D01*
X424279Y362766D01*
X424379Y362778D01*
X424480Y362786D01*
X424581Y362790D01*
X424683Y362790D01*
X424784Y362786D01*
X424885Y362778D01*
X424985Y362766D01*
X425085Y362750D01*
X425185Y362731D01*
X425283Y362707D01*
X425381Y362680D01*
X425477Y362649D01*
X425572Y362615D01*
X425666Y362576D01*
X425758Y362535D01*
X425849Y362489D01*
X425938Y362440D01*
X426024Y362388D01*
X426109Y362332D01*
X426191Y362273D01*
X426271Y362211D01*
X426349Y362146D01*
X426424Y362078D01*
X426496Y362007D01*
X426566Y361934D01*
X426632Y361857D01*
X426696Y361779D01*
X426756Y361697D01*
X426813Y361614D01*
X426867Y361528D01*
X426918Y361440D01*
X426965Y361351D01*
X427009Y361259D01*
X427049Y361166D01*
X427086Y361072D01*
X427118Y360976D01*
X427147Y360879D01*
X427173Y360781D01*
X427194Y360682D01*
X427212Y360582D01*
X427225Y360482D01*
X427235Y360381D01*
X427241Y360280D01*
X427243Y360179D01*
X427242Y360179D02*
X427242Y357569D01*
X427242Y360701D02*
X431419Y362790D01*
X431419Y366133D02*
X422021Y372399D01*
X422021Y366133D02*
X431419Y372399D01*
X426720Y375799D02*
X426535Y375801D01*
X426350Y375808D01*
X426166Y375819D01*
X425982Y375834D01*
X425798Y375854D01*
X425614Y375878D01*
X425432Y375907D01*
X425250Y375940D01*
X425069Y375977D01*
X424889Y376019D01*
X424709Y376065D01*
X424531Y376115D01*
X424355Y376169D01*
X424179Y376228D01*
X424005Y376290D01*
X423833Y376357D01*
X423662Y376428D01*
X423493Y376503D01*
X423326Y376582D01*
X423246Y376612D01*
X423167Y376645D01*
X423090Y376682D01*
X423014Y376722D01*
X422940Y376765D01*
X422868Y376811D01*
X422799Y376861D01*
X422731Y376913D01*
X422666Y376969D01*
X422603Y377027D01*
X422544Y377089D01*
X422486Y377152D01*
X422432Y377219D01*
X422381Y377287D01*
X422333Y377358D01*
X422288Y377431D01*
X422246Y377505D01*
X422208Y377582D01*
X422173Y377660D01*
X422141Y377739D01*
X422113Y377820D01*
X422089Y377902D01*
X422068Y377986D01*
X422051Y378069D01*
X422038Y378154D01*
X422029Y378239D01*
X422023Y378324D01*
X422021Y378410D01*
X422023Y378496D01*
X422029Y378581D01*
X422038Y378666D01*
X422051Y378751D01*
X422068Y378834D01*
X422089Y378918D01*
X422113Y379000D01*
X422141Y379081D01*
X422173Y379160D01*
X422208Y379238D01*
X422246Y379315D01*
X422288Y379389D01*
X422333Y379462D01*
X422381Y379533D01*
X422432Y379601D01*
X422486Y379668D01*
X422544Y379731D01*
X422603Y379793D01*
X422666Y379851D01*
X422731Y379907D01*
X422799Y379959D01*
X422868Y380009D01*
X422940Y380055D01*
X423014Y380098D01*
X423090Y380138D01*
X423167Y380175D01*
X423246Y380208D01*
X423326Y380238D01*
X423493Y380317D01*
X423662Y380392D01*
X423833Y380463D01*
X424005Y380530D01*
X424179Y380592D01*
X424355Y380651D01*
X424531Y380705D01*
X424709Y380755D01*
X424889Y380801D01*
X425069Y380843D01*
X425250Y380880D01*
X425432Y380913D01*
X425614Y380942D01*
X425798Y380966D01*
X425982Y380986D01*
X426166Y381001D01*
X426350Y381012D01*
X426535Y381019D01*
X426720Y381021D01*
X426720Y375799D02*
X426905Y375801D01*
X427090Y375808D01*
X427274Y375819D01*
X427458Y375834D01*
X427642Y375854D01*
X427826Y375878D01*
X428008Y375907D01*
X428190Y375940D01*
X428371Y375977D01*
X428551Y376019D01*
X428731Y376065D01*
X428909Y376115D01*
X429085Y376169D01*
X429261Y376228D01*
X429435Y376290D01*
X429607Y376357D01*
X429778Y376428D01*
X429947Y376503D01*
X430114Y376582D01*
X430194Y376612D01*
X430273Y376645D01*
X430350Y376682D01*
X430426Y376722D01*
X430500Y376765D01*
X430572Y376811D01*
X430641Y376861D01*
X430709Y376914D01*
X430774Y376969D01*
X430837Y377028D01*
X430896Y377089D01*
X430954Y377152D01*
X431008Y377219D01*
X431059Y377287D01*
X431107Y377358D01*
X431152Y377431D01*
X431194Y377505D01*
X431232Y377582D01*
X431267Y377660D01*
X431299Y377739D01*
X431327Y377820D01*
X431351Y377902D01*
X431372Y377986D01*
X431389Y378069D01*
X431402Y378154D01*
X431411Y378239D01*
X431417Y378324D01*
X431419Y378410D01*
X430114Y380238D02*
X429947Y380317D01*
X429778Y380392D01*
X429607Y380463D01*
X429435Y380530D01*
X429261Y380592D01*
X429085Y380651D01*
X428909Y380705D01*
X428731Y380755D01*
X428551Y380801D01*
X428371Y380843D01*
X428190Y380880D01*
X428008Y380913D01*
X427826Y380942D01*
X427642Y380966D01*
X427458Y380986D01*
X427274Y381001D01*
X427090Y381012D01*
X426905Y381019D01*
X426720Y381021D01*
X430114Y380238D02*
X430194Y380208D01*
X430273Y380175D01*
X430350Y380138D01*
X430426Y380098D01*
X430500Y380055D01*
X430572Y380009D01*
X430641Y379959D01*
X430709Y379907D01*
X430774Y379851D01*
X430837Y379793D01*
X430896Y379731D01*
X430954Y379668D01*
X431008Y379601D01*
X431059Y379533D01*
X431107Y379462D01*
X431152Y379389D01*
X431194Y379315D01*
X431232Y379238D01*
X431267Y379160D01*
X431299Y379081D01*
X431327Y379000D01*
X431351Y378918D01*
X431372Y378834D01*
X431389Y378751D01*
X431402Y378666D01*
X431411Y378581D01*
X431417Y378496D01*
X431419Y378410D01*
X429331Y376321D02*
X424109Y380498D01*
X422021Y388754D02*
X431419Y388754D01*
X422021Y386144D02*
X422021Y391365D01*
X422021Y400421D02*
X431419Y394156D01*
X431419Y400421D02*
X422021Y394156D01*
X423326Y404605D02*
X423493Y404526D01*
X423662Y404451D01*
X423833Y404380D01*
X424005Y404313D01*
X424179Y404251D01*
X424355Y404192D01*
X424531Y404138D01*
X424709Y404088D01*
X424889Y404042D01*
X425069Y404000D01*
X425250Y403963D01*
X425432Y403930D01*
X425614Y403901D01*
X425798Y403877D01*
X425982Y403857D01*
X426166Y403842D01*
X426350Y403831D01*
X426535Y403824D01*
X426720Y403822D01*
X423326Y404604D02*
X423246Y404634D01*
X423167Y404667D01*
X423090Y404704D01*
X423014Y404744D01*
X422940Y404787D01*
X422868Y404833D01*
X422799Y404883D01*
X422731Y404935D01*
X422666Y404991D01*
X422603Y405049D01*
X422544Y405111D01*
X422486Y405174D01*
X422432Y405241D01*
X422381Y405309D01*
X422333Y405380D01*
X422288Y405453D01*
X422246Y405527D01*
X422208Y405604D01*
X422173Y405682D01*
X422141Y405761D01*
X422113Y405842D01*
X422089Y405924D01*
X422068Y406008D01*
X422051Y406091D01*
X422038Y406176D01*
X422029Y406261D01*
X422023Y406346D01*
X422021Y406432D01*
X422023Y406518D01*
X422029Y406603D01*
X422038Y406688D01*
X422051Y406773D01*
X422068Y406856D01*
X422089Y406940D01*
X422113Y407022D01*
X422141Y407103D01*
X422173Y407182D01*
X422208Y407260D01*
X422246Y407337D01*
X422288Y407411D01*
X422333Y407484D01*
X422381Y407555D01*
X422432Y407623D01*
X422486Y407690D01*
X422544Y407753D01*
X422603Y407815D01*
X422666Y407873D01*
X422731Y407929D01*
X422799Y407981D01*
X422868Y408031D01*
X422940Y408077D01*
X423014Y408120D01*
X423090Y408160D01*
X423167Y408197D01*
X423246Y408230D01*
X423326Y408260D01*
X423493Y408339D01*
X423662Y408414D01*
X423833Y408485D01*
X424005Y408552D01*
X424179Y408614D01*
X424355Y408673D01*
X424531Y408727D01*
X424709Y408777D01*
X424889Y408823D01*
X425069Y408865D01*
X425250Y408902D01*
X425432Y408935D01*
X425614Y408964D01*
X425798Y408988D01*
X425982Y409008D01*
X426166Y409023D01*
X426350Y409034D01*
X426535Y409041D01*
X426720Y409043D01*
X426720Y403822D02*
X426905Y403824D01*
X427090Y403831D01*
X427274Y403842D01*
X427458Y403857D01*
X427642Y403877D01*
X427826Y403901D01*
X428008Y403930D01*
X428190Y403963D01*
X428371Y404000D01*
X428551Y404042D01*
X428731Y404088D01*
X428909Y404138D01*
X429085Y404192D01*
X429261Y404251D01*
X429435Y404313D01*
X429607Y404380D01*
X429778Y404451D01*
X429947Y404526D01*
X430114Y404605D01*
X430114Y404604D02*
X430194Y404634D01*
X430273Y404667D01*
X430350Y404704D01*
X430426Y404744D01*
X430500Y404787D01*
X430572Y404833D01*
X430641Y404883D01*
X430709Y404936D01*
X430774Y404991D01*
X430837Y405050D01*
X430896Y405111D01*
X430954Y405174D01*
X431008Y405241D01*
X431059Y405309D01*
X431107Y405380D01*
X431152Y405453D01*
X431194Y405527D01*
X431232Y405604D01*
X431267Y405682D01*
X431299Y405761D01*
X431327Y405842D01*
X431351Y405924D01*
X431372Y406008D01*
X431389Y406091D01*
X431402Y406176D01*
X431411Y406261D01*
X431417Y406346D01*
X431419Y406432D01*
X430114Y408260D02*
X429947Y408339D01*
X429778Y408414D01*
X429607Y408485D01*
X429435Y408552D01*
X429261Y408614D01*
X429085Y408673D01*
X428909Y408727D01*
X428731Y408777D01*
X428551Y408823D01*
X428371Y408865D01*
X428190Y408902D01*
X428008Y408935D01*
X427826Y408964D01*
X427642Y408988D01*
X427458Y409008D01*
X427274Y409023D01*
X427090Y409034D01*
X426905Y409041D01*
X426720Y409043D01*
X430114Y408260D02*
X430194Y408230D01*
X430273Y408197D01*
X430350Y408160D01*
X430426Y408120D01*
X430500Y408077D01*
X430572Y408031D01*
X430641Y407981D01*
X430709Y407929D01*
X430774Y407873D01*
X430837Y407815D01*
X430896Y407753D01*
X430954Y407690D01*
X431008Y407623D01*
X431059Y407555D01*
X431107Y407484D01*
X431152Y407411D01*
X431194Y407337D01*
X431232Y407260D01*
X431267Y407182D01*
X431299Y407103D01*
X431327Y407022D01*
X431351Y406940D01*
X431372Y406856D01*
X431389Y406773D01*
X431402Y406688D01*
X431411Y406603D01*
X431417Y406518D01*
X431419Y406432D01*
X429331Y404344D02*
X424109Y408521D01*
X397256Y320929D02*
X397256Y311531D01*
X397256Y320929D02*
X399867Y320929D01*
X399967Y320927D01*
X400067Y320921D01*
X400166Y320912D01*
X400266Y320898D01*
X400364Y320881D01*
X400462Y320860D01*
X400559Y320836D01*
X400655Y320807D01*
X400750Y320775D01*
X400843Y320740D01*
X400935Y320701D01*
X401026Y320658D01*
X401114Y320612D01*
X401201Y320562D01*
X401286Y320510D01*
X401369Y320454D01*
X401450Y320395D01*
X401528Y320332D01*
X401604Y320267D01*
X401678Y320199D01*
X401748Y320129D01*
X401816Y320055D01*
X401881Y319979D01*
X401944Y319901D01*
X402003Y319820D01*
X402059Y319737D01*
X402111Y319652D01*
X402161Y319565D01*
X402207Y319477D01*
X402250Y319386D01*
X402289Y319294D01*
X402324Y319201D01*
X402356Y319106D01*
X402385Y319010D01*
X402409Y318913D01*
X402430Y318815D01*
X402447Y318717D01*
X402461Y318617D01*
X402470Y318518D01*
X402476Y318418D01*
X402478Y318318D01*
X402477Y318318D02*
X402477Y314142D01*
X402478Y314142D02*
X402476Y314042D01*
X402470Y313942D01*
X402461Y313843D01*
X402447Y313743D01*
X402430Y313645D01*
X402409Y313547D01*
X402385Y313450D01*
X402356Y313354D01*
X402324Y313259D01*
X402289Y313166D01*
X402250Y313074D01*
X402207Y312983D01*
X402161Y312895D01*
X402111Y312808D01*
X402059Y312723D01*
X402003Y312640D01*
X401944Y312559D01*
X401881Y312481D01*
X401816Y312405D01*
X401748Y312331D01*
X401678Y312261D01*
X401604Y312193D01*
X401528Y312128D01*
X401450Y312065D01*
X401369Y312006D01*
X401286Y311950D01*
X401201Y311898D01*
X401114Y311848D01*
X401026Y311802D01*
X400935Y311759D01*
X400843Y311720D01*
X400750Y311685D01*
X400655Y311653D01*
X400559Y311624D01*
X400462Y311600D01*
X400364Y311579D01*
X400266Y311562D01*
X400166Y311548D01*
X400067Y311539D01*
X399967Y311533D01*
X399867Y311531D01*
X397256Y311531D01*
X406792Y315186D02*
X413058Y315186D01*
X459169Y311531D02*
X459169Y320929D01*
X461779Y320929D01*
X461879Y320927D01*
X461979Y320921D01*
X462078Y320912D01*
X462178Y320898D01*
X462276Y320881D01*
X462374Y320860D01*
X462471Y320836D01*
X462567Y320807D01*
X462662Y320775D01*
X462755Y320740D01*
X462847Y320701D01*
X462938Y320658D01*
X463026Y320612D01*
X463113Y320562D01*
X463198Y320510D01*
X463281Y320454D01*
X463362Y320395D01*
X463440Y320332D01*
X463516Y320267D01*
X463590Y320199D01*
X463660Y320129D01*
X463728Y320055D01*
X463793Y319979D01*
X463856Y319901D01*
X463915Y319820D01*
X463971Y319737D01*
X464023Y319652D01*
X464073Y319565D01*
X464119Y319477D01*
X464162Y319386D01*
X464201Y319294D01*
X464236Y319201D01*
X464268Y319106D01*
X464297Y319010D01*
X464321Y318913D01*
X464342Y318815D01*
X464359Y318717D01*
X464373Y318617D01*
X464382Y318518D01*
X464388Y318418D01*
X464390Y318318D01*
X464390Y314142D01*
X464388Y314042D01*
X464382Y313942D01*
X464373Y313843D01*
X464359Y313743D01*
X464342Y313645D01*
X464321Y313547D01*
X464297Y313450D01*
X464268Y313354D01*
X464236Y313259D01*
X464201Y313166D01*
X464162Y313074D01*
X464119Y312983D01*
X464073Y312895D01*
X464023Y312808D01*
X463971Y312723D01*
X463915Y312640D01*
X463856Y312559D01*
X463793Y312481D01*
X463728Y312405D01*
X463660Y312331D01*
X463590Y312261D01*
X463516Y312193D01*
X463440Y312128D01*
X463362Y312065D01*
X463281Y312006D01*
X463198Y311950D01*
X463113Y311898D01*
X463026Y311848D01*
X462938Y311802D01*
X462847Y311759D01*
X462755Y311720D01*
X462662Y311685D01*
X462567Y311653D01*
X462471Y311624D01*
X462374Y311600D01*
X462276Y311579D01*
X462178Y311562D01*
X462078Y311548D01*
X461979Y311539D01*
X461879Y311533D01*
X461779Y311531D01*
X459169Y311531D01*
X468705Y315186D02*
X474970Y315186D01*
X471837Y312053D02*
X471837Y318318D01*
D125*
X339575Y286563D02*
X339575Y269063D01*
X352575Y269063D02*
X352575Y286563D01*
D123*
X350482Y268631D02*
X341084Y268631D01*
X341084Y271242D01*
X341083Y271242D02*
X341085Y271342D01*
X341091Y271442D01*
X341100Y271541D01*
X341114Y271641D01*
X341131Y271739D01*
X341152Y271837D01*
X341176Y271934D01*
X341205Y272030D01*
X341237Y272125D01*
X341272Y272218D01*
X341311Y272310D01*
X341354Y272401D01*
X341400Y272489D01*
X341450Y272576D01*
X341502Y272661D01*
X341558Y272744D01*
X341617Y272825D01*
X341680Y272903D01*
X341745Y272979D01*
X341813Y273053D01*
X341883Y273123D01*
X341957Y273191D01*
X342033Y273256D01*
X342111Y273319D01*
X342192Y273378D01*
X342275Y273434D01*
X342360Y273486D01*
X342447Y273536D01*
X342535Y273582D01*
X342626Y273625D01*
X342718Y273664D01*
X342811Y273699D01*
X342906Y273731D01*
X343002Y273760D01*
X343099Y273784D01*
X343197Y273805D01*
X343295Y273822D01*
X343395Y273836D01*
X343494Y273845D01*
X343594Y273851D01*
X343694Y273853D01*
X343694Y273852D02*
X347871Y273852D01*
X347871Y273853D02*
X347971Y273851D01*
X348071Y273845D01*
X348170Y273836D01*
X348270Y273822D01*
X348368Y273805D01*
X348466Y273784D01*
X348563Y273760D01*
X348659Y273731D01*
X348754Y273699D01*
X348847Y273664D01*
X348939Y273625D01*
X349030Y273582D01*
X349118Y273536D01*
X349205Y273486D01*
X349290Y273434D01*
X349373Y273378D01*
X349454Y273319D01*
X349532Y273256D01*
X349608Y273191D01*
X349682Y273123D01*
X349752Y273053D01*
X349820Y272979D01*
X349885Y272903D01*
X349948Y272825D01*
X350007Y272744D01*
X350063Y272661D01*
X350115Y272576D01*
X350165Y272489D01*
X350211Y272401D01*
X350254Y272310D01*
X350293Y272218D01*
X350328Y272125D01*
X350360Y272030D01*
X350389Y271934D01*
X350413Y271837D01*
X350434Y271739D01*
X350451Y271641D01*
X350465Y271541D01*
X350474Y271442D01*
X350480Y271342D01*
X350482Y271242D01*
X350482Y268631D01*
X341083Y280951D02*
X341085Y281046D01*
X341091Y281140D01*
X341100Y281234D01*
X341113Y281328D01*
X341130Y281421D01*
X341151Y281513D01*
X341176Y281605D01*
X341204Y281695D01*
X341236Y281784D01*
X341271Y281872D01*
X341310Y281958D01*
X341352Y282043D01*
X341398Y282126D01*
X341447Y282207D01*
X341499Y282286D01*
X341554Y282363D01*
X341613Y282437D01*
X341674Y282509D01*
X341738Y282579D01*
X341805Y282646D01*
X341875Y282710D01*
X341947Y282771D01*
X342021Y282830D01*
X342098Y282885D01*
X342177Y282937D01*
X342258Y282986D01*
X342341Y283032D01*
X342426Y283074D01*
X342512Y283113D01*
X342600Y283148D01*
X342689Y283180D01*
X342779Y283208D01*
X342871Y283233D01*
X342963Y283254D01*
X343056Y283271D01*
X343150Y283284D01*
X343244Y283293D01*
X343338Y283299D01*
X343433Y283301D01*
X341084Y280951D02*
X341086Y280843D01*
X341092Y280734D01*
X341102Y280626D01*
X341115Y280519D01*
X341133Y280412D01*
X341154Y280305D01*
X341179Y280200D01*
X341208Y280095D01*
X341240Y279992D01*
X341277Y279890D01*
X341317Y279789D01*
X341360Y279690D01*
X341407Y279592D01*
X341458Y279496D01*
X341512Y279402D01*
X341569Y279310D01*
X341630Y279220D01*
X341694Y279132D01*
X341760Y279047D01*
X341830Y278964D01*
X341903Y278884D01*
X341979Y278806D01*
X342057Y278731D01*
X342138Y278659D01*
X342222Y278590D01*
X342308Y278524D01*
X342396Y278461D01*
X342487Y278402D01*
X342579Y278345D01*
X342674Y278292D01*
X342771Y278243D01*
X342869Y278197D01*
X342968Y278154D01*
X343070Y278115D01*
X343172Y278080D01*
X345261Y282518D02*
X345192Y282587D01*
X345121Y282653D01*
X345048Y282717D01*
X344972Y282778D01*
X344893Y282836D01*
X344813Y282890D01*
X344730Y282942D01*
X344646Y282990D01*
X344560Y283036D01*
X344472Y283077D01*
X344382Y283116D01*
X344291Y283151D01*
X344199Y283182D01*
X344106Y283210D01*
X344012Y283234D01*
X343917Y283254D01*
X343821Y283271D01*
X343724Y283284D01*
X343627Y283293D01*
X343530Y283299D01*
X343433Y283301D01*
X345260Y282518D02*
X350482Y278080D01*
X350482Y283301D01*
D125*
X355450Y286563D02*
X355450Y269063D01*
X368450Y269063D02*
X368450Y286563D01*
D123*
X366357Y268631D02*
X356959Y268631D01*
X356959Y271242D01*
X356958Y271242D02*
X356960Y271342D01*
X356966Y271442D01*
X356975Y271541D01*
X356989Y271641D01*
X357006Y271739D01*
X357027Y271837D01*
X357051Y271934D01*
X357080Y272030D01*
X357112Y272125D01*
X357147Y272218D01*
X357186Y272310D01*
X357229Y272401D01*
X357275Y272489D01*
X357325Y272576D01*
X357377Y272661D01*
X357433Y272744D01*
X357492Y272825D01*
X357555Y272903D01*
X357620Y272979D01*
X357688Y273053D01*
X357758Y273123D01*
X357832Y273191D01*
X357908Y273256D01*
X357986Y273319D01*
X358067Y273378D01*
X358150Y273434D01*
X358235Y273486D01*
X358322Y273536D01*
X358410Y273582D01*
X358501Y273625D01*
X358593Y273664D01*
X358686Y273699D01*
X358781Y273731D01*
X358877Y273760D01*
X358974Y273784D01*
X359072Y273805D01*
X359170Y273822D01*
X359270Y273836D01*
X359369Y273845D01*
X359469Y273851D01*
X359569Y273853D01*
X359569Y273852D02*
X363746Y273852D01*
X363746Y273853D02*
X363846Y273851D01*
X363946Y273845D01*
X364045Y273836D01*
X364145Y273822D01*
X364243Y273805D01*
X364341Y273784D01*
X364438Y273760D01*
X364534Y273731D01*
X364629Y273699D01*
X364722Y273664D01*
X364814Y273625D01*
X364905Y273582D01*
X364993Y273536D01*
X365080Y273486D01*
X365165Y273434D01*
X365248Y273378D01*
X365329Y273319D01*
X365407Y273256D01*
X365483Y273191D01*
X365557Y273123D01*
X365627Y273053D01*
X365695Y272979D01*
X365760Y272903D01*
X365823Y272825D01*
X365882Y272744D01*
X365938Y272661D01*
X365990Y272576D01*
X366040Y272489D01*
X366086Y272401D01*
X366129Y272310D01*
X366168Y272218D01*
X366203Y272125D01*
X366235Y272030D01*
X366264Y271934D01*
X366288Y271837D01*
X366309Y271739D01*
X366326Y271641D01*
X366340Y271541D01*
X366349Y271442D01*
X366355Y271342D01*
X366357Y271242D01*
X366357Y268631D01*
X366357Y278080D02*
X366357Y280690D01*
X366355Y280791D01*
X366349Y280892D01*
X366339Y280993D01*
X366326Y281093D01*
X366308Y281193D01*
X366287Y281292D01*
X366261Y281390D01*
X366232Y281487D01*
X366200Y281583D01*
X366163Y281677D01*
X366123Y281770D01*
X366079Y281862D01*
X366032Y281951D01*
X365981Y282039D01*
X365927Y282125D01*
X365870Y282208D01*
X365810Y282290D01*
X365746Y282368D01*
X365680Y282445D01*
X365610Y282518D01*
X365538Y282589D01*
X365463Y282657D01*
X365385Y282722D01*
X365305Y282784D01*
X365223Y282843D01*
X365138Y282899D01*
X365052Y282951D01*
X364963Y283000D01*
X364872Y283046D01*
X364780Y283087D01*
X364686Y283126D01*
X364591Y283160D01*
X364495Y283191D01*
X364397Y283218D01*
X364299Y283242D01*
X364199Y283261D01*
X364099Y283277D01*
X363999Y283289D01*
X363898Y283297D01*
X363797Y283301D01*
X363695Y283301D01*
X363594Y283297D01*
X363493Y283289D01*
X363393Y283277D01*
X363293Y283261D01*
X363193Y283242D01*
X363095Y283218D01*
X362997Y283191D01*
X362901Y283160D01*
X362806Y283126D01*
X362712Y283087D01*
X362620Y283046D01*
X362529Y283000D01*
X362441Y282951D01*
X362354Y282899D01*
X362269Y282843D01*
X362187Y282784D01*
X362107Y282722D01*
X362029Y282657D01*
X361954Y282589D01*
X361882Y282518D01*
X361812Y282445D01*
X361746Y282368D01*
X361682Y282290D01*
X361622Y282208D01*
X361565Y282125D01*
X361511Y282039D01*
X361460Y281951D01*
X361413Y281862D01*
X361369Y281770D01*
X361329Y281677D01*
X361292Y281583D01*
X361260Y281487D01*
X361231Y281390D01*
X361205Y281292D01*
X361184Y281193D01*
X361166Y281093D01*
X361153Y280993D01*
X361143Y280892D01*
X361137Y280791D01*
X361135Y280690D01*
X356959Y281212D02*
X356959Y278080D01*
X356959Y281212D02*
X356961Y281302D01*
X356967Y281391D01*
X356976Y281481D01*
X356990Y281570D01*
X357007Y281658D01*
X357028Y281745D01*
X357053Y281832D01*
X357082Y281917D01*
X357114Y282001D01*
X357149Y282083D01*
X357189Y282164D01*
X357231Y282243D01*
X357277Y282320D01*
X357327Y282395D01*
X357379Y282468D01*
X357435Y282539D01*
X357493Y282607D01*
X357555Y282672D01*
X357619Y282735D01*
X357686Y282795D01*
X357755Y282852D01*
X357827Y282906D01*
X357901Y282957D01*
X357977Y283005D01*
X358055Y283049D01*
X358135Y283090D01*
X358217Y283128D01*
X358300Y283162D01*
X358385Y283192D01*
X358471Y283219D01*
X358557Y283242D01*
X358645Y283261D01*
X358734Y283276D01*
X358823Y283288D01*
X358912Y283296D01*
X359002Y283300D01*
X359092Y283300D01*
X359182Y283296D01*
X359271Y283288D01*
X359360Y283276D01*
X359449Y283261D01*
X359537Y283242D01*
X359623Y283219D01*
X359709Y283192D01*
X359794Y283162D01*
X359877Y283128D01*
X359959Y283090D01*
X360039Y283049D01*
X360117Y283005D01*
X360193Y282957D01*
X360267Y282906D01*
X360339Y282852D01*
X360408Y282795D01*
X360475Y282735D01*
X360539Y282672D01*
X360601Y282607D01*
X360659Y282539D01*
X360715Y282468D01*
X360767Y282395D01*
X360817Y282320D01*
X360863Y282243D01*
X360905Y282164D01*
X360945Y282083D01*
X360980Y282001D01*
X361012Y281917D01*
X361041Y281832D01*
X361066Y281745D01*
X361087Y281658D01*
X361104Y281570D01*
X361118Y281481D01*
X361127Y281391D01*
X361133Y281302D01*
X361135Y281212D01*
X361135Y279124D01*
D125*
X309413Y286563D02*
X309413Y269063D01*
X322413Y269063D02*
X322413Y286563D01*
D123*
X320319Y268631D02*
X310921Y268631D01*
X310921Y271242D01*
X310923Y271342D01*
X310929Y271442D01*
X310938Y271541D01*
X310952Y271641D01*
X310969Y271739D01*
X310990Y271837D01*
X311014Y271934D01*
X311043Y272030D01*
X311075Y272125D01*
X311110Y272218D01*
X311149Y272310D01*
X311192Y272401D01*
X311238Y272489D01*
X311288Y272576D01*
X311340Y272661D01*
X311396Y272744D01*
X311455Y272825D01*
X311518Y272903D01*
X311583Y272979D01*
X311651Y273053D01*
X311721Y273123D01*
X311795Y273191D01*
X311871Y273256D01*
X311949Y273319D01*
X312030Y273378D01*
X312113Y273434D01*
X312198Y273486D01*
X312285Y273536D01*
X312373Y273582D01*
X312464Y273625D01*
X312556Y273664D01*
X312649Y273699D01*
X312744Y273731D01*
X312840Y273760D01*
X312937Y273784D01*
X313035Y273805D01*
X313133Y273822D01*
X313233Y273836D01*
X313332Y273845D01*
X313432Y273851D01*
X313532Y273853D01*
X313532Y273852D02*
X317708Y273852D01*
X317708Y273853D02*
X317808Y273851D01*
X317908Y273845D01*
X318007Y273836D01*
X318107Y273822D01*
X318205Y273805D01*
X318303Y273784D01*
X318400Y273760D01*
X318496Y273731D01*
X318591Y273699D01*
X318684Y273664D01*
X318776Y273625D01*
X318867Y273582D01*
X318955Y273536D01*
X319042Y273486D01*
X319127Y273434D01*
X319210Y273378D01*
X319291Y273319D01*
X319369Y273256D01*
X319445Y273191D01*
X319519Y273123D01*
X319589Y273053D01*
X319657Y272979D01*
X319722Y272903D01*
X319785Y272825D01*
X319844Y272744D01*
X319900Y272661D01*
X319952Y272576D01*
X320002Y272489D01*
X320048Y272401D01*
X320091Y272310D01*
X320130Y272218D01*
X320165Y272125D01*
X320197Y272030D01*
X320226Y271934D01*
X320250Y271837D01*
X320271Y271739D01*
X320288Y271641D01*
X320302Y271541D01*
X320311Y271442D01*
X320317Y271342D01*
X320319Y271242D01*
X320319Y268631D01*
X318231Y278080D02*
X310921Y280168D01*
X318231Y278080D02*
X318231Y283301D01*
X316142Y281735D02*
X320319Y281735D01*
D125*
X323700Y286563D02*
X323700Y269063D01*
X336700Y269063D02*
X336700Y286563D01*
D123*
X334607Y268631D02*
X325209Y268631D01*
X325209Y271242D01*
X325208Y271242D02*
X325210Y271342D01*
X325216Y271442D01*
X325225Y271541D01*
X325239Y271641D01*
X325256Y271739D01*
X325277Y271837D01*
X325301Y271934D01*
X325330Y272030D01*
X325362Y272125D01*
X325397Y272218D01*
X325436Y272310D01*
X325479Y272401D01*
X325525Y272489D01*
X325575Y272576D01*
X325627Y272661D01*
X325683Y272744D01*
X325742Y272825D01*
X325805Y272903D01*
X325870Y272979D01*
X325938Y273053D01*
X326008Y273123D01*
X326082Y273191D01*
X326158Y273256D01*
X326236Y273319D01*
X326317Y273378D01*
X326400Y273434D01*
X326485Y273486D01*
X326572Y273536D01*
X326660Y273582D01*
X326751Y273625D01*
X326843Y273664D01*
X326936Y273699D01*
X327031Y273731D01*
X327127Y273760D01*
X327224Y273784D01*
X327322Y273805D01*
X327420Y273822D01*
X327520Y273836D01*
X327619Y273845D01*
X327719Y273851D01*
X327819Y273853D01*
X327819Y273852D02*
X331996Y273852D01*
X331996Y273853D02*
X332096Y273851D01*
X332196Y273845D01*
X332295Y273836D01*
X332395Y273822D01*
X332493Y273805D01*
X332591Y273784D01*
X332688Y273760D01*
X332784Y273731D01*
X332879Y273699D01*
X332972Y273664D01*
X333064Y273625D01*
X333155Y273582D01*
X333243Y273536D01*
X333330Y273486D01*
X333415Y273434D01*
X333498Y273378D01*
X333579Y273319D01*
X333657Y273256D01*
X333733Y273191D01*
X333807Y273123D01*
X333877Y273053D01*
X333945Y272979D01*
X334010Y272903D01*
X334073Y272825D01*
X334132Y272744D01*
X334188Y272661D01*
X334240Y272576D01*
X334290Y272489D01*
X334336Y272401D01*
X334379Y272310D01*
X334418Y272218D01*
X334453Y272125D01*
X334485Y272030D01*
X334514Y271934D01*
X334538Y271837D01*
X334559Y271739D01*
X334576Y271641D01*
X334590Y271541D01*
X334599Y271442D01*
X334605Y271342D01*
X334607Y271242D01*
X334607Y268631D01*
X334607Y278080D02*
X334607Y281212D01*
X334606Y281212D02*
X334604Y281301D01*
X334598Y281389D01*
X334589Y281477D01*
X334576Y281565D01*
X334559Y281652D01*
X334539Y281738D01*
X334514Y281823D01*
X334487Y281908D01*
X334455Y281991D01*
X334421Y282072D01*
X334382Y282152D01*
X334341Y282230D01*
X334296Y282307D01*
X334248Y282381D01*
X334197Y282454D01*
X334143Y282524D01*
X334085Y282591D01*
X334025Y282657D01*
X333963Y282719D01*
X333897Y282779D01*
X333830Y282837D01*
X333760Y282891D01*
X333687Y282942D01*
X333613Y282990D01*
X333536Y283035D01*
X333458Y283076D01*
X333378Y283115D01*
X333297Y283149D01*
X333214Y283181D01*
X333129Y283208D01*
X333044Y283233D01*
X332958Y283253D01*
X332871Y283270D01*
X332783Y283283D01*
X332695Y283292D01*
X332607Y283298D01*
X332518Y283300D01*
X332518Y283301D02*
X331474Y283301D01*
X331474Y283300D02*
X331385Y283298D01*
X331297Y283292D01*
X331209Y283283D01*
X331121Y283270D01*
X331034Y283253D01*
X330948Y283233D01*
X330863Y283208D01*
X330778Y283181D01*
X330695Y283149D01*
X330614Y283115D01*
X330534Y283076D01*
X330456Y283035D01*
X330379Y282990D01*
X330305Y282942D01*
X330232Y282891D01*
X330162Y282837D01*
X330095Y282779D01*
X330029Y282719D01*
X329967Y282657D01*
X329907Y282591D01*
X329849Y282524D01*
X329795Y282454D01*
X329744Y282381D01*
X329696Y282307D01*
X329651Y282230D01*
X329610Y282152D01*
X329571Y282072D01*
X329537Y281991D01*
X329505Y281908D01*
X329478Y281823D01*
X329453Y281738D01*
X329433Y281652D01*
X329416Y281565D01*
X329403Y281477D01*
X329394Y281389D01*
X329388Y281301D01*
X329386Y281212D01*
X329385Y281212D02*
X329385Y278080D01*
X325209Y278080D01*
X325209Y283301D01*
X432181Y328592D02*
X441579Y328592D01*
X432181Y328592D02*
X432181Y331203D01*
X432183Y331304D01*
X432189Y331405D01*
X432199Y331506D01*
X432212Y331606D01*
X432230Y331706D01*
X432251Y331805D01*
X432277Y331903D01*
X432306Y332000D01*
X432338Y332096D01*
X432375Y332190D01*
X432415Y332283D01*
X432459Y332375D01*
X432506Y332464D01*
X432557Y332552D01*
X432611Y332638D01*
X432668Y332721D01*
X432728Y332803D01*
X432792Y332881D01*
X432858Y332958D01*
X432928Y333031D01*
X433000Y333102D01*
X433075Y333170D01*
X433153Y333235D01*
X433233Y333297D01*
X433315Y333356D01*
X433400Y333412D01*
X433487Y333464D01*
X433575Y333513D01*
X433666Y333559D01*
X433758Y333600D01*
X433852Y333639D01*
X433947Y333673D01*
X434043Y333704D01*
X434141Y333731D01*
X434239Y333755D01*
X434339Y333774D01*
X434439Y333790D01*
X434539Y333802D01*
X434640Y333810D01*
X434741Y333814D01*
X434843Y333814D01*
X434944Y333810D01*
X435045Y333802D01*
X435145Y333790D01*
X435245Y333774D01*
X435345Y333755D01*
X435443Y333731D01*
X435541Y333704D01*
X435637Y333673D01*
X435732Y333639D01*
X435826Y333600D01*
X435918Y333559D01*
X436009Y333513D01*
X436098Y333464D01*
X436184Y333412D01*
X436269Y333356D01*
X436351Y333297D01*
X436431Y333235D01*
X436509Y333170D01*
X436584Y333102D01*
X436656Y333031D01*
X436726Y332958D01*
X436792Y332881D01*
X436856Y332803D01*
X436916Y332721D01*
X436973Y332638D01*
X437027Y332552D01*
X437078Y332464D01*
X437125Y332375D01*
X437169Y332283D01*
X437209Y332190D01*
X437246Y332096D01*
X437278Y332000D01*
X437307Y331903D01*
X437333Y331805D01*
X437354Y331706D01*
X437372Y331606D01*
X437385Y331506D01*
X437395Y331405D01*
X437401Y331304D01*
X437403Y331203D01*
X437402Y331203D02*
X437402Y328592D01*
X437402Y331725D02*
X441579Y333813D01*
X434269Y337679D02*
X432181Y340289D01*
X441579Y340289D01*
X441579Y337679D02*
X441579Y342900D01*
X436358Y346823D02*
X436358Y349956D01*
X436360Y350045D01*
X436366Y350133D01*
X436375Y350221D01*
X436388Y350309D01*
X436405Y350396D01*
X436425Y350482D01*
X436450Y350567D01*
X436477Y350652D01*
X436509Y350735D01*
X436543Y350816D01*
X436582Y350896D01*
X436623Y350974D01*
X436668Y351051D01*
X436716Y351125D01*
X436767Y351198D01*
X436821Y351268D01*
X436879Y351335D01*
X436939Y351401D01*
X437001Y351463D01*
X437067Y351523D01*
X437134Y351581D01*
X437204Y351635D01*
X437277Y351686D01*
X437351Y351734D01*
X437428Y351779D01*
X437506Y351820D01*
X437586Y351859D01*
X437667Y351893D01*
X437750Y351925D01*
X437835Y351952D01*
X437920Y351977D01*
X438006Y351997D01*
X438093Y352014D01*
X438181Y352027D01*
X438269Y352036D01*
X438357Y352042D01*
X438446Y352044D01*
X438968Y352044D01*
X439069Y352042D01*
X439170Y352036D01*
X439271Y352026D01*
X439371Y352013D01*
X439471Y351995D01*
X439570Y351974D01*
X439668Y351948D01*
X439765Y351919D01*
X439861Y351887D01*
X439955Y351850D01*
X440048Y351810D01*
X440140Y351766D01*
X440229Y351719D01*
X440317Y351668D01*
X440403Y351614D01*
X440486Y351557D01*
X440568Y351497D01*
X440646Y351433D01*
X440723Y351367D01*
X440796Y351297D01*
X440867Y351225D01*
X440935Y351150D01*
X441000Y351072D01*
X441062Y350992D01*
X441121Y350910D01*
X441177Y350825D01*
X441229Y350738D01*
X441278Y350650D01*
X441324Y350559D01*
X441365Y350467D01*
X441404Y350373D01*
X441438Y350278D01*
X441469Y350182D01*
X441496Y350084D01*
X441520Y349986D01*
X441539Y349886D01*
X441555Y349786D01*
X441567Y349686D01*
X441575Y349585D01*
X441579Y349484D01*
X441579Y349382D01*
X441575Y349281D01*
X441567Y349180D01*
X441555Y349080D01*
X441539Y348980D01*
X441520Y348880D01*
X441496Y348782D01*
X441469Y348684D01*
X441438Y348588D01*
X441404Y348493D01*
X441365Y348399D01*
X441324Y348307D01*
X441278Y348216D01*
X441229Y348128D01*
X441177Y348041D01*
X441121Y347956D01*
X441062Y347874D01*
X441000Y347794D01*
X440935Y347716D01*
X440867Y347641D01*
X440796Y347569D01*
X440723Y347499D01*
X440646Y347433D01*
X440568Y347369D01*
X440486Y347309D01*
X440403Y347252D01*
X440317Y347198D01*
X440229Y347147D01*
X440140Y347100D01*
X440048Y347056D01*
X439955Y347016D01*
X439861Y346979D01*
X439765Y346947D01*
X439668Y346918D01*
X439570Y346892D01*
X439471Y346871D01*
X439371Y346853D01*
X439271Y346840D01*
X439170Y346830D01*
X439069Y346824D01*
X438968Y346822D01*
X438968Y346823D02*
X436358Y346823D01*
X436229Y346825D01*
X436101Y346831D01*
X435973Y346841D01*
X435845Y346855D01*
X435717Y346872D01*
X435590Y346894D01*
X435464Y346920D01*
X435339Y346949D01*
X435215Y346982D01*
X435092Y347020D01*
X434970Y347060D01*
X434849Y347105D01*
X434730Y347153D01*
X434612Y347205D01*
X434496Y347261D01*
X434382Y347320D01*
X434270Y347383D01*
X434159Y347449D01*
X434051Y347518D01*
X433945Y347591D01*
X433841Y347667D01*
X433739Y347746D01*
X433640Y347828D01*
X433544Y347913D01*
X433450Y348001D01*
X433359Y348092D01*
X433271Y348186D01*
X433186Y348282D01*
X433104Y348381D01*
X433025Y348483D01*
X432949Y348587D01*
X432876Y348693D01*
X432807Y348801D01*
X432741Y348911D01*
X432678Y349024D01*
X432619Y349138D01*
X432563Y349254D01*
X432511Y349372D01*
X432463Y349491D01*
X432418Y349612D01*
X432378Y349734D01*
X432340Y349857D01*
X432307Y349981D01*
X432278Y350106D01*
X432252Y350232D01*
X432230Y350359D01*
X432213Y350487D01*
X432199Y350615D01*
X432189Y350743D01*
X432183Y350871D01*
X432181Y351000D01*
X457581Y330180D02*
X466979Y330180D01*
X457581Y330180D02*
X457581Y332790D01*
X457583Y332891D01*
X457589Y332992D01*
X457599Y333093D01*
X457612Y333193D01*
X457630Y333293D01*
X457651Y333392D01*
X457677Y333490D01*
X457706Y333587D01*
X457738Y333683D01*
X457775Y333777D01*
X457815Y333870D01*
X457859Y333962D01*
X457906Y334051D01*
X457957Y334139D01*
X458011Y334225D01*
X458068Y334308D01*
X458128Y334390D01*
X458192Y334468D01*
X458258Y334545D01*
X458328Y334618D01*
X458400Y334689D01*
X458475Y334757D01*
X458553Y334822D01*
X458633Y334884D01*
X458715Y334943D01*
X458800Y334999D01*
X458887Y335051D01*
X458975Y335100D01*
X459066Y335146D01*
X459158Y335187D01*
X459252Y335226D01*
X459347Y335260D01*
X459443Y335291D01*
X459541Y335318D01*
X459639Y335342D01*
X459739Y335361D01*
X459839Y335377D01*
X459939Y335389D01*
X460040Y335397D01*
X460141Y335401D01*
X460243Y335401D01*
X460344Y335397D01*
X460445Y335389D01*
X460545Y335377D01*
X460645Y335361D01*
X460745Y335342D01*
X460843Y335318D01*
X460941Y335291D01*
X461037Y335260D01*
X461132Y335226D01*
X461226Y335187D01*
X461318Y335146D01*
X461409Y335100D01*
X461498Y335051D01*
X461584Y334999D01*
X461669Y334943D01*
X461751Y334884D01*
X461831Y334822D01*
X461909Y334757D01*
X461984Y334689D01*
X462056Y334618D01*
X462126Y334545D01*
X462192Y334468D01*
X462256Y334390D01*
X462316Y334308D01*
X462373Y334225D01*
X462427Y334139D01*
X462478Y334051D01*
X462525Y333962D01*
X462569Y333870D01*
X462609Y333777D01*
X462646Y333683D01*
X462678Y333587D01*
X462707Y333490D01*
X462733Y333392D01*
X462754Y333293D01*
X462772Y333193D01*
X462785Y333093D01*
X462795Y332992D01*
X462801Y332891D01*
X462803Y332790D01*
X462802Y332790D02*
X462802Y330180D01*
X462802Y333312D02*
X466979Y335401D01*
X459669Y339266D02*
X457581Y341877D01*
X466979Y341877D01*
X466979Y339266D02*
X466979Y344488D01*
X458625Y348410D02*
X457581Y348410D01*
X457581Y353632D01*
X466979Y351021D01*
D125*
X421500Y303363D02*
X404000Y303363D01*
X404000Y290363D02*
X421500Y290363D01*
D123*
X403569Y292456D02*
X403569Y301854D01*
X406179Y301854D01*
X406279Y301852D01*
X406379Y301846D01*
X406478Y301837D01*
X406578Y301823D01*
X406676Y301806D01*
X406774Y301785D01*
X406871Y301761D01*
X406967Y301732D01*
X407062Y301700D01*
X407155Y301665D01*
X407247Y301626D01*
X407338Y301583D01*
X407426Y301537D01*
X407513Y301487D01*
X407598Y301435D01*
X407681Y301379D01*
X407762Y301320D01*
X407840Y301257D01*
X407916Y301192D01*
X407990Y301124D01*
X408060Y301054D01*
X408128Y300980D01*
X408193Y300904D01*
X408256Y300826D01*
X408315Y300745D01*
X408371Y300662D01*
X408423Y300577D01*
X408473Y300490D01*
X408519Y300402D01*
X408562Y300311D01*
X408601Y300219D01*
X408636Y300126D01*
X408668Y300031D01*
X408697Y299935D01*
X408721Y299838D01*
X408742Y299740D01*
X408759Y299642D01*
X408773Y299542D01*
X408782Y299443D01*
X408788Y299343D01*
X408790Y299243D01*
X408790Y295067D01*
X408788Y294967D01*
X408782Y294867D01*
X408773Y294768D01*
X408759Y294668D01*
X408742Y294570D01*
X408721Y294472D01*
X408697Y294375D01*
X408668Y294279D01*
X408636Y294184D01*
X408601Y294091D01*
X408562Y293999D01*
X408519Y293908D01*
X408473Y293820D01*
X408423Y293733D01*
X408371Y293648D01*
X408315Y293565D01*
X408256Y293484D01*
X408193Y293406D01*
X408128Y293330D01*
X408060Y293256D01*
X407990Y293186D01*
X407916Y293118D01*
X407840Y293053D01*
X407762Y292990D01*
X407681Y292931D01*
X407598Y292875D01*
X407513Y292823D01*
X407426Y292773D01*
X407338Y292727D01*
X407247Y292684D01*
X407155Y292645D01*
X407062Y292610D01*
X406967Y292578D01*
X406871Y292549D01*
X406774Y292525D01*
X406676Y292504D01*
X406578Y292487D01*
X406478Y292473D01*
X406379Y292464D01*
X406279Y292458D01*
X406179Y292456D01*
X403569Y292456D01*
X413017Y297677D02*
X416150Y297677D01*
X416239Y297675D01*
X416327Y297669D01*
X416415Y297660D01*
X416503Y297647D01*
X416590Y297630D01*
X416676Y297610D01*
X416761Y297585D01*
X416846Y297558D01*
X416929Y297526D01*
X417010Y297492D01*
X417090Y297453D01*
X417168Y297412D01*
X417245Y297367D01*
X417319Y297319D01*
X417392Y297268D01*
X417462Y297214D01*
X417529Y297156D01*
X417595Y297096D01*
X417657Y297034D01*
X417717Y296968D01*
X417775Y296901D01*
X417829Y296831D01*
X417880Y296758D01*
X417928Y296684D01*
X417973Y296607D01*
X418014Y296529D01*
X418053Y296449D01*
X418087Y296368D01*
X418119Y296285D01*
X418146Y296200D01*
X418171Y296115D01*
X418191Y296029D01*
X418208Y295942D01*
X418221Y295854D01*
X418230Y295766D01*
X418236Y295678D01*
X418238Y295589D01*
X418238Y295067D01*
X418239Y295067D02*
X418237Y294966D01*
X418231Y294865D01*
X418221Y294764D01*
X418208Y294664D01*
X418190Y294564D01*
X418169Y294465D01*
X418143Y294367D01*
X418114Y294270D01*
X418082Y294174D01*
X418045Y294080D01*
X418005Y293987D01*
X417961Y293895D01*
X417914Y293806D01*
X417863Y293718D01*
X417809Y293632D01*
X417752Y293549D01*
X417692Y293467D01*
X417628Y293389D01*
X417562Y293312D01*
X417492Y293239D01*
X417420Y293168D01*
X417345Y293100D01*
X417267Y293035D01*
X417187Y292973D01*
X417105Y292914D01*
X417020Y292858D01*
X416933Y292806D01*
X416845Y292757D01*
X416754Y292711D01*
X416662Y292670D01*
X416568Y292631D01*
X416473Y292597D01*
X416377Y292566D01*
X416279Y292539D01*
X416181Y292515D01*
X416081Y292496D01*
X415981Y292480D01*
X415881Y292468D01*
X415780Y292460D01*
X415679Y292456D01*
X415577Y292456D01*
X415476Y292460D01*
X415375Y292468D01*
X415275Y292480D01*
X415175Y292496D01*
X415075Y292515D01*
X414977Y292539D01*
X414879Y292566D01*
X414783Y292597D01*
X414688Y292631D01*
X414594Y292670D01*
X414502Y292711D01*
X414411Y292757D01*
X414323Y292806D01*
X414236Y292858D01*
X414151Y292914D01*
X414069Y292973D01*
X413989Y293035D01*
X413911Y293100D01*
X413836Y293168D01*
X413764Y293239D01*
X413694Y293312D01*
X413628Y293389D01*
X413564Y293467D01*
X413504Y293549D01*
X413447Y293632D01*
X413393Y293718D01*
X413342Y293806D01*
X413295Y293895D01*
X413251Y293987D01*
X413211Y294080D01*
X413174Y294174D01*
X413142Y294270D01*
X413113Y294367D01*
X413087Y294465D01*
X413066Y294564D01*
X413048Y294664D01*
X413035Y294764D01*
X413025Y294865D01*
X413019Y294966D01*
X413017Y295067D01*
X413017Y297677D01*
X413019Y297806D01*
X413025Y297934D01*
X413035Y298062D01*
X413049Y298190D01*
X413066Y298318D01*
X413088Y298445D01*
X413114Y298571D01*
X413143Y298696D01*
X413176Y298820D01*
X413214Y298943D01*
X413254Y299065D01*
X413299Y299186D01*
X413347Y299305D01*
X413399Y299423D01*
X413455Y299539D01*
X413514Y299653D01*
X413577Y299765D01*
X413643Y299876D01*
X413712Y299984D01*
X413785Y300090D01*
X413861Y300194D01*
X413940Y300296D01*
X414022Y300395D01*
X414107Y300491D01*
X414195Y300585D01*
X414286Y300676D01*
X414380Y300764D01*
X414476Y300849D01*
X414575Y300931D01*
X414677Y301010D01*
X414781Y301086D01*
X414887Y301159D01*
X414995Y301228D01*
X415105Y301294D01*
X415218Y301357D01*
X415332Y301416D01*
X415448Y301472D01*
X415566Y301524D01*
X415685Y301572D01*
X415806Y301617D01*
X415928Y301657D01*
X416051Y301695D01*
X416175Y301728D01*
X416300Y301757D01*
X416426Y301783D01*
X416553Y301805D01*
X416681Y301822D01*
X416809Y301836D01*
X416937Y301846D01*
X417065Y301852D01*
X417194Y301854D01*
D125*
X421500Y287488D02*
X404000Y287488D01*
X404000Y274488D02*
X421500Y274488D01*
D123*
X403569Y276581D02*
X403569Y285979D01*
X406179Y285979D01*
X406279Y285977D01*
X406379Y285971D01*
X406478Y285962D01*
X406578Y285948D01*
X406676Y285931D01*
X406774Y285910D01*
X406871Y285886D01*
X406967Y285857D01*
X407062Y285825D01*
X407155Y285790D01*
X407247Y285751D01*
X407338Y285708D01*
X407426Y285662D01*
X407513Y285612D01*
X407598Y285560D01*
X407681Y285504D01*
X407762Y285445D01*
X407840Y285382D01*
X407916Y285317D01*
X407990Y285249D01*
X408060Y285179D01*
X408128Y285105D01*
X408193Y285029D01*
X408256Y284951D01*
X408315Y284870D01*
X408371Y284787D01*
X408423Y284702D01*
X408473Y284615D01*
X408519Y284527D01*
X408562Y284436D01*
X408601Y284344D01*
X408636Y284251D01*
X408668Y284156D01*
X408697Y284060D01*
X408721Y283963D01*
X408742Y283865D01*
X408759Y283767D01*
X408773Y283667D01*
X408782Y283568D01*
X408788Y283468D01*
X408790Y283368D01*
X408790Y279192D01*
X408788Y279092D01*
X408782Y278992D01*
X408773Y278893D01*
X408759Y278793D01*
X408742Y278695D01*
X408721Y278597D01*
X408697Y278500D01*
X408668Y278404D01*
X408636Y278309D01*
X408601Y278216D01*
X408562Y278124D01*
X408519Y278033D01*
X408473Y277945D01*
X408423Y277858D01*
X408371Y277773D01*
X408315Y277690D01*
X408256Y277609D01*
X408193Y277531D01*
X408128Y277455D01*
X408060Y277381D01*
X407990Y277311D01*
X407916Y277243D01*
X407840Y277178D01*
X407762Y277115D01*
X407681Y277056D01*
X407598Y277000D01*
X407513Y276948D01*
X407426Y276898D01*
X407338Y276852D01*
X407247Y276809D01*
X407155Y276770D01*
X407062Y276735D01*
X406967Y276703D01*
X406871Y276674D01*
X406774Y276650D01*
X406676Y276629D01*
X406578Y276612D01*
X406478Y276598D01*
X406379Y276589D01*
X406279Y276583D01*
X406179Y276581D01*
X403569Y276581D01*
X413017Y284935D02*
X413017Y285979D01*
X418238Y285979D01*
X415628Y276581D01*
D122*
X268288Y378500D02*
X265788Y378500D01*
X268288Y378500D02*
X270788Y378500D01*
X268288Y378500D02*
X265788Y383500D01*
X270788Y383500D02*
X268288Y378500D01*
X270788Y383500D02*
X265788Y383500D01*
X263288Y393500D02*
X273288Y393500D01*
X273288Y368500D01*
X263288Y368500D01*
X263288Y393500D01*
D123*
X264146Y342331D02*
X273544Y342331D01*
X264146Y342331D02*
X264146Y344942D01*
X264148Y345042D01*
X264154Y345142D01*
X264163Y345241D01*
X264177Y345341D01*
X264194Y345439D01*
X264215Y345537D01*
X264239Y345634D01*
X264268Y345730D01*
X264300Y345825D01*
X264335Y345918D01*
X264374Y346010D01*
X264417Y346101D01*
X264463Y346189D01*
X264513Y346276D01*
X264565Y346361D01*
X264621Y346444D01*
X264680Y346525D01*
X264743Y346603D01*
X264808Y346679D01*
X264876Y346753D01*
X264946Y346823D01*
X265020Y346891D01*
X265096Y346956D01*
X265174Y347019D01*
X265255Y347078D01*
X265338Y347134D01*
X265423Y347186D01*
X265510Y347236D01*
X265598Y347282D01*
X265689Y347325D01*
X265781Y347364D01*
X265874Y347399D01*
X265969Y347431D01*
X266065Y347460D01*
X266162Y347484D01*
X266260Y347505D01*
X266358Y347522D01*
X266458Y347536D01*
X266557Y347545D01*
X266657Y347551D01*
X266757Y347553D01*
X266757Y347552D02*
X270933Y347552D01*
X270933Y347553D02*
X271033Y347551D01*
X271133Y347545D01*
X271232Y347536D01*
X271332Y347522D01*
X271430Y347505D01*
X271528Y347484D01*
X271625Y347460D01*
X271721Y347431D01*
X271816Y347399D01*
X271909Y347364D01*
X272001Y347325D01*
X272092Y347282D01*
X272180Y347236D01*
X272267Y347186D01*
X272352Y347134D01*
X272435Y347078D01*
X272516Y347019D01*
X272594Y346956D01*
X272670Y346891D01*
X272744Y346823D01*
X272814Y346753D01*
X272882Y346679D01*
X272947Y346603D01*
X273010Y346525D01*
X273069Y346444D01*
X273125Y346361D01*
X273177Y346276D01*
X273227Y346189D01*
X273273Y346101D01*
X273316Y346010D01*
X273355Y345918D01*
X273390Y345825D01*
X273422Y345730D01*
X273451Y345634D01*
X273475Y345537D01*
X273496Y345439D01*
X273513Y345341D01*
X273527Y345241D01*
X273536Y345142D01*
X273542Y345042D01*
X273544Y344942D01*
X273544Y342331D01*
X266234Y351780D02*
X264146Y354390D01*
X273544Y354390D01*
X273544Y351780D02*
X273544Y357001D01*
X268845Y360924D02*
X268660Y360926D01*
X268475Y360933D01*
X268291Y360944D01*
X268107Y360959D01*
X267923Y360979D01*
X267739Y361003D01*
X267557Y361032D01*
X267375Y361065D01*
X267194Y361102D01*
X267014Y361144D01*
X266834Y361190D01*
X266656Y361240D01*
X266480Y361294D01*
X266304Y361353D01*
X266130Y361415D01*
X265958Y361482D01*
X265787Y361553D01*
X265618Y361628D01*
X265451Y361707D01*
X265451Y361706D02*
X265371Y361736D01*
X265292Y361769D01*
X265215Y361806D01*
X265139Y361846D01*
X265065Y361889D01*
X264993Y361935D01*
X264924Y361985D01*
X264856Y362037D01*
X264791Y362093D01*
X264728Y362151D01*
X264669Y362213D01*
X264611Y362276D01*
X264557Y362343D01*
X264506Y362411D01*
X264458Y362482D01*
X264413Y362555D01*
X264371Y362629D01*
X264333Y362706D01*
X264298Y362784D01*
X264266Y362863D01*
X264238Y362944D01*
X264214Y363026D01*
X264193Y363110D01*
X264176Y363193D01*
X264163Y363278D01*
X264154Y363363D01*
X264148Y363448D01*
X264146Y363534D01*
X264148Y363620D01*
X264154Y363705D01*
X264163Y363790D01*
X264176Y363875D01*
X264193Y363958D01*
X264214Y364042D01*
X264238Y364124D01*
X264266Y364205D01*
X264298Y364284D01*
X264333Y364362D01*
X264371Y364439D01*
X264413Y364513D01*
X264458Y364586D01*
X264506Y364657D01*
X264557Y364725D01*
X264611Y364792D01*
X264669Y364855D01*
X264728Y364917D01*
X264791Y364975D01*
X264856Y365031D01*
X264924Y365083D01*
X264993Y365133D01*
X265065Y365179D01*
X265139Y365222D01*
X265215Y365262D01*
X265292Y365299D01*
X265371Y365332D01*
X265451Y365362D01*
X265618Y365441D01*
X265787Y365516D01*
X265958Y365587D01*
X266130Y365654D01*
X266304Y365716D01*
X266480Y365775D01*
X266656Y365829D01*
X266834Y365879D01*
X267014Y365925D01*
X267194Y365967D01*
X267375Y366004D01*
X267557Y366037D01*
X267739Y366066D01*
X267923Y366090D01*
X268107Y366110D01*
X268291Y366125D01*
X268475Y366136D01*
X268660Y366143D01*
X268845Y366145D01*
X268845Y360924D02*
X269030Y360926D01*
X269215Y360933D01*
X269399Y360944D01*
X269583Y360959D01*
X269767Y360979D01*
X269951Y361003D01*
X270133Y361032D01*
X270315Y361065D01*
X270496Y361102D01*
X270676Y361144D01*
X270856Y361190D01*
X271034Y361240D01*
X271210Y361294D01*
X271386Y361353D01*
X271560Y361415D01*
X271732Y361482D01*
X271903Y361553D01*
X272072Y361628D01*
X272239Y361707D01*
X272239Y361706D02*
X272319Y361736D01*
X272398Y361769D01*
X272475Y361806D01*
X272551Y361846D01*
X272625Y361889D01*
X272697Y361935D01*
X272766Y361985D01*
X272834Y362038D01*
X272899Y362093D01*
X272962Y362152D01*
X273021Y362213D01*
X273079Y362276D01*
X273133Y362343D01*
X273184Y362411D01*
X273232Y362482D01*
X273277Y362555D01*
X273319Y362629D01*
X273357Y362706D01*
X273392Y362784D01*
X273424Y362863D01*
X273452Y362944D01*
X273476Y363026D01*
X273497Y363110D01*
X273514Y363193D01*
X273527Y363278D01*
X273536Y363363D01*
X273542Y363448D01*
X273544Y363534D01*
X272239Y365362D02*
X272072Y365441D01*
X271903Y365516D01*
X271732Y365587D01*
X271560Y365654D01*
X271386Y365716D01*
X271210Y365775D01*
X271034Y365829D01*
X270856Y365879D01*
X270676Y365925D01*
X270496Y365967D01*
X270315Y366004D01*
X270133Y366037D01*
X269951Y366066D01*
X269767Y366090D01*
X269583Y366110D01*
X269399Y366125D01*
X269215Y366136D01*
X269030Y366143D01*
X268845Y366145D01*
X272239Y365362D02*
X272319Y365332D01*
X272398Y365299D01*
X272475Y365262D01*
X272551Y365222D01*
X272625Y365179D01*
X272697Y365133D01*
X272766Y365083D01*
X272834Y365031D01*
X272899Y364975D01*
X272962Y364917D01*
X273021Y364855D01*
X273079Y364792D01*
X273133Y364725D01*
X273184Y364657D01*
X273232Y364586D01*
X273277Y364513D01*
X273319Y364439D01*
X273357Y364362D01*
X273392Y364284D01*
X273424Y364205D01*
X273452Y364124D01*
X273476Y364042D01*
X273497Y363958D01*
X273514Y363875D01*
X273527Y363790D01*
X273536Y363705D01*
X273542Y363620D01*
X273544Y363534D01*
X271456Y361446D02*
X266234Y365623D01*
M02*
