G04 EAGLE Gerber RS-274X export*
G75*
%MOMM*%
%FSLAX34Y34*%
%LPD*%
%INSoldermask Top*%
%IPPOS*%
%AMOC8*
5,1,8,0,0,1.08239X$1,22.5*%
G01*
%ADD10R,0.901600X0.901600*%
%ADD11R,1.101600X1.201600*%
%ADD12C,0.605878*%
%ADD13C,1.101600*%
%ADD14R,0.901600X0.501600*%
%ADD15R,0.501600X0.901600*%
%ADD16R,1.551600X1.551600*%
%ADD17R,0.801600X0.801600*%
%ADD18R,0.351600X0.461600*%
%ADD19R,1.001600X0.801600*%
%ADD20R,1.601600X1.401600*%
%ADD21R,0.801600X1.001600*%
%ADD22R,0.311600X0.371600*%

G36*
X16967Y-150688D02*
X16967Y-150688D01*
X16996Y-150690D01*
X17063Y-150668D01*
X17133Y-150654D01*
X17157Y-150638D01*
X17185Y-150629D01*
X17238Y-150582D01*
X17297Y-150542D01*
X17313Y-150517D01*
X17335Y-150498D01*
X17366Y-150434D01*
X17404Y-150374D01*
X17409Y-150345D01*
X17422Y-150319D01*
X17430Y-150220D01*
X17437Y-150178D01*
X17434Y-150167D01*
X17436Y-150153D01*
X17204Y-147355D01*
X17194Y-147322D01*
X17190Y-147274D01*
X16501Y-144552D01*
X16486Y-144521D01*
X16474Y-144474D01*
X15346Y-141903D01*
X15326Y-141875D01*
X15307Y-141830D01*
X13771Y-139480D01*
X13747Y-139455D01*
X13721Y-139415D01*
X11819Y-137349D01*
X11791Y-137329D01*
X11759Y-137293D01*
X9543Y-135569D01*
X9512Y-135553D01*
X9474Y-135524D01*
X7005Y-134187D01*
X6971Y-134177D01*
X6929Y-134154D01*
X5743Y-133747D01*
X4289Y-133248D01*
X4273Y-133243D01*
X4239Y-133238D01*
X4194Y-133222D01*
X1424Y-132760D01*
X1389Y-132761D01*
X1342Y-132753D01*
X-1466Y-132753D01*
X-1500Y-132760D01*
X-1548Y-132760D01*
X-4317Y-133222D01*
X-4350Y-133235D01*
X-4397Y-133243D01*
X-7053Y-134154D01*
X-7083Y-134172D01*
X-7128Y-134187D01*
X-9598Y-135524D01*
X-9624Y-135546D01*
X-9667Y-135569D01*
X-11882Y-137293D01*
X-11905Y-137320D01*
X-11943Y-137349D01*
X-13845Y-139415D01*
X-13863Y-139444D01*
X-13895Y-139480D01*
X-15431Y-141830D01*
X-15444Y-141863D01*
X-15470Y-141903D01*
X-16598Y-144474D01*
X-16605Y-144508D01*
X-16608Y-144515D01*
X-16614Y-144523D01*
X-16615Y-144530D01*
X-16625Y-144552D01*
X-17314Y-147274D01*
X-17316Y-147309D01*
X-17328Y-147355D01*
X-17559Y-150153D01*
X-17556Y-150182D01*
X-17561Y-150211D01*
X-17544Y-150280D01*
X-17536Y-150351D01*
X-17522Y-150376D01*
X-17515Y-150405D01*
X-17473Y-150462D01*
X-17437Y-150523D01*
X-17414Y-150541D01*
X-17397Y-150565D01*
X-17336Y-150601D01*
X-17279Y-150644D01*
X-17251Y-150651D01*
X-17226Y-150666D01*
X-17128Y-150683D01*
X-17087Y-150693D01*
X-17076Y-150691D01*
X-17062Y-150694D01*
X16938Y-150694D01*
X16967Y-150688D01*
G37*
G36*
X-121455Y-90385D02*
X-121455Y-90385D01*
X-121384Y-90388D01*
X-121357Y-90378D01*
X-121328Y-90375D01*
X-121238Y-90333D01*
X-121198Y-90318D01*
X-121190Y-90311D01*
X-121177Y-90305D01*
X-118874Y-88705D01*
X-118850Y-88680D01*
X-118810Y-88653D01*
X-116801Y-86696D01*
X-116781Y-86667D01*
X-116747Y-86634D01*
X-115087Y-84373D01*
X-115073Y-84341D01*
X-115044Y-84302D01*
X-113780Y-81799D01*
X-113771Y-81766D01*
X-113749Y-81723D01*
X-112913Y-79046D01*
X-112910Y-79011D01*
X-112895Y-78965D01*
X-112512Y-76187D01*
X-112514Y-76152D01*
X-112507Y-76105D01*
X-112587Y-73301D01*
X-112594Y-73268D01*
X-112596Y-73219D01*
X-113135Y-70467D01*
X-113149Y-70435D01*
X-113158Y-70388D01*
X-114143Y-67762D01*
X-114158Y-67737D01*
X-114163Y-67718D01*
X-114171Y-67707D01*
X-114178Y-67688D01*
X-115582Y-65260D01*
X-115605Y-65234D01*
X-115629Y-65192D01*
X-117413Y-63028D01*
X-117440Y-63007D01*
X-117471Y-62969D01*
X-119587Y-61129D01*
X-119617Y-61112D01*
X-119653Y-61080D01*
X-122043Y-59613D01*
X-122076Y-59601D01*
X-122117Y-59576D01*
X-124716Y-58522D01*
X-124750Y-58516D01*
X-124795Y-58498D01*
X-127532Y-57886D01*
X-127567Y-57885D01*
X-127614Y-57875D01*
X-130414Y-57722D01*
X-130448Y-57727D01*
X-130496Y-57725D01*
X-133284Y-58035D01*
X-133317Y-58046D01*
X-133364Y-58051D01*
X-136063Y-58816D01*
X-136093Y-58832D01*
X-136140Y-58845D01*
X-138675Y-60043D01*
X-138699Y-60061D01*
X-138726Y-60071D01*
X-138778Y-60120D01*
X-138835Y-60162D01*
X-138849Y-60187D01*
X-138870Y-60208D01*
X-138899Y-60273D01*
X-138935Y-60334D01*
X-138938Y-60363D01*
X-138950Y-60390D01*
X-138951Y-60461D01*
X-138960Y-60531D01*
X-138952Y-60559D01*
X-138952Y-60589D01*
X-138918Y-60682D01*
X-138906Y-60723D01*
X-138899Y-60732D01*
X-138894Y-60744D01*
X-121894Y-90144D01*
X-121875Y-90166D01*
X-121862Y-90193D01*
X-121809Y-90240D01*
X-121762Y-90293D01*
X-121736Y-90306D01*
X-121714Y-90325D01*
X-121647Y-90348D01*
X-121583Y-90379D01*
X-121554Y-90380D01*
X-121526Y-90390D01*
X-121455Y-90385D01*
G37*
G36*
X130324Y57338D02*
X130324Y57338D01*
X130372Y57335D01*
X133160Y57646D01*
X133193Y57656D01*
X133241Y57662D01*
X135939Y58427D01*
X135970Y58442D01*
X136016Y58456D01*
X138551Y59654D01*
X138575Y59672D01*
X138602Y59682D01*
X138654Y59731D01*
X138711Y59773D01*
X138725Y59798D01*
X138747Y59818D01*
X138775Y59884D01*
X138811Y59945D01*
X138815Y59974D01*
X138826Y60001D01*
X138827Y60072D01*
X138836Y60142D01*
X138828Y60170D01*
X138828Y60200D01*
X138794Y60292D01*
X138782Y60334D01*
X138775Y60342D01*
X138770Y60355D01*
X121770Y89755D01*
X121751Y89777D01*
X121739Y89804D01*
X121686Y89851D01*
X121638Y89904D01*
X121612Y89917D01*
X121590Y89936D01*
X121523Y89959D01*
X121459Y89990D01*
X121430Y89991D01*
X121402Y90001D01*
X121331Y89996D01*
X121260Y89999D01*
X121233Y89988D01*
X121204Y89986D01*
X121114Y89944D01*
X121074Y89929D01*
X121066Y89921D01*
X121053Y89916D01*
X118750Y88316D01*
X118726Y88291D01*
X118686Y88264D01*
X116677Y86307D01*
X116658Y86278D01*
X116623Y86244D01*
X114964Y83984D01*
X114949Y83952D01*
X114921Y83913D01*
X113656Y81410D01*
X113647Y81377D01*
X113625Y81334D01*
X112789Y78657D01*
X112786Y78622D01*
X112772Y78576D01*
X112388Y75798D01*
X112390Y75763D01*
X112384Y75716D01*
X112463Y72912D01*
X112471Y72878D01*
X112472Y72830D01*
X113011Y70078D01*
X113025Y70046D01*
X113034Y69999D01*
X114019Y67373D01*
X114037Y67344D01*
X114054Y67299D01*
X115458Y64871D01*
X115481Y64845D01*
X115505Y64803D01*
X117289Y62639D01*
X117316Y62618D01*
X117347Y62580D01*
X119463Y60740D01*
X119493Y60723D01*
X119529Y60691D01*
X121920Y59224D01*
X121952Y59212D01*
X121993Y59187D01*
X124592Y58133D01*
X124626Y58127D01*
X124671Y58109D01*
X127408Y57497D01*
X127443Y57496D01*
X127490Y57486D01*
X130290Y57333D01*
X130324Y57338D01*
G37*
G36*
X121364Y-90384D02*
X121364Y-90384D01*
X121435Y-90384D01*
X121462Y-90373D01*
X121491Y-90370D01*
X121553Y-90335D01*
X121618Y-90308D01*
X121639Y-90287D01*
X121664Y-90273D01*
X121727Y-90196D01*
X121757Y-90166D01*
X121762Y-90155D01*
X121770Y-90144D01*
X138770Y-60744D01*
X138780Y-60717D01*
X138796Y-60693D01*
X138811Y-60623D01*
X138834Y-60556D01*
X138831Y-60527D01*
X138837Y-60498D01*
X138824Y-60429D01*
X138818Y-60358D01*
X138805Y-60332D01*
X138799Y-60303D01*
X138759Y-60244D01*
X138727Y-60181D01*
X138704Y-60163D01*
X138688Y-60138D01*
X138606Y-60081D01*
X138574Y-60054D01*
X138563Y-60051D01*
X138551Y-60043D01*
X136016Y-58845D01*
X135982Y-58836D01*
X135939Y-58816D01*
X133241Y-58051D01*
X133206Y-58048D01*
X133160Y-58035D01*
X130372Y-57725D01*
X130338Y-57728D01*
X130290Y-57722D01*
X127490Y-57875D01*
X127456Y-57884D01*
X127408Y-57886D01*
X124671Y-58498D01*
X124639Y-58512D01*
X124592Y-58522D01*
X121993Y-59576D01*
X121964Y-59595D01*
X121920Y-59613D01*
X119529Y-61080D01*
X119504Y-61104D01*
X119463Y-61129D01*
X117347Y-62969D01*
X117326Y-62997D01*
X117289Y-63028D01*
X115505Y-65192D01*
X115489Y-65223D01*
X115458Y-65260D01*
X114054Y-67688D01*
X114043Y-67720D01*
X114036Y-67733D01*
X114026Y-67748D01*
X114026Y-67750D01*
X114019Y-67762D01*
X113034Y-70388D01*
X113028Y-70422D01*
X113011Y-70467D01*
X112472Y-73219D01*
X112472Y-73254D01*
X112463Y-73301D01*
X112384Y-76105D01*
X112390Y-76139D01*
X112388Y-76187D01*
X112772Y-78965D01*
X112783Y-78998D01*
X112789Y-79046D01*
X113625Y-81723D01*
X113642Y-81753D01*
X113656Y-81799D01*
X114921Y-84302D01*
X114942Y-84330D01*
X114964Y-84373D01*
X116623Y-86634D01*
X116649Y-86657D01*
X116677Y-86696D01*
X118686Y-88653D01*
X118715Y-88671D01*
X118750Y-88705D01*
X121053Y-90305D01*
X121080Y-90316D01*
X121103Y-90335D01*
X121171Y-90355D01*
X121236Y-90383D01*
X121265Y-90383D01*
X121293Y-90392D01*
X121364Y-90384D01*
G37*
G36*
X-127614Y57486D02*
X-127614Y57486D01*
X-127580Y57495D01*
X-127532Y57497D01*
X-124795Y58109D01*
X-124763Y58123D01*
X-124716Y58133D01*
X-122117Y59187D01*
X-122088Y59206D01*
X-122043Y59224D01*
X-119653Y60691D01*
X-119628Y60715D01*
X-119587Y60740D01*
X-117471Y62580D01*
X-117450Y62608D01*
X-117413Y62639D01*
X-115629Y64803D01*
X-115613Y64834D01*
X-115582Y64871D01*
X-114178Y67299D01*
X-114167Y67331D01*
X-114143Y67373D01*
X-113158Y69999D01*
X-113152Y70033D01*
X-113135Y70078D01*
X-112596Y72830D01*
X-112596Y72865D01*
X-112587Y72912D01*
X-112507Y75716D01*
X-112513Y75750D01*
X-112512Y75798D01*
X-112895Y78576D01*
X-112907Y78609D01*
X-112913Y78657D01*
X-113749Y81334D01*
X-113765Y81364D01*
X-113780Y81410D01*
X-115044Y83913D01*
X-115066Y83941D01*
X-115087Y83984D01*
X-116747Y86244D01*
X-116773Y86268D01*
X-116801Y86307D01*
X-118810Y88264D01*
X-118839Y88282D01*
X-118874Y88316D01*
X-121177Y89916D01*
X-121204Y89927D01*
X-121226Y89946D01*
X-121295Y89966D01*
X-121360Y89994D01*
X-121389Y89994D01*
X-121417Y90003D01*
X-121488Y89995D01*
X-121559Y89995D01*
X-121586Y89984D01*
X-121615Y89981D01*
X-121677Y89946D01*
X-121742Y89919D01*
X-121763Y89898D01*
X-121788Y89884D01*
X-121851Y89807D01*
X-121881Y89777D01*
X-121885Y89766D01*
X-121894Y89755D01*
X-138894Y60355D01*
X-138903Y60328D01*
X-138920Y60304D01*
X-138935Y60234D01*
X-138957Y60167D01*
X-138955Y60138D01*
X-138961Y60109D01*
X-138948Y60039D01*
X-138942Y59969D01*
X-138929Y59943D01*
X-138923Y59914D01*
X-138883Y59855D01*
X-138851Y59792D01*
X-138828Y59773D01*
X-138812Y59749D01*
X-138730Y59692D01*
X-138697Y59665D01*
X-138687Y59662D01*
X-138675Y59654D01*
X-136140Y58456D01*
X-136106Y58447D01*
X-136063Y58427D01*
X-133364Y57662D01*
X-133330Y57659D01*
X-133284Y57646D01*
X-130496Y57335D01*
X-130462Y57339D01*
X-130414Y57333D01*
X-127614Y57486D01*
G37*
G36*
X163665Y-17184D02*
X163665Y-17184D01*
X163736Y-17184D01*
X163763Y-17173D01*
X163792Y-17170D01*
X163854Y-17135D01*
X163919Y-17107D01*
X163940Y-17086D01*
X163965Y-17072D01*
X164029Y-16995D01*
X164058Y-16964D01*
X164062Y-16954D01*
X164071Y-16944D01*
X173571Y-444D01*
X173581Y-412D01*
X173590Y-399D01*
X173594Y-375D01*
X173595Y-371D01*
X173626Y-300D01*
X173626Y-277D01*
X173634Y-255D01*
X173628Y-178D01*
X173629Y-101D01*
X173620Y-77D01*
X173618Y-57D01*
X173597Y-17D01*
X173571Y55D01*
X164071Y16555D01*
X164052Y16576D01*
X164039Y16603D01*
X163986Y16650D01*
X163939Y16704D01*
X163913Y16716D01*
X163892Y16736D01*
X163824Y16759D01*
X163760Y16790D01*
X163731Y16791D01*
X163704Y16800D01*
X163633Y16796D01*
X163561Y16799D01*
X163534Y16789D01*
X163505Y16787D01*
X163415Y16744D01*
X163375Y16730D01*
X163367Y16722D01*
X163355Y16716D01*
X160831Y14975D01*
X160808Y14950D01*
X160769Y14924D01*
X158557Y12800D01*
X158538Y12772D01*
X158504Y12740D01*
X156662Y10288D01*
X156648Y10258D01*
X156619Y10220D01*
X155194Y7505D01*
X155185Y7474D01*
X155169Y7449D01*
X155168Y7441D01*
X155163Y7432D01*
X154192Y4523D01*
X154188Y4489D01*
X154173Y4445D01*
X153681Y1419D01*
X153682Y1385D01*
X153674Y1339D01*
X153674Y-1728D01*
X153675Y-1731D01*
X153675Y-1734D01*
X153681Y-1760D01*
X153681Y-1761D01*
X153681Y-1808D01*
X154173Y-4834D01*
X154185Y-4866D01*
X154192Y-4912D01*
X155163Y-7821D01*
X155180Y-7850D01*
X155194Y-7895D01*
X156619Y-10609D01*
X156641Y-10636D01*
X156662Y-10677D01*
X158504Y-13129D01*
X158530Y-13151D01*
X158557Y-13189D01*
X160769Y-15313D01*
X160798Y-15331D01*
X160831Y-15364D01*
X163355Y-17105D01*
X163381Y-17117D01*
X163403Y-17135D01*
X163472Y-17156D01*
X163537Y-17184D01*
X163566Y-17184D01*
X163594Y-17192D01*
X163665Y-17184D01*
G37*
G36*
X-163756Y-17185D02*
X-163756Y-17185D01*
X-163685Y-17188D01*
X-163658Y-17178D01*
X-163629Y-17176D01*
X-163539Y-17134D01*
X-163499Y-17119D01*
X-163491Y-17111D01*
X-163478Y-17105D01*
X-160955Y-15364D01*
X-160931Y-15339D01*
X-160893Y-15313D01*
X-158681Y-13189D01*
X-158662Y-13161D01*
X-158628Y-13129D01*
X-156786Y-10677D01*
X-156771Y-10647D01*
X-156743Y-10609D01*
X-155318Y-7895D01*
X-155309Y-7862D01*
X-155287Y-7821D01*
X-154316Y-4912D01*
X-154312Y-4879D01*
X-154296Y-4834D01*
X-153805Y-1808D01*
X-153806Y-1774D01*
X-153798Y-1728D01*
X-153798Y1339D01*
X-153805Y1372D01*
X-153805Y1419D01*
X-154296Y4445D01*
X-154308Y4477D01*
X-154316Y4523D01*
X-155287Y7432D01*
X-155300Y7455D01*
X-155306Y7479D01*
X-155313Y7488D01*
X-155318Y7505D01*
X-156743Y10220D01*
X-156765Y10247D01*
X-156786Y10288D01*
X-158628Y12740D01*
X-158653Y12762D01*
X-158681Y12800D01*
X-160893Y14924D01*
X-160921Y14942D01*
X-160955Y14975D01*
X-163478Y16716D01*
X-163505Y16728D01*
X-163527Y16746D01*
X-163596Y16766D01*
X-163661Y16794D01*
X-163690Y16795D01*
X-163718Y16803D01*
X-163789Y16795D01*
X-163860Y16795D01*
X-163887Y16784D01*
X-163915Y16781D01*
X-163978Y16745D01*
X-164043Y16718D01*
X-164063Y16697D01*
X-164089Y16683D01*
X-164152Y16606D01*
X-164182Y16575D01*
X-164186Y16565D01*
X-164195Y16555D01*
X-173695Y55D01*
X-173719Y-18D01*
X-173750Y-89D01*
X-173750Y-112D01*
X-173757Y-134D01*
X-173751Y-211D01*
X-173752Y-288D01*
X-173743Y-312D01*
X-173742Y-332D01*
X-173721Y-372D01*
X-173702Y-424D01*
X-173701Y-429D01*
X-173699Y-431D01*
X-173695Y-444D01*
X-164195Y-16944D01*
X-164175Y-16965D01*
X-164163Y-16992D01*
X-164110Y-17039D01*
X-164063Y-17093D01*
X-164037Y-17105D01*
X-164015Y-17125D01*
X-163948Y-17148D01*
X-163884Y-17179D01*
X-163855Y-17180D01*
X-163827Y-17189D01*
X-163756Y-17185D01*
G37*
G36*
X86614Y-150678D02*
X86614Y-150678D01*
X86692Y-150670D01*
X86711Y-150659D01*
X86733Y-150654D01*
X86797Y-150610D01*
X86865Y-150572D01*
X86881Y-150553D01*
X86897Y-150542D01*
X86921Y-150504D01*
X86971Y-150444D01*
X96471Y-133944D01*
X96480Y-133917D01*
X96496Y-133893D01*
X96511Y-133823D01*
X96534Y-133755D01*
X96531Y-133727D01*
X96537Y-133698D01*
X96524Y-133628D01*
X96518Y-133557D01*
X96505Y-133531D01*
X96499Y-133503D01*
X96459Y-133444D01*
X96426Y-133380D01*
X96404Y-133362D01*
X96388Y-133338D01*
X96305Y-133281D01*
X96273Y-133254D01*
X96263Y-133251D01*
X96252Y-133243D01*
X93486Y-131935D01*
X93453Y-131927D01*
X93410Y-131906D01*
X90470Y-131059D01*
X90437Y-131056D01*
X90392Y-131043D01*
X87354Y-130677D01*
X87320Y-130680D01*
X87273Y-130674D01*
X84216Y-130801D01*
X84183Y-130809D01*
X84136Y-130811D01*
X81139Y-131427D01*
X81108Y-131440D01*
X81062Y-131449D01*
X78202Y-132538D01*
X78174Y-132556D01*
X78130Y-132572D01*
X75482Y-134105D01*
X75456Y-134128D01*
X75416Y-134151D01*
X73048Y-136089D01*
X73026Y-136115D01*
X72990Y-136145D01*
X70964Y-138437D01*
X70947Y-138467D01*
X70915Y-138502D01*
X69283Y-141090D01*
X69271Y-141122D01*
X69246Y-141161D01*
X68050Y-143977D01*
X68043Y-144011D01*
X68040Y-144017D01*
X68036Y-144024D01*
X68035Y-144029D01*
X68025Y-144054D01*
X67296Y-147025D01*
X67294Y-147059D01*
X67283Y-147105D01*
X67040Y-150155D01*
X67044Y-150183D01*
X67039Y-150211D01*
X67056Y-150281D01*
X67064Y-150352D01*
X67079Y-150377D01*
X67085Y-150405D01*
X67128Y-150462D01*
X67164Y-150525D01*
X67186Y-150542D01*
X67203Y-150565D01*
X67265Y-150601D01*
X67322Y-150645D01*
X67350Y-150652D01*
X67374Y-150666D01*
X67474Y-150683D01*
X67515Y-150693D01*
X67525Y-150692D01*
X67538Y-150694D01*
X86538Y-150694D01*
X86614Y-150678D01*
G37*
G36*
X87307Y130291D02*
X87307Y130291D01*
X87354Y130288D01*
X90392Y130654D01*
X90424Y130664D01*
X90470Y130670D01*
X93410Y131517D01*
X93440Y131533D01*
X93486Y131546D01*
X96252Y132854D01*
X96275Y132871D01*
X96301Y132881D01*
X96353Y132930D01*
X96411Y132973D01*
X96425Y132998D01*
X96446Y133018D01*
X96475Y133083D01*
X96511Y133145D01*
X96514Y133173D01*
X96526Y133200D01*
X96527Y133272D01*
X96536Y133342D01*
X96528Y133370D01*
X96529Y133399D01*
X96494Y133493D01*
X96482Y133534D01*
X96475Y133542D01*
X96471Y133555D01*
X86971Y150055D01*
X86919Y150113D01*
X86873Y150176D01*
X86854Y150187D01*
X86839Y150204D01*
X86769Y150237D01*
X86702Y150277D01*
X86678Y150281D01*
X86660Y150290D01*
X86615Y150292D01*
X86538Y150305D01*
X67538Y150305D01*
X67510Y150299D01*
X67482Y150302D01*
X67414Y150279D01*
X67343Y150265D01*
X67320Y150249D01*
X67293Y150240D01*
X67239Y150193D01*
X67179Y150153D01*
X67164Y150129D01*
X67143Y150110D01*
X67111Y150046D01*
X67072Y149985D01*
X67068Y149957D01*
X67055Y149932D01*
X67046Y149830D01*
X67039Y149789D01*
X67042Y149779D01*
X67040Y149766D01*
X67283Y146716D01*
X67292Y146683D01*
X67296Y146636D01*
X68025Y143665D01*
X68039Y143634D01*
X68050Y143588D01*
X69246Y140772D01*
X69265Y140744D01*
X69283Y140701D01*
X70915Y138113D01*
X70939Y138088D01*
X70964Y138048D01*
X72990Y135756D01*
X73017Y135735D01*
X73048Y135700D01*
X75416Y133762D01*
X75446Y133746D01*
X75482Y133716D01*
X78130Y132183D01*
X78162Y132172D01*
X78202Y132148D01*
X81062Y131060D01*
X81096Y131054D01*
X81139Y131038D01*
X84136Y130422D01*
X84170Y130422D01*
X84216Y130412D01*
X87273Y130285D01*
X87307Y130291D01*
G37*
G36*
X-67634Y-150688D02*
X-67634Y-150688D01*
X-67606Y-150691D01*
X-67538Y-150669D01*
X-67467Y-150654D01*
X-67444Y-150638D01*
X-67417Y-150629D01*
X-67362Y-150582D01*
X-67303Y-150542D01*
X-67288Y-150518D01*
X-67266Y-150499D01*
X-67235Y-150435D01*
X-67196Y-150374D01*
X-67191Y-150346D01*
X-67179Y-150321D01*
X-67170Y-150219D01*
X-67163Y-150178D01*
X-67165Y-150168D01*
X-67164Y-150155D01*
X-67407Y-147105D01*
X-67416Y-147072D01*
X-67420Y-147025D01*
X-68148Y-144054D01*
X-68163Y-144023D01*
X-68174Y-143977D01*
X-69370Y-141161D01*
X-69389Y-141133D01*
X-69407Y-141090D01*
X-71039Y-138502D01*
X-71063Y-138477D01*
X-71087Y-138437D01*
X-73114Y-136145D01*
X-73141Y-136124D01*
X-73172Y-136089D01*
X-75539Y-134151D01*
X-75569Y-134135D01*
X-75605Y-134105D01*
X-78254Y-132572D01*
X-78286Y-132561D01*
X-78326Y-132538D01*
X-81186Y-131449D01*
X-81219Y-131444D01*
X-81263Y-131427D01*
X-84260Y-130811D01*
X-84294Y-130811D01*
X-84340Y-130801D01*
X-87397Y-130674D01*
X-87431Y-130680D01*
X-87477Y-130677D01*
X-90515Y-131043D01*
X-90548Y-131053D01*
X-90594Y-131059D01*
X-93534Y-131906D01*
X-93564Y-131922D01*
X-93609Y-131935D01*
X-96375Y-133243D01*
X-96398Y-133260D01*
X-96425Y-133270D01*
X-96477Y-133319D01*
X-96535Y-133362D01*
X-96549Y-133387D01*
X-96570Y-133407D01*
X-96599Y-133472D01*
X-96635Y-133534D01*
X-96638Y-133563D01*
X-96650Y-133589D01*
X-96651Y-133661D01*
X-96660Y-133731D01*
X-96652Y-133759D01*
X-96652Y-133788D01*
X-96617Y-133882D01*
X-96606Y-133923D01*
X-96599Y-133931D01*
X-96595Y-133944D01*
X-87095Y-150444D01*
X-87043Y-150502D01*
X-86997Y-150565D01*
X-86978Y-150576D01*
X-86963Y-150593D01*
X-86893Y-150626D01*
X-86826Y-150666D01*
X-86801Y-150670D01*
X-86784Y-150679D01*
X-86739Y-150681D01*
X-86662Y-150694D01*
X-67662Y-150694D01*
X-67634Y-150688D01*
G37*
G36*
X-84340Y130412D02*
X-84340Y130412D01*
X-84307Y130420D01*
X-84260Y130422D01*
X-81263Y131038D01*
X-81232Y131051D01*
X-81186Y131060D01*
X-78326Y132148D01*
X-78297Y132167D01*
X-78254Y132183D01*
X-75605Y133716D01*
X-75580Y133739D01*
X-75539Y133762D01*
X-73172Y135700D01*
X-73150Y135726D01*
X-73114Y135756D01*
X-71087Y138048D01*
X-71070Y138078D01*
X-71039Y138113D01*
X-69407Y140701D01*
X-69395Y140732D01*
X-69370Y140772D01*
X-68174Y143588D01*
X-68167Y143622D01*
X-68148Y143665D01*
X-67420Y146636D01*
X-67418Y146670D01*
X-67407Y146716D01*
X-67164Y149766D01*
X-67168Y149794D01*
X-67163Y149822D01*
X-67180Y149892D01*
X-67188Y149963D01*
X-67202Y149988D01*
X-67209Y150015D01*
X-67252Y150073D01*
X-67287Y150136D01*
X-67310Y150153D01*
X-67327Y150176D01*
X-67389Y150212D01*
X-67446Y150256D01*
X-67474Y150263D01*
X-67498Y150277D01*
X-67598Y150294D01*
X-67639Y150304D01*
X-67649Y150303D01*
X-67662Y150305D01*
X-86662Y150305D01*
X-86738Y150289D01*
X-86815Y150281D01*
X-86835Y150270D01*
X-86857Y150265D01*
X-86921Y150221D01*
X-86989Y150183D01*
X-87005Y150164D01*
X-87021Y150153D01*
X-87045Y150115D01*
X-87095Y150055D01*
X-96595Y133555D01*
X-96604Y133527D01*
X-96620Y133504D01*
X-96635Y133434D01*
X-96657Y133366D01*
X-96655Y133337D01*
X-96661Y133309D01*
X-96647Y133239D01*
X-96642Y133168D01*
X-96629Y133142D01*
X-96623Y133114D01*
X-96583Y133055D01*
X-96550Y132991D01*
X-96528Y132973D01*
X-96512Y132949D01*
X-96429Y132892D01*
X-96397Y132865D01*
X-96386Y132862D01*
X-96375Y132854D01*
X-93609Y131546D01*
X-93576Y131538D01*
X-93534Y131517D01*
X-90594Y130670D01*
X-90560Y130667D01*
X-90515Y130654D01*
X-87477Y130288D01*
X-87444Y130291D01*
X-87397Y130285D01*
X-84340Y130412D01*
G37*
D10*
X-78008Y-32032D03*
X-63008Y-32032D03*
D11*
X-78002Y-48721D03*
X-61002Y-48721D03*
D12*
X-81597Y54722D02*
X-92555Y54722D01*
X-92555Y59680D01*
X-81597Y59680D01*
X-81597Y54722D01*
X-81597Y34280D02*
X-92555Y34280D01*
X-81597Y34280D02*
X-81597Y29322D01*
X-92555Y29322D01*
X-92555Y34280D01*
X76543Y-4529D02*
X87501Y-4529D01*
X76543Y-4529D02*
X76543Y429D01*
X87501Y429D01*
X87501Y-4529D01*
X99128Y-4491D02*
X110086Y-4491D01*
X99128Y-4491D02*
X99128Y467D01*
X110086Y467D01*
X110086Y-4491D01*
D13*
X82538Y142905D03*
X165138Y-195D03*
X82538Y-143295D03*
X-82662Y-143295D03*
X-165262Y-195D03*
X-82662Y142905D03*
X123838Y71305D03*
X123838Y-71695D03*
X-62Y-143295D03*
X-123962Y-71695D03*
X-123962Y71305D03*
D14*
X-58144Y76467D03*
X-58144Y68467D03*
X-58144Y60467D03*
X-58144Y52467D03*
X-58144Y44467D03*
X-58144Y36467D03*
X-58144Y28467D03*
X-58144Y20467D03*
X-58144Y12467D03*
X-58144Y4467D03*
X-58144Y-3533D03*
D15*
X-47144Y-12533D03*
X-39144Y-12533D03*
X-31144Y-12533D03*
X-23144Y-12533D03*
X-15144Y-12533D03*
X-7144Y-12533D03*
X856Y-12533D03*
X8856Y-12533D03*
X16856Y-12533D03*
X24856Y-12533D03*
X32856Y-12533D03*
X40856Y-12533D03*
X48856Y-12533D03*
D14*
X59856Y-3533D03*
X59856Y4467D03*
X59856Y12467D03*
X59856Y20467D03*
X59856Y28467D03*
X59856Y36467D03*
X59856Y44467D03*
X59856Y52467D03*
X59856Y60467D03*
X59856Y68467D03*
X59856Y76467D03*
D15*
X48856Y85467D03*
X40856Y85467D03*
X32856Y85467D03*
X24856Y85467D03*
X16856Y85467D03*
X8856Y85467D03*
X856Y85467D03*
X-7144Y85467D03*
X-15144Y85467D03*
X-23144Y85467D03*
X-31144Y85467D03*
X-39144Y85467D03*
X-47144Y85467D03*
D16*
X856Y36467D03*
X20606Y56217D03*
X856Y56217D03*
X-18894Y56217D03*
X-18894Y36467D03*
X-18894Y16717D03*
X856Y16717D03*
X20606Y16717D03*
X20606Y36467D03*
D17*
X-58644Y85967D03*
X-58644Y-13033D03*
X60356Y-13033D03*
X60356Y85967D03*
D18*
X-20411Y-97626D03*
X-20411Y-106026D03*
D12*
X76944Y48070D02*
X87902Y48070D01*
X76944Y48070D02*
X76944Y53028D01*
X87902Y53028D01*
X87902Y48070D01*
X87889Y31087D02*
X76931Y31087D01*
X76931Y36045D01*
X87889Y36045D01*
X87889Y31087D01*
D19*
X-72423Y20498D03*
X-72423Y7498D03*
X-84082Y12944D03*
X-84082Y-56D03*
D20*
X-36601Y-91203D03*
X-36601Y-110203D03*
D19*
X-52360Y-92850D03*
X-52360Y-105850D03*
D21*
X-35288Y-27777D03*
X-22288Y-27777D03*
D12*
X-63101Y-88707D02*
X-74059Y-88707D01*
X-63101Y-88707D02*
X-63101Y-93665D01*
X-74059Y-93665D01*
X-74059Y-88707D01*
X-74059Y-104201D02*
X-63101Y-104201D01*
X-63101Y-109159D01*
X-74059Y-109159D01*
X-74059Y-104201D01*
X-27747Y-65296D02*
X-27747Y-54338D01*
X-27747Y-65296D02*
X-32705Y-65296D01*
X-32705Y-54338D01*
X-27747Y-54338D01*
X-27747Y-59540D02*
X-32705Y-59540D01*
X-9967Y-54338D02*
X-9967Y-65296D01*
X-14925Y-65296D01*
X-14925Y-54338D01*
X-9967Y-54338D01*
X-9967Y-59540D02*
X-14925Y-59540D01*
X7813Y-54338D02*
X7813Y-65296D01*
X2855Y-65296D01*
X2855Y-54338D01*
X7813Y-54338D01*
X7813Y-59540D02*
X2855Y-59540D01*
X25593Y-54338D02*
X25593Y-65296D01*
X20635Y-65296D01*
X20635Y-54338D01*
X25593Y-54338D01*
X25593Y-59540D02*
X20635Y-59540D01*
D22*
X-9903Y-27305D03*
X-6353Y-27305D03*
X1273Y-26924D03*
X4823Y-26924D03*
X11814Y-26924D03*
X15364Y-26924D03*
X22990Y-26924D03*
X26540Y-26924D03*
M02*
