G04 EAGLE Gerber RS-274X export*
G75*
%MOMM*%
%FSLAX34Y34*%
%LPD*%
%INSolderpaste Top*%
%IPPOS*%
%AMOC8*
5,1,8,0,0,1.08239X$1,22.5*%
G01*
%ADD10R,0.800000X0.800000*%
%ADD11R,1.000000X1.100000*%
%ADD12R,0.800000X0.400000*%
%ADD13R,0.400000X0.800000*%
%ADD14R,1.450000X1.450000*%
%ADD15R,0.700000X0.700000*%
%ADD16R,0.250000X0.360000*%
%ADD17R,0.900000X0.700000*%
%ADD18R,1.500000X1.300000*%
%ADD19R,0.700000X0.900000*%
%ADD20R,0.210000X0.270000*%


D10*
X-78008Y-32032D03*
X-63008Y-32032D03*
D11*
X-78002Y-48721D03*
X-61002Y-48721D03*
D12*
X-58144Y76467D03*
X-58144Y68467D03*
X-58144Y60467D03*
X-58144Y52467D03*
X-58144Y44467D03*
X-58144Y36467D03*
X-58144Y28467D03*
X-58144Y20467D03*
X-58144Y12467D03*
X-58144Y4467D03*
X-58144Y-3533D03*
D13*
X-47144Y-12533D03*
X-39144Y-12533D03*
X-31144Y-12533D03*
X-23144Y-12533D03*
X-15144Y-12533D03*
X-7144Y-12533D03*
X856Y-12533D03*
X8856Y-12533D03*
X16856Y-12533D03*
X24856Y-12533D03*
X32856Y-12533D03*
X40856Y-12533D03*
X48856Y-12533D03*
D12*
X59856Y-3533D03*
X59856Y4467D03*
X59856Y12467D03*
X59856Y20467D03*
X59856Y28467D03*
X59856Y36467D03*
X59856Y44467D03*
X59856Y52467D03*
X59856Y60467D03*
X59856Y68467D03*
X59856Y76467D03*
D13*
X48856Y85467D03*
X40856Y85467D03*
X32856Y85467D03*
X24856Y85467D03*
X16856Y85467D03*
X8856Y85467D03*
X856Y85467D03*
X-7144Y85467D03*
X-15144Y85467D03*
X-23144Y85467D03*
X-31144Y85467D03*
X-39144Y85467D03*
X-47144Y85467D03*
D14*
X856Y36467D03*
X20606Y56217D03*
X856Y56217D03*
X-18894Y56217D03*
X-18894Y36467D03*
X-18894Y16717D03*
X856Y16717D03*
X20606Y16717D03*
X20606Y36467D03*
D15*
X-58644Y85967D03*
X-58644Y-13033D03*
X60356Y-13033D03*
X60356Y85967D03*
D16*
X-20411Y-97626D03*
X-20411Y-106026D03*
D17*
X-72423Y20498D03*
X-72423Y7498D03*
X-84082Y12944D03*
X-84082Y-56D03*
D18*
X-36601Y-91203D03*
X-36601Y-110203D03*
D17*
X-52360Y-92850D03*
X-52360Y-105850D03*
D19*
X-35288Y-27777D03*
X-22288Y-27777D03*
D20*
X-9903Y-27305D03*
X-6353Y-27305D03*
X1273Y-26924D03*
X4823Y-26924D03*
X11814Y-26924D03*
X15364Y-26924D03*
X22990Y-26924D03*
X26540Y-26924D03*
M02*
