G04 EAGLE Gerber RS-274X export*
G75*
%MOMM*%
%FSLAX34Y34*%
%LPD*%
%INSoldermask Bottom*%
%IPPOS*%
%AMOC8*
5,1,8,0,0,1.08239X$1,22.5*%
G01*
%ADD10R,1.201600X1.101600*%
%ADD11R,1.401600X1.601600*%
%ADD12R,1.101600X1.201600*%
%ADD13R,1.501597X0.501600*%
%ADD14R,1.601600X1.401600*%
%ADD15C,1.101600*%
%ADD16R,0.914400X0.355600*%
%ADD17R,0.355600X0.914400*%
%ADD18R,5.486400X5.486400*%
%ADD19P,1.759533X8X202.500000*%
%ADD20C,1.625600*%
%ADD21R,0.901600X0.601600*%
%ADD22R,2.801600X1.701600*%

G36*
X16929Y94D02*
X16929Y94D01*
X16958Y92D01*
X17025Y114D01*
X17095Y128D01*
X17119Y144D01*
X17147Y153D01*
X17200Y200D01*
X17259Y240D01*
X17275Y265D01*
X17297Y284D01*
X17328Y348D01*
X17366Y408D01*
X17371Y437D01*
X17383Y463D01*
X17392Y562D01*
X17399Y604D01*
X17396Y615D01*
X17398Y629D01*
X17166Y3427D01*
X17156Y3460D01*
X17152Y3508D01*
X16463Y6230D01*
X16448Y6261D01*
X16436Y6308D01*
X15308Y8879D01*
X15288Y8907D01*
X15269Y8952D01*
X13733Y11302D01*
X13709Y11327D01*
X13683Y11367D01*
X11781Y13433D01*
X11753Y13453D01*
X11720Y13489D01*
X9505Y15213D01*
X9474Y15229D01*
X9436Y15258D01*
X6966Y16595D01*
X6933Y16605D01*
X6891Y16628D01*
X5705Y17035D01*
X4251Y17534D01*
X4235Y17540D01*
X4201Y17544D01*
X4155Y17560D01*
X1386Y18022D01*
X1351Y18021D01*
X1304Y18029D01*
X-1504Y18029D01*
X-1538Y18022D01*
X-1586Y18022D01*
X-4355Y17560D01*
X-4388Y17547D01*
X-4435Y17540D01*
X-7091Y16628D01*
X-7121Y16610D01*
X-7166Y16595D01*
X-9636Y15258D01*
X-9662Y15236D01*
X-9705Y15213D01*
X-11920Y13489D01*
X-11943Y13462D01*
X-11981Y13433D01*
X-13883Y11367D01*
X-13901Y11338D01*
X-13933Y11302D01*
X-15469Y8952D01*
X-15482Y8919D01*
X-15508Y8879D01*
X-16636Y6308D01*
X-16643Y6274D01*
X-16646Y6268D01*
X-16652Y6259D01*
X-16653Y6253D01*
X-16663Y6230D01*
X-17352Y3508D01*
X-17354Y3473D01*
X-17366Y3427D01*
X-17598Y629D01*
X-17594Y600D01*
X-17599Y571D01*
X-17583Y502D01*
X-17574Y431D01*
X-17560Y406D01*
X-17553Y378D01*
X-17511Y320D01*
X-17476Y259D01*
X-17452Y241D01*
X-17435Y217D01*
X-17374Y181D01*
X-17317Y138D01*
X-17289Y131D01*
X-17264Y116D01*
X-17166Y99D01*
X-17125Y89D01*
X-17114Y91D01*
X-17100Y88D01*
X16900Y88D01*
X16929Y94D01*
G37*
G36*
X-121493Y60397D02*
X-121493Y60397D01*
X-121422Y60394D01*
X-121395Y60405D01*
X-121366Y60407D01*
X-121276Y60449D01*
X-121236Y60464D01*
X-121228Y60472D01*
X-121215Y60477D01*
X-118912Y62077D01*
X-118888Y62102D01*
X-118848Y62129D01*
X-116839Y64086D01*
X-116820Y64115D01*
X-116785Y64149D01*
X-115126Y66409D01*
X-115111Y66441D01*
X-115082Y66480D01*
X-113818Y68983D01*
X-113809Y69016D01*
X-113787Y69059D01*
X-112951Y71736D01*
X-112948Y71771D01*
X-112933Y71817D01*
X-112550Y74595D01*
X-112552Y74630D01*
X-112546Y74677D01*
X-112625Y77481D01*
X-112633Y77515D01*
X-112634Y77563D01*
X-113173Y80315D01*
X-113187Y80347D01*
X-113196Y80394D01*
X-114181Y83020D01*
X-114196Y83045D01*
X-114201Y83064D01*
X-114209Y83075D01*
X-114216Y83094D01*
X-115620Y85522D01*
X-115643Y85548D01*
X-115667Y85590D01*
X-117451Y87754D01*
X-117478Y87775D01*
X-117509Y87813D01*
X-119625Y89653D01*
X-119655Y89670D01*
X-119691Y89702D01*
X-122082Y91169D01*
X-122114Y91181D01*
X-122155Y91206D01*
X-124754Y92260D01*
X-124788Y92266D01*
X-124833Y92284D01*
X-127570Y92896D01*
X-127605Y92897D01*
X-127652Y92907D01*
X-130452Y93060D01*
X-130486Y93055D01*
X-130534Y93058D01*
X-133322Y92747D01*
X-133355Y92737D01*
X-133403Y92731D01*
X-136101Y91966D01*
X-136131Y91951D01*
X-136178Y91937D01*
X-138713Y90739D01*
X-138737Y90721D01*
X-138764Y90711D01*
X-138816Y90662D01*
X-138873Y90620D01*
X-138887Y90595D01*
X-138909Y90575D01*
X-138937Y90509D01*
X-138973Y90448D01*
X-138976Y90419D01*
X-138988Y90392D01*
X-138989Y90321D01*
X-138998Y90251D01*
X-138990Y90223D01*
X-138990Y90193D01*
X-138956Y90101D01*
X-138944Y90059D01*
X-138937Y90051D01*
X-138932Y90038D01*
X-121932Y60638D01*
X-121913Y60616D01*
X-121900Y60589D01*
X-121847Y60542D01*
X-121800Y60489D01*
X-121774Y60476D01*
X-121752Y60457D01*
X-121685Y60434D01*
X-121621Y60403D01*
X-121592Y60402D01*
X-121564Y60392D01*
X-121493Y60397D01*
G37*
G36*
X130286Y208120D02*
X130286Y208120D01*
X130334Y208118D01*
X133122Y208428D01*
X133155Y208438D01*
X133203Y208444D01*
X135901Y209209D01*
X135931Y209225D01*
X135978Y209238D01*
X138513Y210436D01*
X138537Y210454D01*
X138564Y210464D01*
X138616Y210513D01*
X138673Y210555D01*
X138687Y210580D01*
X138709Y210600D01*
X138737Y210666D01*
X138773Y210727D01*
X138776Y210756D01*
X138788Y210783D01*
X138789Y210854D01*
X138798Y210924D01*
X138790Y210952D01*
X138790Y210982D01*
X138756Y211074D01*
X138744Y211116D01*
X138737Y211125D01*
X138732Y211137D01*
X121732Y240537D01*
X121713Y240559D01*
X121700Y240586D01*
X121647Y240633D01*
X121600Y240686D01*
X121574Y240699D01*
X121552Y240718D01*
X121485Y240741D01*
X121421Y240772D01*
X121392Y240773D01*
X121364Y240783D01*
X121293Y240778D01*
X121222Y240781D01*
X121195Y240770D01*
X121166Y240768D01*
X121076Y240726D01*
X121036Y240711D01*
X121028Y240704D01*
X121015Y240698D01*
X118712Y239098D01*
X118688Y239073D01*
X118648Y239046D01*
X116639Y237089D01*
X116620Y237060D01*
X116585Y237026D01*
X114926Y234766D01*
X114911Y234734D01*
X114882Y234695D01*
X113618Y232192D01*
X113609Y232159D01*
X113587Y232116D01*
X112751Y229439D01*
X112748Y229404D01*
X112733Y229358D01*
X112350Y226580D01*
X112352Y226545D01*
X112346Y226498D01*
X112425Y223694D01*
X112433Y223660D01*
X112434Y223612D01*
X112973Y220860D01*
X112987Y220828D01*
X112996Y220781D01*
X113981Y218155D01*
X113999Y218126D01*
X114016Y218081D01*
X115420Y215653D01*
X115443Y215627D01*
X115467Y215585D01*
X117251Y213421D01*
X117278Y213400D01*
X117309Y213362D01*
X119425Y211522D01*
X119455Y211505D01*
X119491Y211473D01*
X121882Y210006D01*
X121914Y209994D01*
X121955Y209969D01*
X124554Y208915D01*
X124588Y208909D01*
X124633Y208891D01*
X127370Y208279D01*
X127405Y208278D01*
X127452Y208268D01*
X130252Y208115D01*
X130286Y208120D01*
G37*
G36*
X121326Y60398D02*
X121326Y60398D01*
X121397Y60398D01*
X121424Y60409D01*
X121453Y60412D01*
X121515Y60447D01*
X121580Y60474D01*
X121601Y60495D01*
X121626Y60509D01*
X121689Y60586D01*
X121719Y60616D01*
X121723Y60627D01*
X121732Y60638D01*
X138732Y90038D01*
X138741Y90065D01*
X138758Y90089D01*
X138773Y90159D01*
X138795Y90226D01*
X138793Y90255D01*
X138799Y90284D01*
X138786Y90354D01*
X138780Y90424D01*
X138767Y90450D01*
X138761Y90479D01*
X138721Y90538D01*
X138689Y90601D01*
X138666Y90620D01*
X138650Y90644D01*
X138568Y90701D01*
X138535Y90728D01*
X138525Y90731D01*
X138513Y90739D01*
X135978Y91937D01*
X135944Y91946D01*
X135901Y91966D01*
X133203Y92731D01*
X133168Y92734D01*
X133122Y92747D01*
X130334Y93058D01*
X130300Y93054D01*
X130252Y93060D01*
X127452Y92907D01*
X127418Y92898D01*
X127370Y92896D01*
X124633Y92284D01*
X124601Y92270D01*
X124554Y92260D01*
X121955Y91206D01*
X121926Y91187D01*
X121882Y91169D01*
X119491Y89702D01*
X119466Y89678D01*
X119425Y89653D01*
X117309Y87813D01*
X117288Y87785D01*
X117251Y87754D01*
X115467Y85590D01*
X115451Y85559D01*
X115420Y85522D01*
X114016Y83094D01*
X114005Y83062D01*
X113998Y83049D01*
X113988Y83034D01*
X113988Y83032D01*
X113981Y83020D01*
X112996Y80394D01*
X112990Y80360D01*
X112973Y80315D01*
X112434Y77563D01*
X112434Y77528D01*
X112425Y77481D01*
X112346Y74677D01*
X112352Y74643D01*
X112350Y74595D01*
X112733Y71817D01*
X112745Y71784D01*
X112751Y71736D01*
X113587Y69059D01*
X113604Y69029D01*
X113618Y68983D01*
X114882Y66480D01*
X114904Y66452D01*
X114926Y66409D01*
X116585Y64149D01*
X116611Y64125D01*
X116639Y64086D01*
X118648Y62129D01*
X118677Y62111D01*
X118712Y62077D01*
X121015Y60477D01*
X121042Y60466D01*
X121065Y60447D01*
X121133Y60427D01*
X121198Y60399D01*
X121227Y60399D01*
X121255Y60390D01*
X121326Y60398D01*
G37*
G36*
X-127652Y208268D02*
X-127652Y208268D01*
X-127618Y208277D01*
X-127570Y208279D01*
X-124833Y208891D01*
X-124801Y208905D01*
X-124754Y208915D01*
X-122155Y209969D01*
X-122126Y209988D01*
X-122082Y210006D01*
X-119691Y211473D01*
X-119666Y211497D01*
X-119625Y211522D01*
X-117509Y213362D01*
X-117488Y213390D01*
X-117451Y213421D01*
X-115667Y215585D01*
X-115651Y215616D01*
X-115620Y215653D01*
X-114216Y218081D01*
X-114205Y218113D01*
X-114181Y218155D01*
X-113196Y220781D01*
X-113190Y220815D01*
X-113173Y220860D01*
X-112634Y223612D01*
X-112634Y223647D01*
X-112625Y223694D01*
X-112546Y226498D01*
X-112552Y226532D01*
X-112550Y226580D01*
X-112933Y229358D01*
X-112945Y229391D01*
X-112951Y229439D01*
X-113787Y232116D01*
X-113804Y232146D01*
X-113818Y232192D01*
X-115082Y234695D01*
X-115104Y234723D01*
X-115126Y234766D01*
X-116785Y237026D01*
X-116811Y237050D01*
X-116839Y237089D01*
X-118848Y239046D01*
X-118877Y239064D01*
X-118912Y239098D01*
X-121215Y240698D01*
X-121242Y240709D01*
X-121265Y240728D01*
X-121333Y240748D01*
X-121398Y240776D01*
X-121427Y240776D01*
X-121455Y240785D01*
X-121526Y240777D01*
X-121597Y240777D01*
X-121624Y240766D01*
X-121653Y240763D01*
X-121715Y240728D01*
X-121780Y240701D01*
X-121801Y240680D01*
X-121826Y240666D01*
X-121889Y240589D01*
X-121919Y240559D01*
X-121923Y240548D01*
X-121932Y240537D01*
X-138932Y211137D01*
X-138941Y211110D01*
X-138958Y211086D01*
X-138973Y211016D01*
X-138995Y210949D01*
X-138993Y210920D01*
X-138999Y210891D01*
X-138986Y210821D01*
X-138980Y210751D01*
X-138967Y210725D01*
X-138961Y210696D01*
X-138921Y210637D01*
X-138889Y210574D01*
X-138866Y210555D01*
X-138850Y210531D01*
X-138768Y210474D01*
X-138735Y210447D01*
X-138725Y210444D01*
X-138713Y210436D01*
X-136178Y209238D01*
X-136144Y209229D01*
X-136101Y209209D01*
X-133403Y208444D01*
X-133368Y208441D01*
X-133322Y208428D01*
X-130534Y208118D01*
X-130500Y208121D01*
X-130452Y208115D01*
X-127652Y208268D01*
G37*
G36*
X163627Y133598D02*
X163627Y133598D01*
X163698Y133598D01*
X163725Y133609D01*
X163754Y133612D01*
X163816Y133648D01*
X163881Y133675D01*
X163902Y133696D01*
X163927Y133710D01*
X163990Y133787D01*
X164020Y133818D01*
X164024Y133828D01*
X164033Y133838D01*
X173533Y150338D01*
X173543Y150370D01*
X173552Y150383D01*
X173556Y150408D01*
X173557Y150411D01*
X173588Y150482D01*
X173588Y150505D01*
X173596Y150527D01*
X173590Y150604D01*
X173591Y150681D01*
X173581Y150705D01*
X173580Y150725D01*
X173559Y150765D01*
X173533Y150837D01*
X164033Y167337D01*
X164014Y167358D01*
X164001Y167385D01*
X163948Y167432D01*
X163901Y167486D01*
X163875Y167498D01*
X163854Y167518D01*
X163786Y167541D01*
X163722Y167572D01*
X163693Y167573D01*
X163666Y167582D01*
X163594Y167578D01*
X163523Y167581D01*
X163496Y167571D01*
X163467Y167569D01*
X163377Y167526D01*
X163337Y167512D01*
X163329Y167504D01*
X163316Y167498D01*
X160793Y165757D01*
X160769Y165732D01*
X160731Y165706D01*
X158519Y163582D01*
X158500Y163554D01*
X158466Y163522D01*
X156624Y161070D01*
X156610Y161040D01*
X156581Y161002D01*
X155156Y158287D01*
X155147Y158256D01*
X155131Y158231D01*
X155130Y158223D01*
X155125Y158214D01*
X154154Y155305D01*
X154150Y155271D01*
X154135Y155227D01*
X153643Y152201D01*
X153644Y152167D01*
X153636Y152121D01*
X153636Y149054D01*
X153637Y149051D01*
X153637Y149048D01*
X153643Y149022D01*
X153643Y149021D01*
X153643Y148974D01*
X154135Y145948D01*
X154147Y145916D01*
X154154Y145870D01*
X155125Y142961D01*
X155142Y142932D01*
X155156Y142888D01*
X156581Y140173D01*
X156603Y140146D01*
X156624Y140105D01*
X158466Y137653D01*
X158491Y137631D01*
X158519Y137593D01*
X160731Y135469D01*
X160759Y135451D01*
X160793Y135418D01*
X163316Y133677D01*
X163343Y133665D01*
X163365Y133647D01*
X163434Y133627D01*
X163499Y133599D01*
X163528Y133598D01*
X163556Y133590D01*
X163627Y133598D01*
G37*
G36*
X-163794Y133597D02*
X-163794Y133597D01*
X-163723Y133594D01*
X-163696Y133604D01*
X-163667Y133606D01*
X-163577Y133649D01*
X-163537Y133663D01*
X-163529Y133671D01*
X-163516Y133677D01*
X-160993Y135418D01*
X-160969Y135443D01*
X-160931Y135469D01*
X-158719Y137593D01*
X-158700Y137621D01*
X-158666Y137653D01*
X-156824Y140105D01*
X-156810Y140135D01*
X-156781Y140173D01*
X-155356Y142888D01*
X-155347Y142920D01*
X-155325Y142961D01*
X-154354Y145870D01*
X-154350Y145904D01*
X-154335Y145948D01*
X-153843Y148974D01*
X-153844Y149008D01*
X-153836Y149054D01*
X-153836Y152121D01*
X-153843Y152154D01*
X-153843Y152201D01*
X-154335Y155227D01*
X-154347Y155259D01*
X-154354Y155305D01*
X-155325Y158214D01*
X-155338Y158237D01*
X-155344Y158261D01*
X-155351Y158270D01*
X-155356Y158287D01*
X-156781Y161002D01*
X-156803Y161029D01*
X-156824Y161070D01*
X-158666Y163522D01*
X-158691Y163544D01*
X-158719Y163582D01*
X-160931Y165706D01*
X-160959Y165724D01*
X-160993Y165757D01*
X-163516Y167498D01*
X-163543Y167510D01*
X-163565Y167528D01*
X-163634Y167549D01*
X-163699Y167576D01*
X-163728Y167577D01*
X-163756Y167585D01*
X-163827Y167577D01*
X-163898Y167577D01*
X-163925Y167566D01*
X-163954Y167563D01*
X-164016Y167528D01*
X-164081Y167500D01*
X-164102Y167479D01*
X-164127Y167465D01*
X-164190Y167388D01*
X-164220Y167357D01*
X-164224Y167347D01*
X-164233Y167337D01*
X-173733Y150837D01*
X-173757Y150764D01*
X-173788Y150693D01*
X-173788Y150670D01*
X-173796Y150648D01*
X-173790Y150571D01*
X-173791Y150494D01*
X-173781Y150470D01*
X-173780Y150450D01*
X-173759Y150410D01*
X-173740Y150358D01*
X-173739Y150353D01*
X-173737Y150351D01*
X-173733Y150338D01*
X-164233Y133838D01*
X-164214Y133817D01*
X-164201Y133790D01*
X-164148Y133743D01*
X-164101Y133689D01*
X-164075Y133677D01*
X-164054Y133657D01*
X-163986Y133634D01*
X-163922Y133603D01*
X-163893Y133602D01*
X-163866Y133593D01*
X-163794Y133597D01*
G37*
G36*
X86576Y104D02*
X86576Y104D01*
X86654Y112D01*
X86673Y123D01*
X86695Y128D01*
X86759Y172D01*
X86827Y210D01*
X86843Y229D01*
X86859Y240D01*
X86883Y278D01*
X86933Y338D01*
X96433Y16838D01*
X96442Y16866D01*
X96458Y16889D01*
X96473Y16959D01*
X96496Y17027D01*
X96493Y17056D01*
X96499Y17084D01*
X96486Y17154D01*
X96480Y17225D01*
X96467Y17251D01*
X96461Y17279D01*
X96421Y17338D01*
X96388Y17402D01*
X96366Y17420D01*
X96350Y17444D01*
X96267Y17501D01*
X96235Y17528D01*
X96224Y17531D01*
X96214Y17539D01*
X93448Y18847D01*
X93415Y18855D01*
X93372Y18876D01*
X90432Y19723D01*
X90398Y19726D01*
X90354Y19739D01*
X87316Y20105D01*
X87282Y20102D01*
X87235Y20108D01*
X84178Y19981D01*
X84145Y19973D01*
X84098Y19971D01*
X81101Y19355D01*
X81070Y19342D01*
X81024Y19333D01*
X78164Y18245D01*
X78136Y18226D01*
X78092Y18210D01*
X75444Y16677D01*
X75418Y16654D01*
X75378Y16631D01*
X73010Y14693D01*
X72988Y14667D01*
X72952Y14637D01*
X70925Y12345D01*
X70909Y12315D01*
X70877Y12280D01*
X69245Y9692D01*
X69233Y9661D01*
X69208Y9621D01*
X68012Y6805D01*
X68005Y6771D01*
X68002Y6765D01*
X67998Y6758D01*
X67997Y6753D01*
X67986Y6728D01*
X67258Y3757D01*
X67256Y3723D01*
X67245Y3677D01*
X67002Y627D01*
X67006Y599D01*
X67001Y571D01*
X67018Y501D01*
X67026Y430D01*
X67041Y405D01*
X67047Y378D01*
X67090Y320D01*
X67126Y257D01*
X67148Y240D01*
X67165Y217D01*
X67227Y181D01*
X67284Y137D01*
X67312Y130D01*
X67336Y116D01*
X67436Y99D01*
X67477Y89D01*
X67487Y90D01*
X67500Y88D01*
X86500Y88D01*
X86576Y104D01*
G37*
G36*
X-67672Y94D02*
X-67672Y94D01*
X-67644Y91D01*
X-67576Y114D01*
X-67505Y128D01*
X-67482Y144D01*
X-67455Y153D01*
X-67400Y200D01*
X-67341Y240D01*
X-67326Y264D01*
X-67305Y283D01*
X-67273Y347D01*
X-67234Y408D01*
X-67229Y436D01*
X-67217Y461D01*
X-67208Y563D01*
X-67201Y604D01*
X-67203Y614D01*
X-67202Y627D01*
X-67445Y3677D01*
X-67454Y3710D01*
X-67458Y3757D01*
X-68186Y6728D01*
X-68201Y6759D01*
X-68212Y6805D01*
X-69408Y9621D01*
X-69427Y9649D01*
X-69445Y9692D01*
X-71077Y12280D01*
X-71101Y12305D01*
X-71125Y12345D01*
X-73152Y14637D01*
X-73179Y14658D01*
X-73210Y14693D01*
X-75578Y16631D01*
X-75608Y16647D01*
X-75644Y16677D01*
X-78292Y18210D01*
X-78324Y18221D01*
X-78364Y18245D01*
X-81224Y19333D01*
X-81257Y19339D01*
X-81301Y19355D01*
X-84298Y19971D01*
X-84332Y19971D01*
X-84378Y19981D01*
X-87435Y20108D01*
X-87469Y20102D01*
X-87516Y20105D01*
X-90554Y19739D01*
X-90586Y19729D01*
X-90632Y19723D01*
X-93572Y18876D01*
X-93602Y18860D01*
X-93648Y18847D01*
X-96414Y17539D01*
X-96436Y17522D01*
X-96463Y17512D01*
X-96515Y17463D01*
X-96573Y17420D01*
X-96587Y17395D01*
X-96608Y17375D01*
X-96637Y17310D01*
X-96673Y17248D01*
X-96676Y17220D01*
X-96688Y17193D01*
X-96689Y17121D01*
X-96698Y17051D01*
X-96690Y17023D01*
X-96691Y16994D01*
X-96655Y16900D01*
X-96644Y16859D01*
X-96637Y16851D01*
X-96633Y16838D01*
X-87133Y338D01*
X-87081Y280D01*
X-87035Y217D01*
X-87016Y206D01*
X-87001Y189D01*
X-86931Y156D01*
X-86864Y116D01*
X-86840Y112D01*
X-86822Y103D01*
X-86777Y101D01*
X-86700Y88D01*
X-67700Y88D01*
X-67672Y94D01*
G37*
D10*
X78350Y109538D03*
X61350Y109538D03*
D11*
X61938Y134938D03*
X80938Y134938D03*
D12*
X-70413Y47625D03*
X-53413Y47625D03*
D13*
X60325Y86612D03*
X60325Y74613D03*
X60325Y62613D03*
D10*
X85163Y195263D03*
X102163Y195263D03*
X78350Y120650D03*
X61350Y120650D03*
D12*
X-57150Y69288D03*
X-57150Y86288D03*
D14*
X-71438Y88875D03*
X-71438Y69875D03*
D10*
X-101600Y168838D03*
X-101600Y151838D03*
D11*
X61938Y152400D03*
X80938Y152400D03*
D12*
X62938Y168275D03*
X79938Y168275D03*
D15*
X165100Y150588D03*
X82500Y7488D03*
X-82700Y7488D03*
X-165300Y150588D03*
X123800Y222088D03*
X123800Y79088D03*
X-100Y7488D03*
X-124000Y79088D03*
X-124000Y222088D03*
D16*
X32957Y110057D03*
X32957Y105056D03*
X32957Y100054D03*
X32957Y95053D03*
X32957Y90052D03*
X32957Y85051D03*
X32957Y80049D03*
X32957Y75048D03*
X32957Y70047D03*
X32957Y65046D03*
X32957Y60044D03*
X32957Y55043D03*
D17*
X25920Y48006D03*
X20919Y48006D03*
X15917Y48006D03*
X10916Y48006D03*
X5915Y48006D03*
X914Y48006D03*
X-4089Y48006D03*
X-9090Y48006D03*
X-14091Y48006D03*
X-19092Y48006D03*
X-24094Y48006D03*
X-29095Y48006D03*
D16*
X-36132Y55043D03*
X-36132Y60044D03*
X-36132Y65046D03*
X-36132Y70047D03*
X-36132Y75048D03*
X-36132Y80049D03*
X-36132Y85051D03*
X-36132Y90052D03*
X-36132Y95053D03*
X-36132Y100054D03*
X-36132Y105056D03*
X-36132Y110057D03*
D17*
X-29095Y117094D03*
X-24094Y117094D03*
X-19092Y117094D03*
X-14091Y117094D03*
X-9090Y117094D03*
X-4089Y117094D03*
X914Y117094D03*
X5915Y117094D03*
X10916Y117094D03*
X15917Y117094D03*
X20919Y117094D03*
X25920Y117094D03*
D18*
X-1588Y82550D03*
D19*
X103188Y177800D03*
D20*
X-127000Y177800D03*
X-127000Y152400D03*
X-127000Y127000D03*
D10*
X20638Y160900D03*
X20638Y143900D03*
X34925Y160900D03*
X34925Y143900D03*
X-30163Y168838D03*
X-30163Y151838D03*
X6350Y160900D03*
X6350Y143900D03*
X-14288Y168838D03*
X-14288Y151838D03*
X-77788Y229163D03*
X-77788Y212163D03*
D12*
X-55563Y272025D03*
X-55563Y255025D03*
D21*
X50913Y230188D03*
X72913Y230188D03*
X49325Y214313D03*
X71325Y214313D03*
D10*
X-68263Y170888D03*
X-68263Y187888D03*
D22*
X-76200Y249525D03*
X-76200Y277525D03*
D12*
X-60325Y229163D03*
X-60325Y212163D03*
M02*
