G04 EAGLE Gerber RS-274X export*
G75*
%MOMM*%
%FSLAX34Y34*%
%LPD*%
%INSolderpaste Top*%
%IPPOS*%
%AMOC8*
5,1,8,0,0,1.08239X$1,22.5*%
G01*
%ADD10R,0.800000X0.800000*%
%ADD11R,1.000000X1.100000*%
%ADD12R,0.800000X0.400000*%
%ADD13R,0.400000X0.800000*%
%ADD14R,1.450000X1.450000*%
%ADD15R,0.700000X0.700000*%
%ADD16R,1.100000X1.000000*%
%ADD17R,0.500000X0.800000*%


D10*
X295275Y215463D03*
X295275Y200463D03*
D11*
X374088Y273050D03*
X391088Y273050D03*
D12*
X288663Y421000D03*
X288663Y413000D03*
X288663Y405000D03*
X288663Y397000D03*
X288663Y389000D03*
X288663Y381000D03*
X288663Y373000D03*
X288663Y365000D03*
X288663Y357000D03*
X288663Y349000D03*
X288663Y341000D03*
D13*
X299663Y332000D03*
X307663Y332000D03*
X315663Y332000D03*
X323663Y332000D03*
X331663Y332000D03*
X339663Y332000D03*
X347663Y332000D03*
X355663Y332000D03*
X363663Y332000D03*
X371663Y332000D03*
X379663Y332000D03*
X387663Y332000D03*
X395663Y332000D03*
D12*
X406663Y341000D03*
X406663Y349000D03*
X406663Y357000D03*
X406663Y365000D03*
X406663Y373000D03*
X406663Y381000D03*
X406663Y389000D03*
X406663Y397000D03*
X406663Y405000D03*
X406663Y413000D03*
X406663Y421000D03*
D13*
X395663Y430000D03*
X387663Y430000D03*
X379663Y430000D03*
X371663Y430000D03*
X363663Y430000D03*
X355663Y430000D03*
X347663Y430000D03*
X339663Y430000D03*
X331663Y430000D03*
X323663Y430000D03*
X315663Y430000D03*
X307663Y430000D03*
X299663Y430000D03*
D14*
X347663Y381000D03*
X367413Y400750D03*
X347663Y400750D03*
X327913Y400750D03*
X327913Y381000D03*
X327913Y361250D03*
X347663Y361250D03*
X367413Y361250D03*
X367413Y381000D03*
D15*
X288163Y430500D03*
X288163Y331500D03*
X407163Y331500D03*
X407163Y430500D03*
D16*
X374650Y302188D03*
X374650Y285188D03*
X325438Y305363D03*
X325438Y288363D03*
X311150Y288363D03*
X311150Y305363D03*
D17*
X311150Y227125D03*
X311150Y249125D03*
X327025Y227125D03*
X327025Y249125D03*
X279400Y227125D03*
X279400Y249125D03*
X295275Y227125D03*
X295275Y249125D03*
D16*
X406400Y300600D03*
X406400Y283600D03*
X431800Y300600D03*
X431800Y283600D03*
X448238Y314325D03*
X431238Y314325D03*
X399488Y314325D03*
X416488Y314325D03*
D17*
X407988Y222363D03*
X407988Y244363D03*
X427038Y222363D03*
X427038Y244363D03*
D10*
X268288Y388500D03*
X268288Y373500D03*
M02*
