G04 EAGLE Gerber RS-274X export*
G75*
%MOMM*%
%FSLAX34Y34*%
%LPD*%
%INSolderpaste Top*%
%IPPOS*%
%AMOC8*
5,1,8,0,0,1.08239X$1,22.5*%
G01*
%ADD10R,0.800000X0.800000*%
%ADD11R,1.100000X1.000000*%
%ADD12R,0.800000X0.400000*%
%ADD13R,0.400000X0.800000*%
%ADD14R,1.450000X1.450000*%
%ADD15R,0.700000X0.700000*%
%ADD16R,0.500000X0.800000*%


D10*
X-55125Y14288D03*
X-40125Y14288D03*
D11*
X26988Y113275D03*
X26988Y96275D03*
D12*
X-59000Y282888D03*
X-59000Y274888D03*
X-59000Y266888D03*
X-59000Y258888D03*
X-59000Y250888D03*
X-59000Y242888D03*
X-59000Y234888D03*
X-59000Y226888D03*
X-59000Y218888D03*
X-59000Y210888D03*
X-59000Y202888D03*
D13*
X-48000Y193888D03*
X-40000Y193888D03*
X-32000Y193888D03*
X-24000Y193888D03*
X-16000Y193888D03*
X-8000Y193888D03*
X0Y193888D03*
X8000Y193888D03*
X16000Y193888D03*
X24000Y193888D03*
X32000Y193888D03*
X40000Y193888D03*
X48000Y193888D03*
D12*
X59000Y202888D03*
X59000Y210888D03*
X59000Y218888D03*
X59000Y226888D03*
X59000Y234888D03*
X59000Y242888D03*
X59000Y250888D03*
X59000Y258888D03*
X59000Y266888D03*
X59000Y274888D03*
X59000Y282888D03*
D13*
X48000Y291888D03*
X40000Y291888D03*
X32000Y291888D03*
X24000Y291888D03*
X16000Y291888D03*
X8000Y291888D03*
X0Y291888D03*
X-8000Y291888D03*
X-16000Y291888D03*
X-24000Y291888D03*
X-32000Y291888D03*
X-40000Y291888D03*
X-48000Y291888D03*
D14*
X0Y242888D03*
X19750Y262638D03*
X0Y262638D03*
X-19750Y262638D03*
X-19750Y242888D03*
X-19750Y223138D03*
X0Y223138D03*
X19750Y223138D03*
X19750Y242888D03*
D15*
X-59500Y292388D03*
X-59500Y193388D03*
X59500Y193388D03*
X59500Y292388D03*
D11*
X14288Y145025D03*
X14288Y128025D03*
X-30163Y164075D03*
X-30163Y147075D03*
D16*
X-38100Y36625D03*
X-38100Y58625D03*
X-53975Y36625D03*
X-53975Y58625D03*
X-69850Y36625D03*
X-69850Y58625D03*
X-22225Y36625D03*
X-22225Y58625D03*
D11*
X57150Y110100D03*
X57150Y93100D03*
X82550Y110100D03*
X82550Y93100D03*
X98988Y123825D03*
X81988Y123825D03*
X50238Y123825D03*
X67238Y123825D03*
D16*
X52388Y41388D03*
X52388Y63388D03*
X74613Y41388D03*
X74613Y63388D03*
D10*
X-85725Y199588D03*
X-85725Y184588D03*
D11*
X-85725Y247088D03*
X-85725Y264088D03*
M02*
