G04 EAGLE Gerber RS-274X export*
G75*
%MOMM*%
%FSLAX34Y34*%
%LPD*%
%INSoldermask Top*%
%IPPOS*%
%AMOC8*
5,1,8,0,0,1.08239X$1,22.5*%
G01*
%ADD10R,0.901600X0.901600*%
%ADD11R,1.101600X1.201600*%
%ADD12C,1.101600*%
%ADD13P,1.759533X8X202.500000*%
%ADD14C,1.625600*%
%ADD15R,0.901600X0.501600*%
%ADD16R,0.501600X0.901600*%
%ADD17R,1.551600X1.551600*%
%ADD18R,0.801600X0.801600*%
%ADD19C,0.605878*%
%ADD20R,1.201600X1.101600*%
%ADD21R,0.601600X0.901600*%

G36*
X366179Y190594D02*
X366179Y190594D01*
X366208Y190592D01*
X366275Y190614D01*
X366345Y190628D01*
X366369Y190644D01*
X366397Y190653D01*
X366450Y190700D01*
X366509Y190740D01*
X366525Y190765D01*
X366547Y190784D01*
X366578Y190848D01*
X366616Y190908D01*
X366621Y190937D01*
X366633Y190963D01*
X366642Y191062D01*
X366649Y191104D01*
X366646Y191115D01*
X366648Y191129D01*
X366416Y193927D01*
X366406Y193960D01*
X366402Y194008D01*
X365713Y196730D01*
X365698Y196761D01*
X365686Y196808D01*
X364558Y199379D01*
X364538Y199407D01*
X364519Y199452D01*
X362983Y201802D01*
X362959Y201827D01*
X362933Y201867D01*
X361031Y203933D01*
X361003Y203953D01*
X360970Y203989D01*
X358755Y205713D01*
X358724Y205729D01*
X358686Y205758D01*
X356216Y207095D01*
X356183Y207105D01*
X356141Y207128D01*
X354955Y207535D01*
X353501Y208034D01*
X353485Y208040D01*
X353451Y208044D01*
X353405Y208060D01*
X350636Y208522D01*
X350601Y208521D01*
X350554Y208529D01*
X347746Y208529D01*
X347712Y208522D01*
X347664Y208522D01*
X344895Y208060D01*
X344862Y208047D01*
X344815Y208040D01*
X342159Y207128D01*
X342129Y207110D01*
X342084Y207095D01*
X339614Y205758D01*
X339588Y205736D01*
X339545Y205713D01*
X337330Y203989D01*
X337307Y203962D01*
X337269Y203933D01*
X335367Y201867D01*
X335349Y201838D01*
X335317Y201802D01*
X333781Y199452D01*
X333768Y199419D01*
X333742Y199379D01*
X332614Y196808D01*
X332607Y196774D01*
X332604Y196768D01*
X332598Y196759D01*
X332597Y196753D01*
X332587Y196730D01*
X331898Y194008D01*
X331896Y193973D01*
X331884Y193927D01*
X331652Y191129D01*
X331656Y191100D01*
X331651Y191071D01*
X331668Y191002D01*
X331676Y190931D01*
X331690Y190906D01*
X331697Y190878D01*
X331739Y190820D01*
X331774Y190759D01*
X331798Y190741D01*
X331815Y190717D01*
X331876Y190681D01*
X331933Y190638D01*
X331961Y190631D01*
X331986Y190616D01*
X332084Y190599D01*
X332125Y190589D01*
X332136Y190591D01*
X332150Y190588D01*
X366150Y190588D01*
X366179Y190594D01*
G37*
G36*
X227757Y250897D02*
X227757Y250897D01*
X227828Y250894D01*
X227855Y250905D01*
X227884Y250907D01*
X227974Y250949D01*
X228014Y250964D01*
X228022Y250972D01*
X228035Y250977D01*
X230338Y252577D01*
X230362Y252602D01*
X230402Y252629D01*
X232411Y254586D01*
X232430Y254615D01*
X232465Y254649D01*
X234124Y256909D01*
X234139Y256941D01*
X234168Y256980D01*
X235432Y259483D01*
X235441Y259516D01*
X235463Y259559D01*
X236299Y262236D01*
X236302Y262271D01*
X236317Y262317D01*
X236700Y265095D01*
X236698Y265130D01*
X236704Y265177D01*
X236625Y267981D01*
X236617Y268015D01*
X236616Y268063D01*
X236077Y270815D01*
X236063Y270847D01*
X236054Y270894D01*
X235069Y273520D01*
X235054Y273545D01*
X235049Y273564D01*
X235041Y273575D01*
X235034Y273594D01*
X233630Y276022D01*
X233607Y276048D01*
X233583Y276090D01*
X231799Y278254D01*
X231772Y278275D01*
X231741Y278313D01*
X229625Y280153D01*
X229595Y280170D01*
X229559Y280202D01*
X227168Y281669D01*
X227136Y281681D01*
X227095Y281706D01*
X224496Y282760D01*
X224462Y282766D01*
X224417Y282784D01*
X221680Y283396D01*
X221645Y283397D01*
X221598Y283407D01*
X218798Y283560D01*
X218764Y283555D01*
X218716Y283558D01*
X215928Y283247D01*
X215895Y283237D01*
X215847Y283231D01*
X213149Y282466D01*
X213119Y282451D01*
X213072Y282437D01*
X210537Y281239D01*
X210513Y281221D01*
X210486Y281211D01*
X210434Y281162D01*
X210377Y281120D01*
X210363Y281095D01*
X210342Y281075D01*
X210313Y281009D01*
X210277Y280948D01*
X210274Y280919D01*
X210262Y280892D01*
X210261Y280821D01*
X210252Y280751D01*
X210260Y280723D01*
X210260Y280693D01*
X210294Y280601D01*
X210306Y280559D01*
X210313Y280551D01*
X210318Y280538D01*
X227318Y251138D01*
X227337Y251116D01*
X227350Y251089D01*
X227403Y251042D01*
X227450Y250989D01*
X227476Y250976D01*
X227498Y250957D01*
X227565Y250934D01*
X227629Y250903D01*
X227658Y250902D01*
X227686Y250892D01*
X227757Y250897D01*
G37*
G36*
X479536Y398620D02*
X479536Y398620D01*
X479584Y398618D01*
X482372Y398928D01*
X482405Y398938D01*
X482453Y398944D01*
X485151Y399709D01*
X485181Y399725D01*
X485228Y399738D01*
X487763Y400936D01*
X487787Y400954D01*
X487814Y400964D01*
X487866Y401013D01*
X487923Y401055D01*
X487937Y401080D01*
X487959Y401100D01*
X487987Y401166D01*
X488023Y401227D01*
X488026Y401256D01*
X488038Y401283D01*
X488039Y401354D01*
X488048Y401424D01*
X488040Y401452D01*
X488040Y401482D01*
X488006Y401574D01*
X487994Y401616D01*
X487987Y401625D01*
X487982Y401637D01*
X470982Y431037D01*
X470963Y431059D01*
X470950Y431086D01*
X470897Y431133D01*
X470850Y431186D01*
X470824Y431199D01*
X470802Y431218D01*
X470735Y431241D01*
X470671Y431272D01*
X470642Y431273D01*
X470614Y431283D01*
X470543Y431278D01*
X470472Y431281D01*
X470445Y431270D01*
X470416Y431268D01*
X470326Y431226D01*
X470286Y431211D01*
X470278Y431204D01*
X470265Y431198D01*
X467962Y429598D01*
X467938Y429573D01*
X467898Y429546D01*
X465889Y427589D01*
X465870Y427560D01*
X465835Y427526D01*
X464176Y425266D01*
X464161Y425234D01*
X464132Y425195D01*
X462868Y422692D01*
X462859Y422659D01*
X462837Y422616D01*
X462001Y419939D01*
X461998Y419904D01*
X461983Y419858D01*
X461600Y417080D01*
X461602Y417045D01*
X461596Y416998D01*
X461675Y414194D01*
X461683Y414160D01*
X461684Y414112D01*
X462223Y411360D01*
X462237Y411328D01*
X462246Y411281D01*
X463231Y408655D01*
X463249Y408626D01*
X463266Y408581D01*
X464670Y406153D01*
X464693Y406127D01*
X464717Y406085D01*
X466501Y403921D01*
X466528Y403900D01*
X466559Y403862D01*
X468675Y402022D01*
X468705Y402005D01*
X468741Y401973D01*
X471132Y400506D01*
X471164Y400494D01*
X471205Y400469D01*
X473804Y399415D01*
X473838Y399409D01*
X473883Y399391D01*
X476620Y398779D01*
X476655Y398778D01*
X476702Y398768D01*
X479502Y398615D01*
X479536Y398620D01*
G37*
G36*
X470576Y250898D02*
X470576Y250898D01*
X470647Y250898D01*
X470674Y250909D01*
X470703Y250912D01*
X470765Y250947D01*
X470830Y250974D01*
X470851Y250995D01*
X470876Y251009D01*
X470939Y251086D01*
X470969Y251116D01*
X470973Y251127D01*
X470982Y251138D01*
X487982Y280538D01*
X487991Y280565D01*
X488008Y280589D01*
X488023Y280659D01*
X488045Y280726D01*
X488043Y280755D01*
X488049Y280784D01*
X488036Y280854D01*
X488030Y280924D01*
X488017Y280950D01*
X488011Y280979D01*
X487971Y281038D01*
X487939Y281101D01*
X487916Y281120D01*
X487900Y281144D01*
X487818Y281201D01*
X487785Y281228D01*
X487775Y281231D01*
X487763Y281239D01*
X485228Y282437D01*
X485194Y282446D01*
X485151Y282466D01*
X482453Y283231D01*
X482418Y283234D01*
X482372Y283247D01*
X479584Y283558D01*
X479550Y283554D01*
X479502Y283560D01*
X476702Y283407D01*
X476668Y283398D01*
X476620Y283396D01*
X473883Y282784D01*
X473851Y282770D01*
X473804Y282760D01*
X471205Y281706D01*
X471176Y281687D01*
X471132Y281669D01*
X468741Y280202D01*
X468716Y280178D01*
X468675Y280153D01*
X466559Y278313D01*
X466538Y278285D01*
X466501Y278254D01*
X464717Y276090D01*
X464701Y276059D01*
X464670Y276022D01*
X463266Y273594D01*
X463255Y273562D01*
X463248Y273549D01*
X463238Y273534D01*
X463238Y273532D01*
X463231Y273520D01*
X462246Y270894D01*
X462240Y270860D01*
X462223Y270815D01*
X461684Y268063D01*
X461684Y268028D01*
X461675Y267981D01*
X461596Y265177D01*
X461602Y265143D01*
X461600Y265095D01*
X461983Y262317D01*
X461995Y262284D01*
X462001Y262236D01*
X462837Y259559D01*
X462854Y259529D01*
X462868Y259483D01*
X464132Y256980D01*
X464154Y256952D01*
X464176Y256909D01*
X465835Y254649D01*
X465861Y254625D01*
X465889Y254586D01*
X467898Y252629D01*
X467927Y252611D01*
X467962Y252577D01*
X470265Y250977D01*
X470292Y250966D01*
X470315Y250947D01*
X470383Y250927D01*
X470448Y250899D01*
X470477Y250899D01*
X470505Y250890D01*
X470576Y250898D01*
G37*
G36*
X221598Y398768D02*
X221598Y398768D01*
X221632Y398777D01*
X221680Y398779D01*
X224417Y399391D01*
X224449Y399405D01*
X224496Y399415D01*
X227095Y400469D01*
X227124Y400488D01*
X227168Y400506D01*
X229559Y401973D01*
X229584Y401997D01*
X229625Y402022D01*
X231741Y403862D01*
X231762Y403890D01*
X231799Y403921D01*
X233583Y406085D01*
X233599Y406116D01*
X233630Y406153D01*
X235034Y408581D01*
X235045Y408613D01*
X235069Y408655D01*
X236054Y411281D01*
X236060Y411315D01*
X236077Y411360D01*
X236616Y414112D01*
X236616Y414147D01*
X236625Y414194D01*
X236704Y416998D01*
X236699Y417032D01*
X236700Y417080D01*
X236317Y419858D01*
X236305Y419891D01*
X236299Y419939D01*
X235463Y422616D01*
X235446Y422646D01*
X235432Y422692D01*
X234168Y425195D01*
X234146Y425223D01*
X234124Y425266D01*
X232465Y427526D01*
X232439Y427550D01*
X232411Y427589D01*
X230402Y429546D01*
X230373Y429564D01*
X230338Y429598D01*
X228035Y431198D01*
X228008Y431209D01*
X227985Y431228D01*
X227917Y431248D01*
X227852Y431276D01*
X227823Y431276D01*
X227795Y431285D01*
X227724Y431277D01*
X227653Y431277D01*
X227626Y431266D01*
X227597Y431263D01*
X227535Y431228D01*
X227470Y431201D01*
X227449Y431180D01*
X227424Y431166D01*
X227361Y431089D01*
X227331Y431059D01*
X227327Y431048D01*
X227318Y431037D01*
X210318Y401637D01*
X210309Y401610D01*
X210292Y401586D01*
X210277Y401516D01*
X210255Y401449D01*
X210257Y401420D01*
X210251Y401391D01*
X210264Y401321D01*
X210270Y401251D01*
X210283Y401225D01*
X210289Y401196D01*
X210329Y401137D01*
X210361Y401074D01*
X210384Y401055D01*
X210400Y401031D01*
X210482Y400974D01*
X210515Y400947D01*
X210525Y400944D01*
X210537Y400936D01*
X213072Y399738D01*
X213106Y399729D01*
X213149Y399709D01*
X215847Y398944D01*
X215882Y398941D01*
X215928Y398928D01*
X218716Y398618D01*
X218750Y398621D01*
X218798Y398615D01*
X221598Y398768D01*
G37*
G36*
X512877Y324098D02*
X512877Y324098D01*
X512948Y324098D01*
X512975Y324109D01*
X513004Y324112D01*
X513066Y324148D01*
X513131Y324175D01*
X513152Y324196D01*
X513177Y324210D01*
X513240Y324287D01*
X513270Y324318D01*
X513274Y324328D01*
X513283Y324338D01*
X522783Y340838D01*
X522793Y340870D01*
X522802Y340883D01*
X522806Y340908D01*
X522807Y340911D01*
X522838Y340982D01*
X522838Y341005D01*
X522846Y341027D01*
X522840Y341104D01*
X522841Y341181D01*
X522831Y341205D01*
X522830Y341225D01*
X522809Y341265D01*
X522783Y341337D01*
X513283Y357837D01*
X513264Y357858D01*
X513251Y357885D01*
X513198Y357932D01*
X513151Y357986D01*
X513125Y357998D01*
X513104Y358018D01*
X513036Y358041D01*
X512972Y358072D01*
X512943Y358073D01*
X512916Y358082D01*
X512844Y358078D01*
X512773Y358081D01*
X512746Y358071D01*
X512717Y358069D01*
X512627Y358026D01*
X512587Y358012D01*
X512579Y358004D01*
X512566Y357998D01*
X510043Y356257D01*
X510019Y356232D01*
X509981Y356206D01*
X507769Y354082D01*
X507750Y354054D01*
X507716Y354022D01*
X505874Y351570D01*
X505860Y351540D01*
X505831Y351502D01*
X504406Y348787D01*
X504397Y348756D01*
X504381Y348731D01*
X504380Y348723D01*
X504375Y348714D01*
X503404Y345805D01*
X503400Y345771D01*
X503385Y345727D01*
X502893Y342701D01*
X502894Y342667D01*
X502886Y342621D01*
X502886Y339554D01*
X502887Y339551D01*
X502887Y339548D01*
X502893Y339522D01*
X502893Y339521D01*
X502893Y339474D01*
X503385Y336448D01*
X503397Y336416D01*
X503404Y336370D01*
X504375Y333461D01*
X504392Y333432D01*
X504406Y333388D01*
X505831Y330673D01*
X505853Y330646D01*
X505874Y330605D01*
X507716Y328153D01*
X507741Y328131D01*
X507769Y328093D01*
X509981Y325969D01*
X510009Y325951D01*
X510043Y325918D01*
X512566Y324177D01*
X512593Y324165D01*
X512615Y324147D01*
X512684Y324127D01*
X512749Y324099D01*
X512778Y324098D01*
X512806Y324090D01*
X512877Y324098D01*
G37*
G36*
X185456Y324097D02*
X185456Y324097D01*
X185527Y324094D01*
X185554Y324104D01*
X185583Y324106D01*
X185673Y324149D01*
X185713Y324163D01*
X185721Y324171D01*
X185734Y324177D01*
X188257Y325918D01*
X188281Y325943D01*
X188319Y325969D01*
X190531Y328093D01*
X190550Y328121D01*
X190584Y328153D01*
X192426Y330605D01*
X192440Y330635D01*
X192469Y330673D01*
X193894Y333388D01*
X193903Y333420D01*
X193925Y333461D01*
X194896Y336370D01*
X194900Y336404D01*
X194915Y336448D01*
X195407Y339474D01*
X195406Y339508D01*
X195414Y339554D01*
X195414Y342621D01*
X195407Y342654D01*
X195407Y342701D01*
X194915Y345727D01*
X194903Y345759D01*
X194896Y345805D01*
X193925Y348714D01*
X193912Y348737D01*
X193906Y348761D01*
X193899Y348770D01*
X193894Y348787D01*
X192469Y351502D01*
X192447Y351529D01*
X192426Y351570D01*
X190584Y354022D01*
X190559Y354044D01*
X190531Y354082D01*
X188319Y356206D01*
X188291Y356224D01*
X188257Y356257D01*
X185734Y357998D01*
X185707Y358010D01*
X185685Y358028D01*
X185616Y358049D01*
X185551Y358076D01*
X185522Y358077D01*
X185494Y358085D01*
X185423Y358077D01*
X185352Y358077D01*
X185325Y358066D01*
X185296Y358063D01*
X185234Y358028D01*
X185169Y358000D01*
X185148Y357979D01*
X185123Y357965D01*
X185060Y357888D01*
X185030Y357857D01*
X185026Y357847D01*
X185017Y357837D01*
X175517Y341337D01*
X175493Y341264D01*
X175462Y341193D01*
X175462Y341170D01*
X175454Y341148D01*
X175461Y341071D01*
X175460Y340994D01*
X175469Y340970D01*
X175470Y340950D01*
X175491Y340910D01*
X175510Y340858D01*
X175511Y340853D01*
X175513Y340851D01*
X175517Y340838D01*
X185017Y324338D01*
X185036Y324317D01*
X185049Y324290D01*
X185102Y324243D01*
X185149Y324189D01*
X185175Y324177D01*
X185197Y324157D01*
X185264Y324134D01*
X185328Y324103D01*
X185357Y324102D01*
X185384Y324093D01*
X185456Y324097D01*
G37*
G36*
X435826Y190604D02*
X435826Y190604D01*
X435904Y190612D01*
X435923Y190623D01*
X435945Y190628D01*
X436009Y190672D01*
X436077Y190710D01*
X436093Y190729D01*
X436109Y190740D01*
X436133Y190778D01*
X436183Y190838D01*
X445683Y207338D01*
X445692Y207366D01*
X445708Y207389D01*
X445723Y207459D01*
X445746Y207527D01*
X445743Y207556D01*
X445749Y207584D01*
X445736Y207654D01*
X445730Y207725D01*
X445717Y207751D01*
X445711Y207779D01*
X445671Y207838D01*
X445638Y207902D01*
X445616Y207920D01*
X445600Y207944D01*
X445517Y208001D01*
X445485Y208028D01*
X445474Y208031D01*
X445464Y208039D01*
X442698Y209347D01*
X442665Y209355D01*
X442622Y209376D01*
X439682Y210223D01*
X439648Y210226D01*
X439604Y210239D01*
X436566Y210605D01*
X436532Y210602D01*
X436485Y210608D01*
X433428Y210481D01*
X433395Y210473D01*
X433348Y210471D01*
X430351Y209855D01*
X430320Y209842D01*
X430274Y209833D01*
X427414Y208745D01*
X427386Y208726D01*
X427342Y208710D01*
X424694Y207177D01*
X424668Y207154D01*
X424628Y207131D01*
X422260Y205193D01*
X422238Y205167D01*
X422202Y205137D01*
X420175Y202845D01*
X420159Y202815D01*
X420127Y202780D01*
X418495Y200192D01*
X418483Y200161D01*
X418458Y200121D01*
X417262Y197305D01*
X417255Y197271D01*
X417252Y197265D01*
X417248Y197258D01*
X417247Y197253D01*
X417236Y197228D01*
X416508Y194257D01*
X416506Y194223D01*
X416495Y194177D01*
X416252Y191127D01*
X416256Y191099D01*
X416251Y191071D01*
X416268Y191001D01*
X416276Y190930D01*
X416291Y190905D01*
X416297Y190878D01*
X416340Y190820D01*
X416376Y190757D01*
X416398Y190740D01*
X416415Y190717D01*
X416477Y190681D01*
X416534Y190637D01*
X416562Y190630D01*
X416586Y190616D01*
X416686Y190599D01*
X416727Y190589D01*
X416737Y190590D01*
X416750Y190588D01*
X435750Y190588D01*
X435826Y190604D01*
G37*
G36*
X281578Y190594D02*
X281578Y190594D01*
X281606Y190591D01*
X281674Y190614D01*
X281745Y190628D01*
X281768Y190644D01*
X281795Y190653D01*
X281850Y190700D01*
X281909Y190740D01*
X281924Y190764D01*
X281946Y190783D01*
X281977Y190847D01*
X282016Y190908D01*
X282021Y190936D01*
X282033Y190961D01*
X282042Y191063D01*
X282049Y191104D01*
X282047Y191114D01*
X282048Y191127D01*
X281805Y194177D01*
X281796Y194210D01*
X281792Y194257D01*
X281064Y197228D01*
X281049Y197259D01*
X281038Y197305D01*
X279842Y200121D01*
X279823Y200149D01*
X279805Y200192D01*
X278173Y202780D01*
X278149Y202805D01*
X278125Y202845D01*
X276098Y205137D01*
X276071Y205158D01*
X276040Y205193D01*
X273673Y207131D01*
X273642Y207147D01*
X273606Y207177D01*
X270958Y208710D01*
X270926Y208721D01*
X270886Y208745D01*
X268026Y209833D01*
X267993Y209839D01*
X267949Y209855D01*
X264952Y210471D01*
X264918Y210471D01*
X264872Y210481D01*
X261815Y210608D01*
X261781Y210602D01*
X261734Y210605D01*
X258696Y210239D01*
X258664Y210229D01*
X258618Y210223D01*
X255678Y209376D01*
X255648Y209360D01*
X255603Y209347D01*
X252837Y208039D01*
X252814Y208022D01*
X252787Y208012D01*
X252735Y207963D01*
X252677Y207920D01*
X252663Y207895D01*
X252642Y207875D01*
X252613Y207810D01*
X252577Y207748D01*
X252574Y207720D01*
X252562Y207693D01*
X252561Y207621D01*
X252552Y207551D01*
X252560Y207523D01*
X252560Y207494D01*
X252595Y207400D01*
X252606Y207359D01*
X252613Y207351D01*
X252617Y207338D01*
X262117Y190838D01*
X262169Y190780D01*
X262215Y190717D01*
X262234Y190706D01*
X262249Y190689D01*
X262319Y190656D01*
X262386Y190616D01*
X262411Y190612D01*
X262428Y190603D01*
X262473Y190601D01*
X262550Y190588D01*
X281550Y190588D01*
X281578Y190594D01*
G37*
D10*
X295275Y215463D03*
X295275Y200463D03*
D11*
X374088Y273050D03*
X391088Y273050D03*
D12*
X514350Y341088D03*
X431750Y197988D03*
X266550Y197988D03*
X183950Y341088D03*
X473050Y412588D03*
X473050Y269588D03*
X349150Y197988D03*
X225250Y269588D03*
X225250Y412588D03*
D13*
X452438Y368300D03*
D14*
X222250Y368300D03*
X222250Y342900D03*
X222250Y317500D03*
D15*
X288663Y421000D03*
X288663Y413000D03*
X288663Y405000D03*
X288663Y397000D03*
X288663Y389000D03*
X288663Y381000D03*
X288663Y373000D03*
X288663Y365000D03*
X288663Y357000D03*
X288663Y349000D03*
X288663Y341000D03*
D16*
X299663Y332000D03*
X307663Y332000D03*
X315663Y332000D03*
X323663Y332000D03*
X331663Y332000D03*
X339663Y332000D03*
X347663Y332000D03*
X355663Y332000D03*
X363663Y332000D03*
X371663Y332000D03*
X379663Y332000D03*
X387663Y332000D03*
X395663Y332000D03*
D15*
X406663Y341000D03*
X406663Y349000D03*
X406663Y357000D03*
X406663Y365000D03*
X406663Y373000D03*
X406663Y381000D03*
X406663Y389000D03*
X406663Y397000D03*
X406663Y405000D03*
X406663Y413000D03*
X406663Y421000D03*
D16*
X395663Y430000D03*
X387663Y430000D03*
X379663Y430000D03*
X371663Y430000D03*
X363663Y430000D03*
X355663Y430000D03*
X347663Y430000D03*
X339663Y430000D03*
X331663Y430000D03*
X323663Y430000D03*
X315663Y430000D03*
X307663Y430000D03*
X299663Y430000D03*
D17*
X347663Y381000D03*
X367413Y400750D03*
X347663Y400750D03*
X327913Y400750D03*
X327913Y381000D03*
X327913Y361250D03*
X347663Y361250D03*
X367413Y361250D03*
X367413Y381000D03*
D18*
X288163Y430500D03*
X288163Y331500D03*
X407163Y331500D03*
X407163Y430500D03*
D19*
X283292Y259459D02*
X272334Y259459D01*
X272334Y264417D01*
X283292Y264417D01*
X283292Y259459D01*
X296146Y264417D02*
X307104Y264417D01*
X307104Y259459D01*
X296146Y259459D01*
X296146Y264417D01*
X321546Y259459D02*
X332504Y259459D01*
X321546Y259459D02*
X321546Y264417D01*
X332504Y264417D01*
X332504Y259459D01*
X346946Y257871D02*
X357904Y257871D01*
X346946Y257871D02*
X346946Y262829D01*
X357904Y262829D01*
X357904Y257871D01*
D20*
X374650Y302188D03*
X374650Y285188D03*
X325438Y305363D03*
X325438Y288363D03*
D19*
X429517Y369171D02*
X429517Y380129D01*
X429517Y369171D02*
X424559Y369171D01*
X424559Y380129D01*
X429517Y380129D01*
X429517Y374927D02*
X424559Y374927D01*
X429517Y388221D02*
X429517Y399179D01*
X429517Y388221D02*
X424559Y388221D01*
X424559Y399179D01*
X429517Y399179D01*
X429517Y393977D02*
X424559Y393977D01*
X413467Y254696D02*
X402509Y254696D01*
X402509Y259654D01*
X413467Y259654D01*
X413467Y254696D01*
X421559Y254696D02*
X432517Y254696D01*
X421559Y254696D02*
X421559Y259654D01*
X432517Y259654D01*
X432517Y254696D01*
D20*
X311150Y288363D03*
X311150Y305363D03*
D21*
X311150Y227125D03*
X311150Y249125D03*
X327025Y227125D03*
X327025Y249125D03*
X279400Y227125D03*
X279400Y249125D03*
X295275Y227125D03*
X295275Y249125D03*
D20*
X406400Y300600D03*
X406400Y283600D03*
X431800Y300600D03*
X431800Y283600D03*
X448238Y314325D03*
X431238Y314325D03*
X399488Y314325D03*
X416488Y314325D03*
D21*
X407988Y222363D03*
X407988Y244363D03*
X427038Y222363D03*
X427038Y244363D03*
D10*
X268288Y388500D03*
X268288Y373500D03*
M02*
