G04 EAGLE Gerber RS-274X export*
G75*
%MOMM*%
%FSLAX34Y34*%
%LPD*%
%INSolderpaste Top*%
%IPPOS*%
%AMOC8*
5,1,8,0,0,1.08239X$1,22.5*%
G01*
%ADD10R,0.800000X0.800000*%
%ADD11R,1.000000X1.100000*%
%ADD12R,0.800000X0.400000*%
%ADD13R,0.400000X0.800000*%
%ADD14R,1.450000X1.450000*%
%ADD15R,0.700000X0.700000*%
%ADD16R,1.100000X1.000000*%
%ADD17R,0.500000X0.800000*%
%ADD18R,0.800000X0.500000*%


D10*
X281425Y231775D03*
X296425Y231775D03*
D11*
X342338Y254000D03*
X359338Y254000D03*
D12*
X288663Y421000D03*
X288663Y413000D03*
X288663Y405000D03*
X288663Y397000D03*
X288663Y389000D03*
X288663Y381000D03*
X288663Y373000D03*
X288663Y365000D03*
X288663Y357000D03*
X288663Y349000D03*
X288663Y341000D03*
D13*
X299663Y332000D03*
X307663Y332000D03*
X315663Y332000D03*
X323663Y332000D03*
X331663Y332000D03*
X339663Y332000D03*
X347663Y332000D03*
X355663Y332000D03*
X363663Y332000D03*
X371663Y332000D03*
X379663Y332000D03*
X387663Y332000D03*
X395663Y332000D03*
D12*
X406663Y341000D03*
X406663Y349000D03*
X406663Y357000D03*
X406663Y365000D03*
X406663Y373000D03*
X406663Y381000D03*
X406663Y389000D03*
X406663Y397000D03*
X406663Y405000D03*
X406663Y413000D03*
X406663Y421000D03*
D13*
X395663Y430000D03*
X387663Y430000D03*
X379663Y430000D03*
X371663Y430000D03*
X363663Y430000D03*
X355663Y430000D03*
X347663Y430000D03*
X339663Y430000D03*
X331663Y430000D03*
X323663Y430000D03*
X315663Y430000D03*
X307663Y430000D03*
X299663Y430000D03*
D14*
X347663Y381000D03*
X367413Y400750D03*
X347663Y400750D03*
X327913Y400750D03*
X327913Y381000D03*
X327913Y361250D03*
X347663Y361250D03*
X367413Y361250D03*
X367413Y381000D03*
D15*
X288163Y430500D03*
X288163Y331500D03*
X407163Y331500D03*
X407163Y430500D03*
D16*
X379413Y287900D03*
X379413Y270900D03*
D17*
X346075Y266813D03*
X346075Y288813D03*
X361950Y266813D03*
X361950Y288813D03*
X315913Y266813D03*
X315913Y288813D03*
X330200Y266813D03*
X330200Y288813D03*
D16*
X423863Y348225D03*
X423863Y331225D03*
X449263Y349813D03*
X449263Y332813D03*
D18*
X401750Y296863D03*
X423750Y296863D03*
X401750Y280988D03*
X423750Y280988D03*
D10*
X268288Y388500D03*
X268288Y373500D03*
M02*
