M48
;GenerationSoftware,Autodesk,EAGLE,9.6.2*%
;CreationDate,2021-06-23T14:07:14Z*%
FMAT,2
ICI,OFF
METRIC,TZ,000.000
T1C0.350
%
G90
M71
T1
X4331Y546
X-2225Y-3758
X-381Y-7519
X6820Y-12992
X7662Y-3223
X-8242Y11963
X-14922Y1499
X8230Y11976
X8623Y-1600
X-2121Y-12040
X-3797Y-12332
X-8827Y-1257
X15314Y-1524
X-9474Y11709
X-13128Y3993
X-5043Y-4838
X-3964Y1712
X6861Y4656
X-3290Y2680
X6852Y3647
X8186Y1321
X7024Y-5972
X10486Y-1169
X10308Y-9433
X2435Y-12818
X-10076Y3127
X-7352Y5666
X-546Y-10243
X-1018Y-11026
X-9711Y-8229
X5151Y-10127
X4486Y-9168
X11726Y4344
X-5690Y-6736
X757Y-10320
X1465Y-11062
M30