M48
;GenerationSoftware,Autodesk,EAGLE,9.6.2*%
;CreationDate,2022-10-27T13:13:33Z*%
FMAT,2
ICI,OFF
METRIC,TZ,000.000
T2C0.350
T1C1.016
%
G90
M71
T1
X-12700Y12700
X10319Y17780
X-12700Y17780
X-12700Y15240
T2
X4128Y28416
X4128Y26987
X-2381Y28099
X-4445Y26194
X4604Y25876
X3492Y25876
X4604Y24289
X3492Y24289
X3810Y22860
X-4604Y23336
X-4445Y24924
X-4128Y21114
X-2381Y20796
X-635Y20796
X1111Y20796
X3492Y21431
X8573Y27781
X9208Y25876
X-2857Y2540
X6191Y1746
X13652Y18415
X14287Y17304
X9684Y15240
X-4763Y17939
X-4921Y16669
X3969Y11906
X-476Y6509
X-7937Y13811
X6509Y17304
X2223Y5874
X-7144Y26346
X-8890Y8573
X11646Y19464
X9809Y5015
X-10111Y5742
X-6316Y2823
X-8257Y14920
X-6998Y21114
X3810Y13176
X4138Y9197
X-4445Y28099
X-7620Y18256
X-10231Y20654
X552Y17387
X592Y15616
X759Y18473
X1511Y3126
X-5274Y12216
X4814Y18308
X6985Y25274
X4698Y17210
X-952Y28257
X1111Y28257
X2381Y28257
X6826Y24289
M30