M48
;GenerationSoftware,Autodesk,EAGLE,9.6.2*%
;CreationDate,2022-09-15T12:14:04Z*%
FMAT,2
ICI,OFF
METRIC,TZ,000.000
T2C0.350
T1C1.016
%
G90
M71
T1
X22225Y31750
X45244Y36830
X22225Y36830
X22225Y34290
T2
X25479Y24298
X25414Y26248
X47880Y34131
X45304Y34131
X39529Y41910
X38259Y41910
X36671Y41910
X35243Y41910
X33814Y41910
X32385Y41910
X30004Y37783
X30004Y35084
X38259Y40640
X39370Y40640
X42863Y43021
X44609Y40481
X26352Y33338
X20320Y36671
X33020Y29369
X24765Y38576
X39846Y32067
X36671Y40958
X35243Y40958
X33814Y40958
X32385Y40958
X31274Y41910
X35719Y40005
X33814Y40005
X36989Y39053
X30004Y36513
X28734Y28249
X27781Y40958
X46387Y38522
X44868Y25046
X24317Y24197
X28894Y21590
X32480Y31686
X38735Y30789
X40614Y21332
X30797Y31909
X27464Y37465
X23564Y38649
X29524Y38900
X36354Y31909
X37148Y32544
X38792Y28257
X38144Y20048
X39846Y38100
X41751Y39053
X38215Y21332
X35137Y22837
X31115Y21907
X35401Y34131
M30