M48
;GenerationSoftware,Autodesk,EAGLE,9.6.2*%
;CreationDate,2022-09-12T13:44:26Z*%
FMAT,2
ICI,OFF
METRIC,TZ,000.000
T2C0.350
T1C1.016
%
G90
M71
T1
X22225Y31750
X46196Y37148
X22225Y36830
X22225Y34290
T2
X48260Y36354
X27781Y32861
X35878Y42069
X33973Y42069
X31750Y42069
X29527Y42069
X40164Y25559
X29694Y40330
X26511Y24924
X21273Y38100
X46911Y34687
X38418Y22384
X45547Y24192
X40164Y21174
X24325Y24121
X29678Y25567
X27566Y24130
X31432Y36914
X30956Y37783
X26670Y33814
X38073Y36513
X35514Y34608
X33927Y34608
X38468Y40227
X39453Y40164
X41593Y37941
X41593Y39053
X39370Y34207
X29369Y22384
X29845Y35294
X23726Y38496
X30162Y27781
X26088Y37253
X41127Y28734
X29527Y38894
X32702Y25400
X28522Y20298
X50006Y36195
X36248Y22202
M30