M48
;GenerationSoftware,Autodesk,EAGLE,9.6.2*%
;CreationDate,2023-11-16T18:31:05Z*%
FMAT,2
ICI,OFF
METRIC,TZ,000.000
T2C0.300
T1C1.016
%
G90
M71
T1
X-12224Y12700
X10319Y17780
X-12224Y17780
X-12224Y15240
T2
X2699Y28257
X4286Y28099
X-3651Y28257
X-6826Y27940
X7144Y29210
X3492Y26194
X-3334Y26352
X3492Y24289
X-3334Y24289
X-5080Y20320
X-6985Y29369
X-3334Y22225
X-1905Y20955
X0Y20955
X2064Y20955
X3492Y22225
X8573Y26352
X4921Y20479
X13652Y18415
X14287Y17304
X8414Y17304
X-4763Y17939
X-5556Y16510
X-476Y6509
X-7937Y13811
X6350Y17304
X0Y7779
X6350Y7937
X2223Y8890
X-4445Y2223
X8414Y18256
X-7937Y18733
X-7937Y17621
X-9049Y15557
X-8731Y10954
X-9525Y11589
X-8414Y4921
X-8414Y7779
X2223Y10319
X-4286Y4445
X4604Y2857
X5398Y2540
X6350Y6985
X-9208Y8890
X-10319Y25717
X-9366Y23654
X-9208Y26829
X11646Y19464
X10444Y5333
X-10905Y5107
X-6316Y2823
X-1746Y18574
X-4921Y28257
X-6998Y21114
X3175Y12382
X4138Y9197
X-3369Y11739
X-7937Y20161
X-9754Y21924
X1505Y18498
X2338Y18473
X-5717Y12222
X1511Y3126
X6826Y24289
X4814Y18308
X6985Y25274
X4698Y17210
X-2064Y28257
X-476Y28257
X1270Y28257
X759Y18791
M30